<svg style="display: none;"><symbol viewBox="0 0 512 512" id="icon-social-500px"><title>social-500px</title> <path id="social-500px-500px-circle-outline-icon" d="M256,90c44.34,0,86.026,17.267,117.38,48.62C404.733,169.974,422,211.66,422,256	c0,44.34-17.267,86.026-48.62,117.38C342.026,404.732,300.34,422,256,422s-86.026-17.268-117.38-48.62 C107.267,342.026,90,300.34,90,256c0-44.34,17.267-86.026,48.62-117.38C169.974,107.267,211.66,90,256,90 M256,50 C142.229,50,50,142.229,50,256s92.229,206,206,206s206-92.229,206-206S369.771,50,256,50L256,50z M257.161,279.193 c17.195,19.931,36.402,36.656,62.606,36.656c34.849,0,56.12-26.715,56.12-60.661c0-33.791-21.633-59.038-55.795-59.038 c-28.263,0-45.989,18.412-62.932,38.926c-17.801-21.347-35.556-38.926-63.579-38.926c-32.373,0-55.47,23.482-55.47,59.687 c0,36.541,24.337,60.012,56.767,60.012C223.975,315.85,239.429,297.78,257.161,279.193z M168.929,256.486 c0-13.354,8.699-27.897,24.653-27.897c16.248,0,33.009,16.198,44.116,28.223c-10.771,12.574-26.582,26.274-43.143,26.274 C178.209,283.086,168.929,271.747,168.929,256.486z M276.624,256.812c11.553-12.498,25.839-28.223,42.82-28.223 c16.605,0,25.951,13.051,25.951,27.573c0,14.67-8.568,26.924-24.978,26.924C302.867,283.086,288.118,270.08,276.624,256.812z"/> </symbol><symbol viewBox="0 0 512 512" id="icon-social-github"><title>social-github</title> <path id="social-github-github-5-icon" d="M256,90c91.742,0,166,74.244,166,166c0,91.741-74.245,166-166,166c-91.743,0-166-74.245-166-166 C90,164.259,164.244,90,256,90z M256,50C142.229,50,50,142.229,50,256s92.229,206,206,206s206-92.229,206-206S369.771,50,256,50z M256.001,142.081c-64.506,0-116.803,52.298-116.803,116.802c0,51.604,33.467,95.395,79.883,110.832 c5.836,1.084,7.717-2.527,7.717-5.618V342.35c-32.486,7.07-39.258-13.773-39.258-13.773c-5.303-13.507-12.965-17.102-12.965-17.102 c-10.598-7.242,0.799-7.1,0.799-7.1c11.732,0.828,17.91,12.043,17.91,12.043c10.416,17.852,27.316,12.691,33.99,9.705 c1.045-7.548,4.068-12.699,7.414-15.617c-25.949-2.945-53.211-12.965-53.211-57.726c0-12.757,4.562-23.174,12.035-31.349 c-1.219-2.947-5.211-14.829,1.121-30.911c0,0,9.811-3.137,32.127,11.977c9.324-2.586,19.314-3.888,29.24-3.936 c9.924,0.048,19.932,1.35,29.256,3.936c22.301-15.114,32.09-11.977,32.09-11.977c6.359,16.083,2.357,27.964,1.15,30.911 c7.49,8.175,12.025,18.592,12.025,31.349c0,44.865-27.328,54.742-53.336,57.631c4.184,3.621,8.014,10.74,8.014,21.634 c0,15.627,0,28.213,0,32.052c0,3.109,1.873,6.749,7.795,5.608c46.387-15.465,79.807-59.229,79.807-110.822 C372.802,194.379,320.503,142.081,256.001,142.081z"/> </symbol><symbol viewBox="0 0 512 512" id="icon-social-instagram"><title>social-instagram</title> <path id="social-instagram-instagram-circle-outline-icon" d="M256,90c44.34,0,86.026,17.267,117.38,48.62C404.733,169.974,422,211.66,422,256 c0,44.34-17.267,86.026-48.62,117.38C342.026,404.732,300.34,422,256,422s-86.026-17.268-117.38-48.62 C107.267,342.026,90,300.34,90,256c0-44.34,17.267-86.026,48.62-117.38C169.974,107.267,211.66,90,256,90 M256,50 C142.229,50,50,142.229,50,256s92.229,206,206,206s206-92.229,206-206S369.771,50,256,50L256,50z M298.938,227.722h57.523v88.307 c0,21.511-17.437,38.948-38.946,38.948H198.487c-21.511,0-38.949-17.438-38.949-38.948v-88.307h57.268 c-5.862,8.235-9.321,18.3-9.321,29.178c0,27.829,22.56,50.387,50.389,50.387c27.827,0,50.387-22.559,50.387-50.387 C308.26,246.021,304.799,235.957,298.938,227.722z M356.461,195.973v25.579H293.77c-9.14-9.28-21.845-15.04-35.896-15.04 c-14.055,0-26.759,5.759-35.898,15.04h-62.437v-25.579c0-13.128,6.503-24.729,16.454-31.785v41.938h7.985v-46.297 c1.812-0.729,3.689-1.322,5.624-1.773v48.071h7.986v-49.079c0.3-0.007,0.597-0.022,0.899-0.022h4.612v49.101h7.984v-49.101h106.431 C339.024,157.025,356.461,174.462,356.461,195.973z M338.661,179.558c0-3.45-2.799-6.247-6.249-6.247h-21.054 c-3.451,0-6.247,2.797-6.247,6.247v21.518c0,3.45,2.796,6.247,6.247,6.247h21.054c3.45,0,6.249-2.797,6.249-6.247V179.558z M219.054,256.9c0-11.621,5.141-22.058,13.257-29.178c2.848-2.497,6.061-4.583,9.55-6.17c4.886-2.222,10.304-3.47,16.013-3.47 c5.708,0,11.125,1.248,16.012,3.47c3.489,1.587,6.701,3.673,9.549,6.17c8.117,7.121,13.257,17.557,13.257,29.178 c0,21.405-17.413,38.819-38.817,38.819C236.468,295.719,219.054,278.305,219.054,256.9z M229.311,256.9 c0,15.844,12.845,28.69,28.689,28.69c15.846,0,28.689-12.846,28.689-28.69c0-15.846-12.844-28.69-28.689-28.69 C242.155,228.21,229.311,241.054,229.311,256.9z"/> </symbol><symbol viewBox="0 0 512 512" id="icon-social-twitter"><title>social-twitter</title> <path id="social-twitter-twitter-5-icon" d="M256,90c91.742,0,166,74.244,166,166c0,91.741-74.245,166-166,166c-91.743,0-166-74.245-166-166 C90,164.259,164.244,90,256,90 M256,50C142.229,50,50,142.229,50,256s92.229,206,206,206s206-92.229,206-206S369.771,50,256,50 L256,50z M368.797,201.997c-7.712,3.42-15.999,5.732-24.697,6.771c8.876-5.322,15.696-13.748,18.906-23.79 c-8.311,4.928-17.512,8.506-27.307,10.435c-7.843-8.357-19.02-13.579-31.387-13.579c-27.756,0-48.16,25.902-41.889,52.8 c-35.736-1.793-67.423-18.913-88.63-44.928c-11.265,19.323-5.844,44.61,13.308,57.409c-7.049-0.223-13.682-2.158-19.478-5.379 c-0.466,19.922,13.811,38.552,34.489,42.708c-6.052,1.646-12.681,2.023-19.419,0.735c5.472,17.084,21.354,29.516,40.17,29.862 c-18.079,14.169-40.849,20.495-63.661,17.807c19.028,12.2,41.632,19.32,65.915,19.32c79.834,0,124.939-67.433,122.222-127.911 C355.741,218.194,363.031,210.62,368.797,201.997z"/> </symbol></svg>