<?xml version="1.0" encoding="utf-8"?>
<!-- Generator: Adobe Illustrator 18.0.0, SVG Export Plug-In . SVG Version: 6.00 Build 0)  -->
<!DOCTYPE svg PUBLIC "-//W3C//DTD SVG 1.1//EN" "http://www.w3.org/Graphics/SVG/1.1/DTD/svg11.dtd">
<svg version="1.1" id="Layer_1" xmlns="http://www.w3.org/2000/svg" xmlns:xlink="http://www.w3.org/1999/xlink" x="0px" y="0px"
	 viewBox="0 0 150 150" enable-background="new 0 0 150 150" xml:space="preserve">
<circle fill="#BF3A2A" cx="75" cy="75" r="75"/>
<g>
	<path fill="#FFFFFF" d="M93.4,93.3c0,0.1,0,0.3,0.1,0.5c0.1,0.2,0.1,0.3,0.1,0.5c0,0.3-0.1,0.6-0.4,0.9C93,95.4,93,95.7,93.3,96
		c0.2,0.2,0.3,0.5,0.4,1c0,0.5,0,0.9-0.2,1.4c-0.2,0.5-0.4,0.8-0.8,1.1c-0.3,0.2-0.7,0.2-1.1-0.1c-0.3-0.1-0.5-0.2-0.8-0.3
		c-0.2,0-0.5-0.2-0.7-0.4c-0.1-0.1-0.4-0.3-0.8-0.4c-0.4-0.1-0.7-0.2-0.9-0.4c-0.7-0.2-1.4-0.5-2-0.9c-0.6-0.4-1.2-0.7-2-1
		c-0.5-0.1-0.9-0.3-1.4-0.5c-0.4-0.2-0.9-0.4-1.4-0.6c-0.2-0.1-0.4-0.3-0.6-0.4c-0.2-0.1-0.4-0.2-0.6-0.4c-0.1-0.1-0.3-0.1-0.4,0
		c-0.1,0.1-0.3,0.1-0.4,0.1c-0.1-0.1-0.1-0.3-0.1-0.6c0-0.3-0.1-0.4-0.2-0.2c-0.2,0.3-0.5,0.4-0.8,0.2c-0.3-0.2-0.6-0.4-0.9-0.6
		c-0.4-0.1-0.8-0.3-1.2-0.4c-0.4-0.1-0.7-0.3-1.1-0.5c-0.3-0.3-0.6-0.4-0.9-0.5c-0.2-0.1-0.5-0.2-0.9-0.3c-0.3-0.1-0.5-0.2-0.6-0.2
		c-0.1,0-0.3-0.1-0.5-0.2c-0.2-0.1-0.4-0.3-0.7-0.4c-0.2-0.1-0.5-0.2-0.7-0.4c-0.4-0.2-0.8-0.4-1.3-0.6c-0.4-0.2-0.9-0.4-1.3-0.6
		c-0.1-0.1-0.3-0.1-0.5-0.1c-0.2,0-0.3,0-0.5-0.1c-0.1-0.1-0.3-0.3-0.4-0.4c-0.1-0.1-0.3-0.2-0.5-0.3c-0.4-0.1-0.7-0.2-1-0.4
		c-0.3-0.2-0.6-0.3-0.9-0.5c-0.9-0.3-1.7-0.6-2.5-1c-0.8-0.4-1.7-0.8-2.5-1.1c-0.4-0.2-0.8-0.4-1.3-0.6c-0.4-0.2-0.9-0.4-1.4-0.6
		c-0.3-0.2-0.7-0.4-1-0.5c-0.3-0.1-0.6-0.2-1-0.4c-0.4-0.2-0.8-0.4-1.2-0.6c-0.4-0.2-0.8-0.4-1.2-0.6c-0.5-0.3-0.9-0.5-1.1-0.6
		c-0.5-0.1-1-0.3-1.4-0.4c-0.6-0.3-1.4-0.7-2.4-1.1c-1-0.4-1.5-1-1.7-1.8c-0.1-1.8-0.1-3.7,0-5.6c0.1-0.3,0.1-0.5,0-0.6
		c-0.1-0.1-0.1-0.3,0-0.5c0.1-0.2,0.1-0.4,0.1-0.6c0-0.2,0-0.4,0.1-0.6c0.1-0.3,0.3-0.6,0.8-0.9c0.4-0.2,0.8-0.4,1.2-0.6
		c0.9-0.4,1.8-0.8,2.6-1.1c0.9-0.3,1.7-0.8,2.5-1.3c0.7-0.1,1.5-0.3,2.3-0.7c0.8-0.4,1.5-0.8,2.2-1.1c1.6-0.7,3.3-1.5,5.1-2.2
		c0.2-0.1,0.4-0.2,0.6-0.3c0.2,0,0.4-0.1,0.5-0.3c0.1-0.1,0.3-0.2,0.4-0.2c0.1,0,0.3,0,0.5-0.1c0.3-0.2,0.6-0.3,0.9-0.4
		c0.3-0.1,0.6-0.2,0.9-0.4l0.9-0.6c0.2,0,0.5-0.1,0.9-0.2c0.3-0.1,0.6-0.3,0.9-0.5c0.3-0.2,0.6-0.3,0.9-0.4c0.3-0.1,0.7-0.2,1.1-0.4
		c0.4-0.2,0.7-0.3,1.1-0.5c0.3-0.1,0.7-0.3,1.1-0.4c0.4-0.1,0.7-0.3,1.1-0.6c0.2-0.2,0.5-0.4,0.9-0.5c0.4-0.1,0.7-0.2,1.1-0.4
		c0.7-0.3,1.5-0.7,2.5-1c0.6-0.3,1.2-0.5,1.7-0.8c0.5-0.2,1-0.5,1.6-0.9c0.7-0.3,1.4-0.5,2-0.8c0.7-0.2,1.3-0.5,1.9-0.9
		c0.5-0.3,1.1-0.6,1.7-0.8c0.6-0.2,1.1-0.4,1.7-0.8c0.5-0.3,1.1-0.5,1.8-0.8c0.6-0.2,1.2-0.1,1.8,0.5c0,1.1,0,2.3,0.1,3.3
		c0.1,1.1,0.1,2.2,0.1,3.2c0,0.5,0,1-0.1,1.5c-0.1,0.5-0.1,1-0.2,1.5c0,0.4-0.1,0.7-0.4,0.9c-0.3,0.2-0.6,0.4-0.9,0.6
		c-0.3,0.1-0.6,0.3-0.8,0.6c-0.5,0-0.9,0.1-1.2,0.4c-0.4,0.2-0.8,0.4-1.2,0.5c-0.4,0.1-0.8,0.3-1.2,0.5c-0.5,0.3-1,0.6-1.5,0.9
		c-0.5,0.3-1,0.5-1.6,0.5c-0.1,0.3-0.4,0.5-0.9,0.6c-0.4,0-0.8-0.1-1-0.3c-0.1,0-0.1,0.1-0.2,0.4c-0.1,0.2-0.2,0.4-0.3,0.5
		c-0.3,0.2-0.6,0.3-0.9,0.4c-0.3,0-0.6,0.2-0.9,0.5c-0.3,0.3-0.8,0.6-1.4,0.8c-0.6,0.2-1.1,0.3-1.6,0.5c-0.3,0.1-0.5,0.3-0.7,0.4
		c-0.2,0.1-0.4,0.2-0.7,0.2c-0.5,0.1-1,0.4-1.3,0.8c-0.3,0-0.8,0.1-1.3,0.4c-0.3,0.1-0.5,0.2-0.6,0.2c-0.1,0-0.2-0.2-0.3-0.5
		c-0.1,0.1-0.2,0.2-0.1,0.3c0.1,0.1,0.1,0.2,0.1,0.4c0.1,0.2,0,0.3-0.3,0.4c-0.3,0-0.5,0.1-0.6,0.1c-0.5,0.1-0.9,0.3-1.3,0.5
		c-0.4,0.2-0.8,0.4-1.2,0.6c-0.3,0.1-0.7,0.3-1.1,0.6c-0.4,0.2-0.8,0.4-1.2,0.6c-0.5,0.1-0.9,0.3-1.2,0.4c-0.3,0.1-0.6,0.3-0.9,0.4
		c-0.2,0.1-0.5,0.2-0.7,0.4c-0.4,0.3-0.7,0.6-0.9,0.8c-0.2,0.2,0,0.5,0.5,0.9c0.3,0.2,0.7,0.4,1.1,0.5c0.4,0.1,0.7,0.3,1.1,0.4
		c0.8,0.4,1.7,0.8,2.5,1.2c0.9,0.4,1.8,0.7,2.6,1c0.7,0.3,1.4,0.6,2.1,1c0.6,0.4,1.3,0.6,2.1,0.6c0.3,0.3,0.5,0.5,0.7,0.6
		c0.2,0.1,0.5,0.2,0.9,0.2c0.4,0.3,0.9,0.6,1.4,0.7c0.5,0.1,0.9,0.4,1.3,0.7c0.1,0.1,0.3,0.2,0.5,0.2c0.2,0,0.3,0,0.5,0.2
		c0.2,0.1,0.5,0.2,0.9,0.5c0.3,0.1,0.6,0.3,1,0.5c0.4,0.2,0.7,0.3,1,0.4c0.3,0.1,0.6,0.2,0.8,0.3c0.2,0.1,0.5,0.2,0.8,0.3
		c0.7,0.1,1.4,0.4,2.1,0.9c0.7,0.5,1.5,0.8,2.3,1.1c0.8,0.2,1.6,0.6,2.4,1c0.3,0.2,0.7,0.4,1.2,0.7c0.4,0.3,0.7,0.6,0.8,1
		c0,0.3,0,0.5-0.1,0.7c0,0.2-0.1,0.4-0.1,0.7c-0.1,0.3-0.1,0.5,0.1,0.7c0.1,0.2,0.2,0.4,0.2,0.7c0,0.1,0,0.3-0.1,0.5
		C93.5,93,93.4,93.1,93.4,93.3z M49.8,74.3c0.1-0.1,0.2-0.2,0-0.3c-0.1-0.1-0.2-0.1-0.4-0.1C49.5,74.1,49.6,74.2,49.8,74.3z
		 M50.5,76c-0.3-0.1-0.4,0-0.3,0.3C50.4,76.3,50.5,76.2,50.5,76z M50.3,75.2c0.1,0.1,0.2,0,0.2-0.2c0-0.2-0.1-0.2-0.2-0.2V75.2z
		 M50.3,77.8c0.3,0.1,0.4,0.1,0.4,0c0-0.1,0.1-0.2,0.4-0.3c-0.1-0.1-0.3-0.2-0.5-0.1C50.4,77.4,50.3,77.6,50.3,77.8z M51.1,73.7
		c0.2-0.1,0.4-0.2,0.6-0.1c0.2,0.1,0.3-0.1,0.3-0.4c-0.2-0.1-0.4-0.2-0.7-0.1C51.1,73.2,51,73.4,51.1,73.7z M51.3,77.7
		c0.1,0,0.2-0.1,0.2-0.2h-0.2V77.7z M51.5,80.9c0.2,0,0.3-0.1,0.2-0.2C51.5,80.6,51.5,80.7,51.5,80.9z M52.1,78.8
		c0.2,0,0.3-0.1,0.3-0.3c-0.1,0-0.3,0-0.4,0.1C51.9,78.6,52,78.7,52.1,78.8z M52.4,70c-0.1,0-0.2,0-0.3,0.1c-0.1,0.1,0,0.1,0.1,0.2
		c0-0.1,0-0.2,0.1-0.2C52.4,70.1,52.4,70.1,52.4,70z M52.2,75.7c0.3-0.1,0.6-0.3,0.8-0.6C52.9,75,52.7,75,52.6,75
		c-0.2,0.1-0.3,0.1-0.5,0.2C52,75.4,52.1,75.6,52.2,75.7z M52.1,72.8c0.1,0.3,0.2,0.4,0.3,0.4c0.1,0,0.3-0.1,0.4-0.2
		c0.1-0.1,0.3-0.2,0.4-0.2c0.1,0,0.2,0.1,0.2,0.3c-0.2,0.2-0.3,0.5-0.2,0.8c0.1,0.3,0.3,0.4,0.6,0.2c-0.3-0.2-0.4-0.4-0.3-0.7
		c0.1-0.3,0-0.5-0.2-0.8c-0.2,0.1-0.4,0.2-0.6,0.2C52.5,72.6,52.3,72.7,52.1,72.8z M53.1,76.6c0.2,0.1,0.4,0,0.7-0.2
		c0.2-0.2,0.4-0.4,0.5-0.6c-0.2-0.1-0.4,0-0.6,0.2C53.4,76.3,53.2,76.4,53.1,76.6z M53.9,78.9c0.4,0,0.7-0.1,0.9-0.4
		c-0.1-0.1-0.3-0.1-0.5-0.1c-0.2,0-0.3,0-0.5-0.1c-0.1,0.1-0.1,0.2-0.1,0.3C53.9,78.6,53.9,78.7,53.9,78.9z M53.9,72.8
		c0.2,0,0.3,0,0.4-0.1c0-0.1,0-0.1,0-0.2c-0.1,0-0.2-0.1-0.3-0.1S53.9,72.6,53.9,72.8z M55,71.7c-0.1,0-0.3,0-0.5-0.1
		c-0.2,0-0.3,0.1-0.4,0.3c0.1,0.5,0.3,0.7,0.6,0.7c0.1,0,0.1,0,0.1-0.1c0.1,0,0.3,0,0.4-0.1c0.1,0,0.3-0.1,0.4-0.1
		c0-0.3-0.1-0.4-0.2-0.4c-0.1,0-0.3,0.1-0.4,0.3l-0.2,0.2c0,0.1,0,0.1-0.1,0.1c-0.1,0-0.1-0.2,0.1-0.5C55,71.9,55,71.8,55,71.7z
		 M54.7,78.1c0.3,0,0.5-0.2,0.4-0.6c-0.1-0.1-0.3-0.1-0.4,0.1C54.6,77.8,54.6,77.9,54.7,78.1z M54.9,73.5c0.3,0,0.4-0.1,0.4-0.4
		C55.1,73.1,54.9,73.2,54.9,73.5z M55.2,77.5c0.2,0.1,0.4,0,0.6-0.3c0.2-0.2,0.4-0.3,0.7-0.2c0-0.5-0.2-0.7-0.7-0.5
		C55.3,76.8,55.1,77.1,55.2,77.5z M55.3,74c0.1,0,0.1,0,0.1,0.1c0,0,0,0.1,0.1,0.1c0-0.1-0.1-0.2-0.2-0.2V74z M56,70.2
		c-0.1,0.1-0.1,0.2-0.1,0.3c0,0.1,0.1,0.2,0.3,0.1C56.3,70.3,56.2,70.2,56,70.2z M56.3,73.9c0.1-0.3,0.1-0.4-0.1-0.4
		c-0.1,0-0.2,0.1-0.3,0.1C55.9,73.8,56,73.9,56.3,73.9z M56.7,75.1c-0.3-0.1-0.5-0.1-0.7,0c-0.1,0.2-0.1,0.3,0.1,0.3
		c0.1,0,0.2,0,0.3,0.2C56.1,75.8,56,76,56,76c0.1,0,0.2,0,0.3,0c0.1,0,0.4-0.1,0.8-0.3C57.2,75.4,57,75.2,56.7,75.1z M56.1,72.1
		c-0.1,0.2,0,0.3,0.2,0.2c0.2-0.1,0.2-0.1,0.1-0.2h-0.2H56.1z M56.6,71.3c0-0.1-0.1-0.2-0.3-0.1v0.1H56.6z M56.8,81
		c0.1-0.1,0.1-0.2,0.1-0.3c0-0.1-0.1-0.2-0.2-0.2C56.5,80.7,56.6,80.9,56.8,81z M57.7,78.3c0.1-0.5-0.1-0.7-0.4-0.7
		c-0.3,0-0.5,0.2-0.5,0.6c0.1-0.1,0.3-0.1,0.4,0.1C57.4,78.3,57.5,78.3,57.7,78.3z M57,77c0.3,0,0.6-0.2,0.7-0.6
		c0.1-0.4,0-0.6-0.4-0.8c-0.1,0.1-0.2,0.4-0.3,0.7C57,76.7,57,76.9,57,77z M57.6,72.9c-0.1-0.1-0.1-0.3-0.2-0.4
		c0-0.1-0.2-0.1-0.4-0.1c0.1,0.1,0.1,0.3,0.2,0.4C57.2,72.9,57.4,73,57.6,72.9z M58.6,70.3c0.5,0.1,0.6,0,0.3-0.5
		c-0.3-0.5-0.6-0.7-1-0.7c0,0.3,0.1,0.4,0.4,0.4c0.2,0,0.4,0.1,0.6,0.3C58.5,69.9,58.4,70.1,58.6,70.3z M57.9,72.3
		c0,0.3,0.1,0.4,0.3,0.4C58.2,72.4,58.1,72.2,57.9,72.3z M58.1,79.7c0.2,0.1,0.3,0,0.4-0.2c0.1-0.2,0-0.3-0.1-0.3
		c-0.1,0.1-0.2,0.1-0.3,0.2C58,79.4,58,79.5,58.1,79.7z M58.1,71.7c0.3,0.1,0.4,0.1,0.5-0.2c0-0.3-0.1-0.4-0.4-0.3
		C58.1,71.2,58.1,71.4,58.1,71.7z M58.9,71.3c0.1,0.1,0.2,0.1,0.3,0.2c0,0.1,0.1,0.1,0.3,0c0.1-0.2,0-0.3-0.2-0.4
		C59.1,71.1,59,71.1,58.9,71.3z M59.2,69.3c0.3,0.1,0.4,0,0.4-0.3c0-0.2-0.2-0.3-0.4-0.3V69.3z M59.3,78.4c-0.1,0.3,0,0.3,0.1,0.2
		C59.5,78.4,59.5,78.4,59.3,78.4z M59.4,79.2c-0.1,0.1,0,0.2,0.2,0.2c0.2,0,0.2-0.1,0.2-0.2c-0.1,0-0.2,0-0.2-0.1
		C59.6,79,59.5,79,59.4,79.2z M60.8,84.7c0-0.2-0.1-0.3-0.2-0.3v0.3H60.8z M61.2,80.5c-0.1,0.1,0.1,0.1,0.5-0.1
		c0.4-0.2,0.3-0.5-0.2-0.8c0.3,0.1,0.4,0,0.2-0.3c-0.2-0.3-0.4-0.4-0.4-0.5c-0.1-0.2-0.2-0.3-0.3-0.2c-0.1,0.1-0.1,0.2-0.2,0.4
		c0,0.2-0.1,0.4-0.1,0.6c0,0.2,0,0.3,0,0.4c0.1,0.1,0.3,0.2,0.4,0.1C61.4,79.9,61.4,80.1,61.2,80.5z M61.3,75.7
		c-0.1,0-0.3,0.1-0.4,0.2c-0.1,0.1,0,0.2,0.2,0.2L61.3,75.7z M61,72.6c0.2,0,0.3-0.1,0.2-0.2C61.1,72.3,61,72.4,61,72.6z M61.6,77.5
		c0.1-0.1,0-0.3-0.1-0.4c-0.1-0.1-0.2-0.1-0.3,0.1C61.2,77.4,61.4,77.5,61.6,77.5z M61.5,64.4c0,0.2,0.1,0.3,0.3,0.4
		C61.8,64.5,61.7,64.3,61.5,64.4z M61.6,75.7c-0.1,0.3-0.1,0.4,0.2,0.3C61.8,76,61.8,75.9,61.6,75.7z M62.4,66.7
		c-0.1,0.3,0,0.4,0.2,0.3C62.8,66.9,62.8,66.8,62.4,66.7z M62.4,83c0.2,0,0.3-0.1,0.3-0.2C62.5,82.8,62.4,82.9,62.4,83z M62.8,64.8
		c0-0.3,0-0.5-0.1-0.5c-0.1,0-0.1,0.1-0.2,0.2c-0.1,0.1-0.1,0.2-0.1,0.3C62.5,64.8,62.6,64.9,62.8,64.8z M62.5,80.3
		c0.2,0.1,0.3,0.3,0.4,0.4c0,0.1,0.2,0.2,0.5,0.2v-0.7c-0.1,0-0.3,0-0.5-0.1C62.7,80.1,62.6,80.2,62.5,80.3z M63.2,82.9
		c0.3-0.1,0.5-0.3,0.5-0.4c-0.1,0.1-0.3,0.1-0.4,0.1C63.2,82.6,63.2,82.7,63.2,82.9z M63.6,80.2c0.2,0,0.3-0.1,0.2-0.2
		C63.7,79.9,63.6,79.9,63.6,80.2z M64.4,67.9c0-0.2,0-0.3-0.1-0.2c-0.1,0.1-0.1,0.1-0.2,0c0,0.2,0,0.3,0.1,0.3
		C64.2,67.9,64.3,67.9,64.4,67.9z M65,70.3c0.1-0.2,0-0.3-0.3-0.4c-0.2-0.1-0.4,0-0.6,0.1c-0.1,0.2,0,0.3,0.3,0.4
		C64.6,70.4,64.8,70.4,65,70.3z M64.3,82.9c0.2-0.1,0.3-0.2,0.4-0.4c0-0.2,0-0.4-0.2-0.5c0.3-0.2,0.4-0.4,0.3-0.7
		c-0.1-0.2-0.3-0.3-0.6-0.2c0,0.1,0,0.3,0.1,0.4c0.1,0.1,0.1,0.3,0.2,0.4c-0.1,0-0.2,0.1-0.3,0.4C64.2,82.6,64.2,82.8,64.3,82.9z
		 M64.8,68.7c-0.3-0.1-0.4,0-0.4,0.3c0.1,0.1,0.3,0.2,0.4,0.1C64.9,69,64.9,68.9,64.8,68.7z M64.6,65.6c-0.2,0.2-0.2,0.3,0.1,0.3
		C64.9,65.7,64.8,65.6,64.6,65.6z M64.9,83.9c0-0.1,0-0.1,0.1-0.1c0.1,0,0.1,0,0.1-0.2c-0.1,0-0.2,0-0.3,0.1
		C64.7,83.9,64.7,83.9,64.9,83.9z M66,67.2c-0.3,0.1-0.5,0.2-0.7,0.4c-0.2,0.2-0.4,0.4-0.6,0.5c0.1,0.1,0.3,0.2,0.5,0.1
		c0.2-0.1,0.3-0.2,0.4-0.4c0.1-0.3,0.3-0.4,0.4-0.2c0.1,0.2,0.3,0.3,0.4,0.2c0.1-0.1,0.1-0.3-0.1-0.5C66.3,67.1,66.1,67.1,66,67.2z
		 M65.2,66.1c-0.1,0.2-0.1,0.4,0,0.6c0.2,0.1,0.3,0,0.4-0.2c0-0.2,0.1-0.4,0.3-0.5C65.5,66,65.3,66,65.2,66.1z M65.5,82.5
		c-0.1,0.3,0,0.3,0.1,0.2C65.7,82.6,65.7,82.5,65.5,82.5z M66.7,62.6c0.1-0.5-0.1-0.6-0.4-0.5c-0.3,0.1-0.6,0.3-0.7,0.4
		c0.1,0.1,0.3,0.2,0.5,0.1C66.3,62.4,66.5,62.4,66.7,62.6z M67.1,68c-0.1,0.1-0.2,0.1-0.2,0c0-0.1-0.1-0.1-0.2-0.1
		c0,0.3-0.1,0.4-0.3,0.5c-0.2,0.1-0.4,0.1-0.5,0.2c0,0.2,0.1,0.3,0.3,0.4c0.2,0,0.3,0.1,0.5,0.2c0.2-0.1,0.3-0.3,0.3-0.5
		C66.9,68.4,67,68.2,67.1,68z M66.1,81.4c0.3,0.3,0.7,0.4,1,0.3c0.3-0.2,0.6-0.3,0.9-0.5c-0.1,0-0.2-0.1-0.3-0.2
		c-0.3,0.1-0.7,0.1-1,0C66.4,80.9,66.2,81.1,66.1,81.4z M66.5,83.5c0.2,0,0.3-0.1,0.2-0.2C66.5,83.3,66.5,83.3,66.5,83.5z
		 M66.8,62.6c0,0.3,0.1,0.5,0.2,0.5c0.1,0,0.2-0.1,0.3-0.2c0.1-0.1,0.1-0.2,0.1-0.3C67.2,62.4,67.1,62.4,66.8,62.6z M67.1,69.3
		c0.1,0,0.2-0.1,0.3-0.2c0-0.1,0.1-0.2,0.2-0.4c-0.1,0-0.3,0-0.5,0.1C66.9,68.9,66.9,69.1,67.1,69.3z M67,82.8
		c0.1,0,0.2-0.1,0.3-0.2c0-0.1,0-0.2-0.2-0.2c0,0.1,0,0.1-0.1,0.2C67,82.6,67,82.7,67,82.8z M67.9,64.9c0.1-0.2,0-0.3-0.3-0.2
		c-0.3,0.1-0.4,0.2-0.4,0.3C67.5,65.3,67.7,65.2,67.9,64.9z M67.8,82.3c0,0.3,0.1,0.6,0.4,0.9c0.2,0.2,0.5,0.3,0.7,0.2
		c-0.1-0.1-0.3-0.4-0.4-0.7C68.4,82.3,68.1,82.2,67.8,82.3z M68.2,69c0,0.1,0,0.2-0.1,0.3h0.5c-0.1,0-0.1,0-0.2-0.1L68.2,69z
		 M68.5,84.9c0.2,0,0.3-0.1,0.2-0.2C68.6,84.7,68.5,84.7,68.5,84.9z M68.6,85.8c0.5,0,0.7-0.1,0.7-0.2c-0.1-0.2-0.3-0.3-0.6-0.3
		C68.5,85.3,68.5,85.5,68.6,85.8z M68.6,65.9c-0.1,0.3,0,0.4,0.2,0.4c0.2,0,0.2-0.2,0.2-0.4H68.6z M69.6,67.2c0.1-0.1,0-0.2-0.3-0.4
		c-0.3-0.2-0.6-0.3-0.7-0.3c-0.1,0.3,0,0.5,0.2,0.6c0.1-0.3,0.3-0.3,0.4-0.2C69.4,67.2,69.5,67.3,69.6,67.2z M69.4,63.4
		c-0.3,0-0.5,0.1-0.5,0.4C69.3,63.8,69.4,63.6,69.4,63.4z M69.1,83.5c-0.1,0.1,0,0.2,0.1,0.3c0.1,0,0.2,0,0.2-0.2
		c-0.1,0-0.1,0-0.1-0.1C69.3,83.5,69.3,83.5,69.1,83.5z M69.3,82.9c0.1,0.1,0.2,0,0.3-0.3c0-0.2,0-0.4-0.2-0.4
		C69.4,82.4,69.3,82.6,69.3,82.9z M69.6,66.2c0.2,0,0.3-0.1,0.2-0.2C69.7,66,69.6,66,69.6,66.2z M69.9,84.1c0.1-0.2,0.3-0.3,0.5-0.3
		c0.2,0,0.3,0,0.5-0.1c-0.3-0.3-0.6-0.4-0.9-0.2C69.7,83.8,69.7,84,69.9,84.1z M70.6,66.4c-0.2-0.1-0.4-0.1-0.5,0
		c-0.1,0.1-0.1,0.3,0,0.4C70.5,66.8,70.6,66.7,70.6,66.4z M71,85.6c0.1-0.3,0.1-0.4-0.2-0.4c-0.3,0-0.4,0.1-0.4,0.3
		c0.1,0,0.2,0.1,0.3,0.3C70.8,85.9,70.9,85.8,71,85.6z M70.8,67.6c-0.1,0.2,0,0.4,0.3,0.5c0.1-0.1,0.2-0.3,0.1-0.4
		C71.2,67.6,71,67.6,70.8,67.6z M71.1,63.6c-0.1,0.1-0.2,0.2-0.2,0.4c0,0.2,0.1,0.3,0.2,0.5c0.3,0,0.5-0.1,0.4-0.4
		C71.5,63.8,71.3,63.6,71.1,63.6z M71.7,65.9c0-0.1,0-0.3-0.1-0.5c-0.1-0.2-0.2-0.2-0.4,0C71.4,65.7,71.5,65.9,71.7,65.9z
		 M71.4,83.5c0-0.2-0.1-0.3-0.2-0.3v0.2L71.4,83.5z M71.7,83.3c0.2,0,0.3-0.1,0.2-0.2C71.8,83.1,71.7,83.1,71.7,83.3z M72,64.5
		c0,0.3,0.1,0.5,0.4,0.5c0.1-0.1,0.2-0.3,0.1-0.4C72.3,64.5,72.2,64.4,72,64.5z M72.5,87.3c0-0.2-0.1-0.3-0.3-0.3v0.3H72.5z
		 M72.5,88c0.2,0,0.3-0.1,0.3-0.4c-0.1-0.1-0.2,0-0.3,0.1C72.4,87.8,72.4,87.9,72.5,88z M73.7,62.9c-0.3,0-0.5-0.1-0.6-0.3
		c-0.1-0.2-0.3-0.2-0.6-0.1c0,0.3,0,0.5,0.2,0.4c0.1-0.1,0.2,0,0.4,0.1c-0.2,0.3-0.2,0.5,0,0.8c0.1-0.1,0.3-0.3,0.5-0.4
		C73.6,63.2,73.7,63.1,73.7,62.9z M72.8,85.6c-0.2-0.2-0.3-0.2-0.3,0.1C72.7,85.9,72.8,85.8,72.8,85.6z M73,86
		c-0.1,0.1-0.1,0.2,0,0.2C73.1,86.2,73.1,86.1,73,86z M73,65.8c-0.1,0.1-0.1,0.3,0.1,0.4c0.2,0.1,0.3,0.1,0.4-0.1
		c-0.1,0-0.2-0.1-0.2-0.2C73.2,65.9,73.1,65.8,73,65.8z M73.1,84.8c0,0.2,0.1,0.4,0.4,0.5c0.3,0.1,0.4,0,0.5-0.3
		c-0.3,0.1-0.4,0.1-0.5-0.1C73.5,84.8,73.3,84.8,73.1,84.8z M74,66.1c0-0.1-0.1-0.3-0.3-0.7c-0.2-0.4-0.2-0.6-0.1-0.8h0.1h-0.1
		c-0.1,0.1-0.2,0.1-0.3,0.1c-0.1,0-0.1,0-0.2,0.1c0.1,0.1,0.2,0.4,0.3,0.7C73.5,65.9,73.6,66,74,66.1z M73.7,67.8
		c0.2,0.1,0.3,0.1,0.4-0.1c0-0.2,0-0.3-0.2-0.3c0.1,0.1,0,0.2-0.1,0.2C73.6,67.6,73.6,67.7,73.7,67.8z M74.2,62.5
		c-0.3-0.1-0.4-0.1-0.4,0.1C73.9,62.7,74,62.7,74.2,62.5z M75.2,62.6c-0.1-0.2-0.3-0.3-0.6-0.2c-0.2,0.1-0.3,0.3-0.3,0.6
		C74.9,63,75.1,62.8,75.2,62.6z M74.4,64.8c0.3,0.3,0.5,0.2,0.6-0.1c0.1-0.3,0-0.5-0.3-0.5c0,0.1-0.1,0.2-0.2,0.3
		C74.4,64.6,74.4,64.7,74.4,64.8z M74.5,86c0,0.3,0.1,0.5,0.3,0.5c0.2,0,0.4-0.1,0.5-0.2c0.1-0.1,0.1-0.2,0.1-0.3
		C75.2,85.9,75,85.9,74.5,86z M75.1,66c0-0.1,0-0.3,0-0.5c0-0.2-0.1-0.2-0.5-0.1c0.1,0.1,0.1,0.2,0.1,0.3
		C74.8,65.9,74.9,65.9,75.1,66z M75.3,62.8c0.3,0,0.4-0.1,0.3-0.3C75.4,62.3,75.3,62.4,75.3,62.8z M75.4,85.3c0.2,0,0.3,0,0.4-0.1
		c-0.1,0-0.2,0-0.2-0.1c0-0.1-0.1-0.1-0.2-0.1V85.3z M75.6,86.9c0.2,0.1,0.3,0.1,0.4-0.2c0-0.2,0-0.4-0.2-0.4
		c-0.1,0.1-0.1,0.2-0.2,0.3C75.6,86.7,75.6,86.7,75.6,86.9z M75.7,84.3c0.3,0,0.5-0.1,0.5-0.4c-0.1-0.1-0.3-0.1-0.4,0
		C75.7,84,75.6,84.1,75.7,84.3z M75.8,61.1c0.3,0,0.5-0.1,0.4-0.2C76.1,60.8,75.9,60.9,75.8,61.1z M76.5,63.3
		c0.3-0.3,0.4-0.6,0.2-0.9c-0.2-0.3-0.5-0.5-0.9-0.6c0.2,0.1,0.3,0.4,0.4,0.7C76.2,62.8,76.3,63.1,76.5,63.3z M76.4,85.5
		c0-0.3-0.1-0.4-0.2-0.4C76.2,85.3,76.3,85.5,76.4,85.5z M77.1,64.3c0.1,0.1,0.2,0.1,0.2,0C77.3,64.1,77.3,64.1,77.1,64.3z
		 M77.3,87.6c0.3-0.1,0.4-0.2,0.3-0.5c-0.1,0-0.3,0.1-0.4,0.2C77.2,87.3,77.2,87.4,77.3,87.6z M77.9,60.3c0.2-0.2,0.3-0.3,0.2-0.4
		c-0.1,0-0.2-0.1-0.3-0.1c-0.1,0-0.2,0.1-0.2,0.2C77.6,60.2,77.7,60.3,77.9,60.3z M78.9,62.1c-0.2-0.3-0.5-0.5-1-0.5
		c0,0.2,0.1,0.3,0.3,0.3c0.2,0,0.3,0.1,0.5,0.2c-0.1,0.3-0.3,0.4-0.5,0.3c-0.2-0.1-0.3,0-0.3,0.2c0.1,0.1,0.3,0.2,0.4,0.3
		c0.1,0.1,0.3,0.2,0.4,0.2c0.3,0,0.5,0.1,0.5,0.2c0,0.1,0.2,0.2,0.5,0.4c0.1-0.1,0.1-0.2,0-0.3c-0.1-0.1,0-0.2,0.1-0.3
		c0.1-0.1,0.3-0.3,0.5-0.4c0.2-0.1,0.3-0.3,0.4-0.5c-0.3,0.1-0.7,0.3-1,0.4C79.3,62.5,79.1,62.4,78.9,62.1z M79.1,89.3
		c0.1-0.3,0.1-0.5-0.1-0.7c-0.2-0.2-0.4-0.4-0.6-0.5c0.1,0.3,0.2,0.5,0.3,0.7C78.9,88.9,79,89.1,79.1,89.3z M78.5,65.3
		c0.1,0.1,0.2,0.1,0.3,0.1c0-0.3,0-0.5,0-0.4C78.8,65.1,78.7,65.2,78.5,65.3z M81.9,89.3c0.1-0.2,0.1-0.4,0-0.6
		c-0.1-0.2-0.3-0.4-0.5-0.6c-0.2-0.2-0.4-0.3-0.6-0.3c-0.2,0-0.2,0.1-0.2,0.4c0.1,0.1,0.1,0.2,0.2,0.1c0.1-0.1,0.1,0,0.1,0.1
		c-0.1,0.1-0.3,0.3-0.5,0.6c-0.1,0.3-0.3,0.4-0.4,0.2c-0.1-0.2-0.3-0.2-0.4,0c0,0.3,0.2,0.4,0.5,0.4c0.3,0.1,0.5,0.1,0.6,0.1
		s0.1-0.2,0.2-0.6c0.1-0.5,0.2-0.7,0.4-0.4C81.5,89.1,81.7,89.2,81.9,89.3z M79.8,60.6c-0.1,0.1,0,0.2,0.2,0.2
		c0.2,0,0.2-0.1,0.1-0.3c-0.1-0.1-0.1-0.1-0.2,0C79.9,60.6,79.8,60.6,79.8,60.6z M80.4,64.9c0.2-0.2,0.2-0.3-0.1-0.3
		C80.1,64.8,80.1,64.9,80.4,64.9z M81.6,61.6c0.1,0-0.1,0-0.4,0.1c-0.3,0.1-0.5,0.1-0.5,0.2c0,0.2,0.2,0.3,0.5,0.3
		c0.3,0.1,0.4,0.1,0.4-0.1C81.6,62.1,81.6,61.9,81.6,61.6z M80.8,60.6c-0.1,0.1-0.1,0.2-0.1,0.3c0,0.1,0.1,0.2,0.3,0.2
		C81.1,60.9,81,60.8,80.8,60.6z M81.3,93.1c0.1-0.1,0.2-0.1,0.4-0.1c0.2,0,0.2-0.1,0.1-0.4c-0.1-0.1-0.3-0.1-0.4,0
		C81.2,92.8,81.2,92.9,81.3,93.1z M81.9,92c0.1-0.2,0.1-0.4-0.1-0.5c-0.2-0.1-0.3-0.1-0.5,0.1c0,0.1,0.1,0.3,0.2,0.5
		C81.6,92.3,81.7,92.3,81.9,92z M81.6,57.4c-0.1,0.1-0.1,0.1,0,0.2c0.1,0,0.1,0,0.1-0.1C81.7,57.4,81.6,57.4,81.6,57.4z M82.6,61.8
		c0.1-0.4,0.1-0.7-0.1-1c-0.2-0.3-0.5-0.4-0.9-0.3c0.1,0.1,0.2,0.2,0.4,0.2c0.1,0.2,0.2,0.4,0.3,0.6S82.4,61.6,82.6,61.8z
		 M82.3,87.5c0-0.2-0.1-0.3-0.3-0.2v0.2H82.3z M82.6,94c-0.1,0.2,0,0.4,0.3,0.5c0.2,0.1,0.4,0,0.6-0.3c-0.1,0-0.2-0.1-0.4-0.3
		C82.9,93.7,82.7,93.7,82.6,94z M83.5,89.2c0.3-0.2,0.3-0.3,0.1-0.4c-0.2,0-0.4-0.1-0.5-0.1C83,89,82.9,89.2,83,89.5
		c0.1,0.2,0.1,0.5,0.2,0.7c0.3-0.1,0.4-0.2,0.3-0.4C83.3,89.5,83.3,89.3,83.5,89.2z M83.6,92.7c0.1-0.5,0-0.6-0.3-0.3
		c-0.3,0.3-0.3,0.6-0.2,0.9C83.4,93.4,83.6,93.2,83.6,92.7z M83.6,65.2c0-0.1-0.1-0.2-0.2-0.3c-0.1,0-0.2,0-0.2,0.2
		C83.4,65.2,83.5,65.2,83.6,65.2z M83.8,84.9c0-0.3-0.1-0.3-0.4-0.2c-0.1,0.1-0.1,0.2,0.1,0.3C83.6,85,83.7,85,83.8,84.9z M83.6,92
		c0.1-0.2,0-0.3-0.1-0.4C83.4,91.8,83.4,91.9,83.6,92z M83.8,62.1c-0.1,0.1-0.1,0.2,0.1,0.2c0.1,0,0.2,0,0.4,0.1
		C84.3,62,84.2,61.9,83.8,62.1z M84.3,92c-0.1,0.1-0.2,0.3-0.1,0.5c0.1,0.2,0.3,0.3,0.5,0.3C84.6,92.3,84.4,92,84.3,92z M84.3,62.4
		c0,0.2,0.1,0.3,0.3,0.4c0.2,0,0.3-0.1,0.3-0.3c-0.1,0.1-0.2,0.1-0.3,0C84.5,62.4,84.4,62.4,84.3,62.4z M85.5,90.4
		c0.1-0.5-0.1-0.7-0.4-0.7c-0.3,0-0.5,0-0.5,0.1c0.1,0.1,0.2,0.2,0.3,0.2c0.1,0,0.1,0.1,0.1,0.3c-0.1-0.1-0.2-0.1-0.2,0.1
		c0,0.1-0.1,0.1-0.2-0.1c0.1,0.3,0.2,0.4,0.5,0.4C85.2,90.6,85.4,90.6,85.5,90.4z M85.2,91.3c0.2,0.2,0.3,0.1,0.3-0.2h-0.3V91.3z
		 M85.7,92.4c0.3-0.1,0.6-0.1,0.7,0.1c0.1,0.2,0.3,0.4,0.6,0.5c-0.1-0.3-0.2-0.6-0.2-0.9c0-0.3-0.2-0.3-0.7-0.2
		c0,0.1-0.1,0.2-0.2,0.3C85.8,92.2,85.7,92.3,85.7,92.4z M86,90.9c0.4,0,0.6,0,0.6-0.1c0-0.1-0.1-0.1-0.2-0.2
		c-0.1-0.1-0.2-0.1-0.4-0.1C86,90.6,86,90.7,86,90.9z M87.5,92.2c0.4,0,0.7-0.1,0.8-0.2c-0.3,0-0.4-0.1-0.4-0.2
		c0-0.1,0.1-0.3,0.2-0.4c-0.1-0.1-0.3-0.1-0.5-0.1c-0.2,0-0.4,0-0.6-0.2c-0.1,0.3-0.1,0.5,0.2,0.6C87.4,91.9,87.5,92,87.5,92.2z
		 M87.2,61.4c-0.1,0.1-0.1,0.3,0.1,0.4c0.1-0.1,0.1-0.2,0.1-0.3C87.5,61.5,87.4,61.4,87.2,61.4z M88.4,95.9c0.1,0.1,0.2,0.1,0.4,0.1
		c0-0.1-0.1-0.2-0.2-0.3c-0.1-0.1-0.2-0.1-0.3,0C88.5,95.8,88.5,95.9,88.4,95.9z M89.5,95.6c0-0.1,0-0.2,0.1-0.3
		c0-0.1,0-0.1-0.2-0.1C89.4,95.4,89.4,95.5,89.5,95.6z M90.7,92.5c0.1,0.3,0.4,0.5,0.7,0.5C91.4,92.7,91.2,92.5,90.7,92.5z"/>
</g>
</svg>
