<?xml version="1.0" encoding="utf-8"?>
<!-- Generator: Adobe Illustrator 18.0.0, SVG Export Plug-In . SVG Version: 6.00 Build 0)  -->
<!DOCTYPE svg PUBLIC "-//W3C//DTD SVG 1.1//EN" "http://www.w3.org/Graphics/SVG/1.1/DTD/svg11.dtd">
<svg version="1.1" id="Layer_1" xmlns="http://www.w3.org/2000/svg" xmlns:xlink="http://www.w3.org/1999/xlink" x="0px" y="0px"
	 viewBox="0 0 112.5 168.4" enable-background="new 0 0 112.5 168.4" xml:space="preserve">
<path d="M108.5,91.9c1.7,4.2,2.8,8.5,3.5,12.9c0.6,4.5,0.7,8.9,0.2,13.4c-0.2,1.1-0.3,2.2-0.5,3.2c-0.2,1.1-0.5,2.1-0.9,3
	c-0.3,0.9-0.5,1.8-0.5,2.8c0,0.9-0.2,1.8-0.7,2.8c-0.5,0.9-0.8,1.8-1,2.7c-0.2,0.8-0.6,1.7-1,2.4c-0.5,0.9-1,1.8-1.6,2.8
	c-0.6,0.9-1.1,1.8-1.4,2.5c-0.8,1.7-1.8,3.4-3,5.1c-1.2,1.7-2.5,3.2-3.9,4.4c-0.8,0.8-1.4,1.5-2,2.1c-0.5,0.6-1.2,1.2-2,1.8
	c-0.3,0.3-0.6,0.5-0.8,0.7c-0.2,0.2-0.5,0.4-0.8,0.7c-0.3,0.8-0.7,1.3-1,1.5c-0.4,0.2-0.9,0.5-1.5,0.8c-0.9,0.5-1.8,1-2.8,1.6
	c-0.9,0.6-1.8,1.3-2.5,2.1c-0.9,0.6-1.9,1.1-3,1.5c-1.1,0.4-2.2,0.7-3.2,1c-2,0.9-3.9,1.7-5.8,2.3s-3.8,1.1-6,1.4
	c-1.2,0.2-2.3,0.3-3.3,0.5c-1,0.2-2.1,0.3-3.3,0.5c-1.1,0.2-2,0.1-2.9-0.1c-0.8-0.2-1.7-0.2-2.7,0.1c-0.8,0.2-1.7,0.2-2.8,0
	c-1.1-0.2-2-0.3-2.8-0.5c-1.2-0.2-2.4-0.4-3.6-0.7c-1.2-0.3-2.3-0.6-3.6-0.9c-2-0.6-4-1.2-5.9-1.8c-1.9-0.6-3.8-1.4-5.7-2.3
	c-1.7-0.9-3.3-2-4.8-3.3c-1.5-1.3-3.2-2.6-4.8-3.8c-1.7-1.2-3.2-2.7-4.6-4.4c-1.4-1.7-2.8-3.3-4.4-4.8c-1.7-1.7-2.9-3.5-3.7-5.5
	c-0.8-2-1.8-3.9-3-5.8c-0.5-0.8-0.8-1.6-0.9-2.5c-0.2-0.9-0.3-1.8-0.5-2.8c-0.3-0.9-0.7-1.8-1-2.7c-0.4-0.8-0.6-1.7-0.6-2.7
	c-0.2-2.3-0.4-4.6-0.7-6.8c-0.3-2.2-0.5-4.5-0.7-6.8c0-0.9,0-1.9,0.1-2.9c0.1-1,0.3-1.9,0.6-2.7c0.3-0.8,0.5-1.5,0.6-2.1
	c0.1-0.6,0.2-1.3,0.3-2.1c0-0.8,0.2-1.4,0.7-1.8c0.5-0.5,0.6-0.8,0.5-1.2c-0.2-0.3-0.2-0.8-0.2-1.4c0.2-1.2,0.6-2.3,1.4-3.1
	C4.7,92.1,5,91.1,4.8,90c0-0.8,0.2-1.4,0.7-2C6,87.5,6.5,87,6.9,86.3c0.6-0.8,1-1.5,1.3-2.2C8.4,83.5,8.7,82.7,9,82
	c0.3-0.8,0.8-1.5,1.5-2.2c0.7-0.7,1.3-1.3,2-2c0.9-0.9,1.5-1.6,1.8-2.1c0.3-0.6,0.7-1,1-1.3c0.4-0.2,0.7-0.6,1-1
	c0.5-0.6,0.9-1.3,1.3-2c0.4-0.7,1-1.2,1.7-1.5c0.8-0.3,1.4-0.7,2-1.3c0.5-0.5,1.1-1,1.7-1.5c0.6-0.6,1.3-1.1,2.1-1.4
	c0.8-0.3,1.5-0.7,2.1-1.2c0.6-0.8,1.3-1.3,2.1-1.7c0.8-0.4,1.5-0.7,2.3-1c1.4-0.5,2.8-0.9,4.3-1.4c1.5-0.5,2.7-1.2,3.8-2.3
	c0.9-0.9,1.3-1.7,1-2.2c-0.2-0.5-0.4-1.3-0.6-2.4c-0.2-1.2-0.2-2.4,0-3.5c0.2-1.1,0.4-2.2,0.7-3.2c0.9-1.7,2.3-2.4,4.2-2.1
	c1.8,0.3,3.5,0.4,5.1,0.2c2.2-0.2,4.3-0.1,6.3,0.1c2.1,0.2,4.2,0.2,6.3-0.1c1.7-0.3,3.3-0.5,5-0.6c1.6-0.1,3,0.7,4,2.4
	c0.6,0.9,0.9,1.8,0.8,2.8c-0.1,0.9-0.2,1.9-0.3,2.9c-0.2,1-0.2,2-0.2,3c0,1,0.4,1.9,1.2,2.7c0.5,0.8,0.7,1.4,0.7,1.8
	c0.2,0,0.4-0.2,0.7-0.5c0.3-0.3,0.5-0.3,0.7,0c0.6,0.2,1.2,0.3,1.6,0.5c0.5,0.2,0.9,0.3,1.4,0.5c2.3,0.9,4.2,1.9,5.8,3
	c0.9,0.3,1.8,0.7,2.5,1.3c0.8,0.5,1.5,1.1,2.3,1.7c0.9,0.9,1.9,1.7,3,2.3c1.1,0.6,2,1.4,2.8,2.3c2.9,3.1,5.6,6.3,8,9.7
	C105,84.2,107,87.9,108.5,91.9z M5.8,91.7c0-0.2,0-0.3,0.1-0.5C6,91,5.8,91,5.5,91C5.4,91.1,5.5,91.3,5.8,91.7z M8.8,111.3
	c0-0.5-0.2-0.7-0.7-0.7v0.7H8.8z M11.3,107.8c0-0.5-0.2-0.6-0.7-0.5v0.5H11.3z M12.2,79.2c-0.3,0.9-0.2,1.3,0.5,1.2
	c0.3-0.2,0.4-0.4,0.2-0.7C12.8,79.3,12.5,79.2,12.2,79.2z M12.7,119.6c0-0.5-0.2-0.7-0.5-0.7v0.7H12.7z M12.9,110.8
	c-0.3,0.3-0.4,0.5-0.2,0.7c0.2,0.2,0.4,0.2,0.7,0.2c0-0.2,0-0.4,0-0.7C13.4,110.7,13.2,110.7,12.9,110.8z M14.1,119.1
	c0.3-0.3,0.3-0.6,0.1-0.9c-0.2-0.3-0.5-0.5-0.8-0.5C13.2,118.4,13.5,118.8,14.1,119.1z M14.3,108c-0.3,0.3-0.4,0.6-0.2,0.9
	c0.2,0.3,0.4,0.3,0.7,0C14.8,108.7,14.6,108.4,14.3,108z M15,115.9c0.9,0,1.1-0.2,0.6-0.5C15,115.1,14.9,115.3,15,115.9z
	 M15.9,123.5c0.5,0,0.6-0.2,0.3-0.5C16,122.7,15.9,122.9,15.9,123.5z M16.6,120.5c0,0.5,0.2,0.7,0.7,0.7c0.5,0,0.6-0.3,0.5-0.9
	C17.2,120.3,16.8,120.4,16.6,120.5z M16.9,95.8c0,0.5,0.2,0.8,0.7,0.9C17.7,96,17.5,95.7,16.9,95.8z M18.5,85.9
	c0-0.8-0.4-1.2-1.2-1.2C17.3,85.2,17.7,85.6,18.5,85.9z M18.5,101.4c0,0.3-0.1,0.5-0.2,0.6c-0.2,0.1-0.1,0.3,0.2,0.6
	c0.5,0.2,0.7,0,0.7-0.5C19.2,101.6,18.9,101.4,18.5,101.4z M19.2,89.8c-0.6,0-0.8,0.3-0.7,0.9C18.9,90.9,19.2,90.6,19.2,89.8z
	 M18.5,101.1c1.1-0.3,1.3-0.9,0.7-1.8c-0.5,0-0.7,0.2-0.6,0.6C18.7,100.2,18.6,100.7,18.5,101.1z M18.5,118c1.1,0.3,1.7,0.2,1.8-0.2
	c-0.5-0.3-1.1-0.5-1.8-0.5V118z M19.4,130.2c-0.5-0.3-0.7-0.3-0.6,0C18.9,130.5,19.1,130.5,19.4,130.2z M20.5,114
	c-0.2-0.2-0.5-0.2-1.2-0.2c-0.2,0.5,0,0.7,0.5,0.7C20.3,114.5,20.5,114.4,20.5,114z M19.6,75.7c-0.2,0.2-0.2,0.3-0.1,0.6
	c0.1,0.2,0.3,0.3,0.8,0.1C20.3,76,20.1,75.7,19.6,75.7z M19.9,121.4c0.8,0,1-0.2,0.6-0.6C20,120.5,19.9,120.7,19.9,121.4z M20.5,88
	c-0.3,0.3-0.4,0.7-0.2,1.2c0.5,0.3,0.7,0.2,0.7-0.3C21,88.2,20.9,88,20.5,88z M21,91c-0.2,0.2-0.4,0.2-0.7,0.2
	c0.3,0.8,0.5,1.1,0.5,1C20.8,92.2,20.9,91.7,21,91z M20.5,146.1c0.5,0,0.7-0.1,0.7-0.2c0-0.2-0.1-0.3-0.2-0.3
	c-0.2-0.1-0.3-0.1-0.5-0.1C20.4,145.4,20.4,145.7,20.5,146.1z M21.2,107.6c0-0.5-0.2-0.6-0.7-0.5v0.5H21.2z M20.5,126.3
	c0.2,0,0.3-0.1,0.5-0.2c0.2-0.2,0-0.2-0.5-0.2V126.3z M21.9,104.1c-0.3,0-0.5,0.1-0.6,0.2c-0.1,0.2,0,0.3,0.3,0.5
	c0-0.2,0-0.3,0.1-0.3C21.9,104.4,21.9,104.3,21.9,104.1z M22.2,70.6c-0.8-0.2-1,0.1-0.7,0.7C21.9,71.3,22.2,71.1,22.2,70.6z
	 M21.9,135.3c0-0.3,0.1-0.4,0.2-0.3c0.2,0.1,0.2,0,0.2-0.3c-0.3,0-0.5,0.1-0.7,0.3C21.5,135.2,21.6,135.3,21.9,135.3z M21.9,127.9
	c0,0.5,0.2,0.7,0.6,0.8c0.4,0.1,0.7,0,1-0.3C23.4,127.7,22.9,127.6,21.9,127.9z M22.6,117c-0.3,0.5-0.3,0.8,0,0.9
	c0.3-0.2,0.5-0.3,0.5-0.6C23.1,117.2,22.9,117,22.6,117z M23.5,127c0.3-0.2,0.7-0.2,1.3,0c0.5,0.2,0.9-0.2,1-0.9
	c-0.3-0.2-0.5-0.1-0.7,0.1c-0.2,0.2-0.4,0.3-0.7,0.3c-0.3,0-0.6-0.2-0.9-0.5c-0.3-0.3-0.6-0.3-0.9,0C23.1,126.2,23.4,126.5,23.5,127
	z M23.1,120.7c0.3,0.2,0.5,0,0.5-0.3c0-0.4-0.2-0.5-0.5-0.3V120.7z M23.5,111.5c-0.2,0.5,0,0.8,0.3,1c0.4,0.2,0.7,0.1,0.8-0.3
	C24.2,111.7,23.9,111.5,23.5,111.5z M23.5,90.5h0.7c0-0.5-0.2-0.7-0.7-0.7V90.5z M23.8,76.4c0.5,0,0.6-0.1,0.3-0.3
	C23.9,75.8,23.8,76,23.8,76.4z M24,86.8c-0.2,0.5-0.1,0.8,0.1,1c0.2,0.2,0.5,0.2,0.8-0.1C24.9,87.1,24.6,86.8,24,86.8z M24.9,86.1
	c-0.3-0.3-0.5-0.7-0.5-1c0-0.4-0.2-0.6-0.5-0.6c0.3,0.5,0.4,0.8,0.2,1C24.1,85.8,24.3,86,24.9,86.1z M24.7,99c0-0.6-0.1-0.9-0.2-0.9
	c-0.2,0-0.3,0.1-0.3,0.2c-0.1,0.2-0.1,0.3,0,0.6C24.2,99.2,24.4,99.2,24.7,99z M25.2,131.1c0.2-0.5,0-0.7-0.5-0.7
	c-0.2,0.3-0.2,0.5,0,0.5C24.9,130.9,25,131,25.2,131.1z M25.4,99.7c0,0.3-0.2,0.5-0.5,0.5c-0.3,0-0.4,0.2-0.2,0.7
	c0.3,0,0.5-0.2,0.7-0.6C25.5,99.9,25.5,99.7,25.4,99.7z M25.2,91.9c0-0.5-0.2-0.8-0.5-0.9C24.5,91.1,24.7,91.4,25.2,91.9z
	 M24.7,94.7c0.9,0,1.1-0.2,0.6-0.6C24.7,93.7,24.5,93.9,24.7,94.7z M26.6,109.9c0.2-0.5,0-0.7-0.3-0.8c-0.4-0.1-0.7,0-1,0.3
	C25.2,109.7,25.6,109.9,26.6,109.9z M25.6,113.6c0,0.6,0.3,0.8,0.9,0.7c0-0.6-0.1-0.8-0.3-0.7C26,113.7,25.8,113.7,25.6,113.6z
	 M27,138.3c0-0.6-0.2-0.8-0.5-0.5v0.5H27z M27.2,99c-0.2,0.6,0.1,0.8,0.7,0.7c0.2-0.3,0.1-0.5-0.1-0.5C27.6,99.3,27.4,99.2,27.2,99z
	 M28.2,120.5c0-0.5-0.3-0.7-0.9-0.7C27.2,120.3,27.5,120.5,28.2,120.5z M28.6,112.2c0.3-0.3,0.4-0.7,0.2-1c-0.2-0.4-0.2-0.7-0.2-1
	c-0.9-0.5-1.3-0.2-1.3,0.7C27.4,111.7,27.9,112.2,28.6,112.2z M28.2,137.1c0-0.3-0.2-0.5-0.7-0.5v0.5H28.2z M28.4,84.3
	c0,0.5-0.2,0.8-0.6,1.2c-0.4,0.3-0.4,0.7-0.1,1.2c0.3-0.2,0.6-0.2,0.8,0c0.2,0.2,0.5,0.2,0.8,0c0-0.3,0.1-0.5,0.2-0.7
	c0.3-0.3,0.5-0.5,0.7-0.5c-0.2,0-0.5-0.2-0.9-0.7C28.9,84.3,28.5,84.1,28.4,84.3z M27.7,102.3c0.6,0.3,1.2,0.5,1.7,0.5
	c0.5,0,1.2,0.2,2,0.5c-0.3-0.5-0.8-0.9-1.6-1.4C29,101.4,28.3,101.5,27.7,102.3z M30.5,141.1c0-0.8-0.4-1.3-1.3-1.6
	c-0.8-0.3-1.1-0.1-0.8,0.7c0.3,0.3,0.6,0.5,0.9,0.7C29.6,141,30,141.1,30.5,141.1z M28.4,124.9c-0.2,0.3-0.1,0.5,0.2,0.6
	c0.3,0.1,0.5,0,0.7-0.1c0.2-0.3,0.1-0.5-0.2-0.6C28.8,124.7,28.5,124.7,28.4,124.9z M28.9,101.1c0.8-0.3,1.1-0.7,1-1.2
	c-0.1-0.5-0.4-0.8-1-1.2c-0.3,0.3-0.4,0.7-0.3,1.2C28.6,100.4,28.7,100.8,28.9,101.1z M29.8,115c0-0.5-0.3-0.7-0.9-0.7
	c-0.3,0.5-0.3,0.7,0,0.7C29.2,115,29.5,115,29.8,115z M30.2,82.2c0,0.3-0.2,0.4-0.6,0.3c-0.4-0.1-0.6,0-0.6,0.3
	c0.3,0.3,0.7,0.3,1,0.1C30.5,82.8,30.6,82.5,30.2,82.2z M29.1,119.6c0.8,0,1.3-0.4,1.6-1.3c0.3-0.8,0.2-1.2-0.2-1
	c-0.2,0.5-0.4,0.8-0.7,1C29.5,118.6,29.2,119,29.1,119.6z M30,103.2c0,0.3-0.2,0.5-0.5,0.5c-0.3,0-0.4,0.2-0.2,0.7
	c0.3,0,0.6-0.1,0.8-0.3C30.4,103.8,30.3,103.5,30,103.2z M30,93.3c0.6-1.1,0.6-1.4-0.1-1C29.2,92.6,29.2,93,30,93.3z M29.6,150.8
	c0,0.3,0.1,0.5,0.3,0.5c0.2,0,0.4-0.1,0.6-0.2C30.2,150.7,29.9,150.6,29.6,150.8z M30.7,139.7c0.3-0.3,0.4-0.6,0.2-0.8
	c-0.2-0.2-0.4-0.3-0.7-0.3C29.5,139,29.6,139.4,30.7,139.7z M29.8,88.2c0.5,0,0.6-0.2,0.3-0.5C29.9,87.4,29.8,87.6,29.8,88.2z
	 M30.9,97.2c-0.2,0.3-0.4,0.4-0.7,0.2c-0.3-0.2-0.4,0.2-0.2,0.9c0.5,0.2,0.8,0.1,1-0.2C31.3,97.8,31.2,97.5,30.9,97.2z M32.8,94.9
	c0.2-0.9-0.3-1.4-1.3-1.4c-1,0-1.5,0.4-1.5,1.2c0.8-0.3,1.2-0.4,1.4-0.3C31.5,94.4,32,94.6,32.8,94.9z M30.2,69.7
	c-0.2,0.3-0.1,0.5,0.2,0.5c0.3,0,0.5-0.2,0.5-0.5C30.5,69.3,30.2,69.3,30.2,69.7z M30.5,119.8c0,1.1,0.6,1.8,1.7,2.1
	c1.2,0.3,2,0.1,2.7-0.7c0.3-0.3,0.5-0.7,0.7-1.2c0.2-0.5,0.4-0.7,0.7-0.7c0.2,0,0.6-0.1,1.3-0.2c0.7-0.2,0.7-0.4-0.1-0.7
	c-0.2-0.2-0.4-0.2-0.8-0.2c-0.4,0-0.6-0.2-0.6-0.5c0.3-0.2,0.5-0.4,0.5-0.7c0-0.3-0.2-0.5-0.5-0.7c-0.2,0.6-0.3,1.2-0.6,1.7
	c-0.2,0.5-0.7,0.9-1.5,1c-0.2,0.9-0.8,1.5-2.1,1.8c-0.3,0-0.5-0.3-0.7-0.8C31,119.6,30.8,119.5,30.5,119.8z M31.2,86.3
	c0.2-0.6,0-0.9-0.5-0.9v0.9H31.2z M32.3,101.4c0.2-0.3,0-0.5-0.3-0.6c-0.4-0.1-0.6,0-0.6,0.3C31.7,101.4,32,101.5,32.3,101.4z
	 M31.6,132.3c-0.2,0.2-0.2,0.3-0.1,0.6c0.1,0.2,0.3,0.3,0.6,0.1c0.3-0.2,0.4-0.3,0.2-0.5C32.2,132.4,31.9,132.3,31.6,132.3z
	 M33,137.6c0-0.5-0.3-0.8-0.9-1.2c-0.3,0.3-0.3,0.6,0,0.8C32.4,137.5,32.7,137.6,33,137.6z M32.1,115.2h0.7c0-0.5-0.2-0.6-0.7-0.5
	V115.2z M33,108c-0.8,0-1,0.4-0.7,1.2C32.9,108.9,33.2,108.5,33,108z M32.3,85.4c0,0.9,0.4,1.4,1.2,1.4c0.2-0.3,0.2-0.7,0-1.2
	C33.3,85.2,32.9,85.1,32.3,85.4z M33.9,118.4c-0.2-0.5-0.3-0.9-0.3-1.3c-0.1-0.4-0.4-0.6-1-0.6c0.2,0.5,0.3,0.9,0.3,1.3
	C33,118.2,33.3,118.4,33.9,118.4z M33.5,103.2c-0.3-0.2-0.3-0.3-0.1-0.6c0.2-0.2,0-0.3-0.6-0.3c-0.2,0.2-0.1,0.4,0.1,0.8
	C33.1,103.5,33.3,103.5,33.5,103.2z M34.6,91.4c-0.5-0.3-0.8-0.3-1.2,0.1c-0.3,0.4-0.4,0.8-0.2,1.3c0.6,0.2,1,0,1-0.3
	C34.4,92.1,34.5,91.7,34.6,91.4z M33.5,126.1c-0.3,0.3-0.3,0.7,0,1.2c0.6,0,0.9-0.2,0.8-0.5C34.2,126.4,33.9,126.2,33.5,126.1z
	 M33.2,113.4c0.3,0.3,0.7,0.3,1-0.1c0.4-0.4,0.7-0.7,0.8-1c-0.3-0.3-0.7-0.3-1.2-0.1C33.5,112.3,33.2,112.7,33.2,113.4z M34.2,111
	c0.2-0.3,0.3-0.6,0.6-0.8c0.2-0.2,0.3-0.5,0.3-0.8c-0.5-0.3-0.9-0.2-1.4,0.5C33.2,110.5,33.4,110.9,34.2,111z M33.9,80.6
	c0.9-0.2,1.3-0.6,1.3-1.3c-0.1-0.7-0.7-1-1.7-0.8c0,0.5,0.1,0.8,0.2,1.2C33.9,80,33.9,80.3,33.9,80.6z M35.3,75.3c-0.3,0-0.7,0-1,0
	c-0.4,0-0.6,0.2-0.6,0.7c0.6,0.3,1.1,0.4,1.4,0.2C35.1,75.7,35.2,75.4,35.3,75.3z M34.9,142.2c0-0.5-0.2-0.7-0.7-0.7v0.7H34.9z
	 M34.6,122.8c1.1,0,1.6-0.3,1.6-0.9C35.5,121.7,34.9,122.1,34.6,122.8z M34.6,129.7c0.8-0.2,1.3-0.8,1.6-2.1
	c-0.8-0.3-1.2-0.2-1.4,0.3C34.7,128.6,34.6,129.1,34.6,129.7z M36,106c0-0.5-0.2-0.7-0.6-0.7c-0.4,0-0.5,0.3-0.3,0.9
	c0.3,0,0.5,0,0.6-0.1C35.7,106,35.9,106,36,106z M35.8,138.8c0.5,0,0.6-0.1,0.3-0.3C35.9,138.2,35.8,138.3,35.8,138.8z M36,103.4
	c0.5,0,0.6-0.1,0.3-0.3C36.1,102.9,36,103,36,103.4z M37.4,108c0-0.8-0.3-1.2-0.9-1.2c-0.5,0.3-0.5,0.7-0.1,1
	C36.7,108.3,37.1,108.4,37.4,108z M36.5,114c-0.3,0.9-0.1,1.4,0.7,1.4C37.2,114.5,36.9,114,36.5,114z M36.7,88.2
	c0.3,0.2,0.5,0,0.5-0.3c0-0.4-0.2-0.5-0.5-0.3V88.2z M39,110.6c0.3-0.8,0.7-1.1,1.2-0.9c0.5,0.2,0.9,0.1,1.4-0.2
	c0-0.6-0.3-0.8-0.9-0.6c-0.6,0.2-1.1,0.3-1.4,0.3c-0.3-0.5-0.7-0.7-1.2-0.6c-0.5,0.1-0.8,0.3-1.2,0.6c0.6,1.2,0.8,2.2,0.7,3
	c0.6,0,1-0.2,1-0.5C38.7,111.4,38.9,111,39,110.6z M37.4,100.9c-0.2,0.3-0.2,0.8-0.2,1.4c0.6,0.8,1.2,0.8,1.8,0.2
	c0.5-0.5,0.4-0.8-0.2-0.9C38.2,101.4,37.7,101.2,37.4,100.9z M37.2,106.9c0.5,0,0.7-0.2,0.7-0.6c0-0.4-0.2-0.5-0.7-0.3V106.9z
	 M38.1,124c0.5,0,0.8-0.5,1.2-1.4c-0.3-0.2-0.7-0.2-1-0.1c-0.4,0.1-0.4-0.1-0.1-0.6c0.2-0.3,0.3-0.7,0.3-1c0.1-0.4-0.2-0.5-0.8-0.3
	c0,0.9-0.2,1.5-0.5,1.8c0.5,0.3,0.7,0.6,0.6,0.8C37.7,123.4,37.8,123.7,38.1,124z M37.4,125.6c0.3,0.6,0.6,0.8,0.9,0.7
	C38.3,125.7,38,125.4,37.4,125.6z M37.9,85.7c0,0.6,0.3,0.8,0.9,0.5c0.5-0.3,0.5-0.5,0.1-0.7C38.5,85.3,38.2,85.3,37.9,85.7z
	 M41.1,79.7c-0.3,0.3-0.8,0.2-1.6-0.2c-0.8-0.5-1.2-0.2-1.2,0.9c0.6,0.2,1.1,0.1,1.5-0.1c0.4-0.2,0.7,0,1,0.8
	c0.5,1.1,0.8,1.3,1.2,0.6c0.3-0.7,0.6-1.2,0.9-1.5c-0.3,0-0.5,0.1-0.7,0.2c-0.2,0.2-0.4,0.2-0.7,0c0.2-0.3,0.2-0.6,0.1-0.8
	C41.6,79.3,41.4,79.3,41.1,79.7z M38.3,97.4c0.5,0,0.6-0.1,0.3-0.3C38.4,96.8,38.3,97,38.3,97.4z M38.6,100.9c0.5,0,0.7-0.1,0.8-0.2
	c0.1-0.2,0-0.3-0.1-0.3c-0.2-0.1-0.3-0.1-0.6-0.1C38.4,100.2,38.4,100.4,38.6,100.9z M38.8,113.6c-0.2,0.3,0,0.6,0.6,0.9
	c0.5,0.3,1,0.3,1.3,0c-0.6-0.2-0.9-0.5-0.8-1C39.9,112.9,39.6,113,38.8,113.6z M39.7,93.5c0.2-0.3,0.2-0.5,0-0.7
	c-0.2-0.2-0.2-0.3,0-0.5c-0.8-0.3-0.9,0-0.5,0.9C39.2,93.4,39.4,93.5,39.7,93.5z M41.3,86.8c-0.3,0-0.7,0-1.3,0.1
	c-0.5,0.1-0.9,0.3-1,0.8c0.3,0.3,0.7,0.5,1.2,0.5s0.8,0.2,1.2,0.5c0-0.3,0.1-0.6,0.2-0.9C41.7,87.4,41.6,87.1,41.3,86.8z
	 M39.2,119.6c0,0.3,0,0.5-0.1,0.7c-0.1,0.2,0,0.4,0.1,0.7c0.6,0,0.9-0.3,0.9-0.8C40.2,119.6,39.9,119.4,39.2,119.6z M40.6,86.1
	c0.3,0.2,0.6,0.2,0.9,0.1c0.3-0.1,0.3-0.3,0-0.6c-0.2-0.2-0.3-0.2-0.6-0.2c-0.2,0-0.3-0.2-0.3-0.5c-0.3-0.3-0.4-0.7-0.3-1
	c0.1-0.4-0.1-0.6-0.6-0.6c-0.2,0.3-0.2,0.6-0.2,0.8c0,0.2-0.1,0.5-0.2,0.8c0.3,0.3,0.5,0.5,0.7,0.7C40.1,85.8,40.3,86,40.6,86.1z
	 M39.2,115.7c0.5,0,0.6-0.1,0.3-0.3C39.4,115.1,39.2,115.2,39.2,115.7z M40.2,129.1c0.3-0.3,0.3-0.6,0.1-0.8c-0.2-0.2-0.6-0.3-1-0.1
	C39.2,128.7,39.6,129.1,40.2,129.1z M45.3,122.4c0.2-0.3,0.4-0.5,0.7-0.7c0.3-0.2,0.5-0.4,0.5-0.7c-0.6,0.2-1.2,0.3-1.6,0.6
	c-0.5,0.2-1,0.2-1.6-0.1c-0.2,0.3-0.1,0.6,0.1,0.8c0.2,0.2,0.5,0.5,0.7,0.7c0.2,0.2,0.4,0.5,0.5,0.8c0.1,0.3-0.1,0.7-0.6,1.2
	c-0.5,0.8-0.8,0.8-1,0.1c-0.2-0.7-0.3-1.2-0.1-1.5c-0.5-0.2-1-0.4-1.5-0.7c-0.5-0.3-1-0.4-1.5-0.2c0.3,0.5,0.7,0.7,1,0.7
	c0.4,0,0.7,0.2,0.8,0.7c0.3,0.9,0.8,1.7,1.4,2.3c0.6,0.3,1.1,0.2,1.5-0.5c0.4-0.6,0.7-1.2,0.8-1.6V122.4z M39.7,148.9
	c0.3,0,0.5-0.1,0.6-0.2c0.1-0.2,0-0.3-0.3-0.5c0,0.2,0,0.3-0.1,0.3C39.7,148.6,39.7,148.8,39.7,148.9z M39.9,75
	c0,0.3,0.1,0.6,0.2,0.8c0.2,0.2,0.4,0.2,0.7-0.1c-0.3-0.2-0.5-0.3-0.5-0.6C40.4,74.9,40.2,74.9,39.9,75z M40.2,96
	c-0.2,0.6,0.1,1,0.7,1c0.6,0.1,0.8-0.2,0.7-0.8c0-0.3-0.2-0.5-0.5-0.6C40.8,95.6,40.5,95.7,40.2,96z M40.6,99.7c0.8,0,1.1-0.1,1-0.2
	c-0.1-0.2-0.3-0.3-0.6-0.5c-0.3-0.2-0.6-0.2-0.8-0.1C40.1,99,40.2,99.3,40.6,99.7z M40.4,101.1c0.8,0.8,1.7,1,2.7,0.7
	c1-0.3,1.5-1,1.5-2.1c-0.5-0.3-0.8-0.3-1.2,0.1c-0.3,0.4-0.7,0.7-1.2,0.8c-0.3-0.3-0.7-0.4-1-0.2C40.8,100.6,40.6,100.8,40.4,101.1z
	 M42,115.7c0-0.8,0-1.5,0.1-2.2c0.1-0.7-0.1-1.2-0.6-1.5c-0.6,0.5-0.8,1.1-0.5,1.8C41.4,114.6,41.7,115.2,42,115.7z M41.3,104.6
	c0.3,0,0.5,0.1,0.5,0.2c0-0.2,0.1-0.3,0.2-0.5c-0.2,0-0.2,0-0.2-0.1c0-0.1-0.1-0.1-0.2-0.1C41.6,104.3,41.5,104.4,41.3,104.6z
	 M41.6,108.5c0.3,0,0.6-0.2,0.9-0.5c0.3-0.3,0.2-0.5-0.2-0.7c-0.2,0.2-0.3,0.3-0.6,0.3C41.4,107.8,41.4,108,41.6,108.5z M42.2,51.3
	c-0.2,0-0.4,0.2-0.7,0.5C42,51.7,42.2,51.6,42.2,51.3z M41.6,119.8c0.6,0,0.8-0.1,0.5-0.3C41.7,119.2,41.6,119.4,41.6,119.8z
	 M41.8,128.1c0,0.3,0.2,0.7,0.5,1c0.3,0.4,0.6,0.3,0.9-0.3c0.3-0.6,0.2-1-0.2-1C42.5,127.7,42.1,127.8,41.8,128.1z M42,64
	c0.3,0,0.6-0.2,0.8-0.7c0.2-0.5,0.1-0.8-0.3-0.9c-0.3,0.2-0.4,0.4-0.2,0.8C42.4,63.5,42.3,63.8,42,64z M44.6,91.2
	c-0.3-0.3-0.6-0.5-0.9-0.7c-0.3-0.2-0.7-0.2-1.2-0.2c-0.3,0.9-0.2,1.8,0.5,2.7c0.6,0.8,1,1.7,1.2,2.4c-0.5,0.9-0.7,1.3-0.8,1.3
	c-0.1-0.1,0.3,0.2,1.3,0.8c0.6,0.5,1.2,0.6,1.6,0.5c0.5-0.2,0.3-0.5-0.5-0.9l-0.5-1.4c-0.3-0.9-0.5-1.5-0.5-1.6
	c-0.2-0.3-0.2-0.6,0-0.8c0.2-0.2,0.1-0.4-0.2-0.6c-0.8,0-1.2-0.2-1.2-0.7c0.2-0.3,0.4-0.4,0.7-0.3C44.4,91.6,44.6,91.5,44.6,91.2z
	 M43.4,137.6c0-0.5-0.3-0.7-0.9-0.7C42.3,137.4,42.6,137.6,43.4,137.6z M42.5,84.5c0.3,0,0.5-0.1,0.7-0.2C43,84.1,42.8,84,42.5,84
	V84.5z M42.9,131.1c0.5,0,0.7-0.2,0.7-0.5c-0.3,0-0.5-0.2-0.5-0.5C43,130.5,42.9,130.8,42.9,131.1z M47.8,81.5
	c-0.3,0.2-1.1,0.1-2.3-0.1c-1.2-0.2-1.9-0.3-2.1-0.3c0.3,0.2,0.6,0.3,0.8,0.6c0.2,0.2,0.5,0.5,0.8,0.8c0.5-0.2,1-0.2,1.7,0
	C47.4,82.6,47.8,82.3,47.8,81.5z M44.6,117.7c-0.2,0-0.4,0-0.7-0.1c-0.3-0.1-0.5,0-0.5,0.3c0.2,0.2,0.4,0.3,0.8,0.6
	C44.6,118.8,44.7,118.5,44.6,117.7z M43.9,109.9c0.3,0,0.5,0,0.6,0.1c0.1,0.1,0.2,0,0.3-0.3c-0.2-0.2-0.3-0.2-0.6-0.2
	C44,109.4,43.9,109.6,43.9,109.9z M45.5,111.5c0-0.3-0.2-0.5-0.6-0.6c-0.4-0.1-0.7,0-1,0.3c0,0.5,0.2,0.7,0.6,0.6
	C44.8,111.8,45.2,111.7,45.5,111.5z M44.3,74.6C44,75,44,75.3,44.2,75.5c0.2,0.2,0.5,0.4,0.8,0.7c0.2,0.9,0.7,1.5,1.6,1.6
	C46.2,76.3,45.4,75.2,44.3,74.6z M48.5,90c0.2-0.6-0.5-1-1.8-1.2c-1.4-0.2-2.2,0.1-2.5,0.7c0.2,0.6,0.5,0.8,1.2,0.5
	c0.3-0.2,0.5-0.3,0.6-0.5c0.1-0.2,0.3-0.2,0.6-0.2c0,0.3-0.1,0.6-0.2,0.8c-0.2,0.2-0.1,0.5,0.2,0.8c0.3,0,0.7,0,1.2-0.1
	C48,90.8,48.3,90.5,48.5,90z M44.1,133.7c0,0.3,0.1,0.5,0.3,0.6c0.2,0.1,0.4,0,0.6-0.3C44.7,133.6,44.4,133.5,44.1,133.7z
	 M44.8,127.7c0-0.3,0.1-0.5,0.2-0.5c0.2,0,0.2-0.2,0.2-0.5c-0.3,0-0.5,0.1-0.7,0.3C44.4,127.3,44.5,127.5,44.8,127.7z M44.6,115.2
	c0.5,0.9,1,1,1.6,0.2c0.6-0.8,0.5-1.3-0.2-1.6c0,0.5-0.2,0.7-0.6,0.7C45,114.5,44.7,114.7,44.6,115.2z M44.6,132.3
	c0.3,0.3,0.5,0.3,0.5-0.1c0-0.4-0.1-0.6-0.2-0.6c0,0.2,0,0.3-0.1,0.3C44.6,132,44.6,132.1,44.6,132.3z M45.3,152.8
	c-0.2,0.6-0.1,0.8,0.2,0.5C45.8,153,45.7,152.8,45.3,152.8z M45.7,52.6c0,0.2,0,0.3-0.1,0.3c-0.1,0.1-0.1,0.3-0.1,0.6
	c0.6,0.3,0.9,0.2,0.9-0.3C46.4,52.7,46.2,52.5,45.7,52.6z M46.6,92.1c0-0.5-0.2-0.8-0.5-0.9c0,0.5-0.1,0.8-0.2,0.9H46.6z
	 M46.6,144.8c-0.3-0.3-0.5-0.3-0.6,0c-0.1,0.3,0.1,0.4,0.6,0.2V144.8z M47.6,116.1c-0.3,0-0.5-0.1-0.7-0.3c-0.2-0.2-0.4-0.3-0.7-0.1
	c0.2,0.5,0.3,0.9,0.5,1.4c0.2,0.5,0.3,0.9,0.5,1.4c0.9,0,1.4-0.5,1.4-1.4c0.2-0.5,0.3-0.8,0.6-1c0.2-0.2,0-0.5-0.6-0.8
	c-0.8-0.3-1-0.2-0.8,0.2C47.9,115.9,47.9,116.1,47.6,116.1z M46.9,125.4c0.6,0.8,0.7,1.1,0.3,1c-0.4-0.1-0.4,0.3-0.1,1
	c0.5,0,0.8-0.2,0.9-0.5c0.2-0.3,0.4-0.6,0.7-0.9c0.3-0.5,0.6-0.5,0.8-0.1c0.2,0.4,0.5,0.4,0.8,0.1c-0.3-0.3-0.6-0.7-0.9-1
	c-0.3-0.4-0.5-0.8-0.5-1.3v-0.9l-0.5-0.9c-0.3-1.2-0.2-1.8,0.5-1.8c0.6,0,1.2-0.4,1.8-1.2c-0.3-0.5-0.7-0.6-1-0.3
	c-0.4,0.2-0.7,0.5-1,0.8c-0.9-0.5-1.4-0.4-1.4,0.1c0,0.5,0,1.1,0,1.7c0,0.3,0,0.6-0.1,0.9c-0.1,0.3,0,0.6,0.1,0.9
	c0.2,0.3,0.3,0.5,0.6,0.5c0.2,0,0.3,0.2,0.3,0.5c0,0.5-0.3,0.6-1,0.5C46.5,124.3,46.4,124.6,46.9,125.4z M46.9,93.3
	c-0.3,0.3-0.3,0.6-0.1,0.9c0.2,0.3,0.5,0.5,0.8,0.7c0.3-0.3,0.4-0.7,0.2-1.2C47.6,93.3,47.3,93.1,46.9,93.3z M46.6,65.8
	c0,0.8,0.2,1.1,0.5,0.9C47.1,66.4,46.9,66.1,46.6,65.8z M47.3,141.5c0.2-0.3,0.2-0.6,0-0.9c-0.2-0.3-0.4-0.4-0.7-0.2
	c0,0.3,0,0.6,0,0.9C46.6,141.6,46.9,141.7,47.3,141.5z M46.9,85.7c0.3,0,0.5-0.2,0.6-0.5c0.1-0.3,0.1-0.5,0-0.7
	c-0.1-0.2-0.2-0.2-0.3-0.1C46.9,84.5,46.9,84.9,46.9,85.7z M47.8,68.6c0,0.2-0.1,0.3-0.3,0.6c-0.2,0.2-0.2,0.5,0.1,0.8
	c0.2-0.3,0.3-0.6,0.6-0.8C48.4,68.9,48.3,68.7,47.8,68.6z M48,52.2c-0.3-0.2-0.5,0-0.6,0.3c-0.1,0.4,0,0.7,0.3,0.8
	c0-0.3,0.1-0.5,0.3-0.6C48.4,52.7,48.3,52.5,48,52.2z M48.3,128.4c-0.6,0-0.9,0.3-0.8,0.9c0.1,0.6,0.3,1,0.8,1.2
	c0.5-0.2,0.6-0.5,0.3-0.9C48.4,129.1,48.3,128.7,48.3,128.4z M50.3,97c-0.3-0.2-0.6-0.1-0.8,0.1c-0.2,0.2-0.5,0.2-0.8-0.1
	c0-0.8-0.2-1.2-0.5-1.4c-0.2,0.5-0.3,0.9-0.5,1.3c-0.2,0.4-0.2,0.8-0.2,1.3c0.3,0.3,0.7,0.6,1,0.8c0.4,0.2,0.7,0.6,0.8,1
	c0.3-0.3,0.7-0.5,1-0.5c0.4,0,0.7-0.2,0.8-0.5c-0.2-0.3-0.3-0.4-0.6-0.3c-0.2,0.1-0.5,0-0.8-0.1c-0.3-0.2-0.3-0.4,0-0.8
	C50.2,97.4,50.3,97.1,50.3,97z M47.8,71.6c0.6,0,0.9-0.2,0.8-0.6c-0.1-0.4-0.3-0.6-0.8-0.6c0.2,0.3,0.2,0.5,0,0.6
	C47.6,71.1,47.6,71.3,47.8,71.6z M49.4,112.4c-0.3-0.8-0.7-1-1.3-0.6c-0.5,0.4-0.6,1-0.1,1.7c0.5,0,0.7-0.1,0.8-0.3
	C48.9,113,49.1,112.7,49.4,112.4z M51.9,83.8c0-0.9-0.3-1.2-0.9-0.7c-0.6,0.5-1.1,0.7-1.4,0.7c-0.3,0-0.6-0.2-0.9-0.5
	C48.1,83,47.9,83.3,48,84c0.2,0.8,0.2,1.2,0.2,1.4c0.8-0.3,1.4-0.7,1.8-1.2C50.6,83.8,51.2,83.7,51.9,83.8z M49.2,75.3
	c0-1.4-0.4-2.1-1.2-2.1C48,74.3,48.4,75,49.2,75.3z M48,138.3c0,0.3,0.1,0.5,0.2,0.7c0.2-0.2,0.2-0.3,0.2-0.5
	C48.5,138.4,48.3,138.3,48,138.3z M48.7,153.8c0-0.6-0.1-0.9-0.2-0.9c-0.2,0-0.3,0.1-0.3,0.2c-0.1,0.2-0.1,0.3,0,0.6
	C48.2,153.9,48.4,153.9,48.7,153.8z M48.3,82.6c0,0.3,0.1,0.5,0.2,0.5c0-0.2,0.1-0.4,0.3-0.7c0.2-0.3,0-0.4-0.6-0.2V82.6z
	 M48.3,104.1c0.2,0.6,0.3,1.3,0.5,2.1c0.2,0.8,0.6,0.9,1.4,0.5c0.2-0.8,0-1.3-0.5-1.6C49.2,104.7,48.7,104.4,48.3,104.1z
	 M49.6,138.8c0.9-0.2,1.2-0.7,0.8-1.5c-0.4-0.8-1-1.1-1.7-0.8c0.3,0.5,0.6,0.8,0.8,1.2C49.8,137.9,49.8,138.3,49.6,138.8z
	 M51.3,145.4c0.2-0.8-0.2-1.4-0.9-2c-0.8-0.5-1.2-0.3-1.4,0.8c0.8-0.3,1.2-0.2,1.2,0.5C50.1,145.4,50.5,145.6,51.3,145.4z
	 M50.3,108.5c0-0.6-0.2-1-0.5-1c-0.3-0.1-0.4,0.2-0.2,0.8C49.8,108.4,50,108.5,50.3,108.5z M51,80.3c-0.3-0.3-0.7-0.4-1-0.2
	c-0.4,0.2-0.5,0.4-0.3,0.7c0.3,0.3,0.6,0.4,0.9,0.2C50.9,80.9,51,80.7,51,80.3z M49.6,79.2c0.5,0,0.6-0.1,0.3-0.3
	C49.8,78.6,49.6,78.7,49.6,79.2z M49.6,91.7c0.3,0.3,0.7,0.3,1,0c0.4-0.3,0.6-0.6,0.6-0.9C50.5,90.6,49.9,90.9,49.6,91.7z
	 M51.9,105.5c0-0.3-0.2-0.7-0.5-1c-0.3-0.4-0.4-0.8-0.2-1.3c0,0.3-0.1,0.4-0.3,0.3c-0.2-0.1-0.3-0.2-0.3-0.3
	c0.3-0.5,0.3-0.9,0.1-1.4c-0.2-0.5-0.6-0.7-1-0.7c0.5,1.1,0.5,2.4,0.2,3.9C50.6,105.5,51.3,105.7,51.9,105.5z M49.9,134.6
	c0.9,0.3,1.4,0.3,1.5,0.1c0.1-0.2,0-0.5-0.2-0.7c-0.2-0.2-0.5-0.3-0.9-0.3C49.8,133.7,49.7,134,49.9,134.6z M50.1,71.8
	c-0.2,0.2,0,0.2,0.3,0c0.4-0.2,0.5-0.2,0.3-0.2C50.3,71.1,50.1,71.2,50.1,71.8z M51.9,111.7c0-0.5-0.3-0.8-0.8-0.9
	c-0.5-0.2-0.9,0.1-1,0.7c0.3,0.3,0.6,0.4,0.9,0.2C51.3,111.6,51.6,111.6,51.9,111.7z M50.1,114.7c0.6,0.2,1.2,0.5,1.8,1.2
	c0.3-0.3,0.4-0.7,0.2-1c-0.2-0.4-0.1-0.8,0.2-1.3c-0.3-0.2-0.7-0.1-1.3,0.1C50.6,113.9,50.3,114.3,50.1,114.7z M50.1,121.4
	c0.6,0,0.9-0.3,0.9-0.9C50.4,120.5,50.1,120.8,50.1,121.4z M51.3,78.3c-0.3-0.3-0.5-0.3-0.7,0c-0.2,0.3,0.1,0.4,0.7,0.2V78.3z
	 M50.8,156.1c0.2-0.2,0.2-0.3,0.2-0.6c0-0.2-0.2-0.3-0.5-0.3C50.6,155.8,50.6,156.1,50.8,156.1z M51.7,96.7c0-0.2,0-0.3-0.1-0.3
	c-0.1-0.1-0.1-0.2-0.1-0.3c0,0.2-0.1,0.2-0.3,0.2c-0.2,0-0.3,0.2-0.1,0.5H51.7z M51.3,124.4c0-0.2,0.3-0.3,0.8-0.3
	c0.5-0.1,0.5-0.3-0.1-0.6c-0.3-0.3-0.6-0.2-0.8,0.2C50.9,124.2,50.9,124.4,51.3,124.4z M54.5,39.7c-1.7-0.2-2.7-1-3-2.5
	c-0.3-1.5-0.3-3.2-0.1-5.1c0.2-1.8,0.7-3.7,1.3-5.5c0.6-1.8,1.2-3.2,1.6-4.2c1.2-1.1,2.3-2.2,3.3-3.3c1-1.2,2.3-2.1,3.8-2.9
	c1.8-0.9,3.7-1.3,5.7-1.2c1.9,0.2,3.8,0.2,5.7,0c2-0.3,3.8-0.2,5.5,0.2c0.8,0.3,1.3,0.4,1.7,0.2c0.4-0.2,1-0.2,1.7,0
	c1.7,0.3,3.1-0.2,4.2-1.4c1.1-1.2,1.8-2.5,2.3-3.7c0.8-1.8,1.2-3.5,1.2-4.8c0.2-0.8,0.2-1.5,0.1-2.2c-0.1-0.7,0.1-1.3,0.6-2
	C90.8,0.5,92,0,93.6,0c1.6,0,3,0.1,4.3,0.2c1.7,0.3,2.8,1,3.2,2c0.5,1,0.5,2.3,0.2,4c0,1.5-0.2,2.8-0.7,3.9
	c-0.3,0.9-0.5,1.9-0.6,2.9c-0.1,1-0.3,1.9-0.6,2.7c-1.7,3.1-3.5,5.6-5.5,7.5c-2,1.9-4.8,3.4-8.3,4.5c-0.6,0.3-1.4,0.5-2.4,0.5
	c-1,0-1.8,0-2.4,0c-0.5-0.2-0.9-0.3-1.3-0.5c-0.4-0.2-0.8-0.2-1.3-0.2c-0.6,0-1.2,0-1.7,0.1c-0.5,0.1-1.2,0.1-2,0.1
	c-1.7-0.2-3.3-0.4-4.8-0.7c-1.5-0.3-3.1,0.3-4.6,1.8c-0.6,0.6-1,1.3-1.2,2.1c-0.2,0.8-0.2,1.6-0.2,2.4c0,0.8,0,1.7-0.1,2.5
	c-0.1,0.8-0.3,1.6-0.8,2.2c-0.8,1.2-2,1.8-3.8,1.8C57.2,39.9,55.7,39.9,54.5,39.7z M52.9,85.4c0-0.6-0.2-0.9-0.7-0.9
	s-0.8,0.2-0.9,0.7c0.3,0.3,0.5,0.7,0.5,1c0,0.4,0.2,0.6,0.7,0.6c0-0.3-0.1-0.6-0.2-0.9C52,85.6,52.3,85.4,52.9,85.4z M51.5,110.1
	c0.5,0,0.6-0.1,0.3-0.3C51.6,109.5,51.5,109.7,51.5,110.1z M52.9,101.1c0.3-0.2,0.3-0.3,0-0.6c-0.3-0.2-0.6-0.3-0.9-0.3
	c-0.3,0.3-0.3,0.6,0,0.8C52.3,101.2,52.6,101.3,52.9,101.1z M52.2,117.3c-0.2,0.6-0.1,1,0.1,1c0.2,0.1,0.5,0.1,0.9,0
	c0.4-0.1,0.7-0.2,1-0.5c0.3-0.2,0.5-0.3,0.7-0.3c0.5,0.2,0.7,0.1,0.6-0.2c-0.1-0.3-0.3-0.5-0.6-0.7c-0.5-0.2-0.9-0.1-1.4,0.1
	C53.1,116.9,52.6,117.1,52.2,117.3z M53.3,74.3c0.3-0.3,0.3-0.6-0.1-0.9c-0.4-0.3-0.7-0.2-1,0.2c0.3,0.2,0.5,0.3,0.6,0.6
	C52.8,74.5,53,74.5,53.3,74.3z M52.2,82h0.7c0-0.5-0.2-0.6-0.7-0.5V82z M52.4,55.9c-0.3,0.5-0.2,0.8,0.2,1.2
	c0.5,0.3,0.7,0.1,0.7-0.7C53,56.3,52.7,56.2,52.4,55.9z M52.4,106.4c-0.2,0.3,0,0.4,0.5,0.3c0.5-0.1,0.5-0.3,0.2-0.6h-0.5
	C52.5,106.2,52.4,106.3,52.4,106.4z M52.4,122.1c0,0.3,0.2,0.5,0.6,0.7c0.4,0.2,0.8,0.2,1.2,0.1c0.4-0.1,0.7-0.3,1-0.6
	c0.3-0.3,0.3-0.8,0-1.4c-0.3-0.6-0.5-0.9-0.7-0.8c-0.2,0.1-0.3,0.3-0.5,0.6c-0.2,0.3-0.2,0.7-0.2,1c0,0.4,0,0.7,0,0.8
	C53.2,122.3,52.7,122.1,52.4,122.1z M53.1,128.4c-0.3-0.3-0.5-0.2-0.5,0.2c-0.2,0.2-0.2,0.4-0.2,0.7c0.3,0,0.6-0.1,0.8-0.2
	C53.4,128.9,53.4,128.7,53.1,128.4z M53.8,138.8c0,0.6-0.2,0.9-0.7,0.8c-0.5-0.1-0.7,0.1-0.7,0.6c0.3-0.2,0.8-0.2,1.4-0.2
	c0.2-0.3,0.3-0.6,0.5-0.8C54.4,138.9,54.3,138.8,53.8,138.8z M52.6,107.6c-0.2,0.8-0.1,1,0.2,0.7C53.2,108,53.1,107.7,52.6,107.6z
	 M52.6,71.3c0.2,0.5,0.3,0.4,0.6-0.1c0.2-0.5,0.1-0.6-0.3-0.1L52.6,71.3z M52.9,72.3c0.2,0,0.2-0.2,0.1-0.5
	c-0.1-0.3-0.2-0.2-0.3,0.2L52.9,72.3z M52.9,134.6c-0.3,0.8-0.2,1.4,0.3,1.8c0.5,0.5,1.2,0.8,2,0.9c0-0.8-0.3-1.3-0.9-1.5
	C53.6,135.6,53.2,135.2,52.9,134.6z M54,144.8c0.3-0.3,0.6-0.3,0.9,0.1c0.3,0.4,0.6,0.4,0.9,0.1c-0.3-0.8-0.9-1-1.8-0.8
	c-0.9,0.2-1.3,0.7-1.2,1.5c0.5,0.2,0.7,0.1,0.7-0.1C53.6,145.3,53.7,145.1,54,144.8z M52.9,126.1c0,0.9,0.3,1.3,0.9,1.2
	C53.8,126.7,53.5,126.4,52.9,126.1z M53.6,88c0.3-1.2,0.2-1.6-0.3-1.2C52.7,87.3,52.8,87.7,53.6,88z M54.5,142
	c0.2-0.8-0.2-1.2-1.2-1.2C53.2,141.6,53.6,142,54.5,142z M54.3,61.4c0.5-0.9,0.2-1.2-0.7-0.7C53.6,61.2,53.8,61.4,54.3,61.4z
	 M54.9,59.3c-0.5-0.2-0.8-0.1-1.2,0.2c0.3,0,0.5,0.2,0.7,0.5c0.2,0.3,0.3,0.3,0.5,0c-0.3,0-0.3-0.1-0.1-0.2
	C55.1,59.6,55.1,59.5,54.9,59.3z M53.8,101.1c0.9,0,1.5-0.2,1.7-0.5c0.2-0.3,0.2-0.6,0-0.8c-0.2-0.2-0.5-0.3-0.9-0.2
	C54.2,99.7,53.9,100.2,53.8,101.1z M55.6,72.3c-0.3-0.3-0.4-0.7-0.2-1c0.2-0.4,0-0.7-0.5-1c-0.2,0.5-0.3,0.8-0.6,1
	c-0.2,0.2-0.3,0.6-0.3,1C54.5,72.9,55,72.9,55.6,72.3z M54.7,128.6c0-0.5-0.2-0.6-0.7-0.5v0.5H54.7z M56.1,75.3
	c-0.9-0.5-1.2-0.2-0.9,0.9c0.3,1.1,0.5,1.8,0.5,2.1c-0.2,0.5-0.5,0.8-1,1.2c-0.5,0.3-0.7,0.7-0.3,1.2c0.6,0,0.9-0.2,0.8-0.5
	c-0.1-0.3,0.1-0.6,0.6-0.9c0.8-0.3,1.2-0.5,1.2-0.6c0-0.1-0.2-0.4-0.5-1c-0.3-0.5-0.3-0.9,0-1.3C56.6,75.9,56.6,75.6,56.1,75.3z
	 M54.5,89.8c-0.2,0.3,0,0.4,0.5,0.3c0.5-0.1,0.5-0.3,0.2-0.6h-0.5C54.6,89.6,54.5,89.7,54.5,89.8z M55.4,132.1
	c-0.5,0-0.8,0.1-0.9,0.2l0.2,0.5C55.2,132.7,55.4,132.5,55.4,132.1z M54.7,94.9c0.3,0.3,0.7,0.3,1,0.1c0.4-0.2,0.4-0.5,0.1-0.8
	C55.1,94,54.7,94.3,54.7,94.9z M55.6,164.6c0.2-0.3,0.4-0.6,0.7-0.9c0.3-0.3,0.3-0.6,0-0.9c-0.3,0.5-0.7,0.8-1,1
	c-0.4,0.2-0.6,0.7-0.6,1.3C55.3,165.5,55.6,165.4,55.6,164.6z M56.1,95.8c-0.2,0.3-0.4,0.5-0.7,0.6c-0.3,0.1-0.5,0.3-0.5,0.6
	c0.5,0.5,0.9,0.5,1.4,0C56.8,96.5,56.7,96.1,56.1,95.8z M54.9,138.8c0.8,0.2,1.3,0,1.7-0.5c0.4-0.5,0.8-0.9,1.3-1.4
	c-0.3,0.2-0.6,0.2-0.8,0c-0.2-0.2-0.5-0.2-0.8-0.2c-0.2,0.5-0.3,0.8-0.6,1.2C55.5,138.1,55.3,138.4,54.9,138.8z M56.1,154.4
	c-0.3,0-0.5-0.1-0.7-0.2c-0.3,0.3-0.2,0.5,0.2,0.5S56.3,154.6,56.1,154.4z M55.4,140.1c-0.3,0.8-0.1,0.9,0.7,0.5
	C56.3,140.3,56,140.1,55.4,140.1z M56.3,128.4c0.2-0.3,0.1-0.5-0.2-0.6c-0.3-0.1-0.5,0-0.7,0.3c-0.2,0.3-0.1,0.5,0.2,0.6
	C55.9,128.8,56.2,128.7,56.3,128.4z M57.7,104.1c-0.3-0.3-0.7-0.5-1-0.5c-0.4,0-0.7-0.2-1-0.5v0.7c0.5,0,0.7,0.2,0.8,0.7
	c0.1,0.5,0.3,0.7,0.8,0.7C57.9,105.3,58,104.9,57.7,104.1z M57.3,86.6c-0.5-0.2-0.9-0.2-1.4,0c-0.2,0.8,0,1.1,0.5,0.9
	C56.8,87.3,57.1,87,57.3,86.6z M56.6,131.6c-0.2,0-0.2,0-0.2-0.1c0-0.1-0.1-0.1-0.2-0.1c-0.3,0.2-0.3,0.3,0,0.5
	C56.4,132,56.6,131.9,56.6,131.6z M56.1,94c0.3,0.2,0.6,0.3,0.8,0.5c0.2,0.2,0.4-0.2,0.6-0.9c0.2-1.1,0-1.3-0.3-0.8
	C56.8,93.2,56.4,93.7,56.1,94z M56.3,151.2c1.8,0.9,2.3,0.5,1.4-1.2c-0.2,0.3-0.4,0.5-0.7,0.6C56.7,150.7,56.5,150.9,56.3,151.2z
	 M56.8,56.1c-0.2,0.2-0.3,0.4-0.3,0.8c-0.1,0.4,0,0.6,0.3,0.6c0-0.2,0.2-0.4,0.5-0.7C57.6,56.5,57.4,56.3,56.8,56.1z M56.6,107.4
	c-0.2,0.3,0,0.5,0.3,0.5c0.4,0,0.6-0.2,0.6-0.5c-0.2,0-0.3,0-0.3-0.1C57.1,107.2,56.9,107.2,56.6,107.4z M56.6,83.8
	c0.2,0.2,0.3,0.3,0.6,0.3c0.2,0.1,0.4,0,0.6-0.3C57.1,83.5,56.7,83.5,56.6,83.8z M57.3,117c0-0.3-0.2-0.5-0.7-0.5v0.5H57.3z
	 M56.6,121.7c0.6-0.2,1.2-0.2,1.7,0c0.5,0.2,0.7-0.2,0.6-1.2c-0.3-1.5-0.7-1.9-1-1.2C57.4,120.1,57,120.9,56.6,121.7z M56.6,167.4
	c0.2,0,0.4-0.2,0.7-0.5C56.8,166.9,56.6,167.1,56.6,167.4z M57.3,110.6c-0.6,0.6-0.5,1.1,0.2,1.4c0.2-0.2,0.3-0.5,0.3-0.9
	C57.9,110.6,57.7,110.4,57.3,110.6z M57,147.1c-0.2,0.3-0.1,0.5,0.1,0.5c0.2,0,0.4,0.1,0.6,0.2C57.7,147.3,57.5,147.1,57,147.1z
	 M57.7,136c0.3-0.6,0.1-0.9-0.7-0.9C57,135.7,57.3,136,57.7,136z M57,144.8c0.8,0.3,1.2,0.1,1.2-0.7c-0.2,0.2-0.4,0.2-0.7,0.1
	C57.2,144.1,57,144.3,57,144.8z M57.7,80.6c-0.3,0.3-0.4,0.6-0.3,0.8c0.1,0.2,0.3,0.3,0.6,0.3C58.7,81,58.6,80.6,57.7,80.6z
	 M57.5,141.3c-0.2,1.2,0.2,1.4,1.2,0.6c0.9-0.8,1.5-1.4,1.6-1.7c-0.6-0.3-1.1-0.2-1.4,0.3C58.6,141,58.1,141.3,57.5,141.3z
	 M58.4,117.7c0.5-0.3,0.5-0.6,0.1-0.9c-0.4-0.3-0.7-0.3-1,0c0.3,0,0.5,0.1,0.5,0.3C57.9,117.4,58.1,117.6,58.4,117.7z M57.7,88.2
	c0.3,0,0.5-0.2,0.7-0.6c0.2-0.4,0-0.6-0.5-0.6c0,0.3-0.1,0.5-0.2,0.6C57.6,87.7,57.6,87.9,57.7,88.2z M57.7,101.8
	c0.5,0,0.7-0.1,0.7-0.3c0-0.2-0.1-0.4-0.2-0.5c-0.2-0.1-0.3-0.1-0.5,0C57.6,101.1,57.6,101.4,57.7,101.8z M57.9,130.2
	c0,0.6,0.2,0.9,0.6,0.9c0.4,0,0.7-0.1,0.9-0.3c0.2-0.2,0.3-0.5,0.1-0.7C59.4,129.9,58.9,129.9,57.9,130.2z M60.3,24.2
	c-0.2,0-0.5,0.2-1,0.7c-0.5,0.5-0.9,0.8-1,1.2C59.7,26.1,60.4,25.5,60.3,24.2z M58.6,28.4l-0.5,0.5c0.3,0.3,0.5,0.3,0.7,0
	C59,28.6,58.9,28.4,58.6,28.4z M60.3,66.3c-0.9,0-1.5,0.2-1.8,0.7C59.3,67.3,59.9,67,60.3,66.3z M59.3,111.5
	c0.3-0.3,0.3-0.6,0.1-0.9c-0.2-0.3-0.4-0.6-0.6-0.9c-0.2,0.3-0.2,0.7-0.2,1.3C58.6,111.5,58.9,111.7,59.3,111.5z M58.9,62.1
	c0,0.8,0.4,0.9,1.2,0.5C60,62,59.6,61.8,58.9,62.1z M59.6,135.7c-0.5,0-0.7,0.1-0.7,0.3c0,0.2,0.2,0.3,0.5,0.3
	C59.5,136.3,59.6,136.1,59.6,135.7z M59.3,104.1c0,0.3-0.1,0.5-0.2,0.6c-0.2,0.1-0.2,0.3,0,0.6l1.4,1.4c0.6-0.6,0.8-1.2,0.5-1.7
	C60.6,104.4,60.1,104.1,59.3,104.1z M60.3,82.4c-0.3,0-0.6,0.3-0.9,0.8c-0.3,0.5-0.4,1-0.2,1.5c0.3,0.2,0.5,0.1,0.7-0.1
	c0.2-0.2,0.3-0.2,0.5,0.1c0,0.3-0.1,0.5-0.3,0.6c-0.2,0.1-0.2,0.3,0.1,0.6c0.8-0.3,1-0.8,0.7-1.6C60.4,83.5,60.3,82.9,60.3,82.4z
	 M59.1,126.1c0,0.3,0.3,0.5,1,0.7c0.7,0.2,1.2,0.4,1.5,0.7c0.5-0.8,0.2-1.3-0.7-1.6C60,125.5,59.4,125.6,59.1,126.1z M60.5,101.4
	c-0.3-0.2-0.6-0.2-0.8,0c-0.2,0.2-0.3,0.5-0.1,0.9C60.2,102,60.5,101.7,60.5,101.4z M59.6,93.5c0.5,0,0.6-0.1,0.3-0.3
	C59.7,92.9,59.6,93,59.6,93.5z M61.4,144.3c0.3-0.5,0.2-0.9-0.3-1.4c-0.5-0.5-1-0.5-1.5-0.2c0,0.6,0.3,0.9,0.8,0.8
	C60.9,143.4,61.3,143.7,61.4,144.3z M60,71.8c-0.3,0.3-0.4,0.6-0.2,0.8c0.2,0.2,0.4,0.4,0.7,0.6c-0.2-0.5-0.2-0.8-0.1-0.9
	C60.4,72.1,60.3,72,60,71.8z M60,78.7c0.6,0,0.9-0.2,0.9-0.5c-0.3,0.2-0.5,0.2-0.7,0.1C60.1,78.3,60,78.4,60,78.7z M60,88.2l0.2,0.2
	c0.2-0.2,0.2-0.3,0.2-0.5L60,87.7V88.2z M60.3,151.4c0.5,0,0.7-0.1,0.8-0.2c0.1-0.2,0-0.3-0.1-0.5c-0.2-0.2-0.3-0.2-0.6-0.2
	C60.1,150.5,60.1,150.8,60.3,151.4z M60.9,75.5c0-0.8-0.2-1.2-0.7-1.2C60.3,75,60.5,75.3,60.9,75.5z M61.6,99.7c0.2,0.3,0.5,0,1-1
	c0.5-1,0.3-1.7-0.8-2c-0.3,0.3-0.5,0.6-0.7,0.8c-0.2,0.2-0.5,0.3-0.9,0.3c0.3,0.3,0.5,0.6,0.7,0.9C61.3,99.4,61.5,99.7,61.6,99.7z
	 M61.4,118c0-0.5-0.1-0.6-0.2-0.5c-0.2,0.2-0.4,0.2-0.7,0.2c0,0.5,0.1,0.6,0.2,0.5C60.9,118.1,61.1,118,61.4,118z M60.9,139.2
	c0.8,0.2,1-0.1,0.8-0.8c-0.2-0.7-0.1-1.3,0.3-1.7c-0.9-0.3-1.4-0.1-1.5,0.7C60.5,138.1,60.6,138.8,60.9,139.2z M60.9,65.8
	c-0.2,0.3,0,0.4,0.5,0.3c0.5-0.1,0.6-0.3,0.5-0.6C61.4,65.6,61.1,65.6,60.9,65.8z M61.9,103.4c-0.3-0.3-0.6-0.3-0.8,0
	c-0.2,0.3-0.1,0.5,0.3,0.7C61.4,104,61.6,103.7,61.9,103.4z M63.7,73.4c-0.5,0.2-1,0-1.5-0.5c-0.5-0.5-1-0.4-1.3,0.2
	c0.3,0.3,0.7,0.5,1.2,0.5s0.5,0.3,0.2,0.9c0.3,0,0.7-0.1,1.2-0.3C64,74,64,73.7,63.7,73.4z M61.6,120.5c0.3-0.3,0.3-0.6,0.1-0.8
	c-0.2-0.2-0.5-0.3-0.8-0.3c0,0.3,0,0.6,0,0.9C60.9,120.6,61.2,120.7,61.6,120.5z M61.4,71.3c0.5,0,0.7-0.2,0.7-0.7
	c-0.3-0.3-0.6-0.3-0.9,0c0,0.2,0,0.3,0.1,0.3C61.4,71.1,61.4,71.2,61.4,71.3z M61.9,100.4c-0.3,0.3-0.4,0.6-0.3,0.8
	c0.1,0.2,0.3,0.4,0.6,0.6C62.6,101.2,62.5,100.7,61.9,100.4z M61.9,115.9c-0.5,0.5-0.4,0.8,0.1,1.2c0.5,0.3,1,0.4,1.3,0.2
	C63.1,116.7,62.6,116.2,61.9,115.9z M61.9,106.7c-0.2,0.2-0.2,0.4-0.2,0.7h0.5C62.6,106.9,62.5,106.7,61.9,106.7z M62.1,118
	c-0.3,0.9,0,1.4,0.9,1.4C63,118.4,62.7,118,62.1,118z M62.1,88.7c0.9-0.2,1.2-0.5,0.7-0.9C62.3,87.3,62.1,87.6,62.1,88.7z
	 M62.6,102.5c0-0.3-0.2-0.5-0.5-0.5v0.5H62.6z M63.3,132.1c-0.8-0.3-1.2-0.2-1.2,0.5c0.2,0.3,0.4,0.4,0.8,0.3
	C63.3,132.8,63.4,132.5,63.3,132.1z M62.1,141.8c0.3,0,1,0,2.1-0.1c1.1-0.1,1.2-0.6,0.5-1.5c-0.5,0.3-0.9,0.5-1.4,0.7
	C62.5,141.3,62.1,141.6,62.1,141.8z M62.1,142.9c0.5,0.5,0.7,0.4,0.7-0.2C62.3,142.2,62.1,142.3,62.1,142.9z M62.3,76.2
	c0,0.9,0.2,1.4,0.7,1.4C63,76.6,62.8,76.2,62.3,76.2z M62.3,105.5c0.3,0.3,0.5,0.2,0.5-0.2c0-0.5-0.2-0.5-0.5-0.2V105.5z
	 M62.8,139.4c0.8,0.3,1.3,0.1,1.6-0.6c0.3-0.7,0.2-1.2-0.2-1.5c-0.2,0.5-0.4,0.8-0.7,1C63.2,138.6,62.9,139,62.8,139.4z M63,154
	c-0.2,0.3,0,0.5,0.3,0.5c0.4,0,0.6-0.2,0.6-0.5H63z M64.2,147.1c0-0.5-0.2-0.6-0.7-0.5c-0.5,0.2-0.6,0.4-0.5,0.7
	C63.5,147.3,63.9,147.2,64.2,147.1z M64.4,125.6c0.8,0.3,1.2,0.3,1.2,0c0-0.3,0.2-0.5,0.7-0.5c0.2,0.8,0.4,0.9,0.8,0.5
	c0.4-0.5,0.7-0.8,0.8-1.2c0.2-1.1-0.4-1.5-1.6-1.2c-1.2,0.3-2,0.7-2.3,1.2c-0.3,0-0.4-0.2-0.3-0.6c0.1-0.4,0-0.5-0.3-0.3
	c-0.3,0.5-0.3,0.9,0.1,1.3C63.8,125.2,64.1,125.4,64.4,125.6z M64.4,107.1c0.2-0.5,0.1-0.9-0.1-1.3c-0.2-0.4-0.6-0.4-1-0.1
	c0,0.8,0.1,1.2,0.2,1.2C63.6,106.9,64,107,64.4,107.1z M65.3,108c-0.3-0.6-0.7-0.7-1.2-0.3c-0.5,0.4-0.8,0.8-0.9,1.3
	c0.3-0.3,0.8-0.4,1.5-0.2C65.5,108.9,65.6,108.7,65.3,108z M64,121.4c0-0.5-0.2-0.7-0.7-0.7v0.7H64z M63.3,130.4
	c0.3,0,0.6-0.2,0.9-0.7C63.6,129.6,63.3,129.8,63.3,130.4z M63.7,101.1c0.5,0,0.7-0.2,0.8-0.7c0.1-0.5-0.1-0.6-0.6-0.5
	c0,0.3-0.1,0.5-0.2,0.6C63.6,100.6,63.6,100.8,63.7,101.1z M63.7,145.2c0.8,0,1.3-0.6,1.6-1.8C64,143.2,63.4,143.8,63.7,145.2z
	 M65.1,114.5c0.8-0.2,1-0.4,0.8-0.7c-0.2-0.3-0.3-0.8-0.1-1.4c0.3-0.9,0.2-1.1-0.5-0.6c-0.6,0.5-1.1,0.8-1.4,0.8
	c-0.2,0.3-0.1,0.5,0.1,0.5c0.2,0,0.5,0.1,0.8,0.2C65,113.4,65.1,113.7,65.1,114.5z M64.6,135.1c0.3-0.3,0.5-0.8,0.5-1.5
	c0-0.7,0.2-1.2,0.5-1.5c-0.8-0.5-1.3-0.2-1.5,0.9C63.8,134.1,64,134.8,64.6,135.1z M64.2,55.6c0.3,0.3,0.5,0.2,0.5-0.2
	s-0.2-0.5-0.5-0.2V55.6z M65.3,84.5c0.2-0.3,0-0.5-0.3-0.7c-0.4-0.2-0.7-0.1-0.8,0.2c0.3,0,0.5,0.2,0.6,0.5
	C64.8,84.8,65,84.8,65.3,84.5z M65.8,121.9c0-0.3-0.2-0.5-0.6-0.6c-0.4-0.1-0.7,0-1,0.3c0,0.3,0.2,0.4,0.6,0.3
	C65.1,121.9,65.5,121.9,65.8,121.9z M64.6,154.2c0.2-0.2,0.2-0.3,0.2-0.3c0-0.1,0.1-0.2,0.2-0.3c-0.2,0-0.3,0-0.3-0.1
	c-0.1-0.1-0.3-0.1-0.6-0.1C64.2,153.6,64.3,153.9,64.6,154.2z M66.3,127.9c-0.3-0.2-0.6-0.3-0.8-0.3c-0.2-0.1-0.5-0.3-0.8-0.6
	c-0.5,0.5-0.5,0.9-0.2,1.4C65.5,128.4,66.1,128.2,66.3,127.9z M68.1,100.2c0.2-0.5,0-0.8-0.6-1c-0.5-0.2-1-0.3-1.3-0.1
	c-0.6-1.2-1.2-1.9-1.8-2.1c0.2,0.3,0.3,0.7,0.5,1c0.2,0.4,0.2,0.7,0.2,1c0.5-0.2,1,0.1,1.6,0.7C67.3,100.4,67.8,100.5,68.1,100.2z
	 M65.6,82.6c-0.2-0.3-0.2-0.6-0.2-0.9c0-0.3-0.2-0.4-0.7-0.2C64.6,82.4,65,82.8,65.6,82.6z M64.9,110.6c0,0.5,0.2,0.7,0.7,0.7
	C65.7,110.7,65.5,110.4,64.9,110.6z M64.9,136c0,0.3,0.1,0.5,0.2,0.5c0.2,0,0.2-0.1,0.2-0.2C65.3,136.1,65.2,136,64.9,136z
	 M66.3,77.6c-0.8,0.5-1.2,0.8-1.2,1.2c0.2,0.2,0.5,0,0.9-0.5C66.2,78.1,66.3,77.9,66.3,77.6z M66,73c-0.3,0.3-0.3,0.7-0.1,1.3
	c0.2,0.5,0.6,0.8,1,0.8c0.2-0.5,0.1-0.9-0.1-1.4C66.6,73.2,66.3,73,66,73z M66.3,142.7c0.5,0,0.7-0.3,0.6-1
	c-0.1-0.7-0.3-0.9-0.8-0.6c-0.2,0.3-0.2,0.6,0,0.8C66.2,142.1,66.3,142.4,66.3,142.7z M66.3,69c-0.3,0.3-0.3,0.6-0.1,0.9
	c0.2,0.3,0.6,0.4,1,0.2C67.2,69.7,66.9,69.3,66.3,69z M66.5,146.4c0-0.3-0.2-0.6-0.5-0.9v0.9H66.5z M66.3,151.2
	c0.2,0,0.2-0.2,0.2-0.5c0-0.3-0.1-0.2-0.2,0.2C66.1,151,66.1,151.1,66.3,151.2z M66.3,90.5c0.9,0.3,1.4-0.1,1.4-1.2
	C67,89.3,66.6,89.7,66.3,90.5z M66.5,133c0.5,0,0.9-0.3,1.4-0.8c0.5-0.5,0.8-1,1-1.5c0.2-0.5,0.3-0.8,0.2-1.2
	c-0.1-0.3-0.4-0.4-1-0.2c-0.2,0.3-0.1,0.6,0.1,0.9c0.2,0.3,0.3,0.6,0.1,0.9c-0.8,0.3-1.3,0.5-1.5,0.5
	C66.6,131.6,66.5,132.1,66.5,133z M66.7,87.3c0.3,0.2,0.5,0,0.5-0.3c0-0.4-0.2-0.5-0.5-0.3V87.3z M67.4,112.2
	c0.3-0.2,0.4-0.5,0.3-0.9c-0.1-0.5-0.3-0.6-0.8-0.5c-0.2,0.2-0.2,0.5-0.2,0.9C66.7,112.2,67,112.4,67.4,112.2z M67.6,126.3
	c-0.3,0.5-0.2,0.7,0.2,0.6c0.5-0.1,0.6-0.3,0.5-0.6H67.6z M67.6,82.4c-0.2,0.8-0.1,1,0.2,0.7C68.2,82.8,68.1,82.6,67.6,82.4z
	 M70.2,94.4c0.8,0.2,1.2,0,1.3-0.5c0.1-0.5-0.3-0.8-1-0.9c-0.2,0.3-0.4,0.5-0.7,0.5c-0.3,0-0.6,0-0.9-0.1c-0.3-0.1-0.6,0-0.8,0.1
	c-0.2,0.2-0.3,0.5-0.3,0.9c0.3-0.3,0.7-0.4,1.2-0.2C69.3,94.3,69.7,94.4,70.2,94.4z M70.4,86.6c0-0.8-0.4-1.2-1.2-1.4
	c-0.8-0.2-1.2,0.2-1.4,0.9c0.6-0.3,1.1-0.3,1.5,0.1C69.8,86.6,70.1,86.7,70.4,86.6z M69.3,103c-0.5-0.2-0.8-0.1-1.2,0.2
	c-0.2,0.3-0.1,0.7,0.1,1.2c0.2,0.5,0.6,0.5,1,0.2V103z M68.1,118.4c-0.2,0.3-0.1,0.5,0.1,0.5c0.2,0,0.4,0.1,0.6,0.2
	C69,118.7,68.7,118.4,68.1,118.4z M69.7,72c-0.9,0.3-1.4,0.5-1.4,0.7c0.3,0,0.6,0,0.9,0C69.6,72.7,69.7,72.5,69.7,72z M71.3,79.4
	c-0.5-0.5-0.9-0.6-1.4-0.3c-0.5,0.2-1,0.2-1.6-0.1c0,0.3,0.1,0.5,0.2,0.7c0.2,0.2,0.2,0.4,0,0.7c0.6-0.2,1-0.1,1.2,0.2
	c0.2,0.3,0.2,0.7,0.2,1c0,0.4,0,0.7,0,1c0,0.3,0.2,0.5,0.7,0.5c0-0.5,0-1-0.1-1.5c-0.1-0.5-0.1-1-0.1-1.5c0.2-0.3,0.3-0.4,0.6-0.3
	C71.2,79.8,71.3,79.7,71.3,79.4z M68.3,88.2c0,1.2,0.2,1.5,0.7,0.7C69.5,88.1,69.3,87.9,68.3,88.2z M69,149.4
	c-0.5,0.2-0.5,0.3-0.2,0.6c0.3,0.2,0.6,0.3,0.9,0.3c0-0.3-0.1-0.7-0.3-1.2c-0.2-0.5-0.6-0.5-1-0.2c0,0.3,0.2,0.4,0.5,0.3
	C69.1,149.2,69.2,149.2,69,149.4z M70.4,114.5c-0.8-0.3-1.3-0.1-1.7,0.6c-0.4,0.7-0.2,1.2,0.6,1.5c0.3-0.2,0.5-0.3,0.5-0.6
	c0-0.2,0.2-0.3,0.5-0.3c0.3,0,0.5,0.1,0.6,0.3c0.1,0.2,0.3,0.2,0.6-0.1c0-0.3-0.1-0.5-0.3-0.7C70.8,115.1,70.6,114.8,70.4,114.5
	c0.3-0.3,0.6-0.5,0.8-0.6c0.2-0.1,0.3-0.3,0.3-0.6c-0.6-0.2-1-0.1-1,0.1c-0.1,0.2-0.3,0-0.6-0.8c0-0.2-0.2-0.6-0.6-1.4
	c-0.4-0.8-0.7-0.7-0.8,0.2c0.6,0.3,1,0.8,1,1.4C69.7,113.5,70,114,70.4,114.5z M69,56.8c0.8,0,1-0.2,0.6-0.6
	C69.2,55.8,69,56,69,56.8z M70.2,150.8c-0.6,0-1,0.1-1,0.3c-0.1,0.2,0,0.4,0.1,0.6c0.2,0.2,0.3,0.2,0.6,0.1
	C70.1,151.7,70.2,151.4,70.2,150.8z M70.2,75l0.5-0.9c-0.2,0-0.2,0-0.2-0.1c0-0.1-0.1-0.1-0.2-0.1c-0.3,0.2-0.5,0.3-0.6,0.6
	C69.5,74.7,69.7,74.9,70.2,75z M70.4,108.5c-0.3-0.3-0.5-0.3-0.7,0c-0.2,0.3,0,0.5,0.5,0.7c0-0.3,0-0.5,0.1-0.5
	C70.4,108.7,70.4,108.7,70.4,108.5z M69.7,142.7c0.6,0.3,1.3,0.4,2.1,0.2c0.8-0.2,1.2-0.6,1.2-1.4c-0.6,0.3-1.2,0.4-1.8,0.3
	C70.5,141.8,70,142.1,69.7,142.7z M70.4,133.2c0.3,0.5,0.2,0.8-0.2,1.2c-0.5,0.3-0.5,0.7-0.2,1.2c0.2-0.3,0.5-0.8,1.2-1.4
	C71.7,133.5,71.5,133.2,70.4,133.2z M71.8,97.7c-0.3,0.2-0.5,0-0.7-0.6c-0.2-0.5-0.5-0.8-0.9-0.8c-0.3,0.3-0.4,0.7-0.2,1.2
	c0.2,0.5,0.3,0.8,0.5,1.2c1.4,0,2.1-0.5,2.1-1.6c-0.3,0-0.4,0.1-0.3,0.2C72.2,97.4,72.1,97.5,71.8,97.7z M70,51.3h0.5
	c0-0.5-0.2-0.5-0.5-0.2V51.3z M74.8,104.4c-0.5-0.3-1.1-0.8-2-1.6c-0.8-0.8-1.7-1.2-2.4-1.4c0,0.6,0.2,1.1,0.7,1.4
	c0.5,0.3,0.7,0.8,0.7,1.4c0.3,0.2,0.5,0.1,0.7-0.2c0.2-0.3,0.4-0.4,0.7-0.2c0.2,0.6,0.1,0.9-0.1,0.9c-0.2,0,0,0.2,0.6,0.7
	c0.5,0.3,0.9,0.4,1.3,0.2C75.3,105.4,75.3,105,74.8,104.4z M71.8,139c-0.3,0.2-0.5,0.2-0.7,0.2c-0.2,0-0.4,0.2-0.7,0.5
	c0.3,0.3,0.7,0.4,1,0.2C71.8,139.8,72,139.4,71.8,139z M70.4,154.4c1.1,0.2,1.5,0.1,1.2-0.2c-0.3-0.3-0.6-0.7-0.9-1.2
	C70.6,153.7,70.6,154.1,70.4,154.4z M72,120.1c0.3-0.2,0.2-0.5-0.2-0.9c-0.5-0.5-0.8-0.4-1.2,0.2c0.3,0,0.5,0.1,0.7,0.3
	C71.5,119.9,71.7,120.1,72,120.1z M70.6,121.9c0.6-0.2,1.1,0,1.4,0.3c0.3,0.4,0.6,0.7,0.9,0.8c0-0.3-0.2-0.7-0.7-1.3
	c-0.5-0.5-1-0.8-1.6-0.8V121.9z M72,109.7c0.8,0.8,1.4,0.8,1.8,0c0-0.3-0.1-0.5-0.3-0.6c-0.2-0.1-0.3-0.3-0.3-0.6
	c0.3,0,0.9-0.2,1.7-0.5c0.8-0.3,0.9-0.6,0.1-0.9c-0.5-0.2-0.9-0.1-1.3,0.2c-0.4,0.3-0.8,0.3-1.3,0c-0.3,0.3-0.7,0.6-1.2,0.9
	C70.9,108.6,71.1,109,72,109.7z M71.8,130.9c-0.5,0-0.7,0.2-0.7,0.5C71.3,131.4,71.5,131.2,71.8,130.9z M72,66.7
	c-0.2,0.3-0.2,0.5-0.2,0.7c0,0.2-0.1,0.3-0.2,0.5c0.3,0.3,0.5,0.5,0.6,0.5c0.1,0,0.3,0.1,0.6,0.2c-0.2-0.3-0.2-0.6-0.2-0.9
	C72.5,67.3,72.3,67,72,66.7z M71.6,79.2c0,0.5,0.2,0.8,0.5,1.2c-0.2-0.5-0.1-0.8,0.1-0.9C72.4,79.3,72.2,79.2,71.6,79.2z
	 M71.6,151.4c0.3,0.3,0.5,0.2,0.5-0.2s-0.2-0.5-0.5-0.2V151.4z M72.7,83.6c0-0.9-0.2-1.4-0.7-1.4c-0.3,0.2-0.3,0.4-0.1,0.8
	C72.1,83.4,72.4,83.6,72.7,83.6z M73.4,127c-1.2-0.3-1.7,0.1-1.4,1.2C73,128.4,73.4,128.1,73.4,127z M72.3,129.5
	c-0.2,0.6,0,0.9,0.6,0.9c0.5,0,1,0.2,1.3,0.5c0.5-0.3,0.6-0.6,0.5-0.9c-0.5,0-0.8-0.1-1.2-0.2C73.1,129.6,72.7,129.5,72.3,129.5z
	 M74.1,76.4c0.8-0.3,0.9-0.8,0.5-1.6c-0.5-0.8-1.2-0.7-2.1,0.2c0.2,0.9,0.2,1.4,0.2,1.5c0,0.1,0,0,0.1-0.1c0.1-0.2,0.2-0.4,0.5-0.7
	c0.2-0.3,0.6-0.5,1-0.5C74,75.9,74,76.3,74.1,76.4z M72.5,113.6c0,0.5,0.2,0.8,0.5,0.9c0.5-0.5,0.7-0.8,0.7-1.2
	c-0.3-0.2-0.5-0.2-0.6,0C73,113.5,72.8,113.6,72.5,113.6z M73.2,138.1c0-0.3-0.1-0.5-0.3-0.6c-0.2-0.1-0.3,0-0.3,0.3
	c0.2,0,0.2,0,0.2,0.1C72.7,138,72.9,138.1,73.2,138.1z M74.3,72c-0.9,0-1.5,0.3-1.6,0.9c0.5,0,0.8-0.1,0.9-0.2
	C73.8,72.6,74,72.3,74.3,72z M75,114.7c-0.2-0.3-0.5-0.3-1.2,0c-0.6,0.3-1,0.6-1.2,0.9c0.3,0.3,0.8,0.3,1.6,0.1
	C75.1,115.5,75.3,115.2,75,114.7z M73,91.7c0.3,0,0.5,0.1,0.5,0.3c0,0.2,0.2,0.3,0.5,0.3c0.2-0.3,0.1-0.6-0.2-0.8
	C73.3,91.3,73.1,91.3,73,91.7z M73.6,94.7c-0.2-0.2-0.4-0.2-0.7-0.2v0.5C73.4,94.9,73.6,94.8,73.6,94.7z M73,151.4
	c0.3,0.3,0.5,0.3,0.5,0C73.4,151.1,73.3,151.1,73,151.4z M77.3,136.4c-0.2-0.6-0.1-1.2,0.2-1.6c0.3-0.5,0.1-0.8-0.7-1.2
	c0.3-0.3,0.8-0.5,1.4-0.7c0.6-0.2,0.6-0.4,0-0.7c-0.3-0.3-0.5-0.6-0.6-0.9c-0.1-0.3-0.3-0.3-0.8,0c-0.3,0.2-0.5,0.3-0.7,0.6
	c-0.2,0.2-0.4,0.3-0.7,0.3c-0.3,0.2-0.7-0.1-1.2-0.7c-0.5-0.6-0.7-0.5-0.7,0.5c0,0.5,0.3,0.8,1,0.9c0.7,0.2,1.2,0.4,1.5,0.7
	c-0.3,0.5-0.2,0.6,0.5,0.5c-0.2,0.3-0.2,0.8-0.2,1.4c0.6,0,0.7,0.2,0.2,0.7c0.3,0,0.5,0,0.5,0.1C77.1,136.4,77.2,136.4,77.3,136.4z
	 M73.6,144.1c0.3,0.2,0.5,0,0.5-0.3c0-0.4-0.2-0.5-0.5-0.3V144.1z M74.3,78.3c0.6-0.2,1-0.4,1-0.7c0.1-0.3-0.3-0.5-1-0.7
	C73.9,77.3,73.9,77.8,74.3,78.3z M74.6,138.3c0.8,0.5,1,0.8,0.8,0.9c-0.2,0.2-0.5,0.6-0.8,1.4c0.3,0.2,0.6,0.2,0.8,0.1
	c0.2-0.1,0.5-0.1,0.8-0.1c-0.3-0.3-0.4-0.7-0.2-1c0.2-0.4,0.2-0.7,0.2-1c-0.3-0.3-0.6-0.6-0.8-0.8c-0.2-0.2-0.5-0.5-0.8-0.8
	C74.1,137.4,74.1,137.8,74.6,138.3z M75.5,99c-0.5,0-0.8,0.1-0.9,0.2v0.7C75.2,100,75.5,99.7,75.5,99z M76,128.1
	c-0.8,0-1.2,0.2-1.2,0.7c0,0.5,0.4,0.8,1.2,0.9V128.1z M75.5,151.7c0-0.3-0.2-0.5-0.7-0.5v0.5H75.5z M76,111.5
	c0-0.9,0.3-1.6,0.9-2.1c-0.5-0.3-0.8-0.4-1.2-0.3c-0.3,0.1-0.5,0.3-0.7,0.7c-0.2,0.4-0.2,0.7,0,1C75.2,111.1,75.5,111.4,76,111.5z
	 M75,91.9c0.3,0,0.5-0.1,0.5-0.2c0-0.2,0.2-0.3,0.5-0.5c-0.3-0.3-0.6-0.3-0.8-0.1C74.9,91.3,74.9,91.6,75,91.9z M76,144.8
	c0-0.5-0.1-0.6-0.2-0.5c-0.2,0.2-0.4,0.2-0.7,0.2c0,0.5,0.1,0.6,0.2,0.5C75.4,144.8,75.6,144.8,76,144.8z M75,149.1
	c0.5-0.3,1-0.3,1.5,0c0.5,0.3,0.9,0.2,1-0.5c-0.3-0.3-0.8-0.5-1.5-0.5S75,148.5,75,149.1z M76.2,84.7c0.8-1.8,1.1-2.9,0.9-3.2
	c-0.2-0.3-0.4-0.2-0.8,0.2c-0.4,0.5-0.7,1-0.8,1.7C75.3,84.2,75.6,84.6,76.2,84.7z M76,74.1c0.5,0,0.6-0.1,0.3-0.3
	C76.1,73.5,76,73.6,76,74.1z M76.6,102c0.2-0.5-0.1-0.7-0.7-0.7C76,101.8,76.2,102,76.6,102z M77.1,120.3c0-0.2-0.2-0.2-0.6-0.2
	c-0.4,0-0.6,0.1-0.6,0.2c0.2,0.2,0.4,0.3,0.7,0.5C77,120.9,77.1,120.7,77.1,120.3z M76.4,85.7c-0.3,0.3-0.4,0.6-0.2,0.9
	c0.3,0.3,0.5,0.2,0.6-0.3C76.8,85.7,76.7,85.5,76.4,85.7z M78.7,103.7c-0.9-0.2-1.2-0.3-0.8-0.5c0.4-0.2,0.3-0.5-0.3-1.2
	c-0.2,0-0.5,0.2-0.9,0.5c-0.5,0.3-0.6,0.6-0.5,0.9c0.8-0.2,1.2,0,1.3,0.5c0.1,0.5,0.3,0.9,0.8,1.4c1.2,1.2,1.8,0.8,1.8-1.2
	c-0.3-0.2-0.5-0.2-0.7-0.2C79.3,103.9,79,103.8,78.7,103.7z M76.9,126.5c0.3-0.3,0.3-0.6,0.1-0.8c-0.2-0.2-0.5-0.3-0.8-0.1
	C76,126.2,76.3,126.5,76.9,126.5z M76.6,115.2c0.5-0.2,0.9-0.2,1.3,0c0.4,0.2,0.8,0.3,1.2,0.5c0.4,0.2,0.7,0.2,0.9,0
	c0.2-0.2,0.4-0.6,0.6-1.4c0.2-0.6-0.1-0.7-0.7-0.3c-0.6,0.4-1,0.5-1.2,0.3c-0.3-0.2-0.5-0.3-0.7-0.6c-0.2-0.2-0.4-0.3-0.7-0.3
	c-0.2,0.3-0.3,0.6-0.5,0.8C76.7,114.4,76.6,114.7,76.6,115.2z M77.6,117.7c0.5-0.5,0.3-0.7-0.5-0.7c0,0.3-0.1,0.4-0.2,0.3
	c-0.2-0.1-0.2,0-0.2,0.3H77.6z M76.9,122.1c0.2,0.5,0.4,0.8,0.7,0.9c0.3,0.2,0.5,0.5,0.7,0.9c0.2-0.8,0.1-1.2-0.1-1.2
	C77.9,122.8,77.5,122.6,76.9,122.1z M80.8,136.4c-0.3-0.5-0.7-0.7-1.2-0.6c-0.5,0.1-0.9,0.3-1.4,0.6c-0.5,0.3-0.7,0.7-0.8,1
	c-0.1,0.4,0.3,0.7,1,0.8C78.6,137.5,79.4,136.9,80.8,136.4z M79.2,107.6c0.3,0.8,0.7,1.3,1,1.7c0.4,0.4,0.3,1-0.1,1.7
	c-0.3-0.2-0.7-0.4-1.3-0.8c-0.5-0.4-1-0.3-1.3,0.3c0.5,0.3,1,0.6,1.5,0.8c0.5,0.2,1.1,0.3,1.7,0.1c1.1-0.2,1.3-0.6,0.7-1.4
	c-0.6-0.8-1-1.5-1.2-2.1c-0.2-0.8-0.5-1.2-0.9-1.2C79,106.9,78.9,107.1,79.2,107.6z M78,143.4c0.8,0.5,1.1,0.5,1,0
	c-0.1-0.5-0.3-0.7-0.8-0.7C78.1,142.8,78,143.1,78,143.4z M79,100.4c0,0.3-0.1,0.5-0.3,0.6c-0.2,0.1-0.3,0.3-0.3,0.6
	c0.3,0.3,0.5,0.6,0.5,0.9c0,0.3,0.2,0.5,0.5,0.7c0.6-0.5,0.6-0.9,0-1.4C79,101.5,79,101,79,100.4z M78.7,78.3c1.2,0,1.9-0.1,2.1-0.3
	c0.2-0.2,0.1-0.4-0.1-0.5c-0.2-0.1-0.6-0.1-1,0C79.2,77.5,78.9,77.8,78.7,78.3z M79.7,130.9c-0.8,0-1,0.3-0.7,0.9
	C79.4,131.8,79.7,131.5,79.7,130.9z M79.4,147.5c-0.2,0.6-0.1,0.8,0.2,0.5C80,147.7,79.9,147.5,79.4,147.5z M79.4,124.2
	c0.8,0.6,1.3,0.3,1.7-0.8c0.4-1.2,0.7-1.9,1-2.2c0.3-0.6,0.4-1.1,0.2-1.4c-0.5-0.8-0.5-1.1-0.1-1c0.4,0.1,0.6-0.3,0.6-1
	c-0.3,0-0.7,0.1-1,0.2c-0.4,0.2-0.7,0.2-1,0c-0.3,0.9-0.2,1.4,0.3,1.4c0.5,0,0.8,0.2,0.8,0.5c-0.3,0.8-0.7,1.5-1.2,2.2
	C80.3,122.7,79.9,123.4,79.4,124.2z M80.8,120.3c-0.5-0.2-0.9-0.2-1.4,0c0,0.6,0.2,0.9,0.7,0.8C80.6,121,80.8,120.7,80.8,120.3z
	 M79.4,137.6c0.2,0.3,0.4,0.7,0.7,1c0.3,0.4,0.6,0.4,0.9,0.1C81,138.3,80.5,137.9,79.4,137.6z M80.3,82.4c0.5-0.2,1-0.3,1.5-0.3
	c0.5-0.1,0.8-0.4,0.8-1c-0.6,0.2-1.1,0.2-1.5,0.2C80.8,81.3,80.5,81.7,80.3,82.4z M80.6,101.1c0.3,0,0.5,0,0.6-0.1
	c0.1-0.1,0-0.2-0.3-0.3C80.6,100.8,80.6,101,80.6,101.1z M80.8,104.1c0,0.2,0.1,0.2,0.2,0.2h0.2c0.3-0.3,0.3-0.5-0.1-0.5
	C80.8,103.9,80.6,104,80.8,104.1z M81.5,89.8c0-0.3-0.2-0.5-0.7-0.5v0.5H81.5z M81.5,99c-0.5-0.2-0.7-0.1-0.7,0.2
	C81.3,99.7,81.5,99.7,81.5,99z M83.3,113.1c0.2,0.3,0.2,0.6,0.2,0.9c0,0.3-0.2,0.5-0.7,0.5c-0.5-0.3-0.7-0.7-0.6-1.3
	c0.1-0.5,0-1-0.1-1.5c-0.6,0-1.1,0.4-1.4,1.2c0.6,1.2,1.5,2.2,2.8,2.8c0.3-0.5,0.6-1.1,0.9-1.8C84.8,113,84.4,112.8,83.3,113.1z
	 M82.7,134.4c-0.2-0.6-0.3-1.2-0.5-1.6c-0.2-0.5-0.5-0.5-1.2-0.2c0.3,0.3,0.5,0.7,0.6,1.2C81.7,134.1,82,134.4,82.7,134.4z
	 M82.2,124.2c-0.5,0-0.8,0.2-0.9,0.7c0.5,0.2,0.7,0.3,0.8,0.3C82.1,125.3,82.2,125,82.2,124.2z M81.5,102.7c0.6,0.6,1.1,0.5,1.4-0.3
	c0.3-0.8,0.1-1.3-0.7-1.3c0,0.3-0.1,0.6-0.3,0.8C81.6,102.2,81.5,102.4,81.5,102.7z M81.7,138.1c0.6,0.2,1.2,0.2,1.7,0.2
	c0.5,0,1-0.3,1.3-0.9c-0.6-0.2-1.2-0.3-1.8-0.3C82.3,136.9,81.9,137.3,81.7,138.1z M81.7,141.1c0.6,0,0.9-0.2,0.9-0.7
	C82,140.4,81.7,140.6,81.7,141.1z M85.7,109c-0.6-0.2-1-0.2-1-0.2c-0.1,0-0.3-0.3-0.6-0.9c-0.3-0.3-0.5-0.4-0.7-0.2
	c-0.2,0.2-0.4,0.1-0.7-0.2c0.2,0.6,0,1.1-0.5,1.4c-0.5,0.3-0.5,0.7-0.2,1.2c0.8,0.2,1.2,0,1.2-0.6c0-0.5,0.5-0.4,1.6,0.3
	c0.8,0.6,1.2,1.3,1.2,2c0,0.7,0,1.4,0,2.2c0,0.8,0.5,1,1.4,0.8c0.9-0.2,1.2-0.8,0.9-1.7c-0.3-0.5-0.5-0.9-0.7-1.4
	c-0.2-0.5-0.4-0.8-0.7-1.2c0.3-0.3,0.5-0.7,0.7-1c0.2-0.4,0.5-0.6,1.2-0.6c-0.2-0.5-0.4-0.7-0.8-0.8c-0.4-0.1-0.7-0.3-1-0.6
	c-0.3,0.3-0.3,0.7-0.1,1.3C86.9,109.2,86.6,109.3,85.7,109z M82.4,128.8c-0.2,0.2-0.2,0.3-0.2,0.3c0,0.1-0.1,0.2-0.2,0.3
	c0.2,0.2,0.5,0.2,0.9,0.2C82.9,129.4,82.7,129.1,82.4,128.8z M82.2,138.8c0,0.3,0,0.5-0.1,0.5c-0.1,0-0.1,0.2-0.1,0.5
	c0.3,0.2,0.5,0,0.5-0.3C82.4,138.9,82.3,138.8,82.2,138.8z M82.4,149.1l0.2-0.2c-0.2-0.2-0.3-0.2-0.5-0.2l-0.2,0.2
	C82.1,149.1,82.3,149.1,82.4,149.1z M82.9,127.2c0-0.6-0.2-0.8-0.7-0.7C82.2,127,82.4,127.2,82.9,127.2z M82.7,96.7
	c0.3,0,0.6-0.2,0.8-0.5c0.2-0.3,0.1-0.5-0.3-0.7c0,0.3-0.1,0.5-0.2,0.6C82.7,96.2,82.7,96.4,82.7,96.7z M82.7,97.4
	c0.3,0.3,0.5,0.2,0.5-0.2c0-0.5-0.2-0.5-0.5-0.2V97.4z M82.9,127.4c-0.2,0.6-0.1,0.8,0.2,0.5C83.4,127.6,83.3,127.4,82.9,127.4z
	 M82.9,92.3C82.7,92.8,83,93,83.8,93C84,92.1,83.7,91.9,82.9,92.3z M85.4,122.1c-0.3,0.2-0.8,0-1.6-0.3c-0.8-0.4-1-0.1-0.7,0.8
	c0.5,0.2,1,0.3,1.6,0.6C85.3,123.4,85.6,123.1,85.4,122.1z M84.3,88.7c-0.3-0.2-0.5-0.2-0.6-0.1c-0.1,0.1-0.3,0.1-0.6,0.1
	c0,0.5,0.3,0.8,0.9,1.2C84.2,89.5,84.3,89.1,84.3,88.7z M86.3,129.5c0-0.9,0.2-1.5,0.5-1.8c0.3-0.8,0.4-1.1,0.2-0.9
	c-0.2,0.2-0.2-0.1-0.2-0.7c-0.2-0.9-0.4-1.3-0.8-1.3c-0.4,0.1-0.7,0.5-1,1.3c-0.3,0-0.6-0.1-0.8-0.3c-0.2-0.2-0.5-0.2-0.8,0.1
	c0,0.5,0.4,0.8,1.2,1.2c0-0.6,0.2-0.8,0.7-0.6c0.5,0.2,0.8,0.1,0.9-0.3c0.2,0.6,0,1.1-0.3,1.4c-0.4,0.3-0.6,0.8-0.6,1.4
	c0.5-0.3,0.7-0.3,0.7,0C85.9,129.1,86,129.4,86.3,129.5z M84,141.3c0.3,0,0.5-0.2,0.7-0.6c0.2-0.4,0.1-0.7-0.2-0.8
	c-0.3-0.3-0.5-0.2-0.7,0.3C83.7,140.8,83.7,141.1,84,141.3z M83.8,72.7c0.3,0.2,0.5,0,0.5-0.3c0-0.4-0.2-0.5-0.5-0.3V72.7z
	 M84.3,130.9c-0.3,0.9-0.1,1.3,0.6,1c0.7-0.2,1-0.7,1-1.5c-0.3,0-0.6,0-0.8,0.1C84.8,130.6,84.6,130.8,84.3,130.9z M84.7,128.4
	c0,0.3-0.1,0.6-0.3,0.8c-0.2,0.2-0.1,0.5,0.3,0.8c0.2-0.2,0.3-0.4,0.3-0.8C85.2,128.8,85,128.5,84.7,128.4z M85.4,136.2
	c0.2-0.5-0.1-0.7-0.7-0.7c-0.2,0.3-0.1,0.5,0.1,0.7C85.1,136.4,85.3,136.4,85.4,136.2z M85.2,117.7c0,0.3,0.3,0.5,0.9,0.5
	C86.3,117.6,86,117.4,85.2,117.7z M85.4,102c0.3,0.2,0.5,0,0.5-0.3c0-0.4-0.2-0.5-0.5-0.3V102z M86.6,20.5c-0.5,0-0.7,0.2-0.7,0.7
	C86.3,21.2,86.6,21,86.6,20.5z M85.9,115.7c0.2,0.5,0.3,0.4,0.6-0.1c0.2-0.5,0.1-0.5-0.3,0.1H85.9z M86.6,145.7c0-0.2,0-0.3,0.1-0.5
	c0.1-0.2,0-0.2-0.3-0.2C86.3,145.3,86.4,145.5,86.6,145.7z M87,78.5c-0.8,0.5-0.8,0.8,0,1.2c0.5,0,0.7-0.2,0.6-0.6
	C87.5,78.7,87.3,78.5,87,78.5z M86.8,130.9c-0.2,0.3-0.1,0.5,0.2,0.5c0.3,0,0.4-0.2,0.2-0.5c0-0.2-0.1-0.2-0.2-0.2
	C86.9,130.7,86.8,130.8,86.8,130.9z M86.8,121.7c0.6,0.9,0.8,1.7,0.7,2.3c0.8-0.2,1-0.7,0.8-1.5C88.1,121.6,87.6,121.4,86.8,121.7z
	 M87.7,104.6c-0.6,0-0.8,0.2-0.7,0.5C87.5,105,87.7,104.9,87.7,104.6z M88.9,125.8c-0.3-0.3-0.7-0.4-1.2-0.2c0,0.3,0.2,0.5,0.5,0.6
	C88.5,126.2,88.7,126.1,88.9,125.8z M87.7,127.2c0,0.6,0.3,0.9,0.9,0.9c0-0.3,0.1-0.5,0.2-0.7C89,127.3,88.7,127.2,87.7,127.2z
	 M88.2,93.7c0.5,0,0.6-0.1,0.3-0.3C88.3,93.2,88.2,93.3,88.2,93.7z M88.2,99c0.3,0.3,0.5,0.2,0.5-0.2c0-0.5-0.2-0.5-0.5-0.2V99z
	 M88.2,119.6c0.6,0,0.9-0.3,0.9-0.9C88.5,118.7,88.2,119,88.2,119.6z M88.4,133c0.3,0.2,0.5,0.1,0.6-0.2c0.1-0.3,0-0.5-0.3-0.5
	C88.3,132.6,88.3,132.8,88.4,133z M88.4,91.4h0.7C89,91.1,88.7,91,88.4,91V91.4z M88.4,115.2c0.2,0.2,0.5,0.2,0.9,0.2
	c0-0.8-0.2-1.2-0.7-1.2C88.5,114.4,88.4,114.7,88.4,115.2z M91.2,104.6c0.2-0.8,0-1.2-0.5-1.3c-0.5-0.1-0.8-0.3-1.2-0.6
	c0.2,0.5,0,0.8-0.3,1.2c-0.4,0.3-0.4,0.8-0.1,1.4c0.5-0.2,0.8-0.4,0.9-0.7C90.2,104.3,90.6,104.3,91.2,104.6z M89.1,101.6
	c0.3,0.3,0.5,0.2,0.5-0.2c0-0.5-0.2-0.5-0.5-0.2V101.6z M89.8,113.6c0-0.3-0.2-0.4-0.7-0.2v0.2H89.8z M89.6,18.2
	c-0.5,0.8-0.3,1.2,0.5,1.2C90.3,18.6,90.2,18.2,89.6,18.2z M90.3,109c-0.3-0.3-0.6-0.2-0.9,0.2C90,109.5,90.3,109.4,90.3,109z
	 M89.8,101.6c0.3,0.3,0.5,0.2,0.5-0.2c0-0.5-0.2-0.5-0.5-0.2V101.6z M89.8,116.4c0.5,0,0.8-0.1,0.9-0.2c0-0.6-0.3-0.8-0.9-0.5V116.4
	z M90,107.6c0.5,0,0.6-0.1,0.3-0.3C90.2,107,90,107.1,90,107.6z M90.5,106.9c0.2,0.2,0.3,0.2,0.5,0c0.2-0.2,0.2-0.4,0.2-0.7
	C90.9,106.2,90.7,106.4,90.5,106.9z M91.2,11.8c-0.2-0.3-0.3-0.3-0.5,0c-0.2,0.3,0,0.4,0.5,0.2V11.8z M91.4,23.1
	c0.6,0,0.8-0.3,0.7-0.9c-0.2,0.2-0.5,0.2-0.9,0.2C91.3,22.6,91.4,22.8,91.4,23.1z M91.2,95.3c0.3,0.2,0.5,0.2,0.5,0.1
	c0-0.1,0.2,0,0.5,0.3c0.3-0.3,0.3-0.5-0.1-0.7C91.6,95,91.3,95,91.2,95.3z M92.3,101.1c0-0.3-0.2-0.4-0.7-0.2v0.2H92.3z M92.1,94.9
	c0.2-0.5,0.1-0.8-0.2-0.9C91.9,94.4,92,94.7,92.1,94.9z M92.8,111.3c0.6,0,0.8-0.3,0.5-0.9c-0.3-0.2-0.4-0.1-0.3,0.2
	C93,110.9,93,111.1,92.8,111.3z M93.3,126.1c0.6,0.2,1.1-0.2,1.4-1.2c-0.5-0.2-0.8,0-1.2,0.3C93.2,125.6,93.1,125.9,93.3,126.1z
	 M93.7,110.6c0.3-0.6,0.3-0.8-0.1-0.7C93.2,110,93.3,110.3,93.7,110.6z M93.5,112.2c1.1,0.2,1.3-0.3,0.7-1.4
	C93.4,111.1,93.2,111.6,93.5,112.2z M94.4,95.6c-0.3,0.3-0.2,0.6,0.2,0.9C94.8,96.4,94.7,96,94.4,95.6z M94.4,97.7
	c-0.3,0.3-0.2,0.6,0.2,0.9c0.2-0.2,0.2-0.3,0.2-0.6C94.9,97.8,94.7,97.7,94.4,97.7z M94.4,104.6c0,0.6,0.3,0.8,0.9,0.7
	c0-0.6-0.1-0.9-0.2-0.8C95,104.5,94.7,104.6,94.4,104.6z M94.7,7.6c0.5,0,0.6-0.2,0.3-0.5C94.8,6.9,94.7,7,94.7,7.6z M95.8,113.8
	c0.2-0.3,0.1-0.6-0.2-0.8c-0.3-0.2-0.5-0.1-0.7,0.3c0.5,0,0.5,0.1,0.1,0.2C94.6,113.7,94.9,113.8,95.8,113.8z M96.3,85.2
	c0.2-0.2,0.2-0.3,0-0.3c-0.2-0.1-0.3,0-0.5,0.3H96.3z M97.9,100.2c0.3,0.2,0.5,0,0.5-0.3c0-0.4-0.2-0.5-0.5-0.3V100.2z M101.6,121.4
	c0,0.8,0.2,1.1,0.6,0.9c0.4-0.2,0.7-0.4,1-0.7c-0.3-0.2-0.5-0.3-0.7-0.5c-0.3-0.3-0.5-0.3-0.5-0.1
	C102,121.3,101.9,121.4,101.6,121.4z M105.7,126.1c0.8,0.5,1.2,0.2,1.2-0.7c-0.3-0.3-0.6-0.4-0.9-0.2
	C105.7,125.3,105.6,125.6,105.7,126.1z M105.7,122.6c0.3-0.2,0.8,0,1.5,0.3c0.7,0.4,0.9,0.1,0.6-0.8c-0.3,0.2-0.6,0.1-0.8-0.1
	c-0.2-0.2-0.4-0.4-0.6-0.5c-0.2-0.1-0.3-0.1-0.5,0C105.8,121.6,105.7,122,105.7,122.6z M107.8,124.7c0.2-0.2,0.2-0.3,0.1-0.5
	c-0.1-0.2-0.1-0.2-0.1,0c-0.2,0.3-0.2,0.5-0.1,0.7C107.8,125.1,107.8,125,107.8,124.7z M108,109.9c-0.3,0.6-0.2,0.8,0.5,0.7
	C108.5,110.4,108.4,110.2,108,109.9z"/>
</svg>
