<?xml version="1.0" encoding="utf-8"?>
<!-- Generator: Adobe Illustrator 18.0.0, SVG Export Plug-In . SVG Version: 6.00 Build 0)  -->
<!DOCTYPE svg PUBLIC "-//W3C//DTD SVG 1.1//EN" "http://www.w3.org/Graphics/SVG/1.1/DTD/svg11.dtd">
<svg version="1.1" id="Layer_1" xmlns="http://www.w3.org/2000/svg" xmlns:xlink="http://www.w3.org/1999/xlink" x="0px" y="0px"
	 viewBox="0 0 46.8 167.2" enable-background="new 0 0 46.8 167.2" xml:space="preserve">
<path d="M45.1,58.8c1.2,1.7,1.7,3.7,1.5,6.1c-0.2,2.4-0.4,4.6-0.6,6.6c-0.3,1.4-0.3,2.6,0,3.7c0.3,1.1,0.4,2.1,0.3,3
	c-0.1,0.9-0.1,1.9-0.1,3c0,1.1-0.1,2.2-0.2,3.2c-0.2,1.1-0.2,2.2-0.2,3.2c0.2,1.4,0.3,2.8,0.6,4.2c0.2,1.4,0.3,2.8,0.1,4.2
	c-0.2,2.2-0.2,4.3-0.2,6.5c0,2.2-0.1,4.3-0.2,6.5c0,1.1,0,2.1-0.1,3c-0.1,0.9,0,1.9,0.1,3c0.3,1.4,0.4,2.7,0.3,3.8
	c-0.1,1.2-0.2,2.3-0.3,3.6c-0.3,1.5-0.3,3.2,0.1,5.1c0.4,1.8,0.2,3.5-0.6,4.8c-0.5,0.9-1.2,1.3-2.2,1.2c-1-0.2-1.9-0.2-2.7-0.2
	c-1.1,0-2.3-0.1-3.6-0.2c-1.3-0.2-2.5-0.1-3.6,0.2c-1.8,0.5-3.8,0.5-5.9,0.2c-2.1-0.3-4.1-0.4-6.1-0.2c-2,0-4,0.1-6,0.2
	c-2,0.2-4.1,0.1-6.2-0.2c-0.9-0.2-1.8-0.1-2.8,0.1c-0.9,0.2-1.9,0.3-3,0.1c-1.5-0.3-2.4-0.9-2.5-1.7c-0.2-0.8-0.2-1.9-0.2-3.1
	c0-1.4-0.1-2.7-0.3-4c-0.2-1.3-0.3-2.7-0.1-4c0.2-1.7,0.2-3.3,0.1-5c-0.1-1.6-0.2-3.3-0.3-5c0-1.4,0.2-2.8,0.5-4.2
	c0.3-1.4,0.4-2.8,0.2-4.4c-0.2-1.7-0.3-3.2-0.5-4.5c-0.2-1.3-0.1-2.8,0.2-4.5c0.2-1.1,0.2-2.3,0-3.7c-0.2-0.5-0.1-0.9,0.1-1.3
	C0.9,87.6,1,87.3,1,87c0-0.3,0-0.7-0.1-1.3c-0.1-0.5-0.1-1-0.1-1.3c-0.2-0.8-0.3-1.5-0.3-2.2c-0.1-0.7-0.1-1.5-0.1-2.4
	c0-0.6-0.1-1.2-0.2-1.7C0,77.5,0,77,0.1,76.4c0-0.8,0.1-1.4,0.2-2c0.2-0.5,0.2-1.2,0.2-2c0-0.8,0-1.5-0.1-2.2
	c-0.1-0.7-0.1-1.4-0.1-2.2c0-0.8,0.1-1.5,0.2-2.2c0.2-0.7,0.1-1.5-0.2-2.4c-0.3-0.8-0.2-1.6,0.3-2.5c0.5-0.9,1.1-1.6,1.7-2.1
	c0.5-0.3,0.9-0.7,1.3-1.3c0.4-0.5,0.7-1,1-1.3c0.6-0.6,1.2-1.2,1.8-1.6c0.6-0.5,1.2-0.9,1.8-1.4C9,52.7,9.5,51.9,9.9,51
	c0.4-0.9,0.2-1.8-0.6-2.5c-0.5-0.3-0.9-0.6-1.4-0.8c-0.5-0.2-0.8-0.6-1.2-1c-0.5-0.5-1-0.9-1.5-1.4c-0.5-0.5-1.1-0.9-1.7-1.4
	c-0.2-0.2-0.4-0.5-0.8-0.9c-0.4-0.5-0.8-1-1.3-1.5c-0.5-0.5-0.8-1.1-0.9-1.6c-0.2-0.5-0.1-1,0.2-1.3c0.3-0.3,0.7-0.3,1-0.1
	c0.4,0.2,0.7,0.2,1-0.1c0.6-0.3,0.5-0.7-0.3-1c-0.8-0.4-1.6-0.4-2.2-0.1c0.5-0.3,0.6-0.7,0.3-1c-0.2-0.4-0.4-0.7-0.6-1
	c0-0.6,0.1-1.2,0.2-1.7c0.2-0.5,0.2-1.2,0.2-2c0-0.5,0-0.9-0.1-1.4c-0.1-0.5-0.1-1-0.1-1.6c0-0.6,0.2-1.2,0.5-1.8
	c-0.3-0.6-0.4-1.2-0.2-1.6c0.2-0.9,0.2-1.8,0-2.7c-0.2-0.8-0.2-1.7,0-2.7c0.2-0.8,0.2-1.5,0-2.1c-0.2-0.6-0.2-1.3-0.2-2.1
	c-0.2-0.8-0.1-1.4,0.1-1.8c0.2-0.5,0.3-1.1,0.1-1.8c-0.3-1.1-0.3-2.1-0.1-3s0.3-1.9,0.1-3c0-0.8,0-1.5-0.1-2.3
	c-0.1-0.8,0-1.5,0.3-2.3c0.5-0.9,1.1-1.2,1.8-0.9C3.4,0.5,4,0.9,4.5,1.3c0.8,0.8,1.6,1.4,2.4,2c0.8,0.5,1.7,1.3,2.4,2.2
	c0.6,0.8,1.2,1.4,1.8,1.8c0.6,0.5,1.3,1,2.1,1.6c0.9,0.8,1.7,1.6,2.2,2.4c0.5,0.8,1.3,1.7,2.4,2.4c0.9,0.5,1.7,1,2.3,1.7
	c0.6,0.7,1.2,1.3,1.7,1.7c0.5,0.5,1.2,0.7,1.8,0.6c0.7-0.1,1.6-0.6,2.7-1.5c0.8-0.6,1.4-1.2,1.8-1.8c0.5-0.6,1-1.2,1.6-1.8
	c0.9-0.9,1.9-1.8,2.9-2.7c1-0.8,2-1.7,2.9-2.7c0.9-0.8,1.8-1.6,2.7-2.4c0.8-0.8,1.7-1.7,2.4-2.4c0.8-0.8,1.5-1.4,2.1-2
	c0.6-0.5,1.5-0.7,2.8-0.3c0.9,1.2,1.2,2.8,0.8,4.7c-0.4,1.9-0.6,3.6-0.6,5c0.2,0.8,0.3,1.4,0.5,2c0.2,0.5,0.2,1.2,0,2
	c0,0.9-0.2,1.5-0.7,1.6c-0.2,0.5,0,0.7,0.3,0.6c0.4-0.1,0.5,0.1,0.3,0.6c0.3,2.2,0.3,4.3,0.1,6.6c-0.2,2.2-0.3,4.4-0.3,6.6
	c0,1.7,0.2,3.5,0.6,5.4c0.4,1.9,0.2,3.7-0.6,5.4c-0.8,1.5-1.7,2.6-2.8,3.2c-0.5,0.2-0.8,0.2-1,0.1c-0.2-0.1-0.4,0.1-0.6,0.6
	c0,0.5-0.1,0.8-0.2,0.9c-0.2,0.2-0.4,0.4-0.7,0.7c-1.4,1.1-2.4,2.2-3,3.5c-0.6,1.2-0.2,2.5,1.2,3.9c0.9,0.9,2,1.8,3.2,2.5
	C43.4,56.8,44.4,57.7,45.1,58.8z M45.4,138.7c0.8,0.9,1.1,2.1,0.9,3.5c-0.2,1.4-0.2,2.6,0,3.7c0.3,1.7,0.1,3.2-0.6,4.4
	c-0.7,1.2-1.3,2.5-1.7,3.9c-0.2,0.5-0.3,0.8-0.5,1.2c-0.2,0.3-0.4,0.7-0.7,1.2c-0.2,0.2-0.5,0.5-1,1c-0.5,0.5-0.8,0.7-0.8,0.6
	c0.2,1.1-0.3,2-1.4,2.8c-1.1,0.8-2,1.5-2.8,2.1c-2.6,1.7-5.2,2.8-7.8,3.5c-3.1,0.9-6.2,1.1-9.2,0.5c-1.5-0.3-2.7-0.6-3.5-0.9
	c-0.8-0.3-1.4-0.6-1.8-0.9c-0.5-0.3-1-0.6-1.6-0.9c-1.2-0.6-2.5-1.2-3.7-1.8c-1.2-0.6-2.2-1.5-3-2.8c-0.2-0.5-0.5-1-1-1.6
	c-0.5-0.6-1.1-1.3-1.6-2c-0.5-0.7-1-1.3-1.3-2c-0.3-0.6-0.4-1.2-0.2-1.6c0.3-0.9,0.2-2-0.3-3.1c-0.5-1.2-0.9-2.3-1-3.3
	c-0.3-1.2-0.4-2.5-0.2-3.8c0.2-1.3,0.6-2.4,1.4-3.3c2.8-0.8,5.7-1,8.8-0.7c3.1,0.3,6.1,0.4,9,0.2c1.7,0,3.4-0.2,5.1-0.5
	c1.7-0.3,3.3-0.2,4.8,0.2c1.4,0.5,2.7,0.5,3.9,0c0.8-0.3,1.6-0.3,2.4-0.1c0.8,0.2,1.7,0.3,2.4,0.1c1.1-0.2,2.3-0.3,3.7-0.6
	C43.3,137.2,44.4,137.6,45.4,138.7z M1,10.8c0.5,0,0.6-0.1,0.3-0.3C1.2,10.2,1,10.3,1,10.8z M2,12.6c-0.3,0.3-0.3,0.5,0.1,0.6
	c0.4,0.1,0.5,0,0.3-0.3c-0.2,0-0.2,0-0.2-0.1C2.2,12.7,2.1,12.6,2,12.6z M2.7,68.7c0.2-0.6,0-0.9-0.5-0.9v0.9H2.7z M2.4,6.4
	c0.6,0,0.8-0.2,0.5-0.5C2.6,5.6,2.4,5.8,2.4,6.4z M4,39.4c0.2-0.2,0-0.5-0.5-0.9c-0.3,0.2-0.4,0.3-0.2,0.6C3.5,39.3,3.7,39.4,4,39.4
	z M4.7,31.6c-0.6-0.6-0.9-0.4-0.9,0.7c0.2,0.2,0.3,0.2,0.6,0C4.6,32.1,4.7,31.9,4.7,31.6z M4.3,28.1c-0.3,0.5-0.2,0.7,0.5,0.7
	C5,28,4.9,27.8,4.3,28.1z M5.4,36.6C5.7,36,5.7,35.8,5.2,36c-0.5,0.2-0.8,0.2-0.9,0.2c-0.2,0.6-0.1,0.9,0.2,0.9
	C4.8,37.1,5.1,37,5.4,36.6z M4.7,27.2h0.7c0-0.5-0.2-0.6-0.7-0.5V27.2z M5.4,86.7c-0.2,0.3,0,0.4,0.3,0.2c0.4-0.2,0.5-0.3,0.3-0.5
	H5.7C5.5,86.5,5.4,86.6,5.4,86.7z M6.6,23c-0.2-0.3-0.3-0.3-0.5,0c-0.2,0.3,0,0.4,0.5,0.2V23z M7.5,109.6c0.6-0.8,0.9-1.3,0.9-1.5
	c0-0.2-0.1-0.3-0.3-0.1c-0.2,0.2-0.5,0.4-0.7,0.7C7.2,109,7.2,109.3,7.5,109.6z M8.4,104.5c-0.3,0.5-0.2,0.8,0.2,1
	c0.5,0.2,0.8,0.5,0.9,0.8l-0.7,0.7c0.3,0,0.5,0,0.7,0.1c0.2,0.1,0.4,0,0.7-0.1c-0.2-0.5-0.3-0.9-0.6-1.4
	C9.5,105.2,9,104.8,8.4,104.5z M8.9,109.8c0.2-0.2,0.2-0.5,0.2-0.9c-0.3,0-0.5,0.1-0.6,0.3C8.5,109.5,8.6,109.7,8.9,109.8z
	 M8.7,59.7c-0.2,0.6-0.1,0.8,0.2,0.5C9.2,59.9,9.1,59.7,8.7,59.7z M11,64.8c0-0.3-0.2-0.5-0.6-0.6c-0.4-0.1-0.7-0.2-1-0.3
	c0,0.3-0.1,0.6-0.3,0.9c-0.2,0.3-0.1,0.5,0.3,0.7c0.2-0.2,0.3-0.3,0.3-0.5c0.1-0.2,0.2-0.3,0.3-0.5c0.3,0,0.5,0.1,0.5,0.2
	C10.5,65,10.7,65,11,64.8z M9.6,37.3c0.3-0.5,0.3-0.7,0-0.8c-0.3-0.1-0.5,0.1-0.7,0.6C9.2,37.1,9.4,37.2,9.6,37.3z M9.4,111.2
	c0.3,0,0.7-0.2,1-0.7c0.4-0.5,0.3-0.8-0.3-0.9c-0.2,0.3-0.4,0.6-0.7,0.8C9,110.6,9,110.9,9.4,111.2z M9.8,16.8
	c0,0.3,0.2,0.9,0.5,1.8c0.6,0.2,0.8-0.1,0.6-0.8C10.6,17.1,10.3,16.8,9.8,16.8z M11.2,80.7c0.3-0.5,0.2-0.8-0.3-1
	c-0.5-0.2-0.8,0-0.8,0.8c0.3-0.2,0.5-0.2,0.6,0C10.7,80.7,10.9,80.7,11.2,80.7z M11.2,28.8c0.3-0.8,0.1-1.2-0.7-1.2
	C10.5,28.4,10.7,28.8,11.2,28.8z M11.7,82.1c0.3-0.3,0.3-0.6,0.1-0.9c-0.2-0.3-0.6-0.3-1,0C11,81.8,11.3,82.1,11.7,82.1z M12.6,85.4
	c0.2-0.8,0-1.1-0.3-1c-0.4,0.1-0.8,0.2-1.3,0.3c-0.2,0.6,0,1,0.5,1C11.9,85.8,12.3,85.7,12.6,85.4z M11.2,105.9
	c0.8,0,1.2-0.2,1.2-0.7c-0.3-0.3-0.6-0.4-0.9-0.2C11.1,105.1,11,105.4,11.2,105.9z M11.7,95.1c-0.3,0-0.4,0.1-0.2,0.3
	c0.2,0.2,0.3,0.3,0.5,0.3c0.3-0.3,0.3-0.7,0-1c-0.3-0.4-0.5-0.4-0.7-0.1L11.7,95.1z M12.6,12.6c-1.2,0.2-1.6,0.6-1,1.3
	c0.5,0.7,1.1,1.1,1.7,1.3c0.3-0.3,0.4-0.5,0.2-0.6c-0.2-0.1-0.4-0.3-0.7-0.6c-0.3-0.3-0.3-0.5-0.1-0.7
	C12.9,13.2,12.9,12.9,12.6,12.6z M12.4,101.7c-0.9,0-1.2,0.3-0.8,0.9c0.4,0.6,0.7,0.6,1,0C12.1,102.7,12,102.4,12.4,101.7z
	 M11.7,73.4c0.5,0,0.6-0.1,0.3-0.3C11.8,72.8,11.7,72.9,11.7,73.4z M13.7,41c-0.6-0.3-1-0.3-1,0.1c-0.1,0.4,0,0.7,0.3,1
	c0.5,0.2,0.8,0.1,1-0.2C14.3,41.6,14.2,41.3,13.7,41z M14.4,101.1c0.2-0.3,0-0.6-0.6-0.8c-0.5-0.2-0.9-0.1-1,0.3
	C13.4,100.9,14,101.1,14.4,101.1z M14,36.6c0-0.6-0.3-0.9-0.9-0.9v0.9H14z M13,68.7c0.2,0.2,0.2,0.4,0.2,0.7c0.5,0,0.7-0.2,0.7-0.7
	H13z M13,79.4c0.3,0.3,0.6,0.4,0.8,0.2c0.2-0.2,0.3-0.4,0.3-0.7C13.7,78.7,13.4,78.9,13,79.4z M14.2,109.1c0-0.6-0.4-0.9-1.2-0.9
	C13,108.5,13.4,108.8,14.2,109.1z M14,71.5c0.6-0.3,0.7-0.5,0.3-0.6c-0.4-0.1-0.7-0.1-1-0.1C13.3,71.3,13.5,71.5,14,71.5z
	 M14.4,39.4c0-0.5-0.2-0.7-0.5-0.7C14,38.9,14.1,39.1,14.4,39.4z M14.9,27.9c0.8,0,1.1-0.1,1-0.3c-0.1-0.2-0.3-0.4-0.7-0.5
	c-0.4-0.1-0.7-0.1-0.8,0C14.3,27.1,14.4,27.4,14.9,27.9z M14.7,104.1c0.3-0.6,0.2-0.9-0.2-0.9C14.4,103.8,14.5,104.1,14.7,104.1z
	 M14.7,144.5c0.3,0.2,0.5,0.1,0.7-0.1c0.2-0.2,0.1-0.5-0.2-0.8c0,0.3-0.1,0.5-0.3,0.5C14.5,144,14.5,144.2,14.7,144.5z M15.4,75
	c-0.6,0-0.8,0.1-0.7,0.2C15.1,75.5,15.4,75.4,15.4,75z M14.7,86.1c0,0.3,0.1,0.5,0.3,0.6c0.2,0.1,0.3-0.2,0.3-0.8
	C15.2,86,15,86.1,14.7,86.1z M14.7,91.6c0,0.5,0.1,0.8,0.2,1.2l0.2-0.9c0,0.2,0.1,0.2,0.2,0.2c0-0.3,0-0.4-0.1-0.3
	C15.2,91.8,15,91.7,14.7,91.6z M18.1,102.2c0-0.8-0.1-1.2-0.3-1.4c-0.2-0.2,0-0.6,0.6-1.4c-1.1-0.2-1.5,0.2-1.2,1
	c0.3,0.8,0.1,1.3-0.7,1.5c-0.3-0.5-0.9-0.6-1.8-0.5c0,0.3,0.2,0.6,0.6,0.9c0.4,0.3,0.7,0.6,1,0.9c0.5,0.5,0.8,0.5,0.9,0
	C17.4,102.9,17.7,102.5,18.1,102.2z M14.9,75.4c0.2,0.3,0.2,0.6,0.1,0.9c-0.1,0.3,0,0.4,0.3,0.2C15.4,75.8,15.2,75.4,14.9,75.4z
	 M14.9,83.3c0.6,0.3,1.1,0.3,1.5-0.1c0.4-0.4,0.6-0.8,0.6-1.3c-0.3,0.2-0.6,0.3-0.8,0.5c-0.2,0.2-0.6,0.2-1,0.2
	C15.1,82.9,15,83.1,14.9,83.3z M14.9,105c0.6,0,0.8-0.1,0.5-0.3C15,104.4,14.9,104.5,14.9,105z M15.1,74.7c0.5,0,0.6-0.2,0.3-0.5
	C15.2,74,15.1,74.1,15.1,74.7z M15.4,39c0,1.1,0.2,1.6,0.6,1.6c0.4,0,1,0.2,1.7,0.5C17.7,39.2,16.9,38.5,15.4,39z M15.6,97.8
	c0.3,0,0.4,0.1,0.2,0.3c-0.2,0.2-0.2,0.5,0,0.8c0.8,0,1.3-0.2,1.7-0.5c0.4-0.3,0.9-0.6,1.5-0.9c-0.2,0-0.2-0.1-0.1-0.3
	c0.1-0.2,0-0.4-0.1-0.6c-0.2-0.2-0.3,0-0.6,0.5c-0.2,0.5-0.5,0.7-0.8,0.7c-0.2-0.2-0.5-0.3-1-0.6C15.9,97,15.6,97.2,15.6,97.8z
	 M16.7,75.2c0.5-0.2,0.7-0.4,0.6-0.8c-0.1-0.4-0.2-0.7-0.3-1c-0.2-0.3-0.2-0.7-0.2-1.3c0-0.5-0.1-0.9-0.2-1c-0.8,0.8-1,1.5-0.7,2.1
	c0.8-0.2,1.1,0.1,0.9,0.7C16.6,74.4,16.6,74.9,16.7,75.2z M16,87.4c0.9,0,1.3-0.3,1.2-0.8c-0.2-0.5-0.6-0.5-1.4,0.1
	C16.1,87.1,16.2,87.3,16,87.4z M16.7,32.3c-0.2,0-0.4,0.2-0.7,0.5c0.3,0.2,0.5,0.2,0.6,0.2C16.7,33,16.7,32.7,16.7,32.3z M16,90.7
	c0,0.3,0,0.5,0.1,0.6c0.1,0.1,0,0.3-0.1,0.6c0.8,0,1.2-0.3,1.4-1C17.6,90.1,17.1,90.1,16,90.7z M16.7,78.9c0.5,0,0.7-0.2,0.7-0.6
	c0-0.4-0.2-0.6-0.7-0.6C16.4,78.2,16.4,78.6,16.7,78.9z M17,84.4c0-0.5-0.2-0.7-0.5-0.7v0.7H17z M18.4,36c0-0.3-0.2-0.5-0.7-0.7
	c-0.5-0.2-0.8-0.1-0.9,0.2c0.6,0.3,0.9,0.5,0.8,0.7C17.5,36.3,17.7,36.3,18.4,36z M18.8,93.2c0.5-0.3,0.6-0.5,0.5-0.6
	c-0.2-0.1-0.4-0.1-0.8-0.1c-0.4,0-1,0.2-1.7,0.5c0.2,0.3,0.2,0.8,0.1,1.5c-0.1,0.7,0.2,0.9,0.8,0.6c0.5-0.3,0.7-0.6,0.6-0.9
	C18.2,93.8,18.4,93.5,18.8,93.2z M17.2,62C17,62.2,17,62.4,17,62.6c0,0.2,0.2,0.3,0.5,0.3C17.9,62.7,17.8,62.4,17.2,62z M18.1,67.6
	c0-0.2,0.2-0.4,0.5-0.7c-0.3,0.2-0.5,0.2-0.6,0c-0.1-0.2-0.3-0.2-0.6-0.2c-0.3,0.3-0.3,0.5-0.1,0.7C17.5,67.5,17.8,67.6,18.1,67.6z
	 M17.2,84.2c0.5,0,0.9,0.2,1.3,0.6c0.4,0.4,0.7,0.2,0.8-0.6c-0.3,0-0.7-0.1-1-0.2C17.9,83.8,17.5,83.9,17.2,84.2z M17.7,106.8
	c0.5,0,0.6-0.1,0.3-0.3C17.8,106.3,17.7,106.4,17.7,106.8z M18.1,70.6c0.5,0,0.8-0.3,0.9-0.8c0.2-0.5,0.1-1-0.2-1.3
	c0,0.2,0,0.2-0.1,0.2c-0.1,0-0.1-0.1-0.1-0.2c0,0.3-0.2,0.7-0.5,1C17.8,69.9,17.8,70.3,18.1,70.6z M19,75.9c-0.3-0.3-0.6-0.3-0.8,0
	C18,76.2,18,76.6,18.1,77c0.3,0,0.5-0.1,0.6-0.3C18.8,76.5,18.9,76.2,19,75.9z M18.8,120.7c0.2-1.1,0-1.4-0.3-0.9
	C18.1,120.2,18.2,120.5,18.8,120.7z M20,46.6c0-0.3-0.2-0.6-0.6-0.8c-0.4-0.2-0.7-0.2-1,0.1C18.4,46.3,18.9,46.6,20,46.6z
	 M18.8,74.5c0.3-0.8,0.3-1,0-0.8C18.5,73.9,18.5,74.2,18.8,74.5z M18.6,96.2c0.2,0.2,0.3,0.2,0.3,0c0.1-0.2,0-0.3-0.3-0.5V96.2z
	 M19,154.8c0-0.3-0.2-0.5-0.5-0.5v0.5H19z M21.6,105.7c0.2-0.9-0.2-1.2-1.2-0.9c-0.9,0.3-1.5,0.7-1.6,1.2c0.3-0.3,0.5-0.4,0.5-0.2
	c0,0.2,0.2,0.3,0.5,0.5c0.3,0.3,0.6,0.2,0.9-0.2C21,105.4,21.3,105.4,21.6,105.7z M19.7,57.4c-0.3-0.2-0.5-0.1-0.6,0.2
	c-0.1,0.3,0,0.5,0.3,0.7c0-0.3,0-0.5,0.1-0.5C19.7,57.9,19.7,57.7,19.7,57.4z M20.9,89.1c0-0.8-0.5-1.2-1.4-1.2
	c0,0.3,0.2,0.5,0.5,0.6C20.3,88.6,20.6,88.7,20.9,89.1z M20,110.5c-0.2-0.3,0-0.5,0.3-0.5c0.4,0,0.5-0.2,0.3-0.5
	c-0.6,0-1,0.1-1.2,0.2C19.5,110.3,19.7,110.5,20,110.5z M20.9,61.6C20.3,61,20,61.2,20,62.3C20.6,62.3,20.9,62,20.9,61.6z
	 M21.4,103.4c0-0.5-0.2-0.8-0.5-1.2c-0.3-0.3-0.6-0.2-0.9,0.5c0.3,0,0.5,0.2,0.7,0.5C20.8,103.4,21,103.5,21.4,103.4z M23,64.1
	c-0.3-0.3-0.8-0.4-1.4-0.2c-0.6,0.2-1.1,0.3-1.4,0.5V65C21.4,65,22.4,64.7,23,64.1z M20.2,89.5c0.2,0.3,0.3,0.5,0.5,0.5
	c0.2,0,0.2-0.2,0.2-0.5c-0.2-0.3-0.3-0.5-0.5-0.5C20.3,89.1,20.2,89.2,20.2,89.5z M20.2,120.7c0.5,0,0.6-0.2,0.3-0.5
	C20.3,119.9,20.2,120.1,20.2,120.7z M20.4,27.9h0.5c0-0.3-0.2-0.5-0.5-0.5V27.9z M20.9,116.1c0-0.6-0.2-0.8-0.5-0.5v0.5H20.9z
	 M20.9,76.4c-0.3,0.3-0.3,0.6-0.1,0.9c0.2,0.3,0.3,0.6,0.3,0.9c0.8,0,1.1-0.3,0.9-1C21.9,76.5,21.5,76.2,20.9,76.4z M20.7,90
	c0,0.8,0.2,1.3,0.7,1.7c0.5,0.4,0.8,0.8,1.2,1.3c0.2-0.2,0.2-0.4,0.1-0.8c-0.1-0.4,0-0.6,0.1-0.6c0.3,0.2,0.5,0.1,0.7-0.1
	c0.2-0.2,0.4-0.4,0.7-0.6c-0.3-0.9-0.8-1.2-1.5-0.9C21.9,90.3,21.3,90.3,20.7,90z M21.1,164.8c0.6,0,0.9-0.1,0.9-0.2
	c0-0.2,0-0.4,0-0.7c-0.3-0.2-0.7-0.1-1,0.1C20.6,164.2,20.7,164.5,21.1,164.8z M21.4,94.1c-0.2-0.3-0.3-0.3-0.5,0.1
	c-0.2,0.4,0,0.5,0.5,0.3V94.1z M21.4,93.7c0-0.5-0.2-0.5-0.5-0.2v0.2H21.4z M21.6,112.1c0-0.6-0.1-1-0.2-1.2
	c-0.2-0.2-0.3-0.1-0.3,0.1c-0.1,0.2-0.1,0.5,0,0.7C21.1,112,21.3,112.1,21.6,112.1z M21.4,80.3c0.5,0,0.6-0.1,0.3-0.3
	C21.5,79.7,21.4,79.8,21.4,80.3z M22,86.3c-0.3-0.3-0.5-0.3-0.6,0.1c-0.1,0.4,0.1,0.5,0.6,0.3V86.3z M22.3,99.4
	c0.3-0.2,0.7-0.4,1.3-0.8c0.5-0.4,0.7-0.8,0.3-1.3c-0.2,0.3-0.4,0.5-0.7,0.7c-0.3,0.2-0.6,0.1-0.9-0.2
	C22.1,98.3,22.1,98.8,22.3,99.4z M22.3,60.7c-0.2,0.8-0.1,1,0.2,0.7C22.8,61,22.7,60.8,22.3,60.7z M23,102c-0.6,0.9-0.7,1.5-0.2,1.6
	c0.5,0.2,1,0.5,1.6,0.9c-0.2-0.5,0-1.1,0.6-1.8c0.5-0.8,0.5-1.4-0.1-1.8C24.4,101.7,23.7,102.1,23,102z M23,77.7
	c0.2,0.3,0.2,0.5,0,0.5c-0.2,0-0.2,0.2,0,0.5c0.3,0,0.5-0.2,0.5-0.5C23.4,77.9,23.3,77.7,23,77.7z M23.4,88.4
	c0.2,0.3,0.1,0.5-0.2,0.5c-0.3,0-0.4,0.2-0.2,0.5c0.3,0,0.8-0.2,1.4-0.5c-0.3,0-0.5-0.1-0.5-0.3C23.9,88.2,23.7,88.2,23.4,88.4z
	 M23.7,35.5c-0.2-0.3-0.2-0.6-0.2-0.8c0-0.2-0.2-0.4-0.5-0.6C23,34.9,23.2,35.3,23.7,35.5z M23,83c0,0.8,0.2,1,0.6,0.6
	c0.4-0.4,0.7-0.6,1-0.6c0-0.3-0.1-0.7-0.2-1.2c-0.2-0.5-0.4-0.7-0.7-0.7c0,0.3-0.2,0.5-0.5,0.5c0.3,0.3,0.5,0.5,0.5,0.7
	c0,0.2,0.2,0.3,0.5,0.5c-0.3-0.2-0.5-0.2-0.6,0C23.5,83,23.3,83,23,83z M27.8,106.6c0.6-0.3,0.4-0.5-0.6-0.6c-1-0.1-1.6,0-1.7,0.1
	c0.3,0.5,0.2,0.8-0.5,1.2h-1.2c-0.3,0-0.5,0-0.7,0.1c-0.2,0.1-0.1,0.2,0.2,0.3c0.6,0.2,0.8,0.3,0.7,0.6c-0.2,0.2-0.3,0.5-0.5,0.8
	c0,0.5,0.4,0.6,1.3,0.5c0.8-0.2,1.3-0.2,1.5-0.2l0.5,0.5c0-0.3,0-0.6,0.1-0.8c0.1-0.2,0-0.5-0.3-0.8c0,0.3-0.2,0.5-0.6,0.7
	c-0.4,0.2-0.7,0.1-1-0.2c0-0.6,0.2-1,0.7-1.3c0.5-0.2,0.8-0.7,1.2-1.3C26.9,106.8,27.2,106.9,27.8,106.6z M24.1,74
	c-0.3-0.2-0.5-0.1-0.7,0.1c-0.2,0.2-0.1,0.4,0.2,0.6c0-0.3,0.1-0.5,0.2-0.5C24,74.3,24.1,74.2,24.1,74z M24.1,63.9
	c0-0.3-0.2-0.5-0.7-0.5v0.5H24.1z M23.4,112.1c1.1,0,1.6-0.5,1.6-1.6c0-0.3-0.3-0.2-0.8,0.3C23.7,111.4,23.4,111.8,23.4,112.1z
	 M24.6,83.7c-0.3,0.3-0.3,0.6-0.1,0.8c0.2,0.2,0.3,0.5,0.3,0.8c-0.3,0.2-0.6,0.2-0.9,0.2c-0.3,0-0.4,0.2-0.2,0.7
	c0.5,0.2,0.8,0.1,0.9-0.1c0.2-0.2,0.4-0.4,0.7-0.6c-0.3-0.2-0.4-0.5-0.3-0.9C25,84.2,24.9,83.9,24.6,83.7z M24.6,92.7
	c-0.6,0-0.9,0.4-0.9,1.2C24.3,93.9,24.6,93.5,24.6,92.7z M24.8,100.4c0.2-0.5,0.1-0.9-0.2-1.3c-0.3-0.4-0.5-0.4-0.7-0.1
	c0.3,0.2,0.4,0.5,0.2,0.9C24,100.4,24.2,100.5,24.8,100.4z M24.1,64.6c-0.2,0.8-0.1,1,0.2,0.7C24.7,65,24.6,64.7,24.1,64.6z
	 M24.4,144.5c0.3,0.3,0.6,0.3,0.8,0.1c0.2-0.2,0.3-0.5,0.3-0.8c-0.3-0.3-0.6-0.3-0.8-0.1C24.5,143.9,24.4,144.2,24.4,144.5z
	 M25.5,69.2c-0.5-0.2-0.8,0-0.9,0.5c-0.2,0.5-0.1,0.8,0.2,1.2C25.3,70.7,25.5,70.1,25.5,69.2z M25.5,72.7c-0.6-0.2-0.9,0.1-0.9,0.7
	c0.3,0.2,0.5,0.1,0.6-0.1C25.2,73,25.4,72.8,25.5,72.7z M24.6,90.2c0.6,0,0.8-0.1,0.7-0.3C25.1,89.6,24.9,89.7,24.6,90.2z M26,91.6
	c0.2-0.8,0.3-1.2,0.6-1.4c0.2-0.2,0.6-0.5,1-0.9c-0.3,0.2-0.5,0.1-0.5-0.2c0-0.3-0.2-0.4-0.5-0.2c-0.3,0.5-0.6,0.9-0.8,1.4
	c-0.2,0.5-0.6,0.8-1,1.2c0,0.3,0.2,0.7,0.6,1C25.8,92.8,26,92.5,26,91.6z M25,67.6c0.3-0.2,0.5-0.2,0.6,0c0.1,0.2,0.3,0.2,0.6,0.2
	c0-0.8-0.4-1.2-1.2-1.2V67.6z M25,96.7c0,0.8,0.5,1,1.4,0.7C26.4,96.3,26,96.1,25,96.7z M26.4,104.8c-0.3-0.8-0.4-1.4-0.2-1.8
	c-0.6,0-0.9,0.5-0.9,1.4c0.3,0.2,0.5,0.3,0.6,0.5C25.9,104.9,26.1,104.9,26.4,104.8z M25.5,79.8c0.3,0.2,0.6,0,0.8-0.5
	c0.2-0.5,0.1-0.7-0.3-0.7C25.7,79,25.5,79.4,25.5,79.8z M25.7,149.3c0.5,0,0.7-0.2,0.7-0.7C25.7,148.5,25.4,148.7,25.7,149.3z
	 M26.7,121.8c0.2-0.3,0.1-0.5-0.2-0.7c-0.3-0.2-0.5-0.1-0.5,0.2c0.2,0,0.2,0.1,0.2,0.2C26.2,121.8,26.4,121.8,26.7,121.8z
	 M27.1,39.6c-0.3-0.3-0.6-0.3-0.9,0c0.3,0.2,0.5,0.4,0.5,0.8C26.7,40.8,26.8,40.6,27.1,39.6z M29.2,67.6c-0.5,0.2-1,0.1-1.5-0.1
	c-0.5-0.2-1-0.1-1.3,0.3c0.3,0.2,0.7,0.3,1,0.6c0.4,0.2,0.8,0.3,1.3,0.3C28.7,68.6,28.9,68.2,29.2,67.6z M27.6,65.7
	c-0.5,0-0.8,0.2-0.9,0.7c0.2,0,0.4,0.1,0.7,0.2C27.7,66.8,27.7,66.5,27.6,65.7z M26.7,84.7c0.5,0,0.6-0.1,0.3-0.3
	C26.8,84.1,26.7,84.2,26.7,84.7z M27.6,99.2c0-0.8-0.1-1.2-0.2-1.3c-0.2-0.1-0.3,0-0.3,0.2c-0.1,0.2-0.1,0.5-0.1,0.8
	C26.9,99.3,27.1,99.4,27.6,99.2z M27.1,94.4c0.3,0,0.5,0.1,0.7,0.2c0.2,0.2,0.3,0.1,0.5-0.2l-0.7-0.7c0.5,0.2,0.7,0.1,0.6-0.2
	c-0.1-0.3,0-0.5,0.3-0.7C27.9,92.9,27.4,93.4,27.1,94.4z M27.1,108.4l0.5,0.9C27.6,108.6,27.4,108.3,27.1,108.4z M27.1,150.2
	c0.3,0.3,0.5,0.2,0.5-0.2c0-0.5-0.2-0.5-0.5-0.2V150.2z M27.1,151.6c0.5,0,0.6-0.2,0.3-0.5C27.2,150.8,27.1,151,27.1,151.6z
	 M27.4,72.9c0.5,0.2,0.8,0.1,1.2-0.2c0.3-0.3,0.5-0.5,0.7-0.7L29,71.7l0.2-0.2c-0.3,0-0.7,0.2-1.3,0.5
	C27.4,72.3,27.2,72.6,27.4,72.9z M27.8,38.5c0,0.2-0.1,0.3-0.3,0.5c-0.2,0.2-0.2,0.4,0.1,0.7c0-0.3,0.1-0.5,0.3-0.7
	C28.2,38.8,28.1,38.6,27.8,38.5z M27.4,65.3c0.6,0,0.8-0.1,0.5-0.3C27.5,64.7,27.4,64.8,27.4,65.3z M28.1,153.9
	c0.3-0.6,0.1-0.8-0.7-0.5C27.4,154.1,27.6,154.2,28.1,153.9z M28.1,50.3c0.5-0.5,0.4-0.7-0.2-0.7C27.4,50,27.4,50.3,28.1,50.3z
	 M28.3,107.5c0.3,0.2,0.8,0.1,1.4-0.2c0-0.3-0.1-0.5-0.3-0.6c-0.2-0.1-0.5-0.3-0.8-0.6c0,0.3-0.1,0.5-0.2,0.7
	C28.1,107,28.1,107.2,28.3,107.5z M28.5,118.1c0.5,0,0.7-0.2,0.7-0.7c-0.3-0.2-0.5-0.1-0.5,0.1C28.7,117.8,28.7,118,28.5,118.1z
	 M28.7,64.3c0,0.8,0.2,1.1,0.5,0.9c0.3-0.2,0.4-0.3,0.2-0.6C29.3,64.5,29,64.3,28.7,64.3z M29.4,76.4c0-0.6-0.1-0.9-0.2-0.9
	c-0.2,0-0.3,0.1-0.3,0.2c-0.1,0.2-0.1,0.3,0,0.6C28.9,76.5,29.1,76.5,29.4,76.4z M29.2,91.6c-0.3,0.8-0.4,1.2-0.3,1.2
	c0.1,0,0.5,0.3,1.3,0.9c-0.2-0.5-0.3-0.8-0.5-1.2C29.5,92.2,29.4,91.9,29.2,91.6z M30.6,95.7c0-0.6-0.1-1-0.3-1
	c-0.2-0.1-0.5,0-0.7,0.1c-0.2,0.2-0.4,0.4-0.5,0.7c-0.1,0.3,0.1,0.5,0.6,0.7c0.2-0.2,0.3-0.3,0.3-0.5C30.1,95.6,30.3,95.6,30.6,95.7
	z M29.2,81.9c-0.2,0.3,0.4,0.6,1.6,0.9c1.2,0.3,1.9,0.3,2.1,0C31.5,82,30.3,81.7,29.2,81.9z M31.3,45.2c-0.2,0.5-0.5,0.7-0.9,0.6
	c-0.5-0.1-0.8,0-1.2,0.1c0,1.1,0.3,1.3,1,0.7C30.9,46,31.3,45.5,31.3,45.2z M29.2,75c0.3,0.2,0.5,0,0.5-0.3c0-0.4-0.2-0.5-0.5-0.3
	V75z M29.2,85.6c0.5,0,0.6-0.1,0.3-0.3C29.3,85,29.2,85.1,29.2,85.6z M29.7,90c0.3-0.3,0.2-0.5-0.5-0.5V90H29.7z M29.7,99.9
	c0.5,0,0.7-0.2,0.8-0.6c0.1-0.4,0-0.7-0.3-1C29.4,98.7,29.2,99.3,29.7,99.9z M29.7,88.1c0-0.5-0.1-0.6-0.2-0.5c0,0.3,0,0.5,0.1,0.7
	C29.6,88.5,29.7,88.4,29.7,88.1z M29.9,103.1c0.3-0.2,0.5-0.5,0.5-0.9c0-0.5-0.2-0.8-0.5-1.2c-0.2,0.3-0.3,0.7-0.3,1.2
	C29.5,102.7,29.6,103,29.9,103.1z M30.4,67.3c-0.8-0.2-1,0.1-0.7,0.7c0.3,0,0.5-0.1,0.5-0.2C30.1,67.7,30.2,67.5,30.4,67.3z
	 M30.6,120.7c0.2,0.2,0.4,0.1,0.7-0.2C30.8,120.4,30.6,120.5,30.6,120.7z M33.1,102.4c0.2-0.8-0.2-1.3-1.2-1.5
	c-0.9-0.2-1.3-0.1-1.2,0.3c0-0.3,0.3-0.2,0.9,0.3C32.4,102.2,32.8,102.4,33.1,102.4z M31.7,96.7c0-0.8-0.3-1.1-0.9-0.9
	C30.8,96.4,31.1,96.7,31.7,96.7z M31.1,113.5c0.9,0,1-0.4,0.2-1.2c0,0.3-0.1,0.5-0.2,0.6C30.9,113,30.9,113.2,31.1,113.5z
	 M32.9,39.4c-0.3,0-0.6,0-0.9,0c-0.3,0-0.4,0.3-0.2,0.9C32.2,40.3,32.6,40,32.9,39.4z M31.7,71c0.2,0.2,0.3,0.2,0.3,0
	c0.1-0.2,0-0.2-0.3-0.2V71z M32.7,81.2c0.3-0.3,0.3-0.6,0-0.8c-0.3-0.2-0.6-0.4-0.9-0.6C31.7,80.7,32.1,81.2,32.7,81.2z M32,71.7
	c0.3,0.5,0.6,0.4,0.8-0.1c0.2-0.5,0.1-0.8-0.3-0.8c0.2,0.3,0.1,0.5-0.2,0.5C31.9,71.3,31.8,71.4,32,71.7z M32,68.3
	c0,0.5,0.2,0.8,0.7,0.9C33,68.6,32.7,68.3,32,68.3z M33.1,140.5c-0.3-0.3-0.5-0.3-0.7,0.1c-0.2,0.4,0.1,0.5,0.7,0.3V140.5z
	 M33.4,101.1l0.5-0.5c-0.3,0-0.5-0.2-0.6-0.6c-0.1-0.4-0.3-0.5-0.8-0.3c0,0.3,0.1,0.5,0.3,0.7C33,100.5,33.2,100.8,33.4,101.1z
	 M32.4,142.4c0.5,0,0.6-0.1,0.3-0.3C32.6,141.8,32.4,141.9,32.4,142.4z M33.6,40.3c-0.2,0.3-0.1,0.5,0.2,0.7
	c0.3,0.2,0.5,0.1,0.5-0.2c-0.2,0-0.2-0.1-0.2-0.2C34.1,40.4,33.9,40.3,33.6,40.3z M33.6,62.5c0.6,0.6,0.9,0.6,0.9,0
	C34.2,61.9,33.9,61.9,33.6,62.5z M34.5,58.6c0.3,0.8,0.7,1.1,1,1c0.4-0.1,0.7-0.5,0.8-1.3C35.4,57.7,34.8,57.8,34.5,58.6z
	 M35.4,43.1c0.3,0,0.5-0.1,0.6-0.3c0.1-0.2,0-0.5-0.1-0.7c-0.2-0.2-0.3-0.3-0.3-0.1C35.5,42.1,35.4,42.5,35.4,43.1z M35.9,109.4
	c0.2,0,0.4,0,0.7,0c0.3,0,0.4-0.2,0.2-0.5C36.2,108.8,35.9,108.9,35.9,109.4z M36.6,69c0.3,0,0.5-0.1,0.7-0.2
	c-0.2-0.2-0.4-0.2-0.7-0.2V69z M37.5,79.8c0-0.2-0.2-0.4-0.5-0.7C37.1,79.6,37.2,79.8,37.5,79.8z M38,79.6c0.3,0.2,0.6,0.4,0.8,0.8
	c0.2,0.4,0.5,0.3,0.8-0.3c-0.3-0.3-0.7-0.5-1-0.6C38.2,79.4,38,79.4,38,79.6z M38.9,77.7c-0.3,0.3-0.5,0.6-0.5,0.8
	c0,0.2,0.3,0.3,0.9,0.3C39.4,78.4,39.2,78,38.9,77.7z M39.4,72.9c0,0.3-0.1,0.4-0.3,0.3c-0.2-0.1-0.3,0-0.1,0.3
	c0.3,0.2,0.5,0.1,0.7-0.1C39.7,73.2,39.7,73,39.4,72.9z M39.6,125.5c-0.3,0.3-0.2,0.5,0.3,0.6c0.5,0.1,0.7,0,0.6-0.3
	C40.5,125.6,40.2,125.5,39.6,125.5z M39.6,120.9c0,0.5,0.4,0.8,1.3,0.9c0.8,0.2,1.1-0.2,0.8-0.9c-0.3,0.5-0.7,0.5-1,0.2
	C40.2,120.8,39.9,120.8,39.6,120.9z M39.6,131.8c0.3,0.2,0.5,0,0.5-0.3c0-0.4-0.2-0.5-0.5-0.3V131.8z M40.1,113.1
	c0.5,0,0.6-0.1,0.3-0.3C40.2,112.5,40.1,112.6,40.1,113.1z M41.4,12.2c0.5,0,0.6-0.1,0.3-0.3C41.6,11.6,41.4,11.7,41.4,12.2z
	 M42.6,75.7c-0.6-0.2-0.9,0.1-0.9,0.7c0.2,0.3,0.4,0.4,0.7,0.2C42.7,76.4,42.7,76.1,42.6,75.7z M41.7,123.9c0.3-0.2,0.7-0.3,1-0.6
	c0.4-0.2,0.7-0.5,1-0.8c-0.6-0.3-1.1-0.3-1.5,0.1C41.9,123,41.7,123.5,41.7,123.9z M41.9,34.3c0,0.6,0.2,0.9,0.7,0.9
	C43.2,34.6,43,34.3,41.9,34.3z M43.7,74c0.2-0.3,0-0.7-0.5-1.2c-0.5-0.3-0.7-0.2-0.7,0.3C42.6,73.8,43,74,43.7,74z M43.5,39.6
	c-0.2,0.5-0.1,0.8,0.2,1.2c0.3-0.2,0.4-0.4,0.3-0.7C44,39.8,43.8,39.6,43.5,39.6z M44.9,121.6c0.3-0.3,0.3-0.5-0.1-0.5
	c-0.4,0-0.7-0.2-1-0.5c0.2,0.3,0.2,0.6,0.1,0.8c-0.1,0.2,0,0.5,0.3,0.8L44.9,121.6z"/>
</svg>
