<?xml version="1.0" encoding="utf-8"?>
<!-- Generator: Adobe Illustrator 18.0.0, SVG Export Plug-In . SVG Version: 6.00 Build 0)  -->
<!DOCTYPE svg PUBLIC "-//W3C//DTD SVG 1.1//EN" "http://www.w3.org/Graphics/SVG/1.1/DTD/svg11.dtd">
<svg version="1.1" id="Layer_1" xmlns="http://www.w3.org/2000/svg" xmlns:xlink="http://www.w3.org/1999/xlink" x="0px" y="0px"
	 viewBox="0 0 46.6 167.3" enable-background="new 0 0 46.6 167.3" xml:space="preserve">
<path d="M45.1,76.5c-0.3,0.2-0.4,0.3-0.3,0.6c0.1,0.2,0.3,0.3,0.6,0.1c0.8-0.2,1.1,0.3,1,1.4c-0.1,1.1-0.1,1.8-0.1,2.3
	c-0.2,0.8-0.2,1.6-0.1,2.4c0.1,0.8,0,1.7-0.1,2.4c-0.3,1.8-0.3,3.7,0,5.5c0.3,1.8,0.5,3.7,0.5,5.5c-0.2,1.2-0.3,2.4-0.3,3.6
	c-0.1,1.2-0.1,2.3-0.1,3.6c0,0.2,0,0.5-0.1,0.9c-0.1,0.5-0.1,1-0.1,1.5c0,0.5,0,1-0.1,1.4c-0.1,0.4-0.2,0.5-0.3,0.3
	c0.6,0.5,0.8,1.3,0.7,2.7c-0.2,1.3-0.2,2.3,0,3.1c0.3,1.2,0.3,2.5,0.1,3.7c-0.2,1.2-0.2,2.5,0.1,3.7c-0.3,0-1-0.1-2.1-0.3
	c-1.1-0.2-1.3,0-0.7,0.6c0.3,0.3-0.1,0.6-1.2,0.9c-1.1,0.3-1.5,0.9-1.2,1.8c0.5-0.3,1-0.6,1.6-0.9c0.6-0.3,0.8-0.7,0.5-1.2
	c0.9,0.5,1.5,0.5,1.8,0.1c0.3-0.4,0.6,0.1,0.9,1.5c0.2,1.1,0.2,2.1,0,3c-0.2,0.9-0.2,1.8-0.2,2.8c0.2,2.2-0.5,3.4-2,3.7
	c-1.5,0.3-3,0.3-4.5,0c-0.5,0-0.8-0.2-1.2-0.5c-0.6,0.2-1.5,0.2-2.8,0.2c-0.9,0.2-1.8,0.2-2.8,0c-0.9-0.2-1.8-0.2-2.8,0
	c-0.5-0.3-1-0.9-1.5-1.7c-0.5-0.8-1.1-0.9-1.7-0.1c-0.6,0.8-0.5,1.2,0.3,1.2c0.8,0,1.4,0.2,1.7,0.5c-0.3,0.6-0.7,0.8-1,0.6
	c-0.4-0.2-0.7-0.5-1-0.8c-0.3-0.3-0.8-0.3-1.6,0.1c-0.8,0.4-1.5,0.5-2.1,0.3c0-0.3,0.1-0.5,0.3-0.7c0.2-0.2,0.4-0.4,0.6-0.7
	c-0.5-0.3-1-0.5-1.6-0.5c-0.6,0-1.2-0.2-1.8-0.5c-0.2,0.5,0.1,1,0.8,1.5c0.7,0.5,0.3,0.8-1,0.8c-0.6,0-1-0.2-1.2-0.7
	c-0.2-0.5-0.5-0.3-1.2,0.5c-0.9,0.2-1.9,0.3-2.9,0.3c-1,0.1-2,0-2.9-0.3c-0.8-0.2-0.8-0.5-0.1-1c0.7-0.5,0.7-1,0.1-1.5
	c-0.8,0.5-1.3,0.7-1.6,0.6c-0.3-0.1-0.8,0.3-1.4,1c0,0.5,0.3,0.7,0.8,0.7c0.5,0,0.8,0.2,0.8,0.5c-0.6,0.3-1.2,0.3-1.7,0
	c-0.5-0.3-1-0.3-1.5,0c-0.5,0.3-1,0.5-1.6,0.5c-0.6,0-1.2,0-1.8,0c-0.6,0-1.2-0.2-1.7-0.7c-0.5-0.5-1-1-1.4-1.5
	c-0.4-0.5-0.5-1.1-0.5-1.6c0.1-0.5,0.5-1,1.3-1.5c-0.5-0.6-0.8-0.7-0.9-0.1c-0.2,0.5-0.2,0.1-0.2-1.3c-0.2-1.1-0.2-2.1-0.2-3.1
	c0-1,0-2,0-2.9c0-1.1,0-2.1,0-3c0-0.9,0.1-1.8,0.2-2.8c0.3-0.8,0.3-1.5,0-2.3c-0.3-0.8-0.5-1.5-0.5-2.3c0-0.9,0-1.8,0.1-2.7
	c0.1-0.8,0.2-1.7,0.3-2.7c0.2-0.5,0.2-1.2,0.2-2.3c0.2-0.6,0.2-1,0-1.2c-0.2-0.2-0.2-0.5-0.2-1.2c-0.2-1.7-0.2-3.3-0.1-4.7
	c0.1-1.5,0.1-3,0.1-4.7V89c0-0.5,0.2-0.7,0.5-0.8c0.3-0.1,0.5-0.3,0.7-0.6c-0.2-0.3-0.2-0.5-0.2-0.7c0-0.2-0.2-0.4-0.5-0.7
	c-0.3-0.3-0.5-0.7-0.5-1c0-0.4,0-0.9,0-1.5c-0.2-0.8-0.2-1.6-0.1-2.5c0.1-0.9,0-1.8-0.3-2.8c-0.2-0.8-0.2-1.5,0-2.1
	c0.2-0.6,0.3-1.3,0.5-2.1c0.2-1.7,0.2-3.2,0-4.5c-0.2-1.3-0.1-2.7,0.2-4.3c0-0.3-0.2-1.2-0.5-2.8c-0.3-1.5,0.2-2.2,1.4-1.8v-0.7
	c-0.3-0.3-0.2-0.7,0.2-1c0.5-0.4,0.8-0.7,1.2-1c0.8-0.6,1.5-1.2,2.1-1.7c0.6-0.5,1.2-1.2,1.8-2c0.8-0.8,1.3-1.3,1.7-1.5
	c0.4-0.2,0.7-0.8,1-1.7c0.3-0.6,0.3-1.2,0.1-1.7c-0.2-0.5,0-1,0.8-1.3c-0.3-0.3-0.7-0.5-1-0.6c-0.4-0.1-0.7-0.3-1-0.6
	c-0.3,0.2-0.4,0.3-0.2,0.3c0.2,0.1,0.2,0.3,0.2,0.6c-0.2,0.2-0.9-0.3-2.2-1.4c-1.3-1.1-2.1-1.8-2.4-2.1c-0.8-0.8-1.5-1.6-2.2-2.5
	c-0.7-0.9-1.1-2-1.3-3.2c0.3,0,0.7,0,1.2,0c0.5,0,0.8-0.2,1.2-0.5c0.8-0.6,0.6-1-0.5-1.2c-1.1-0.2-1.8-0.1-2.1,0.2
	c0.3-0.6,0.4-1.2,0.2-1.7c-0.2-0.5-0.2-1-0.2-1.5c-0.2-0.6-0.1-1.2,0.1-1.6c0.2-0.5,0.3-0.9,0.1-1.4C0.3,30,0.2,29,0.3,28
	c0.2-1,0.2-2,0.2-2.9c-0.2-0.5-0.1-1,0.2-1.6c0.3-0.6,0.3-1.1,0-1.4c-0.3-0.5-0.4-1-0.2-1.7c0.2-0.7,0.2-1.3,0-2
	c0-0.8-0.1-1.5-0.2-2.1c-0.2-0.6-0.2-1.2-0.2-1.8c0-0.6,0.1-1.3,0.3-2.1c0.2-0.8,0.1-1.5-0.3-2.1c0.3-1.2,0.4-2.5,0.3-3.8
	c-0.1-1.3,0-2.6,0.3-3.8c0.3-1.8,0.9-2.5,1.7-2.1c0.8,0.5,1.8,1,2.9,1.6C6.4,2.8,7.2,3.6,8,4.4c0.8,0.8,1.5,1.7,2.3,2.4
	C10.6,7.1,11,7.5,11.7,8c0.6,0.5,0.8,0.8,0.5,1.2c-0.3,0.6-0.3,0.9,0.1,0.8c0.4-0.1,0.6-0.3,0.6-0.8c0.9,0.3,1.7,0.9,2.2,1.8
	c0.5,0.9,1.2,1.7,2,2.3c0.8,0.6,1.4,1.2,2,1.6c0.5,0.5,1.1,1.1,1.7,1.8c0.8,1.1,1.5,1.6,2.2,1.6c0.7,0,1.4-0.3,2.1-0.8
	c0.7-0.5,1.3-1.2,2-1.8c0.6-0.7,1.3-1.3,2.1-1.7c0.3-0.3,0.5-0.7,0.7-1.2c1.1-0.6,2.1-1.4,3-2.3c0.9-0.9,1.8-1.9,2.7-2.9
	c0.8-1,1.8-1.9,2.9-2.7c0.5-0.5,1.3-1,2.5-1.6c0.2-0.8,0.7-1.6,1.6-2.5c0.9-0.8,1.9-1,3-0.7c0.3,0.3,0.3,0.8,0,1.4
	c-0.3,0.6-0.3,0.9,0,0.9c0.8,0.2,0.8,0.7,0.2,1.6c0.5,0.8,0.6,1.6,0.5,2.4c-0.2,0.8-0.2,1.7-0.2,2.4c0,0.9,0.1,1.8,0.3,2.7
	c0.2,0.8,0.3,1.7,0.1,2.7c0,0.3-0.2,0.6-0.6,0.9c-0.4,0.3-0.4,0.6-0.1,0.9c0.3,0.3,0.4,0.6,0.3,0.9c-0.1,0.3,0,0.8,0.1,1.4
	c0.2,1.8,0.2,3.7,0.2,5.7c0,1.9-0.2,3.8-0.5,5.7c-0.2,0.9,0,1.9,0.3,2.9c0.4,1,0.5,2,0.3,2.9c-0.2,1.2-0.3,2.5-0.5,3.7
	c-0.2,1.2-0.7,2.4-1.6,3.5c-0.3,0.3-0.6,0.7-0.8,1.2c-0.2,0.5-0.6,0.5-1,0.2c-0.6-0.2-0.9,0.1-0.9,0.7c0.2,0.5-0.4,1.3-1.7,2.5
	c-1.3,1.2-2.1,2.2-2.4,2.8c-0.5,0.6-0.5,1.3-0.1,2c0.4,0.7,0.9,1.3,1.6,2c0.7,0.6,1.4,1.2,2.1,1.7c0.7,0.5,1.3,1,1.7,1.3
	c1.2,0.9,2.1,2,2.5,3.2c0.3,0.5,0.4,1.3,0.3,2.4c-0.1,1.2,0,1.7,0.1,1.7c0.6,0.3,0.8,1.1,0.7,2.3c-0.2,1.2-0.2,2.1-0.2,2.5
	c-0.3,0.8-0.4,1.6-0.2,2.4c0.2,0.8-0.1,1.6-0.7,2.2c0.2,0.2,0.4,0.7,0.8,1.5c0.4,0.8,0.4,1.3,0.1,1.5c-0.3,0.2-0.5,0.2-0.6,0
	C45.6,76.6,45.4,76.5,45.1,76.5z M45.8,139.8c0.3,0.5,0.4,1.2,0.3,2.1c-0.1,0.9-0.1,1.6-0.1,2.1c0,0.9,0.1,1.7,0.2,2.4
	c0.2,0.7,0.1,1.5-0.2,2.4c-0.2,0.5-0.4,1.2-0.7,2.3c-0.3,1.1-0.7,2.1-1.2,3.1c-0.5,1-1,1.9-1.5,2.7c-0.5,0.8-1,1.2-1.5,1.2
	c-0.2,0-0.2,0.2-0.1,0.6c0.1,0.4,0.1,0.7,0.1,0.8c-0.5,0.3-0.8,0.5-1.2,0.7c-0.3,0.2-0.6,0.4-0.9,0.7c-1.7,1.7-3.4,2.9-5.1,3.7
	c-2.3,1.1-4.6,1.9-6.9,2.4c-2.3,0.5-4.8,0.5-7.4-0.1c-0.8-0.2-1.8-0.3-3.2-0.6c-1.4-0.2-2.2-0.7-2.5-1.3c-0.3-0.5-0.9-0.8-1.7-0.9
	c-0.8-0.2-1.6-0.5-2.2-1.2c-0.6-0.5-1.3-0.9-2.2-1.4c-0.8-0.5-1.4-1.1-1.7-1.8c-0.3-0.8-0.8-1.5-1.4-2.3c-0.6-0.8-1.2-1.5-1.6-2.3
	c-0.6-0.9-1.1-1.7-1.4-2.3c0-0.3,0.1-0.6,0.3-0.8c0.2-0.2,0.2-0.6-0.1-1c-0.6-1.4-1.1-2.9-1.4-4.6c-0.3-1.4-0.4-2.9-0.2-4.6
	c0.2-1.7,1.1-2.8,2.8-3.2c2-0.6,3.7-0.7,5.1-0.2c0.8,0.3,1.2,0.5,1.2,0.7c0,0.2,0.4,0.2,1.2,0c1.5-0.5,3.1-0.6,4.6-0.5
	c0.5,0.9,1.1,1.8,1.8,2.5c0.6-0.5,1-0.9,1.2-1.3c0.2-0.4,0.6-0.7,1.4-1c1.2-0.3,2.5-0.4,3.8-0.3c1.3,0.1,2.6,0.1,3.8,0.1
	c0,0.3-0.3,0.7-1,1c-0.7,0.4-0.8,0.7-0.3,1c0.8,0.5,1.1,0.7,1,0.6c-0.1-0.1-0.2,0.3-0.3,1c0.8,0.5,1.6,0.6,2.5,0.5
	c-0.3,0.3-0.2,0.6,0.2,0.9c0.5,0.3,0.9,0.5,1.3,0.7c0.4,0.2,0.6,0.1,0.7-0.2c0.1-0.3-0.3-0.8-1.3-1.6c0.8-0.3,1-0.8,0.7-1.5
	c-0.3-0.7-0.5-1.3-0.7-1.7c0.6-0.3,1.3-0.5,2-0.5c0.7,0,1.4-0.2,2.2-0.5c0.6-0.3,1.3-0.3,2-0.1c0.7,0.2,1.4,0.3,2.2,0.1
	c1.2-0.2,2.7-0.3,4.3-0.5C44.1,137.6,45.2,138.3,45.8,139.8z M1.5,11c0-0.3-0.1-0.5-0.2-0.7c0,0.3-0.1,0.4-0.3,0.3
	c-0.2-0.1-0.3,0-0.1,0.3H1.5z M2,14c0.3-1.2,0.3-1.5-0.1-0.9C1.5,13.7,1.5,14,2,14z M1.7,68c-0.2,0.5-0.1,0.8,0.2,0.9
	c0.3,0.2,0.6,0.1,0.9-0.2C2.9,68.2,2.5,68,1.7,68z M2.2,5.2c0-0.5-0.2-0.7-0.5-0.7v0.7H2.2z M2.2,97.6C2,97.9,2.1,98,2.4,98
	c0.3,0,0.5-0.2,0.5-0.5c-0.2,0-0.2,0-0.2-0.1C2.7,97.4,2.5,97.4,2.2,97.6z M3.6,89.5c-0.3-0.3-0.7-0.3-1,0.1c-0.4,0.4-0.4,0.7-0.1,1
	C3,90.5,3.4,90.1,3.6,89.5z M2.4,6.4C2.9,6.4,3,6.2,2.8,6C2.5,5.8,2.4,5.9,2.4,6.4z M2.4,84.4c0.8,0,1.2,0.3,1.3,0.8
	c0.1,0.5,0.4,0.9,1,1c-0.2-0.5-0.3-0.9-0.3-1.3c-0.1-0.4-0.2-0.8-0.3-1.3c-0.2,0.6-0.4,0.7-0.7,0.3C3,83.7,2.7,83.8,2.4,84.4z
	 M2.9,100.3c-0.2,0.3-0.1,0.6,0.1,0.9c0.2,0.3,0.5,0.3,0.8,0c-0.5,0.2-0.7,0.1-0.6-0.2C3.3,100.7,3.2,100.5,2.9,100.3z M3.1,38.9
	c-0.3,0.3-0.2,0.5,0.5,0.6c0.6,0.1,0.8,0,0.7-0.3C3.8,38.4,3.4,38.3,3.1,38.9z M3.6,34.5c-0.3,0.5-0.2,0.7,0.2,0.7
	C4,34.8,3.9,34.5,3.6,34.5z M3.8,24.4c-0.2,0-0.2,0.2-0.2,0.5h0.2C4,24.8,4,24.8,4,24.6C4,24.5,4,24.4,3.8,24.4z M4.5,27.8
	c-0.2,0.3-0.3,0.5-0.6,0.5c-0.2,0-0.3,0.2-0.1,0.7c0.3,0,0.5,0,0.6,0.1c0.1,0.1,0.3,0,0.6-0.1C5,28.4,4.8,28,4.5,27.8z M4.7,31.8
	c-0.3-0.3-0.6-0.3-0.8-0.1c-0.2,0.2-0.3,0.6-0.1,1C4.4,32.7,4.7,32.4,4.7,31.8z M4.7,58.1c-0.3-0.2-0.5,0-0.7,0.3
	C3.9,58.8,4,59,4.3,59C4.6,58.7,4.7,58.4,4.7,58.1z M4.3,37.3c0.8,0.2,1.2,0,1.2-0.6c0-0.5,0.2-1,0.5-1.3c-0.6-0.3-1.1-0.2-1.5,0.3
	C4,36.3,4,36.8,4.3,37.3z M4.3,89.7c0,0.5,0.2,0.6,0.7,0.5c0.5-0.2,0.6-0.4,0.5-0.7c-0.3,0.2-0.5,0.2-0.6,0.1
	C4.8,89.5,4.6,89.6,4.3,89.7z M4.5,66.4C4.8,66.5,5,66.4,5,66c0-0.4-0.2-0.5-0.5-0.3V66.4z M5,26.7c0,0.2,0,0.2-0.1,0.2
	c-0.1,0-0.1,0.2-0.1,0.5c0.3,0.2,0.5,0.1,0.6-0.2C5.4,26.8,5.3,26.7,5,26.7z M5.4,20.7c0.3,0,0.5-0.2,0.5-0.5c0-0.2-0.2-0.2-0.5-0.2
	V20.7z M5.7,86.2c-0.2,0.2-0.2,0.5-0.2,0.9h0.9C6.4,86.9,6.1,86.6,5.7,86.2z M5.9,23.4c0.9,0,1.1-0.2,0.6-0.5
	C5.9,22.7,5.7,22.8,5.9,23.4z M6.1,74.9c0,0.3-0.1,0.5-0.2,0.7c0.3,0,0.5,0.1,0.6,0.2C6.5,76,6.7,76,7,75.9
	C7,75.2,6.7,74.9,6.1,74.9z M21.1,126.9c0-0.6,0-1.2,0-1.8c0-0.6,0.2-1.1,0.7-1.4c0.6-0.3,0.9-0.6,0.9-0.9c0-0.3-0.1-0.6-0.2-0.9
	c-0.2-0.3-0.2-0.6-0.2-0.9c0-0.3,0.3-0.6,0.9-0.9c0.9-0.3,1.3-1,1-2c-0.2-1-0.4-1.9-0.6-2.7c0.5-0.2,0.9-0.2,1.4,0
	c0.5,0.2,0.9,0.2,1.4,0.2c-0.6-0.6-1-1.2-1-1.6c-0.1-0.5,0.3-1,1-1.6c-0.3,0-0.4-0.2-0.3-0.6c0.1-0.4,0.3-0.4,0.8-0.1
	c0.5,0.3,0.7,0.6,0.7,0.8c0,0.2,0,0.5,0,0.8c0,1.1,0.4,1.5,1.2,1.4c0.3-0.3,0.5-0.7,0.5-1c0-0.4,0.2-0.3,0.7,0.3
	c0.8,1.1,1.5,1,2.1-0.1c0.6-1.2,0.8-2,0.5-2.7c-0.2-0.5-0.4-0.5-0.7-0.2c-0.3,0.3-0.5,0.2-0.7-0.5c0.5-0.6,0.7-1.2,0.8-1.6
	c0.1-0.5-0.3-0.8-1.3-1.2c0,0.5,0,0.9,0.1,1.3c0.1,0.4,0,0.8-0.1,1.3c-0.5,0.6-0.4,1.1,0.2,1.4c0.8,0,0.9,0.2,0.5,0.7
	c-0.8-0.2-1.2,0-1.3,0.5c-0.1,0.5-0.1,0.1-0.1-1.2c-0.5-0.2-0.8-0.1-1,0.1c-0.2,0.2-0.5,0.3-0.8,0.3c0.2-0.6,0.3-1.2,0.5-1.8
	c0.2-0.6,0.4-1.2,0.7-1.8c0.3-0.5,0.7-0.9,1.3-1.3c0.5-0.4,0.8-0.9,0.8-1.5c0-0.9-0.2-1.3-0.7-1c-0.5,0.2-0.8,0.1-1.2-0.3
	c-0.5-0.5-0.4-0.7,0.2-0.7c0.3,0,0.7,0.1,1.2,0.2c0-1.4,0.2-1.9,0.7-1.5c0.5,0.4,1.1,0.7,1.8,0.8c0.5,0,0.8-0.3,1-0.9
	c0.2-0.6,0.2-1.1-0.1-1.4c-1.2-0.5-1.8-1.2-1.6-2.1c0.3,0.3,0.8,0.2,1.4-0.5c0.5-0.3,0.6-0.6,0.5-0.8c-0.2-0.2-0.2-0.7,0-1.3
	c0-0.3,0.1-0.7,0.2-1.3c0.2-0.5,0.5-0.7,0.9-0.3c0.5,0.3,0.7,0.7,0.6,1.2c-0.1,0.5,0.3,0.5,1,0.2c-0.3-0.3-0.3-0.6-0.1-0.8
	c0.2-0.2,0.4-0.5,0.6-0.8c0-0.5-0.2-0.5-0.5-0.2c-0.2,0.2-0.4,0.3-0.7,0.5c0-0.6-0.3-1.5-0.9-2.8c0-0.3,0.2-0.5,0.6-0.6
	c0.4-0.1,0.6-0.3,0.6-0.6c-0.3-0.3-0.6-0.3-0.9-0.1c-0.3,0.2-0.6,0.3-0.9,0.3c-0.2-0.3-0.2-0.6-0.2-0.8c0-0.2-0.2-0.3-0.5-0.1
	c0,0.8,0.2,1.3,0.5,1.5c0.3,0.2,0.2,0.7-0.5,1.5c-0.3,0.6-0.5,0.9-0.7,0.8c-0.2-0.1-0.2,0.3,0,1c0,0.8,0.2,1.1,0.7,0.9
	c0,0.6-0.2,0.8-0.7,0.5c0.2,0.3,0.1,0.8-0.1,1.5c-0.2,0.7-0.5,0.7-0.8-0.1c-0.2-0.3-0.1-0.6,0.2-0.9c0.3-0.3,0.4-0.7,0.2-1.2
	c-0.3-0.6-1.1-0.6-2.3,0c0-0.5-0.2-0.7-0.7-0.7c-0.5,0-0.8,0-1.2,0c-0.3,0.2-0.5,0.5-0.5,1c0,0.5,0,1,0,1.3c0.3,0.6,0.8,0.8,1.5,0.5
	c0.7-0.3,1.2-0.4,1.5-0.2c1.1,0.3,1.2,0.8,0.2,1.4c-0.2,0.2-0.1,0.5,0.2,1.2c0.3,0.6,0.6,1.1,0.9,1.4c-0.5-0.3-1-0.5-1.6-0.5
	c-0.8,0.3-1.1,0.2-0.9-0.3c0.2-0.5,0.2-1,0.2-1.5c0-0.8-0.3-0.8-0.9-0.2c-0.3,0.3-0.6,0.8-0.9,1.4c-0.3-0.2-0.5-0.4-0.6-0.7
	c-0.1-0.3-0.2-0.6-0.2-0.9c-0.1-0.3-0.2-0.5-0.3-0.6c-0.2-0.1-0.5,0-0.9,0.3c-0.3,0.3-0.3,0.6,0.1,0.8c0.4,0.2,0.5,0.5,0.3,0.8
	c-0.8,0.8-1.2,1.6-1.2,2.5c-0.5-0.2-0.7-0.6-0.8-1.4c-0.1-0.8-0.2-1.3-0.3-1.6c0.8,0.2,1.3-0.3,1.6-1.4c0.3-1.1,0.5-1.9,0.5-2.5
	c-0.5,0.3-0.7,0.3-0.8,0C26,95.2,25.7,95,25.3,95c-0.8,0-1.2,0.2-1.3,0.6c-0.1,0.4-0.5,0.3-1.3-0.1c-0.9-0.6-1.2-1.3-0.9-2.1
	c0.3-0.3,0.7-0.2,1.2,0.5c0.5,0.6,0.8,0.9,1.2,0.9c0.3-0.6,0.5-1.5,0.5-2.5c0.8,0.5,1.4,0.4,2-0.2c0.5-0.6,1-1.2,1.5-1.8
	c0.3-0.5,0.6-0.5,0.8-0.1c0.2,0.4,0.1,0.8-0.3,1.3c-0.9,0.6-1.5,1.8-1.8,3.5c0.3,0,0.7,0.1,1,0.2c0.4,0.2,0.7,0.1,1-0.2
	c-0.6-0.2-0.8-0.5-0.5-1c0.3-0.5,0.6-0.6,0.9-0.1c0.3,0.5,0.7,0.5,1,0c0.4-0.5,0.9-0.5,1.5-0.2c0.8-0.8,0.9-1.2,0.3-1.2
	c-0.5,0-1-0.2-1.5-0.5c-0.8-0.3-0.9-0.7-0.5-1.2c0.5-0.5,1-0.7,1.6-0.7c0.3,0,0.5,0.2,0.5,0.7c0.3,0.2,0.5,0.1,0.5-0.2
	c0-0.3,0.2-0.4,0.5-0.2c0.2-0.8-0.3-1.5-1.4-2.3c-0.8-0.6-1-1-0.7-1.2c0.3-0.2,0.7-0.4,1.2-0.7c0.6-0.6,0.5-0.9-0.3-0.9
	c-0.8,0-1.4,0.2-1.7,0.5c0-0.5-0.2-0.5-0.5-0.2c-0.3,0.3-0.2,0.1,0.5-0.7c0.6-0.8,1.5-1.3,2.8-1.6c-0.3-0.8-0.2-1.4,0.2-1.8
	c0.5-0.5,1.1-0.5,1.8-0.2c0-0.3,0-0.6-0.1-0.9c-0.1-0.3,0-0.6,0.1-0.9c-0.3-0.3-0.6-0.4-0.9-0.2c-0.3,0.2-0.6,0.2-0.9,0
	c0.3-0.3,0.6-0.5,0.9-0.5c0.3,0,0.6,0,0.9,0c0,0.3,0.1,0.7,0.2,1.2c0.2,0.5,0.3,0.9,0.6,1.3c0.2,0.4,0.4,0.6,0.6,0.6
	c0.2,0,0.2-0.4,0.2-1.2c0.5,0.2,0.9,0.2,1.4,0.2c1.1,0,1.8-0.1,2.1-0.2c0.3-0.3,0.3-0.6,0-0.8c-0.3-0.2-0.5-0.5-0.7-0.8
	c-0.3-0.6-0.6-0.9-0.9-0.8c-0.3,0.1-0.8,0-1.4-0.1c-0.2,0.3,0,0.5,0.3,0.6c0.4,0.1,0.6,0.3,0.6,0.6c-0.3,0.3-0.6,0.4-0.9,0.2
	c-0.3-0.2-0.6-0.2-0.9-0.2c0-0.2-0.1-0.5-0.3-1c-0.2-0.5-0.4-0.8-0.6-0.8c-0.3,0.3-0.6,0.4-0.8,0.2c-0.2-0.2-0.5-0.3-0.8-0.6
	c-0.3-0.2-0.6-0.4-0.9-0.6c-0.3-0.2-0.7-0.2-1.2,0c0,0.5,0.3,0.8,0.9,1c0.6,0.2,0.6,0.7,0,1.3c-0.6,0.6-1,0.5-1-0.3
	c-0.1-0.8-0.2-1.3-0.3-1.5c-0.6,0-0.9,0.5-0.9,1.4c0,0.8,0.1,1.1,0.2,0.9c0.2-0.2,0.4,0,0.7,0.5c0.3,0.3,0.5,0.8,0.7,1.4
	c0.2,0.6,0.1,1.2-0.2,1.6c-0.3-0.3-0.5-0.7-0.7-1.2c-0.2-0.5-0.4-0.8-0.7-1.2c-0.3-0.2-0.7-0.1-1.3,0.1c-0.5,0.2-0.9,0.5-1,0.8
	c0.3,0.2,0.7,0.2,1.3,0.1c0.5-0.1,0.7,0.1,0.3,0.6c-0.5,0.8-0.8,0.9-1,0.5c-0.2-0.5-0.4-0.8-0.6-0.9c-0.3,1.4-0.2,2,0.3,1.7
	c0.5-0.2,1.1,0,1.7,0.6c-0.8,0.2-1.2,0.6-1.2,1.4c0,0.8-0.4,1.1-1.2,0.9c0.3-0.9,0.3-1.6-0.1-2c-0.4-0.4-1-0.7-1.7-1
	c-0.8-0.3-1.2-0.8-1.4-1.5c-0.2-0.7-0.6-1-1.4-1c0,0.3,0.1,0.5,0.2,0.7c0.2,0.2,0.2,0.4,0,0.7c-0.3,0-0.6-0.1-0.9-0.2
	c-0.3-0.2-0.6-0.2-0.9-0.2c0.3,0.3,0.5,0.7,0.5,1c0,0.4,0.2,0.7,0.7,1c0.3,0.3,0.6,0.5,0.8,0.6c0.2,0.1,0.5,0.3,0.8,0.6
	c0.3,0.3,0.2,0.8-0.3,1.6c-0.5,0.8-0.4,1,0.3,0.7c0.3-0.2,0.9-0.5,1.7-1c0.8-0.5,1.1-0.4,0.8,0.3c-0.6,0.3-0.9,0.8-0.9,1.4
	c0,0.6-0.4,1-1.2,1.2c0-0.3,0.1-0.7,0.2-1.2c0.2-0.5-0.2-0.6-0.9-0.5c-0.6,0.2-1.2,0.4-1.6,0.7c-0.5,0.3-1,0.4-1.6,0.2
	c-0.6,0-1-0.5-1.2-1.4c-0.2-0.9-0.1-1.6,0.2-2.1c-0.3-0.2-0.7-0.3-1-0.3c-0.4-0.1-0.6-0.3-0.6-0.6c0.2-0.3,0.4-0.5,0.7-0.7
	c0.3-0.2,0.5-0.5,0.5-0.9c-0.8-0.3-1.4-0.3-1.8-0.1c-0.5,0.2-1.1,0.4-1.8,0.6c-0.3,0-0.6,0.2-0.9,0.5c-0.3,0.3-0.1,0.5,0.7,0.7
	c0.6,0.3,0.8,0.6,0.7,0.9c-0.2,0.3-0.4,0.7-0.7,1.2c-0.3,0.5-0.6,0.9-0.8,1.3c-0.2,0.4,0,0.8,0.6,1.3c0.6,0.5,1.1,0.4,1.4-0.1
	c0.3-0.5,0.6-1,0.9-1.3c0.8-0.8,1.1-0.8,1-0.1c-0.1,0.7-0.3,1.3-0.6,1.7c-0.9,0-1.1,0.3-0.5,0.9c0.3,1.1,0.1,1.4-0.7,0.9
	c-0.6-0.3-1.2-0.7-1.7-1c-0.5-0.4-1.2-0.3-2,0.3c0.5,0.5,0.9,0.7,1.4,0.7c0.5,0,0.5,0.4,0.2,1.2c-0.6,1.2-1.4,1.9-2.3,2.1
	c0.2-0.5,0.1-0.7-0.2-0.7c-0.3,0.8-0.7,1.5-1,2.1c-0.4,0.6-0.1,1.3,0.8,2.1c0.2-0.3,0.2-0.6,0.1-0.8c-0.1-0.2,0-0.4,0.1-0.6
	c0.3-0.3,0.8-0.3,1.4,0c0.6,0.3,1.1,0.5,1.4,0.5c0.2-0.6,0.4-1,0.8-1c0.4-0.1,0.7,0,0.9,0.2c0.2,0.2,0.3,0.5,0.3,0.8
	c0,0.3-0.2,0.5-0.7,0.7c-0.3,0.3-0.6,0.5-0.9,0.7c-0.3,0.2-0.7,0.4-1.2,0.7c-0.3,0.3-0.6,0.4-0.9,0.2c-0.3-0.2-0.5,0.2-0.5,0.9
	c0.6,0,1.1-0.2,1.5-0.5c0.4-0.3,0.9-0.4,1.5-0.2c-0.2,0.2-0.2,0.3-0.2,0.3c0,0.1-0.1,0.2-0.2,0.3c0.3,0.3,0.7,0.3,1,0.1
	c0.4-0.2,0.7-0.2,1,0.1c-0.5,0.3-0.7,0.7-0.6,1.2c0.1,0.5-0.1,0.8-0.6,1.2c-0.5,0-1-0.2-1.5-0.5c-0.5-0.3-0.7-0.8-0.3-1.6
	c-0.5,0-0.8,0.2-1.2,0.5c-0.3,0.3-0.6,0.6-0.9,0.9c-0.3,0.3-0.6,0.5-0.9,0.7c-0.3,0.2-0.7,0.1-1.2-0.2c-0.3,0.6-0.1,1.1,0.6,1.4
	c0.7,0.3,1.2,0.6,1.5,0.9c0-0.3,0.2-0.5,0.6-0.7c0.4-0.2,0.7-0.1,1,0.2c0,0.8-0.5,1-1.6,0.7c0.2,1.1-0.1,1.3-0.8,0.7
	c-0.7-0.6-1.2-0.8-1.5-0.5c0.3,0.6,0.5,1,0.7,1.3c0.2,0.2,0.2,0.4,0.1,0.6c-0.1,0.2-0.3,0.2-0.8,0c-0.5-1.1-1-1.5-1.6-1.4
	c-0.6,0.2-0.5,0.6,0.2,1.4c0.3,0.5,0.3,0.8,0,1c-0.3,0.2-0.6,0.5-0.9,0.8c-0.8,0.9-1.1,1.2-0.9,0.8c0.2-0.4-0.2-0.5-0.9-0.3
	c0.2,0.6,0.4,1.4,0.7,2.3c0.5-1.1,1.1-1.3,2-0.8c0.8,0.5,0.7,1.3-0.6,2.2c0.9,0,1.5-0.2,1.7-0.7c0.2-0.5,0.4-1,0.5-1.5
	c0.1-0.5,0.2-1.1,0.2-1.7c0.1-0.6,0.3-1.2,0.8-1.6c0.3-0.2,0.5-0.3,0.7-0.5c0.2-0.2,0.4-0.3,0.7-0.5c0.6-0.3,1-0.4,1-0.2
	c0.1,0.2,0.4,0.2,1,0.2c2,0.3,2.5,1.2,1.6,2.5c0.6,0.3,0.7,0.9,0.1,1.7c-0.5,0.8-0.4,1.3,0.3,1.5c0-0.6,0.2-1,0.6-1.2
	c0.4-0.2,0.6-0.5,0.6-1.2c0-0.3,0-0.7,0-1.2c0-0.5,0.2-0.8,0.5-1.2c0.3-0.3,0.7-0.5,1.3-0.5c0.5,0,0.8,0.3,0.8,0.9
	c0,0.5-0.3,0.8-0.8,1c-0.5,0.2-1,0.4-1.3,0.6c0.3,0.5,0.5,0.9,0.6,1.3c0.1,0.4,0.3,0.8,0.6,1.3c0.3,0.2,0.5,0,0.6-0.3
	c0.1-0.4,0.3-0.6,0.6-0.6c0,0.3,0,0.8,0,1.6c0,0.8-0.2,0.8-0.7,0c-0.2-0.2-0.4,0.1-0.8,0.8c-0.4,0.7,0,1.1,1,1.3
	c0.3,0,0.4-0.1,0.3-0.3c-0.1-0.2,0-0.3,0.3-0.1c0.3,0.3,0.4,0.6,0.2,0.9c-0.2,0.3-0.4,0.6-0.7,0.9c-1.1,0.6-1.8,0.5-2.2-0.3
	c-0.4-0.8-0.2-1.4,0.6-1.7c-0.6-0.3-0.8-0.8-0.7-1.4c0.2-0.6-0.2-0.5-0.9,0.2c-0.8,0.8-1.5,0.8-2.1,0.2c-0.5-0.3-0.5-0.6-0.1-0.9
	c0.4-0.3,0.3-0.7-0.3-1.2c-0.3-0.2-0.4-0.5-0.3-0.9c0.1-0.5,0.2-0.9,0.2-1.4c0.1-0.5,0-0.8-0.1-1.2c-0.2-0.3-0.5-0.4-1.2-0.2
	c-0.9,0.2-1.1,0.8-0.6,1.8c0.5,1.1,0.6,1.8,0.1,2.3c0.8,0.2,1.2,0.5,1.4,1c0.2,0.5,0.4,1,0.7,1.5c-0.3,0.3-0.7,0.3-1,0.1
	c-0.4-0.2-0.7-0.4-1-0.6c0.2,0.3,0,0.6-0.5,0.8c-0.5,0.2-0.5,0.5-0.2,0.8c0.5,0.2,0.7,0,0.6-0.5c-0.1-0.5,0.2-0.5,0.8-0.2
	c0.3,0.3,0.3,0.6,0.1,0.8c-0.2,0.2-0.2,0.5,0.1,0.8c0.2-0.3,0.3-0.5,0.5-0.6c0.2-0.1,0.3-0.3,0.5-0.6c0.2,0.3,0.5,0.4,0.9,0.2
	c0.5-0.3,0.9-0.3,1.3,0.1c0.4,0.4,0.8,0.7,1.3,1c0,0.8-0.1,1.1-0.3,0.9c-0.2-0.2-0.7-0.2-1.3,0c-0.3,0.9-0.5,1.5-0.7,1.8
	c0.3,0.3,0.6,0.6,0.9,0.8c0.3,0.2,0.6,0.5,0.9,0.8c-0.3,0.3-0.7,0.3-1.3,0.1c-0.5-0.2-1-0.3-1.3-0.1c-0.8,0.2-1.1,0.1-1-0.2
	c0.1-0.3-0.1-0.4-0.6-0.2c-0.3,0.6,0,1,0.8,1c0.8,0.1,1.4,0.2,1.7,0.3c-0.6,0.8-1,1-1.3,0.6c-0.2-0.4-0.7-0.7-1.3-0.8
	c-1.2-0.2-1.7-0.6-1.4-1.3c0.3-0.7,0.5-1.3,0.7-2c-0.6,0.2-1.2,0-1.6-0.3c-0.5-0.4-0.9-0.6-1.4-0.6c-0.3-0.3-0.4-0.8-0.3-1.5
	c0.1-0.7,0-1.2-0.3-1.5c-1.1,0.8-1.3,1.3-0.8,1.5c0.5,0.2,1,1,1.3,2.2c-0.5-0.2-0.8,0-0.9,0.5c-0.2,0.5-0.2,1-0.2,1.7
	c0,0.7,0.1,1.4,0.2,2.1c0.2,0.7,0.2,1.1,0.2,1.3c0.6,0.2,0.9,0,0.8-0.3c-0.1-0.4,0.3-0.3,1,0.1c0.6,0.3,0.9,0.2,0.8-0.5
	c-0.1-0.6,0.3-0.8,1-0.7c0.5,0,0.9,0.1,1.3,0.3c0.4,0.2,0.8,0.3,1.3,0.3c0.6,0,1,0.3,1.3,1c0.2,0.7,0,1.2-0.6,1.5
	c-0.3,0-0.5-0.2-0.6-0.6c-0.1-0.4-0.3-0.6-0.6-0.6c-0.3,0.5-0.3,1-0.1,1.5c0.2,0.5,0.4,1,0.6,1.5c-0.3,0.3-0.6,0.3-0.8,0
	c-0.2-0.3-0.5-0.3-0.8,0c0.3,0.8,0.7,1.1,1.3,0.9c0.5-0.2,0.8,0.2,0.8,1.2c1.2-0.5,2-1.5,2.3-3c0.6,0,0.9,0,0.8,0.1
	c-0.1,0.1,0.1-0.2,0.6-0.8c0.5-0.8,0.8-0.7,0.9,0.3c0.2,1,0.4,1.6,0.7,1.7c-0.3,0.2-0.6,0.4-0.8,0.7c-0.2,0.3-0.3,0.6-0.3,0.9
	c0,0.3,0.1,0.5,0.2,0.6c0.2,0.1,0.5,0,0.9-0.3c0.6-0.3,0.8-0.6,0.7-0.8C21.4,127.9,21.3,127.5,21.1,126.9z M6.8,93.2
	c-0.8,0-1,0.2-0.8,0.7c0.2,0.5,0.6,0.6,1,0.5c0-0.3-0.1-0.5-0.3-0.6C6.5,93.7,6.5,93.5,6.8,93.2z M7,89c-1.1,0-1.2,0.2-0.2,0.5
	c0-0.2,0-0.2,0.1-0.2C7,89.2,7,89.2,7,89z M7.3,71c-0.8,0-1.1,0-0.9,0.1c0.2,0.1,0.2,0.3,0.2,0.8C7,71.9,7.3,71.6,7.3,71z M6.4,99.6
	c0.3,0.2,0.4,0.3,0.3,0.6c-0.1,0.2,0,0.3,0.3,0.3v-0.9H6.4z M7,11.9c0.5,0,0.7-0.2,0.6-0.6c-0.1-0.4-0.3-0.6-0.6-0.6
	c-0.3,0.3-0.4,0.5-0.2,0.6C7,11.4,7,11.6,7,11.9z M7,64.1c-0.2,0.3-0.1,0.5,0.2,0.5c0.3,0,0.5-0.1,0.5-0.2c-0.3,0-0.5-0.1-0.5-0.2
	C7.3,63.9,7.2,63.9,7,64.1z M7,98.3c0.2-0.2,0.6-0.3,1.4-0.5c0.8-0.2,1.2-0.2,1.4-0.2c-0.3-0.8-0.8-1-1.5-0.7
	C7.6,97.2,7.2,97.6,7,98.3z M7,107c0.3,0,0.5-0.1,0.6-0.3c0.1-0.2,0.1-0.4,0-0.6c-0.1-0.2-0.2-0.2-0.3-0.1C7.1,106.1,7,106.4,7,107z
	 M8.7,68.7c-0.3-0.2-0.4-0.3-0.3-0.6c0.1-0.2,0-0.5-0.3-0.8c-0.8-0.5-1-0.2-0.6,0.7C7.8,68.9,8,69.5,8,69.6c0.3,0.3,0.7,0.5,1.3,0.5
	c0.5,0,0.9-0.3,1-0.9C10,69,9.7,68.9,9.5,68.9C9.2,68.9,9,68.9,8.7,68.7z M7.7,70.5c-0.2,0.6,0.2,0.9,0.9,0.9
	C8.7,70.7,8.3,70.4,7.7,70.5z M8,28.5c0.6-0.2,1.2-0.2,1.7,0c0.5,0.2,1.1,0.2,1.7,0.2c0-0.6-0.2-0.9-0.6-0.9c-0.4,0-0.7-0.2-1-0.5
	c-0.2,0.5-0.5,0.7-1,0.6C8.2,27.9,8,28.1,8,28.5z M10.5,59.5c-1.7,0-2.5,0.9-2.5,2.8c0.3-0.2,0.5-0.2,0.7-0.1
	c0.2,0.1,0.3,0.1,0.5,0.1c0.3-0.5,0.6-0.9,0.9-1.4C10.4,60.4,10.5,59.9,10.5,59.5z M8,76.8c0.3,0,0.6,0,0.8,0.1C9,77,9.3,77,9.6,77
	c0.2-0.2,0.4-0.4,0.8-0.8c0.4-0.4,0.3-0.7-0.3-0.8c-0.3-0.3-0.7-0.3-1.3,0C8.2,75.7,8,76.2,8,76.8z M8.4,77.7c0,0.3-0.1,0.5-0.2,0.5
	C8,78.2,8,78.3,8,78.6h0.9C9,78.3,8.9,78,8.4,77.7z M8.7,80.9c0.5-0.3,0.5-0.5,0.1-0.6c-0.4-0.1-0.7-0.1-0.8-0.1
	C8.1,80.7,8.3,80.9,8.7,80.9z M8.2,124.8c-0.2,0.5,0,0.6,0.5,0.5c0.5-0.2,0.5-0.4,0.2-0.7c-0.2,0-0.2,0-0.2,0.1
	c0,0.1-0.1,0.1-0.2,0.1H8.2z M32.9,70.1c0.2-0.5,0.7-0.7,1.6-0.8c0.9-0.1,1.1-0.5,0.5-1.3c0,0.3-0.2,0.5-0.7,0.6
	c-0.5,0.1-0.9,0-1.3-0.1c-0.4-0.2-0.6-0.4-0.7-0.8c-0.1-0.4,0.1-0.8,0.6-1.3c-0.2,0.6,0,0.7,0.3,0.3c0.4-0.4,0.6-0.7,0.6-1
	c0.2-0.8,0.3-1,0.5-0.8c0.2,0.2,0.4,0,0.7-0.6c-0.3-0.2-0.5-0.3-0.7-0.3c-0.2-0.1-0.4,0-0.7,0.3c-0.8,0.3-1.2,0.2-1.4-0.2
	c0,0.3-0.1,0.4-0.3,0.3c-0.2-0.1-0.3,0-0.3,0.1c0.3,0.3,0.5,0.7,0.7,1c0.2,0.4,0.2,0.7,0,1c-0.6-0.2-1.1-0.7-1.4-1.6
	c-0.8,0.2-1,0.5-0.8,0.9c0.2,0.5,0,0.8-0.6,1.2c-0.3-0.5-0.7-0.5-1-0.1c-0.4,0.4-0.7,0.3-1-0.1c0.5-0.3,0.8-0.6,1.2-0.8
	c0.3-0.2,0.8-0.3,1.4-0.3c-0.3-0.6-0.4-1.2-0.3-1.8c0.1-0.6,0-1.2-0.3-1.6c0.8,0,1.6,0.1,2.5,0.2c0.9,0.2,1.4-0.4,1.4-1.6
	c-0.3-0.2-0.5,0-0.6,0.3c-0.1,0.4-0.3,0.6-0.8,0.6c-0.6-0.2-0.9-0.5-0.8-1.2c0.1-0.6,0-1.1-0.3-1.4c-0.2,0.2-0.4,0.5-0.7,0.9
	c-0.5-0.2-0.7-0.5-0.6-0.9c0.1-0.5,0.3-0.8,0.6-1.2c-0.8,0.3-1.5,0.2-2.3-0.2c-0.8-0.5-1.5-0.5-2.1,0c-0.8,0.8-0.6,1.2,0.6,1.3
	c1.2,0.1,1.9,0.3,2.2,0.6c-0.3,0.6-0.6,1-0.9,1c-0.3,0.1-0.3,0.5,0,1.3c0.3,0.3,0.6,0.7,0.8,1c0.2,0.4,0.3,0.8,0.1,1.3
	c0-0.6-0.3-0.8-1-0.6c-0.7,0.2-1.1,0.5-1.3,0.8c-0.5,0.8-0.9,1-1.3,0.6c-0.4-0.4-0.4-1-0.1-1.7c-0.3-0.2-0.6-0.2-0.9-0.1
	c-0.3,0.1-0.6,0.1-0.9,0.1c-0.5-0.2-0.7-0.5-0.6-0.9c0.1-0.5,0.3-0.7,0.8-0.7c0.5,0.2,1.2,0.4,2.3,0.7c1.1,0.3,1.5-0.2,1.2-1.4
	c-0.5,0.3-0.9,0.3-1.3,0c-0.4-0.3-0.7-0.3-1,0c-0.3-0.3-0.4-0.7-0.3-1c0.1-0.4-0.2-0.4-0.8-0.1c-0.3,0.3-0.7,0.2-1.2-0.3
	c-0.5-0.5-0.5-1-0.2-1.3c0.3,0.2,0.6,0.4,0.8,0.8c0.2,0.4,0.5,0.4,0.8,0.1c-0.2-0.5-0.3-0.9-0.3-1.3c-0.1-0.4,0.1-0.7,0.6-0.8
	c0.5-0.3,0.7-0.7,0.7-1.3c0-0.5,0.2-0.9,0.7-1c-0.3-0.3-0.5-0.3-0.7,0.1c-0.2,0.4-0.4,0.5-0.7,0.3c0.6-1.2,1-1.7,1-1.4
	c0.1,0.3,0.7,0.5,1.7,0.5c0.6,0,1-0.1,1.2-0.3c0.2-0.2,0.2-0.5,0.2-0.7c0-0.2,0-0.5-0.1-0.8c-0.1-0.3,0-0.5,0.3-0.7
	c1.2-0.6,1.6-1.3,1-2.2c-0.5-0.8-1.2-0.9-2-0.1c0.2,0.3,0.3,0.6,0.5,0.9c0.2,0.3,0.2,0.6,0.2,0.9c0,0.6-0.2,0.8-0.7,0.5
	c0.3,0.5,0.3,0.8,0,1.2c-0.3-0.2-0.6-0.3-0.8-0.5c-0.2-0.2-0.5-0.3-0.8-0.5c-0.2,0.3-0.4,0.5-0.7,0.6c-0.3,0.1-0.6,0.1-0.9,0.1
	c-1.4-0.2-1.8,0-1.4,0.6c0.5,0.5,0.5,1.2,0,2c0.2,0,0.3-0.1,0.5-0.2c0.2-0.2,0.3-0.1,0.5,0.2c0,0.8-0.3,1.2-0.9,1.2
	c-0.9,0-1.5-0.1-1.8-0.2c-0.3,0.2-0.4,0.4-0.2,0.7c0.2,0.3,0.1,0.5-0.2,0.5c-0.6-0.6-1-0.7-1-0.3c-0.1,0.4-0.1,0.9-0.1,1.5
	c0.3,0.2,0.5,0.2,0.7,0c0.2-0.2,0.4-0.2,0.7-0.2c-0.3,0.8,0,1.4,0.8,1.8c0.8,0.5,0.9,1.1,0.1,1.8c-0.5-0.5-0.7-0.9-0.7-1.3
	c0-0.4-0.4-0.6-1.2-0.6c-0.8-0.2-1.2-0.1-1.2,0.2c0,0.3,0.4,0.5,1.2,0.7c0.6,0.2,0.8,0.6,0.5,1.4c0.3,0.2,0.5,0.2,0.7,0.1
	c0.2-0.1,0.4-0.1,0.7-0.1c0.9,0.3,0.9,0.7-0.1,1c-1,0.4-1.7,0.6-2,0.6c0.5,0.9,0.3,1.1-0.5,0.6c-0.8-0.5-1.3-1-1.6-1.3
	c0.5-0.3,0.8-0.5,1.2-0.7c0.3-0.2,0.3-0.5,0-0.9c-0.3-0.3-0.5-0.6-0.7-0.8c-0.2-0.2-0.4-0.5-0.7-0.8c-0.6-0.6-1.3-0.7-2.1-0.2
	c-0.8,0.5-1,1.2-0.7,2.1c0.3,0,0.7-0.2,1.2-0.6c0.5-0.4,0.7-0.1,0.7,0.8c0.3,0.3,0.4,0.3,0.3,0c-0.1-0.3,0-0.4,0.3-0.2
	c0.3,0.6,0.3,1.2-0.1,1.7c-0.4,0.5-0.7,0.3-1-0.6c-0.5-0.9-0.8-1-0.9-0.3c-0.2,0.7-0.5,0.9-0.9,0.6c0.3,1.1,0.8,1.5,1.4,1.2
	c0.8-0.5,1.2-0.4,1.4,0.2c-0.5,0-0.8-0.1-0.9-0.2c-0.2,0.8-0.4,1.4-0.7,1.8c-0.3,0.5-0.3,1.1,0,1.8c-0.3,0.3-0.6,0.4-0.9,0.2
	c-0.3-0.2-0.6,0-0.9,0.5c0.5,0.5,0.5,0.8,0,1.2c-0.3,0.5-0.3,0.7-0.1,0.8c0.2,0.1,0.4,0.3,0.6,0.6c0.3,1.2,0,1.6-1,1.2
	c-1-0.5-1.7-0.8-2.2-1.2c0,0.8-0.3,1-0.9,0.8c-0.6-0.2-0.9-0.1-0.9,0.3c0,0.6,0.3,1.2,0.8,1.7c0.5,0.5,0.8,0.4,0.8-0.3
	c0-0.9,0.2-1.3,0.6-1.2c0.4,0.2,0.7,0.5,0.9,0.9c0.2,0.5,0.4,1,0.5,1.5c0.1,0.5-0.2,0.8-0.8,0.8c0.5,0.5,0.8,0.7,1.2,0.7
	c0.3-0.9,0.9-1.5,1.8-1.6c0,1.1,0.4,1.7,1.2,1.8c0.9,0.5,1.3,0.3,1-0.3c-0.2-0.7-0.2-1.2,0.1-1.5c1.1,0.3,1.5,0.8,1.4,1.6
	c0,0.8-0.2,1-0.5,0.8c-0.3-0.2-0.6-0.3-0.9-0.1c0,0.3-0.1,0.7-0.2,1.3c-0.2,0.5-0.1,1,0.2,1.3c0.3,0,0.5-0.2,0.5-0.5
	c0-0.3,0.2-0.5,0.5-0.5c0.2,0.5,0.4,0.7,0.7,0.6c0.3-0.1,0.5-0.3,0.7-0.6c-0.2-0.2-0.4-0.2-0.7-0.1c-0.3,0.1-0.5,0-0.5-0.3l1.8-1.8
	c0.5,0.5,0.9,0.9,1.3,1.4c0.4,0.5,1,0.5,1.7,0.2c0.3,0.3,0.4,0.6,0.3,0.8c-0.1,0.2,0.2,0.3,0.8,0.1c0.5-0.2,0.7-0.7,0.7-1.6
	c-0.5,0-0.9-0.1-1.3-0.3c-0.4-0.2-0.7-0.5-1-0.8c-0.6-0.8-0.8-1.1-0.6-1c0.2,0.1,0.3-0.2,0.3-0.8c-0.3,0-0.7,0-1,0
	c-0.4,0-0.4-0.4-0.1-1.2c0.3-0.5,0.8-0.4,1.6,0.2c0.8,0.6,1.2,0.8,1.2,0.7c-0.2,0-0.3,0-0.3,0.1c-0.1,0.1-0.2,0.1-0.3,0.1
	c0.3,0.3,0.6,0.5,0.9,0.7c0.5,0.3,1,0.1,1.6-0.7c0.2-0.6,0.5-1.2,0.9-1.8c0.5-0.2,0.9,0,1.4,0.3c0.5,0.4,0.9,0.6,1.4,0.6
	c-0.3,0.9-0.9,1.3-1.7,1c-0.8-0.2-1.3,0.2-1.3,1.3c0,0.3,0,0.7,0.1,1.2c0.1,0.5,0.3,0.5,0.6,0c0.3-0.3,0.3-0.5,0.1-0.7
	c-0.2-0.2-0.3-0.5-0.3-0.9c0.8-0.2,1.1,0,0.9,0.3c-0.2,0.4-0.1,0.7,0.2,1c0.3,0.6,0.7,0.8,1.3,0.6c0.5-0.2,0.9-0.6,1-1
	c0-0.5,0-1.1-0.1-1.8c-0.1-0.8,0-1.2,0.1-1.4c0.3-0.3,0.6-0.4,0.9-0.2c0.3,0.2,0.5,0.4,0.5,0.7c0.3-0.3,0.7-0.5,1.3-0.6
	c0.5-0.1,1-0.3,1.3-0.6c0.9-0.6,1.1-1.1,0.6-1.5C33.6,70.7,33.2,70.4,32.9,70.1z M10,87.6c0-0.3,0.1-0.4,0.3-0.3
	c0.2,0.1,0.3,0,0.1-0.3c-0.3-0.2-0.7-0.3-1-0.5c-0.4-0.2-0.8-0.2-1.3-0.2C8.3,86.9,9,87.3,10,87.6z M8.4,147.2
	c0.3,0.2,0.7,0.2,1,0.1c0.4-0.1,0.7-0.1,1-0.1c0-0.6-0.3-1-1-1C8.8,146.1,8.4,146.4,8.4,147.2z M10,98.7c0.8,0.9,1.3,1,1.5,0.3
	c0.2-0.7,0.1-1.1-0.3-1.3c-0.5-0.3-0.8-0.2-1.2,0.2c-0.3,0.5-0.7,0.5-1.2,0c-0.5,1.1-0.5,1.5-0.2,1.4C9,99.3,9.4,99,10,98.7z
	 M10.3,64.3c-0.3-0.3-0.3-0.8,0-1.6C9.4,63,8.8,63.8,8.5,65c-0.2,1.2,0.3,2,1.5,2.3c0-1.1,0.3-1.5,1-1.2c0.7,0.3,1,0.1,1-0.7
	c0.2-0.3,0.1-0.4-0.2-0.3c-0.3,0.1-0.5,0-0.5-0.3c0.3-0.8,0.8-1.2,1.4-1.2c0-0.6-0.1-0.9-0.3-0.9c-0.2,0-0.5,0.1-0.7,0.2
	c-0.2,0.2-0.5,0.4-0.8,0.7C10.7,63.9,10.4,64.2,10.3,64.3z M9.4,94.8c0-0.2-0.2-0.4-0.5-0.7c0,0.2-0.1,0.3-0.2,0.5
	c0.2,0,0.3,0,0.3,0.1C9.1,94.8,9.2,94.8,9.4,94.8z M8.7,108.4c0.5,0,0.7,0.2,0.7,0.7C8.9,109.1,8.7,108.9,8.7,108.4z M8.7,160.4
	c0.5,0,0.6-0.1,0.3-0.3C8.8,159.8,8.7,159.9,8.7,160.4z M8.9,37.3c0.8,0.3,1.2,0.3,1.4,0C9.5,36.5,9,36.5,8.9,37.3z M9.1,127.1
	c-0.3,1.4,0,2,0.9,1.8c0.9-0.2,1.3-0.6,1.2-1.4c-0.3-0.3-0.6-0.5-0.9-0.7C10,126.7,9.6,126.8,9.1,127.1z M10.3,151.6
	c0.3,0,0.5-0.2,0.5-0.5c0-0.3,0-0.6,0-0.9c0-0.5-0.1-0.7-0.3-0.6c-0.2,0.1-0.5,0.1-0.8,0.1c0,0.5-0.2,1-0.5,1.5
	C8.8,151.8,9.2,151.9,10.3,151.6z M9.4,119.5c0.6,0.2,1.1,0.3,1.5,0.3c0.4,0.1,0.7,0.4,1,1c-0.6,0.6-1.3,0.7-2.1,0.3
	C9,120.8,8.9,120.3,9.4,119.5z M9.6,88.1c-0.5,0.3-0.6,0.7-0.3,1c0.2,0.4,0.5,0.7,0.8,0.8c0-0.3,0.1-0.6,0.2-0.9
	C10.4,88.7,10.2,88.4,9.6,88.1z M9.6,19.5c0,0.2-0.1,0.3-0.2,0.3c-0.2,0.1-0.2,0.2-0.2,0.3c0.3,0.3,0.5,0.3,0.7,0
	C10,19.9,9.9,19.7,9.6,19.5z M10.7,86.2c0.5-0.5,1.1-0.5,1.8-0.2c0.8,0.3,1.3,0.1,1.6-0.7c-1.2,0.2-1.9-0.2-2.1-1.2
	c-0.2-0.9-0.2-1.8-0.2-2.8c-0.2-1.1-0.7-1.8-1.6-2.1c-0.9-0.3-1.2,0.2-0.7,1.6H10h0.7c0.2,0.6,0,0.9-0.5,0.8c-0.5-0.1-0.8,0-1.2,0.3
	c0.3,0.3,0.9,0.7,1.7,1.2c0.8,0.5,1.1,0.9,0.8,1.4c-0.5-0.5-0.8-0.4-1.2,0.2C10.2,85.5,10.3,85.9,10.7,86.2z M9.4,102.2
	c-0.3,0.5-0.2,0.7,0.2,0.6c0.5-0.1,0.6-0.3,0.5-0.6H9.4z M9.6,143.3c-0.2,0.6,0.1,1.1,0.7,1.4c0.6,0.3,1.2,0.4,1.8,0.2
	c-0.3-0.3-0.3-0.6,0-0.8c0.3-0.2,0.4-0.5,0.2-0.8C11.1,143,10.2,143,9.6,143.3z M9.6,17.2c0,0.6,0.2,1,0.5,1.2
	c0.3,0.2,0.6,0.2,0.8,0.1c0.2-0.1,0.3-0.3,0.2-0.7c-0.1-0.4-0.4-0.8-1-1.3C10,16.7,9.9,16.9,9.6,17.2z M9.6,124.1
	c0,0.8,0.3,1.2,0.9,1.2c0.6,0,0.8,0.4,0.5,1.2c1.1,0,1.4-0.5,0.9-1.6C11.4,123.7,10.7,123.5,9.6,124.1z M9.8,94.1
	c0.3,0.3,0.7,0.3,1-0.1c0.4-0.4,0.3-0.7-0.3-1c-0.2,0.3-0.3,0.5-0.6,0.5C9.7,93.4,9.7,93.6,9.8,94.1z M10.7,114.9
	c0.2-0.3,0.1-0.5-0.1-0.7c-0.2-0.2-0.4-0.1-0.6,0.2C10.7,114.7,10.9,114.9,10.7,114.9z M11,24.1c-0.5,0.6-0.5,0.7,0,0.2
	c0.5-0.5,0.5-0.6,0-0.5V24.1z M12.6,14c0.2-1.2-0.2-1.5-1-0.8c-0.8,0.7-1,1.3-0.6,2c0.3-0.2,0.6-0.3,0.8-0.6
	c0.2-0.2,0.5-0.3,0.8-0.1c0,0.6,0.2,1,0.7,1.2c0.3-0.6,0.4-1,0.2-1C13.4,14.5,13,14.3,12.6,14z M11.9,48.4c0.2,0.5,0,0.8-0.5,0.9
	c-0.5,0.2-0.7,0.4-0.7,0.7c0,0.3,0.3,0.8,0.8,1.6c0.5,0.8,1,1.2,1.3,1.2c0.3-0.5,0.3-0.9-0.1-1.4c-0.4-0.5-0.6-1-0.6-1.6
	c0.2-0.2,0.4-0.5,0.7-0.9C13.1,48.4,12.8,48.2,11.9,48.4z M12.4,113c-0.2-0.5-0.2-0.9-0.2-1.4c-0.3,0-0.6,0.2-0.9,0.5
	c-0.3,0.3-0.5,0.6-0.5,0.9c0.3,0.3,0.6,0.4,0.8,0.2C11.8,113.1,12,113,12.4,113z M11,56.2c0,0.8,0.1,1.2,0.2,1.3
	c0.2,0.1,0.3,0,0.6-0.2c0.2-0.2,0.4-0.5,0.5-0.8c0.1-0.3-0.1-0.5-0.6-0.5C11.7,56.5,11.4,56.5,11,56.2z M13,68.5
	c0.2-0.8-0.1-1.1-0.7-0.9c-0.6,0.2-1,0.5-1.2,0.9C12,68.8,12.6,68.8,13,68.5z M12.6,44.9c-0.3-0.6-0.5-0.4-0.6,0.6
	c-0.1,1-0.3,1.6-0.6,1.7c0.3,0.3,0.7,0.5,1.2,0.7c0.5,0.2,0.7-0.2,0.7-0.9c-0.9,0-1.2-0.2-0.8-0.7C12.8,45.8,12.9,45.4,12.6,44.9z
	 M12.1,39.6c0.6,0.3,1,0.6,1.2,0.9c-0.9,0.6-1.5,1.3-1.6,2.1c0.8,0,1.9-0.2,3.5-0.5c0.2-0.6,0-0.9-0.5-0.9c-0.5,0-0.8-0.2-1.2-0.5
	c0.6-0.6,0.9-1.1,0.8-1.5c-0.1-0.4-0.3-0.6-0.7-0.7c-0.4-0.1-0.8,0-1.2,0.1C12.1,38.8,12,39.1,12.1,39.6z M11.9,18.4
	c0,0.8,0.2,1,0.6,0.7C12.8,18.8,12.7,18.5,11.9,18.4z M13.7,128.7c0-0.6-0.2-1.1-0.7-1.5c-0.5-0.4-0.8-0.4-1.2-0.1
	C12.5,128,13.1,128.6,13.7,128.7z M12.1,153.9c0.3,0.3,0.5,0.3,0.5,0C12.6,153.6,12.4,153.6,12.1,153.9z M13.3,82.1
	c0.3-0.3,0.7-0.5,1.2-0.5c0.5,0,0.7-0.3,0.7-0.9c-0.8-0.2-1.1-0.7-1-1.5c0.1-0.8-0.5-1.3-1.7-1.3c-0.2,0.3,0.1,0.6,0.7,0.9
	C12.6,79.9,12.7,81,13.3,82.1z M12.6,73.8c0.5,0,0.7,0.1,0.6,0.3c-0.1,0.2-0.3,0.3-0.8,0.3c0-0.2,0-0.3,0.1-0.3
	C12.5,74,12.6,73.9,12.6,73.8z M12.4,101.7c0.8-0.6,1.3-0.5,1.7,0.2c0.4,0.8,0,1.1-1.3,0.9c-0.2-0.3-0.3-0.5-0.3-0.6
	C12.4,102.2,12.4,102,12.4,101.7z M13.5,141c-0.3,0-0.5-0.1-0.7-0.2c-0.2-0.2-0.3-0.1-0.5,0.2c0.2,0,0.4,0.1,0.7,0.2
	C13.4,141.3,13.5,141.3,13.5,141z M12.6,36.1c0.3,0.2,0.5,0.4,0.5,0.8c0,0.4,0.3,0.5,0.9,0.3c0.3-0.3,0.2-0.7-0.2-1
	C13.3,35.9,12.9,35.8,12.6,36.1z M13.5,147c-0.8-0.3-1-0.2-0.7,0.5C13.3,147.4,13.5,147.3,13.5,147z M14,65.2
	c-0.3-0.2-0.5-0.3-0.6-0.5c-0.1-0.2-0.3-0.1-0.6,0.2c-0.2,0.3,0,0.5,0.5,0.6C13.7,65.7,14,65.5,14,65.2z M13.3,83
	c-0.3,0.3-0.4,0.6-0.3,0.8c0.1,0.2,0.3,0.3,0.8,0.3C13.7,83.6,13.6,83.2,13.3,83z M14,144.7c0.3,0,0.7,0,1-0.1
	c0.4-0.1,0.6-0.3,0.6-0.8c-0.8,0-1.2-0.3-1.3-0.9c-0.1-0.6-0.5-0.8-1.3-0.7c0,0.5,0.1,0.9,0.3,1.3C13.6,143.8,13.8,144.2,14,144.7z
	 M14.2,153.2c0.3-0.9-0.1-1.2-1.2-0.9c0,0.2,0,0.4,0.1,0.7c0.1,0.3,0,0.5-0.1,0.5v0.2v-0.2c0.3,0,0.5,0,0.7-0.1
	C13.9,153.2,14,153.2,14.2,153.2z M14.9,31.8c-0.3-0.3-0.7-0.3-1-0.1c-0.4,0.2-0.6,0.6-0.6,1c0.3,0.2,0.7,0.1,1-0.1
	C14.7,32.3,14.9,32.1,14.9,31.8z M16,70.8c0.6,0,0.6,0.2,0,0.5c-0.3,0.6-0.5,1-0.5,1.2c-0.2,0.5-0.5,1-0.9,1.6
	c-0.5,0.6-0.9,0.5-1.4-0.2c0-0.3,0.2-0.6,0.7-0.9c0.5-0.3,0.7-0.6,0.6-0.9c-0.1-0.3-0.1-0.6-0.1-0.9c0-0.2,0.1-0.5,0.3-1.2
	c0.2-0.6,0-0.8-0.6-0.7c0.5-0.8,1.1-1.2,1.8-1.4c-0.2,0.5-0.2,1,0,1.6c0.2,0.3,0.1,0.6-0.2,0.8c-0.3,0.2-0.2,0.3,0.5,0.3L16,70.8z
	 M14,86.9c0,0.3-0.1,0.4-0.3,0.3c-0.2-0.1-0.3,0-0.3,0.1c0.3,0.3,0.6,0.3,0.8,0.1C14.3,87.3,14.3,87.1,14,86.9z M13.5,93.6
	c0.2-0.3,0.5-0.5,0.9-0.6c0.5-0.1,0.8,0,1.2,0.3C15.3,93.9,14.6,93.9,13.5,93.6z M16.5,46.1c-0.3,0-0.7,0-1.3,0.1
	c-0.5,0.1-1-0.1-1.5-0.6c-0.2,1.1,0.2,1.7,1,1.7C15.6,47.4,16.2,47,16.5,46.1z M14,43.5c0.3,0.5,0.6,0.6,0.9,0.5
	c0.2-0.5,0-0.7-0.3-0.8C14.2,43.1,14,43.2,14,43.5z M14,55.5c0.8,0,0.9,0.2,0.5,0.7c0.6,0.3,1,0.2,1.2-0.2c-0.6,0.2-0.9-0.2-0.9-0.9
	c0-0.8-0.2-1.2-0.7-1.2V55.5z M15.8,27.8c0-0.6-0.2-1-0.6-1c-0.4-0.1-0.7,0-1,0.3C14.5,28.4,15,28.6,15.8,27.8z M15.6,51.2
	c-0.2-0.5-0.2-0.8-0.2-1S15,49.8,14.2,50c0.3,0.3,0.5,0.6,0.6,0.8C14.9,51,15.1,51.2,15.6,51.2z M14.9,128.7c0-0.3-0.2-0.4-0.7-0.2
	v0.2H14.9z M15.4,118.6c-0.9-0.3-1.2-0.1-0.9,0.7C14.7,119.3,15,119,15.4,118.6z M14.9,102.4c0.6,0.2,1,0.5,1.3,1
	c0.2,0.5,0.3,1,0.1,1.3C15,104.4,14.6,103.6,14.9,102.4z M15.4,39.1c0.2,0.3,0.1,0.6-0.1,0.9c-0.2,0.3-0.3,0.6-0.3,0.9
	c0.2,0.3,0.4,0.4,0.8,0.2c0.4-0.2,0.7-0.1,0.8,0.2c-0.6-0.2-1,0.2-1,0.9c-0.1,0.8,0.3,1.2,1,1.2c0.2-0.3,0.2-0.6,0-0.9
	c-0.2-0.3-0.2-0.6,0-0.9c0.8,0.3,1.3,0.2,1.6-0.2c-0.3-0.6-0.6-1.1-0.9-1.4c-0.5-0.6-0.7-1-0.6-1C16.7,39,16.3,39,15.4,39.1z
	 M14.9,53.5c0.3,0.2,0.6,0.3,0.8,0.5c0.2,0.2,0.5,0,0.8-0.5c-0.6-0.6-1.2-1.1-1.6-1.4V53.5z M15.1,90.6c0.2-0.3,0.3-0.3,0.6-0.1
	c0.2,0.2,0.3,0.5,0.1,0.8c-0.3,0.2-0.4,0.1-0.3-0.2C15.5,90.8,15.4,90.6,15.1,90.6z M19.7,153.7c0.3,0.3,0.7,0.5,1.2,0.5
	c0-0.8,0-1.1-0.1-0.9c-0.1,0.2-0.4,0.2-1,0c-0.5-0.2-0.5-0.4-0.1-0.7c0.4-0.3,0.6-0.6,0.6-0.9c-0.8-0.2-1-0.1-0.8,0.2
	c0.2,0.3,0,0.3-0.8,0c-0.5-0.2-0.9-0.2-1.4,0c-0.3-0.2-0.6-0.4-0.8-0.7c-0.2-0.3-0.5-0.6-0.8-0.9c-0.3,0.5-0.5,1-0.5,1.7
	c0,0.7,0.2,1.3,0.7,1.7c0.3-0.3,0.7-0.5,1.2-0.5c0.5,0,0.8-0.3,0.9-0.9c1.2,0.3,1.5,0.8,0.9,1.4c-0.6,0.6-1.2,1-1.8,1.2
	c0.2,0.5,0.4,0.8,0.8,0.9c0.4,0.2,0.7,0.4,1,0.7c0-0.3,0.1-0.7,0.2-1.2C19.2,154.8,19.4,154.3,19.7,153.7z M15.6,131.3
	c-0.3,0.5-0.2,0.7,0.3,0.8c0.5,0.1,0.8,0,0.8-0.3c-0.3,0-0.5-0.1-0.6-0.2C16.1,131.3,15.9,131.3,15.6,131.3z M17.2,29.5
	c-0.3-0.3-0.6-0.6-0.8-0.8c-0.2-0.2-0.5,0-0.8,0.6C16.2,29.8,16.7,29.9,17.2,29.5z M15.8,129.9c-0.3,0.5-0.2,0.7,0.2,0.6
	c0.5-0.1,0.6-0.3,0.5-0.6H15.8z M17.4,56.7c-0.2,0-0.5,0.1-0.9,0.2c-0.5,0.2-0.7,0.4-0.7,0.7c0.6,0.8,1.1,1,1.4,0.7
	c0.3-0.3,0.5-0.8,0.7-1.4c0.2-0.6,0.2-1.3,0-2c-0.2-0.7-0.4-1-0.7-1c0,0.3-0.2,0.5-0.5,0.7c-0.3,0.2-0.5,0.5-0.5,0.9
	c0.3,0.3,0.6,0.5,0.8,0.6C17.3,56.2,17.4,56.4,17.4,56.7z M16,165c0.6,0,1.1-0.4,1.4-1.2c-0.3-0.3-0.7-0.3-1-0.1
	C16,163.9,15.9,164.4,16,165z M16.3,33.1c0.6,0,0.9-0.5,0.9-1.4c-0.3,0-0.6,0.2-0.9,0.5C16,32.5,16,32.8,16.3,33.1z M17.7,70.1
	c-0.9,0-1.3-0.3-1.2-0.9c0.2-0.6,0.4-1.1,0.7-1.4c0.6,0.2,0.8,0.4,0.6,0.8C17.5,69,17.5,69.5,17.7,70.1z M17.7,149.5
	c-0.2-0.3-0.4-0.4-0.7-0.3c-0.3,0.1-0.5,0.2-0.5,0.3c0.2,0.2,0.4,0.3,0.8,0.3C17.7,149.9,17.8,149.8,17.7,149.5z M16.7,70.5
	c0.3-0.2,0.7-0.1,1,0.2c0.4,0.3,0.7,0.3,1,0c0,0.5-0.2,0.9-0.5,1.3c-0.3,0.4-0.7,0.3-1.2-0.1c-0.2-0.2-0.3-0.4-0.5-0.8
	C16.6,70.7,16.6,70.5,16.7,70.5z M16.7,83c0.5-0.2,0.7,0.1,0.7,0.7c-0.2-0.2-0.3-0.2-0.6-0.2C16.6,83.5,16.6,83.3,16.7,83z
	 M18.4,36.1c0-0.3-0.2-0.5-0.7-0.7c-0.5-0.2-0.8-0.1-0.9,0.2c0.6,0.3,0.9,0.5,0.8,0.7C17.5,36.5,17.7,36.5,18.4,36.1z M21.1,52.3
	c0-0.2,0.2-0.4,0.5-0.7c0.3-0.3,0.5-0.6,0.7-0.9c0.2-0.3,0.2-0.5,0.1-0.7c-0.1-0.2-0.4-0.2-1,0c-0.6,0.2-1,0.1-1-0.1
	c-0.1-0.2-0.4-0.3-1-0.3c-0.5,0.2-0.8,0-1-0.5c-0.2-0.5-0.5-0.8-0.8-1.2c-0.5,0.3-0.7,0.7-0.7,1.2c0.8,0.8,1.6,1.1,2.5,0.9
	C19.4,51.1,20,51.8,21.1,52.3z M18.4,91.8c-0.2,0.3-0.3,0.5-0.6,0.6c-0.2,0.1-0.5,0.2-0.8,0.3C17.1,92.1,17.6,91.8,18.4,91.8z
	 M22.5,119c-0.5,0.5-0.7,1.1-0.7,1.8c-0.5,0-0.8-0.1-1-0.3c-0.2-0.2-0.5-0.3-0.8-0.3h-0.7l-0.2-0.9c-0.2-0.5-0.5-0.6-0.9-0.5
	c-0.5,0.2-0.8,0.1-1.2-0.2c0.3-0.8,0.8-1.2,1.5-1.2s1.3,0,2,0c-0.3,0.3-0.5,0.6-0.7,0.9c0.8,0.8,1,0.9,0.8,0.3
	c-0.2-0.5-0.2-1,0.1-1.3c0.8-0.6,1.4-0.7,2-0.3C23.2,117.5,23.1,118.1,22.5,119z M17.4,120.9c0.2,0.2,0.5,0.4,1,0.7
	c0.5,0.3,0.4,0.5-0.3,0.7c-0.8,0.2-1.1,0.1-1-0.2C17.2,121.7,17.3,121.3,17.4,120.9z M17.2,138.7c0.3-0.3,0.5-0.2,0.5,0.2
	s-0.2,0.5-0.5,0.2V138.7z M17.9,72.9c0.3,0,0.4,0.3,0.3,1c-0.1,0.7-0.3,0.9-0.8,0.6C17.4,73.7,17.6,73.2,17.9,72.9z M17.4,95.7
	c0.8-0.2,1,0,0.7,0.3c-0.3,0.4-0.4,0.7-0.2,1C17.6,96.5,17.4,96,17.4,95.7z M18.4,66.4c-0.8,0.2-1-0.2-0.7-0.9
	C18.3,65.8,18.5,66.1,18.4,66.4z M18.6,130.1c0.2-0.3,0.1-0.5-0.2-0.6c-0.3-0.1-0.5,0-0.7,0.1c-0.2,0.3-0.1,0.5,0.2,0.6
	C18.2,130.3,18.4,130.3,18.6,130.1z M17.7,85.1c0.5,0,0.6,0.1,0.3,0.3C17.8,85.7,17.7,85.6,17.7,85.1z M20,149.5
	c-0.2-0.8-0.5-1.1-1.2-1c-0.6,0.1-0.9,0.4-0.9,1c0.3,0.3,0.7,0.4,1,0.3C19.3,149.8,19.7,149.7,20,149.5z M19.5,45.8
	c-0.9-0.3-1.4,0-1.5,0.8c-0.1,0.8,0.1,1.2,0.6,1c0.2-0.3,0.6-0.6,1.3-0.9C20.5,46.5,20.4,46.2,19.5,45.8z M18.6,58.8
	c-0.3,0-0.5,0.2-0.5,0.5C18.4,59.2,18.6,59.1,18.6,58.8z M19,141.4c-0.2,0.6-0.3,1.2-0.5,1.6c-0.2,0.5-0.3,0.9-0.5,1.4
	c0.5,0.6,1.1,0.9,1.8,0.9c-0.2-0.3-0.3-0.6-0.3-0.9c-0.1-0.3-0.2-0.6-0.3-0.9c-0.2-0.6,0-1,0.3-1.3C20,142,19.8,141.7,19,141.4z
	 M19.3,94.6c-0.6,0.8-1,0.8-1,0.2c-0.1-0.6,0-1.1,0.3-1.4c0.5-0.3,0.6-0.9,0.5-1.8c-0.3-0.9-0.4-1.2-0.2-0.8
	c0.2,0.4,0.3,0.3,0.5-0.3c-0.3-0.2-0.5-0.4-0.6-0.8c-0.1-0.4,0-0.7,0.1-1c0.8,0.5,1.2,1.1,1.3,1.8c0.1,0.8,0.5,1.3,1.3,1.6
	c0,0.3-0.1,0.5-0.2,0.7c-0.2,0.2-0.3,0.4-0.5,0.7c-0.3,0.5-0.5,0.7-0.7,0.6C19.8,93.9,19.6,94.1,19.3,94.6z M22.7,144.4
	c-0.5,0-0.8-0.1-0.9-0.2c0.6,1.4,0.4,2.1-0.7,2.1c-0.6,0-1.1,0.2-1.4,0.5c-0.3,0.3-0.8,0.3-1.4,0c0,0.8,0.4,1.1,1.2,0.9
	c0.8-0.2,1.2,0,1.2,0.5c0.2,0.6,0.4,0.9,0.8,0.8c0.4-0.1,0.7-0.3,1-0.8c0.3-0.3,0.3-0.7,0-1c-0.3-0.4-0.3-0.9,0-1.5
	c0.3-0.3,0.8-0.6,1.4-0.9c0.6-0.3,0.8,0,0.7,0.9c-0.8,0-1,0.4-0.7,1.2h2.3c0.3-0.3,0.3-0.5,0-0.7c-0.3-0.2-0.5-0.4-0.5-0.7
	c0.5,0,0.9,0,1.4,0c0.5,0,0.8-0.3,1.2-0.9c-0.6-0.3-1.1-0.6-1.4-0.9c-0.3-0.3-0.8-0.4-1.4-0.2C24.9,143.4,24,143.8,22.7,144.4z
	 M18.8,52.5c-0.3,0-0.4,0.3-0.3,0.8c0.1,0.5,0.3,0.7,0.6,0.6c0.3-0.2,0.5-0.4,0.5-0.8C19.5,52.7,19.3,52.5,18.8,52.5z M20.7,101.5
	c-0.3,0.2-0.5,0.4-0.7,0.8c-0.2,0.4-0.4,0.7-0.7,1c-0.5-0.2-0.7-0.5-0.6-0.9c0.1-0.5,0.1-0.8,0.1-1.2c-0.5-0.9,0.1-1.5,1.6-1.8
	c-0.3-0.3-0.7-0.9-1-1.7c-0.4-0.8-0.1-1.1,0.8-0.8c-0.2-0.8-0.2-1.4,0-1.8c0.5,0,0.8,0.1,1,0.3c0.2,0.2,0.5,0.5,0.8,0.8
	c-0.8,0.2-1.1,0.5-0.9,0.9c0.2,0.5,0,0.8-0.5,1.2c0.3,0.3,0.8,0.6,1.4,0.9c0.6,0.5,0.9,0.6,0.8,0.3c-0.1-0.2,0.3-0.3,1-0.1
	c0.3,0.3,0.3,0.7,0,1.2c-0.3,0.5-0.1,0.6,0.7,0.5c-0.5,0.5-0.8,0.8-0.9,1.2c-0.3-0.3-0.6-0.4-0.9-0.3c-0.3,0.1-0.7,0.1-1.2,0.1
	C21.3,101.9,21,101.8,20.7,101.5z M20.4,65.5c0,1.1-0.5,1.5-1.6,1.4c0.2-0.3,0.3-0.6,0.3-0.9C19.2,65.6,19.7,65.5,20.4,65.5z
	 M18.8,72.6c0.2-0.3,0.4-0.3,0.7,0c0.3,0.3,0.4,0.6,0.2,0.9c-0.3,0.2-0.5,0.1-0.5-0.2C19.3,73,19.1,72.8,18.8,72.6z M21.1,55.8
	c-0.2-0.5-0.5-0.9-1-1.4c-0.5-0.5-0.7-0.3-0.3,0.5C19.9,55.5,20.4,55.8,21.1,55.8z M20.4,80.9c0.2-0.3,0-0.5-0.3-0.6
	c-0.4-0.1-0.5,0.1-0.3,0.6H20.4z M21.8,46.3c0.3-0.5,0.2-1.1-0.3-1.8c-0.5-0.8-1.1-0.8-1.7-0.2c0.3,0.5,0.5,0.9,0.7,1.4
	C20.6,46.1,21,46.3,21.8,46.3z M20,75.9c0.5,0,0.6,0.2,0.5,0.7C19.8,76.9,19.7,76.6,20,75.9z M25.5,70.5c0.3-0.2,0.7-0.2,1-0.2
	c0.4,0,0.7-0.2,1-0.5c0.3,0,0.6,0.1,0.8,0.3c0.2,0.2,0.5,0.3,0.8,0.3c-0.2,0.6-0.5,0.9-1.2,0.8c-0.6-0.1-1.1,0-1.4,0.3
	c-0.6,0.5-1.2,0.5-1.6,0.2c-0.5-0.3-0.7,0.1-0.7,1.2c-0.5,0-0.8-0.2-1.2-0.6c-0.3-0.4-0.6-0.7-0.9-1c-0.3-0.3-0.6-0.4-0.9-0.3
	c-0.3,0.1-0.6,0.6-0.9,1.5c-0.5,0-0.6-0.3-0.5-1c0.2-0.7,0.3-1.2,0.5-1.5c0.6,0.5,1.2,0.4,1.6-0.1c0.5-0.5,0.7-1,0.7-1.5
	c-0.3,0-0.7,0.1-1.3,0.2c-0.5,0.2-1,0.1-1.3-0.2c0.3-0.9,0.5-1.3,0.7-1.2c0.2,0.2,0.6,0.1,1.4-0.2c0-0.3-0.2-0.5-0.5-0.6
	c-0.3-0.1-0.4-0.3-0.2-0.6c0.6,0,1.2,0.2,1.6,0.5c0.5,0.3,1,0.3,1.6,0c0.2,0.3,0,0.5-0.3,0.7c-0.4,0.2-0.2,0.4,0.6,0.7
	c0.5,0.2,0.7,0.3,0.6,0.6c-0.1,0.2-0.3,0.5-0.7,0.7c-0.4,0.2-0.8,0.5-1.2,0.7c-0.4,0.2-0.7,0.3-0.8,0.3c0.2,0.5,0.6,0.8,1.4,1.2
	C25.1,71.5,25.5,71.3,25.5,70.5z M20.9,104.3c-0.6,0.3-0.9,0.3-0.8-0.1c0.1-0.4,0-0.6-0.1-0.6c0.2-0.3,0.3-0.3,0.6-0.1
	C20.8,103.7,20.9,103.9,20.9,104.3z M20.7,158c-0.3,0-0.5,0.2-0.6,0.5c-0.1,0.3,0,0.5,0.3,0.5C20.7,158.7,20.8,158.4,20.7,158z
	 M20.9,27.1c-0.5,0-0.7,0.2-0.7,0.6c0,0.4,0.1,0.6,0.2,0.6C21,28,21.2,27.6,20.9,27.1z M22,122.5c-0.3,0.3-0.6,0.5-0.9,0.5
	c-0.3,0-0.6,0.2-0.9,0.5c0.2-0.3,0.2-0.5,0.2-0.7c0-0.2,0.1-0.3,0.2-0.5C21,122.1,21.4,122.2,22,122.5z M22.7,110
	c-0.3,0.5-0.8,0.6-1.5,0.3c-0.7-0.2-1-0.7-0.8-1.5c0.6,0.3,1,0.5,1.2,0.7C21.7,109.7,22.1,109.9,22.7,110z M20.4,163.8
	c-0.2,0.8,0.2,1.2,0.9,1.3c0.8,0.1,1.2-0.3,1.4-1c-0.3,0-0.7-0.1-1-0.3C21.3,163.5,20.9,163.5,20.4,163.8z M24.4,154.1
	c0.2-0.8,0-1.1-0.6-1c-0.5,0.1-1-0.2-1.3-0.8c0.6-0.2,0.9-0.5,0.8-0.9c-0.1-0.5-0.3-0.8-0.8-1.2c-0.5-0.3-0.9-0.5-1.4-0.5
	c-0.5,0-0.7,0.4-0.7,1.2c0.5,0.9,0.8,1.6,1,2c0.2,0.4,0,1.1-0.6,2.2c0.3,0.2,0.8,0.2,1.4,0.2c0-0.3-0.2-0.6-0.5-0.8
	c-0.3-0.2-0.3-0.5,0-0.8c0.5,0,0.8,0,0.9,0c0.2,0,0.2,0.3,0.2,0.9c0.2,0.8,0.4,1,0.8,0.8C24.2,155.2,24.4,154.7,24.4,154.1z
	 M20.7,139.6c0,0.3,0,0.6-0.1,0.9c-0.1,0.3,0,0.5,0.3,0.7c0.3-0.2,0.4-0.5,0.3-0.9C21.2,139.8,21,139.6,20.7,139.6z M21.4,29.2
	c-0.6,0.3-0.7,0.5-0.2,0.5C21.6,29.7,21.7,29.5,21.4,29.2z M21.1,80c-0.2,0.3,0,0.5,0.3,0.5c0.4,0,0.6-0.2,0.6-0.5
	c-0.3-0.3-0.5-0.4-0.5-0.2C21.6,79.9,21.4,80,21.1,80z M21.1,104.3c0.5-0.6,1-0.7,1.6-0.2c0.6,0.5,1,1,1.2,1.6
	c0.2,0,0.6-0.2,1.4-0.6c0.8-0.4,0.9-0.2,0.5,0.6c-0.3,0.6-0.8,0.9-1.4,0.9c-0.6,0-1.1,0.3-1.4,0.9c0,0.2,0.2,0.5,0.6,1.2
	c0.4,0.6,0.1,0.7-0.8,0.2c-0.3-0.2-0.7-0.5-1-1.2c-0.4-0.6-0.6-1.2-0.6-1.6c0.3-0.2,0.6,0,0.9,0.5c0.3,0.3,0.5,0.4,0.7,0.2
	c0.2-0.2,0.4-0.3,0.7-0.5c-0.2-0.6-0.5-1-1-1C21.9,105.2,21.4,104.9,21.1,104.3z M22.5,142.8c-0.6-0.6-1.1-0.5-1.4,0.5
	C21.6,143.7,22,143.6,22.5,142.8z M21.8,159.4c-0.3,0-0.5,0.2-0.7,0.5C21.6,159.9,21.8,159.7,21.8,159.4z M22.3,43.3
	c-0.3-0.2-0.5-0.1-0.6,0.1c-0.1,0.2-0.2,0.4-0.3,0.6C21.7,44.2,22,43.9,22.3,43.3z M21.4,86.9c0.6,0,1-0.2,1-0.5
	c0.1-0.3,0-0.6-0.1-0.9c-0.2-0.3-0.3-0.4-0.6-0.2C21.5,85.5,21.4,86,21.4,86.9z M21.8,151.3c0.2,0.2,0.3,0.2,0.5,0.1
	c0.2-0.1,0.2,0,0.2,0.3C21.7,152.1,21.5,152,21.8,151.3z M21.8,97.6c-0.2-0.3-0.2-0.5,0-0.5c0.2,0,0.3-0.2,0.5-0.5
	c0.3,0.3,0.5,0.6,0.5,0.9C22.7,97.9,22.4,97.9,21.8,97.6z M22.5,89.2c-0.3,0.2-0.5,0.2-0.5,0c0-0.2-0.1-0.2-0.2-0.2
	c0-0.3,0.1-0.4,0.3-0.3C22.4,88.7,22.5,88.9,22.5,89.2z M21.8,157.4c0,0.3,0,0.7,0.1,1.2c0.1,0.5,0.3,0.8,0.6,1.2
	c-0.3-0.3-0.5-0.2-0.5,0.2c0.9,0,1.2-0.3,0.9-1C22.7,158.2,22.3,157.7,21.8,157.4z M22.5,49.5c-0.2-0.3-0.2-0.6-0.1-0.8
	c0.1-0.2,0-0.3-0.3-0.1C22,49.1,22.2,49.4,22.5,49.5z M22,113c0.8,0,1.2,0.2,1.3,0.7c0.1,0.5,0,0.8-0.1,1c-0.2,0.2-0.4,0.3-0.7,0.1
	C22.2,114.7,22,114.1,22,113z M22.5,124.6c-0.8,1.4-0.5,2.5,0.7,3.2C24.3,126.7,24,125.6,22.5,124.6z M23.2,161.5
	c-0.2-0.5,0-0.7,0.5-0.8c0.5-0.1,0.7-0.3,0.7-0.8c-0.3,0.2-0.6,0.3-0.9,0.3c-0.3,0.1-0.6,0-0.9-0.3c0,0.3-0.1,0.5-0.2,0.7
	c-0.2,0.2-0.2,0.4,0,0.7c0.3-0.2,0.5-0.2,0.5,0C22.7,161.4,22.9,161.5,23.2,161.5z M24.4,44.5c0.3-0.9,0-1.7-0.9-2.4
	c-0.9-0.7-1.2-0.4-0.9,0.8C23.7,42.8,24.4,43.4,24.4,44.5z M25.7,141.7c-0.8-0.3-1.5-0.5-2.2-0.6c-0.7-0.1-1,0.5-1,1.7
	c0.8-0.2,1.5-0.1,2.1,0.1C25.2,143.2,25.6,142.7,25.7,141.7z M22.7,34.1v1.2c0,0.3,0.1,0.6,0.2,0.9c0.2-0.3,0.5-0.5,1.2-0.5
	C23.8,35.2,24,35,24.6,35c0.9,0.6,1.9,0.8,3,0.7c0-0.3,0-1,0.1-2.2c0.1-1.2-0.1-1.7-0.6-1.7c0.3,0,0.3,0.5-0.1,1.4
	c-0.4,0.9-1,1.4-2,1.4c-0.2-0.3-0.5-0.6-1.2-0.9c0,0.5-0.1,0.6-0.3,0.5C23.3,33.9,23,33.9,22.7,34.1z M26.4,130.3
	c0.3-0.3,0.3-0.5,0-0.7c-0.3-0.2-0.7-0.2-1.3-0.2c-0.5,0-1.3,0-2.4,0c0.2,0.6,0.7,1.2,1.6,1.8c-0.2-0.8,0-1,0.6-0.8
	C25.5,130.7,26,130.7,26.4,130.3z M24.8,49.8c0-0.3-0.2-0.6-0.7-0.8c-0.5-0.2-0.8-0.2-1.2,0.1C23.4,49.5,24,49.8,24.8,49.8z
	 M23.2,67.1c0,0.3-0.1,0.5-0.2,0.7c0.5,0,0.7-0.1,0.7-0.2L23.2,67.1z M24.6,149c0.2-0.5,0-0.8-0.3-1.2c-0.4-0.3-0.7-0.3-1,0
	c0.3,0.3,0.5,0.6,0.6,0.8C23.9,148.9,24.1,149,24.6,149z M26.2,125.3c-0.3-0.2-0.2-0.7,0.3-1.5c0.5-0.8,0.9-1.3,1-1.5
	c0.3,0.5,0.7,0.6,1.2,0.5c0.5-0.2,0.8-0.3,1.2-0.5c0.6,0,1-0.2,1.3-0.7c0.2-0.5,0.7-0.8,1.5-0.9c-0.2-0.3-0.4-0.5-0.7-0.7
	c-0.3-0.2-0.6-0.3-0.8-0.6c-0.2-0.2-0.3-0.5-0.3-0.7c0-0.2,0.2-0.7,0.5-1.3c0.6-0.9,0.3-1.5-0.8-1.6c-1.2-0.2-2-0.1-2.7,0.2
	c0,0.9,0,1.6,0,2c0,0.4,0,0.7-0.1,0.8c-0.1,0.2-0.3,0.1-0.6-0.2c-0.3-0.3-0.5-0.6-0.7-0.8c-0.2-0.2-0.4-0.3-0.7-0.3
	c-0.3,0.6-0.6,1.2-0.9,1.6c-0.3,0.5-0.6,1-0.9,1.6c-0.5,0.9-0.5,1.6,0,2.1c0.5,0.5,0.6,0.8,0.5,1.2c-0.2,0.3-0.2,0.7-0.2,1.2
	c0.3,0.8,0.5,1.3,0.5,1.5c0,0.2,0.4,0.5,1.2,0.8c0.8,0.3,1.3,0.2,1.6-0.2c0.3-0.5,0.6-1,0.9-1.6c-0.3-0.3-0.7-0.4-1-0.3
	C26.9,125.2,26.5,125.3,26.2,125.3z M25.3,47c0.3-0.5,0.2-0.9-0.2-1.3c-0.5-0.4-0.8-0.7-1.2-1c-0.3,0.6-0.2,1.1,0.2,1.4
	C24.6,46.4,25,46.7,25.3,47z M30.4,121.1c-0.5,0.3-1,0.5-1.7,0.7c-0.7,0.2-1.3,0.1-1.7-0.2c-0.3-0.2-0.5-0.4-0.5-0.8
	c0-0.4-0.2-0.4-0.7-0.1c-0.3,0.3-0.4,0.6-0.3,0.8c0.1,0.2,0,0.5-0.3,0.8c-0.5,0.2-0.7,0.1-0.7-0.2c0-0.3,0.1-0.7,0.3-1
	c0.2-0.4,0.5-0.8,0.7-1.2c0.2-0.4,0.3-0.7,0.3-0.8c0.3-0.2,0.6,0,0.9,0.3c0.3,0.4,0.5,0.3,0.7-0.3c0.6,0.5,1.3,0.7,2.1,0.8
	C30.2,119.9,30.5,120.3,30.4,121.1z M24.6,83.2c0.5-0.3,0.9-0.3,1.3,0.1c0.4,0.4,0.4,0.7,0.1,1C25.4,84.6,24.9,84.2,24.6,83.2z
	 M30.6,152.7c0-0.8-0.1-1.2-0.3-1.2c-0.2,0-0.7,0-1.5,0c-0.2-0.8-0.5-1.4-0.9-1.8s-1-0.9-1.6-1.4c-0.5,0.5-0.8,0.8-1.2,1.2
	c-0.3,0.3-0.3,0.8,0,1.6c0.3,0.6,0.5,1.3,0.6,2.1c0.1,0.8,0.4,1.4,1,1.8c0.2-0.3,0.7-0.6,1.6-0.9c0.9-0.3,1.2-0.6,0.7-0.9
	c-0.8-0.5-0.7-0.7,0.1-0.7C29.9,152.5,30.4,152.6,30.6,152.7z M27.6,80c0.8-0.8,0.9-1.1,0.3-0.9c-0.5,0.2-1,0.2-1.3,0.2
	c0-0.3-0.1-0.6-0.2-0.9c-0.2-0.3-0.4-0.5-0.7-0.5c0,0.5-0.2,0.9-0.6,1.4c-0.4,0.5-0.4,0.9-0.1,1.4c0.6-0.5,1.1-0.6,1.5-0.3
	C26.9,80.6,27.3,80.5,27.6,80z M26.7,47.9c-0.3-0.3-0.6-0.3-0.9,0c-0.3,0.3-0.5,0.6-0.7,0.9c0.3,0.5,0.7,0.6,1,0.3
	C26.5,49,26.7,48.5,26.7,47.9z M27.1,26.2c-0.3-0.2-0.5-0.3-0.7-0.3c-0.2-0.1-0.5-0.1-0.9-0.1c0,0.3,0.3,0.5,0.8,0.7
	C26.9,26.6,27.1,26.5,27.1,26.2z M27.1,42.1c-0.3-1.2-0.3-1.6-0.1-1.2c0.2,0.5,0.7,0.6,1.5,0.5c-0.5-0.9-0.7-1.8-0.7-2.8
	c-0.2,0.6-0.5,0.8-1,0.7c-0.5-0.2-1-0.4-1.3-0.7c0,0.3,0.2,0.6,0.5,0.8c0.3,0.2,0.5,0.6,0.5,1c-0.9,0.9-1,1.6-0.2,2.1
	C27,43.1,27.3,42.9,27.1,42.1z M26.4,158.7c-0.2-0.3-0.2-0.5,0-0.5c0.2,0,0.2-0.2,0.2-0.5c-0.5-0.3-0.8-0.2-1,0.2
	C25.4,158.5,25.7,158.7,26.4,158.7z M26.2,149.5c0.8-0.3,0.9-0.1,0.5,0.7c-0.3,0.3-0.5,0.3-0.7,0.1
	C25.8,150.1,25.9,149.8,26.2,149.5z M27.1,55.3C26.4,55,26,55.2,26,56c0.3,0.3,0.6,0.3,0.8,0.1C27,55.9,27.1,55.6,27.1,55.3z
	 M26.2,28.8c0,0.5,0.2,0.6,0.5,0.5c0.3-0.2,0.5-0.4,0.5-0.7c-0.3-0.2-0.5-0.2-0.5,0C26.7,28.7,26.5,28.8,26.2,28.8z M27.8,104.9
	c-0.3,0.3-0.6,0.3-0.9,0c-0.3-0.3-0.5-0.6-0.6-0.9c-0.1-0.3,0-0.5,0.2-0.7c0.2-0.2,0.7,0,1.3,0.5c0.2,0.2,0.1,0.3-0.1,0.6
	C27.5,104.6,27.5,104.8,27.8,104.9z M26.4,128.5c0.8,0,1-0.2,0.8-0.5C27,127.7,26.7,127.9,26.4,128.5z M26.7,31.5
	c0.6,0,1-0.2,1.3-0.5c0.2-0.3,0.3-0.6,0.1-0.8C27.9,30,27.7,30,27.4,30C27,30.1,26.8,30.6,26.7,31.5z M27.4,101.9
	c0.2,0.3-0.1,0.5-0.7,0.5C26.7,102.1,26.9,101.9,27.4,101.9z M26.9,153.4c0-0.6,0.5-0.9,1.4-0.9C28.3,153.1,27.8,153.4,26.9,153.4z
	 M27.4,35.9c-0.2,0.3-0.1,0.5,0.2,0.6c0.3,0.1,0.5,0,0.5-0.3c-0.2,0-0.2,0-0.2-0.1C27.8,36,27.7,35.9,27.4,35.9z M28.7,86.2
	c0.6,0.3,0.7,0.8,0.3,1.6c-0.4,0.8-1,1-1.7,0.7c0-0.8,0.2-1.3,0.5-1.5C28.1,86.8,28.4,86.6,28.7,86.2z M28.5,141.2
	c-0.8,0.3-1.2,0.2-1.2-0.2s0.2-0.8,0.5-1.2c0.3-0.5,0.3-0.8-0.1-0.9c-0.4-0.2-0.4-0.4-0.1-0.7c0.5,0,0.9,0,1.3,0
	c0.4,0,0.6,0.3,0.6,0.9c-0.2,0.3-0.3,0.7-0.3,1C29,140.5,28.8,140.9,28.5,141.2z M28.7,47.5c-0.3,0-0.4-0.2-0.3-0.6
	c0.1-0.4-0.1-0.5-0.6-0.3c-0.2,0.6-0.1,1.2,0.1,1.6C28.2,48.6,28.4,48.4,28.7,47.5z M29.9,156c0.2-0.6-0.2-1-0.9-1.2
	c-0.8-0.2-1.1,0.2-0.9,0.9c0.3,0.3,0.6,0.4,0.9,0.2C29.3,155.8,29.6,155.8,29.9,156z M30.1,44.9c-0.2-0.5-0.6-0.7-1.4-0.7
	c-0.3,0.5-0.3,0.8,0,0.9c0.3,0.2,0.5,0.4,0.7,0.7c-0.3,0-0.5,0.2-0.6,0.5c-0.1,0.3-0.1,0.6-0.1,0.9c0.8-0.3,1.5-0.6,2.2-0.8
	c0.7-0.2,1-0.8,1-1.7c-0.5,0-0.8,0.2-1,0.7C30.7,45.8,30.4,45.7,30.1,44.9z M33.1,33.4c-0.8,0.8-1.6,0.9-2.5,0.5
	c-0.9-0.5-1.6-0.2-2.1,0.9c0.5,0.3,1,0.2,1.6-0.2c0.6-0.5,1.3-0.4,2.1,0.2c0.9,0.8,1.3,0.8,1.2,0.1C33.2,34.2,33.1,33.7,33.1,33.4z
	 M30.8,106.3c-1.5,0-2.3-0.5-2.3-1.4C29.9,105.3,30.7,105.7,30.8,106.3z M29.4,79.5c0-0.6-0.2-0.8-0.7-0.7c0,0.3,0.1,0.5,0.2,0.5
	C29.1,79.3,29.3,79.4,29.4,79.5z M28.7,149c0.2,0.9,0.3,1.3,0.6,1.3c0.2-0.1,0.4-0.3,0.5-0.7c0.1-0.4,0-0.7-0.1-0.9
	C29.5,148.5,29.2,148.6,28.7,149z M29.7,27.4c-0.3,0-0.5,0.2-0.6,0.5c-0.1,0.3,0,0.5,0.3,0.5c0-0.2,0-0.3,0.1-0.3
	C29.6,27.9,29.7,27.7,29.7,27.4z M30.1,56.2c0.3,0.3,0.3,0.6,0.1,0.9c-0.2,0.3-0.2,0.6,0.1,0.9c0-0.3,0.1-0.7,0.3-1.2
	c0.2-0.5,0.3-0.8,0.1-1.2c-0.3,0-0.7,0.2-1.3,0.5c-0.5,0.3-0.6,0.6-0.1,0.9c0.2-0.2,0.3-0.3,0.3-0.5C29.9,56.5,30,56.4,30.1,56.2z
	 M29.4,118.3c-0.3,0-0.4-0.2-0.2-0.5c0.2-0.3,0.2-0.5,0-0.7h0.7c0.2,0.3,0.2,0.5,0,0.6C29.7,117.8,29.6,118,29.4,118.3z M31.3,68.2
	c0.3,0.2,0.6,0.7,0.9,1.6c-0.3-0.2-0.5-0.1-0.7,0.2c-0.2,0.3-0.1,0.5,0.2,0.5c-0.3,0.2-0.6,0.4-0.8,0.7c-0.2,0.3-0.6,0.1-1-0.7
	c-0.3-0.3-0.5-0.7-0.5-1c0-0.4-0.1-0.7-0.2-1c0.3-0.2,0.7-0.2,1,0C30.6,68.6,31,68.5,31.3,68.2z M31.7,129c-0.8-0.8-0.7-1.5,0.3-2.1
	c1-0.6,1.9-0.8,2.7-0.7c-0.3-1.1-0.8-1.5-1.5-1.2c-0.7,0.3-1.3,0.7-1.7,1.2c-0.6-0.9-1.2-1-1.8-0.2c0.6,0.9,0.9,1.6,0.9,2.1
	c0.3,0.9,0.5,1.5,0.5,1.8c0.3,0,0.5-0.1,0.7-0.2c0.2,0.2-0.2,0.3-1.2,0.5c-0.9,0.2-1.4,0.4-1.4,0.7c0.5,0.2,0.9,0.2,1.3,0.2
	c0.4,0,0.8,0.1,1.3,0.2C32.7,130.7,32.7,129.9,31.7,129z M31.5,146.3c-0.3-0.3-0.7-0.3-1.3-0.1c-0.5,0.2-0.9,0.7-1,1.3
	c0.6,0.3,1.2,0.5,1.6,0.5c0-0.3-0.1-0.5-0.2-0.7c-0.2-0.2-0.2-0.4,0-0.7h0.5C31.4,146.5,31.5,146.4,31.5,146.3z M31.7,36.8
	c0.5,0.8,0.5,1.5,0.2,2.3c-0.3,0.8-1,0.9-2.1,0.5c-0.3,0.6-0.3,1.2,0,1.6c0.5-0.3,0.9-0.4,1.4-0.2c0.5,0.2,0.9,0.1,1.4-0.2
	c-0.2,0.6,0.3,0.9,1.4,0.9c0.8-0.2,0.8-0.4,0.1-0.8c-0.7-0.4-1.1-0.7-1.3-0.8c0-0.3,0.1-0.6,0.3-0.8c0.2-0.2,0.2-0.4-0.1-0.6
	c-0.8-0.3-0.9-0.6-0.5-0.8c0.5-0.2,0.7-0.5,0.7-0.8c-0.3,0-0.6-0.1-0.8-0.2C32.3,36.7,32.1,36.7,31.7,36.8z M30.1,35.5
	c-0.3,0.3-0.4,0.5-0.2,0.7c0.2,0.2,0.4,0.2,0.7,0.2c0.3,0,0.4-0.2,0.2-0.7C30.7,35.2,30.4,35.1,30.1,35.5z M30.1,54.2
	c0.2,0.3,0.3,0.4,0.6,0.3c0.2-0.1,0.3-0.3,0.1-0.6C30.4,53.8,30.1,53.8,30.1,54.2z M31.1,29.5c-0.5-0.5-0.7-0.4-0.7,0.2
	C30.8,30.1,31.1,30.1,31.1,29.5z M30.8,149.3c0.9,0.2,1.2,0,0.8-0.6c-0.4-0.5-0.7-0.7-0.8-0.3c0.3,0,0.4,0.1,0.2,0.3
	C30.9,148.9,30.8,149.1,30.8,149.3z M31.7,152.5c0.8,0.2,1.2-0.2,1.4-0.9c0.2-0.8,0-1.4-0.5-1.8c0.3,0.3,0.5,0.2,0.5-0.2h-2.1
	c0,0.3,0.1,0.5,0.3,0.6c0.2,0.1,0.4,0.3,0.6,0.6c0.3,0.2,0.3,0.4,0.1,0.8C31.9,151.9,31.7,152.2,31.7,152.5z M31.3,26.2
	c-0.2,0.6-0.1,0.8,0.2,0.5C31.8,26.4,31.7,26.2,31.3,26.2z M32.7,49.8c-0.3-0.2-0.6-0.2-0.9-0.1c-0.3,0.1-0.5,0.3-0.5,0.6
	c0.2,0.3,0.5,0.4,0.9,0.3C32.7,50.5,32.8,50.2,32.7,49.8z M31.5,140c0.5,0,0.6-0.1,0.3-0.3C31.6,139.5,31.5,139.6,31.5,140z
	 M31.7,146.7c0.3,0,0.5-0.1,0.5-0.2v0.9c0.5,0.2,0.7,0.1,0.7-0.1c0-0.2-0.1-0.5-0.3-0.7c-0.2-0.2-0.5-0.4-0.7-0.5
	C31.6,146.1,31.6,146.3,31.7,146.7z M31.7,43.1c0.2,0.6,0.4,0.8,0.8,0.7c0.4-0.2,0.7-0.4,0.8-0.7C33.1,42.8,32.5,42.8,31.7,43.1z
	 M32.7,124.3c0.3-0.5,0.2-0.7-0.2-0.7c-0.5,0-0.7,0.2-0.7,0.5c0.3,0,0.5,0.2,0.5,0.5C32.2,124.9,32.4,124.8,32.7,124.3z M32.9,142.8
	c0-0.8-0.4-1-1.2-0.7C31.7,142.6,32.1,142.8,32.9,142.8z M32.2,25.1c-0.2,0.8-0.1,1,0.2,0.7C32.7,25.5,32.7,25.2,32.2,25.1z
	 M32.9,80.5c-0.3,0-0.5-0.2-0.7-0.5c-0.2-0.3-0.1-0.6,0.2-0.9C33.2,79.5,33.4,80,32.9,80.5z M32.2,145.8c0.6,0,0.8-0.3,0.7-0.9
	C32.3,144.9,32.1,145.2,32.2,145.8z M33.4,33.1c-0.2-0.3-0.3-0.6-0.3-0.9c-0.1-0.3-0.3-0.5-0.8-0.7C32.2,32.3,32.6,32.8,33.4,33.1z
	 M32.9,141.2c0.2-0.3,0.3-0.5,0.3-0.6c0.1-0.1-0.2-0.1-0.8-0.1C32.1,141,32.3,141.2,32.9,141.2z M35,73.5c-0.5,0-1,0-1.7-0.1
	c-0.7-0.1-1,0.3-0.8,1.3c0.6,0.3,1.2,0.4,1.7,0.2C34.7,74.8,35,74.3,35,73.5z M32.4,59.9c0.3,0.2,0.5,0,0.5-0.3
	c0-0.4-0.2-0.5-0.5-0.3V59.9z M33.4,45.4c0.2-0.5,0-0.7-0.3-0.6c-0.4,0.1-0.5,0.3-0.3,0.6H33.4z M32.7,109.1c0.2,0,0.2,0,0.2,0.1
	c0,0.1,0.1,0.1,0.2,0.1c0-0.5-0.1-0.7-0.2-0.7C32.7,108.6,32.7,108.8,32.7,109.1z M32.9,56c0,0.8,0.1,1.1,0.3,0.9
	c0.2-0.2,0.4-0.3,0.5-0.6c0.1-0.2,0.1-0.5,0-0.7C33.6,55.4,33.4,55.5,32.9,56z M33.8,116.5c0-0.3-0.1-0.5-0.3-0.6
	c-0.2-0.1-0.4,0-0.6,0.3C33.4,116.6,33.7,116.6,33.8,116.5z M34.7,60.6c0.6-0.2,1.2-0.9,1.8-2.3c-1.5-0.6-2.7-0.3-3.5,0.9
	c0.3,0,0.7-0.1,1-0.2c0.4-0.2,0.7,0,0.8,0.5c0,0.3-0.1,0.5-0.3,0.6C34.4,60.1,34.4,60.3,34.7,60.6z M34.7,107.3
	c-0.3-0.2-0.6-0.3-0.8-0.5c-0.2-0.2-0.5-0.2-0.8-0.2c0,0.3,0,0.5,0.1,0.7c0.1,0.2,0.1,0.4,0.1,0.7C34,107.9,34.4,107.7,34.7,107.3z
	 M33.1,118.3h0.7l-0.5-0.5C33.4,118.2,33.3,118.3,33.1,118.3z M33.8,114.4c0.6,0,0.9-0.5,0.9-1.6c-0.5,0-0.8,0.2-1,0.6
	C33.5,113.8,33.5,114.1,33.8,114.4z M34.5,25.1c0-0.6-0.3-0.8-0.9-0.7C33.6,25,33.9,25.2,34.5,25.1z M33.6,62.7
	c0.2,0.3,0.3,0.4,0.6,0.2c0.2-0.2,0.3-0.4,0.3-0.7C33.9,62.2,33.6,62.4,33.6,62.7z M35.2,151.8c0.6-0.3,0.6-0.5,0-0.7
	c-0.6-0.2-1.1-0.2-1.4,0c-0.2,0.5,0,0.8,0.3,0.9C34.6,152.2,34.9,152.1,35.2,151.8z M34.1,33.1c0.5,0,0.7-0.4,0.7-1.2
	c-0.3,0-0.6,0.1-0.8,0.3C33.7,32.6,33.7,32.8,34.1,33.1z M33.8,111.2c0.6-0.3,1.2-0.6,1.8-0.8c0.6-0.2,1-0.7,1.2-1.5
	C35.3,109,34.3,109.8,33.8,111.2z M37.3,105.4c-0.3-0.3-0.7-0.5-1-0.6c-0.4-0.1-0.7-0.3-0.8-0.6c-0.2-0.5-0.4-0.7-0.7-0.6
	c-0.3,0.1-0.4,0.3-0.2,0.8c0.5,0.3,0.8,0.7,1,1.3c0.2,0.5,0.7,1,1.5,1.3C36.7,106.4,36.8,105.9,37.3,105.4z M35.4,53.2
	c0.2-0.9-0.1-1.4-0.7-1.4c-0.3,0.3-0.3,0.6-0.1,0.9C34.9,53.1,35.1,53.2,35.4,53.2z M35,55.8c0-0.3,0.1-0.4,0.2-0.3
	c0.2,0.1,0.2,0,0-0.3c-0.3,0-0.5,0.1-0.6,0.2C34.6,55.5,34.7,55.6,35,55.8z M34.7,61.5c-0.2,0.3-0.2,0.5,0,0.7
	c0.2,0.2,0.2,0.1,0.2-0.2c-0.2,0-0.2-0.1-0.1-0.2C34.9,61.6,34.9,61.5,34.7,61.5z M35.2,130.8c0.2-0.3,0.3-0.6,0.3-0.9
	c0.1-0.3,0.3-0.5,0.6-0.7c-0.5-0.3-0.8-0.2-1.2,0.2c-0.3,0.5-0.4,0.9-0.2,1.4H35.2z M35,82.1c-0.3,0.5-0.3,0.8,0,0.9
	c0.3,0.2,0.6,0.4,0.9,0.7C36.2,82.9,35.9,82.4,35,82.1z M34.7,124.3c0.5,0.2,0.7,0.1,0.8-0.2c0.1-0.3,0-0.6-0.1-0.8
	c-0.2-0.2-0.3-0.3-0.5-0.2C34.8,123.1,34.7,123.6,34.7,124.3z M35.2,75.2c-0.3,0.3-0.3,0.5,0,0.6c0.3,0.1,0.5,0,0.5-0.3
	c-0.2,0-0.2,0-0.2-0.1C35.4,75.2,35.4,75.2,35.2,75.2z M36.1,45.4c0-0.5-0.4-0.7-1.2-0.7C35,45.2,35.4,45.4,36.1,45.4z M36.1,107.3
	c-0.5,0-0.8,0.1-1.2,0.2v0.7C35.4,108.2,35.8,107.9,36.1,107.3z M35,118.1c0.5,0.3,1.3,0.6,2.5,0.8c1.2,0.2,1.8-0.3,1.6-1.5
	c-0.5,0-0.7,0.2-0.8,0.6c-0.1,0.4-0.3,0.3-0.8-0.1c-0.3-0.3-0.7-0.4-1.3-0.3C35.7,117.6,35.3,117.8,35,118.1z M35,143
	c0.5,0,0.7-0.2,0.7-0.6c0-0.4-0.2-0.5-0.7-0.3V143z M36.1,147.9c0.2-0.5,0-0.7-0.5-0.7c-0.5,0-0.7,0.2-0.7,0.5
	C35.3,148,35.7,148,36.1,147.9z M35.2,41.9c-0.3,0.6-0.2,1.2,0.2,1.6c0.6,0.2,0.9-0.1,0.9-0.8C36.4,42,36,41.8,35.2,41.9z
	 M35.2,111.4c-0.2,0.3,0,0.7,0.5,1.2c0.5,0.6,0.6,1,0.3,1c-0.2,0.1,0.2,0.1,1.3,0.1c0.3-0.8,0.3-1.5-0.1-2.3
	C36.8,110.6,36.1,110.6,35.2,111.4z M35.2,50.5c0.5,0,0.7-0.2,0.7-0.7C35.4,49.8,35.2,50,35.2,50.5z M35.9,33.6
	c-0.3,0.3-0.5,0.7-0.5,1.2s0.3,0.7,0.9,0.7c-0.2-0.3-0.2-0.7-0.1-1C36.3,34,36.2,33.8,35.9,33.6z M37.1,48.6c0-1.1-0.5-1.6-1.6-1.6
	c0.2,0.3,0.3,0.6,0.6,0.8c0.2,0.2,0.3,0.5,0.3,0.8H37.1z M35.4,53.7c0,0.5,0.3,0.7,0.9,0.7c0-0.5-0.2-0.8-0.5-1.2L35.4,53.7z
	 M35.4,87.4c1.2,0,1.5-0.3,0.9-0.9C35.7,85.9,35.4,86.2,35.4,87.4z M35.7,126.6c0.8,0,1.3-0.5,1.6-1.4c-0.3,0.2-0.7,0.2-1.3,0.1
	C35.5,125.3,35.4,125.7,35.7,126.6z M35.7,41.2c0.3,0.2,0.5,0,0.5-0.3c0-0.4-0.2-0.5-0.5-0.3V41.2z M36.4,144.4
	c0-0.3,0.1-0.6,0.2-0.9C35.5,143.5,35.4,143.8,36.4,144.4z M36.8,71.2c-0.6-0.2-0.8,0.2-0.7,0.9C36.6,72.2,36.8,71.9,36.8,71.2z
	 M37.5,62c-1.2,0-1.7,0-1.3,0c0.4,0,0.5,0.3,0.3,0.9C37.5,63.2,37.8,62.9,37.5,62z M36.4,69.4c0.3,0.2,0.6,0.3,0.8,0.5
	c0.2,0.2,0.5,0.1,0.8-0.2c-0.3-0.2-0.7-0.5-1.3-0.9C36.2,68.2,36.1,68.5,36.4,69.4z M36.7,24.8c0.2,0.2,0.3,0.1,0.3-0.2l-0.5-0.5
	C36.4,24.5,36.5,24.7,36.7,24.8z M36.8,72.6c0.3,0.6,0.5,0.7,0.5,0.2C37.3,72.4,37.1,72.3,36.8,72.6z M37.1,98.3c0,0.6,0,1-0.1,1.2
	c-0.1,0.2,0.2,0.2,0.8,0.2c0-0.8,0.2-1.5,0.5-2.1C37.6,97.9,37.2,98.1,37.1,98.3z M37.1,121.8c0.3,0,0.5-0.2,0.5-0.5
	c-0.2,0-0.3-0.1-0.5-0.2V121.8z M38.2,92.5c0-0.6-0.2-0.9-0.6-0.8c-0.4,0.1-0.5,0.3-0.3,0.8H38.2z M38.2,37.3c0-0.3-0.2-0.5-0.5-0.5
	c-0.3,0-0.5,0.2-0.5,0.5c0.3,0,0.5,0,0.5,0.1C37.7,37.5,37.9,37.5,38.2,37.3z M37.3,76.5c0.2,0.3,0.3,0.3,0.6,0.1
	c0.2-0.2,0.2-0.4-0.1-0.6L37.3,76.5z M37.3,84.2c0.5,0.3,0.7,0.2,0.8-0.5C38.2,83.1,37.9,83.2,37.3,84.2z M37.3,101.3
	c0.6-0.2,1.1-0.1,1.4,0.2c0.3,0.3,0.7,0.5,1.2,0.5c0.3-0.8,0.1-1.3-0.7-1.5C38.4,100.2,37.7,100.5,37.3,101.3z M37.5,143
	c-0.2,0.5,0,0.7,0.3,0.7c0.4,0,0.7-0.2,0.8-0.5C38.7,143.1,38.3,143,37.5,143z M38,47c0.5,0,0.7-0.1,0.6-0.2
	c-0.1-0.2-0.3-0.3-0.6-0.5V47z M39.8,64.3c-0.3-0.3-0.6-0.3-0.9,0c-0.3,0.3-0.5,0.6-0.7,0.9c0.6,0.5,1,0.5,1,0.1
	C39.3,65,39.5,64.6,39.8,64.3z M38.2,72.4c0.3,0,0.5-0.2,0.7-0.5c-0.2-0.2-0.4-0.2-0.7-0.2V72.4z M38.4,68.2
	c-0.3,0.3-0.2,0.4,0.2,0.2c0.5-0.2,0.6-0.3,0.5-0.5C38.7,67.5,38.4,67.6,38.4,68.2z M38.7,74.5c0.6-0.6,1.2-0.9,1.8-0.9
	c-0.3-0.2-0.5-0.3-0.7-0.6c-0.2-0.2-0.4-0.3-0.7-0.3C38.5,73.2,38.4,73.9,38.7,74.5z M38.7,56.7c-0.2,0.2-0.1,0.4,0.2,0.7
	c0-0.2,0-0.3,0.1-0.5C39.1,56.8,39,56.7,38.7,56.7z M38.9,39.4c0.8,0,0.9-0.2,0.5-0.5C38.9,38.6,38.7,38.8,38.9,39.4z M38.9,60.6
	c0.8,0,1-0.2,0.6-0.6C39.1,59.7,38.9,59.8,38.9,60.6z M40.3,126.2c0.3-0.3,0.2-0.5-0.2-0.7c-0.5-0.2-0.8-0.3-0.9-0.5
	c-0.3,0.8-0.2,0.9,0.2,0.5c-0.2,0.3-0.1,0.6,0.1,0.8C39.7,126.5,40,126.5,40.3,126.2z M39.8,76.1c-0.3,0-0.5,0-0.7-0.1
	c-0.2-0.1-0.2,0.2,0,0.8C39.3,76.8,39.5,76.5,39.8,76.1z M39.1,45.8c0.5,0.3,0.7,0.2,0.7-0.2C39.5,45.6,39.3,45.7,39.1,45.8z
	 M39.8,132.2c0.2-0.2,0.2-0.3,0.2-0.3c0-0.1,0.1-0.2,0.2-0.3c-0.2,0-0.3,0-0.6-0.1c-0.2-0.1-0.4-0.1-0.6-0.1
	C39.4,131.7,39.7,132,39.8,132.2z M39.8,69.4c-0.3,0-0.5,0.1-0.6,0.3c-0.1,0.2,0,0.4,0.3,0.6C39.6,69.9,39.7,69.5,39.8,69.4z
	 M41.2,122.7c0-0.3,0.1-0.5,0.3-0.7c0.2-0.2,0.3-0.5,0.1-0.9c-0.3,0.2-0.7,0.1-1.2-0.2c-0.5-0.3-0.8-0.3-1.2,0
	c0.2,0.5,0.4,0.8,0.8,1C40.6,122.1,40.9,122.4,41.2,122.7z M40.3,112.3c-0.3,0.3-0.3,0.6-0.1,0.8c0.2,0.2,0.5,0.3,0.8,0.3
	C41,113.2,40.7,112.8,40.3,112.3z M40.3,100.8c-0.2-0.3-0.1-0.5,0.2-0.5c0.3,0,0.5-0.2,0.5-0.5c-0.3-0.2-0.6-0.1-0.8,0.2
	C39.9,100.4,40,100.6,40.3,100.8z M41,81.9c-0.5-0.5-0.7-0.5-0.7,0c-0.2,0.3-0.1,0.5,0.2,0.5C40.8,82.3,41,82.2,41,81.9z M41,110.3
	c-0.5,0.6-0.4,0.8,0.1,0.7C41.6,110.8,41.6,110.6,41,110.3z M41.2,39.6c-0.3,0.3-0.3,0.6-0.1,0.9c0.2,0.3,0.5,0.3,0.8,0
	C41.9,39.9,41.7,39.6,41.2,39.6z M41.2,92.9c0-0.3,0.2-0.5,0.5-0.7c0.3-0.2,0.4-0.5,0.2-0.9c-0.3,0.2-0.6,0.4-0.8,0.7
	C40.9,92.3,40.9,92.6,41.2,92.9z M41.4,11.7c0,0.3-0.1,0.4-0.2,0.3c-0.2-0.1-0.2,0,0,0.3h0.5C41.8,12.2,41.7,12,41.4,11.7z
	 M42.6,76.5c0.2-0.6,0.1-0.9-0.2-0.8c-0.3,0.1-0.6,0-0.9-0.3c0,0.3-0.1,0.6-0.2,0.8c-0.2,0.2-0.1,0.5,0.2,0.8
	C41.9,77.3,42.3,77.2,42.6,76.5z M41.9,63.9c0,0.3-0.1,0.5-0.3,0.5c-0.2,0-0.3,0.2-0.3,0.5c0.5,0.2,0.5,0.3,0.1,0.5
	c-0.4,0.2-0.1,0.2,0.8,0.2c-0.2-0.3-0.1-0.7,0.1-1C42.5,64,42.4,63.9,41.9,63.9z M41.9,34.5c0,0.6,0.2,0.9,0.7,0.9
	C42.9,34.8,42.7,34.5,41.9,34.5z M41.9,71.5c0.3,0.3,0.7,0.5,1.2,0.5c-0.2-0.9-0.3-1.3-0.3-1.3C42.6,70.7,42.4,71,41.9,71.5z
	 M41.9,74c0.5-0.3,0.8-0.3,1,0.1c0.2,0.4,0.5,0.4,0.8,0.1c0.2-0.9,0-1.3-0.3-1.2c-0.4,0.2-0.9,0.2-1.5,0V74z M42.8,99.4
	c0-0.6-0.1-1-0.2-1c-0.2-0.1-0.3,0-0.3,0.1c-0.1,0.2-0.1,0.3,0,0.6C42.3,99.3,42.5,99.4,42.8,99.4z M43.5,60.8
	c-0.3,0-0.6,0.2-0.8,0.6c-0.2,0.4-0.3,0.7-0.1,0.8C43.2,62.2,43.5,61.8,43.5,60.8z M42.8,106.1c0.3,0,0.5-0.1,0.5-0.2
	c0-0.2-0.2-0.2-0.5-0.2V106.1z M44,41.2c0.3-0.3,0.3-0.7,0.1-1c-0.2-0.4-0.5-0.6-0.8-0.6C43,40.7,43.2,41.2,44,41.2z M43.7,66.4
	c0-0.5-0.2-0.7-0.5-0.7v0.5L43.7,66.4z M43.7,93.6c0.2-0.5,0-0.7-0.5-0.7v0.7H43.7z M44.1,98.6c0.2,0.1,0.3,0,0.3-0.3
	c-0.2,0-0.3-0.1-0.5-0.2h-0.2C43.7,98.3,43.9,98.5,44.1,98.6z M45.1,119.3c-0.2,0.2-0.2,0.3-0.2,0.5l0.5,0.2v-0.5L45.1,119.3z"/>
</svg>
