<?xml version="1.0" encoding="utf-8"?>
<!-- Generator: Adobe Illustrator 18.0.0, SVG Export Plug-In . SVG Version: 6.00 Build 0)  -->
<!DOCTYPE svg PUBLIC "-//W3C//DTD SVG 1.1//EN" "http://www.w3.org/Graphics/SVG/1.1/DTD/svg11.dtd">
<svg version="1.1" id="Layer_1" xmlns="http://www.w3.org/2000/svg" xmlns:xlink="http://www.w3.org/1999/xlink" x="0px" y="0px"
	 viewBox="0 0 126.7 169.6" enable-background="new 0 0 126.7 169.6" xml:space="preserve">
<path d="M126.2,97.5c-0.2,2.3-0.1,4.6,0.2,6.9c0.3,2.3,0.4,4.6,0.2,6.9c-0.2,1.1-0.3,2.1-0.6,3.1c-0.2,1-0.3,2-0.3,3.1
	c0,1.4-0.2,2.4-0.6,3.1c-0.4,0.7-0.8,1.7-1.3,2.9c-0.3,0.9-0.5,1.8-0.6,2.8c-0.1,0.9-0.4,1.8-1,2.8c-0.5,0.8-0.7,1.6-0.8,2.4
	c-0.1,0.8-0.3,1.7-0.8,2.4c-1.1,1.7-2.1,3.3-3.1,5c-1,1.6-2.1,3.3-3.3,5c-1.4,1.7-2.8,3.3-4.2,4.7c-1.4,1.5-2.9,3-4.6,4.5
	c-0.8,0.8-1.5,1.5-2.2,2.1c-0.7,0.6-1.3,1.3-2,2.1c-0.5,0.8-1.2,1.2-2.2,1.4c-1,0.2-1.9,0.5-2.7,0.9c-1.4,0.9-2.8,1.8-4.4,2.8
	c-1.5,0.9-3.2,1.8-4.8,2.5c-0.9,0.3-1.8,0.6-2.7,0.8c-0.8,0.2-1.7,0.6-2.4,1c-1.1,0.5-2.2,0.7-3.2,0.8c-1.1,0.1-2.2,0.3-3.2,0.6
	c-0.9,0.2-1.9,0.4-2.9,0.7c-1,0.3-2,0.4-2.9,0.2c-1.1-0.2-2.1-0.1-3,0.1c-0.9,0.2-1.9,0.3-3,0.3c-0.6,0-1.1-0.1-1.4-0.2
	c-0.3-0.2-0.8-0.2-1.4-0.2c-0.8,0.2-1.8,0.2-3.2,0.2c-1.2-0.2-2.5-0.4-3.8-0.7c-1.3-0.3-2.6-0.5-3.8-0.5c-1.1,0-2-0.2-2.8-0.6
	c-0.8-0.4-1.5-0.8-2.3-1.3c-1.1,0-2-0.2-2.9-0.6c-0.8-0.4-1.8-0.8-2.9-1.3c-2.2-0.9-4.2-1.9-6.2-2.9c-2-1-3.9-2.2-5.8-3.6
	c-0.8-0.6-1.5-1.3-2.2-2.1c-0.7-0.8-1.4-1.3-2.2-1.6c-0.8-0.3-1.5-0.8-2.1-1.4c-0.6-0.6-1.2-1.2-1.6-1.8c-0.8-0.8-1.5-1.5-2.2-2.2
	c-0.7-0.7-1.3-1.4-2-2.2c-0.8-1.1-1.5-2.1-2.2-3c-0.7-0.9-1.4-1.9-2.2-3c-0.3-0.5-0.7-1.1-1.2-1.8c-0.5-0.8-0.7-1.5-0.7-2.1
	c-0.3-0.3-0.6-0.5-0.9-0.6c-0.3-0.1-0.5-0.3-0.7-0.6l-1.4-3.5c-0.5-1.1-0.9-2.2-1.4-3.2c-0.5-1.1-0.9-2.2-1.4-3.2
	c-0.3-1.1-0.6-2.2-0.8-3.3c-0.2-1.2-0.5-2.3-0.8-3.6c-0.3-0.9-0.4-1.8-0.3-2.8c0.1-0.9,0-1.9-0.3-3c-0.3-0.9-0.5-1.8-0.7-2.8
	c-0.2-0.9-0.2-1.9,0-3c0.2-0.3,0.3-0.7,0.6-1c0.2-0.4,0.3-0.8,0.1-1.3c-0.2-0.3-0.3-0.6-0.5-0.9c-0.2-0.3-0.2-0.6,0-0.9
	c0.3-0.6,0.4-1.1,0.2-1.4c-0.2-0.3-0.2-0.8-0.2-1.4c0-0.6,0.1-1.2,0.2-1.8c0.2-0.6,0.3-1.2,0.5-1.8c0.6-2.2,1.1-4.2,1.5-6.2
	c0.4-2,1-4,1.7-6c0.2-0.5,0.2-1,0.2-1.5c0-0.5,0.2-1,0.5-1.3c0.3-0.5,0.6-0.8,0.8-1.2c0.2-0.3,0.5-0.6,0.8-0.9
	c0.2-0.9,0.5-1.8,1.2-2.5c0.3-0.6,0.6-1.2,0.8-1.7c0.2-0.5,0.5-1.1,0.8-1.7c2.2-3.2,4.5-6.3,7-9.4c2.5-3,5.4-5.7,8.7-8.2
	c0.6-0.5,1.3-1,2.1-1.5c0.8-0.5,1.6-1,2.4-1.4c0.8-0.4,1.7-0.6,2.4-0.6c0.8,0,1.5,0.5,2.3,1.4c0.6,0.8,0.9,1.6,0.8,2.5
	c-0.1,0.9-0.3,1.8-0.7,2.8c-0.4,0.9-0.8,1.8-1.2,2.7c-0.4,0.8-0.6,1.7-0.6,2.4c0.2,1.2,0.1,2.3-0.2,3.3c-0.3,1-0.5,2.1-0.7,3.3
	c0.3,1.2,0.5,2.4,0.7,3.5c0.2,1.1,0.3,2.2,0.5,3.5c1.2,1.5,2.8,2.7,4.8,3.3c2,0.7,4,0.7,6,0.1c1.2-0.6,2.2-1.4,2.9-2.4
	c0.7-1,1.4-2.1,2.2-3.3c0-0.8,0.1-1.6,0.2-2.4c0.2-0.8,0.2-1.7,0.2-2.4c0-0.3,0-0.6-0.1-0.9c-0.1-0.3-0.1-0.6-0.1-0.9
	c-0.2-0.8-0.1-1.2,0.1-1.2c0.2,0,0.1-0.3-0.3-0.9c-0.8-1.4-1.2-2.9-1.3-4.5c-0.1-1.6-0.2-3.2-0.3-4.7c-0.2-0.9-0.3-1.8-0.6-2.7
	c-0.2-0.8-0.4-1.7-0.6-2.7c-0.2-0.9-0.2-1.9-0.2-2.9c0-1-0.1-2-0.2-2.9c-0.2-0.8-0.2-1.6-0.2-2.4c0-0.8,0-1.7,0-2.4
	c0-0.8,0.2-1.5,0.5-2.3c0.3-0.8,0.4-1.5,0.2-2.3c-0.2-0.8-0.2-1.6-0.1-2.4c0.1-0.8,0.2-1.7,0.3-2.4c0.2-0.6,0.3-1.2,0.6-1.8
	c0.2-0.6,0.3-1.2,0.1-1.8c-0.2-0.8,0-1.5,0.3-2.1c0.4-0.6,0.7-1.2,1-1.8c0.3-0.8,0.6-1.5,0.8-2.3c0.2-0.8,0.5-1.5,0.8-2.3
	c0.3-0.8,0.6-1.5,0.8-2.1c0.2-0.6,0.6-1.2,1-1.8c0.3-0.6,0.7-1.1,1.2-1.5c0.5-0.4,0.8-0.9,1.2-1.5c0.6-1.5,1.5-2.8,2.8-3.9
	c1.2-1.1,2.5-2,3.7-2.8c0.8-0.5,1.4-1,2-1.5c0.5-0.5,1.2-0.9,2-1c1.5-0.3,2.4-1,2.5-2.1c1.2,0,2.5-0.4,3.8-1.2
	c1.3-0.8,2.6-0.8,3.8,0c1.5,0.9,2.1,2.1,1.7,3.5c-0.4,1.4-0.7,2.8-1,4.2C75.1,9.4,75,10.7,75,12c0.1,1.3,0.2,2.6,0.3,3.8
	c0,0.8,0,1.5,0.1,2.3c0.1,0.8,0.2,1.5,0.3,2.3c0.3,0.8,0.7,1.5,1.2,2.3c0.5,0.8,0.8,1.6,0.9,2.5c0.2,0.8,0.4,1.4,0.8,1.8
	c0.4,0.5,0.7,1,1,1.6c0.3,0.9,0.8,1.7,1.4,2.4c0.6,0.7,1.2,1.4,1.8,2.2c1.2,1.5,2.4,3,3.6,4.3c1.2,1.3,2.3,2.8,3.3,4.5
	c0.6,0.5,1.2,1,1.6,1.7c0.5,0.7,1,1.2,1.6,1.5c0.8,0.5,1.3,1,1.7,1.6c0.4,0.6,0.9,1.2,1.5,1.6c0.3,0.3,0.6,0.5,0.8,0.7
	c0.2,0.2,0.5,0.5,0.8,0.9c0.3,0.6,0.8,1.3,1.6,2.1c0.8,0.8,1.5,1.5,2.1,2.1c0.6,0.6,1.2,1.3,1.8,2.1c0.5,0.8,1.1,1.4,2,2
	c0.8,0.5,1.7,1.2,2.4,2c0.6,0.8,1.1,1.5,1.4,2.2c0.3,0.7,0.8,1.3,1.6,2c0.8,0.6,1.3,1.4,1.7,2.3c0.4,0.9,1,1.8,1.7,2.5
	c0.5,0.3,0.8,0.7,0.9,1c0.2,0.4,0.4,0.8,0.7,1.3c0.3,0.8,0.7,1.3,1.2,1.7c0.5,0.4,0.9,0.9,1.4,1.5c0.6,0.8,1.1,1.6,1.4,2.5
	c0.3,0.9,0.6,1.8,0.9,2.5c0.3,0.8,0.7,1.5,1.3,2.3c0.5,0.8,0.8,1.6,0.8,2.5c0,2.2,0.6,4.3,1.7,6.3C125.8,93.3,126.3,95.4,126.2,97.5
	z M2.7,116.2c-0.2-0.3-0.4-0.5-0.7-0.5v0.5H2.7z M3.3,91.8c0.3-0.6,0.2-0.9-0.2-0.9C2.8,91.2,2.9,91.5,3.3,91.8z M7.3,102.2
	c0,0.2-0.2,0.4-0.5,0.7c0.2,0.2,0.4,0.2,0.7,0.2C7.7,102.6,7.6,102.3,7.3,102.2z M7,108.6c0.3-0.2,0.5-0.2,0.6,0
	c0.1,0.2,0.3,0.2,0.6,0c0-0.6-0.3-0.9-0.9-0.9C7.3,108,7.2,108.3,7,108.6z M8.5,98.7c0.4,0,0.5-0.2,0.3-0.5H8.4
	C8.1,98.5,8.2,98.7,8.5,98.7z M8.9,102.6c-0.2,0.5,0,0.6,0.5,0.5c0.5-0.2,0.5-0.4,0.2-0.7c-0.2,0-0.3,0-0.3,0.1
	C9.2,102.6,9,102.6,8.9,102.6z M9.6,102.4c0.2,0,0.4-0.2,0.7-0.5C9.8,101.9,9.6,102.1,9.6,102.4z M10.3,100.1c0.5,0,0.6-0.2,0.3-0.5
	C10.4,99.3,10.3,99.5,10.3,100.1z M11.9,115.8c1.1,0,1.3-0.2,0.7-0.7C12,114.6,11.7,114.9,11.9,115.8z M12.6,101.7
	c0.2,0.3,0.3,0.3,0.5,0.1c0.2-0.2,0.1-0.4-0.2-0.6c0,0.2,0,0.2-0.1,0.2C12.6,101.5,12.6,101.5,12.6,101.7z M13,111.9l0.5,0.2
	c0-0.3-0.2-0.5-0.5-0.7V111.9z M13.3,102.9c0.3,0.3,0.6,0.4,0.9,0.3c0.3-0.1,0.5-0.3,0.5-0.8C14,102.2,13.6,102.4,13.3,102.9z
	 M13.5,96.2c0.8,0,1-0.2,0.6-0.6C13.7,95.2,13.5,95.4,13.5,96.2z M15.1,98.7c-0.3-1.1-0.8-1.6-1.4-1.6
	C13.7,98.2,14.2,98.7,15.1,98.7z M14,123.9c-0.2,0.8-0.1,1,0.2,0.7C14.5,124.2,14.4,124,14,123.9z M15.8,116.2
	c0.3-0.3,0.2-0.5-0.2-0.5s-0.7,0.2-0.7,0.7c0.3-0.2,0.5-0.2,0.6,0C15.5,116.6,15.7,116.6,15.8,116.2z M15.1,74.7
	c0.5,0.6,0.7,0.7,0.8,0.1C16,74.3,15.7,74.2,15.1,74.7z M15.1,95.7c0.5,0,0.6-0.1,0.3-0.3C15.2,95.1,15.1,95.2,15.1,95.7z M15.1,113
	c0,0.3,0.2,0.5,0.7,0.7c0.5,0.2,0.6,0,0.5-0.5c0-0.3-0.1-0.4-0.3-0.2C15.7,113.2,15.4,113.2,15.1,113z M15.6,89.5
	c-0.3,0.5-0.2,0.6,0.3,0.5C16.5,89.8,16.4,89.6,15.6,89.5z M17,107.7c0.3,0,0.5-0.1,0.6-0.2c0.1-0.2,0-0.3-0.3-0.5
	C17,107.2,17,107.4,17,107.7z M17.4,98.2c0,0.5-0.1,0.7-0.2,0.7c0.6,0,0.9-0.1,0.8-0.3C17.9,98.3,17.7,98.2,17.4,98.2z M17.2,122.7
	c0.2,0,0.4,0.1,0.8,0.3c0.4,0.2,0.6,0.1,0.6-0.3c-0.2-0.2-0.4-0.3-0.7-0.3C17.6,122.3,17.4,122.4,17.2,122.7z M17.4,109.3
	c0.6,0,0.8-0.1,0.5-0.3C17.6,108.7,17.4,108.9,17.4,109.3z M17.7,117.9c0,0.5,0.2,0.7,0.7,0.6c0.5-0.1,0.7-0.5,0.7-1.3
	c-0.3,0-0.6,0-0.9,0.1C17.8,117.4,17.7,117.6,17.7,117.9z M18.8,72.4c-0.3-0.2-0.5-0.1-0.7,0.1c-0.2,0.2-0.1,0.4,0.2,0.6
	C18.4,72.9,18.5,72.7,18.8,72.4z M18.6,108.9c0,0.2,0.3-0.1,0.8-0.8c0.5-0.7,0.3-1-0.8-0.8c0,0.3-0.1,0.6-0.2,0.9
	C18.2,108.5,18.3,108.7,18.6,108.9z M19.3,71.2c0.6,0,0.9-0.1,0.8-0.3c-0.1-0.2-0.2-0.4-0.5-0.5c-0.2-0.1-0.4-0.1-0.6,0
	C18.9,70.5,19,70.8,19.3,71.2z M20.9,101.7c0,0.3-0.1,0.7-0.3,1c-0.2,0.4-0.2,0.7,0.1,1c0-0.5,0.3-0.8,0.9-1.2
	C22.2,102.3,22,102,20.9,101.7z M20.4,118.3c0.5,0,0.6-0.1,0.3-0.3C20.5,117.7,20.4,117.9,20.4,118.3z M21.1,127.3
	c0-0.3,0-0.6,0-0.9c0-0.3-0.2-0.4-0.7-0.2C20.4,126.9,20.7,127.3,21.1,127.3z M20.7,122.2c0.3,0.2,0.5,0.1,0.6-0.2
	c0.1-0.3,0-0.5-0.3-0.7C20.6,121.8,20.5,122.1,20.7,122.2z M20.7,98.7c0.8,0,1-0.2,0.6-0.6C20.9,97.7,20.7,97.9,20.7,98.7z
	 M22.3,104.2c-0.8-0.2-1.3,0.2-1.6,1.2C21.7,105.1,22.3,104.7,22.3,104.2z M21.4,115.8c0-0.3,0.1-0.5,0.2-0.6
	c0.2-0.1,0.1-0.2-0.2-0.3c-0.5-0.2-0.7,0.1-0.7,0.7c0.2,0,0.3,0,0.3,0.1C21.1,115.7,21.2,115.8,21.4,115.8z M21.1,95
	c0,0.8,0.1,1.1,0.2,0.9C21.7,95.3,21.6,95,21.1,95z M21.4,93.6c0.6,0,0.8-0.1,0.5-0.3C21.5,93,21.4,93.2,21.4,93.6z M21.4,110.7
	c0,0.5,0.2,0.7,0.7,0.7c0.2-0.2,0.2-0.3,0.1-0.6C22.1,110.6,21.8,110.5,21.4,110.7z M21.8,100.3c0.8,0.5,1.3,0.2,1.6-0.9
	C22.5,99.7,22,100,21.8,100.3z M23.4,89.5c0-0.3-0.2-0.5-0.7-0.6c-0.5-0.1-0.7,0-0.7,0.3C22.2,89.4,22.7,89.5,23.4,89.5z M23,127.8
	c-0.2-0.3-0.1-0.4,0.1-0.3c0.2,0.1,0.3,0,0.3-0.3h-0.7H22C22,127.6,22.4,127.8,23,127.8z M22.5,105.9c0.9,0,1.1-0.2,0.6-0.6
	C22.5,104.9,22.4,105.1,22.5,105.9z M22.7,146.5c-0.3,0.6-0.2,0.8,0.5,0.7C23.2,147,23,146.8,22.7,146.5z M23.7,104.5
	c0,0.3-0.1,0.5-0.2,0.7c0.5,0,0.7-0.1,0.7-0.2L23.7,104.5z M23.4,129.9c0.6,0,0.9-0.1,0.9-0.3c0-0.2-0.1-0.4-0.2-0.6
	c-0.2-0.2-0.3-0.2-0.5-0.1C23.5,128.9,23.4,129.2,23.4,129.9z M23.9,100.5c0,0.3,0,0.5-0.1,0.5c-0.1,0-0.1,0.2-0.1,0.5
	c0.6,0.2,0.9,0,0.9-0.3C24.6,100.7,24.4,100.5,23.9,100.5z M24.8,113.2c0.2-0.6,0.6-0.8,1.3-0.7c0.7,0.2,0.8-0.2,0.3-0.9
	c-0.3-0.5-0.7-1.2-1-2.3c-0.4-1.1-1-1.1-1.7,0c0.6,0.6,0.8,1.3,0.5,2.2C23.8,112.4,24,112.9,24.8,113.2z M25.7,57.6
	c-0.3-0.3-0.5-0.3-0.7,0c-0.2,0.3,0,0.5,0.5,0.7c0-0.3,0-0.5,0.1-0.5C25.7,57.8,25.7,57.8,25.7,57.6z M26.4,83.9
	c-0.3-0.3-0.6-0.3-0.9-0.1c-0.3,0.2-0.4,0.5-0.2,0.8C25.7,84.8,26.1,84.5,26.4,83.9z M25.3,119.5c0.2,0.3,0.4,0.4,0.7,0.3
	c0.3-0.1,0.6-0.2,0.8-0.3c0.2-0.2,0.4-0.4,0.5-0.7c0.1-0.3,0-0.5-0.3-0.7c-0.3,0.3-0.7,0.5-1,0.6C25.5,118.7,25.3,119,25.3,119.5z
	 M25.5,131.7c-0.2,0.3-0.2,1-0.1,2c0.1,1,0.4,1.3,1,1c-0.3-0.8-0.4-1.4-0.3-1.8C26.2,132.4,26,132,25.5,131.7z M25.5,107.5
	c0.8,0.2,1.2,0.1,1.3-0.1c0.1-0.2,0-0.5-0.2-0.7c-0.2-0.2-0.5-0.3-0.8-0.2C25.4,106.5,25.4,106.9,25.5,107.5z M26.7,98.2
	c0.5-0.8,0.6-1.1,0.5-1c-0.2,0.1-0.7,0-1.6-0.3C25.8,97.6,26.2,98.1,26.7,98.2z M26.7,122.2c0.5,0,0.9-0.1,1.4-0.2
	c0.5-0.2,0.5-0.5,0.2-1.2c-0.5,0.2-0.8,0.3-1.2,0.5c-0.3,0.2-0.8,0.1-1.4-0.2c-0.2,0.5-0.2,0.8-0.2,0.9
	C25.5,122.2,25.9,122.2,26.7,122.2z M25.5,129.4c0.3,0.2,0.5,0,0.5-0.3c0-0.4-0.2-0.5-0.5-0.3V129.4z M26.2,125.9
	c0.5,0,0.6-0.1,0.3-0.3C26.3,125.4,26.2,125.5,26.2,125.9z M30.1,110.2c-0.3-0.8-0.8-0.8-1.5-0.2c-0.7,0.6-1.1,1.2-1.3,1.6
	c0.5,0.2,1,0.1,1.6-0.2C29.6,111.1,30,110.7,30.1,110.2z M28.5,135.6c0.2-1.1-0.2-1.6-0.9-1.6C27.3,135.1,27.6,135.6,28.5,135.6z
	 M27.6,141.6c0.6,0,0.8-0.1,0.6-0.3c-0.2-0.2-0.4-0.4-0.6-0.6V141.6z M29,102.4c-0.8,0-1.2,0.2-1.2,0.7
	C28.6,103.1,29,102.9,29,102.4z M28.7,130.8c0.3-0.9,0.1-1.4-0.7-1.4c0,0.3,0,0.6,0,0.8C28.1,130.4,28.3,130.6,28.7,130.8z
	 M29,126.6c0.3-0.5,0.2-0.8-0.5-1.2C28.1,126.2,28.2,126.6,29,126.6z M28.3,119.2c0.8,0.2,1.2,0,1.3-0.6c0.1-0.5-0.3-0.9-1-1
	C28.5,118.4,28.4,118.9,28.3,119.2z M29.9,106.5c0.5-0.2,0.9-0.4,1.4-0.7c-0.6-0.3-1.1-0.3-1.4,0.1c-0.3,0.4-0.7,0.4-1.2,0.1
	c-0.2,0.2-0.2,0.5-0.2,0.9L29.9,106.5z M30.8,100.3c-0.3-0.2-0.7-0.3-1.3-0.5c-0.5-0.2-0.7,0.1-0.6,0.7c0.8,0.2,1.3,0.4,1.5,0.8
	c0.2,0.4,0.7,0.7,1.3,1c0-0.8,0-1.2,0.1-1.4C31.9,100.9,31.6,100.6,30.8,100.3z M29.2,96.2h0.7c0-0.5-0.2-0.7-0.5-0.7L29.2,96.2z
	 M30.6,133.3c-0.6-0.3-1.1-0.2-1.4,0.5c0.3,0.5,0.7,0.7,1,0.6C30.6,134.3,30.7,133.9,30.6,133.3z M32.2,137.5
	c0.3-0.9,0.1-1.5-0.7-1.6c-0.8-0.2-1.4-0.2-1.8-0.2c0,0.5-0.1,0.8-0.2,0.9c0.6,0,1-0.1,1.2-0.2c0.5-0.3,0.8-0.3,0.9,0.1
	C31.7,136.8,31.9,137.2,32.2,137.5z M29.9,139.8c0.5,0,0.7-0.2,0.7-0.6c0-0.4-0.2-0.5-0.7-0.3c0,0.3,0,0.5-0.1,0.5
	C29.7,139.3,29.7,139.5,29.9,139.8z M30.8,98.2c-0.6-0.2-0.9,0.1-0.9,0.7C30.5,99.1,30.8,98.9,30.8,98.2z M29.9,108.9h0.7
	c0-0.5-0.2-0.6-0.7-0.5V108.9z M30.4,119.5c0.8,0.8,1.2,0.8,1.4,0c0.2-0.8-0.2-1.3-0.9-1.6C30.5,118.5,30.4,119,30.4,119.5z
	 M30.8,114.4c0.3,0.3,0.7,0.4,1.2,0.2c0.5-0.2,0.8-0.4,0.9-0.7c-0.3-0.8-0.7-1-1.2-0.8C31.3,113.4,31,113.8,30.8,114.4z M31.7,141.2
	c-0.3-0.3-0.6-0.3-0.9,0v0.7C31.4,141.9,31.7,141.6,31.7,141.2z M31.1,155.3c-0.2,0.2-0.2,0.3-0.1,0.6c0.1,0.2,0.3,0.3,0.6,0.1
	C31.5,155.5,31.4,155.3,31.1,155.3z M31.7,124.1c0-0.2-0.2-0.4-0.5-0.7c-0.3,0.3-0.4,0.5-0.3,0.7C31,124.2,31.3,124.2,31.7,124.1z
	 M31.7,92.5c-0.6-0.3-0.8-0.1-0.5,0.7C31.7,93.2,31.9,92.9,31.7,92.5z M31.7,111.4c0-0.3,0.1-0.4,0.3-0.3c0.2,0.1,0.3,0,0.1-0.3
	c-0.3,0-0.5-0.1-0.5-0.2c0-0.2-0.2-0.2-0.5,0C31.1,110.8,31.3,111.1,31.7,111.4z M31.5,137.9c-0.2,0.3-0.1,0.5,0.2,0.6
	c0.3,0.1,0.5-0.2,0.5-0.8C32.1,137.9,31.8,137.9,31.5,137.9z M32.2,143.9c0.2-0.3,0-0.5-0.3-0.5c-0.4,0-0.5,0.2-0.3,0.5H32.2z
	 M32,121.1c0.3,0.2,0.7,0.2,1.2,0c0-0.3-0.1-0.5-0.3-0.5c-0.2,0-0.4-0.1-0.6-0.2C32.2,120.7,32.1,120.9,32,121.1z M33.1,118.8
	c0.3-0.8,0.2-1.2-0.5-1.2C32.1,118.2,32.2,118.6,33.1,118.8z M32.4,98.9c0.5,0,0.6-0.1,0.3-0.3C32.6,98.3,32.4,98.5,32.4,98.9z
	 M32.4,115.5c0.5-0.2,0.8-0.2,1.2-0.1c0.3,0.1,0.4-0.3,0.2-1c-0.8,0-1.1,0.1-0.9,0.3C33.1,115,32.9,115.2,32.4,115.5z M33.8,131
	c-0.3-0.3-0.6-0.3-0.9,0.1c-0.3,0.4-0.2,0.6,0.2,0.6c0.2-0.2,0.3-0.2,0.3-0.2C33.6,131.5,33.7,131.3,33.8,131z M35.2,105.4
	c-1.5-0.5-2.3,0.1-2.3,1.6C34.3,107,35.1,106.5,35.2,105.4z M35.4,146.9c0.2-0.5-0.2-0.7-1-0.7c-0.8,0-1.3,0.2-1.3,0.5
	c0.3,0.2,0.7,0.3,1.2,0.5C34.7,147.3,35.1,147.3,35.4,146.9z M33.4,119c0,0.3,0,0.7,0,1.3c0,0.5,0.2,0.8,0.7,0.8
	c-0.2-0.5-0.2-0.9,0-1.4C34.2,119.2,34,119,33.4,119z M34.3,143.9c-0.5-0.2-0.8-0.1-0.9,0.2l0.7,0.7
	C34.4,144.6,34.4,144.3,34.3,143.9z M34.1,109.8c0.5-0.2,0.6-0.5,0.5-1c-0.2-0.5-0.4-0.7-0.7-0.6c-0.2,0.3-0.3,0.7-0.3,1
	C33.4,109.6,33.6,109.8,34.1,109.8z M33.8,95.9h0.7c0-0.5-0.2-0.6-0.7-0.5V95.9z M33.8,112.5c0.6,0,0.8-0.2,0.5-0.5
	C34,111.8,33.8,111.9,33.8,112.5z M35,98.9c-0.5,0-0.7,0.3-0.7,0.8c0,0.5,0.2,0.9,0.7,1c0.3-0.3,0.3-0.6,0-0.9
	C34.7,99.5,34.7,99.2,35,98.9z M34.3,113.9c0.5,0,0.7-0.2,0.7-0.5C34.7,113.5,34.4,113.6,34.3,113.9z M34.5,110.7
	c0.6,0,0.9-0.2,0.9-0.7C35,110,34.7,110.2,34.5,110.7z M36.4,143.5c0-0.5,0.2-0.7,0.6-0.6c0.4,0.1,0.6,0,0.6-0.3
	c-0.2-0.2-0.4-0.2-0.7-0.1c-0.3,0.1-0.3-0.1,0-0.6c-0.2,0.2-0.6,0.1-1.4-0.2c-0.8-0.3-1,0-0.7,0.9c0.3,0.3,0.6,0.5,0.8,0.6
	C35.8,143.2,36.1,143.3,36.4,143.5z M34.7,137c0.5,0,0.6-0.1,0.3-0.3C34.9,136.4,34.7,136.6,34.7,137z M36.8,102.4
	c-0.3-0.3-0.7-0.3-1.2,0c-0.5,0.3-0.7,0.6-0.7,0.9c0.3,0.3,0.7,0.4,1.2,0.2C36.6,103.4,36.8,103,36.8,102.4z M35.7,92.7
	c-0.5-0.3-0.7-0.3-0.6,0C35.2,93,35.4,93,35.7,92.7z M37.3,121.3c-0.2-0.3-0.5-0.5-0.9-0.7c-0.5-0.2-0.8,0-0.9,0.5
	c0,0.5,0.3,0.7,1,0.8C37.2,122,37.4,121.8,37.3,121.3z M36.6,94.8c-0.3-0.2-0.5-0.2-0.7,0c0.3,0,0.4,0.1,0.3,0.3
	c-0.1,0.2,0,0.3,0.3,0.3C37.1,95,37.1,94.8,36.6,94.8z M35.9,123.4c0,1.1,0.3,1.5,0.9,1.4C36.8,123.9,36.5,123.4,35.9,123.4z
	 M36.6,96.6c0,0.2-0.1,0.3-0.3,0.6c-0.2,0.2-0.2,0.3,0.1,0.3C36.8,97.1,36.9,96.8,36.6,96.6z M37.1,128.5c0-0.5-0.1-0.6-0.2-0.5
	c-0.2,0.2-0.4,0.2-0.7,0c0,0.5,0.1,0.7,0.2,0.6C36.5,128.5,36.7,128.5,37.1,128.5z M37.1,118.5c1.2,0.8,2.1,0.7,2.7-0.1
	c0.5-0.8,0.3-1.5-0.8-2c-0.3,0.2-0.4,0.4-0.2,0.8c0.2,0.4,0.1,0.7-0.2,0.8c-0.3-0.2-0.5-0.3-0.6-0.6c-0.1-0.2-0.3-0.3-0.8-0.3
	c0,0.5-0.1,0.7-0.3,0.7C36.5,117.9,36.6,118.1,37.1,118.5z M38,112.8c-0.6-0.2-1.1-0.1-1.4,0.2c0.3,0,0.6,0.1,0.9,0.2
	C37.8,113.4,38,113.2,38,112.8z M36.8,115.1c-0.3,0.8-0.1,1.1,0.7,1c0.8-0.1,1.1-0.5,0.9-1.3C37.7,114.9,37.1,114.9,36.8,115.1z
	 M37.5,134c0,0.3-0.1,0.5-0.2,0.5c-0.2,0-0.2,0.1-0.2,0.2c0.3,0.3,0.6,0.3,0.8,0C38.1,134.4,38,134.2,37.5,134z M37.5,105.4
	c0.2,0.2,0.3,0.2,0.3,0c0.1-0.2,0-0.3-0.3-0.5V105.4z M39.8,110.2c-0.3,0.5-0.7,0.8-1.2,0.9c-0.5,0.2-0.8,0.4-1.2,0.7
	c0.3,0,0.7,0,1.2,0.1c0.5,0.1,0.9,0,1.4-0.1c0.8-0.2,1.1-0.5,1-1C41,110.3,40.6,110.1,39.8,110.2z M38,142.1
	c-0.3,0.3-0.3,0.5-0.1,0.6c0.2,0.1,0.3,0,0.3-0.3C38.1,142.3,38,142.3,38,142.1z M38,151.3c-0.2,0.5,0,0.7,0.3,0.7
	c0.4,0,0.8,0.1,1.3,0.2C39.4,151.9,38.9,151.6,38,151.3z M38,125.5c0.3,0.3,0.5,0.3,0.6-0.1c0.1-0.4,0-0.6-0.3-0.6
	c0,0.2,0,0.3-0.1,0.3C38,125.2,38,125.3,38,125.5z M38,137.7c0,0.8,0.2,1,0.5,0.7C38.7,138.1,38.6,137.9,38,137.7z M38.2,139.6
	c-0.2,0.5,0,0.7,0.5,0.7c0.5,0,0.8-0.2,0.9-0.5c-0.3,0-0.5-0.1-0.7-0.2C38.7,139.4,38.5,139.4,38.2,139.6z M39.8,127.1
	c-0.3,0.3-0.5,0.7-0.7,1.3c-0.2,0.5-0.4,1-0.7,1.3c0.8,0.8,1.3,0.6,1.6-0.5C40.4,128.1,40.3,127.4,39.8,127.1z M38.7,143
	c0,0.3,0,0.6-0.1,0.9c-0.1,0.3,0.1,0.4,0.6,0.2c0.3-0.2,0.4-0.3,0.2-0.6C39.2,143.4,39,143.2,38.7,143z M38.9,101.7h0.7
	c0-0.3-0.2-0.5-0.7-0.5V101.7z M40.5,139.3c0-0.5-0.2-0.8-0.5-1.2c-0.3-0.3-0.3-0.7,0-1.2c-1.1,0-1.3,0.2-0.8,0.7
	c0.5,0.5,0.7,1,0.6,1.6H40.5z M40.1,119.9c-0.3-0.3-0.6-0.3-0.8,0c-0.2,0.3-0.1,0.5,0.3,0.7C39.6,120.5,39.7,120.2,40.1,119.9z
	 M39.6,126.4c0.6,0,1-0.2,1-0.5c0.1-0.3,0-0.6-0.2-0.8c-0.2-0.2-0.5-0.3-0.7-0.2C39.5,125,39.4,125.5,39.6,126.4z M40.1,104.9
	c1.1,0,1.5-0.2,1.2-0.6c-0.3-0.4-0.8-0.7-1.6-1C39.6,103.8,39.7,104.3,40.1,104.9z M41,101.7c0.3-0.3,0.4-0.7,0.3-1.3
	c-0.1-0.5,0-1,0.3-1.3c-0.5,0.2-0.7,0.1-0.7-0.2c0-0.3-0.2-0.5-0.5-0.7c-0.3,0.5-0.5,1.1-0.6,2C39.9,101,40.2,101.5,41,101.7z
	 M40.7,108.2c0-0.6-0.2-0.9-0.7-0.9c-0.2,0.2-0.2,0.3,0,0.6C40.2,108,40.4,108.2,40.7,108.2z M41,94.3c-0.6-0.2-0.9,0.1-0.9,0.7
	c0.3,0.3,0.5,0.3,0.7,0.1C40.9,94.9,41,94.6,41,94.3z M45.6,134.5c0.3,0,0.1-0.4-0.6-1.3c-0.7-0.8-1-1.4-1-1.7
	c-0.8-0.2-1.2,0.2-1.3,0.9c-0.1,0.8-0.3,1.3-0.8,1.6c-0.6,0.5-1,1-1.3,1.5c-0.2,0.5,0.3,0.9,1.5,1c0.2-0.8,0.2-1.2,0-1.3
	c-0.2-0.1,0.2-0.3,0.9-0.6c0.8-0.3,1-0.7,0.6-1.3c-0.4-0.5-0.3-0.9,0.3-1c0.3,0.3,0.5,0.8,0.5,1.4C44.4,134.4,44.8,134.6,45.6,134.5
	z M40.7,93.2c-0.2,0.5,0,0.7,0.5,0.6c0.5-0.1,0.6-0.3,0.5-0.6H40.7z M41.2,145.6c0.2-0.5,0.5-0.7,0.9-0.8c0.5-0.1,0.5-0.4,0.2-1
	c-0.3-0.6-0.7-0.6-1,0.1C40.9,144.5,40.9,145.1,41.2,145.6z M42.1,109.5c0-0.3-0.2-0.5-0.5-0.6c-0.3-0.1-0.5,0-0.5,0.3
	c0.2,0,0.3,0,0.3,0.1C41.6,109.5,41.8,109.5,42.1,109.5z M41.6,119.9c-0.1-0.3-0.2-0.5-0.3-0.5l0.5,0.9c0.3,0.8,0.8,0.8,1.4,0.2
	c0.3-0.5,0.3-1,0.1-1.6c-0.2-0.6-0.6-1.1-1-1.4c-0.3,0.5-0.3,0.8,0,1.2c0.3,0.3,0.5,0.6,0.5,0.9l-0.5,0.5
	C41.8,120.3,41.6,120.2,41.6,119.9z M42.1,88.3c-0.3-0.2-0.5-0.1-0.7,0.2c-0.2,0.3-0.1,0.5,0.2,0.5c0-0.2,0.1-0.2,0.2-0.2
	C42.1,88.8,42.1,88.6,42.1,88.3z M42.1,117.2c0.3-0.3,0.3-0.6,0.1-0.8c-0.2-0.2-0.5-0.3-0.8-0.1C41.4,116.9,41.7,117.2,42.1,117.2z
	 M43.1,141.9c0.2-0.5,0-0.8-0.6-1c-0.5-0.2-0.9-0.1-1,0.3C42.1,141.5,42.6,141.7,43.1,141.9z M42.8,124.6c1.2-0.3,1.9-0.8,2.1-1.6
	c-0.6,0.5-1.1,0.5-1.4,0c-0.3-0.5-0.8-0.7-1.4-0.7c-0.2,0.3-0.1,0.7,0.1,1.2C42.5,123.9,42.7,124.2,42.8,124.6z M42.1,95.7h0.7
	c0.2-0.3-0.1-0.6-0.7-0.9V95.7z M44.2,139.6c0.2-0.8-0.2-1.2-0.9-1.3c-0.8-0.1-1.2,0.3-1.2,1c0.5-0.2,0.8-0.2,1.2,0
	C43.6,139.5,43.9,139.6,44.2,139.6z M43.5,128.5c-0.3-0.3-0.6-0.3-0.8-0.1c-0.2,0.2-0.3,0.6-0.3,1c0.5,0,0.7-0.1,0.8-0.2
	C43.2,129,43.4,128.8,43.5,128.5z M42.6,99.4c0.6-0.2,1-0.5,1.2-0.9c0.2-0.5,0.3-0.9,0.5-1.4c-0.3,0-0.6,0.3-0.9,0.8
	C43,98.4,42.7,98.9,42.6,99.4z M42.6,135.9c0.6,0.8,1.2,0.8,1.8,0.2c0.2-0.8-0.1-1.2-0.7-1.2C43.1,134.9,42.7,135.3,42.6,135.9z
	 M44,89c0-0.6-0.1-0.9-0.3-0.8c-0.2,0.1-0.5,0-0.8-0.1C42.8,88.7,43.2,89,44,89z M44.4,102.2c0-0.9-0.5-1.2-1.4-0.9
	c-0.2,0.5,0,0.8,0.5,0.9C44,102.3,44.3,102.3,44.4,102.2z M43.7,107.9c0,0.3,0.1,0.5,0.3,0.5c0.2,0,0.4,0.1,0.6,0.2
	C44.7,107.9,44.4,107.6,43.7,107.9z M44.4,112.3c0.5,0.2,0.7,0,0.7-0.6c0-0.5-0.2-0.7-0.7-0.6c0,0.3,0,0.5-0.1,0.6
	C44.2,111.8,44.3,112,44.4,112.3z M44.7,94.1c-0.2,0.3-0.2,0.7,0,1c0.2,0.4,0.1,0.7-0.2,1h1.4C45.8,94.9,45.4,94.2,44.7,94.1z
	 M44.4,100.1c0,0.5,0.2,0.7,0.5,0.7c0.2-0.2,0.3-0.3,0.3-0.5c0.1-0.2,0.2-0.3,0.3-0.5C45,99.4,44.6,99.5,44.4,100.1z M46.3,118.3
	c-0.6-0.6-1.1-0.6-1.4,0c-0.3,0.6-0.3,1.1,0,1.4c0.5,0,0.7-0.2,0.8-0.5C45.8,118.9,46,118.6,46.3,118.3z M45.6,133.3
	c0.8,0.6,1.4,0.3,2-0.9c0.5-1.2,1.1-2,1.7-2.3c0.3-0.3,0.7-0.6,1.2-0.8c0.5-0.2,0.8-0.5,1.2-0.8c0.6-0.6,0.6-0.9-0.1-0.8
	c-0.7,0.1-1.2,0.1-1.5,0.1c0.3,0.3,0.5,0.6,0.6,0.8c0.1,0.2-0.2,0.3-0.8,0.3c-0.8,0-1-0.2-0.8-0.5c0.2-0.3,0.2-0.6-0.1-0.9
	c-0.3-0.5-0.5-0.4-0.7,0.2c-0.2,0.6-0.2,1-0.2,1.2c-0.2,0.2-0.4,0.2-0.8,0c-0.4-0.2-0.7-0.3-0.8-0.5c0-0.3,0.2-0.5,0.7-0.5
	c0.3-0.3,0.2-0.6-0.2-0.9c-0.5-0.3-0.7-0.6-0.7-0.9c0.9-0.5,1-0.8,0.1-1c-0.8-0.2-1.3,0-1.5,0.8c0,0.3,0.2,0.7,0.7,1.2
	c0.2,0.3,0.2,0.7,0,1c-0.2,0.4-0.2,0.7,0,1c0.2,0.3,0.3,0.7,0.6,1c0.2,0.4,0.5,0.7,0.8,1c0.3,0.8,0.2,1.2-0.2,1.2
	C46.1,132.4,45.7,132.7,45.6,133.3z M45.8,105.4c-0.2,0.6,0.1,0.8,0.7,0.5c0.6-0.3,1.1-0.5,1.4-0.5c0.3,0.6,0.6,1.1,0.9,1.5
	c0.3,0.4,0.5,1,0.7,1.7c0.6-0.5,1.1-1,1.4-1.6c0.3-0.6,0.8-0.8,1.6-0.5c0-0.8,0-1.2-0.1-1.3c-0.1-0.1-0.4-0.1-1-0.1
	c0.2-0.8-0.2-1.1-1-1c-0.8,0.1-1.5,0-2-0.1c0.2,0.8-0.2,1-1,0.8C46.5,104.6,46,104.8,45.8,105.4z M46.1,42.1c1.1,0.3,1.4,0.2,1-0.2
	C46.7,41.4,46.4,41.5,46.1,42.1z M46.1,93.6c0,0.5,0.2,0.6,0.5,0.5C46.8,93.5,46.7,93.3,46.1,93.6z M48.8,116.5
	c0.3-0.3,0.7-0.7,1-1.2c0.4-0.5,0.1-0.6-0.8-0.5h-1.4c-0.3,0-0.5-0.2-0.7-0.5c-0.2-0.3-0.4-0.5-0.7-0.5c-0.3,0.8,0,1.3,0.8,1.6
	C47.9,115.9,48.5,116.2,48.8,116.5z M46.5,106.5c-0.3,0.3-0.3,0.7-0.1,1c0.2,0.4,0.4,0.7,0.6,1c1.2,0.3,1.6,0.1,1-0.6
	C47.5,107.4,47,106.9,46.5,106.5z M47.2,86.5c0.2-0.3,0.1-0.5-0.1-0.7c-0.2-0.2-0.5-0.2-0.8,0C46.3,86.2,46.6,86.5,47.2,86.5z
	 M48.1,110.7c-0.9,0.5-1.5,1.5-1.8,3c0.9-0.2,1.3-0.5,1.3-1.2C47.5,111.9,47.7,111.3,48.1,110.7z M47.9,152.9c0-0.6-0.2-0.9-0.6-0.9
	c-0.4,0-0.7-0.2-1-0.5C46.4,151.9,47,152.3,47.9,152.9z M47.7,100.3c0-0.5,0-0.7,0-0.8c0-0.1-0.4-0.1-1.2-0.1
	C46.5,99.7,46.9,100,47.7,100.3z M47.7,102.4c0-0.5-0.4-0.7-1.2-0.7C46.5,102.5,46.9,102.7,47.7,102.4z M47.2,148.8
	c0-0.5-0.2-0.7-0.7-0.7v0.7H47.2z M47.4,117.9c0.3,0.3,0.7,0.3,1.3,0.1c0.5-0.2,0.6-0.7,0.1-1.3c-0.2-0.2-0.4-0.1-0.8,0.2
	C47.6,117.2,47.4,117.6,47.4,117.9z M48.4,93.4c0.2,0.3,0.1,0.5-0.1,0.6c-0.2,0.1-0.3,0.3-0.3,0.6c0.3-0.3,0.7-0.4,1-0.3
	c0.4,0.1,0.7,0,1-0.3C49.7,93.5,49.1,93.4,48.4,93.4z M48.1,150.2c-0.2-0.5,0-0.6,0.3-0.3c0.4,0.2,0.5,0,0.3-0.6h-0.9v0.7
	C47.9,150.3,48,150.3,48.1,150.2z M48.1,140.5c-0.2,0.6,0.2,0.9,0.9,0.9c0-0.8-0.1-1.1-0.2-0.9C48.7,140.6,48.4,140.6,48.1,140.5z
	 M48.4,124.1c-0.2,0.2-0.2,0.5-0.2,0.9c0.6,0,0.9-0.1,0.8-0.3C48.9,124.4,48.7,124.2,48.4,124.1z M49.3,119.9
	c-0.8,0-1.1,0.3-0.9,0.9c0.2,0.6,0.5,1,1.2,1.2c0.3-0.3,0.3-0.6,0.1-0.9C49.4,120.8,49.3,120.4,49.3,119.9z M50.2,106.8
	c-0.6,0-1-0.3-1-0.9c-0.1-0.6,0-1.1,0.3-1.4c0.5,0.2,0.8,0.5,1.2,1C51,106,50.8,106.5,50.2,106.8z M49.3,95.2c0,0.9,0.1,1.5,0.2,1.6
	c0.6,0,0.9-0.3,0.8-0.8C50.3,95.5,49.9,95.2,49.3,95.2z M51.1,134.9c0.3,0.8,0.8,0.8,1.6,0c0.8-0.8,1.3-1.2,1.6-1.4
	c-0.5-0.3-0.8-0.7-1.2-1c-0.3-0.4-0.8-0.7-1.4-0.8c-0.5,0.6-0.5,1-0.1,1c0.4,0.1,0.7,0.2,1,0.3c0.8,0.3,0.9,0.6,0.5,0.9
	c-0.5,0.3-0.9,0.4-1.4,0.2c-0.5-0.2-0.9-0.4-1.3-0.8c-0.4-0.4-0.8-0.7-1.3-1c0,0.5,0.1,1,0.3,1.5c0.2,0.5,0.3,1,0.1,1.5
	c0.3-0.5,0.6-0.8,0.8-1.2C50.8,133.9,51,134.2,51.1,134.9z M50.4,143.3c0-0.5-0.2-0.7-0.6-0.7c-0.4,0-0.5,0.2-0.3,0.7
	c0.3,0.2,0.5,0.2,0.5,0.1C50,143.3,50.1,143.3,50.4,143.3z M49.8,111.6c-0.2,0.3,0.1,0.6,0.7,0.9C50.6,111.9,50.4,111.6,49.8,111.6z
	 M51.4,139.1c0.3-0.5,0.3-0.9,0-1.3c-0.3-0.4-0.7-0.5-1.2-0.3c-0.3,0.5-0.3,0.8,0,1.2C50.5,138.9,50.9,139.1,51.4,139.1z M50,83.2
	h0.5c0-0.6-0.2-0.8-0.5-0.5V83.2z M50.2,100.1c-0.3,0.8-0.1,0.9,0.7,0.5C51.2,99.8,51,99.6,50.2,100.1z M50.4,69.8
	c-0.3,0.5-0.2,0.7,0.5,0.7C51.2,69.8,51.1,69.5,50.4,69.8z M50.4,102.2c0.5-0.2,0.8-0.4,1-0.8c0.2-0.4,0-0.5-0.8-0.3
	c0.2,0.3,0.2,0.5,0,0.6C50.5,101.7,50.4,101.9,50.4,102.2z M51.6,131.5c0.5-0.3,0.5-0.7,0-1c-0.5-0.4-0.8-0.3-1.2,0.1
	C50.4,131.3,50.8,131.6,51.6,131.5z M50.7,124.1c0.5,0,0.7-0.1,0.8-0.2c0.1-0.2,0-0.3-0.1-0.3c-0.2-0.1-0.3-0.1-0.5-0.1
	C50.8,123.4,50.7,123.6,50.7,124.1z M55.1,117.9c0-0.5-0.1-0.7-0.3-0.6c-0.2,0.1-0.5,0-0.8-0.1c-0.3,0-0.7-0.2-1-0.5
	c-0.4-0.3-0.7-0.5-1-0.6c-0.3-0.1-0.6,0-0.8,0.1c-0.2,0.2-0.3,0.5-0.1,1.2c0.5,0.2,0.8,0.1,0.9-0.1c0.2-0.2,0.4-0.3,0.7-0.3
	c0.3,0.5,0.7,0.8,1.3,1C54.3,118.2,54.8,118.2,55.1,117.9z M51.4,110.7c0.6,0,0.9-0.1,0.8-0.3c-0.1-0.2-0.2-0.4-0.5-0.6
	c-0.2-0.2-0.4-0.2-0.6-0.1C51,109.7,51.1,110.1,51.4,110.7z M53.4,114.6c0.3-1.2,0-1.9-0.8-2c-0.8-0.1-1.2,0.2-1,0.8
	c0.3,0.3,0.6,0.5,0.9,0.7C52.8,114.3,53.1,114.5,53.4,114.6z M52.3,121.1c-0.3,0.3-0.3,0.7-0.1,1c0.2,0.4,0.5,0.6,0.8,0.6
	c0.3-0.3,0.4-0.7,0.2-1C53.1,121.3,52.8,121.1,52.3,121.1z M52.1,137c0.8,0,1-0.2,0.6-0.6C52.3,136.1,52.1,136.3,52.1,137z
	 M52.3,99.6c-0.2,0.8-0.1,1.3,0.2,1.6c0.3,0.3,0.5,0.8,0.5,1.4c0.8-0.3,0.9-0.8,0.5-1.5C53,100.4,52.6,99.9,52.3,99.6z M52.3,18.8
	c0.5,0,0.6-0.2,0.3-0.5C52.4,18,52.3,18.2,52.3,18.8z M53,97.1c-0.5,0-0.7,0.3-0.7,0.9c0.3,0,0.5-0.1,0.5-0.3
	C52.8,97.4,52.8,97.2,53,97.1z M52.3,124.8c0.2,0.3,0.2,0.7,0.1,1.3c-0.1,0.5,0,0.9,0.3,1c0.5-0.3,0.6-0.8,0.5-1.5
	C53.1,124.9,52.8,124.6,52.3,124.8z M52.5,139.6c-0.2,0.8,0.2,1.1,1,1c0.8-0.1,1.3-0.3,1.3-0.8C53.9,139,53.1,138.9,52.5,139.6z
	 M53,80.5c0,0.3-0.1,0.5-0.2,0.7h0.7C53.4,80.7,53.3,80.5,53,80.5z M52.8,96.8c0.6,0,0.8-0.1,0.5-0.3C52.9,96.3,52.8,96.4,52.8,96.8
	z M52.8,143.9c0.5,0,0.7,0.1,0.6,0.3c-0.1,0.2,0.1,0,0.6-0.6C53.3,143.4,52.9,143.5,52.8,143.9z M53.7,118.8
	c-0.3-0.3-0.5-0.2-0.6,0.2c-0.1,0.5,0,0.7,0.3,0.7c0-0.3,0.1-0.5,0.3-0.5C54,119.2,54,119.1,53.7,118.8z M53.2,55.5
	c0.5,0,0.6-0.1,0.3-0.3C53.3,54.9,53.2,55.1,53.2,55.5z M53.2,111.2c0.3,0.2,0.6,0,0.9-0.5h-0.9V111.2z M53.9,85.8
	c0-0.5-0.2-0.7-0.5-0.7c-0.2,0.2-0.2,0.3-0.1,0.6C53.4,85.9,53.6,85.9,53.9,85.8z M54.1,129.4c0.3-0.2,0.4-0.5,0.2-0.9
	c-0.2-0.5-0.5-0.6-0.9-0.5c0.2,0.3,0.2,0.6,0.2,0.9C53.7,129.2,53.8,129.4,54.1,129.4z M54.6,136.8c0.2-0.8-0.2-1.3-1.2-1.6
	c0.2,0.3,0.3,0.7,0.3,1C53.9,136.6,54.1,136.8,54.6,136.8z M53.4,141.9c0.5,0.3,0.9,0.3,1.4,0c0.3-0.3,0.2-0.5-0.5-0.6
	C53.8,141.2,53.4,141.4,53.4,141.9z M53.9,132.6c0.2-0.2,0.5-0.3,0.9-0.6c0.5-0.2,0.9-0.5,1.3-0.9c0.4-0.4,0.7-0.7,0.8-1
	c0.2-0.3-0.1-0.5-0.7-0.7c-0.3,0.5-0.8,0.9-1.6,1.4C53.8,131.2,53.6,131.9,53.9,132.6z M54.1,146.5c-0.3,0.3-0.4,0.6-0.2,0.9
	c0.3,0.2,0.5,0,0.6-0.3C54.6,146.7,54.4,146.5,54.1,146.5z M54.8,100.1c-0.2-0.3-0.3-0.4-0.3-0.2c-0.1,0.2-0.3,0.2-0.6,0.2
	c0,0.5,0.2,0.7,0.5,0.6C54.7,100.6,54.8,100.4,54.8,100.1z M53.9,155.7c0.3,0,0.5-0.1,0.7-0.2c0.2-0.2,0.1-0.3-0.2-0.5
	c-0.3-0.3-0.4-0.3-0.3,0C54.1,155.3,54.1,155.6,53.9,155.7z M54.1,152.3c0.3,0,0.5-0.2,0.5-0.5C54.1,151.8,54,151.9,54.1,152.3z
	 M54.6,94.1c0.2-0.5,0.1-0.7-0.2-0.7C54.4,93.7,54.4,93.9,54.6,94.1z M55.1,143c-0.3,0.3-0.4,0.7-0.3,1c0.1,0.4,0,0.7-0.1,1
	c0.6,0.2,1-0.1,1.3-0.8C56.1,143.6,55.8,143.2,55.1,143z M55.8,149.6c-0.5-0.2-0.8-0.3-1.2-0.3c0.2,0.3,0.3,0.5,0.6,0.6
	c0.2,0.1,0.1,0.2-0.3,0.3l0.9,0.5C56.2,150.2,56.2,149.8,55.8,149.6z M56,127.1c-0.3-0.3-0.6-0.3-0.9-0.1c-0.3,0.2-0.3,0.5,0,0.8
	C55.7,127.8,56,127.6,56,127.1z M56.7,105.6c-0.3-0.3-0.7-0.3-1.3,0c-0.5,0.3-0.7,0.6-0.3,0.9C56.1,106.5,56.7,106.2,56.7,105.6z
	 M55.3,135.4c0.6,0.2,0.9-0.1,0.9-0.7c0-0.6-0.2-0.8-0.7-0.7C55.2,134.8,55.1,135.3,55.3,135.4z M55.3,146.5
	c-0.2,0.5,0.1,0.7,0.7,0.7c0.6,0,0.9-0.2,0.9-0.5c-0.3,0-0.6-0.1-0.8-0.2C55.9,146.3,55.6,146.3,55.3,146.5z M55.5,81.1
	c0.2-0.2,0.5-0.2,0.9-0.2c0-0.5-0.3-0.7-0.9-0.7V81.1z M55.5,88.1h0.7c0-0.3-0.2-0.4-0.7-0.2V88.1z M55.8,12.2
	c-0.2,0.1-0.1,0.2,0.2,0.3v-0.7C56,12,55.9,12.2,55.8,12.2z M58.1,137.9c0.5-0.3,0.6-0.6,0.5-0.8c-0.2-0.2-0.1-0.6,0.2-1
	c0.5-0.8,0.3-1.2-0.5-1.2c-0.8,0-1.2,0.4-1.4,1.2c0.5,0,0.7,0.1,0.7,0.2c0,0.2-0.1,0.3-0.3,0.6c-0.2,0.2-0.7,0.7-1.5,1.3
	C56.4,138.6,57.1,138.6,58.1,137.9z M56.9,123.2c0.2-0.5,0-0.7-0.3-0.7c-0.4,0-0.5,0.2-0.3,0.7H56.9z M56.2,103.8
	c0.3,0,0.7,0.1,1.2,0.3c0.5,0.2,0.8,0,0.9-0.6c-0.3-0.3-0.8-0.5-1.4-0.7C56.3,102.7,56.1,103,56.2,103.8z M56.2,95.2
	c0.5,0,0.6-0.1,0.3-0.3C56.3,94.7,56.2,94.8,56.2,95.2z M56.7,88.5c-0.3,0.2-0.4,0.5-0.2,1c0.2,0.5,0.4,0.7,0.7,0.6
	C57.8,89.7,57.6,89.2,56.7,88.5z M56.9,49.3c0,0.3-0.1,0.5-0.3,0.7c-0.2,0.2-0.2,0.3,0.1,0.5c0.3,0.2,0.5,0.1,0.7-0.2
	C57.5,49.9,57.4,49.6,56.9,49.3z M56.7,69.6c-0.3,0.5-0.2,0.7,0.5,0.7C57.4,69.5,57.3,69.3,56.7,69.6z M57.6,100.8
	c-0.6,0-0.9,0.4-0.9,1.2C57.3,101.9,57.6,101.5,57.6,100.8z M56.7,114.9c0.5,0,0.6-0.2,0.3-0.5C56.8,114.1,56.7,114.2,56.7,114.9z
	 M57.1,93.2c0.5,0,0.7-0.1,0.7-0.3c0-0.2,0-0.5,0-0.8c-0.3-0.8-0.6-0.8-0.8-0.2C56.8,92.4,56.8,92.8,57.1,93.2z M57.1,165.2
	c0.3-0.8,0.3-1,0-0.6C56.8,165,56.8,165.2,57.1,165.2z M56.9,98c0,0.2,0.2,0.2,0.6,0.2c0.4,0,0.6-0.3,0.6-0.9
	c-0.3,0.2-0.6,0.2-0.8,0.2C57,97.5,56.9,97.7,56.9,98z M57.4,116c0,0.2,0,0.3-0.1,0.3c-0.1,0.1-0.1,0.2-0.1,0.3
	c0.3,0,0.5-0.1,0.6-0.2C57.8,116.3,57.7,116.2,57.4,116z M57.6,96.6c0.6,0,0.9-0.2,0.8-0.5c-0.1-0.3-0.2-0.5-0.5-0.7
	c-0.2-0.2-0.4-0.2-0.6-0.1C57.2,95.4,57.3,95.8,57.6,96.6z M58.1,127.3c-0.3,0-0.5,0.2-0.7,0.6c-0.2,0.4-0.1,0.7,0.2,0.8
	c0.2-0.3,0.3-0.5,0.5-0.6C58.2,128.1,58.2,127.8,58.1,127.3z M57.8,114.2c0-0.6-0.2-0.9-0.5-0.9C57.2,113.5,57.4,113.9,57.8,114.2z
	 M57.4,148.3c0.6,0,0.9-0.1,0.9-0.2C57.7,147.6,57.4,147.7,57.4,148.3z M57.6,65c-0.3,0.6-0.2,0.9,0.2,0.9
	C58.1,65.6,58.1,65.3,57.6,65z M57.6,114.4c-0.3,0.3-0.2,0.6,0.3,0.9c0.5,0.3,1,0.5,1.3,0.5C58.9,115,58.4,114.5,57.6,114.4z
	 M57.6,106.3c0,0.8,0.3,1.2,0.9,1.4c0.3-0.3,0.3-0.7,0-1.2C58.2,106.1,57.9,106,57.6,106.3z M57.8,145.8c0,0.5,0.1,0.7,0.2,0.7
	c0-0.3,0-0.5,0.1-0.6C58.3,145.8,58.1,145.8,57.8,145.8z M58.1,78.4c-0.2,0.6,0.1,0.9,0.7,0.9c0.2-0.6,0.2-0.9,0-0.9
	C58.6,78.4,58.4,78.4,58.1,78.4z M58.5,143.3c-0.3,0.5-0.1,0.7,0.6,0.8c0.7,0.1,0.9-0.2,0.6-0.8H58.5z M59.7,47.9
	c-0.5,0.3-0.8,0.8-0.9,1.6c-0.2,0.8,0.2,1,0.9,0.7c-0.3-0.3-0.2-0.7,0.3-1.2C60.6,48.6,60.4,48.2,59.7,47.9z M60.1,73.3
	c-0.3-0.3-0.6-0.3-0.9-0.1c-0.3,0.2-0.5,0.5-0.5,0.8c0.3,0,0.5-0.1,0.7-0.3C59.6,73.4,59.8,73.3,60.1,73.3z M58.8,83.9
	c0.6,0.3,1,0.2,1.3-0.5c0.2-0.6,0.3-1.1,0.3-1.4c-0.5,0-1,0.2-1.6,0.5c0.6,0.2,0.8,0.3,0.5,0.6C58.9,83.3,58.8,83.6,58.8,83.9z
	 M58.8,104.9c0.3,0.5,1,0.8,2.1,0.9c1.1,0.2,1.6-0.2,1.6-1.2c-0.8,0.2-1.5,0-2.2-0.5C59.6,103.8,59.1,104,58.8,104.9z M59.2,153.9
	c0.3-0.2,0.4-0.4,0.2-0.7c-0.2-0.3-0.4-0.5-0.7-0.5c0.2,0.3,0.2,0.6,0.1,0.9C58.8,154,58.9,154,59.2,153.9z M59.9,103.1
	c0.5-0.3,0.7-0.7,0.6-1c-0.1-0.4-0.3-0.7-0.8-0.8c-0.8-0.3-1-0.1-0.8,0.7C59.1,102.7,59.4,103.1,59.9,103.1z M59.2,21.4h0.7
	c0-0.3-0.2-0.4-0.7-0.2V21.4z M60.8,113.7c0.3,0.2,0.5,0.1,0.5-0.1c0-0.2,0.2-0.3,0.5-0.3c0-0.3-0.2-1-0.7-2.1
	c-0.5-1.1-0.8-1.6-1.2-1.6c-0.3,0.6-0.3,1.2,0,1.7c0.3,0.5,0.2,1-0.5,1.5c0.3,0,0.5,0.1,0.7,0.3C60.3,113.4,60.5,113.5,60.8,113.7z
	 M59.4,122.5c0.5,0,0.6-0.1,0.3-0.3C59.6,121.9,59.4,122,59.4,122.5z M61.3,127.6c0-0.5-0.3-0.7-0.8-0.7c-0.5,0-0.8,0.2-0.8,0.7
	C60.3,127.7,60.8,127.7,61.3,127.6z M61.1,137.2c0.2-0.5,0-0.7-0.6-0.6c-0.5,0.1-0.7,0.3-0.6,0.8C60.5,137.5,60.9,137.4,61.1,137.2z
	 M61.1,118.5c0.3-0.3,0.3-0.6,0-0.8c-0.3-0.2-0.4-0.5-0.2-0.8h-0.9C59.9,117.7,60.3,118.2,61.1,118.5z M60.1,97.5
	c1.1,0,1.4-0.2,1-0.7c-0.4-0.5-0.7-0.5-1,0V97.5z M60.8,153.9c0.3-0.2,0.4-0.4,0.2-0.8c-0.2-0.4-0.4-0.6-0.7-0.6
	C60.2,153.3,60.4,153.7,60.8,153.9z M60.4,73.3c0.5,0,0.6-0.1,0.3-0.3C60.5,72.7,60.4,72.8,60.4,73.3z M60.8,130.8
	c0,0.2-0.1,0.2-0.2,0.2c-0.2,0-0.2,0.2,0,0.5h0.5C61.2,131.3,61.1,131.1,60.8,130.8z M62,147.2c0-0.5,0-1,0-1.5c0-0.5-0.2-1-0.5-1.5
	c-0.8,0-1,0.4-0.6,1.3C61.3,146.3,61.7,146.9,62,147.2z M60.8,56.2c-0.2,0.3-0.1,0.5,0.2,0.5l0.5-0.5C61.2,55.9,61,55.9,60.8,56.2z
	 M61.8,89c0.2-0.5,0.1-0.8-0.2-1c-0.3-0.2-0.5-0.3-0.7-0.1C60.8,88.6,61.1,89,61.8,89z M60.8,108.4c0.3,0,0.7,0,1.2-0.1
	c0.5-0.1,0.5,0.3,0.2,1c0.9,0,1.4-0.2,1.4-0.5c0-0.3-0.2-0.6-0.6-0.9c-0.4-0.3-0.8-0.5-1.4-0.5C61.1,107.5,60.8,107.8,60.8,108.4z
	 M60.8,125.7c0.5,0.2,0.8,0,1.2-0.5c-0.3,0-0.5-0.1-0.6-0.2c-0.1-0.2-0.3-0.2-0.6,0V125.7z M61.8,135.2c0.2-0.3,0.1-0.6-0.1-0.8
	c-0.2-0.2-0.5-0.2-0.8,0.1C60.8,134.6,61.1,134.9,61.8,135.2z M63.6,141.6c0.3-0.5,0.3-0.8,0.1-1.2c-0.2-0.3-0.5-0.5-0.8-0.7
	c-0.8-0.3-1.2-0.3-1.4,0c-0.2,0.3-0.4,0.8-0.7,1.6c0.3,0,0.5,0.2,0.6,0.5c0.1,0.3,0.3,0.4,0.8,0.2c0-0.3-0.1-0.5-0.2-0.6
	c-0.2-0.1-0.1-0.3,0.2-0.6c0.5-0.6,0.7-0.7,0.8-0.2C63.1,141.2,63.3,141.5,63.6,141.6z M62.2,100.8c0-0.6-0.4-0.8-1.2-0.5
	C60.9,100.6,61.3,100.8,62.2,100.8z M61.5,51.4c0.3,0.6,0.2,1.1-0.5,1.4c0.3,0,0.7,0,1.2,0c0.5,0,0.5,0.2,0.2,0.7
	c0.9,0,1.1-0.3,0.6-0.9C62.5,51.9,62,51.5,61.5,51.4z M61.3,110.2c0.5,0,0.7-0.2,0.7-0.7C61.5,109.5,61.3,109.8,61.3,110.2z
	 M62,139.1c-0.2-0.2-0.2-0.4,0-0.7c0.2-0.3,0.1-0.5-0.2-0.5C61.3,138.7,61.4,139.1,62,139.1z M63.1,114.4c-0.8-0.5-1.3-0.3-1.5,0.5
	c-0.2,0.8,0.1,1.3,1,1.6C62.7,115.5,62.8,114.9,63.1,114.4z M65,136.1c0.5-0.2,1.2-0.3,2.2-0.3c1-0.1,1.7-0.5,2-1.3
	c-0.5-0.3-1.2-0.5-2.1-0.5c-0.2,0.9-0.8,1.4-2.1,1.4c-1.2,0-2.2-0.2-2.8-0.5c0,0.3-0.1,0.5-0.3,0.6c-0.2,0.1-0.3,0.3-0.1,0.6
	c0.5,0.3,1,0.4,1.6,0.2C64,136.2,64.5,136.1,65,136.1z M64.1,83c0.2-0.8-0.1-1.1-0.8-1c-0.7,0.1-1.2,0.2-1.5,0.3
	c-0.2,0.8,0.1,1,0.7,0.8C63.1,82.9,63.6,82.8,64.1,83z M62.5,49.1c-0.5-0.2-0.7,0-0.7,0.3c0,0.4,0.2,0.6,0.7,0.6V49.1z M62,74.2
	c-0.2,0.2-0.2,0.4-0.2,0.7c0,0.3,0.2,0.5,0.5,0.5c0.2,0,0.2-0.2,0.2-0.7C62.5,74.2,62.3,74.1,62,74.2z M61.8,94.5
	c0.8,0.3,1.2,0.1,1.2-0.7C62.1,93.7,61.8,93.9,61.8,94.5z M63.1,123.2c0.3-0.6,0.6-0.7,0.9-0.2c0.3,0.5,0.6,0.5,0.9,0.2
	c-0.3-1.2-0.5-1.6-0.7-1.2c-0.2,0.5-0.5,0.6-1.2,0.5c0.2-0.6-0.1-0.8-0.8-0.6C61.6,122.1,61.9,122.6,63.1,123.2z M62.2,155.7
	c-0.3,0.8,0,1,0.9,0.7c0.2-0.3,0.1-0.5-0.2-0.5C62.6,156,62.4,155.9,62.2,155.7z M63.1,134.7c0.3-0.3,0.4-0.7,0.2-1.2
	c-0.3,0-0.5,0.1-0.6,0.3C62.7,134.1,62.8,134.4,63.1,134.7z M65,99.2c-0.5,0.9-1.2,1.2-2.1,0.7c-0.3,1.1,0,1.5,0.9,1.2
	c0.9-0.3,1.6-0.5,2.1-0.7c-0.2,0.5,0,0.8,0.3,1.2c0.4,0.3,0.8,0.3,1.3,0c-0.3-0.5-0.7-0.8-1.2-1.2C65.9,100,65.5,99.6,65,99.2z
	 M63.6,70.1c0-0.8-0.2-1.1-0.7-0.9c-0.2,0.2-0.2,0.3,0,0.6C63.1,70,63.3,70.1,63.6,70.1z M66.4,86.2c-0.6-0.2-1.3-0.2-2,0
	c-0.7,0.2-1.2,0.5-1.5,1.2c0.5,0.3,1.2,0.4,2.1,0.2C65.9,87.5,66.4,87,66.4,86.2z M62.9,127.1c0.5-0.2,0.8-0.6,0.9-1.3
	c0.2-0.7-0.2-1-0.9-1c0.3,0.3,0.4,0.7,0.3,1C63.2,126.2,63.1,126.6,62.9,127.1z M62.9,158.5c0.6-0.2,1-0.5,1.3-0.9
	c0.2-0.5,0.5-0.8,0.8-1.2c-0.8,0-1.5,0.6-2.1,1.8V158.5z M63.1,144.4c0.6,0,0.8-0.1,0.5-0.3C63.3,143.8,63.1,143.9,63.1,144.4z
	 M64.5,148.1c0.2-0.3,0.2-0.6,0.1-0.9c-0.1-0.3-0.4-0.5-1-0.5c-0.3,0.3-0.3,0.7-0.1,1C63.7,148.1,64.1,148.3,64.5,148.1z
	 M63.4,137.7c0.3,0.3,0.5,0.6,0.6,0.9c0.1,0.3,0.3,0.3,0.6,0c0-0.3-0.1-0.6-0.3-0.9C64,137.4,63.7,137.4,63.4,137.7z M64.1,113.7
	c0.3-0.6,0.8-0.9,1.6-0.9c0.8,0,1.3,0,1.6,0c-0.2-0.3-0.2-0.6,0-0.9c0.2-0.3,0.2-0.6,0-0.9c-0.5,0-0.9,0.2-1.4,0.6
	c-0.5,0.4-1,0.4-1.6,0.1c-0.3,0.2-0.5,0.5-0.6,0.9C63.6,113,63.8,113.4,64.1,113.7z M64.1,119.5c0.8-0.2,1.1-0.6,1-1.4
	c-0.1-0.8,0.2-1.3,0.8-1.6c-0.3-0.2-0.5-0.2-0.6-0.1c-0.1,0.1-0.3,0.1-0.6,0.1c-0.2,0.5-0.4,1-0.7,1.5
	C63.8,118.5,63.8,119,64.1,119.5z M65.7,84.4c-0.2-0.3-0.5-0.5-1-0.6c-0.5-0.1-0.8,0.2-0.8,0.8c0.5,0,0.8,0,1,0.1
	C65.1,84.8,65.4,84.7,65.7,84.4z M64.1,152.3c0.5,0,0.6-0.1,0.3-0.3C64.2,151.7,64.1,151.8,64.1,152.3z M64.3,132.9
	c-0.2,0.5,0.2,0.7,0.9,0.7c0.2-0.5,0.1-0.8-0.2-0.9C64.7,132.5,64.4,132.6,64.3,132.9z M65.5,102.9c-0.8-0.2-1.2,0.4-1.2,1.6
	C65.1,104.5,65.5,103.9,65.5,102.9z M64.5,144.9c0.2,0.2,0.4,0.2,0.7,0c0.3-0.2,0.4-0.5,0.2-0.9c-0.3,0.2-0.5,0.3-0.6,0.5
	C64.8,144.6,64.7,144.7,64.5,144.9z M64.8,90.6c0.6,0,0.9-0.2,0.9-0.5C65.5,90,65.3,90,65,90C64.7,90.1,64.6,90.3,64.8,90.6z
	 M65.5,78.1c-0.6-0.3-0.8-0.1-0.5,0.7C65.5,78.8,65.6,78.6,65.5,78.1z M66.8,73.3c0.6-0.6,1.1-0.6,1.4,0c0.3,0.6,0.6,1.2,0.9,1.6
	c-0.2-0.3-0.2-0.5,0-0.5c0.2,0,0.3-0.1,0.5-0.2c0.2-0.5,0.2-0.9,0-1.3c-0.2-0.4-0.4-0.8-0.7-1.3c-0.5,0.3-1.1,0.3-1.8,0
	c-0.3-0.2-0.7-0.2-1.2-0.2c0-0.5-0.3-0.6-0.9-0.5c-0.2,0.5,0,0.6,0.3,0.5c0.4-0.2,0.6-0.1,0.6,0.2c0.2,0.2,0.2,0.5,0.2,1.2
	C66.1,73.5,66.4,73.6,66.8,73.3z M65.5,42.1c-0.5,0-0.6,0.2-0.5,0.7C65.5,42.8,65.6,42.6,65.5,42.1z M65,59.4
	c0.2,0.3,0.6,0.6,1.4,0.9c0.3-0.6,0.2-1-0.3-1.3C65.5,58.9,65.1,59,65,59.4z M65,89.7c0.3,0,0.8-0.2,1.6-0.7
	c0.8-0.5,0.8-0.8,0.2-1.2c-0.5,0.8-1.1,1.1-1.8,0.9V89.7z M66.1,14.2c0-0.5-0.1-0.7-0.3-0.7c-0.2,0-0.4,0.1-0.5,0.2
	c-0.1,0.2-0.1,0.3,0,0.5C65.4,14.4,65.7,14.4,66.1,14.2z M66.6,130.3c0.2-0.3,0-0.6-0.3-0.8c-0.4-0.2-0.7-0.2-0.8,0.1
	c0.3,0.2,0.5,0.3,0.6,0.5C66.1,130.2,66.3,130.3,66.6,130.3z M67.1,80.2c0-0.9-0.5-1.3-1.4-1.2c-0.2,0.5,0,0.8,0.3,1.2
	C66.4,80.5,66.8,80.5,67.1,80.2z M66.4,50.4c0.2-0.6-0.1-0.8-0.7-0.7C65.7,50.2,65.9,50.4,66.4,50.4z M67.1,97.1
	c-0.9,0.3-1.4,0.7-1.4,1.2c0.5,0.2,0.7,0.1,0.8-0.2C66.6,97.7,66.8,97.4,67.1,97.1z M65.7,138.9c0.5,0,0.6-0.1,0.3-0.3
	C65.8,138.3,65.7,138.4,65.7,138.9z M65.9,127.3c-0.2,0.5,0,0.6,0.5,0.5c0.5-0.2,0.5-0.3,0.2-0.5h-0.5H65.9z M65.9,95.9
	c0,0.5,0.4,0.7,1.2,0.7c0-0.3-0.1-0.6-0.3-0.8C66.5,95.6,66.2,95.6,65.9,95.9z M66.8,106.1c0.3-0.3,0.7-0.4,1-0.3
	c0.4,0.1,0.6-0.1,0.6-0.6c-0.6,0.3-1.3,0.2-2.1-0.2c-0.2,0.3-0.2,0.5,0,0.6C66.5,105.6,66.7,105.8,66.8,106.1z M66.6,74.2
	c-0.2,0.2-0.2,0.6-0.2,1.4c0.3,0,0.5-0.2,0.6-0.6C67,74.6,66.9,74.4,66.6,74.2z M66.8,137.5c0-0.3,0.1-0.5,0.2-0.7
	c-0.3,0-0.5,0.1-0.7,0.2L66.8,137.5z M67.3,51.4c-0.5,0-0.7,0.1-0.8,0.3c-0.1,0.2,0,0.5,0.3,0.8C67.3,52.4,67.4,52,67.3,51.4z
	 M67.5,33.8c0-0.5-0.1-0.7-0.3-0.7c-0.2,0-0.3,0.2-0.3,0.5c0.2,0,0.3,0,0.3,0.1C67.3,33.8,67.4,33.8,67.5,33.8z M67.1,42.8
	c0.2,0,0.3-0.1,0.3-0.3c0.1-0.2,0-0.3-0.3-0.3c-0.2,0.3-0.2,0.5-0.1,0.5C67,42.6,67.1,42.7,67.1,42.8z M67.1,91.1
	c-0.2,0.6,0,1,0.5,1c0.5,0.1,0.8,0,0.9-0.3c-0.3-0.2-0.5-0.3-0.6-0.6C67.8,91,67.5,90.9,67.1,91.1z M68,29.7
	c-0.3-0.3-0.6-0.2-0.9,0.2C67.7,30.5,68,30.4,68,29.7z M69.4,41c-0.3-0.5-0.8-0.7-1.4-0.8c-0.6-0.1-0.9,0.3-0.9,1
	c0.6,0,1.1,0.3,1.4,0.8C68.8,42.6,69.1,42.2,69.4,41z M68.2,85.8c0-0.3-0.1-0.5-0.3-0.7c-0.2-0.2-0.5,0.1-0.8,0.7
	c0.3-0.2,0.5-0.2,0.6,0C67.7,85.9,67.9,85.9,68.2,85.8z M67.1,125c0.3,0.2,0.7,0.2,1,0.1c0.4-0.1,0.7-0.1,1-0.1
	c-0.2-0.8-0.5-1.2-1.2-1.2C67.4,123.9,67.1,124.2,67.1,125z M67.3,67.3c0.3,0.3,0.5,0.2,0.5-0.2c0-0.5-0.2-0.5-0.5-0.2V67.3z
	 M67.3,114.9c0.8,0,1-0.2,0.6-0.6C67.5,113.9,67.3,114.1,67.3,114.9z M69.1,57.8c0,0.8-0.3,1.1-0.8,0.9c-0.5-0.2-0.8,0-0.8,0.5
	c0.3,0,0.7,0,1,0.1c0.4,0.1,0.7,0,1-0.1c-0.2-0.2-0.2-0.4-0.1-0.8C69.6,58,69.5,57.8,69.1,57.8z M67.5,77.5c0.8,0,1-0.2,0.6-0.6
	C67.7,76.5,67.5,76.7,67.5,77.5z M67.8,110.2c0.9,0,1.1-0.2,0.6-0.6C67.8,109.3,67.6,109.5,67.8,110.2z M68.9,13
	c-0.5-0.2-0.8,0-1.2,0.5C68.5,14.1,68.9,14,68.9,13z M69.1,54.1c-0.2,0,0-0.2,0.3-0.6c0.4-0.4,0.2-0.5-0.6-0.3
	C68.8,53.5,68.8,53.8,69.1,54.1z M70.3,92.7c0.5-0.8,0.3-1.2-0.3-1.4c-0.7-0.2-1,0.2-1,0.9C69.2,92.7,69.7,92.8,70.3,92.7z
	 M69.1,47.2c0.6,0.5,1,0.5,1.3,0.2c0.2-0.3,0.3-0.6,0.2-0.9c-0.1-0.3-0.2-0.5-0.5-0.6C70,45.9,69.6,46.3,69.1,47.2z M69.1,79.5
	c0,0.5,0,0.6,0.1,0.5c0.1-0.2,0.3-0.2,0.6-0.2c0-0.5-0.1-0.6-0.2-0.5C69.5,79.5,69.3,79.5,69.1,79.5z M73.8,108.9
	c-0.6-0.9-1.2-1.8-1.7-2.8c-0.5-0.9-1.5-1.5-2.9-1.6c0.2,0.3,0.3,0.6,0.6,0.8c0.2,0.2,0.3,0.6,0.3,1c1.1-0.3,1.7-0.2,1.7,0.3
	c0.1,0.5-0.1,1.2-0.6,2C72.1,108.9,73,109,73.8,108.9z M69.4,9.6h0.7c0-0.3-0.2-0.5-0.7-0.5V9.6z M69.4,101.2c0.2,0.5,0.5,0.8,0.9,1
	c0.5,0.2,0.9,0.5,1.4,0.7c0.5,0.2,0.8,0.5,1.2,0.9c0.3,0.4,0.4,0.9,0.2,1.5c0.6-0.3,1-0.2,1.2,0.3c0.2,0.5,0.5,0.8,1.2,0.8
	c0.2-0.6,0-1.1-0.3-1.4c-0.4-0.3-0.2-0.6,0.6-0.9c0.8-0.2,1-0.5,0.7-1c-0.3-0.5-0.7-0.5-1.2,0.1c-0.6,0.8-1.2,0.8-1.6,0.1
	c-0.5-0.7-0.9-1.2-1.4-1.5c-0.6,0.3-1.1,0.3-1.4-0.1C70.5,101.4,70,101.2,69.4,101.2z M70.5,108.6c-0.8,0-1.1,0.3-0.9,0.9
	C70.2,109.7,70.5,109.4,70.5,108.6z M69.6,84.2c0.5,0,0.6-0.1,0.3-0.3C69.7,83.6,69.6,83.7,69.6,84.2z M69.6,155.5
	c0,0.3,0.1,0.5,0.2,0.7c0-0.2,0-0.3,0.1-0.6C70,155.4,69.9,155.3,69.6,155.5z M73.3,70.5c-0.5-0.8-0.5-1.4,0-1.8
	c0.5-0.5,0.8-1,1.2-1.6c-0.3-0.2-0.5-0.2-0.7,0c-0.2,0.2-0.4,0.2-0.7,0.2c-0.5-0.8-1.2-0.9-2.3-0.5c-1.1,0.5-1.3,1-0.7,1.6
	c0.6,0.5,1.1,0.3,1.5-0.6c0.4-0.8,0.7-0.8,1,0.1v1.6c0,0.3,0,0.6,0.1,0.9C72.8,70.8,73,70.8,73.3,70.5z M69.8,4
	c-0.2,0.3-0.1,0.5,0.2,0.5c0.3,0,0.5-0.1,0.5-0.2c-0.2,0-0.2,0-0.2-0.1C70.3,4.1,70.1,4,69.8,4z M69.8,61.1c0,0.5,0.2,0.7,0.7,0.7
	C70.7,61.1,70.5,60.9,69.8,61.1z M69.8,125c0,0.9,0.3,1.4,0.9,1.4c-0.2-0.3-0.2-0.6-0.2-0.9C70.5,125.2,70.3,125,69.8,125z
	 M69.8,162c0.3,0,0.5-0.2,0.7-0.5c-0.2,0-0.3,0-0.3-0.1c-0.1-0.1-0.2-0.1-0.3-0.1V162z M70.1,70.1c0,0.5,0.2,0.8,0.6,1.2
	c0.4,0.3,0.7,0.3,1,0c0-0.6-0.2-0.9-0.6-0.9C70.7,70.3,70.4,70.2,70.1,70.1z M70.1,123.2c0,0.3,0.1,0.6,0.3,0.8
	c0.2,0.2,0.5,0.2,0.8-0.1C70.9,123.2,70.5,123,70.1,123.2z M71.7,40.3c0.5,0.6,0.5,1.2,0.1,1.6c-0.4,0.5-0.9,0.5-1.5,0.2v0.9
	c0.9,0.3,1.7-0.1,2.2-1.2C73,40.8,72.8,40.3,71.7,40.3z M75.4,58.1c-0.6-0.6-0.8-1.2-0.7-1.6c0.2-0.5,0-1-0.5-1.6
	c-1.1-0.2-1.6,0.2-1.6,1c0,0.8-0.4,1.3-1.2,1.3c0.2,0,0-0.2-0.6-0.6c-0.5-0.4-0.7-0.3-0.3,0.3c0.3,0.6,0.7,0.8,1.2,0.7
	c0.5-0.2,1-0.2,1.6-0.2c0.3,0.2,0.6,0.3,0.8,0.3c0.2,0.1,0.3,0.3,0.3,0.6c0.3,0.5,0.5,0.7,0.7,0.6c0.2-0.1,0.4,0,0.7,0.3
	c-0.2,0-0.4,0.3-0.8,1c-0.4,0.7-0.7,1.1-1,1.3c0-0.3-0.2-0.5-0.7-0.5c-0.5,0-0.8-0.1-1.2-0.2c-0.3,0.6-0.6,1.3-0.8,2
	c-0.2,0.7-0.5,1.4-0.8,2.2c1.1-0.2,2,0.2,2.8,1.2c-0.3-0.6-0.2-1,0.2-1.2c0.3-0.3,0.3-0.6-0.1-0.8c-0.4-0.2-0.7-0.5-1-0.8
	c-0.3-0.6-0.3-1-0.1-1c0.2-0.1,0.6-0.1,1-0.1c0.8-0.2,1.1-0.2,0.9,0c-0.2,0.2,0.1,0.4,0.7,0.7c0.3-1.4,1.2-2.1,2.5-2.1
	C77,59.8,76.3,58.8,75.4,58.1z M70.8,72.1c0,0.6,0.2,0.9,0.5,0.9c0.3-0.3,0.4-0.6,0.2-0.8C71.3,72,71.1,72,70.8,72.1z M71.2,149.3
	c-0.6,0.9-0.5,1.2,0.5,0.9C71.7,149.9,71.5,149.6,71.2,149.3z M71.2,32.2c0,0.3-0.1,0.5-0.2,0.7c-0.2,0.2-0.1,0.3,0.2,0.5
	c0.3-0.2,0.5-0.4,0.5-0.7C71.7,32.4,71.5,32.2,71.2,32.2z M73.1,44.4c-0.5-0.2-0.8-0.1-1.2,0.1c-0.3,0.2-0.6,0.1-0.9-0.3
	c-0.2,0.3-0.1,0.5,0.2,0.7c0.3,0.2,0.3,0.4,0,0.7C72.3,45.6,72.9,45.2,73.1,44.4z M71.2,142.1c0.6-0.6,0.9-1,0.8-1.2
	c-0.1-0.2-0.2-0.2-0.5-0.1c-0.2,0.1-0.4,0.3-0.6,0.6C70.8,141.7,70.9,141.9,71.2,142.1z M71.2,147.4c0.5,0.2,0.8-0.1,0.9-0.8
	c0.2-0.7-0.1-1.1-0.7-1.3c-0.3,0.3-0.4,0.7-0.3,1C71.2,146.8,71.2,147.1,71.2,147.4z M71.7,80.9c-0.2,0.8,0.2,0.9,1,0.5
	c0.8-0.5,1.3-0.7,1.5-0.7c-0.2-0.6-0.3-1.3-0.3-2.2c-0.1-0.8-0.5-1.3-1.3-1.3c0.2,0.2,0.2,0.5,0.2,1.2c-0.2,0.3-0.6,0.5-1.3,0.5
	c-0.7,0-0.4,0.2,0.8,0.5c0.8,0.3,0.8,0.6,0.2,0.8C72,80.3,71.7,80.6,71.7,80.9z M71.5,150.4c0.3,0.6,0.2,1-0.2,1.2
	c0.8,0,1.2-0.2,1.3-0.7C72.6,150.4,72.2,150.3,71.5,150.4z M71.5,126.2c0,0.3,0.3,0.6,0.9,0.9c0.6,0.3,1.1,0.3,1.4,0
	c-0.3-0.3-0.7-0.6-1-0.9C72.3,125.9,71.9,125.9,71.5,126.2z M72.4,87.4c0-0.8-0.2-1.2-0.7-1.2c-0.2,0.3-0.2,0.6-0.1,0.9
	C71.6,87.5,71.9,87.5,72.4,87.4z M72.4,112.8c0.2-0.8-0.1-1.1-0.7-0.9C71.7,112.5,71.9,112.8,72.4,112.8z M71.7,120.4
	c0.2,0.5,0.6,1,1.3,1.5c0.7,0.5,1.2,0.7,1.5,0.3c0.5-0.6,0.7-1,0.6-1.2c-0.1-0.2-0.3-0.5-0.6-0.9c-0.3-0.5-0.7-0.6-1.3-0.5
	C72.6,119.9,72.1,120.1,71.7,120.4z M71.9,137.5c-0.2,0.3-0.1,0.5,0.2,0.6c0.3,0.1,0.5,0,0.7-0.3c-0.3,0-0.5-0.1-0.5-0.2
	C72.4,137.3,72.2,137.3,71.9,137.5z M73.5,73.5c0-0.3-0.1-0.6-0.2-0.9c-0.2-0.3-0.2-0.7,0-1.2c-1.1-0.2-1.5,0.3-1.2,1.3
	C72.5,73.7,72.9,74,73.5,73.5z M73.3,114.9c-0.8-0.3-1.2,0-1.2,0.9c0.5,0.6,0.8,1.2,1.2,1.8c0.8,0,1-0.4,0.6-1.2
	C73.5,115.7,73.3,115.2,73.3,114.9z M73.1,159c0-0.5-0.3-0.7-0.9-0.7v0.7H73.1z M72.4,52.5c0.3,0.5,0.5,0.5,0.5,0
	S72.7,52.1,72.4,52.5z M73.8,98.7c0,0.5-0.1,0.8-0.3,1c-0.2,0.2-0.4,0.5-0.6,0.8c0.3,0.2,0.5,0.3,0.5,0.5c0,0.2,0.2,0.2,0.5,0
	c0-0.3,0.2-0.7,0.5-1.3C74.5,99.2,74.4,98.9,73.8,98.7z M74.2,133.8c0.2-0.5,0-0.7-0.3-0.7c-0.4,0-0.7,0-1,0
	C72.8,133.6,73.3,133.8,74.2,133.8z M73.3,49.1c-0.3,0.2-0.4,0.3-0.3,0.6c0.1,0.2,0.3,0.3,0.6,0.1C73.5,49.4,73.5,49.2,73.3,49.1z
	 M73.5,76.1c0-0.3-0.1-0.5-0.2-0.7c-0.3,0.3-0.4,0.5-0.3,0.7C73,76.2,73.2,76.2,73.5,76.1z M75.1,94.3c0.9-0.8,0.9-1.1-0.1-0.9
	c-1,0.2-1.7,0.4-2,0.7c0.8,0,1.1,0.2,1,0.7C74,95.2,74.4,95.1,75.1,94.3z M74.2,44.2c0.2-0.3,0.1-0.6-0.1-0.9
	c-0.2-0.3-0.4-0.3-0.6,0c0.3,0.2,0.4,0.3,0.2,0.6C73.6,44.1,73.8,44.2,74.2,44.2z M73.5,138.9c0,0.8,0.3,1,0.9,0.7
	C74.5,139.1,74.1,138.9,73.5,138.9z M74.2,130.1c0.5-0.5,0.4-0.7-0.2-0.7C73.5,129.9,73.6,130.1,74.2,130.1z M73.8,53.2
	c0,0.5,0.2,0.7,0.7,0.7C74.6,53.3,74.4,53.1,73.8,53.2z M75.4,83.5c-0.6,0.6-0.8,1.3-0.7,2.1c-0.3,0-0.5,0-0.5,0.1
	c0,0.1-0.2,0-0.5-0.1c0.3,0.8,0.8,1.2,1.4,1.2c0-0.3,0.1-0.8,0.3-1.6C75.7,84.3,75.7,83.8,75.4,83.5z M74,75.1
	c0.5,0,0.6-0.2,0.3-0.5C74.1,74.4,74,74.5,74,75.1z M74.5,40.7c-0.3,0.3-0.3,0.6,0,0.8c0.3,0.2,0.6,0.4,0.9,0.6
	C75.1,41.2,74.8,40.7,74.5,40.7z M74.2,144.2c0.3,0.3,0.5,0.2,0.6-0.2c0.1-0.5,0-0.6-0.3-0.5c0,0.2,0,0.2-0.1,0.2
	C74.3,143.7,74.2,143.9,74.2,144.2z M74.9,102.4c0.5-0.3,0.9-0.3,1.3,0c0.4,0.3,0.8,0.3,1.3,0c-0.2-0.8-0.8-1.3-2.1-1.6
	c-0.8-0.3-1.1-0.2-0.9,0.3C74.6,101.7,74.8,102.1,74.9,102.4z M75.6,87.8c-0.2,0-0.2-0.1-0.2-0.3c0-0.2-0.2-0.3-0.5-0.1
	c-0.5,0.3-0.5,0.6-0.1,0.9C75.2,88.6,75.5,88.5,75.6,87.8z M77,67.3c0-0.8-0.2-1.3-0.7-1.5c-0.5-0.2-1-0.5-1.6-0.8
	c-0.3,0.8-0.1,1.3,0.6,1.5c0.7,0.2,1,0.7,0.8,1.5c-0.3,0.3-0.5,0.3-0.7,0c-0.2-0.3-0.4-0.3-0.7,0c0.2,0.5,0.4,0.8,0.7,1.2
	c0.3,0.3,0.3,0.7,0,1.2c0.6,0,0.9-0.3,0.8-0.8c-0.1-0.5,0.2-0.8,0.8-0.8c0.3,0.5,0.4,1,0.2,1.5c-0.2,0.5-0.2,1,0,1.5
	c0.3,0.6,0.3,1.1,0,1.4c-0.8,0-1,0.2-0.7,0.7c0.3,0.5,0.3,0.8,0.1,0.9c-0.2,0.2-0.5,0.4-0.8,0.7c0.2,0.5,0.5,0.8,0.9,1.2
	c0.5,0.3,0.8,0.2,1.2-0.5c0.3-0.3,0.3-0.7,0.1-1.2c-0.2-0.5-0.3-0.9-0.3-1.4c0.5-0.2,0.8-0.4,1.2-0.7c0.3-0.3,0.3-0.7,0-1.2
	c-0.2-0.3-0.3-0.7-0.6-1.3c-0.2-0.5-0.1-1,0.3-1.3c0.3,0.2,0.8,0.3,1.6,0.5c0.8,0.2,1.1-0.2,0.9-1.2c-0.3,0-0.8,0.1-1.4,0.2
	c-0.6,0.2-0.5-0.2,0.2-1.2c0.5-0.5,0.8-0.7,0.9-0.8c0.2-0.1,0.3-0.4,0.5-1c-0.5,0.2-0.8,0.3-1,0.6c-0.2,0.2-0.5,0.5-0.8,0.8
	c-0.3,0.2-0.7,0.2-1.3,0.2C77.7,67.3,77.3,67.3,77,67.3z M74.7,124.8c0,0.3,0.1,0.5,0.2,0.5c0.2,0,0.2-0.1,0.2-0.2
	C75.1,124.9,75,124.8,74.7,124.8z M74.9,136.3c0.6,0.2,1.1-0.1,1.4-0.7c-0.5-0.2-0.9-0.2-1.3-0.1C74.6,135.6,74.6,135.9,74.9,136.3z
	 M75.1,132.2c-0.3,0.3-0.4,0.6-0.2,0.8c0.2,0.2,0.4,0.3,0.7,0.3C75.9,132.6,75.8,132.2,75.1,132.2z M74.9,111.4
	c0.2,0.3,0.2,0.7,0.1,1c-0.1,0.4,0,0.7,0.3,0.8c0.3-0.3,0.4-0.7,0.3-1.2c-0.1-0.5,0-0.9,0.3-1.4C75.5,111,75.1,111.2,74.9,111.4z
	 M75.1,114.9c0.6,0.6,1.2,0.5,1.7-0.5c0.5-0.9,0.7-1.6,0.6-2.1c-0.8,0-1.2,0.3-1.3,1C76.1,114,75.8,114.5,75.1,114.9z M75.8,126.6
	c0-0.3,0.2-0.7,0.6-1.2c0.4-0.5,0.2-0.6-0.6-0.5c0.2,0.3,0,0.6-0.3,0.8c-0.4,0.2-0.4,0.5-0.1,0.8H75.8z M75.4,48.8
	c0.6,0,0.8-0.1,0.5-0.3C75.5,48.2,75.4,48.4,75.4,48.8z M75.4,92c1.1,0.2,1.8-0.2,2.1-1.2c-0.3-0.5-0.7-0.5-1.2-0.1
	C75.8,91.1,75.5,91.5,75.4,92z M75.6,71.7c0.8,0,1-0.2,0.6-0.6C75.8,70.7,75.6,70.9,75.6,71.7z M76.1,85.8c0.3,0,0.6-0.1,0.8-0.2
	c0.2-0.2,0.5-0.2,0.8,0c0-1.2-0.1-2.1-0.2-2.5c-0.3,0.3-0.6,0.7-0.9,1c-0.3,0.4-0.6,0.8-0.9,1.3C75.9,85.3,76.1,85.5,76.1,85.8z
	 M75.8,110.5c0.8-0.2,1.3-0.8,1.6-1.8c-0.6-0.5-1.1-0.4-1.5,0.1C75.6,109.3,75.5,109.9,75.8,110.5z M76.8,99.8
	c1.5-0.8,2.1-1.3,1.6-1.6c-0.5-0.3-1.3-0.6-2.5-0.9c-0.2,0.6,0,1,0.5,1.3C76.8,98.8,76.9,99.2,76.8,99.8z M76.8,96.6
	c0-0.3,0-0.7,0.1-1.2c0.1-0.5,0-0.8-0.3-0.9c0,0.3-0.2,0.7-0.5,1.3C75.8,96.3,76,96.6,76.8,96.6z M76.1,44.2
	c-0.2,0.6,0.3,0.9,1.4,0.9c0.2-0.5,0-0.8-0.3-1C76.7,43.9,76.4,43.9,76.1,44.2z M76.5,62.4c-0.3,0.3-0.3,0.6,0,0.9
	c0.3,0.3,0.6,0.3,0.9,0C77.5,62.8,77.1,62.4,76.5,62.4z M77.5,162.6c0.5-0.5,0.4-0.7-0.2-0.7C76.8,162.4,76.8,162.6,77.5,162.6z
	 M78.1,50.4c0.2-0.6,0.2-1,0-1c-0.2-0.1-0.3-0.1-0.6,0c-0.2,0.1-0.3,0.2-0.3,0.5C77.2,50.1,77.5,50.3,78.1,50.4z M77.7,104.7
	c0.3-0.6,0.2-0.8-0.5-0.5v0.5H77.7z M77.5,38.9c-0.3,0.8-0.1,1.2,0.7,1.2C78.3,39.3,78.1,38.9,77.5,38.9z M79.3,94.1
	c0-1.1-0.3-1.5-1-1.4c-0.7,0.2-1,0.6-0.8,1.4c0.3-0.2,0.6-0.1,0.9,0.1C78.7,94.4,79,94.4,79.3,94.1z M77.9,137.2
	c0.2-0.2,0.2-0.3,0.2-0.6c0-0.2-0.2-0.3-0.5-0.3C77.4,136.6,77.5,136.9,77.9,137.2z M79.5,87.2c-0.3-0.8-0.7-0.9-1.2-0.5
	c-0.5,0.5-0.7,0.8-0.7,1.2c0.3,0.3,0.7,0.3,1,0.1C79.1,87.7,79.4,87.5,79.5,87.2z M79.5,83.7c-0.8,0-1.2,0.2-1.4,0.7
	c0.3,0.3,0.6,0.4,0.9,0.2C79.4,84.5,79.5,84.2,79.5,83.7z M78.4,44.7c-0.2,0.3,0,0.5,0.3,0.6c0.4,0.1,0.6,0,0.6-0.3
	c-0.3,0-0.5,0-0.5-0.1C78.8,44.7,78.7,44.7,78.4,44.7z M78.4,133.1c0.3,0.3,0.6,0.2,0.9-0.2C78.7,132.6,78.4,132.6,78.4,133.1z
	 M78.6,77.2c0,0.8,0.2,1.2,0.5,1.2C79.1,77.6,78.9,77.2,78.6,77.2z M79.1,128c-0.5,0.6-0.5,1.3,0,2.1c0.5,0.8,1.1,1.2,1.8,1.2
	c0-0.5,0.1-0.9,0.3-1.3c0.2-0.4,0.3-0.7,0.1-1c0-0.5-0.3-0.7-0.9-0.6C79.8,128.4,79.4,128.3,79.1,128z M79.5,126.6
	c0.2-0.6-0.1-0.9-0.7-0.9C78.7,126.3,78.9,126.6,79.5,126.6z M79.5,65.7c0.6-0.6,0.6-1,0-1.2c-0.3,0.2-0.5,0.4-0.5,0.7
	C79.1,65.5,79.2,65.7,79.5,65.7z M80,102.6c-0.3,0-0.5,0.1-0.7,0.3c-0.2,0.2-0.1,0.3,0.2,0.3C79.8,103,80,102.8,80,102.6z
	 M79.5,52.5c0,0.3,0,0.5-0.1,0.5c-0.1,0,0,0.2,0.1,0.5c0.3,0.2,0.5,0.1,0.5-0.2C80,52.9,79.8,52.7,79.5,52.5z M79.5,160.8
	c-0.2,0.8-0.1,1,0.2,0.7C80.1,161.2,80,161,79.5,160.8z M81.4,53.7c-0.8,0-1.4,0.2-1.8,0.5c0.5,0,0.8,0.2,0.9,0.5
	c0.2,0.3,0.5,0.5,0.9,0.5V53.7z M79.5,97.1c0.8,0,1-0.2,0.6-0.6C79.7,96.1,79.5,96.3,79.5,97.1z M80.5,98.2
	c-0.2,0.2-0.5,0.2-0.9,0.2c0,0.6,0.2,0.8,0.6,0.7C80.5,99,80.6,98.7,80.5,98.2z M80.5,116.7c0.5-0.5,0.6-1,0.3-1.7
	c-0.2-0.7-0.7-1.1-1.3-1.3c0,0.3,0.1,0.8,0.2,1.5C79.9,115.9,80.1,116.4,80.5,116.7z M79.5,121.3c0.8-0.2,1.3,0,1.5,0.6
	c0.2,0.5,0.6,1,1,1.3c0.3-0.5,0.1-1.3-0.7-2.5c-0.8-1.2-1.4-1.8-1.8-1.6C79.8,119.8,79.8,120.6,79.5,121.3z M80,112.5
	c0.8,0,1.5-0.4,2.3-1.2c0.6-0.5,0.9-0.8,0.8-0.9c-0.1-0.2-0.3-0.2-0.8-0.2c-0.5,0-1,0-1.5,0.1c-0.5,0.1-0.9,0.1-1,0.1
	c-0.2,0.3-0.2,0.7,0,1C79.9,111.9,80,112.2,80,112.5z M80,73.8c-0.3,0.3-0.4,0.8-0.2,1.4c0.2,0.6,0.5,0.8,1.2,0.7
	c-0.2-0.3-0.2-0.7-0.2-1.2C80.7,74.2,80.5,73.9,80,73.8z M80.5,83.2c0,0.3-0.1,0.5-0.2,0.5c-0.2,0-0.3,0.1-0.5,0.2
	c0.6,0.3,1,0.3,1.2,0C81.1,83.6,80.9,83.4,80.5,83.2z M80.5,77c-0.3-0.3-0.5-0.3-0.6,0c-0.1,0.3,0.1,0.5,0.6,0.5V77z M82.1,84.8
	c-0.8,0-1.2,0.3-1.4,1c-0.2,0.7-0.4,1.3-0.7,2c0.5,0,1-0.2,1.6-0.5c-0.6-0.5-0.6-0.8,0-1.2C82.2,85.9,82.4,85.5,82.1,84.8z
	 M81.2,104.7c-0.8,0.3-1.1,0.7-1,1c0.1,0.4,0.5,0.5,1.3,0.3c-0.2,0.3-0.1,0.5,0.2,0.6c0.3,0.1,0.5,0,0.5-0.3
	C81.8,106.3,81.5,105.8,81.2,104.7z M80.2,135.9c0,0.9,0.3,1.4,0.9,1.4c0.2-0.3,0.2-0.6,0-0.9C81,136,80.7,135.9,80.2,135.9z
	 M81.4,61.5c0-0.3-0.2-0.5-0.5-0.6c-0.3-0.1-0.5,0-0.5,0.3C80.6,61.4,80.9,61.5,81.4,61.5z M82.5,155.3c0.2-0.8-0.1-1.2-0.8-1.2
	c-0.7,0-1,0.3-1,0.9c0.3,0,0.6,0.1,0.8,0.2C81.7,155.4,82.1,155.4,82.5,155.3z M80.9,147.2c-0.2,0.3-0.1,0.5,0.2,0.5
	c0.3,0,0.5-0.2,0.5-0.5C81.2,146.7,80.9,146.7,80.9,147.2z M81.6,37.3c-0.5,0-0.7,0.2-0.7,0.7c0.3,0,0.5,0,0.6,0.1
	C81.6,38.2,81.6,37.9,81.6,37.3z M81.6,76.5c-0.2-0.3-0.4-0.5-0.7-0.5v0.5H81.6z M82.3,80.5c0-0.5-0.1-0.9-0.3-1.3
	c-0.2-0.4-0.6-0.4-1-0.1C80.9,80,81.4,80.5,82.3,80.5z M80.9,88.5c0,0.5,0.2,0.7,0.7,0.7C81.6,88.6,81.4,88.4,80.9,88.5z
	 M80.9,126.2c0.2,0.8,0.5,1.3,1,1.6c0.5,0.3,1,0.7,1.5,1.2c-0.2-0.3-0.1-0.5,0.1-0.7c0.2-0.2,0.1-0.4-0.3-0.7
	c-0.5-0.3-0.9-0.6-1.3-0.9C81.6,126.3,81.2,126.2,80.9,126.2z M84.8,143.3c0.3-0.9,0.5-1.5,0.7-1.6c-0.8,0-1.2-0.2-1.3-0.6
	c-0.1-0.4-0.4-0.6-1-0.6c-0.3,0.6-0.7,1.1-1.2,1.4c-0.5,0.3-0.8,0.8-1.2,1.6c0.2,0.3,0.3,0.3,0.3,0.1c0.1-0.2,0.2-0.3,0.3-0.3
	c-0.2,0,0,0.3,0.5,1c0.5,0.7,0.9,1.1,1.4,1.3c0-0.3-0.2-0.8-0.5-1.5c-0.3-0.7-0.6-1-0.9-0.8c0.9-0.3,1.5-0.8,1.6-1.4
	c0.5-0.2,0.7,0,0.7,0.3C84.4,142.6,84.5,142.9,84.8,143.3z M81.2,58.8c0.3,0.2,0.6,0.1,0.8-0.2c0.2-0.3,0.1-0.5-0.3-0.7
	c0,0.3-0.1,0.5-0.3,0.5C81,58.3,81,58.4,81.2,58.8z M81.2,72.1c0,0.3,0,0.7,0,1.2c0,0.5,0.2,0.6,0.5,0.5c0.3-0.3,0.4-0.7,0.2-1
	C81.7,72.3,81.5,72.1,81.2,72.1z M81.2,82.1c0.3,0.6,0.7,0.8,1.2,0.7c0.2-0.5,0-0.8-0.3-0.9C81.6,81.7,81.3,81.8,81.2,82.1z
	 M82.3,94.3c-0.3,0-0.5,0.1-0.6,0.2c-0.1,0.2-0.3,0.2-0.6,0c0,0.6,0.1,1.1,0.2,1.4C82,95.8,82.3,95.2,82.3,94.3z M82.3,52.5
	c0.2-0.5,0.1-0.7-0.2-0.8c-0.3-0.1-0.5,0-0.7,0.3c-0.2,0.3-0.1,0.4,0.1,0.3C81.7,52.3,82,52.4,82.3,52.5z M82.1,36.4
	c0-0.5-0.1-0.6-0.2-0.5c-0.2,0.2-0.3,0.2-0.5,0c0,0.6,0.1,0.8,0.2,0.7C81.8,36.4,81.9,36.4,82.1,36.4z M84.6,137.2
	c0.3-0.3,0.3-0.7,0.1-1c-0.2-0.4-0.1-0.7,0.3-0.8c-0.6-0.5-1.2-0.5-1.8,0c-0.3-0.3-0.4-0.8-0.3-1.4c0.1-0.6-0.1-1-0.6-1.2
	c-0.8,0.6-1,1.3-0.6,2.1c0.4,0.8,0.9,1.3,1.5,1.6c0.3-0.3,0.5-0.3,0.7,0C84.1,136.9,84.3,137.1,84.6,137.2z M81.8,113.9
	c0.3-0.3,0.5-0.5,0.5-0.7c-0.3-0.3-0.5-0.3-0.7,0C81.5,113.5,81.5,113.8,81.8,113.9z M81.6,104c0.6,0,0.9-0.3,0.9-0.9
	c-0.3-0.3-0.6-0.3-0.9,0V104z M81.8,107.5c-0.3,0.3-0.2,0.6,0.2,0.9C82.4,107.8,82.3,107.5,81.8,107.5z M82.5,67.5
	c0.2-0.3,0.5-0.8,1.2-1.4c-0.3,0.2-0.6,0.2-0.9,0.2c-0.3,0-0.6,0.1-0.9,0.2C81.8,67.1,82.1,67.4,82.5,67.5z M83.9,89
	c-0.3,0.5-0.7,0.7-1.3,0.6c-0.5-0.1-0.8,0.3-0.8,1c0.6,0.3,1.2,0.3,1.6-0.1c0.5-0.4,0.9-0.9,1.4-1.5c0.5-0.6,0.8-1.3,1-2.1
	c0.2-0.8,0.4-1.3,0.6-1.6c-0.8-0.2-1.3,0.3-1.6,1.3C84.5,87.6,84.2,88.4,83.9,89z M82.5,88.5c0.3-0.3,0.1-0.6-0.7-0.9
	C81.8,88.1,82.1,88.4,82.5,88.5z M82.3,77.5c-0.3,0.2-0.4,0.4-0.3,0.7c0.1,0.3,0.3,0.5,0.8,0.5c0.3-0.3,0.4-0.6,0.2-0.8
	C82.8,77.6,82.6,77.5,82.3,77.5z M83,55.1c-0.3,0-0.5,0-0.5-0.1c0-0.1-0.2-0.1-0.5-0.1c-0.2,0.3,0,0.5,0.3,0.6
	C82.8,55.5,83,55.4,83,55.1z M82.1,70.3c0.6,0,0.8-0.1,0.5-0.3C82.2,69.7,82.1,69.8,82.1,70.3z M83.9,131c-1.1-0.3-1.7-0.2-1.8,0.5
	c0.3,0.3,0.7,0.4,1.2,0.2C83.7,131.6,83.9,131.3,83.9,131z M86.9,71.2c-0.8-0.5-1.3-0.3-1.6,0.3c-0.3,0.7-0.9,1-1.8,0.8
	c-0.2,0.5-0.5,1.2-0.9,2.2c-0.5,1-0.3,1.7,0.5,2.2c0.5-0.3,0.7-1,0.6-2.1c-0.1-1.1,0.3-1.5,1-1.2c0.8,0,1,0.3,0.7,0.9
	c-0.2,0.3-0.1,0.5,0.2,0.6c0.3,0.1,0.6,0.2,0.9,0.3c0.2,0.3,0.3,0.7,0.3,1c0.1,0.4,0.3,0.5,0.6,0.3c0.3-0.2,0.6-0.1,0.9,0.2
	c1.1,1.8,1,3.5-0.2,5.1c0.6,0.2,1,0,1-0.3c0.1-0.4,0.3-0.6,0.8-0.6c0.3,0.5,0.8,0.6,1.5,0.5c0.7-0.2,1.3-0.2,2,0
	c0-0.3,0-0.8-0.1-1.4c-0.1-0.6,0.2-0.9,0.8-0.9c0.3,0.9,0.7,1,1.2,0.1c0.5-0.8,0.1-1.5-1.2-2c0.2,0.8-0.4,1.2-1.6,1.2
	c0,0.3,0,0.7,0,1.2c0,0.5-0.2,0.8-0.5,1.2c-0.2-0.5-0.4-0.7-0.7-0.7c-0.3,0-0.6,0-0.9,0c-0.3,0-0.5,0-0.6-0.1c-0.1-0.1,0-0.4,0.3-1
	c0.5-1.1,0.3-2-0.3-2.7c-0.7-0.7-1.3-1.4-2-2.2c-0.3,0.2-0.6,0.3-0.9,0.5c-0.3,0.2-0.5-0.2-0.7-0.9C86.1,73.1,86.3,72.3,86.9,71.2z
	 M83.5,84.2c0.3-0.3,0.3-0.6-0.1-0.9c-0.4-0.3-0.7-0.3-1,0C82.3,83.8,82.7,84.2,83.5,84.2z M82.3,99.4c0.8,0,1.2-0.4,1.2-1.2
	C82.7,98.2,82.3,98.6,82.3,99.4z M83.9,116.5c0.5-0.5,0.4-0.8-0.1-1.2c-0.5-0.3-1-0.4-1.3-0.2c0.2,0.5,0.3,0.8,0.6,0.9
	C83.3,116.2,83.6,116.3,83.9,116.5z M82.8,94.1c0.9,0,1.5-0.5,1.6-1.6C83.3,92.5,82.8,93,82.8,94.1z M83,68.7
	c-0.3,0.2-0.3,0.3,0.1,0.6c0.4,0.2,0.7,0.3,1,0.1C83.7,68.6,83.3,68.4,83,68.7z M83.2,104.5c-0.3,0.3-0.4,0.8-0.3,1.4
	c0.1,0.6,0.5,0.8,1.3,0.7C84.2,105.2,83.8,104.5,83.2,104.5z M84.2,110.9c0.6-0.3,0.8-0.8,0.7-1.4c-0.2-0.6-0.2-1.2,0-1.6
	c-0.3-0.2-0.5-0.3-0.6-0.5c-0.1-0.2-0.3-0.2-0.6,0c0,0.5-0.2,0.8-0.5,1c-0.3,0.2-0.4,0.7-0.2,1.3c0.3,0.2,0.5,0.3,0.6,0.6
	C83.7,110.6,83.8,110.8,84.2,110.9z M84.2,51.4c0.2-0.3,0.1-0.5-0.2-0.6c-0.3-0.1-0.5,0-0.7,0.1C83.2,51.5,83.5,51.7,84.2,51.4z
	 M84.4,99.4c-0.3,0.2-0.6,0.3-0.8,0.3c-0.2,0.1-0.3,0.3-0.1,0.8C84.1,100.5,84.4,100.2,84.4,99.4z M84.2,102.4
	c-0.2,0.2-0.3,0.2-0.5,0.1c-0.2-0.1-0.2,0,0,0.3C84,102.9,84.2,102.7,84.2,102.4z M83.7,96.2c0.9-0.3,1.4-0.7,1.4-1.2
	C83.8,94.7,83.4,95.1,83.7,96.2z M83.7,78.8c0.5,0,0.8-0.1,1-0.2c0.2-0.2,0.6-0.2,1-0.2c-0.2-0.6-0.5-0.8-1.2-0.6
	C84,78,83.7,78.4,83.7,78.8z M86.2,81.4c-0.3,0-0.7,0.1-1.2,0.2c-0.5,0.2-0.9,0.2-1.4,0.2c0,0.3,0.1,0.5,0.3,0.7
	c0.2,0.2,0.3,0.4,0.1,0.7c0.8-0.5,1.4-0.7,1.8-0.6c0.5,0.1,0.9,0,1.4-0.3c0.3-0.3,0.2-0.5-0.2-0.7C86.7,81.5,86.4,81.4,86.2,81.4z
	 M84.2,121.6c-0.3,0.6-0.5,1.1-0.5,1.4c0.5,0.2,0.7,0,0.8-0.5C84.6,122,84.5,121.7,84.2,121.6z M83.7,129.4c1.1,0.2,1.8-0.4,2.1-1.6
	c-0.3,0-0.5-0.1-0.5-0.2c0-0.2-0.2-0.2-0.5-0.2c-0.2,0.5-0.3,0.8-0.5,1.2C84.2,128.8,84,129.1,83.7,129.4z M83.7,146.9
	c0.5,0.6,0.8,0.8,0.9,0.5c0.2-0.3,0.2-0.6,0.1-0.9c-0.1-0.3-0.2-0.5-0.5-0.7C84,145.6,83.8,146,83.7,146.9z M83.9,97.5
	c0.6,0,0.8-0.1,0.5-0.3C84.1,97,83.9,97.1,83.9,97.5z M84.8,125.2c-0.8,0-1,0.3-0.7,0.9C84.6,126.2,84.8,125.9,84.8,125.2z
	 M85.8,66.1C85,66,84.6,66,84.5,66.3c-0.1,0.2-0.2,0.8-0.3,1.7c0.6,0,1-0.2,1-0.7C85.3,66.8,85.5,66.5,85.8,66.1z M85.1,140.7
	c0.8-0.2,1-0.6,0.6-1.4c-0.4-0.8-0.9-0.8-1.5-0.2c0.3,0.3,0.5,0.6,0.7,0.8C85,140.1,85.1,140.4,85.1,140.7z M85.8,61.5
	c0.2-0.6,0.1-0.9-0.1-0.9c-0.2,0-0.5,0.2-0.8,0.5c0.3,0,0.5,0.1,0.5,0.3C85.3,61.6,85.5,61.7,85.8,61.5z M85.3,54.8
	c0,0.2-0.1,0.3-0.2,0.5c0.2,0,0.2,0,0.2,0.1c0,0.1,0.1,0.1,0.2,0.1c0-0.2,0.1-0.3,0.2-0.5C85.5,55.1,85.3,55,85.3,54.8z M85.8,106.5
	c0.8-0.2,1.2-0.5,1.4-1.2c0.2-0.6,0.4-1.2,0.7-1.6c-0.3,0-0.8,0.1-1.4,0.2c-0.6,0.2-1.1,0.4-1.4,0.7c0.9-0.2,1.2,0.1,0.9,0.7
	C85.7,106,85.6,106.4,85.8,106.5z M87.8,95.9c0.3-0.2,0.5-0.5,0.6-1c0.1-0.5-0.1-0.8-0.6-0.8c-0.3,0.3-0.4,0.6-0.3,0.8
	c0.1,0.2,0,0.4-0.3,0.6c-0.3,0-0.5-0.2-0.6-0.5c-0.1-0.3-0.3-0.5-0.8-0.5c-0.2,0.3-0.3,0.5-0.6,0.5c-0.2,0,0,0.2,0.6,0.5
	C86.4,96.1,87.1,96.2,87.8,95.9z M86,133.3c0.2-0.3,0-0.7-0.5-1.2c-0.3,0.3-0.4,0.6-0.2,0.9C85.5,133.4,85.7,133.5,86,133.3z
	 M85.8,135.9c-0.3-0.3-0.5-0.3-0.5,0.1C85.3,136.4,85.5,136.3,85.8,135.9z M85.8,68.9c-0.3,0-0.4,0.1-0.2,0.2
	c0.2,0.2,0.4,0.3,0.7,0.3c0.3,0.1,0.8,0.1,1.6,0.1c-0.2,0.3-0.3,0.6-0.6,0.8c-0.2,0.2-0.3,0.5-0.1,0.8c1.4,0,1.7-0.5,1-1.5
	C87.5,68.7,86.7,68.5,85.8,68.9z M85.8,114.6c-0.3,0.8,0,1,0.8,0.6c0.8-0.4,1.3-1,1.3-1.7c-0.5,0-0.8,0.2-0.9,0.7
	C86.8,114.6,86.4,114.8,85.8,114.6z M85.8,101c0,0.3,0.2,0.5,0.6,0.6c0.4,0.1,0.6,0,0.6-0.3C86.8,101.1,86.4,101,85.8,101z
	 M85.8,119.2c0,0.9,0.2,1.4,0.5,1.4c0.3,0,0.6-0.2,0.8-0.6c0.2-0.4,0.3-0.7,0.2-1C87.2,118.7,86.7,118.8,85.8,119.2z M86.2,110.7
	c0.8,0,1.2-0.3,1.2-1c0-0.7-0.4-1-1.2-1c-0.3,0.3-0.3,0.6-0.1,0.9C86.3,109.9,86.4,110.2,86.2,110.7z M86.7,112.8
	c0-0.3,0.2-0.5,0.5-0.5c0.3,0,0.3-0.2,0-0.5c-0.3-0.5-0.6-0.5-0.8,0C86.1,112.3,86.2,112.6,86.7,112.8z M86.2,67.5
	c0.5,0,0.7-0.2,0.7-0.5h-0.7V67.5z M87.8,91.1c0-0.3-0.1-0.6-0.3-0.8c-0.2-0.2-0.2-0.5,0.1-0.8c-0.3-0.2-0.5-0.2-0.6,0
	c-0.1,0.2-0.3,0.2-0.6,0.2C86.5,90.5,86.9,90.9,87.8,91.1z M87.6,116.7c-0.3,0-0.6,0.1-0.8,0.3c-0.2,0.2-0.1,0.3,0.3,0.3
	C87.2,117.2,87.3,117,87.6,116.7z M87.8,66.4c0.2-0.5,0.1-0.7-0.2-0.7c-0.3,0-0.6,0.1-0.9,0.2c0,0.2,0,0.2,0.1,0.2
	c0.1,0,0.1,0.1,0.1,0.2H87.8z M86.7,79.3c0,0.6,0.1,0.9,0.3,0.9s0.4-0.1,0.6-0.3c0.2-0.2,0.2-0.4,0.1-0.6
	C87.7,79.1,87.3,79.1,86.7,79.3z M87.6,130.8c0-0.6-0.1-0.9-0.2-0.8c-0.2,0.1-0.4,0.1-0.7,0.1C86.7,130.6,87,130.8,87.6,130.8z
	 M86.9,59.2c-0.3,0.6-0.2,0.9,0.3,0.8c0.5-0.1,0.8,0.1,0.8,0.6c-0.2,0.3-0.2,0.8-0.2,1.4c0.9,0,1.2-0.5,0.9-1.5
	C88.5,59.5,87.8,59.1,86.9,59.2z M86.9,140c0.5,0,0.8-0.2,0.9-0.7c0.2-0.5,0.5-0.5,1.2-0.2c0-0.3,0-0.5,0.1-0.6
	c0.1-0.1,0.1-0.3,0.1-0.6c-0.3,0.3-0.8,0.6-1.6,0.8C86.8,139,86.6,139.4,86.9,140z M87.2,107.2c0,0.8,0.2,1.2,0.7,1.2
	c0.2-0.3,0.2-0.6,0-0.9C87.7,107.2,87.5,107.1,87.2,107.2z M88.3,142.1c0.6-0.3,1.1-0.7,1.4-1.2c0.3-0.5,0.6-0.9,0.9-1.4
	c-0.8,0-1.3,0.2-1.5,0.6c-0.2,0.4-0.7,0.7-1.5,1c0,0.3-0.1,0.7-0.2,1C87.2,142.6,87.5,142.6,88.3,142.1z M87.8,123.9
	c-0.2-0.9-0.3-1.2-0.3-0.8C87.4,123.4,87.5,123.7,87.8,123.9z M87.6,134.7c0.5,0,0.6-0.1,0.3-0.3C87.7,134.1,87.6,134.2,87.6,134.7z
	 M87.6,145.6c0.2,0.2,0.3,0.1,0.3-0.1c0.1-0.2,0-0.3-0.3-0.3V145.6z M87.8,112.5c-0.3,0.5-0.2,0.6,0.3,0.5
	C88.7,112.9,88.6,112.7,87.8,112.5z M88.1,103.1c0.8,0.3,1.1,0.3,0.9-0.1c-0.2-0.4-0.1-0.7,0.2-1C88.6,102.1,88.2,102.5,88.1,103.1z
	 M88.1,110.7c0,0.5,0.4,0.7,1.2,0.7c0.8,0,1.2-0.3,1.3-0.8c0.1-0.5,0.2-1.1,0.3-1.7c-0.8,0-1.2,0.3-1.3,0.8
	C89.5,110.2,89,110.5,88.1,110.7z M88.3,73.1c0.5,0,0.8-0.3,0.9-0.9c0.2-0.6-0.2-0.8-0.9-0.7c0.2,0.5,0.2,0.8,0,0.9
	C88.2,72.5,88.2,72.8,88.3,73.1z M91.1,84.8c0.3-1.1,0.2-1.9-0.2-2.5c-0.3-0.5-0.5-0.3-0.7,0.3c-0.2,0.7-0.4,1-0.7,1
	c-0.3-0.3-0.7-0.4-1.2-0.2c0.3,0.3,0.5,0.7,0.5,1c0,0.4,0.2,0.7,0.7,1c0-0.3,0.2-0.4,0.7-0.2C90.6,85.5,90.9,85.3,91.1,84.8z
	 M88.5,92.9c0.5,0,0.6-0.1,0.3-0.3C88.7,92.3,88.5,92.5,88.5,92.9z M88.5,143.3c0.8,0.3,1.2,0.3,1.3,0c0.1-0.3,0.3-0.8,0.8-1.4
	C89.8,141.6,89.2,142,88.5,143.3z M88.8,90.8c0.5,0,0.8-0.2,1.2-0.7c-0.3,0-0.6,0-0.9,0C88.7,90.2,88.6,90.4,88.8,90.8z M89.9,122.2
	c-0.3-0.3-0.3-0.5-0.1-0.7c0.2-0.2,0.4-0.4,0.6-0.7c-0.3-0.3-0.6-0.3-0.8-0.1c-0.2,0.2-0.5,0.3-0.8,0.3c0,0.5,0.1,0.9,0.2,1.4
	c0.2,0.5,0.5,0.7,0.9,0.7C90.1,122.7,90.1,122.4,89.9,122.2z M89.2,99.8c-0.3,0.3-0.3,0.8,0,1.4c0.3,0.6,0.8,0.9,1.4,0.9
	C90.6,100.9,90.2,100.2,89.2,99.8z M89.5,88.8c0.9,0,1.3-0.4,1-1.3c-0.2-0.8-0.7-1-1.3-0.3C89.5,87.9,89.6,88.5,89.5,88.8z
	 M91.3,66.8c-0.5-0.6-0.9-0.7-1.3-0.1c-0.4,0.5-0.6,1-0.6,1.5c0.5,0.3,0.9,0.3,1.4,0C91.3,67.9,91.5,67.5,91.3,66.8z M89.7,112.1
	c-0.2,0.6-0.1,0.9,0.2,0.8c0.3-0.1,0.6-0.2,0.8-0.5c0.2-0.2,0.3-0.5,0.2-0.7C90.9,111.5,90.5,111.6,89.7,112.1z M89.9,116.9
	c-0.2,0.6,0.2,1.1,1.2,1.4C90.8,117.6,90.4,117.1,89.9,116.9z M90.2,76.5c1.1-0.3,1.5-1,1.2-2.1c-0.3-1.1-0.8-1.3-1.4-0.7
	c0,0.3,0.2,0.5,0.5,0.7c0.3,0.2,0.4,0.4,0.2,0.7C90.3,75.3,90.2,75.8,90.2,76.5z M90.2,96.2c-0.2,0.3-0.2,0.7-0.1,1
	c0.1,0.4,0.3,0.5,0.8,0.3c0.3-0.3,0.3-0.6,0.1-0.9C90.7,96.3,90.5,96.2,90.2,96.2z M90.2,113.9c-0.2,0.8,0,1.1,0.6,1
	c0.5-0.1,0.9-0.4,1-1C91.2,113.6,90.6,113.6,90.2,113.9z M90.2,107.2c0,0.6,0.2,0.9,0.6,0.8c0.4-0.1,0.6-0.3,0.6-0.8
	C91,106.9,90.6,106.9,90.2,107.2z M91.5,130.6c0.8-0.3,1-0.5,0.8-0.6c-0.2-0.1-0.1-0.3,0.3-0.6c0.6-1.1,0.5-2-0.2-2.8
	c-0.3,0-0.5,0.4-0.7,1.3c-0.2,0.8-0.2,1.3,0,1.5c-0.3,0.3-0.6,0.5-0.9,0.6c-0.3,0.1-0.5,0.3-0.7,0.8
	C90.9,130.8,91.4,130.7,91.5,130.6z M93.4,98c0.2,0.6,0.6,1,1.3,1c0.7,0.1,1.2,0.5,1.5,1.3c0.8-0.8,0.7-1.3-0.2-1.7
	c-0.9-0.4-1.5-0.7-1.8-1c-0.8-0.6-1.2-1.4-1.3-2.3c-0.1-0.9-0.2-1.8-0.3-2.5c-0.8,0-1.3,0.3-1.5,0.9c-0.2,0.6-0.4,1.2-0.6,1.8
	c0.9,0,1.6,0.2,2,0.7C92.7,96.6,93.1,97.2,93.4,98z M91.8,121.3c-0.2-0.3-0.3-0.8-0.3-1.5c-0.1-0.7-0.4-0.7-1-0.1
	C90.7,120.6,91.2,121.2,91.8,121.3z M92,90.8c-0.3,0-0.6,0.2-0.9,0.5c-0.3,0.3-0.3,0.5,0,0.7c0-0.3,0.2-0.5,0.6-0.5
	C92,91.5,92.2,91.3,92,90.8z M91.3,47.9c0-0.5-0.2-0.7-0.5-0.7C90.8,47.4,91,47.6,91.3,47.9z M91.1,125.2c0.6,0.3,1.2,0.2,1.6-0.2
	c0.5-0.5,0.8-0.9,1.2-1.4c-0.5-0.2-1.1-0.6-1.8-1.4c-0.3,0.3-0.4,0.5-0.2,0.7c0.2,0.2,0.2,0.4,0.2,0.7c-0.2,0.3-0.4,0.5-0.7,0.6
	C91,124.3,90.9,124.6,91.1,125.2z M92.7,77.2c-0.2,0-0.5,0-1-0.1c-0.5-0.1-0.5,0.2,0.1,0.8C92.1,77.9,92.4,77.7,92.7,77.2z
	 M92.9,62.4c-0.2-0.3-0.5-0.4-1-0.2c-0.5,0.2-0.7,0.4-0.3,0.7c0.3,0,0.6,0,0.9,0C92.8,62.9,92.9,62.8,92.9,62.4z M93.6,110.9
	c-0.2-0.9-0.2-1.3,0-1.3c0.2,0.1,0.7,0,1.6-0.1c-0.2-1.4-0.6-1.8-1.4-1.4c-0.8,0.5-1.5,0.8-2.3,1.2c0,0.3,0.1,0.5,0.2,0.5
	c0.2,0,0.3,0.1,0.5,0.2c0.3,0.3,0.4,0.5,0.2,0.6c-0.2,0.1-0.3,0.2-0.3,0.2c-0.1,0.1-0.1,0.1,0,0.1C92.2,110.9,92.7,110.9,93.6,110.9
	z M92,70.8c0.2,0,0.2,0.3,0.2,0.9c0.8,0.2,1,0,0.7-0.6C92.6,70.6,92.3,70.5,92,70.8z M92,89.9c0,0.5,0.1,0.6,0.2,0.5
	c0.2-0.2,0.4-0.2,0.7-0.2c0-0.5-0.1-0.6-0.2-0.5C92.5,89.8,92.3,89.9,92,89.9z M92,103.8c0.8,1.1,1.6,1.7,2.5,1.8
	c0.2-0.3,0.2-0.7,0-1.2c-0.2-0.5-0.4-0.5-0.7,0c-0.3,0.3-0.6,0.2-0.9-0.3C92.6,103.6,92.3,103.5,92,103.8z M92,108.4
	c0.5,0,0.6-0.2,0.3-0.5C92.1,107.6,92,107.8,92,108.4z M92.2,117.2c0,0.5,0.2,0.7,0.6,0.7c0.4,0,0.5-0.2,0.3-0.7
	c-0.3,0-0.5,0-0.5-0.1C92.7,117,92.5,117,92.2,117.2z M92.5,142.3c0.3,0.2,0.6,0.1,0.9-0.2c0.3-0.3,0.3-0.6,0-0.9
	c0,0.3-0.2,0.5-0.6,0.5C92.4,141.6,92.3,141.9,92.5,142.3z M93.8,74.7c-0.3-0.2-0.5-0.3-0.7-0.5c-0.2-0.2-0.4-0.1-0.7,0.2
	c0.3,0.6,1,1.1,2.1,1.4C95,74.8,94.8,74.4,93.8,74.7z M92.9,115.3c0,0.5,0.2,0.7,0.6,0.8c0.4,0.1,0.7,0.2,1,0.3v-0.9
	c-0.3,0.3-0.6,0.3-0.8,0.1C93.5,115.4,93.2,115.3,92.9,115.3z M94.8,89.2c0-0.9-0.2-1.2-0.7-0.8c-0.5,0.4-0.6,0.9-0.5,1.5
	c0.3,0.2,0.6,0.3,0.8,0.5C94.7,90.5,94.8,90.2,94.8,89.2z M98.2,119.7c-0.2-0.2-0.5-0.4-1-0.7c-0.5-0.3-1.1-0.5-1.7-0.7
	c-0.6-0.2-1.1-0.2-1.4,0c-0.3,0.2-0.3,0.6,0,1.4c0.5,0,0.8-0.1,1.2-0.3c0.3-0.2,0.7-0.2,1.2,0.1c0.2,0.2,0.5,0.3,0.9,0.6
	C97.8,120.3,98.1,120.2,98.2,119.7z M94.1,70.8c0.6,0,0.8-0.2,0.5-0.5C94.2,70,94.1,70.1,94.1,70.8z M95.5,147.2
	c0-0.5-0.2-0.7-0.7-0.7c-0.5,0-0.6,0.3-0.5,0.9c0.3,0,0.5,0,0.6-0.1C95,147.2,95.2,147.2,95.5,147.2z M94.3,115.1
	c0.6,0.2,0.9,0,0.9-0.3c0-0.4-0.2-0.7-0.5-0.8c-0.2,0.3-0.3,0.5-0.3,0.6C94.3,114.6,94.3,114.8,94.3,115.1z M95.5,130.3
	c0-0.9-0.1-1.2-0.2-0.9c-0.2,0.3-0.5,0.3-0.9,0C94.3,129.7,94.7,130,95.5,130.3z M94.3,131.7c0.3,0,0.8,0.2,1.5,0.7
	c0.7,0.5,1.1,0.4,1.3-0.2c-0.8-0.2-1.3-0.5-1.6-0.9C95.2,130.8,94.8,130.9,94.3,131.7z M96.6,74.5c-0.3-0.3-0.6-0.6-0.8-0.9
	c-0.2-0.3-0.6-0.5-1-0.5c0,0.2,0,0.3-0.1,0.5c-0.1,0.2-0.1,0.4-0.1,0.7C95.3,74.8,96,74.9,96.6,74.5z M94.5,83.9
	c0,0.5,0.2,0.8,0.7,0.9c0.2-0.5,0.3-0.7,0.3-0.8C95.7,84,95.3,83.9,94.5,83.9z M95.2,123.2c0.3-0.2,0.8-0.4,1.5-0.7
	c0.7-0.3,0.9-0.7,0.6-1.2c-0.3-0.3-0.7-0.3-1.2,0.1c-0.5,0.4-0.8,0.6-1.2,0.6C95,122.5,95.1,122.9,95.2,123.2z M95.2,86
	c0.2,0.9,0.8,1.5,2.1,1.8c-0.2-0.8-0.3-1.4-0.5-1.8c-0.2-0.5-0.1-1.1,0.2-1.8c-0.5,0-0.8,0.2-1,0.6C95.8,85.1,95.5,85.5,95.2,86z
	 M95.2,103.1c0.3,0.2,0.6,0,0.9-0.5c-0.2,0-0.3,0-0.3-0.1c-0.1-0.1-0.2-0.1-0.3-0.1C95.3,102.5,95.2,102.8,95.2,103.1z M95.2,113.5
	c0.5,0,0.6-0.1,0.3-0.3C95.3,112.9,95.2,113,95.2,113.5z M97.3,83.7c-0.2-0.3-0.2-0.7,0-1c0.2-0.4,0.2-0.7,0.2-1
	c-0.2-0.6-0.3-0.8-0.3-0.5c-0.1,0.3-0.3,0.3-0.6,0c-0.5-0.5-0.7-0.2-0.8,0.8C95.7,83,96.2,83.5,97.3,83.7z M96.6,109.5
	c-0.6,0-0.8,0.2-0.7,0.6c0.2,0.4,0.3,0.6,0.5,0.6c0.3,0,0.4-0.2,0.3-0.5C96.7,109.9,96.6,109.7,96.6,109.5z M97.8,79.8
	c-0.3-0.6-0.7-0.9-1.2-0.9c-0.2,0.3-0.2,0.8-0.2,1.4C96.7,80.2,97.2,80.1,97.8,79.8z M97.1,70.3c0.2-0.8,0.2-1.2,0.2-1.3
	c0-0.1-0.1,0-0.2,0.1c-0.2,0.2-0.3,0.4-0.3,0.7C96.7,70.1,96.8,70.3,97.1,70.3z M97.1,115.5c-0.2,0.2-0.2,0.4-0.2,0.8
	c0,0.4,0.2,0.5,0.5,0.3c0.3-0.2,0.4-0.4,0.3-0.7C97.6,115.7,97.4,115.5,97.1,115.5z M98,101.9c-0.8-0.2-1,0.1-0.7,0.7
	C97.8,102.6,98,102.4,98,101.9z M97.5,76.3c-0.2,0.3-0.2,0.7-0.2,1.3c0,0.5,0.2,0.8,0.5,0.8c0.3-0.2,0.4-0.3,0.2-0.6
	c-0.2-0.2-0.1-0.3,0.2-0.3c0.3,0.3,0.8,0.3,1.4,0c0.3-0.3,0.2-0.5-0.3-0.7c-0.5-0.2-0.9-0.4-1-0.7c0.3,0,0.6-0.1,0.9-0.3
	c0.3-0.2,0.6-0.2,0.9,0.1c0-0.5,0-1,0.1-1.6c0.1-0.6-0.3-0.8-1.3-0.7c0.2,0.8,0,1.3-0.5,1.6C98,75.5,97.7,75.8,97.5,76.3z
	 M97.3,114.2c1.1,0,1.9,0.2,2.5,0.7c0.3-1.1,0-1.7-0.9-1.7C98,113,97.5,113.4,97.3,114.2z M97.5,81.4c0.3,0.2,0.7,0.2,1.3,0.1
	c0.5-0.1,0.9-0.5,1-1.3c-0.3,0.3-0.8,0.4-1.4,0.2C97.8,80.3,97.5,80.6,97.5,81.4z M98.2,126.2c-0.5-0.2-0.7,0-0.7,0.3
	c0,0.4,0.2,0.7,0.5,0.8c-0.2-0.3-0.2-0.5,0-0.6C98.2,126.7,98.2,126.5,98.2,126.2z M97.5,131c0.3,0.3,0.6,0.5,0.9,0.5
	c0-0.3-0.1-0.5-0.2-0.7c-0.2-0.2-0.3-0.4-0.5-0.7c0,0.2,0,0.3-0.1,0.5C97.6,130.7,97.5,130.9,97.5,131z M101.2,85.5
	c-0.6-0.6-1.1-1.5-1.4-2.5c-0.3,0-0.7,0-1.2,0.1c-0.5,0.1-0.8,0.3-0.9,0.6c0.3,0.3,0.7,0.4,1,0.3c0.4-0.1,0.7,0,1,0.1
	c0.2,0.3,0.3,0.7,0.6,1.2C100.7,85.8,100.9,85.8,101.2,85.5z M98.2,117.9c0.6,0,1-0.3,1.2-0.9c-0.3,0.2-0.6,0.2-0.9,0.2
	C98.2,117.2,98.1,117.4,98.2,117.9z M98.2,123.4c0.3,0,0.6-0.2,0.9-0.5c0.3-0.3,0.3-0.6,0-0.9c-0.2,0.3-0.4,0.5-0.7,0.6
	C98.2,122.7,98.1,122.9,98.2,123.4z M98.7,107.5c0.6,0,0.8-0.1,0.5-0.3C98.8,106.9,98.7,107,98.7,107.5z M99.9,136.3
	c0.2-0.3,0-0.5-0.3-0.7c-0.4-0.2-0.7-0.1-0.8,0.2c0.3,0,0.5,0.1,0.5,0.3C99.2,136.4,99.4,136.5,99.9,136.3z M98.9,103.1
	c0.6,0,1.1,0.1,1.5,0.3c0.4,0.2,0.8,0.4,1.3,0.6c-0.2-0.5-0.6-0.9-1.4-1.4C99.5,102.2,99.1,102.3,98.9,103.1z M99.2,115.1
	c0,0.3,0.1,0.5,0.2,0.7c0-0.2,0-0.3,0.1-0.5C99.6,115.2,99.5,115.1,99.2,115.1z M99.2,133.6c0.6,0.3,0.8,0.3,0.7-0.1
	C99.7,133.1,99.5,133.1,99.2,133.6z M99.6,88.3c-0.3,0.6-0.3,1,0,1.2C99.9,88.8,99.9,88.5,99.6,88.3z M99.4,110.9
	c0.3,0.3,0.5,0.2,0.5-0.2c0-0.5-0.2-0.5-0.5-0.2V110.9z M100.3,131c0-0.6-0.1-0.9-0.3-0.8c-0.2,0.1-0.4,0.1-0.6,0.1
	C99.4,130.8,99.7,131,100.3,131z M100.5,119.2c-0.5-0.6-0.4-1.2,0.2-1.6c0.6-0.5,1-1,1.2-1.6c-1.2,0.5-2,1.5-2.3,3
	C99.9,119.5,100.2,119.6,100.5,119.2z M100.3,108.6c-0.2,0.2-0.3,0.3-0.5,0.6c-0.2,0.2-0.1,0.5,0.2,0.8c0.2-0.3,0.4-0.5,0.7-0.7
	C101.1,109.2,100.9,108.9,100.3,108.6z M100.5,126.4c0.3,0,0.7-0.1,1.2-0.3c0.5-0.2,0.7-0.5,0.7-0.8c0.5,0.3,1,0.4,1.7,0.3
	c0.7-0.1,0.7-0.3-0.1-0.8c-0.8-0.5-1.5-0.6-2.1-0.5c-0.6,0.2-0.9,0.6-0.9,1.4c-0.2,0-0.4-0.2-0.7-0.5c-0.3-0.2-0.4-0.1-0.3,0.2
	C100,125.8,100.2,126.1,100.5,126.4z M100.1,90.4c0.9,0,1.5-0.5,1.6-1.6c-0.3,0-0.7,0.2-1.2,0.6C100.1,89.7,99.9,90.1,100.1,90.4z
	 M100.3,107.7c0.8,0,1.2,0.2,1.4,0.6c0.2,0.4,0.5,0.7,0.9,0.8c0.3-0.6,0.2-1.1-0.5-1.4c-0.6-0.3-0.8-0.8-0.7-1.4
	c-0.3,0.5-0.5,0.6-0.5,0.3c0-0.2-0.2-0.3-0.5-0.3C100.4,106.6,100.3,107.1,100.3,107.7z M101.5,78.4c-0.3,0-0.6,0.2-0.9,0.5
	c0.3,0.2,0.5,0.2,0.7,0.2C101.4,79.1,101.5,78.8,101.5,78.4z M100.8,81.8c0.3,0.3,0.5,0.2,0.5-0.2c0-0.5-0.2-0.5-0.5-0.2V81.8z
	 M102.4,88.3c0-0.6-0.3-0.9-0.9-0.9C101.3,88,101.6,88.3,102.4,88.3z M102.4,117.9c-0.8-0.2-1.1,0.2-0.9,0.9
	C102.1,118.8,102.4,118.5,102.4,117.9z M101.7,122.2c-0.3,0.3-0.3,0.6-0.1,0.9c0.2,0.3,0.5,0.3,0.8,0c0-0.3-0.1-0.5-0.2-0.6
	C102,122.5,101.8,122.4,101.7,122.2z M102.6,115.3c0-0.2-0.2-0.2-0.5-0.2c-0.2,0-0.3,0.1-0.5,0.2c-0.3,0.3-0.2,0.5,0.5,0.5
	C102.8,115.8,102.9,115.6,102.6,115.3z M101.7,119.7c-0.2,0.3,0,0.5,0.6,0.6c0.5,0.1,0.7-0.1,0.6-0.6H101.7z M102.6,89.2
	c-0.2,0.2-0.2,0.3-0.2,0.5c0,0.2,0.1,0.2,0.2,0.2c0.2,0,0.3-0.1,0.3-0.3C103,89.3,102.9,89.2,102.6,89.2z M103.1,113.2
	c0-0.6-0.1-0.9-0.2-0.9c-0.2,0-0.3,0.1-0.3,0.2c-0.1,0.2-0.1,0.3,0,0.6C102.6,113.4,102.8,113.4,103.1,113.2z M102.6,92.2
	c0.3,0.3,0.7,0.4,1,0.3c0.4-0.1,0.6-0.3,0.6-0.6c-0.3-0.3-0.6-0.4-0.9-0.3C103,91.7,102.8,91.9,102.6,92.2z M103.1,80.5
	c0.5-0.2,0.7,0,0.7,0.3c0,0.4,0.2,0.7,0.7,0.8c-0.2-0.3-0.3-0.7-0.3-1.3c-0.1-0.5-0.4-0.8-1-0.8V80.5z M103.1,129.6
	c0.3,0.3,0.5,0.2,0.5-0.2s-0.2-0.5-0.5-0.2V129.6z M103.5,72.6c0.3-1.1,0.3-1.4-0.1-1C103,72,103.1,72.3,103.5,72.6z M104,88.8
	c-0.5,0-0.7,0.2-0.7,0.7c0.3,0,0.5-0.1,0.5-0.2C103.8,89.1,103.9,88.9,104,88.8z M104,130.1c0.5-0.2,0.9-0.1,1.3,0.1
	c0.4,0.2,0.8,0.2,1.3-0.1c-0.3-0.2-0.7-0.3-1.3-0.5c-0.5-0.2-1-0.2-1.5-0.2C103.9,129.6,104,129.8,104,130.1z M104,83.5
	c0.3,0,0.4-0.1,0.3-0.2c-0.1-0.2,0-0.3,0.1-0.5c-0.5-0.3-0.7-0.3-0.6-0.1C104,82.9,104,83.2,104,83.5z M105.2,93.8
	c0.2-0.6,0-0.9-0.6-0.8c-0.5,0.1-0.7,0.4-0.6,1c0.3,0.2,0.5,0.2,0.6,0C104.7,93.9,104.8,93.8,105.2,93.8z M105.4,88.1
	c0.2-0.6-0.2-0.9-0.9-0.9c0.3,0.3,0.3,0.6,0,0.9c-0.3,0.3-0.3,0.6,0,0.9C104.5,88.7,104.8,88.4,105.4,88.1z M105.4,107.7
	c0.5-0.5,0.6-0.8,0.3-0.9c-0.2-0.2-0.5-0.2-0.7-0.2c-0.2,0-0.4,0.1-0.6,0.3C104.3,107.1,104.6,107.4,105.4,107.7z M104.5,113.5
	c-0.2,1.1,0.2,2,0.9,2.8c0.3-0.5,0.3-1,0-1.6C105.1,114,104.8,113.6,104.5,113.5z M104.5,68c0,0.3,0.2,0.6,0.5,0.8
	c0.3,0.2,0.6,0.3,0.9,0.1c0.2-0.5,0-0.8-0.3-1C105.1,67.6,104.8,67.7,104.5,68z M105.4,109.8c-0.5,0-0.8,0.2-0.9,0.5
	c0.3,0,0.4,0.2,0.3,0.5c-0.1,0.3,0,0.4,0.3,0.2C105.3,110.8,105.4,110.4,105.4,109.8z M105.2,82.8l-0.2,0.2c0.2,0.5,0.3,0.4,0.6-0.1
	C105.7,82.3,105.6,82.3,105.2,82.8z M106.1,131.5c-0.5,0-0.7,0.2-0.7,0.6c0,0.4,0.2,0.5,0.7,0.3V131.5z M106.1,123.9
	c-0.3,0.5-0.2,0.7,0.2,0.6c0.5-0.1,0.6-0.3,0.5-0.6H106.1z M107.7,92c0-0.9-0.5-1.4-1.4-1.4c0,0.3,0.2,0.5,0.5,0.7
	C107.1,91.5,107.4,91.7,107.7,92z M106.8,126.6c0.3-0.2,0.4-0.3,0.3-0.6c-0.1-0.2-0.3-0.3-0.6-0.3
	C106.2,126.3,106.3,126.6,106.8,126.6z M106.8,116c0.6,0,0.9-0.2,0.9-0.7c0-0.5-0.2-0.7-0.7-0.7C106.7,115.4,106.6,115.9,106.8,116z
	 M107,129.4c0.9,0.2,1.3-0.2,1.2-1.2c-0.2-0.9-0.5-1.2-1.2-0.9c-0.3,0.3-0.4,0.7-0.2,1C106.9,128.7,107,129.1,107,129.4z
	 M107.7,102.9c0-0.8-0.1-1-0.3-0.7c-0.2,0.3-0.4,0.5-0.6,0.7H107.7z M107,109.5c0,0.6,0.3,1,0.9,1.2c0.3-0.3,0.3-0.7,0.1-1
	C107.8,109.3,107.5,109.2,107,109.5z M107.9,126.6c0.3-0.2,0.6-0.5,0.8-0.9c0.2-0.5,0-0.7-0.6-0.7c0,0.3-0.1,0.6-0.3,0.9
	C107.6,126.2,107.6,126.5,107.9,126.6z M107.7,88.3c0.2,0,0.2,0,0.2,0.1c0,0.1,0.1,0.1,0.2,0.1c0-0.3-0.2-0.5-0.5-0.7V88.3z
	 M108.6,103.1c-0.2,0.5,0.1,0.7,0.7,0.7C109.3,102.9,109.1,102.6,108.6,103.1z M110.7,107c-0.5,0-0.8,0.1-0.9,0.2
	c0.3-0.2,0.5-0.1,0.5,0.2c0,0.3,0.2,0.4,0.5,0.2V107z M110.5,92.5c-0.2,0.5,0,0.7,0.5,0.8c0.5,0.1,0.6-0.3,0.5-1
	C110.9,92.2,110.6,92.3,110.5,92.5z M110.9,116.2c0.8,0.3,1.2,0.2,1.2-0.5c0-0.6-0.2-0.9-0.7-0.9
	C111.4,115.2,111.2,115.6,110.9,116.2z M111.9,106.1h0.7c0-0.5-0.2-0.6-0.7-0.5V106.1z M112.8,86.2c-0.5,0-0.7,0.2-0.7,0.5
	C112.2,86.7,112.5,86.5,112.8,86.2z M112.5,137.7c-0.3,0.3-0.3,0.5,0,0.5C112.9,138.2,112.9,138,112.5,137.7z M112.8,87.8
	c0.3-0.6,0.2-0.9-0.5-0.9C112.3,87.4,112.5,87.7,112.8,87.8z M113.2,101c0.3,0.5,0.3,0.9,0,1.3c-0.3,0.4-0.2,0.6,0.5,0.6
	c-0.3-0.3-0.4-0.7-0.2-1C113.6,101.4,113.5,101.2,113.2,101z M114.4,114.2c0.5,0,0.7-0.2,0.7-0.5
	C114.5,113.7,114.2,113.9,114.4,114.2z M114.9,110.5c0.3-0.3,0.5-0.5,0.5-0.7c-0.3,0-0.5,0.1-0.5,0.2c0.3,0,0.3,0,0.1,0.1
	C114.7,110.2,114.7,110.3,114.9,110.5z M115.5,99.4c0.9,0,1.1-0.2,0.6-0.6C115.6,98.4,115.4,98.6,115.5,99.4z M116,119.7
	c0.2-1.1,0.1-1.3-0.1-0.8C115.7,119.4,115.7,119.7,116,119.7z M116.9,118.8c0.2,0,0.3-0.1,0.3-0.2c0.1-0.2,0-0.2-0.3-0.2V118.8z
	 M118.3,128.5c-0.2,0.5,0,0.7,0.3,0.7c0.4,0,0.6-0.2,0.6-0.5C119.2,128.6,118.9,128.5,118.3,128.5z M119.7,125.9
	c0.3,0.2,0.6,0,0.9-0.5C120,125.5,119.7,125.6,119.7,125.9z M120.4,102.9c-0.3,0.3-0.4,0.6-0.2,0.8c0.2,0.2,0.5,0.3,0.9,0.1
	C120.8,103.2,120.5,102.9,120.4,102.9z M121.8,100.5c0.5,0,0.7-0.2,0.7-0.5C121.7,99.8,121.5,99.9,121.8,100.5z M122.7,87.6
	c0-0.6-0.2-0.9-0.7-0.9C121.4,87.3,121.6,87.6,122.7,87.6z"/>
</svg>
