<?xml version="1.0" encoding="utf-8"?>
<!-- Generator: Adobe Illustrator 18.0.0, SVG Export Plug-In . SVG Version: 6.00 Build 0)  -->
<!DOCTYPE svg PUBLIC "-//W3C//DTD SVG 1.1//EN" "http://www.w3.org/Graphics/SVG/1.1/DTD/svg11.dtd">
<svg version="1.1" id="Layer_1" xmlns="http://www.w3.org/2000/svg" xmlns:xlink="http://www.w3.org/1999/xlink" x="0px" y="0px"
	 viewBox="0 0 63.2 155.4" enable-background="new 0 0 63.2 155.4" xml:space="preserve">
<path d="M61.5,63.1c1.5,1.2,2,2.7,1.5,4.4c-0.5,1.7-1.3,3.2-2.2,4.4c-1.1,1.2-2,2.8-2.8,4.6c-0.5,0.8-1.1,1.6-1.8,2.4
	c-0.8,0.8-1.2,1.7-1.4,2.4c-0.2,0.8-0.5,1.4-0.9,2c-0.5,0.5-0.9,1.2-1.4,2c-0.5,0.8-0.8,1.5-1.2,2.2c-0.3,0.7-0.6,1.4-0.9,2.2
	c-0.6,0.8-1.2,1.5-1.6,2.2c-0.5,0.7-0.9,1.5-1.4,2.4s-1,1.8-1.6,2.8c-0.6,0.9-1.2,1.9-1.8,3c-0.3,0.8-0.7,1.5-1.2,2.1
	c-0.5,0.6-0.8,1.3-1.2,2.1c-0.3,0.8-0.6,1.4-0.8,2c-0.2,0.5-0.7,1.1-1.5,1.7c-0.6,0.5-1,1-1,1.5c-0.1,0.5-0.3,1.1-0.6,1.7
	c-0.8,0.8-1.3,1.6-1.7,2.4c-0.4,0.8-0.8,1.7-1.3,2.7c-0.3,0.8-0.8,1.5-1.4,2.1c-0.6,0.6-1.1,1.3-1.4,2.1c-0.3,0.9-0.7,1.9-1.2,2.9
	c-0.5,1-1.1,1.9-1.8,2.7c-0.6,0.8-1,1.5-1.3,2.2c-0.2,0.7-0.5,1.4-0.8,2.2c-0.6,0.9-1.2,1.8-1.8,2.7c-0.6,0.8-1.2,1.8-1.8,2.9
	c-0.3,0.8-0.7,1.6-1.2,2.4c-0.5,0.8-0.8,1.7-1.2,2.4c-0.3,0.9-0.8,1.7-1.5,2.4c-0.7,0.7-1.3,1.4-2,2.2c-0.6,0.8-1,1.5-1.2,2.2
	c-0.2,0.7-0.5,1.4-1.2,2.2c-0.5,0.5-0.9,1-1.3,1.5c-0.4,0.5-0.8,1-1.3,1.5c-0.5,0.8-1.2,1.5-2.3,2.3c-1.1,0.8-1.8,0.5-2.3-0.9
	c-0.3-0.8-0.4-1.5-0.2-2.3c0.2-0.8,0.4-1.5,0.7-2.3c0.2-0.6,0.2-1.2,0.1-1.6c-0.1-0.5,0-0.9,0.1-1.4c0-0.6,0.1-1.2,0.3-1.7
	c0.2-0.5,0.4-1.2,0.6-2c0.8-3.5,1.6-7,2.5-10.3c0.9-3.3,1.9-6.7,3-10.3c0.5-1.8,0.9-3.7,1.3-5.5c0.4-1.8,0.8-3.6,1.3-5.3
	c0.3-0.8,0.6-1.4,0.8-2c0.2-0.5,0.4-1.2,0.6-2c0.2-0.8,0.3-1.5,0.5-2.2c0.2-0.7,0.5-1.3,1.2-1.7c-0.3-1.5,0-3.1,0.8-4.6
	c0.8-1.5,0.7-3-0.3-4.4c-0.9-1.1-2.3-1.6-4.2-1.6c-1.8,0-3.4,0.2-4.6,0.5c-0.9,0.3-1.9,0.3-2.9,0.1c-1-0.2-2-0.3-2.9-0.3
	c-1.5,0-3.1-0.2-4.6-0.7C1,92,0.4,91.4,0.2,90.6c-0.2-0.8-0.2-1.6,0-2.4c0.2-0.8,0.6-1.7,1-2.5c0.5-0.8,0.8-1.6,1.2-2.2
	c0.5-1.1,1-2.1,1.5-3c0.5-0.9,1.1-1.9,1.7-3c0.3-0.8,0.8-1.4,1.4-2c0.6-0.5,1.1-1.2,1.4-2c0.3-0.8,0.7-1.2,1.2-1.4
	c0.2-0.6,0.3-1.1,0.3-1.5c0.1-0.4,0.3-0.8,0.6-1.3c0.8-0.8,1.3-1.7,1.7-2.7c0.4-1,0.8-1.9,1.3-2.7c1.2-1.8,2.4-3.7,3.6-5.5
	c1.2-1.8,2.1-3.8,2.9-6c0.5-1.1,1.1-2,1.8-2.9c0.8-0.8,1.5-1.7,2.1-2.7c0.8-0.9,1.3-2,1.7-3.1c0.4-1.2,1-2.2,1.7-3.1
	c1.2-1.7,2.3-3.5,3.2-5.3c0.9-1.8,1.9-3.6,3-5.3c0.8-0.9,1.3-1.9,1.6-2.9c0.3-1,0.8-2,1.4-2.9c0.6-1.1,1.3-2,2-2.8
	c0.7-0.8,1.2-1.7,1.5-2.8c0.3-0.9,0.8-1.7,1.4-2.3c0.6-0.6,1.1-1.3,1.4-2.1c0.3-1.1,0.8-1.9,1.4-2.4c0.6-0.5,1.2-1.2,1.8-2
	c0.3-0.6,0.6-1.3,0.8-2c0.2-0.7,0.5-1.3,0.8-2c0.5-0.5,1.1-0.8,1.8-1.2c-0.3-0.6-0.2-1.2,0.5-1.8c0.5-0.9,1.2-1.8,2.3-2.7
	c1.1-0.8,2-0.5,2.8,1c0.5,0.9,0.5,1.8,0.2,2.7c-0.3,0.8-0.5,1.7-0.5,2.7c-0.2,1.2-0.4,2.5-0.7,3.7c-0.3,1.2-0.6,2.5-0.9,3.7
	c-0.6,2-1.1,4-1.5,6c-0.4,2-0.9,4-1.5,6c-0.3,0.9-0.7,1.8-1,2.7c-0.4,0.8-0.7,1.7-0.8,2.7c-0.3,1.2-0.6,2.5-0.8,3.8
	c-0.2,1.3-0.6,2.6-1,3.8c-0.3,0.9-0.6,1.8-0.9,2.8c-0.3,0.9-0.5,1.9-0.7,3c0,1.1-0.2,2.1-0.7,3.1c-0.5,1-0.8,2-1.2,3.1
	c-0.3,1.4-0.8,2.8-1.4,4.2c-0.6,1.4-0.8,2.8-0.5,4.4c0.2,0.8,0.5,1.3,1.2,1.7c0.6,0.4,1.3,0.6,2.2,0.7c0.8,0.1,1.7,0.1,2.4,0.1
	c0.8,0,1.5,0,2.1,0c2-0.2,4.2-0.3,6.5-0.6C57.8,61.4,59.8,61.9,61.5,63.1z M10.4,92.2c0.3,0.2,0.5,0,0.5-0.3c0-0.4-0.2-0.5-0.5-0.3
	V92.2z M12.8,150.2c0.5,0,0.6-0.1,0.3-0.3C12.9,149.6,12.8,149.7,12.8,150.2z M14.6,77.4c0.5,0.2,0.8,0,1-0.3c0.2-0.4,0.2-0.7-0.1-1
	c-0.6-0.5-1-0.4-1,0.1C14.4,76.7,14.4,77.1,14.6,77.4z M14.8,139.1c0.3-0.2,0.6-0.2,0.8,0c0.2,0.2,0.3-0.1,0.1-0.7
	c-0.3-0.6-0.6-0.7-0.8-0.3C14.7,138.4,14.7,138.8,14.8,139.1z M14.8,83.2c0,0.3,0.2,0.6,0.5,0.8c0.3,0.2,0.6,0.1,0.9-0.3
	C15.6,83.4,15.1,83.2,14.8,83.2z M16.9,137.5c0.2,0.3,0.4,0.4,0.7,0.2c0.3-0.2,0.4-0.4,0.2-0.7C17.2,137,16.9,137.2,16.9,137.5z
	 M17.4,80.7c0.3,0.2,0.5,0.1,0.7-0.1c0.2-0.2,0.1-0.4-0.2-0.6C17.8,80.1,17.7,80.4,17.4,80.7z M18.3,140.7c0.2-0.2,0.2-0.3,0.2-0.6
	c0-0.2-0.2-0.3-0.5-0.3c-0.2,0.2-0.2,0.3-0.2,0.6C17.8,140.6,18,140.7,18.3,140.7z M18.3,74.9c-0.2,0.5,0,0.8,0.3,0.9
	c0.4,0.2,0.7,0.1,1-0.2c0-0.3-0.2-0.6-0.6-0.8C18.7,74.6,18.4,74.6,18.3,74.9z M19,87.6c0.8,0.2,1-0.2,0.8-0.9
	c-0.2-0.8-0.6-1.2-1-1.4c-0.3,0.3-0.4,0.7-0.2,1.2C18.7,86.9,18.8,87.3,19,87.6z M22.2,70.7c-1.8,0.8-2.6,2.2-2.3,4.2
	c0.5-0.3,0.9-0.6,1.3-0.8c0.4-0.2,0.9-0.2,1.5,0.1c-0.2-0.8,0-1.3,0.3-1.5c0.4-0.2,0.9-0.5,1.5-0.8c0.3-0.2,0.4-0.5,0.3-1
	c-0.1-0.5-0.3-0.8-0.6-0.8c-0.2,0.6-0.3,1.2-0.5,1.6c-0.2,0.5-0.6,0.6-1.4,0.5c-0.2-0.3-0.2-0.5-0.1-0.7
	C22.4,71.3,22.4,71.1,22.2,70.7z M20.4,85.8c0.2,0,0.4,0,0.7,0.1c0.3,0.1,0.5,0,0.5-0.3C20.9,85.2,20.5,85.3,20.4,85.8z M20.6,83.7
	c0.3,0.3,0.6,0.3,0.9,0.1c0.3-0.2,0.4-0.6,0.2-1c-0.3,0.2-0.6,0.3-0.8,0.3C20.7,83.2,20.6,83.4,20.6,83.7z M20.8,93.4
	c0.8,0,1-0.2,0.6-0.6C21,92.4,20.8,92.6,20.8,93.4z M21.1,104c0.8,0,1-0.2,0.6-0.6C21.3,103,21.1,103.2,21.1,104z M23.1,75.4
	c-0.8-0.2-1.2,0.1-1.3,0.7c-0.1,0.6,0.1,1,0.6,1.2c0.2-0.3,0.3-0.6,0.5-0.8C23.1,76.2,23.1,75.8,23.1,75.4z M22,81.6
	c-0.3,1.2,0.1,2,1.2,2.3c0.3-0.5,0.4-1,0.2-1.5C23.2,81.9,22.8,81.6,22,81.6z M22.5,86.2c0,0.3-0.1,0.6-0.2,0.8
	c-0.2,0.2-0.1,0.4,0.2,0.6c0.8-0.3,1.4-0.8,1.8-1.4C23.8,85.8,23.2,85.8,22.5,86.2z M22.9,79.5c0-0.3-0.2-0.5-0.5-0.5
	c-0.2,0.2-0.2,0.3-0.1,0.5C22.4,79.7,22.6,79.7,22.9,79.5z M23.1,122.5c0.9,0,1.1-0.2,0.6-0.6C23.2,121.5,23,121.7,23.1,122.5z
	 M23.1,69.4c0,0.3,0.2,0.5,0.5,0.5c0.3,0,0.4-0.2,0.2-0.5C23.8,68.9,23.6,68.9,23.1,69.4z M23.4,75.8c1.1,0,1.5-0.5,1.2-1.4
	c-0.3,0-0.6,0.2-0.9,0.5C23.3,75.2,23.2,75.5,23.4,75.8z M25,100.3c0-0.2,0-0.3-0.1-0.3c-0.1-0.1-0.1-0.3-0.1-0.6
	c0.2,0.3,0,0.6-0.5,0.9c-0.5,0.3-0.7,0.6-0.7,0.9c0.3,0,0.5,0.1,0.5,0.2c0,0.2,0.2,0.2,0.5,0.2v-1.4H25z M24.8,59.9
	c-0.3,0.3-0.5,0.7-0.5,1c0,0.4-0.2,0.7-0.5,1c0.3-0.2,0.5-0.1,0.5,0.1c0,0.2,0.2,0.3,0.5,0.3C25.5,61.7,25.5,60.8,24.8,59.9z
	 M24.5,66.8c1.1-0.3,1.6-0.7,1.5-1.2c-0.1-0.5-0.7-0.8-1.7-1.2C24.8,65.1,24.8,65.9,24.5,66.8z M26.1,83.7c0.3,0.5,0.1,0.9-0.7,1.4
	c-0.8,0.5-0.5,0.7,0.7,0.7c0.5,0,0.6-0.1,0.5-0.3c-0.2-0.2-0.2-0.4-0.2-0.6c0.3-0.3,0.6-0.5,0.9-0.6c0.3-0.1,0.4-0.4,0.2-1
	c-0.3,0.2-0.5,0.2-0.7,0.2C26.7,83.4,26.5,83.5,26.1,83.7z M27.3,73.1c0-0.8-0.3-1.1-0.8-0.9c-0.5,0.2-1,0.1-1.3-0.2
	c0,0.9,0.3,1.3,0.9,1.2c0.2-0.3,0.4-0.5,0.7-0.5C27.1,72.6,27.3,72.7,27.3,73.1z M26.4,79.5c0.2-0.3,0.1-0.5-0.2-0.6
	c-0.3-0.1-0.5,0-0.7,0.3C25.9,79.6,26.2,79.7,26.4,79.5z M25.9,109.5c0.5,0,0.6-0.1,0.3-0.3C26,109,25.9,109.1,25.9,109.5z M27.3,65
	c-0.5,0-0.7,0.2-0.7,0.5c0.2,0.2,0.3,0.2,0.3,0.2c0.1,0,0.2,0.1,0.3,0.2c0-0.2,0-0.3,0.1-0.3C27.5,65.5,27.5,65.3,27.3,65z
	 M26.6,104.9c0,0.5,0.2,0.8,0.7,0.9C27.3,105.2,27.1,104.9,26.6,104.9z M28.9,65.7c-1.2,0.3-1.9,1-2.1,2.1c0.6-0.2,1.1-0.3,1.5-0.6
	C28.7,66.9,28.9,66.4,28.9,65.7z M26.8,69.1c0.9,0.3,1.6,0.6,2.1,0.9c0.8-0.9,0.7-1.4-0.1-1.5C28,68.5,27.3,68.7,26.8,69.1z
	 M27.3,118.1c-0.3,0.2-0.4,0.3-0.3,0.5c0.1,0.2,0.3,0.2,0.6,0C27.5,118.2,27.5,118.1,27.3,118.1z M27.5,88.3c-0.3-0.3-0.5-0.3-0.5,0
	C27.1,88.6,27.2,88.6,27.5,88.3z M27.3,86.2c0,0.6,0.6,0.9,1.8,0.9c0-0.5-0.2-0.8-0.6-1C28.2,85.9,27.8,85.9,27.3,86.2z M27.8,97.5
	c0.2-0.6,0-0.9-0.5-0.9v0.9H27.8z M28.9,61.3c-0.3,0-0.6,0.1-0.9,0.3c-0.3,0.2-0.3,0.5,0,0.8c0.2-0.3,0.4-0.5,0.7-0.5
	C29,62,29.1,61.7,28.9,61.3z M28,95c0.3-0.2,0.6-0.3,0.8-0.3c0.2-0.1,0.4-0.3,0.6-0.6c-0.3-0.3-0.7-0.3-1.2,0
	C27.8,94.4,27.7,94.7,28,95z M28.5,59.4c0,0.2,0,0.3-0.1,0.3c-0.1,0.1-0.1,0.2-0.1,0.3c0.2,0,0.3,0,0.3,0.1c0.1,0.1,0.3,0.1,0.6,0.1
	C29.1,60.1,28.9,59.7,28.5,59.4z M28.5,76.3c0.2,0.2,0.4,0.2,0.8,0.1c0.4-0.1,0.5-0.3,0.3-0.6c-0.2-0.3-0.3-0.4-0.6-0.2
	C28.8,75.8,28.6,76,28.5,76.3z M29.1,93.6c0-0.2,0.1-0.4,0.3-0.7c0.2-0.3,0-0.4-0.8-0.2C28.7,93.1,28.8,93.5,29.1,93.6z M30.8,63.6
	c-0.6,0.2-1,0.1-1.2-0.1c-0.2-0.2-0.4-0.3-0.7-0.3c-0.2,0.8,0.1,1.2,0.7,1.2C30.2,64.3,30.6,64.1,30.8,63.6z M29.1,91.1
	c-0.2,0.3-0.1,0.5,0.1,0.6c0.2,0.1,0.4,0,0.6-0.3c-0.2,0-0.3,0-0.3-0.1C29.4,91.1,29.3,91.1,29.1,91.1z M30.1,92.4
	c0.5,0.3,0.7,0.8,0.8,1.4c0.1,0.6,0.5,0.9,1.3,0.9c0-0.2,0-0.4-0.1-0.7c-0.1-0.3,0-0.5,0.1-0.7c0.2-0.8,0-1.2-0.3-1.4
	c-0.4-0.2-0.3-0.6,0.3-1.4c0.3-0.6,0.7-1.1,1-1.4c0.4-0.3,0.2-0.7-0.6-1.2c-0.3-0.2-0.6-0.5-0.9-0.9c-0.3-0.5-0.1-0.7,0.7-0.7
	c-0.2-0.3-0.3-0.6-0.5-0.8c-0.2-0.2-0.2-0.5,0-0.8c-1.1,0.3-1.4,1-1,2c0.4,1,0.3,1.8-0.1,2.4C31.4,90.6,31.1,91.7,30.1,92.4z
	 M31.2,82.8c0-0.3-0.1-0.5-0.2-0.6c-0.2-0.1-0.3-0.2-0.5-0.3C30.5,82.4,30.8,82.8,31.2,82.8z M31.5,51.1c0.2-0.3,0.1-0.5-0.2-0.6
	c-0.3-0.1-0.5,0-0.5,0.3c0.3,0.2,0.5,0.3,0.5,0.5C31.2,51.5,31.3,51.4,31.5,51.1z M31.5,97.1c-0.3-0.3-0.5-0.3-0.5,0
	C31,97.4,31.1,97.4,31.5,97.1z M31.7,104.5c-0.5,0-0.7,0.1-0.7,0.2C31.5,105.1,31.7,105.1,31.7,104.5z M32.1,106.5
	c-0.2-0.3-0.1-0.4,0.2-0.2c0.3,0.2,0.5,0.1,0.5-0.2c-0.3-0.2-0.6-0.4-0.9-0.7c-0.3-0.3-0.6-0.4-0.9-0.2
	C31,105.8,31.4,106.2,32.1,106.5z M31.9,67.3c0-0.3-0.2-0.5-0.5-0.5v0.5H31.9z M32.1,69.6c0-0.3,0.1-0.6,0.3-0.8
	c0.2-0.2,0-0.3-0.8-0.3c0,0.2,0,0.4,0,0.7C31.7,69.4,31.8,69.6,32.1,69.6z M31.9,83.7c0.8-0.2,1.4-0.4,1.8-0.7
	c0.5-0.3,1.1-0.5,1.8-0.5c-0.3,0.6-0.2,0.9,0.5,0.9c0-0.8,0.2-1.4,0.7-2c0.5-0.5,0.1-1.2-1.2-2c-0.3,0.8-0.8,0.9-1.5,0.3
	c-0.7-0.5-1.2-0.5-1.5,0.1c0.3,0.3,0.7,0.4,1.2,0.3c0.5-0.1,0.6,0.2,0.5,0.8c-0.3,0.6-0.7,1-1.2,1.3C32.6,82.6,32.2,83.1,31.9,83.7z
	 M32.4,105.1c-0.2,0.3-0.1,0.5,0.2,0.6c0.3,0.1,0.5,0,0.5-0.3c-0.2,0-0.3,0-0.3-0.1C32.6,105.2,32.5,105.1,32.4,105.1z M33.1,87.6
	c0.8,0,1.1-0.2,1-0.6c-0.1-0.4,0-0.9,0.3-1.5c-0.3,0-0.5-0.1-0.7-0.3c-0.2-0.2-0.4-0.3-0.7-0.1C32.8,86,32.8,86.8,33.1,87.6z M34,77
	c-0.3-0.2-0.6-0.2-0.9-0.1c-0.3,0.1-0.2,0.3,0.2,0.8c0.3,0.2,0.5,0.1,0.5-0.1C33.8,77.3,33.8,77.1,34,77z M33.3,91.8
	c-0.3,0.5-0.2,0.6,0.2,0.5c0.5-0.2,0.5-0.4,0.2-0.7L33.3,91.8z M34.2,74c-0.2,0.5,0.2,0.7,0.9,0.7C35.1,74.2,34.8,74,34.2,74z
	 M34.5,61.5v0.9h1.2c0-0.5-0.2-0.7-0.6-0.6C34.6,61.9,34.5,61.8,34.5,61.5z M35.6,52.5c-0.6-0.3-0.8-0.1-0.5,0.7
	C35.6,53.2,35.8,53,35.6,52.5z M35.1,93.6c0.8,0,1-0.2,0.6-0.6C35.3,92.6,35.1,92.8,35.1,93.6z M35.6,87.1c0.3,0,0.5-0.2,0.5-0.5
	c0-0.3-0.2-0.5-0.5-0.5c0,0.2,0,0.3-0.1,0.3C35.4,86.6,35.5,86.8,35.6,87.1z M37.5,50.4c-0.3-0.2-0.7-0.3-1.2-0.5
	c-0.5-0.2-0.7,0.2-0.7,0.9c0.6,0.3,1.1,0.6,1.4,0.9C37.5,51,37.6,50.6,37.5,50.4z M38.4,80.4c-0.8,0.8-0.6,1.5,0.6,2.1
	c1.2,0.6,2.1,0.5,2.9-0.5c-0.8-0.5-1.1-0.7-1-0.7c0.1,0-0.2,0.2-0.8,0.5c-0.3,0.3-0.5,0.1-0.5-0.6c0-0.7,0.5-0.9,1.4-0.6
	c0.2-0.9-0.1-1.3-0.8-1.3c-0.7,0.1-1.2-0.2-1.5-0.8c-0.3-0.6-0.8-1-1.6-1c-0.8-0.1-0.8-0.7,0-1.7c-0.8,0-1.2,0.4-1.3,1.2
	c-0.1,0.8-0.1,1.5-0.1,2.1c0.3,0.2,0.6,0.2,0.8,0c0.2-0.2,0.5-0.2,0.8-0.2c0.2,0.2,0.5,0.4,0.9,0.7C38.6,79.8,38.7,80.1,38.4,80.4z
	 M35.6,85.1c0.5,0.3,1.2,0.6,2.2,0.9c1,0.3,1.7,0.1,2-0.7c-0.8-0.3-1.2-0.8-1.3-1.4c-0.1-0.6-0.4-0.9-1-0.9c0,0.2,0,0.3,0.1,0.5
	c0.1,0.2,0.1,0.4,0.1,0.7c-0.2,0.5-0.5,0.6-0.9,0.5C36.3,84.4,35.9,84.6,35.6,85.1z M36.8,74.9c0-0.3-0.2-0.4-0.7-0.2v0.2H36.8z
	 M36.3,56.7c0.3,0.3,0.6,0.2,0.9-0.2c-0.2-0.2-0.3-0.2-0.6-0.2S36.3,56.4,36.3,56.7z M37.9,99.4c0.3-0.3,0.5-0.6,0.7-0.9
	c0-0.3-0.3-0.2-1,0.3c-0.7,0.5-1,0.9-1,1c0.2,0.8,0.6,1.2,1.4,1.4c0.3-0.5,0.3-0.8-0.1-1C37.4,100,37.5,99.7,37.9,99.4z M37.2,97.8
	c0.5,0.2,1.2,0.2,2.3,0.2c0-0.5-0.2-0.8-0.5-1c-0.3-0.2-0.5-0.7-0.5-1.3C37.5,96.3,37.1,97,37.2,97.8z M37.5,75.4
	c1.5-0.2,2-0.4,1.4-0.7C38.2,74.4,37.8,74.6,37.5,75.4z M38.8,73.7c-0.2-0.5-0.2-0.9-0.2-1.4c0-0.5-0.3-0.7-0.9-0.7c0,0.5,0,1,0,1.5
	C37.7,73.7,38.1,73.9,38.8,73.7z M38.1,93.4c0.3,0,0.5,0,0.6,0.1c0.1,0.1,0.3,0,0.6-0.1c-0.3-0.2-0.5-0.3-0.7-0.5
	C38.5,92.8,38.3,92.9,38.1,93.4z M38.4,87.4c0.3,0,0.6,0.1,0.8,0.2c0.2,0.2,0.4,0,0.6-0.5C39,86.8,38.5,86.9,38.4,87.4z M38.6,66.8
	c0,0.5,0.2,1.1,0.6,2c0.4,0.8,0.9,0.9,1.5,0.1c-0.3-0.3-0.6-0.6-0.9-0.9c-0.3-0.3-0.3-0.8,0-1.4C39.1,66.6,38.8,66.7,38.6,66.8z
	 M38.6,95.7c0.5,0,0.6-0.2,0.3-0.5C38.7,94.9,38.6,95.1,38.6,95.7z M40.2,74c0.3,0.2,0.5,0,0.7-0.3c0.2-0.4,0.1-0.7-0.2-0.8
	c-0.2,0.3-0.3,0.5-0.6,0.6C39.9,73.5,39.9,73.7,40.2,74z M43.5,71.9c-0.6,0-1.2-0.3-1.6-0.8c-0.5-0.5-1-0.7-1.6-0.3
	c0.3,0.6,0.6,1.2,0.8,1.6c0.2,0.5,0.5,1,0.8,1.6C42.6,73.5,43.2,72.8,43.5,71.9z M41.6,85.8c0-0.3,0-0.6,0.1-0.9
	c0.1-0.3-0.3-0.5-1-0.5C40.7,85.3,41,85.8,41.6,85.8z M42.1,69.1c-0.3,0-0.5,0.1-0.5,0.2c0.2,0,0.2,0.1,0.1,0.2
	c-0.1,0.2,0,0.2,0.3,0.2V69.1z M42.1,75.1c0,0.2,0,0.3-0.1,0.3c-0.1,0.1-0.1,0.2-0.1,0.3c0.2,0,0.4-0.1,0.7-0.2
	C42.8,75.4,42.7,75.3,42.1,75.1z M41.8,93.6c0,0.2,0.1,0,0.3-0.3c0.2-0.4,0.3-0.7,0.3-0.8C42.1,92.8,41.8,93.1,41.8,93.6z
	 M46.2,82.1c0.2-0.5,0.3-0.8,0.6-1c0.2-0.2,0.3-0.6,0.3-1c-0.3,0-0.5-0.1-0.6-0.2c-0.1-0.2-0.3-0.3-0.6-0.5c0,0.6-0.2,0.8-0.6,0.6
	c-0.4-0.2-0.6-0.5-0.6-0.8c0.3,0,0.6,0,0.8,0.1c0.2,0.1,0.4,0,0.6-0.1c-0.3-0.9-0.7-1.3-1.3-1.2c-0.5,0.2-1.2,0.4-2,0.7
	c0.3,0.5,0.3,0.7,0.1,0.6c-0.2-0.1-0.5,0-0.8,0.1c0.2,0.3,0.3,0.6,0.5,0.9c0.2,0.3,0.2,0.6,0,0.9c0.5,0,0.7-0.2,0.7-0.6
	c0-0.4,0.2-0.7,0.5-0.8c0.3,0.3,0.5,0.5,0.7,0.6c0.2,0.1,0.4,0.3,0.7,0.6l0.5,0.5c0,0.2,0,0.2,0.1,0.2c0.1,0,0.1,0.1,0.1,0.2
	C46,82,46.1,82.1,46.2,82.1z M42.8,74.9c0.5,0,0.6-0.1,0.3-0.3C42.9,74.3,42.8,74.4,42.8,74.9z M44.2,74.4c-0.5-0.3-0.7-0.3-0.6,0
	C43.7,74.8,43.8,74.8,44.2,74.4z M44.4,69.1c0.5,0,0.6-0.1,0.3-0.3C44.5,68.6,44.4,68.7,44.4,69.1z M46.7,75.6
	c-0.3-0.2-0.6-0.3-0.8-0.5c-0.2-0.2-0.5-0.2-0.8,0c0,0.6,0.2,1,0.7,1.3C46.2,76.6,46.5,76.4,46.7,75.6z M46.2,70.5
	c0.2,0.2,0.2,0.3,0,0.3c-0.2,0.1-0.2,0.2-0.2,0.3c0.6,0.2,0.9,0.1,0.9-0.2C46.9,70.7,46.7,70.5,46.2,70.5z M48.1,78.4
	c0.3,0.2,0.5,0,0.5-0.3c0-0.4-0.2-0.5-0.5-0.3V78.4z M49.2,72.4c0.2-0.3,0.1-0.6-0.2-0.8c-0.3-0.2-0.5-0.2-0.7,0.1
	c0.3,0,0.5,0.2,0.5,0.5C48.8,72.4,48.9,72.5,49.2,72.4z M49.5,74.7c0.5,0.5,0.7,0.4,0.7-0.2C49.7,74.4,49.5,74.5,49.5,74.7z"/>
</svg>
