<?xml version="1.0" encoding="utf-8"?>
<!-- Generator: Adobe Illustrator 18.0.0, SVG Export Plug-In . SVG Version: 6.00 Build 0)  -->
<!DOCTYPE svg PUBLIC "-//W3C//DTD SVG 1.1//EN" "http://www.w3.org/Graphics/SVG/1.1/DTD/svg11.dtd">
<svg version="1.1" id="Layer_1" xmlns="http://www.w3.org/2000/svg" xmlns:xlink="http://www.w3.org/1999/xlink" x="0px" y="0px"
	 viewBox="0 0 62.9 154.7" enable-background="new 0 0 62.9 154.7" xml:space="preserve">
<path d="M59.2,62.1c1.1,0.2,1.9,0.6,2.4,1.3c0.5,0.7,1,1.5,1.3,2.4c-0.2,0.3-0.3,0.7-0.3,1.3c-0.1,0.5-0.3,0.9-0.8,1
	c-0.3,1.5-0.7,2.6-1.2,3.2c-0.6,1.1-1.2,1.5-1.6,1.2c-0.6-0.3-0.9-0.2-0.9,0.2c0,0.5,0.2,0.8,0.5,1.2c-0.3,1.1-0.7,2.1-1.3,3
	c-0.5,0.9-1.1,1.8-1.7,2.8c-0.6,0.8-1.1,1.5-1.5,2.3c-0.4,0.8-0.7,1.5-1,2.3c-0.3,0.3-0.6,0.6-0.9,0.9c-0.3,0.3-0.5,0.7-0.7,1.2
	c-0.3,0.3-0.4,0.7-0.3,1c0.1,0.4,0,0.7-0.3,1c-0.5,0.3-0.9,0.9-1.4,1.7c-0.5,0.8-0.9,1.7-1.4,2.7c-0.5,0.9-1,1.7-1.5,2.3
	c-0.5,0.6-1.1,0.9-1.7,0.9c0.3,0.5,0.3,1,0.1,1.7c-0.2,0.7-0.5,1.2-0.8,1.5c-0.5,0.6-0.7,0.9-0.8,0.8c-0.1-0.1-0.3-0.1-0.8-0.1
	c-0.3,0.3-0.3,0.6,0,0.8c0.3,0.2,0.3,0.6,0,1c-0.3,0.6-0.6,1.2-0.9,1.8c-0.3,0.6-0.6,1.2-0.9,1.8c-0.6,1.4-1.4,2.4-2.3,3
	c0,1.1-0.4,1.5-1.3,1.3c-0.8-0.2-1.7-0.3-2.4-0.1c0.2,0.3,0.4,0.5,0.8,0.6c0.4,0.1,0.7,0.3,1,0.6c0.3,0.3,0.3,0.8-0.1,1.5
	c-0.4,0.7-0.7,1.2-1,1.5c-0.5,0-0.6-0.3-0.5-1c0.2-0.7,0.3-1,0.5-0.8c-0.2-0.3-0.3-0.3-0.6-0.1c-0.2,0.2-0.4,0.3-0.6,0.1
	c-0.2,0-0.2-0.1-0.2-0.2c0,0.2,0.1,0.2,0.2,0.2c0.3,0.5,0.3,0.9-0.1,1.4c-0.4,0.5-0.4,0.8-0.1,1.2c0.8,0.3,1,0.7,0.7,1.3
	c-0.3,0.5-0.6,1-0.9,1.5c-0.9,0.9-1.5,1.8-1.6,2.5c-0.3,0.8-0.8,1.1-1.5,0.9c-0.7-0.2-1.3-0.4-2-0.7c0,0.6-0.3,0.9-0.9,0.8
	c-0.6-0.1-1,0.1-1.2,0.6c-0.3,0.9-0.2,1.3,0.5,1c0.6-0.2,1-0.7,1.2-1.5c0.3,0.5,0.8,0.7,1.4,0.6c0.6-0.1,1.1,0,1.4,0.3
	c-0.8,1.7-1.7,3.3-2.8,4.8c-1.7-0.3-2.4,0.3-2.1,1.8c0.2,0.5,0.1,1-0.1,1.6c-0.2,0.6-0.5,1.1-0.8,1.4c-0.3,0.3-0.7,0.4-1.2,0.3
	c-0.5-0.1-0.8-0.5-0.9-1.3c0.3-0.2,0.7-0.2,1.2-0.2c0.5,0,0.7-0.2,0.7-0.7c-0.3-0.3-0.8-0.4-1.4-0.3c-0.6,0.1-0.9,0.3-0.9,0.8
	c-0.2-0.3-0.2-0.7,0-1c0.2-0.4,0.4-0.7,0.7-1c0.5-0.6,0.8-0.7,0.9-0.3c0.2,0.4,0.4,0.6,0.7,0.6c0.3-0.2,0.5-0.4,0.5-0.8
	c0-0.4,0.2-0.7,0.5-0.8c-0.3-0.2-0.5-0.2-0.6,0c-0.1,0.2-0.3,0.2-0.6,0.2c-0.6,0.2-0.8,0-0.6-0.3c0.2-0.4,0.2-0.7-0.1-1
	c-0.3-0.2-0.6,0.1-0.9,0.7c0-0.2-0.4-0.2-1.2-0.1c-0.8,0.1-0.9,0.3-0.5,0.6c0.2,0.2,0.3,0.2,0.6,0c0.2-0.2,0.3-0.1,0.3,0.2
	c-0.2,0.6-0.5,0.9-1.2,0.9c0.6,0.3,0.8,0.7,0.5,1.2c-0.6,0-1-0.4-1-1.2c-0.1-0.8-0.3-0.9-0.8-0.5c0.2,0.3,0.1,0.6-0.2,0.9
	c-0.3,0.3-0.5,0.6-0.7,0.9c0.2,0.5,0.5,0.7,0.9,0.8c0.5,0.1,0.8,0.1,1.2,0.1c0.5,0.3,0.6,0.5,0.3,0.7c-0.2,0.2-0.2,0.5,0.1,0.9
	c0.2,0.3,0.8,0.6,1.8,0.9c0.6,0.2,0.9,0.4,0.8,0.8c-0.1,0.4-0.3,0.7-0.7,1c-0.4,0.3-0.8,0.7-1.3,1c-0.5,0.4-0.7,0.7-0.7,0.8
	c0.2,0.2,0.5,0.2,0.9,0.2c0,0.8-0.2,1.1-0.6,1c-0.4-0.1-0.7-0.1-1-0.1c0,0.3,0.1,0.5,0.2,0.7c0.3,0.2,0.3,0.4,0.1,0.7
	c-0.2,0.3-0.3,0.5-0.3,0.7c-0.3,0.9-0.7,1.5-1.3,1.6c-0.5,0.2-1,0.5-1.5,1.2c-0.5,0.6-0.8,1.2-0.9,1.8c-0.2,0.6-0.5,1.2-0.9,1.8
	c-0.6,0.8-1.2,0.7-1.8-0.2c-0.6-0.9-1.1-1.6-1.4-2.1c-0.3,0.5-0.7,1-1,1.6c-0.4,0.6-0.3,1.2,0.3,1.8c0.3,0.3,0.7,0.7,1.3,1
	c0.5,0.4,0.8,0.9,0.8,1.5c-0.5,0.3-0.8,0.2-1.2-0.3c-0.3-0.5-0.5-0.4-0.7,0.3c-0.2,0.8-0.2,1.3,0,1.6c0.2,0.3,0,0.8-0.5,1.4
	c-0.6,1.2-1.5,1.8-2.8,1.8c-1.2-0.3-1.6-0.7-1.2-1c0.5-0.4,0.8-0.9,1.2-1.5c0.3-0.8,0.2-1.2-0.3-1.2c-0.5,0-0.8-0.4-0.8-1.2
	c0.5-0.2,1,0.1,1.5,0.8c0.5,0.7,1.2,0.7,2-0.1c-0.3-0.8-0.8-1-1.5-0.8c-0.7,0.2-1,0-1-0.8c0.5-0.3,1-0.3,1.5,0.1
	c0.5,0.4,1,0.4,1.5,0.1c0.5-0.5,0.5-0.9,0-1.3c-0.5-0.4-0.8-0.7-1.2-0.8c-0.8-0.8-1.1-0.9-0.9-0.3c0.2,0.5,0.1,0.9-0.2,1
	c-0.8-0.2-1.1-0.6-1-1.3c0.1-0.7,0.2-1.2,0.3-1.5c0.2-0.3,0.4-0.6,0.7-0.9c0.3-0.3,0.4-0.5,0.2-0.7c-0.2-0.2-0.2-0.5-0.2-0.9
	c-0.2-0.9,0-1.2,0.6-0.7c0.5,0.5,0.9,0.8,1,1.2c0.2,0.5,0.5,0.5,1.2,0.2c0.6-0.3,0.9-0.5,0.8-0.7c-0.1-0.2,0.3-0.2,1,0
	c0.8,0,1.5-0.2,2.3-0.7c0-0.3-0.1-0.5-0.3-0.7c-0.2-0.2-0.4-0.4-0.6-0.7c-0.5,0.2-0.7,0.4-0.7,0.8c0,0.4-0.2,0.5-0.7,0.3
	c-0.2-0.6-0.3-1-0.3-1c-0.1-0.1-0.2,0-0.2,0.1c-0.1,0.2-0.2,0.3-0.5,0.3c-0.2,0.1-0.5,0-0.8-0.3c-0.2,0-0.3-0.2-0.6-0.7
	c-0.2-0.5-0.5-0.5-0.8-0.2c-0.2,0.3-0.2,0.6-0.2,0.8c0,0.2-0.2,0.3-0.7,0.3c0.2-0.9,0.4-1.8,0.7-2.7c0.3-0.8,1-1.3,2.1-1.5
	c-0.2-0.6,0-1.2,0.5-1.6c0-0.3-0.2-0.4-0.5-0.2c-0.3,0.2-0.5,0.2-0.7,0c0.2-0.6,0.1-1-0.1-1.3c-0.2-0.2-0.2-0.7,0.1-1.3
	c0.3-0.8,0.5-1.4,0.6-1.8c0.1-0.5,0.5-0.8,1.3-1.2c0.6-0.3,0.7-0.7,0.3-1.2c-0.4-0.5-0.6-1-0.6-1.6c0-0.6,0.2-1.2,0.7-1.6
	c0.5-0.5,0.5-1.1,0-1.8c0.8-0.6,1.2-1.6,1.3-2.9c0.1-1.3,0.3-2.4,0.6-3.3c0.2-0.8,0.3-1.6,0.6-2.4c0.2-0.8,0.5-1.7,0.8-2.4
	c0.2-0.3,0.2-0.6,0.2-0.9c0-0.3,0.1-0.6,0.2-0.9c0.3-0.3,0.6-0.3,0.8,0c0.2,0.3,0.5,0.3,0.8,0c0-0.3-0.2-0.5-0.5-0.5
	c-0.3,0-0.6,0-0.9,0c0-0.5,0.1-0.9,0.3-1.3c0.2-0.4,0.3-0.8,0.1-1.3c0-0.2,0.1-0.5,0.2-1.2c0.2-0.6,0.3-1.2,0.6-1.8
	c0.2-0.6,0.5-1.1,0.7-1.5c0.2-0.4,0.5-0.5,0.8-0.3c0.3-0.3,0.3-0.7,0-1c-0.3-0.4-0.3-0.8,0-1.3c0.2-0.5,0.4-0.9,0.7-1.4
	c0.3-0.5,0.4-0.8,0.2-1.2c-0.3-0.6-0.4-1.1-0.2-1.4c0.2-0.3,0.1-0.7-0.2-1.2c-0.6-0.8-0.8-1.2-0.6-1.3c0.2-0.1,0.3-0.5,0.3-1.3
	c-0.3-0.2-0.7-0.1-1,0.1c-0.4,0.2-0.7,0.4-1,0.6c-0.5,0-0.8-0.1-1-0.2c-0.2-0.2-0.5-0.2-0.8-0.2c-0.5,0-1,0.1-1.5,0.2
	c-0.5,0.2-1,0.1-1.5-0.2c-0.2-0.6-0.2-1,0-1.3c0.2-0.2-0.3,0-1.4,0.6c-0.5,0.3-1.1,0.7-1.8,1c-0.8,0.4-1.4,0.3-1.8-0.3
	C9,92,8.7,91.8,8.5,92c-0.2,0.2-0.6,0.5-1,0.8c-0.8,0.3-1.2,0.1-1.3-0.6c-0.1-0.7-0.3-0.8-0.8-0.3C5.1,92.2,5,92.4,5,92.5
	c0.1,0.1-0.3,0-1-0.1c-0.8,0-1.4-0.1-2-0.2c-0.5-0.2-0.7-0.6-0.6-1.4c0.5,0,0.8,0.1,1.2,0.2c0-0.9-0.3-1.2-0.8-0.9
	c-0.5,0.3-1,0.5-1.5,0.5C0,89.8-0.1,89,0.1,88.1c0.2-0.8,0.5-1.6,0.9-2.2c0.3-0.5,0.5-1,0.6-1.6c0.1-0.6,0.5-1.1,1.3-1.4
	c0-1.1,0.4-2.2,1.2-3.3c0.8-1.2,1.4-2.2,1.8-3.1c1.1-2.2,2.2-3.8,3.5-5.1c0.2-1.7,1-3.2,2.5-4.4c0-0.8,0.2-1.5,0.7-2.1
	c0.5-0.6,0.8-1.2,1.2-1.8c0.2-0.6,0.6-1.2,1.4-1.6c0.5-0.3,0.7-0.6,0.6-0.9c-0.1-0.3,0-0.7,0.3-1.2c0.3-0.6,0.7-1.2,1-1.8
	c0.4-0.6,0.7-1.3,1-2.1c0.5-0.8,0.8-1.6,1.2-2.4c0.3-0.8,0.8-1.7,1.4-2.4c0.8-0.8,1.3-1.5,1.6-2.2c0.3-0.7,0.8-1.4,1.6-2.2
	c0.3,0.2,0.5,0.2,0.5,0c0-0.2,0.2-0.2,0.5-0.2c0-0.6-0.1-1.1-0.2-1.4c0.3-0.3,0.6-0.8,0.9-1.4c0.8-1.5,1.7-3,2.7-4.4
	c1-1.4,1.9-2.8,2.7-4.4c0.9-1.7,1.8-3.3,2.7-4.8c0.8-1.5,1.7-3.1,2.4-4.6c0.5-0.6,0.8-1.3,1.2-2c0.3-0.7,0.8-1.3,1.4-2
	c0.2-0.3,0.4-0.5,0.8-0.6c0.4-0.1,0.5-0.3,0.3-0.6c-0.2-0.6,0-1.2,0.5-1.8c1.1-1.8,2.2-3.6,3.3-5.3c1.2-1.7,2.2-3.5,3.1-5.3
	c0.3-0.6,0.8-1.2,1.5-1.8C48.7,5,49,4.4,49,4c0.2-0.8,0.5-1.5,1-2.1c0.5-0.6,1.1-1.1,1.7-1.4c1.1-0.6,1.8-0.7,2.3-0.1
	c0.5,0.5,0.7,1.3,0.8,2.3c0.1,1,0,2.1-0.2,3.2c-0.2,1.2-0.4,2-0.6,2.7c-1.2,3.7-2.1,7.3-2.5,10.9c-0.2,0.9-0.4,1.9-0.7,2.9
	c-0.3,1-0.6,2-0.9,2.9c0,1.2-0.3,2.2-0.9,3c-0.3,0.6-0.5,1.1-0.5,1.5c0,0.4-0.2,0.9-0.5,1.5c-0.3,1.4-0.7,2.9-1,4.6
	c-0.4,1.7-0.8,3.3-1.3,4.8c-0.2,0.3-0.3,0.6-0.5,0.9c-0.2,0.3-0.3,0.7-0.5,1.2c-0.2,0.5-0.2,0.9-0.1,1.4c0.1,0.5,0,0.8-0.1,1.2
	c-0.5,1.8-1,3.3-1.6,4.4c-0.3,0.8-0.7,1.3-1,1.7c-0.4,0.4-0.4,1-0.1,2c-0.3,0-0.5-0.1-0.6-0.2c-0.1-0.2-0.3-0.2-0.6,0
	c0,0.3,0.2,0.5,0.5,0.6c0.3,0.1,0.4,0.3,0.2,0.8c-0.3,0.5-0.7,0.6-1.2,0.3c-0.5-0.2-0.8-0.2-1.2,0.1c0,0.5,0.2,0.7,0.7,0.7
	s0.7,0.2,0.7,0.5c0.2,0.5,0,0.7-0.3,0.6c-0.4-0.1-0.6,0-0.6,0.3c0.5,0.3,0.8,0.4,1.2,0.3c0.3-0.1,0.4,0.3,0.2,1c0,0.6,0,1.2,0,1.6
	s0.2,0.8,0.7,1.2c0.6,0.3,1.2,0.5,1.6,0.5c0,0.6,0.2,1.2,0.7,1.6c0.3-0.3,0.7-0.4,1.2-0.3c0.5,0.1,0.5,0.3,0.2,0.8
	c0.3-0.3,0.3-0.6,0.1-0.9c-0.2-0.3-0.2-0.5,0.1-0.7c0.8,0,1.4,0,2-0.1c0.5-0.1,1.2-0.1,2-0.1c1.4,0,2.8,0,4.3,0.1
	c1.5,0.1,2.9,0,4.3-0.1c0.2,0.3,0.1,0.5-0.2,0.6c-0.3,0.1-0.4,0.3-0.2,0.6c0.3,0.6,0.7,0.7,1,0.3C59,63,59.2,62.6,59.2,62.1z
	 M1.7,86.8c0,0.5,0,0.6,0.1,0.5c0.1-0.2,0.3-0.2,0.6-0.2c0-0.5-0.1-0.6-0.2-0.5C2,86.8,1.8,86.8,1.7,86.8z M4.9,81.8
	c0,0.5,0.2,0.7,0.6,0.7c0.4,0,0.6-0.2,0.6-0.5C5.6,81.5,5.2,81.5,4.9,81.8z M5.4,87.3c-0.2,0.9,0.1,1.2,0.7,0.9
	C6.7,87.9,6.5,87.6,5.4,87.3z M6.8,80.6c0-0.6-0.2-0.9-0.7-0.9C6.4,80.3,6.6,80.6,6.8,80.6z M6.5,91.2c0.2,0,0.2-0.1,0.2-0.2
	c0-0.2-0.2-0.2-0.5-0.2C6.3,91.1,6.4,91.2,6.5,91.2z M6.5,90.1c0.5,0,0.8-0.2,1.2-0.7c-0.3-0.3-0.7-0.4-1-0.2
	C6.3,89.3,6.2,89.6,6.5,90.1z M7.9,80.6c-0.3,0.6-0.2,0.9,0.3,0.9c0.5,0,0.9-0.2,1-0.5c-0.3-0.2-0.5-0.3-0.7-0.6
	C8.5,80.3,8.2,80.3,7.9,80.6z M9.1,89.6c0.3-0.9,0-1.2-0.9-0.7C8.2,89.5,8.5,89.8,9.1,89.6z M10.2,92.1c0-0.3,0.1-0.5,0.3-0.5
	s0.2-0.2-0.1-0.5c-0.3-0.3-0.5-0.2-0.6,0.2C9.8,91.9,9.9,92.1,10.2,92.1z M10,88.2c-0.2,0.6,0,0.9,0.6,0.8c0.5-0.1,0.8-0.3,0.8-0.6
	c-0.2-0.3-0.3-0.4-0.6-0.3C10.6,88.2,10.3,88.2,10,88.2z M10.7,79.9c-0.5,0-0.7,0.2-0.7,0.7C10.5,80.6,10.7,80.4,10.7,79.9z
	 M11.6,82.7c-0.5,0-0.7,0.1-0.8,0.3c-0.1,0.2-0.2,0.5-0.3,0.8C11.2,83.8,11.6,83.5,11.6,82.7z M10.9,79.2c-0.3,0.8,0.1,1,1.2,0.7
	c0-0.3-0.1-0.6-0.3-0.8C11.5,78.9,11.2,78.9,10.9,79.2z M12.1,86.8c-0.2-0.2-0.4-0.3-0.7-0.5c-0.3-0.2-0.5,0.1-0.5,0.7
	C11.7,87.1,12.1,87,12.1,86.8z M11.4,89.8c0.8,0,1-0.3,0.7-0.9C11.5,88.9,11.2,89.2,11.4,89.8z M12.3,72.8c-0.3,0-0.5,0-0.7,0
	c-0.2,0-0.2,0.2-0.2,0.7c0.3,0.3,0.5,0.3,0.7,0.1C12.2,73.3,12.3,73.1,12.3,72.8z M12.1,147.1c0.2-0.6,0.6-0.9,1.4-0.9
	c0.5,0.5,0.7,1,0.7,1.6c-0.3-0.2-0.6-0.3-0.9-0.6C12.9,147,12.5,146.9,12.1,147.1z M12.3,73.9c0,0.3,0.2,0.5,0.6,0.5
	c0.4,0,0.5-0.2,0.3-0.5H12.3z M12.8,76c0.2,0,0.4,0.1,0.7,0.2c0.3,0.2,0.5,0,0.7-0.5c-0.3,0-0.6,0-0.8-0.1
	C13.1,75.6,12.9,75.7,12.8,76z M13,133.2c0,0.5,0.3,0.8,0.8,1.2c0.5,0.3,1,0.3,1.5,0c-0.2-0.9-0.5-1.3-0.9-1
	C13.9,133.6,13.5,133.6,13,133.2z M13.7,136.7c-0.5,1.5-0.6,2.4-0.3,2.7c0.2,0.2,0.6,0.2,1.2-0.1c0.5-0.3,1.2-0.7,2-1.2
	c0.8-0.5,1.4-0.6,1.8-0.5c-0.2-0.9-0.6-1.2-1.4-0.9c-0.8,0.3-1.4,0.5-1.8,0.7c-0.2-0.3-0.1-0.4,0.1-0.3c0.2,0.1,0.4,0,0.6-0.3
	c-0.5,0-0.7-0.2-0.6-0.6c0.1-0.4-0.1-0.5-0.6-0.3c0.3,0.6,0.3,0.9,0,0.9C14.3,136.7,14,136.7,13.7,136.7z M13.5,85.2
	c0.3,0.2,0.6,0.1,0.9-0.2c0.3-0.3,0.2-0.5-0.2-0.5C13.7,84.5,13.5,84.8,13.5,85.2z M14.2,71.8c0,0.3-0.1,0.4-0.2,0.3
	c-0.2-0.1-0.2,0,0,0.3h0.5C14.5,72.4,14.5,72.1,14.2,71.8z M14.9,80.1c0.2,0.3,0,0.5-0.5,0.5c-0.5,0-0.5,0.2-0.2,0.5
	c0.3,0,0.7-0.1,1-0.2C15.6,80.7,15.5,80.5,14.9,80.1z M14.9,78.3c0.3-0.3,0.4-0.8,0.2-1.5c-0.2-0.7-0.3-1-0.5-1
	C13.7,76.7,13.8,77.5,14.9,78.3z M14.6,125.6c-0.5,0.3-0.5,0.7-0.2,1c0.3,0.4,0.4,0.9,0.2,1.5c0.9,0,1.2-0.3,0.9-1
	C15.2,126.4,14.9,125.9,14.6,125.6z M14.6,86.8c0.6,0,0.9-0.1,0.9-0.2c0-0.2-0.1-0.3-0.2-0.5c-0.2-0.2-0.3-0.2-0.6-0.2
	C14.5,85.9,14.5,86.2,14.6,86.8z M14.6,130c0.9,0,1.1-0.2,0.6-0.6C14.7,129,14.5,129.2,14.6,130z M15.8,145.9c0-0.6-0.3-0.9-0.9-0.9
	C14.9,145.6,15.2,145.9,15.8,145.9z M15.1,83.1c-0.3,0.6-0.2,0.9,0.5,0.8c0.6-0.1,0.8-0.3,0.7-0.8H15.1z M16.5,72.8
	c-0.8,0.3-1.2,0.5-1.2,0.7c0.3,0.3,0.6,0.4,0.9,0.2C16.5,73.5,16.6,73.2,16.5,72.8z M15.3,89.4c0.2,0.3,0.4,0.5,0.8,0.7
	c0.4,0.2,0.7,0.1,0.8-0.2C16.3,89.5,15.8,89.4,15.3,89.4z M15.3,124c0.5,0,0.6-0.2,0.3-0.5C15.4,123.2,15.3,123.4,15.3,124z
	 M15.3,125.4c0.5,0,0.6-0.1,0.3-0.3C15.4,124.8,15.3,124.9,15.3,125.4z M17.4,132.3c-0.2,0.3-0.3,0.6-0.6,0.8
	c-0.2,0.2-0.4,0.5-0.6,0.8c0.5,0.2,0.9,0.3,1.3,0.6c0.4,0.2,0.8,0.3,1.3,0.3c-0.3-0.3-0.3-0.6,0-0.9c-0.6,0.2-0.9-0.1-0.8-0.7
	C18,132.6,17.9,132.3,17.4,132.3z M18.3,140.4c0-0.6-0.3-1-0.8-1.2c-0.5-0.2-1-0.1-1.3,0.2c0.3,0.3,0.6,0.5,0.9,0.5
	C17.5,139.9,17.9,140.1,18.3,140.4z M18.5,73.9c-0.5,0.2-0.7,0.5-0.6,1.2c0.1,0.6,0.1,1.1,0.1,1.4c-0.3,0.2-0.6,0.2-0.8,0.1
	c-0.2-0.1-0.5,0-0.8,0.1c0.5,0.9,1,1.1,1.7,0.5c0.7-0.6,1.1-1.2,1.3-1.6c0.2-0.3,0.2-0.7,0.1-1.3C19.5,73.7,19.2,73.6,18.5,73.9z
	 M16.9,80.6c0.6,0.2,1.2-0.2,1.7-0.9c0.5-0.8,1-1.3,1.3-1.6c0.5-0.3,0.9-0.2,1.3,0.3c0.4,0.5,0.6,1,0.6,1.5c0.5,0,0.8,0.1,1.2,0.3
	c0.3,0.2,0.7,0.3,1.2,0.3c-0.2-0.3-0.2-0.6-0.2-0.9c0-0.3-0.1-0.6-0.2-0.9c0.6,0,1.1,0.2,1.5,0.6c0.4,0.4,0.9,0.6,1.5,0.6
	c0-1.2-0.6-1.8-1.8-1.8c-1.2,0-2.2,0.2-3,0.5c0-1.1-0.2-1.7-0.6-1.7c-0.4-0.1-0.8,0.1-1.3,0.5c-0.5,0.4-0.9,0.8-1.4,1.2
	c-0.5,0.4-0.9,0.5-1.4,0.3c0,0.3,0,0.6-0.1,0.9C17,80,16.9,80.3,16.9,80.6z M19,130.5c-0.5-0.3-0.9-0.5-1.4-0.5s-0.6,0.4-0.5,1.2
	c0.3,0.3,0.6,0.3,0.8,0.1c0.2-0.2,0.5-0.1,0.8,0.3c0,0.8,0.2,1.1,0.7,0.9c-0.2-0.5-0.1-0.8,0.1-1.2C19.8,131.1,19.6,130.8,19,130.5z
	 M17.2,82.4c0,0.6,0.5,1.1,1.6,1.4C18.5,82.9,17.9,82.4,17.2,82.4z M18.3,125.2c0.5,0.6,0.7,0.6,0.8,0c0.1-0.6-0.1-0.9-0.6-0.9
	c0,0.3-0.1,0.5-0.2,0.5C18.2,124.7,18.2,124.9,18.3,125.2z M18.3,127.2c-0.2,0.6-0.1,0.8,0.1,0.5C18.7,127.4,18.6,127.2,18.3,127.2z
	 M50.4,73.2c0.2-0.5,0.1-0.7-0.1-0.8c-0.2-0.1-0.5-0.3-0.8-0.6c-0.6-0.5-0.5-1,0.5-1.6c0.3-0.3,0.1-0.7-0.7-1.3
	c-0.8-0.5-1.3-0.5-1.6,0.1c1.1,0.5,1.3,0.9,0.6,1.4c-0.7,0.5-1.1,1-1.3,1.6c-0.2-0.5-0.2-0.8,0-0.9c0.5-0.5,0.4-0.8-0.2-1.2
	c-0.2-0.3-0.1-0.7,0.2-1c0.3-0.4,0.3-0.7,0-1c1.5,0,2-0.4,1.5-1.3c-0.5-0.8-1.1-0.9-1.7-0.1c-0.3,0.3-0.5,0.8-0.5,1.5
	s-0.3,1.2-0.9,1.5c-0.3-0.3-0.4-0.7-0.3-1.2c0.1-0.5-0.1-0.7-0.6-0.7c-0.3,0.3-0.4,0.6-0.2,0.9c0.2,0.3,0.3,0.6,0.5,0.9
	c-0.2,0.6,0.2,0.8,0.9,0.7c0.3,0.9,0.4,1.6,0.2,2.1c-0.2,0.6-0.4,1.2-0.8,1.6c-0.4,0.5-0.4,0.9-0.1,1.4c0.2,0.3,0.4,0.7,0.8,1
	c0.4,0.4,0.7,0.2,0.8-0.6c0-0.3-0.2-0.8-0.5-1.4c0.2-0.3,0.4-0.6,0.7-0.9c0.3-0.9,0.8-1.4,1.4-1.4c0.3,0,0.4,0.3,0.2,0.9
	c-0.2,0.6-0.3,1.1-0.5,1.4c-0.2,0.6-0.4,1.3-0.7,2c-0.3,0.7-0.8,1-1.6,1c-0.5,0-0.8-0.1-1.2-0.2c-0.2,0.3-0.5,0.6-1.2,0.9
	c-0.2-0.2-0.6-0.5-1.4-0.9c-0.3,0.3-0.6,0.6-0.8,0.8c-0.2,0.2-0.5,0.5-0.8,0.8c-0.3-0.5-0.9-0.5-1.8-0.2c0-0.5-0.2-0.7-0.6-0.8
	c-0.4-0.1-0.7-0.3-1-0.6c-0.6-0.3-0.7-0.6-0.3-0.9c0.4-0.3,0.7-0.5,1-0.7c0.3,0.5,0.7,0.9,1.2,1.4c0.5,0.5,0.8,0.3,1.2-0.5
	c-0.3-0.3-0.6-0.4-0.8-0.2c-0.2,0.2-0.4,0.1-0.6-0.2c0.5-1.1,0.5-2.3,0.2-3.7c-0.3-0.9,0-1.2,1-0.9c1,0.3,1.5,0.8,1.5,1.6
	c-0.8-0.2-1.2-0.1-1.3,0.1c-0.1,0.2,0,0.5,0.1,0.9c0.2,0.4,0.3,0.8,0.5,1.3c0.2,0.5,0.1,0.8-0.2,1.2c0.8,0.2,1.2,0,1.3-0.5
	c0.1-0.5,0.3-0.8,0.8-1.2c0,0.8,0.3,0.9,0.9,0.5c0.6-0.5,1-0.8,1.2-0.9c-0.3-0.6-0.6-1-0.9-1.3c-0.3-0.2-0.4-0.7-0.2-1.5
	c-0.5,0-0.9,0-1.4-0.1c-0.5-0.1-0.7-0.4-0.7-1c0.2-0.3,0.5-0.6,1.2-0.9c-0.2-0.3-0.3-0.7-0.5-1c-0.2-0.4-0.2-0.7-0.2-1
	c-0.8,0.6-1.2,0.5-1.3-0.5c-0.1-0.9,0-1.2,0.3-0.9c0.3,0.3,0.7,0.2,1.2-0.2c0.3-0.8,0.4-1.2,0.2-1.3c-0.2-0.1-0.5-0.3-0.9-0.6
	c-0.2,1.2-0.5,1.6-1,1.2c-0.5-0.5-1-0.8-1.3-1.2c0.3,0.8,0.2,1.5-0.3,2.3c-0.5,0.8-1,1.5-1.3,2.1c0.8,0,1.4,0.2,1.8,0.5
	c0.5,0.3,1.1,0.5,1.8,0.7c-0.3,0.8-0.7,1.1-1.3,1c-0.5-0.1-1.1-0.2-1.6-0.5c-0.5-0.2-1.1-0.5-1.6-0.7c-0.5-0.2-1-0.1-1.3,0.3
	c0.3,0.3,0.8,0.7,1.4,1c0.6,0.4,0.5,0.8-0.2,1.3c0.3,0.3,0.5,0.6,0.7,0.9c0.2,0.3,0.3,0.6,0.3,0.8c0.1,0.2,0.2,0.4,0.3,0.6
	c-0.9,0.3-1.7,0.4-2.3,0.2c-0.3,0.2-0.4,0.4-0.2,0.7c0.2,0.3,0.1,0.5-0.2,0.7c-0.6-0.3-1.3-0.2-2,0.3c-0.7,0.5-0.9,1.2-0.6,2
	c1.1-0.3,2-0.2,2.8,0.2c0.3,0.3,0.3,0.6,0.1,0.9c-0.2,0.3-0.5,0.5-0.8,0.5c-0.3-0.3-0.7-0.6-1-0.9c-0.4-0.3-0.8-0.3-1.3,0
	c-0.2,0.8,0,1.1,0.3,1c0.4-0.1,0.7,0,1,0.1c0.3,0.2,0.3,0.5,0.1,1c-0.2,0.5-0.2,1,0.1,1.5c-0.3-0.2-0.8-0.2-1.4,0
	c-0.6,0.2-0.5,0.4,0.2,0.7c0.6,0.3,0.7,0.7,0.3,1.3c-0.4,0.5-0.8,0.8-1.3,0.8c0-0.5,0.2-0.8,0.5-1.2c-0.3-0.3-0.5-0.5-0.6-0.7
	c-0.1-0.2-0.2-0.3-0.3-0.5c-0.2-0.5-0.3-0.9-0.6-1.4c-0.2-0.5-0.6-0.8-1-1.2c0,0.8,0.1,1.3,0.3,1.6c0.2,0.3,0.5,0.8,0.8,1.4
	c0.3,0.3,0.3,0.7,0,1.3c-0.3,0.5-0.4,1.1-0.2,1.7c-0.9,0.2-1.4,0.1-1.5-0.2c-0.1-0.3-0.2-0.8-0.3-1.4c-0.5-0.3-0.8-0.2-1,0.3
	c-0.2,0.5-0.5,0.7-0.8,0.3c-0.5-0.3-0.5-0.6,0-0.9c0.5-0.3,0.8-0.5,1.2-0.5c0.9-0.3,1.3-0.9,1.2-1.8c-0.6,0.2-1.2,0.3-1.6,0.3
	c-0.5,0.1-1,0.2-1.6,0.3c-0.3,0.9-0.9,1.5-1.8,1.8c-0.8,0.3-1.2,0.3-1.3,0.1c-0.1-0.2,0-0.6,0.2-1c0.2-0.5,0.5-0.9,0.7-1.3
	c0.2-0.4,0.3-0.7,0.3-0.8c-0.3,0.3-0.8,0.2-1.5-0.3c-0.7-0.5-1-0.4-0.8,0.3c0.2,0.6,0.3,0.9,0.6,0.8c0.2-0.1,0.2,0.2-0.1,0.8
	c-0.2,0.6-0.2,1-0.2,1.3c0,0.2-0.3,0.3-0.9,0.1c-0.6-0.2-1.3-0.1-2,0.1c-0.7,0.2-1,0.7-0.8,1.5c0.2,0.3,0.6,0.6,1.3,0.8
	c0.7,0.2,1,0.7,1,1.3v0.2v-0.2c0.2-0.8,0.5-1.2,1-1.4c0.5-0.2,0.7,0.2,0.6,0.9c0.3-0.2,0.7-0.2,1.2-0.2c0.8,0,1.2-0.1,1.2-0.2
	c-0.6,0-0.9-0.2-0.8-0.6c0.1-0.4,0.3-0.7,0.6-1c0.8-0.8,1.3-0.9,1.6-0.3c0.3,0.5,0.8,0.8,1.4,0.8c0.8,0,1.4,0.2,1.8,0.7
	c0.5,0.5,0.5,1.1,0,1.8c0.3,0.2,0.5,0.4,0.7,0.7c0.2,0.3,0.4,0.4,0.7,0.2c0.2,0,0.3-0.1,0.3-0.3c0.1-0.2,0.2-0.2,0.3,0.1
	c-0.6,0.3-0.8,1.1-0.5,2.3c-1.1-0.3-1.9-0.2-2.5,0.5c-0.3-0.5-0.7-0.9-1.3-1.4c-0.5-0.5-1-0.3-1.5,0.5v0.7v0.7
	c0,0.2,0.1,0.2,0.2,0.2c0,0.3,0.1,0.6,0.2,0.9c0.2,0.5,0.3,0.7,0.5,0.7c0-0.8,0.4-1.5,1.2-2.1c0.8-0.6,1.1-0.3,0.9,0.9
	c-0.3,0-0.6,0-0.9,0c-0.3,0-0.5,0.2-0.5,0.5c0.6,0.6,1,0.9,1.2,0.8c0.2-0.1,0.6,0,1.4,0.1c0.6,0.2,1,0.2,1.2,0
	c0.2-0.2,0.4,0.1,0.7,0.7c0.8,0.5,1.8,0.5,3,0.2c0-0.8-0.2-1-0.7-0.6c-0.5,0.4-0.8,0.3-1.2-0.3c0.3,0.2,0.2-0.4-0.3-1.6
	c-0.5-1.2-0.7-2.1-0.3-2.5c0.5-0.8,0.8-1.7,0.9-2.7c0.2-1,0.7-1.7,1.6-2c-0.6,0.5-0.7,0.8-0.1,1c0.5,0.2,0.7,0.6,0.6,1
	c-1.1-0.2-1.5,0-1.2,0.6c0.3,0.5,0.8,0.9,1.6,1c0-1.1,0.3-1.7,0.9-1.8c-0.2-0.5-0.2-1-0.2-1.5c0-0.5,0.2-1,0.7-1.3
	c0.9-0.6,1.2-0.4,0.9,0.7L37.2,88c0.9-0.3,1.9-0.6,2.9-0.9c1-0.3,1.4,0.3,1.3,1.8c0.5-0.3,0.8-0.3,0.9,0.1c0.2,0.4,0.5,0.5,0.9,0.3
	l-0.7-0.7c-0.5-0.2-0.6-0.3-0.3-0.5c0.2-0.2,0.2-0.4-0.1-0.7c-0.2-0.3-0.2-0.8-0.2-1.4c0-0.6,0.2-1.1,0.5-1.4
	c0.8,0.3,1.6-0.2,2.5-1.4c0.6-0.6,1.1-1,1.4-1.2c0.2-0.5,0.2-0.9,0.2-1.3c0-0.4,0.1-0.8,0.2-1.3c0.3,0,0.3,0,0.1,0.1
	c-0.2,0.1-0.3,0.2-0.1,0.3c0.2,0.3,0.3,0.4,0.3,0.2c0.1-0.2,0-0.4-0.1-0.7l-0.5-0.9c0.2-0.5,0.5-0.8,1.2-0.9
	c0.6-0.2,1.2-0.1,1.6,0.2v-0.9c-0.3,0-0.6,0.1-0.8,0.3c-0.2,0.2-0.5,0.2-0.8-0.1c0.3-0.5,0.6-1,0.8-1.5c0.2-0.5,0.6-1,1-1.5
	c-0.3,0.5-0.2,0.7,0.2,0.7c0.2,0,0.3-0.3,0.5-0.8C50.3,73.7,50.4,73.4,50.4,73.2z M20.4,135.5c0.3-0.8,0.2-1-0.5-0.8
	c-0.6,0.2-1.1,0.3-1.4,0.3c0,0.5,0.2,0.7,0.7,0.8C19.7,136,20.1,135.9,20.4,135.5z M19.2,117.8c0.3-0.3,0.4-0.7,0.3-1.2
	c-0.1-0.5-0.3-0.7-0.8-0.7c0.2,0.3,0.2,0.6,0.1,0.9C18.8,117.2,18.9,117.5,19.2,117.8z M19,134.2c0.5,0,0.6-0.1,0.3-0.3
	C19.1,133.6,19,133.7,19,134.2z M23.2,71.6c-1.1-0.3-2.1-0.3-3,0c-0.2,0.5-0.3,1.1-0.5,1.8c-0.2,0.8,0.3,0.8,1.4,0.2
	c0.9-0.6,1.5-0.7,1.7-0.1c0.2,0.5,0.7,0.9,1.5,1c-0.3-0.6-0.7-1.1-1-1.4C22.9,72.9,22.9,72.4,23.2,71.6z M20.4,56.1
	c0.3-0.3,0.3-0.6,0-0.8c-0.3-0.2-0.5-0.1-0.7,0.3C20,56,20.2,56.1,20.4,56.1z M21.3,82.7c-0.5-0.2-0.8-0.1-1.2,0.1
	c-0.3,0.2-0.3,0.5,0,0.8C20.9,83.3,21.3,83,21.3,82.7z M20.9,109.5c-0.5,0-0.7,0.2-0.7,0.7C20.9,110.5,21.2,110.2,20.9,109.5z
	 M20.2,113.8c0.6,0.6,0.9,0.4,0.9-0.7c-0.3-0.2-0.5-0.1-0.5,0.1C20.6,113.5,20.5,113.7,20.2,113.8z M27.6,118.2
	c0.3-0.5,0.3-0.7,0.1-0.8c-0.2-0.1-0.5-0.3-0.8-0.8c-0.8-0.8-1.5-0.8-2.2-0.1c-0.7,0.7-1.4,0.7-2.2-0.1c-0.2,0.3-0.4,0.7-0.7,1.2
	c-0.3,0.5-0.7,0.6-1.2,0.5c0.2,0.5,0.4,0.7,0.8,0.8c0.4,0.1,0.7,0.3,0.8,0.8c-0.6,0.2-1.2,0.5-1.7,0.9c-0.5,0.5-0.3,0.8,0.6,1.2
	c0.3,0.2,0.8,0.3,1.4,0.5c0.6,0.2,0.8,0.5,0.5,1.2c-0.3,0-0.4-0.1-0.3-0.3c0.1-0.2,0-0.3-0.1-0.3c-0.3,0.6-0.7,0.9-1,0.8
	c-0.4-0.1-0.7-0.1-1-0.1c0,0.5,0.3,0.8,1,1.2c0.7,0.3,1.2,0.3,1.5,0c0.8-0.8,1.3-1.6,1.6-2.5c0.3-0.9,0.9-1.6,1.8-2.1
	c0.3-0.2,0.5-0.4,0.6-0.7C27,118.9,27.2,118.5,27.6,118.2z M20.4,81.8c-0.2,0.3-0.1,0.5,0.1,0.7c0.2,0.2,0.3,0.1,0.3-0.2
	c-0.2,0-0.2-0.1-0.2-0.2C20.6,81.8,20.5,81.8,20.4,81.8z M21.5,103c-0.3,0-0.6,0.3-0.9,1c-0.3,0.7-0.4,1.3-0.2,1.7
	c0.6,0,1-0.3,1.2-0.9C21.7,104.2,21.7,103.6,21.5,103z M20.6,85.5c0.3,0.2,0.7,0.3,1,0.3c0.4,0.1,0.5,0.3,0.3,0.8
	c-0.6-0.2-0.9-0.3-0.9-0.5C21.1,86,20.9,85.8,20.6,85.5z M21.8,66.5c-0.6,0-0.9,0.4-0.9,1.2C21.5,67.7,21.8,67.3,21.8,66.5z
	 M20.9,76c0.5,0.2,0.7,0.5,0.7,1.2c0.9,0,1.7-0.7,2.3-2.1c-0.3,0.3-0.6,0.3-0.8,0c-0.2-0.3-0.5-0.5-0.8-0.5c-0.3,0.3-0.3,0.5,0,0.6
	c0.3,0.1,0.3,0.2,0,0.3C21.8,75.1,21.3,75.2,20.9,76z M22,116.2c0-0.5-0.2-0.7-0.5-0.7c-0.3,0.2-0.4,0.3-0.2,0.6
	C21.5,116.3,21.7,116.3,22,116.2z M21.5,133.2c-0.3,0.3-0.4,0.5-0.2,0.7c0.2,0.2,0.2,0.4,0.2,0.7c0.6,0.2,0.9,0,0.8-0.6
	C22.3,133.5,22,133.2,21.5,133.2z M27.8,103c-0.2,1.2-0.9,1.7-2.2,1.5c-1.3-0.2-2.3-0.5-3.1-0.8c0,0.9-0.3,2-0.9,3.2
	c0.3-0.3,0.8-0.5,1.5-0.6c0.7-0.1,1-0.5,0.8-1.3c0.3,0.3,0.7,0.4,1.2,0.3c0.5-0.1,0.8-0.1,1.2-0.1c0,0.3,0.3,0.8,0.9,1.4
	c0.6,0.6,0.9,1.2,0.9,1.6c0.3,0.2,0.5,0.2,0.5,0c0-0.2,0.2-0.2,0.5-0.2c-0.5-0.5-0.7-1-0.8-1.7c-0.1-0.7-0.3-1.3-0.6-2
	c0.2-0.3,0.5-0.5,1.2-0.5C28.7,103.2,28.4,102.8,27.8,103z M23.4,109.7c0.9-1.1,1.1-1.7,0.6-1.8c-0.5-0.2-1.2-0.2-2,0
	c0,0.3,0,0.9,0.1,1.7C22.2,110.4,22.6,110.5,23.4,109.7z M22,114.5c0.5,0.8,0.9,1.1,1.4,0.9c0.5-0.2,0.8-0.4,1-0.7
	c0.2-0.3,0.3-0.7,0.2-1.2c-0.1-0.5-0.5-0.7-1.3-0.7c0.2,0.6,0,0.9-0.6,0.9C22.3,113.8,22,114.1,22,114.5z M23.2,66.5
	c0.3-0.3,0.3-0.6,0-0.8c-0.3-0.2-0.6-0.1-0.9,0.3c0.5,0.6,0.7,0.9,0.8,0.8c0.1-0.1,0.2,0.3,0.3,1c0,0.6,0.2,1.2,0.5,1.6
	c0.3,0.5,0.5,1,0.5,1.6c-0.3-0.3-0.5-0.3-0.7,0.1c-0.2,0.4-0.2,0.7-0.2,0.8c0.3,0,0.6-0.1,0.9-0.2c0.3-0.2,0.4-0.4,0.2-0.7
	c-0.3-0.6-0.3-0.9,0-0.9c0.3,0,0.6-0.2,0.9-0.7c0.5-0.8,0.5-1.1,0-0.9c-0.5,0.2-0.8,0.1-0.9-0.2c0-0.3,0.2-0.5,0.5-0.6
	c0.3-0.1,0.5-0.4,0.7-1c0.2,0.5,0.3,0.9,0.3,1.4c0.1,0.5,0.4,0.7,1,0.7c-0.3-0.6-0.3-1,0-1.2c0.3-0.2,0.5-0.5,0.5-0.9
	c-0.2-1.7-0.7-2.2-1.7-1.6C24.8,65.8,23.9,66.2,23.2,66.5z M26.4,117.3c-0.2,0.3-0.4,0.5-0.7,0.6c-0.3,0.1-0.6,0.3-0.9,0.6
	c-0.5,0.3-0.7,0.6-0.8,0.9c-0.1,0.3-0.6,0.5-1.5,0.7c0.9-0.9,1.5-1.6,1.8-2.1c0.5-0.6,0.8-0.8,0.9-0.6
	C25.4,117.7,25.8,117.6,26.4,117.3z M22.7,64.2c0,0.5,0.2,0.7,0.6,0.6c0.4-0.1,0.5-0.3,0.3-0.8c-0.3,0-0.5,0-0.6,0.1
	C23,64.2,22.9,64.2,22.7,64.2z M23.2,95.1c0.5,0,0.7-0.3,0.7-0.9c-0.3,0-0.6,0.1-0.8,0.2C22.8,94.6,22.9,94.8,23.2,95.1z M23.2,61
	c-0.2,0.3-0.1,0.5,0.2,0.6c0.3,0.1,0.5,0,0.5-0.3c-0.2,0-0.2,0-0.2-0.1C23.6,61,23.5,61,23.2,61z M23.2,56.8c-0.2,0.3,0,0.5,0.6,0.5
	c0.5,0,0.8-0.2,0.8-0.5C23.9,56.5,23.5,56.5,23.2,56.8z M26.6,95.1c-0.3,0.3-0.4,0.6-0.2,0.9c0.2,0.3,0.2,0.7,0.2,1.2
	c-0.5,0.3-0.8,0.8-0.9,1.5c-0.2,0.7-0.5,1.2-1.2,1.5c0.3-1.2-0.1-1.8-1.2-1.8c0,0.3,0,0.7,0.1,1.3c0.1,0.5,0,1-0.3,1.3
	c0.6,0.6,1.1,0.8,1.5,0.5c0.4-0.3,0.9-0.5,1.5-0.7c0.3,0.3,0.4,0.7,0.3,1.2c-0.1,0.5,0,0.6,0.3,0.5c0.5-0.2,0.9-0.3,1.3-0.3
	c0.4-0.1,0.7,0.2,1,0.8c0-0.6,0.2-1.1,0.7-1.4c0.5-0.3,0.2-0.6-0.9-0.9c-0.5-0.2-1-0.2-1.5-0.2c-0.5,0-1-0.3-1.3-0.9
	c0.3-0.3,0.7-0.3,1-0.1c0.4,0.2,0.7,0.3,1,0.1c-0.3-0.3-0.6-0.7-0.9-1c-0.3-0.4-0.2-0.7,0.2-1c0.6-0.3,0.7-0.7,0.2-1.3
	C27.3,95.4,26.9,95.1,26.6,95.1z M25.9,97.5c-0.3-0.3-0.6-0.7-0.8-1.2c-0.2-0.5-0.7-0.8-1.3-0.9c0,0.3-0.1,0.6-0.2,0.9
	c-0.2,0.3-0.2,0.6,0,0.9c0.3,0.5,0.7,0.6,1.2,0.3C25.2,97.3,25.6,97.3,25.9,97.5z M24.5,106c-0.6-0.2-0.8,0.2-0.5,0.9
	C24.5,106.9,24.7,106.6,24.5,106z M26.4,61.9c-0.3-0.5-0.6-1.1-0.8-1.8c-0.2-0.8-0.7-1.1-1.3-0.9c-0.3,0.6-0.2,1.1,0.2,1.4
	c0.5,0.3,0.4,0.8-0.2,1.4c0.6-0.3,1.1-0.3,1.4,0.1c0.3,0.4,0.8,0.6,1.4,0.6c0.3-0.6,0.8-1,1.6-1c0.8-0.1,1.4-0.5,1.8-1.3
	c-0.8,0.2-1.2,0-1.4-0.6c-0.2-0.5-0.5-1-1.2-1.3c0,0.3-0.1,0.5-0.3,0.6c-0.2,0.1-0.3,0.3-0.1,0.6c0.6,0.8,0.7,1.2,0.2,1.4
	C27.3,61.1,26.9,61.4,26.4,61.9z M25.7,74.1c-0.2,0-0.4-0.2-0.7-0.5c0,0.2-0.2,0.4-0.5,0.7c0.2-0.2,0.4-0.2,0.7,0
	C25.5,74.5,25.7,74.4,25.7,74.1z M25.7,82c-0.2-0.6-0.5-0.9-1.2-0.9V82C24.9,82.3,25.2,82.3,25.7,82z M28.2,88.2
	c-0.6,0.2-1.1,0-1.5-0.6c-0.4-0.5-0.5-0.1-0.3,1.3c-0.3,0.3-0.6,0.4-0.9,0.2c-0.3-0.2-0.6-0.1-0.9,0.2c0.6,0.3,1.4,0.6,2.3,0.9
	c0.9,0.2,1.3,0,1.3-0.5C28,89.4,28.1,88.8,28.2,88.2z M25.9,64c0-1.1-0.4-1.6-1.2-1.6c0.2,0.3,0.3,0.7,0.3,1
	C25.2,63.8,25.5,64,25.9,64z M28,111.8c0.5-0.6,0.6-1.1,0.3-1.5c-0.2-0.4-0.5-0.7-0.9-0.9c-0.4-0.2-0.8-0.5-1.2-0.7
	c-0.4-0.2-0.5-0.6-0.3-1c-0.8,0-1.1,0.6-0.9,1.7c0.2,1.2,0.4,2,0.7,2.4c0.3,0,0.7-0.1,1.3-0.3C27.5,111.2,27.9,111.3,28,111.8z
	 M25.5,73.4c0.3,0,0.7,0,1.2-0.1c0.5-0.1,0.7-0.4,0.7-1c-0.5,0-0.7-0.1-0.7-0.2c0-0.2,0-0.5,0-0.9c-0.6,0-1.1,0.3-1.4,0.8
	C24.9,72.5,25,73,25.5,73.4z M25.9,118.2v0.9c1.1,0.2,1.4,0.1,0.9-0.2C26.4,118.6,26.1,118.4,25.9,118.2z M27.3,115.2
	c-0.6,0-0.8,0.2-0.7,0.7c0.2,0.2,0.3,0.2,0.5,0C27.2,115.8,27.3,115.5,27.3,115.2z M27.1,82c-0.3,0-0.5,0.1-0.5,0.2l0.5,0.5V82z
	 M27.3,124.2l-0.2,0.5c0.3,0,0.5-0.1,0.6-0.2C27.7,124.3,27.6,124.2,27.3,124.2z M28.2,68.6c-0.2,0.5-0.4,0.8-0.7,1
	c-0.3,0.2-0.4,0.6-0.2,1c0.5,0,0.7,0,0.7-0.1c0-0.1,0.2-0.3,0.5-0.8C28.8,69.1,28.7,68.8,28.2,68.6z M27.3,63.5
	c0.3,0.5,0.6,0.9,0.8,1.3c0.2,0.4,0.4,0.7,0.6,1c0-0.8,0-1.4-0.1-1.8C28.5,63.5,28.1,63.4,27.3,63.5z M29.9,76.2
	c0.2-0.2,0.1-0.4-0.2-0.7c-0.3-0.3-0.6-0.5-0.9-0.6c-0.3-0.1-0.6,0-0.9,0.1c-0.3,0.2-0.4,0.5-0.2,1.2c0.3-0.2,0.7-0.1,1.3,0.2
	C29.4,76.8,29.7,76.7,29.9,76.2z M30.6,77.6c-0.5-0.3-1-0.2-1.5,0.5c-0.5,0.6-0.7,1.2-0.6,1.6c0.3-0.2,0.9-0.4,1.8-0.8
	C31.2,78.5,31.3,78.1,30.6,77.6z M33.3,110.6c0-0.6-0.1-1-0.2-1c-0.2-0.1-0.4-0.1-0.8,0c-0.4,0.1-0.7,0.2-1,0.5
	c-0.3,0.2-0.5,0.4-0.7,0.6c-0.5-0.2-0.8-0.3-0.9-0.5c-0.2-0.2-0.4-0.1-0.7,0.2c-0.6,0.6-0.5,1,0.2,1.2c0.5,0,0.9-0.1,1.3-0.2
	c0.4-0.2,0.7-0.1,1,0.2c0.2-0.5,0.4-0.8,0.8-1C32.7,110.3,33,110.3,33.3,110.6z M28.7,115.9c-0.2,0.3-0.2,0.6-0.1,0.9
	c0.1,0.3,0.3,0.4,0.6,0.2C29.6,116.6,29.5,116.2,28.7,115.9z M28.7,118.9c0.6,0.3,1.1,0.3,1.4-0.1c0.3-0.4,0.6-0.7,0.9-1
	C29.8,117.8,29,118.2,28.7,118.9z M28.9,71.4c0,0.3,0.2,0.5,0.6,0.5c0.4,0,0.5-0.2,0.3-0.5H28.9z M31.5,107.6
	c0.3-0.3,0.7-0.8,1.2-1.4c0.3-0.3,0.6-0.7,0.8-1.2c0.2-0.5,0.3-0.8,0.3-1.2c-0.2-0.3-0.7-0.6-1.6-0.9c-0.9-0.3-1.5-0.3-1.8,0
	c0.9,0.3,1.1,1,0.6,2.2c-0.5,1.2-1.2,1.9-2,2.2c0.9-0.2,1.5,0,1.8,0.5c0.2-0.3,0.2-0.6,0-0.9c-0.2-0.3,0-0.5,0.5-0.7
	c0.5,0.3,0.6,0.5,0.3,0.7C31.4,107.1,31.3,107.3,31.5,107.6z M29.9,95.6c-0.2,0.3-0.3,0.5-0.6,0.6c-0.2,0.1-0.3,0.3-0.1,0.8
	c0.3,0,0.6-0.2,0.8-0.6C30.2,96,30.2,95.8,29.9,95.6z M29.4,92.4c0.3,0,0.5,0.2,0.5,0.7v0.7c-0.5-0.3-0.6-0.5-0.5-0.7
	C29.5,92.9,29.5,92.7,29.4,92.4z M29.6,64.7c0.9-0.2,1.4-0.8,1.4-1.8C30.4,63,29.9,63.6,29.6,64.7z M32.6,100.5
	c0.3,0.3,0.8,0.5,1.6,0.5c0-0.6-0.3-1-0.8-1.2c-0.5-0.2-0.7-0.6-0.6-1.4c-0.6,0-0.9,0.2-0.8,0.7c0.1,0.5,0,0.7-0.3,0.7
	c-0.3-0.8-0.5-1.3-0.6-1.5c-0.1-0.2,0.4-0.5,1.5-0.8c0-0.5-0.2-0.7-0.7-0.6c-0.5,0.1-0.8,0-1.2-0.3c-0.3,0.5-0.6,0.9-0.8,1.3
	c-0.2,0.4-0.3,0.9-0.1,1.5c0.5,0,0.8,0.2,0.9,0.5c0.2,0.3,0.3,0.7,0.3,1c0.1,0.4,0.2,0.6,0.3,0.7C31.6,101.6,32,101.2,32.6,100.5z
	 M30.1,74.1c0.9-0.3,1.3-0.9,1.2-1.8C30.2,72.3,29.8,72.9,30.1,74.1z M30.8,49.9c-0.2,0.3-0.3,0.5-0.5,0.5c-0.2,0-0.2,0.2,0,0.5
	c0,0.2,0.4,0.4,1.3,0.8c0.8,0.4,1,0.7,0.3,1c-0.8,0.3-0.8,0.6-0.2,0.8c0.6,0.2,1,0.4,1.2,0.6c-0.3-0.6-0.3-1.1,0.1-1.4
	c0.4-0.3,0.8-0.6,1.3-0.9C33,51.6,31.9,51,30.8,49.9z M31.9,70c0.3-0.5,0.4-0.9,0.2-1.4c-0.2-0.5-0.1-0.9,0.2-1.4
	c0.3-0.5,0.7-0.5,1.2-0.1c0.5,0.4,0.9,0.6,1.4,0.6c-0.3-0.8-0.9-1.3-1.7-1.7c-0.8-0.4-1.6-0.3-2.2,0.3c0,0.6,0.1,1.1,0.2,1.5
	c0.2,0.4,0.1,0.8-0.2,1.3c-0.2,0.3-0.1,0.7,0.1,1C31.4,70.5,31.6,70.4,31.9,70z M32.6,39c-0.3-0.2-0.7-0.2-1.2-0.2s-0.5,0.2,0,0.7
	C31.8,39.7,32.2,39.5,32.6,39z M31.9,87.1c-0.5,0.2-0.7,0.1-0.6-0.2c0.1-0.3,0.3-0.3,0.6,0V87.1z M31.5,104.6c0-0.2,0.2-0.2,0.7-0.2
	c-0.2,0.2-0.2,0.4-0.2,0.7v0.5c-0.2-0.2-0.2-0.3-0.2-0.6C31.7,104.7,31.6,104.6,31.5,104.6z M33.3,59.8c0-0.5-0.2-0.7-0.5-0.7
	C32.4,59.9,32.6,60.1,33.3,59.8z M34.9,94.7c0.3-0.3,0.6-0.3,0.9-0.1c0.3,0.2,0.6,0.2,0.9-0.1c-0.3-0.2-0.7-0.6-1-1.3
	c-0.4-0.7-0.7-1.3-1-1.7c-0.3-0.5-0.7-0.8-1-0.9c-0.4-0.2-0.7,0.2-1,1.2c0.3,0.2,0.8,0.2,1.6,0.2L34.9,94.7z M32.9,57.5
	c0,0.3,0.2,0.6,0.6,0.9c0.4,0.3,0.8,0.3,1.3,0c0-0.5-0.2-0.8-0.7-1C33.6,57.2,33.2,57.2,32.9,57.5z M35.4,61.9
	c0.9-0.2,1.5-0.8,1.8-2.1c-0.5-0.3-1-0.4-1.5-0.3c-0.5,0.1-1,0.2-1.5,0.3c-0.3,0.3-0.3,0.7,0,1.2c-0.6,0.3-1.1,0.6-1.4,0.9
	c0.5,0,0.8,0.2,1,0.5c0.2,0.3,0.6,0.5,1,0.5c0.2-0.3,0.2-0.7,0.2-1.2c0-0.3-0.2-0.5-0.5-0.5c-0.3,0-0.4-0.2-0.2-0.7
	c0.3,0.2,0.5,0,0.6-0.3c0.1-0.4,0.3-0.5,0.6-0.3c0.2,0.3,0.2,0.7,0,1C35.5,61.2,35.4,61.6,35.4,61.9z M33.3,77.6
	c-0.3-0.2-0.3-0.3-0.1-0.5c0.2-0.2,0.5-0.2,0.8,0c0,0.2-0.1,0.2-0.3,0.2C33.4,77.4,33.3,77.5,33.3,77.6z M36.1,49.4
	c-0.3,0.5-0.8,0.6-1.5,0.5c-0.7-0.2-1.2,0-1.5,0.5c0.2,0.3,0.4,0.5,0.8,0.5c0.4,0,0.7,0,1,0c0.5,0,0.8,0.1,1,0.3
	c0.2,0.2,0.6,0.4,1,0.6c0.8,0.2,0.8-0.4,0.2-1.6c-0.6-1.2-1.1-1.8-1.4-1.8C35.9,48.7,35.9,49.1,36.1,49.4z M33.3,97.7
	c0.3,0.5,0.7,0.5,1.3,0c0.5-0.5,0.5-0.8-0.1-1.2L33.3,97.7z M33.6,72.5c0.9,0.3,1.5,0.1,1.7-0.6c0.2-0.7-0.1-1.2-1-1.5
	c0,0.5-0.1,0.8-0.3,1.2C33.7,71.9,33.6,72.2,33.6,72.5z M34.7,73.9c-0.3,0-0.5,0-0.5-0.1c0-0.1-0.2-0.1-0.5-0.1
	c-0.2,0.3-0.1,0.5,0.2,0.6C34.3,74.3,34.6,74.2,34.7,73.9z M37.2,80.8c0.5,0,0.8,0.2,1,0.6c0.2,0.4,0.2,0.7-0.1,1
	c-0.3,0-0.6-0.1-0.8-0.2c-0.2-0.2-0.5-0.2-0.8,0c-0.3,0.5-0.2,0.7,0.2,0.8c0.5,0.1,0.6,0.3,0.5,0.8c-0.3,0.3-0.7,0.4-1.2,0.3
	c-0.5-0.1-0.8-0.2-1.2-0.3c0,0.5,0.2,1,0.6,1.5c0.4,0.5,0,0.8-1,0.8c-0.3-0.6-0.4-1.2-0.2-1.7c0.2-0.5,0.1-1.1-0.2-1.7
	c0.6-0.2,1.1,0,1.5,0.3c0.4,0.4,0.6,0,0.6-1c0.5,0.2,0.7,0.1,0.7-0.2C36.8,81.5,36.9,81.1,37.2,80.8z M37.7,106
	c0.2-0.5,0.4-1,0.8-1.5c0.4-0.5,0.2-1-0.6-1.3c-0.2,0-0.5,0.3-1.2,0.9c-0.6,0.6-1.1,0.4-1.4-0.7c0.3,0,0.5-0.2,0.5-0.6
	c0-0.4-0.1-0.7-0.2-0.8c-0.6,0.2-1.2,0.6-1.6,1.4c0.5,0,0.8,0.2,1,0.5c0.2,0.3,0.5,0.6,0.7,0.9c0.2,0.3,0.5,0.6,0.7,0.9
	C36.7,106.1,37.1,106.2,37.7,106z M34.2,68.6c-0.3,0.3-0.3,0.5,0.1,0.6c0.4,0.1,0.6,0,0.6-0.3c-0.3,0-0.5,0-0.5-0.1
	C34.5,68.6,34.4,68.6,34.2,68.6z M34.7,76.4c0.6,0,0.8,0.4,0.7,1.2C34.6,77.9,34.4,77.5,34.7,76.4z M34.9,64
	c-0.3,0.6-0.2,0.9,0.5,0.8c0.6-0.1,0.8-0.4,0.5-1C35.6,63.6,35.2,63.7,34.9,64z M35.2,51.7c-0.5,0.8-0.5,1.2,0,1.4
	c0.2-0.2,0.3-0.3,0.3-0.5c0.1-0.2,0.2-0.3,0.3-0.5C35.7,52.2,35.5,52.1,35.2,51.7z M37.5,99.5c1.1,0,1.8-0.3,2.2-0.8
	c0.4-0.5,0.1-1.3-0.8-2.2c-0.3-0.3-0.4-0.6-0.2-0.9c0.2-0.3,0.1-0.6-0.2-0.9c-0.2-0.2-0.4,0-0.7,0.6c-0.3,0.5-0.6,0.8-0.9,0.8
	c-0.3,0.5-0.2,1,0.2,1.6c0.5,0.6,0.3,1.1-0.5,1.4c-0.6,0.3-0.7,0.8-0.2,1.5c0.5,0.7,0.9,1.2,1.4,1.5c0.2-0.3,0.2-0.6,0.2-0.9
	c0-0.3,0.2-0.6,0.5-0.9C37.9,100.2,37.6,100,37.5,99.5z M36.6,79.4c-0.5-0.2-0.6-0.3-0.5-0.6c0.2-0.2,0.3-0.4,0.5-0.6
	c0.3,0,0.5,0.1,0.5,0.2C37,78.8,36.9,79.1,36.6,79.4z M37.7,44.6c-0.3,0.3-0.7,0.7-1,1c-0.4,0.4-0.4,0.9-0.1,1.5
	c0.5-0.3,0.8-0.4,1.2-0.3c0.3,0.1,0.8,0.2,1.4,0.3C38.8,45.7,38.3,44.9,37.7,44.6z M37,90.1c0.2,0.5,0.4,0.7,0.8,0.8
	c0.4,0.1,0.3,0.4-0.1,1c-0.5,0.5-0.4,0.9,0.1,1.4c0.5,0.5,1,0.5,1.5,0c0.3-0.3,0.4-0.7,0.2-1.3c-0.2-0.5-0.2-1-0.2-1.3
	c0-0.9-0.3-1.3-0.9-1.3c-0.6,0.1-1.1-0.3-1.4-1c0,0.3,0,0.6-0.1,0.8C36.8,89.5,36.9,89.8,37,90.1z M37,108.3c0,0.2,0.2,0.2,0.5,0.2
	c0-0.3-0.2-0.5-0.5-0.7V108.3z M38.4,58.9c0-0.2-0.2-0.4-0.5-0.7C37.6,58.8,37.8,59.1,38.4,58.9z M38.2,48.3c0.2,0,0.3,0,0.3,0.1
	c0.1,0.1,0.3,0.1,0.6,0.1c0-0.3-0.2-0.5-0.5-0.6C38.3,47.9,38.2,48,38.2,48.3z M39.6,82.7c0.3,0.3,0.4,0.7,0.3,1.2
	c-0.1,0.5-0.4,0.7-1,0.7c-0.3-0.3-0.5-0.8-0.5-1.4C38.4,82.5,38.8,82.4,39.6,82.7z M38.6,27c-0.3,0.5-0.2,0.6,0.2,0.5
	c0.5-0.2,0.5-0.4,0.2-0.7L38.6,27z M39.6,43c0.3-0.3,0.3-0.7,0.1-1.2c-0.2-0.5-0.5-0.7-0.8-0.7c-0.2,0.5-0.1,0.8,0.1,1
	C39.2,42.4,39.4,42.7,39.6,43z M40.5,44.6c0.2-0.6-0.2-1.1-1.2-1.4C39.6,44,40,44.4,40.5,44.6z M39.8,85c0.9,0.6,1,0.9,0.3,0.9
	C39.4,85.9,39.3,85.6,39.8,85z M39.8,46.9c0.3,0.2,0.6,0.2,0.8,0.1c0.2-0.1,0.4-0.1,0.6-0.1c0.2-0.6,0-0.8-0.5-0.7
	C40.2,46.4,39.9,46.6,39.8,46.9z M40,99.3c0,0.6,0.2,0.8,0.6,0.7c0.4-0.2,0.6-0.4,0.6-0.7C40.7,99.2,40.3,99.2,40,99.3z M40.2,95.6
	c0.6,0,1.3-0.6,2.2-1.7c0.8-1.2,1-2,0.6-2.4c-0.2,0.3-0.6,0.5-1.3,0.6c-0.7,0.1-1,0.2-1,0.3c0.8,0,0.8,0.5,0.1,1.4
	C40.1,94.7,39.9,95.3,40.2,95.6z M40.9,38.1c-0.8-0.2-1,0.1-0.7,0.7C40.7,38.8,40.9,38.6,40.9,38.1z M40.9,102.5
	c0.2-0.6-0.1-0.8-0.7-0.7C40.2,102.3,40.5,102.5,40.9,102.5z M41.9,79.9c-0.3,0.5-0.8,0.7-1.4,0.7c0-0.3,0.2-0.6,0.6-0.9
	C41.4,79.4,41.7,79.4,41.9,79.9z M40.7,19.7c-0.2,0.5,0.2,0.7,0.9,0.7C41.8,19.9,41.5,19.7,40.7,19.7z M40.9,41.8
	c-0.2,0.5,0,0.7,0.6,0.7c0.5,0,0.7-0.3,0.3-0.9C41.4,41.6,41.1,41.7,40.9,41.8z M40.9,74.4c0.2-0.3,0.4-0.5,0.7-0.7
	c0.3-0.2,0.6-0.4,0.9-0.7c0.3,0.5,0.2,0.8-0.2,1.2C41.9,74.4,41.4,74.5,40.9,74.4z M43,82c0.8-0.2,0.8,0.2,0.2,1.2l-0.9,1.4
	c-1.1,0.2-1.4-0.2-1-1.2C41.7,82.4,42.2,82,43,82z M42.6,39.3c-0.3,0-0.6,0.1-0.9,0.3c-0.3,0.2-0.3,0.5,0,0.8
	c0.2-0.3,0.4-0.5,0.7-0.5C42.6,40,42.7,39.7,42.6,39.3z M41.9,97c0-0.3,0.1-0.4,0.3-0.3c0.2,0.1,0.3,0,0.3-0.3
	c-0.3-0.2-0.7-0.2-1.2-0.2C41.4,96.5,41.6,96.8,41.9,97z M43.5,79.9c0.6,0.2,0.9,0.4,0.9,0.7c0,0.3-0.2,0.5-0.7,0.7
	c-0.5,0.2-0.7,0-0.7-0.6C43,80.2,43.2,79.9,43.5,79.9z M43.5,91.7c0.3,0,0.5-0.2,0.7-0.6c0.2-0.4,0.1-0.7-0.2-0.8
	c0,0.3-0.1,0.5-0.3,0.6C43.4,91,43.3,91.2,43.5,91.7z M45.6,88c0-0.5,0-0.8,0.1-1.2c0.1-0.3,0.1-0.6,0.1-0.9
	c-0.3-0.3-0.6-0.3-0.9,0.1c-0.3,0.4-0.6,0.5-0.9,0.3c0,0.6,0.1,1,0.3,1C44.5,87.5,44.9,87.7,45.6,88z M43.9,93.5
	c0.5,0.2,0.6,0.3,0.3,0.6c-0.2,0.2,0,0.3,0.6,0.3c0-0.3-0.1-0.6-0.3-0.9C44.3,93.2,44.1,93.2,43.9,93.5z M44.4,88.5
	c-0.5,0.5-0.4,0.7,0.2,0.7C45.1,88.7,45,88.5,44.4,88.5z M44.9,64.7c-0.3,0.6-0.2,0.9,0.5,0.9c-0.2-0.3-0.2-0.6-0.1-0.8
	C45.3,64.6,45.2,64.5,44.9,64.7z M45.1,79.2l0.2-0.5c0,0.2,0.1,0.2,0.2,0.2c0,0.2-0.1,0.3-0.2,0.5L45.1,79.2z M46.3,65.4
	c0.5,0,0.7-0.1,0.8-0.2c0.1-0.2,0-0.3-0.1-0.3c-0.2-0.1-0.3-0.1-0.6-0.1C46.1,64.7,46.1,64.9,46.3,65.4z M47.4,25.9
	c-0.5,0.5-0.4,0.7,0.2,0.7C48.1,26.1,48,25.9,47.4,25.9z M49.5,86.6c0.2-0.5,0.1-0.8-0.2-1.2c-0.3-0.3-0.6-0.3-0.9,0
	C48.3,85.9,48.7,86.3,49.5,86.6z M48.6,65.6c0.5-0.5,0.9-0.5,1.3,0c0.4,0.5,0.8,0.5,1.3,0.2c-0.3-0.3-0.6-0.9-0.8-1.8
	c-0.2-0.9-0.4-1.4-0.6-1.4c-0.2,0.5-0.4,0.9-0.8,1.4C48.5,64.4,48.4,65,48.6,65.6z M49.7,76.4c0-0.3,0-0.5,0.1-0.6
	c0.1-0.1,0-0.2-0.3-0.3c0.2,0.2,0.2,0.3,0.1,0.5C49.5,76.1,49.6,76.3,49.7,76.4z M50.6,72.8c0.6,0.3,0.9,0.2,0.9-0.5
	C50.9,71.8,50.6,72,50.6,72.8z M51.1,74.1c-0.2,0.3-0.1,0.5,0.1,0.7c0.2,0.2,0.3,0.1,0.3-0.2c-0.3,0.2-0.4,0-0.2-0.3
	C51.5,73.9,51.4,73.8,51.1,74.1z M51.3,68.1c0.3,0.3,0.8,0.4,1.5,0.2c0.7-0.2,1-0.7,0.8-1.6C52.4,66.4,51.6,66.9,51.3,68.1z
	 M53.4,75.8c0-0.9-0.2-1.3-0.7-1c-0.5,0.2-0.8,0.7-0.9,1.5c0.3,0,0.6,0.1,0.9,0.3C53,76.8,53.3,76.5,53.4,75.8z M52.5,79.2
	c-0.2,0.3-0.1,0.5,0.2,0.6c0.3,0.1,0.5,0,0.5-0.3c-0.2,0-0.3,0-0.3-0.1C52.8,79.3,52.6,79.2,52.5,79.2z M55.7,71.4
	c0.9-0.3,1.5-0.7,1.8-1.2c-0.8,0-1.4-0.1-1.8-0.2C55.4,70.4,55.4,70.9,55.7,71.4z M58.7,64.9c0.2-0.2,0.2-0.3,0.2-0.5
	c0-0.2-0.1-0.3-0.2-0.5c0.2,0.3,0.1,0.5-0.1,0.6C58.4,64.6,58.4,64.8,58.7,64.9z M58.9,68.1c0.3,0,0.6-0.5,0.9-1.4
	C58.9,66.8,58.6,67.2,58.9,68.1z M61.5,65.8c-0.3-0.3-0.5-0.3-0.5,0C61,66.1,61.2,66.1,61.5,65.8z"/>
</svg>
