<?xml version="1.0" encoding="utf-8"?>
<!-- Generator: Adobe Illustrator 18.0.0, SVG Export Plug-In . SVG Version: 6.00 Build 0)  -->
<!DOCTYPE svg PUBLIC "-//W3C//DTD SVG 1.1//EN" "http://www.w3.org/Graphics/SVG/1.1/DTD/svg11.dtd">
<svg version="1.1" id="Layer_1" xmlns="http://www.w3.org/2000/svg" xmlns:xlink="http://www.w3.org/1999/xlink" x="0px" y="0px"
	 viewBox="0 0 227.8 99.3" enable-background="new 0 0 227.8 99.3" xml:space="preserve">
<path d="M50,57.6c0.6,0.8,1.3,1.5,2.1,2.1c0.8,0.6,1.3,1.3,1.6,2.1c-0.5,1.2-1.1,2.4-2,3.5c-0.8,1.1-1.7,2.2-2.7,3.2
	c-0.3,0.5-0.5,0.9-0.7,1.4c-0.2,0.5-0.4,1-0.7,1.6c-0.3,0.6-0.6,1-0.9,1.3c-0.3,0.2-0.5,0.7-0.7,1.5c-0.3,1.4-0.6,2.7-0.9,4
	c-0.3,1.3-0.6,2.7-0.9,4c-0.2,0.8-0.3,1.5-0.3,2.3c-0.1,0.8-0.1,1.5-0.1,2.3c0,0.5-0.2,0.9-0.7,1.4c0.2,0,0.4,0.4,0.7,1.2
	c0.2,2.3,0.2,4.5,0,6.5c-0.2,2-1.8,3-4.8,3c-0.6,0.2-1.1,0.2-1.4,0c-0.3-0.2-0.8-0.2-1.4,0c-0.6,0.2-1.2,0.2-1.8,0.1
	C33.7,99,33,99,32.2,99c-2.8-0.2-5.6-0.2-8.5,0c-2.3,0.3-4.7,0.4-7.2,0.3c-2.5-0.1-4.9-0.1-7.4-0.1c-1.1,0-2.2,0-3.3,0
	S3.7,99,2.9,98.5c-1.2-0.6-2-1.4-2.3-2.3c-0.3-0.9-0.5-2.1-0.5-3.5c-0.3-2.5-0.1-4.8,0.7-7.2c0.5-1.2,0.7-2.3,0.6-3.3
	c-0.1-1,0-2.1,0.3-3.3c0.5-2.5,1.2-5.2,2.1-8.1c0.3-0.8,0.6-1.5,0.8-2.1c0.2-0.6,0.5-1.3,0.8-2.1c0.3-0.8,0.5-1.5,0.7-2.1
	c0.2-0.6,0.7-0.9,1.6-0.9c-0.2-1.1,0-1.9,0.5-2.5c0.5-0.6,0.8-1.3,1.2-2.1c0.6-1.2,1.1-2.1,1.4-2.5c0.5-0.6,0.7-0.8,0.8-0.7
	c0.1,0.2,0.3,0.4,0.8,0.7c0.3,0.2,0.5,0.1,0.6-0.1c0.1-0.2,0-0.4-0.3-0.6c-0.5-0.3-0.6-0.5-0.5-0.6c0.2-0.1,0.4-0.3,0.7-0.8
	c0.8-1.1,1.5-2.1,2.3-3.1c0.8-1,1.6-2,2.5-2.9c0.8-0.8,1.5-1.5,2.3-2.3c0.8-0.8,1.5-1.5,2.3-2.3c0.8-0.6,1.3-1.3,1.5-2.1
	c0.2-0.8,0.6-1.5,1-2.3c0.8-1.1,1.5-1.6,2.3-1.6c0.8,0,1.6,0.2,2.4,0.6c0.8,0.4,1.7,0.8,2.4,1.4c0.8,0.5,1.6,0.9,2.5,1
	c0.6,0.2,1,0.3,1.2,0.5c0.2,0.2,0.6,0.2,1.4,0c0.5-0.2,1.3-0.2,2.5-0.2c0.9-0.3,1.7-0.7,2.4-1.3c0.7-0.5,1.4-1.1,2.2-1.7
	c1.7-1.2,3.5-1.3,5.3-0.2c1.8,1.1,2.9,2.6,3.2,4.6c0.3,2.5-0.4,4.2-2.1,5.3c-0.6,0.5-1,1.2-1.2,2.1c-0.2,0.9-0.2,1.8-0.2,2.5
	c-0.2,0.8-0.2,1.7,0,2.8C49.5,56.2,49.7,57,50,57.6z M5.9,77.7c0.2-0.5,0-0.7-0.5-0.7v0.5C5.8,77.5,5.9,77.6,5.9,77.7z M9.1,81
	c0.3-0.8,0.2-1-0.2-0.7c-0.5,0.3-0.8,0.5-0.9,0.5c-0.3-0.8-0.7-0.9-1.2-0.5c-0.2,0.3-0.2,0.5,0,0.5c0.2,0,0.3,0.2,0.5,0.5
	c0.3-0.3,0.7-0.3,1,0C8.7,81.5,9,81.4,9.1,81z M9.4,61.6c-0.3,0.6-0.2,1.1,0.2,1.5c0.5,0.4,0.8,0.3,1.2-0.1c0-0.5-0.2-0.7-0.5-0.8
	C10,62.1,9.7,61.9,9.4,61.6z M10.5,74c0.5,0,0.6-0.2,0.3-0.5C10.6,73.3,10.5,73.4,10.5,74z M11.7,86.5c-0.3,0.5-0.1,0.8,0.7,1.2
	C12.4,86.9,12.1,86.5,11.7,86.5z M13.1,73.6c0-0.5-0.1-0.8-0.2-0.9c0,0.5-0.1,0.6-0.3,0.5c-0.2-0.2-0.3-0.1-0.3,0.2
	C12.6,73.3,12.9,73.4,13.1,73.6z M14,69.9c0.5-0.2,0.7-0.4,0.8-0.8c0.1-0.4-0.1-0.5-0.6-0.3c0,0.3,0,0.5-0.1,0.6
	C14,69.4,14,69.6,14,69.9z M17.4,69.6c-0.3,0.2-0.4,0.3-0.3,0.5c0.1,0.2,0.3,0.2,0.6,0C17.7,69.8,17.6,69.6,17.4,69.6z M18.6,60.2
	c-0.8-0.2-1,0.1-0.7,0.7c0.3,0,0.5-0.1,0.5-0.2C18.4,60.5,18.4,60.3,18.6,60.2z M17.9,63.2c0.5,0.2,0.7-0.1,0.7-0.7
	c0-0.6-0.2-0.8-0.7-0.7V63.2z M18.8,80c0,1.1,0.3,1.8,0.9,2.2c0.6,0.4,1.3,0.5,2.2,0.5c0.8-0.1,1.6-0.4,2.3-1c0.7-0.6,1-1.4,1-2.3
	c0-1.8-0.8-2.9-2.5-3.2c-1.2-0.3-2.2,0-2.8,0.8C19.4,77.8,19,78.8,18.8,80z M19.8,59.3c0.6,0,0.8-0.2,0.5-0.5
	C19.9,58.5,19.8,58.6,19.8,59.3z M22.8,68c-0.5,0.3-0.8,0.3-1.2,0c-0.3-0.3-0.7-0.5-1.2-0.5c-0.3,0.3-0.3,0.6-0.1,0.8
	c0.2,0.2,0.4,0.5,0.6,0.8C21.7,69.2,22.3,68.8,22.8,68z M21.4,63.6c0-1.1-0.4-1.2-1.2-0.5C20.2,64,20.6,64.1,21.4,63.6z M21.6,65.9
	c0-0.3,0-0.6,0-0.9c0-0.3-0.4-0.4-1.2-0.2C20.4,65.7,20.8,66.1,21.6,65.9z M22.3,54.4c0.2,0,0.3,0.1,0.5,0.2c0-0.5-0.2-0.7-0.5-0.7
	V54.4z M24.4,59c-0.2,0.3-0.1,0.5,0.2,0.5c0.3,0,0.5-0.1,0.5-0.2c-0.2,0-0.2-0.1-0.2-0.2C24.8,58.9,24.7,58.9,24.4,59z M25.3,62.7
	c-0.3,0.3-0.3,0.5,0,0.7c0.3,0.2,0.5,0.1,0.7-0.2c-0.3,0-0.4-0.1-0.3-0.3C25.7,62.6,25.6,62.6,25.3,62.7z M25.3,60.9
	c-0.2,0.2-0.1,0.4,0.2,0.7l0.5-0.2C25.5,61.3,25.3,61.2,25.3,60.9z M25.5,69.4c0.3,0,0.7,0.1,1,0.2c0.4,0.2,0.4-0.2,0.1-0.9
	c-0.5-1.1-0.8-1.3-0.9-0.7C25.6,68.6,25.5,69.1,25.5,69.4z M27.6,65.5c0.2-0.2,0.3-0.2,0.6-0.1c0.2,0.1,0.3,0,0.1-0.3
	C27.7,64.9,27.5,65,27.6,65.5z M28.3,70.8c0.6,0,0.8-0.1,0.5-0.3C28.5,70.2,28.3,70.3,28.3,70.8z M227.5,22.1
	c-0.3,0.8-0.3,1.6-0.1,2.5c0.2,0.9,0.3,1.8,0.3,2.5c0,1.2-0.3,1.9-1,2.1c-0.7,0.2-1.5,0.2-2.4,0.2c-0.9,0.2-1.9,0.2-3,0.2
	c-1.1,0-2-0.2-2.8-0.7c-0.6-0.3-1-0.4-1-0.2c-0.1,0.2-0.5,0.3-1.3,0.5c-0.5,0.3-1,0.5-1.6,0.5c-0.6,0-1.2,0-1.6,0
	c-2,0.2-3.9,0.1-5.7-0.2c-1.8-0.3-3.6-0.3-5.4,0c-1.1,0.2-2.1,0.2-3,0c-0.9-0.2-1.8-0.2-2.8-0.2c-1.4,0-2.8,0-4.2,0.1
	c-1.4,0.1-2.8,0.1-4.2,0.1c-2.2,0.2-4.4,0.1-6.8-0.1c-2.4-0.2-4.7-0.2-6.8,0.1c-0.9,0.3-1.9,0.3-2.9,0.1c-1-0.2-2-0.3-3.1-0.3
	c-1.2,0-2.5,0-3.9,0.1c-1.4,0.1-2.7,0.1-3.9,0.1c-2.5-0.2-4.9-0.3-7.3-0.5c-2.4-0.2-4.8-0.2-7.3,0c-1.2,0.2-2.4,0.3-3.5,0.5
	c-1.1,0.2-2.2,0.2-3.5,0c-1.2-0.3-2.3-0.3-3.2-0.1c-0.9,0.2-2,0.3-3.2,0.3c-1.1,0-2.1-0.1-3.1-0.3c-1-0.2-2-0.3-3.1-0.1
	c-1.1,0-2.1,0-3.1,0.1c-1,0.1-2,0-3.1-0.3c-0.6-0.2-1.4-0.2-2.4,0c-1,0.2-1.4,0.7-1.3,1.6c0,0.9,0.4,1.4,1.2,1.5
	c0.8,0.1,1.5,0,2.1-0.1c0.3,0.2,0.7,0.3,1,0.5c0.4,0.2,0.7,0.3,1,0.5c0.3-0.3,0.6-0.6,0.9-0.8c0.3-0.2,0.7-0.3,1.2-0.3
	c1.1-0.2,2.1-0.1,3.1,0.1c1,0.2,2,0.3,3.1,0.1c2.6-0.3,5.2-0.3,7.6,0c2.5,0.3,5,0.5,7.6,0.5c1.2-0.2,2.4-0.3,3.5-0.5
	c1.1-0.2,2.2-0.2,3.2-0.2c1.2,0,2.3,0.1,3.2,0.3c0.9,0.2,2,0.3,3.2,0.1c2.5-0.3,4.9-0.4,7.3-0.3c2.4,0.1,4.8,0.1,7.3,0.1
	c4.8,0,9.5,0,14.3-0.1c4.8-0.1,9.5-0.2,14.3-0.3c1.2,0,2.4,0,3.5,0.1c1.1,0.1,2.2,0.2,3.5,0.3c0.9,0,1.5,0.5,1.7,1.4
	c0.2,0.9,0.4,1.8,0.6,2.5c0.3,2.2,0.2,4.1-0.3,5.8c-0.5,1.7-2,2.5-4.5,2.5c-1.2,0-2.1-0.2-2.5-0.5c-0.6-0.3-0.9-0.4-0.9-0.3
	c0,0.1-0.3,0.3-0.9,0.6c-0.9,0.2-1.8,0.2-2.8,0.2c-0.9,0-1.8,0-2.8,0c-1.2,0-2.3,0-3.3,0c-1,0-2-0.1-3.1-0.2c-1.4-0.2-2.7-0.2-4,0
	c-1.3,0.2-2.7,0.2-4,0.2c-4.8,0.2-9.5,0.1-14.2-0.2c-4.7-0.3-9.4-0.4-14.2-0.2c-4.6,0.2-9.3,0.2-14,0.2c-4.7,0-9.4,0.1-14,0.2
	c-0.9,0-1.8-0.2-2.8-0.7c-0.9,0.5-1.8,0.7-2.8,0.7c-1.1,0.3-1.7,0.9-2,1.7c-0.2,0.8-0.3,1.7-0.3,2.7c-0.2,1.1-0.2,2.1-0.2,3
	c0,0.9-0.1,1.9-0.2,3c0,1.2-0.1,2.2-0.2,2.8c-0.2,0.6-0.4,1.2-0.7,1.6c-0.3,0.5-0.5,1.1-0.7,1.8c-0.2,0.9-0.5,1.7-1.2,2.3
	c-0.6,0.6-1.1,1.3-1.4,2.1c-0.2,0.8-0.6,1.5-1.3,2.2c-0.7,0.7-1.3,1.3-2,2c-0.6,0.6-1.3,1.2-2,1.6c-0.7,0.5-1.4,0.9-2.2,1.4
	c-1.1,1.1-2.5,2-4.4,2.8c-0.9,0.3-1.9,0.5-2.9,0.7c-1,0.2-2,0.5-3.1,0.9c-0.9,0.3-1.8,0.4-2.5,0.2c-0.8-0.2-1.6-0.2-2.5-0.2
	c-1.1,0-2.1,0-3.1,0c-1,0-2-0.2-2.9-0.5c-1.1-0.3-2.1-0.7-3.1-1.3c-1-0.5-2-1-2.9-1.5c-2.2-0.9-4-2.1-5.4-3.6c-1.5-1.5-2.8-3-4-4.7
	c-0.6-0.9-1.2-1.8-1.6-2.7c-0.5-0.8-0.8-1.8-1.2-2.9c-0.3-0.8-0.7-1.4-1.3-2c-0.5-0.5-1.3-0.7-2.4-0.3c-0.8,0.3-1.4,0.7-1.8,1
	c-0.5,0.4-1.1,0.7-1.8,1c-0.8,0.3-1.5,0.3-2.1,0c-0.6-0.3-1.3-0.7-2.1-1.2c-1.7-0.9-2.4-2.6-2.1-5.1c0.3-2.5,1.1-4.2,2.3-5.3
	c0.8-0.8,1.1-2.3,1-4.6c-0.1-2.3-0.4-3.9-1-4.8c-0.9-1.4-2.3-2.5-4.2-3.2c-1.8-0.8-3.5-0.8-5.1,0c-1.2,0.8-2.4,1.5-3.6,2.1
	c-1.2,0.6-2.4,1.1-3.8,1.4c-1.5,0.3-3,0-4.5-0.9c-1.5-0.9-2.6-2-3.3-3.2c-0.5-0.8-0.7-1.7-0.7-2.8c0-1.1,0.2-2.2,0.5-3.2
	c0.3-1.1,0.7-2.2,1-3.2c0.4-1.1,0.6-2,0.6-2.8c0.3-2.2,1.3-3.2,3-3.2c0.5-0.2,1.3-0.2,2.5-0.2c0.3,0.3,0.4,0.6,0.2,0.8
	c-0.2,0.2-0.2,0.5-0.2,0.8c0.6,0,1-0.2,1-0.5c0.1-0.3,0.3-0.6,0.6-0.9c0.3-0.5,0.8-0.7,1.4-0.7c0.6,0,1.2-0.1,1.8-0.2
	c1.8-0.2,2.4-0.7,1.7-1.6c-0.7-0.9-1.4-1.8-2.2-2.5c-1.1-0.9-1.8-2-2.3-3.3c-0.5-1.3-1-2.6-1.6-3.8c-0.8-1.4-1.1-2.7-0.9-3.9
	c0.2-1.2,1.1-2.1,2.8-2.5c1.4-0.5,2.4-0.2,3,0.7c0.6,0.9,1.2,1.9,1.6,3c0.5,1.1,1.2,2,2.1,2.7c0.9,0.7,1.8,1.4,2.8,2.2
	c0.8,0.3,1.6,0.7,2.4,1c0.8,0.4,1.7,0.4,2.4,0.1C54,9.8,54.5,9.1,54.7,8c0.2-1.1,0.4-2,0.6-2.8c0.3-0.8,0.6-1.6,0.8-2.5
	c0.2-0.9,0.7-1.5,1.5-1.8C58.9,0.2,60.3,0,62,0.2c1.7,0.2,3.2,0.2,4.4,0.2C69.9,0.2,73.5,0.1,77,0c3.5-0.1,7.1,0,10.6,0.1
	c1.4,0,2.7,0.2,3.9,0.7c0.6-0.3,1.2-0.5,1.8-0.6c0.6-0.1,1.3-0.1,2.1-0.1c1.7,0,3.3,0,4.8,0.1c1.5,0.1,3.2,0,4.8-0.1
	c0.8-0.2,1.5-0.2,2.3,0c0.8,0.2,1.5,0.3,2.3,0.5c0.8,0,1.6-0.1,2.4-0.2c0.8-0.2,1.7-0.2,2.4,0c1.7,0.5,2.5,1.6,2.5,3.3
	c0,1.8,0.2,3.3,0.7,4.5c0.8,0.6,1.5,1,2.3,1c0.8,0.1,1.5,0.2,2.3,0.3c0.9,0,1.9,0.1,3,0.3c1.1,0.2,2.1,0.2,3-0.1
	c1.5-0.5,3.1-0.6,4.7-0.5c1.6,0.2,3.2,0.3,4.7,0.5c0.8,0.2,1.6,0.1,2.5-0.1c0.9-0.2,1.8-0.3,2.8-0.3c2.2-0.3,4.3-0.3,6.5,0
	c2,0.2,4,0.2,6,0.1c2-0.1,4.1-0.1,6.2-0.1c1.2,0,2.4-0.1,3.5-0.2c1.1-0.2,2.2-0.1,3.5,0.2c1.1,0.3,2,0.3,2.8,0.1
	c0.8-0.2,1.7-0.3,2.8-0.3c1.1,0,2,0.1,2.9,0.2c0.8,0.2,1.8,0.2,2.9,0c1.1-0.3,1.9-0.3,2.5,0c0.5,0.3,0.9,0.3,1.3,0
	c0.4-0.3,0.8-0.3,1.3,0c1.8,0.5,3.8,0.5,5.8,0c2-0.5,4-0.5,6-0.2c2.3,0.2,4.1,0,5.3-0.6c1.2-0.5,2.5-1.7,3.7-3.3
	c0.8-1.2,2.2-2.3,4.3-3.1c2.1-0.8,3.8-1.1,5.2-0.8c0.9,0.3,1.5,0.8,1.8,1.5c0.3,0.7,0.5,1.5,0.7,2.3c0.2,0.8,0.3,1.7,0.5,2.4
	c0.2,0.8,0.6,1.3,1.4,1.6c1.2,0.5,2.6,0.6,4.2,0.3c1.5-0.2,2.6,0.4,3.2,2c0.3,1.4,0.3,2.7,0,3.9c0,1.2,0.1,2.3,0.3,3.3
	C227.9,19.7,227.8,20.9,227.5,22.1z M30.1,70.6c0.5,0,0.7-0.2,0.7-0.5c-0.3,0-0.5-0.1-0.7-0.2V70.6z M31.5,54.2
	c-1.1,0.9-1.5,1.9-1.3,2.9c0.2,1,0.7,1.8,1.5,2.3c0.8,0.5,1.6,0.8,2.5,0.7c0.9-0.1,1.6-0.6,2.1-1.5c0.5-0.9,0.6-1.8,0.5-2.7
	c-0.2-0.8-0.5-1.5-1-2c-0.5-0.5-1.2-0.7-2-0.8C33.1,53.1,32.3,53.4,31.5,54.2z M30.6,47c0.5,0,0.6-0.2,0.3-0.5
	C30.7,46.3,30.6,46.4,30.6,47z M35.2,76.6c0.2,0.2,0.3,0.2,0.3,0c0.1-0.2,0-0.3-0.3-0.5V76.6z M35.9,78.9c-0.3,0.5-0.2,0.7,0.3,0.6
	c0.5-0.1,0.7-0.3,0.6-0.6H35.9z M35.9,37.8c0.5,0,0.6-0.1,0.3-0.3C36,37.2,35.9,37.3,35.9,37.8z M36.8,73.3c0.3,0.6,0.6,0.8,0.9,0.7
	C37.5,73.4,37.1,73.2,36.8,73.3z M37.1,59.5c0.3,0.3,0.6,0.2,0.9-0.2c-0.2-0.3-0.3-0.4-0.6-0.3C37.2,59,37.1,59.2,37.1,59.5z
	 M37.5,23c0.2,0,0.3,0,0.3-0.1c0.1-0.1,0.3-0.1,0.6-0.1c0-0.3-0.1-0.5-0.3-0.5c-0.2,0-0.4-0.1-0.6-0.2C37.2,22.4,37.2,22.7,37.5,23z
	 M38.7,86c0-0.3,0.1-0.4,0.3-0.3c0.2,0.1,0.3,0,0.1-0.3c-0.3,0-0.5,0.1-0.7,0.2C38.3,85.7,38.4,85.9,38.7,86z M39.4,22.8
	c0.2-0.6,0.2-1,0-1c-0.2-0.1-0.3,0-0.3,0.1c-0.1,0.2-0.1,0.3-0.1,0.6C38.9,22.7,39.1,22.8,39.4,22.8z M40.5,26.2
	c0.2-0.5,0.4-0.8,0.7-0.9c0.3-0.2,0.5-0.5,0.7-0.9c-0.5,0-1,0.2-1.5,0.7C39.9,25.5,39.9,25.9,40.5,26.2z M40.8,22.1
	c-0.2,0.2-0.2,0.4-0.2,0.8c0,0.4,0.2,0.6,0.5,0.6c0.3-0.3,0.5-0.6,0.6-0.9C41.6,22.2,41.4,22.1,40.8,22.1z M42.4,60.4
	c-0.3,0-0.5,0.1-0.7,0.2c0.2,0,0.4,0.2,0.7,0.5V60.4z M43.1,27.2c0.8,0,1-0.2,0.6-0.6C43.3,26.2,43.1,26.4,43.1,27.2z M54.6,26.5
	c-0.2,1.7,0.6,2.8,2.2,3.3c1.6,0.5,2.8,0,3.6-1.7c0.3-0.6,0.3-1.4,0.1-2.4c-0.2-1-0.7-1.7-1.5-2c-0.8-0.3-1.7-0.1-2.8,0.6
	C55.2,25,54.6,25.7,54.6,26.5z M60.6,30.4c0-0.5-0.2-0.7-0.7-0.7v0.7H60.6z M65.5,39.4c0.5,0,0.6-0.1,0.3-0.3
	C65.6,38.8,65.5,38.9,65.5,39.4z M65.9,24.2c0.3,0.3,0.5,0.2,0.5-0.2c0-0.5-0.2-0.5-0.5-0.2V24.2z M70.8,24.6c0.2,2.2,0.2,4.2,0.2,6
	c0,1.8,0.8,3.5,2.5,5.1c1.1,1.2,2.5,2.2,4.2,2.8c0.8,0.3,1.6,0.4,2.5,0.2c0.9-0.2,1.8-0.2,2.5,0c2.5,0.3,4.9,0.4,7.3,0.2
	c2.4-0.2,4.8-0.2,7.3-0.2c1.1,0.2,2.2,0.2,3.2,0.2c1.1,0,2.2,0.1,3.5,0.2c0.8-1.4,1.1-2.8,0.9-4.2c-0.2-0.5-0.8-0.7-2-0.8
	c-1.2-0.1-2.4,0-3.8,0.1c-1.4,0.2-2.7,0.3-4,0.3c-1.3,0.1-2.2,0.1-2.7,0.1c-0.9-0.3-1.7-0.6-2.3-0.9c-0.5,0.8-1.2,1-2.1,0.7
	c-0.9-0.2-1.8-0.2-2.8-0.1c-0.9,0.1-1.8,0.1-2.8,0.1c-0.8,0-1.7,0-2.7,0.1c-1,0.1-1.9,0-2.7-0.2c-0.8-0.2-1.4-0.7-1.8-1.3
	c-0.5-0.6-0.5-1.5-0.2-2.8c0.5-1.7,1.4-2.4,2.9-2.2c1.5,0.2,2.8,0.3,4,0.3c0.5,0,0.9-0.1,1.4-0.2c0.5-0.2,1-0.2,1.6,0
	c0.6,0,1.2,0,1.6,0.1c0.5,0.1,1,0,1.6-0.1c1.2-0.3,2.4-0.3,3.5-0.1c1.1,0.2,2.2,0.2,3.5-0.1c0.8-0.3,1.7-0.3,2.8,0
	c1.1,0.3,2.1,0.5,3,0.5c0.6-0.2,1.5-0.2,2.8-0.2c0.8-0.2,1.1-0.4,1-0.7c-0.1-0.3,0-0.8,0.1-1.4c0-1.2-0.1-2.2-0.2-2.8
	c-0.2-0.8-0.4-1.1-0.7-0.9c-0.3,0.2-0.8,0.2-1.4,0.2c-2.2,0.3-4.4,0.3-6.7,0c-0.9,0-1.8-0.1-2.5-0.2c-0.8-0.2-1.5-0.1-2.3,0.2
	c-0.8,0.3-1.5,0.5-2.1,0.5c-0.6,0-1.3,0-2.1,0c-1.7,0.2-3.3,0.2-5,0.1c-1.6-0.1-3.2-0.3-4.7-0.6c-1.2-0.3-2-1-2.2-2.2
	c-0.2-1.2,0-2.1,0.8-2.9c0.5-0.6,1.1-1,1.8-1.2c0.8-0.2,1.6-0.2,2.4-0.2c0.8,0,1.7,0.1,2.5,0.2c0.8,0.2,1.6,0.2,2.2,0
	c0.6-0.2,1.2-0.2,1.8-0.2c0.6,0,1.2,0.2,1.6,0.7c0.5-0.6,1.2-0.9,2.3-0.8c1.1,0.1,1.9,0.1,2.5,0.1c0.9,0,1.8,0.1,2.8,0.2
	c0.9,0.2,1.8,0.2,2.8,0.2c1.1,0,2.1-0.1,3.1-0.3c1-0.2,2-0.3,2.9-0.1c-0.2-0.8-0.2-1.5-0.1-2.3c0.1-0.8,0-1.5-0.1-2.3
	c-1.2,0.5-2.5,0.6-3.7,0.3c-1.2-0.2-2.5-0.3-3.7-0.3c-0.8,0.2-1.6,0.3-2.4,0.6c-0.8,0.2-1.7,0.3-2.7,0.1c-1.2-0.2-2.4-0.3-3.5-0.3
	c-1.1-0.1-2.2-0.1-3.5-0.1c-1.8,0-3.7,0.2-5.5,0.5c-1.8,0.3-3.6,1-5.3,2.1c-1.7,1.1-2.7,2.6-3.1,4.6C70.7,21.1,70.6,22.9,70.8,24.6z
	 M108.2,58.8c0.3-0.6,0.5-1.3,0.7-2.1c0.2-0.8,0.6-1.3,1.4-1.6c-0.3-1.1-1-1.7-2.1-1.7c-1.1-0.1-2-0.1-2.8-0.1
	c-2.8-0.2-5.6-0.3-8.4-0.5c-2.8-0.2-5.7-0.1-8.4,0.2c-0.6,0.2-1.4,0.4-2.3,0.8c-0.9,0.4-1,1-0.2,2c0.6,0.6,1.4,1,2.4,1.3
	c1,0.2,1.3,1,1,2.2c1.1-0.3,1.7,0,1.7,0.9c0.1,0.9,0,1.8-0.1,2.5c-0.8,1.8-2.2,2.5-4.4,2.1c-1.5-0.3-3.2-1.1-5.1-2.3
	c-1.8-1.2-3.2-2.5-3.9-3.9c-0.2-0.2-0.5-0.6-0.9-1.4c-0.5-0.8-1-1.5-1.5-2.1c-0.5-0.6-1.1-1-1.6-1.2c-0.5-0.2-1,0.2-1.3,1.2
	c-0.3,0.9-0.3,1.8,0,2.8c0.3,0.9,0.8,1.8,1.4,2.8c0.6,0.9,1.3,1.8,2.1,2.5c0.8,0.8,1.4,1.5,1.8,2.1c0.3,0.5,0.8,0.9,1.6,1.3
	c0.8,0.4,1.5,0.8,2.1,1.3c0.9,0.8,2,1.2,3.2,1.4c1.2,0.2,2.5,0.3,3.7,0.5c4.5,0.5,8.5-0.3,12-2.3c1.7-0.9,3.3-2.1,4.7-3.6
	C106.5,62.3,107.6,60.6,108.2,58.8z M90.4,32.5c0-0.6-0.2-0.9-0.7-0.9C89.7,32.3,89.9,32.6,90.4,32.5z M98.3,71
	c0.3,0,0.5,0.2,0.5,0.5c0,0.3,0.2,0.5,0.5,0.5c0-0.3-0.1-0.7-0.3-1C98.6,70.5,98.4,70.6,98.3,71z M99.9,73.1c0.8,0,0.9-0.2,0.5-0.7
	c-0.2-0.2-0.2-0.2-0.2,0C100.1,72.6,100,72.8,99.9,73.1z M101.5,46.8c0.2-0.5,0.3-0.7,0.3-0.8c0.1-0.1-0.3-0.1-1-0.1
	C100.8,46.5,101,46.8,101.5,46.8z M102.9,46.3c0-0.3-0.2-0.6-0.5-0.9c-0.2,0.2-0.2,0.3-0.2,0.3c0,0.1-0.1,0.2-0.2,0.3
	C102.1,46.3,102.4,46.3,102.9,46.3z M109.3,7.5c-0.3-0.2-0.5-0.1-0.7,0.1c-0.2,0.2-0.1,0.5,0.2,0.8C109.2,8.5,109.3,8.2,109.3,7.5z
	 M111.4,20.2c0.3,0.2,0.7,0.2,1.2,0.2c0.5,0,0.7-0.2,0.7-0.5c-0.3-0.2-0.7-0.2-1-0.2C111.8,19.8,111.6,19.9,111.4,20.2z M113.3,23
	c-0.2-0.2-0.2-0.4,0-0.7c0.2-0.3,0.1-0.4-0.2-0.2c0.2,0.8,0.1,0.8-0.2,0.2c-0.3-0.6-0.5-0.7-0.7-0.2c0.5,0,0.6,0.1,0.5,0.2
	c-0.2,0.2-0.3,0.3-0.5,0.5C112.6,22.8,112.9,22.9,113.3,23z M113,42.9c-0.8-0.3-1-0.2-0.8,0.3C112.5,43.8,112.7,43.6,113,42.9z
	 M112.6,5.9c0,0.8,0.2,1.2,0.7,1.2c0.3-0.3,0.3-0.5,0.1-0.7C113.1,6.2,112.9,6.1,112.6,5.9z M113,15.2c0.3,0.8,0.9,1.2,1.8,1.2
	c-0.3-0.3-0.5-0.6-0.7-0.8c-0.2-0.2-0.4-0.5-0.7-0.8C113.5,15,113.3,15.2,113,15.2z M116.7,17.9c0.3-0.3,0.3-0.6,0-0.9
	c-0.3-0.3-0.6-0.5-0.9-0.7c-0.2,0.3-0.1,0.6,0.2,0.8C116.3,17.4,116.6,17.6,116.7,17.9z M117,24.2c0.3,0.3,0.5,0.2,0.5-0.2
	C117.1,23.9,117,24,117,24.2z M119.5,20c0.3-0.3,0.4-0.6,0.3-0.9c-0.1-0.3-0.3-0.6-0.7-0.8c-0.4-0.2-0.7-0.3-1-0.2
	c-0.3,0.1-0.5,0.3-0.7,0.8c0.5,0.2,0.8,0.3,1.2,0.6C118.9,19.7,119.2,19.9,119.5,20z M117.9,42.6c0.3,0.2,0.5,0,0.5-0.3
	c0-0.4-0.2-0.5-0.5-0.3V42.6z M119.7,42.9c0.8,0,1.1-0.2,0.9-0.6C120.5,41.9,120.2,42.1,119.7,42.9z M120.9,35.2
	c-0.2-0.2-0.3-0.2-0.6-0.2c-0.2,0-0.3,0.2-0.3,0.5c0.2,0.2,0.3,0.2,0.6,0.2C120.8,35.7,120.9,35.6,120.9,35.2z M121.6,20
	c0.2-0.2,0.2-0.3,0.2-0.5c0-0.3-0.2-0.5-0.5-0.5C121,19.7,121.1,20,121.6,20z M121.3,37.3c0.3,0,0.5-0.2,0.7-0.5
	c-0.3,0-0.5-0.1-0.7-0.2V37.3z M123.9,28.1c0.2-0.6-0.1-0.9-0.7-0.9C123.2,27.8,123.4,28.1,123.9,28.1z M123.6,17.9
	c0.3-0.2,0.7-0.6,1.2-1.4C124,16.9,123.6,17.3,123.6,17.9z M125,16.8c0.3,0.2,0.3,0.3,0.1,0.3c-0.2,0.1-0.2,0.3,0.1,0.6
	c0.6,0.2,0.8,0,0.6-0.6C125.6,16.6,125.3,16.5,125,16.8z M125.7,25.8c0.3-0.8,0.2-1-0.5-0.7C125.3,25.5,125.4,25.8,125.7,25.8z
	 M126,19.5c0,0.8,0.3,0.9,0.9,0.3c0.6-0.5,0.7-0.9,0.2-1C126.8,19.3,126.4,19.5,126,19.5z M126.6,23.2c0.2,0,0.4-0.3,0.7-0.9
	C126.9,22.3,126.6,22.6,126.6,23.2z M128,17c0.2,0.3,0.1,0.5-0.2,0.5c-0.3,0-0.4,0.2-0.2,0.5c0.2,0,0.3,0,0.3,0.1
	c0.1,0.1,0.3,0.1,0.6,0.1c0.3-0.2,0.3-0.3,0.1-0.6C128.4,17.4,128.2,17.2,128,17z M131,24.4c0.5-0.9,0.2-1.8-0.8-2.5
	c-1-0.8-1.7-0.5-2,0.9c0.3,0.3,0.6,0.3,0.8-0.1c0.2-0.4,0.5-0.6,0.8-0.6c0.3,0.5,0.4,1,0.2,1.6C130,24.3,130.3,24.5,131,24.4z
	 M130.8,14c-0.3,0-0.6,0.2-0.9,0.5C130.5,14.5,130.8,14.3,130.8,14z M135,21.9c0.3-0.6,0.4-1.1,0.2-1.4c-0.2-0.8-0.6-1.2-1.4-1.4
	c-0.3,0-0.9-0.1-1.8-0.2c-0.9-0.2-1.2,0.2-0.7,0.9c0.3,0.3,0.6,0.6,0.8,0.8c0.2,0.2,0.2,0.7-0.1,1.3c0.8,0,1.1-0.3,1-0.9
	c-0.1-0.6,0.3-0.9,1-0.9C133.7,20.8,134,21.4,135,21.9z M135.4,23c0.5,0,0.7-0.2,0.7-0.7c-0.3,0-0.5,0.1-0.5,0.2
	C135.7,22.7,135.6,22.9,135.4,23z M136.3,18.4c0,0.3,0.2,0.5,0.5,0.5c0.3,0,0.4-0.2,0.2-0.5h-0.2H136.3z M139.1,18.6
	c-0.9,0-1.3,0.5-1.2,1.4c0.2,0.9,0.6,1.3,1.4,1.2c-0.5-0.5-0.6-0.9-0.5-1.4C139,19.3,139.1,18.9,139.1,18.6z M138.9,23.2
	c0,0.5,0.2,0.7,0.6,0.6c0.4-0.1,0.6-0.3,0.6-0.8C139.4,23,139,23.1,138.9,23.2z M141.9,23.2c-0.2,0.6-0.1,0.8,0.2,0.6
	C142.4,23.6,142.3,23.4,141.9,23.2z M141.9,19.1c0.6,0.2,0.9-0.2,0.9-1.2C142.2,17.9,141.9,18.3,141.9,19.1z M145.1,24.2
	c1.1-0.3,1.5-1,1.2-2.1c-0.3,0-0.7,0.2-1,0.7C144.8,23.2,144.8,23.7,145.1,24.2z M147.2,20.5c-0.3,0-0.5,0.2-0.5,0.6
	c0,0.4,0.2,0.5,0.5,0.3V20.5z M154.1,24.4c0-0.2,0-0.3,0.1-0.3c0.1-0.1,0.1-0.2,0.1-0.3c-0.5,0-0.8,0.1-0.9,0.2
	c-0.2,0.3-0.1,0.4,0.1,0.3C153.8,24.2,154,24.2,154.1,24.4z M153.9,22.1c-0.6,0.5-0.7,0.7-0.2,0.8C154.1,23,154.2,22.7,153.9,22.1z
	 M154.4,15.9c0.2,0.2,0.3,0.2,0.3,0c0.1-0.2,0-0.2-0.3-0.2V15.9z M154.6,34.6c0.5,0,0.6-0.2,0.3-0.5
	C154.7,33.8,154.6,33.9,154.6,34.6z M158.3,17.7c0-0.2,0-0.3,0.1-0.3c0.1-0.1,0.1-0.2,0.1-0.3c-0.3,0-0.5,0.1-0.7,0.2L158.3,17.7z
	 M167.5,17.9c0.6,0,0.8-0.2,0.5-0.5C167.7,17.2,167.5,17.3,167.5,17.9z M172.8,20.5c0.5,0,0.6-0.1,0.3-0.3
	C172.9,19.9,172.8,20,172.8,20.5z M180.7,27.2c0-0.6-0.5-0.9-1.4-0.9C179.1,26.9,179.6,27.2,180.7,27.2z M180.4,19.3
	c0,0.5,0.2,0.7,0.6,0.6c0.4-0.1,0.5-0.3,0.3-0.8C180.9,19.1,180.6,19.2,180.4,19.3z M185.3,12.2c0.2-0.3,0.3-0.5,0.6-0.6
	c0.2-0.1,0.3-0.3,0.3-0.6c-0.3-0.3-0.7-0.2-1,0.2C184.8,11.7,184.8,12,185.3,12.2z M185.8,21.6c0.3-0.2,0.4-0.4,0.2-0.7
	c-0.2-0.3-0.3-0.5-0.5-0.5c-0.2,0.2-0.3,0.4-0.3,0.8C185.1,21.7,185.3,21.8,185.8,21.6z M189.9,35.9c0.3,0.2,0.5,0,0.5-0.3
	c0-0.4-0.2-0.5-0.5-0.3V35.9z M192.2,41.7c-0.5-0.3-0.9-0.3-1.3,0c-0.4,0.3-0.3,0.7,0.1,1.2C191.4,42.9,191.8,42.5,192.2,41.7z
	 M192.2,11.7c-0.2,0.3,0,0.4,0.5,0.2c0.5-0.2,0.5-0.3,0.2-0.5C192.8,11.3,192.5,11.4,192.2,11.7z M194.3,38.7
	c-0.3,0.5-0.2,0.7,0.5,0.7C194.8,38.9,194.6,38.7,194.3,38.7z M196.4,23c-0.3,0.3-0.3,0.5,0,0.5C196.7,23.5,196.7,23.3,196.4,23z
	 M197.3,41.9c0.2,0.2,0.3,0.2,0.3,0c0.1-0.2,0-0.3-0.3-0.5V41.9z M204.7,33.4c0.5,0,0.6-0.1,0.3-0.3
	C204.8,32.8,204.7,32.9,204.7,33.4z M206.5,40.8c0.5,0,0.6-0.2,0.3-0.5C206.6,40,206.5,40.2,206.5,40.8z M206.8,5.5
	c0,0.5,0.1,0.6,0.2,0.5c0.2-0.2,0.4-0.2,0.7-0.2c0-0.5-0.1-0.6-0.2-0.5C207.3,5.4,207.1,5.5,206.8,5.5z"/>
</svg>
