<?xml version="1.0" encoding="utf-8"?>
<!-- Generator: Adobe Illustrator 18.0.0, SVG Export Plug-In . SVG Version: 6.00 Build 0)  -->
<!DOCTYPE svg PUBLIC "-//W3C//DTD SVG 1.1//EN" "http://www.w3.org/Graphics/SVG/1.1/DTD/svg11.dtd">
<svg version="1.1" id="Layer_1" xmlns="http://www.w3.org/2000/svg" xmlns:xlink="http://www.w3.org/1999/xlink" x="0px" y="0px"
	 viewBox="0 0 227.7 99.3" enable-background="new 0 0 227.7 99.3" xml:space="preserve">
<path d="M49.4,54.6c0.3,1.7,0.9,2.9,1.7,3.6c0.8,0.7,1.7,1.7,2.4,2.9c0.6,0.9,0.3,2-0.9,3.1c-1.2,1.2-2.1,2.1-2.5,2.9
	c-0.3,0.6-0.6,1.2-0.9,1.6c-0.3,0.5-0.5,1-0.7,1.6c-0.5,1.2-1.2,2.2-2.3,2.8c-0.2,1.5-0.4,3-0.8,4.4c-0.4,1.4-0.7,2.8-1,4.4
	c-0.2,0.8-0.3,1.5-0.3,2.1c-0.1,0.6-0.1,1.3-0.1,2.1c0,0.2-0.1,0.4-0.2,0.7c-0.2,0.3-0.3,0.6-0.5,0.9L42.7,89l0.5-0.5
	c0.2,1.4,0.3,2.5,0.3,3.3c0.1,0.8,0.2,1.7,0.2,2.4c0.1,0.8,0.1,1.2,0.1,1.4c0,1.7-0.7,2.7-2,2.9c-1.3,0.2-2.6,0.3-3.8,0.3
	c-1.2-0.2-2.8-0.1-4.6,0.2c-1.8,0.3-3.4,0.2-4.6-0.5c-0.8-0.3-1.7-0.3-2.8-0.1c-1.1,0.2-2.1,0.4-3,0.6c-1.2,0.2-2.5,0.2-3.7,0
	c-1.2-0.2-2.5-0.2-3.7-0.2c-1.5,0-3,0-4.4,0.1c-1.4,0.1-2.8,0.1-4.4,0.1C5.7,99,4.4,98.8,3,98.5c-1.4-0.3-2.2-1.1-2.5-2.3
	C0.2,94.5,0,92.7,0,90.8c0-1.8,0.3-3.6,0.9-5.3c0.6,0,1,0.2,1.2,0.7c0.2,0.5,0.1,0.9-0.2,1.4c0.3,0.3,0.5,0.2,0.7-0.3
	c0.2-0.5,0.2-0.9,0-1c-0.2-0.3-0.5-0.7-1-1.2c-0.5-0.5-0.6-0.8-0.1-1.2c0.2,0,0.5-0.2,0.9-0.5c0.5-0.3,0.4-0.5-0.2-0.7
	c-0.8-0.2-1.1-0.5-0.9-1c0.2-0.5,0.3-1.2,0.5-2c0.3-1.5,0.6-2.8,0.9-3.7c0.3-0.8,0.5-1.6,0.6-2.4c0.1-0.8,0.3-1.7,0.6-2.4
	c0.3-0.9,0.6-1.8,0.9-2.5c0.3-0.8,0.6-1.5,0.9-2.3l0.7-2.1c0.3-0.8,0.5-1.1,0.6-0.9c0.1,0.2,0.4,0.2,1,0.2c0-0.6-0.1-1.1-0.2-1.4
	c0.5-0.6,0.8-1.2,0.9-1.8c0.5-0.8,0.8-1.5,1.2-2.2c0.3-0.7,0.8-1.4,1.4-2.2c0.6-0.2,1-0.1,1.2,0.2c0.2,0.3,0.4,0.2,0.7-0.5
	c0.3-0.6,0.5-1.3,0.6-2c0.1-0.7,0.3-1.2,0.8-1.5c0.5-0.3,0.7-0.7,0.8-1c0.1-0.4,0.3-0.8,0.8-1.3c1.4-1.1,2.6-2.3,3.7-3.7
	c0.5-0.5,0.9-0.9,1.3-1.4c0.4-0.5,1-0.7,1.7-0.7c0.6-0.2,0.8-0.5,0.5-1.2c0-0.6,0.1-1,0.2-1.3c0.2-0.2,0.4-0.6,0.7-1
	c0.6-0.8,1.3-1.6,2.1-2.5c0.8-0.9,1.8-1.2,3-0.7c0.9,0.5,1.7,1.1,2.3,2c0.6,0.8,1.5,1.3,2.5,1.3c0.5,0.2,1,0.4,1.5,0.7
	c0.5,0.3,1,0.3,1.3,0c0.3-0.3,0.8-0.5,1.6-0.5c0.8,0,1.4-0.1,1.8-0.2c0.8-0.3,1.5-0.8,2.2-1.4c0.7-0.6,1.4-1.2,2.2-1.6
	c1.4-0.8,2.7-1,3.9-0.7c1.2,0.3,2.2,1,3,2c0.8,1,1.2,2.2,1.3,3.6c0.1,1.4-0.2,2.7-0.8,3.9c-0.3,0.6-0.7,1.1-1,1.4
	c-0.4,0.3-0.7,0.8-1,1.6c-0.2,0.8-0.3,1.6-0.3,2.5C49.4,53,49.4,53.8,49.4,54.6z M2.1,91.3c0.3,0.3,0.6,0.3,0.9,0
	c0.3-0.3,0.3-0.6,0-0.9c-0.2,0.3-0.3,0.5-0.6,0.5C2.2,90.8,2.1,91,2.1,91.3z M4.8,80.2c0.5,0,0.6-0.1,0.3-0.3
	C5,79.6,4.8,79.8,4.8,80.2z M5.8,76.8c-0.5,0.5-0.4,0.7,0.2,0.7C6.5,77,6.4,76.8,5.8,76.8z M5.5,80.7c0,0.6,0.2,0.9,0.5,0.9
	C6,81,5.8,80.7,5.5,80.7z M6.2,93.8c0-0.2,0-0.3-0.1-0.3C6,93.4,6,93.3,6,93.2c-0.3,0.3-0.5,0.5-0.5,0.7H6.2z M9.2,81.1
	c0-1.2-0.3-1.7-0.8-1.4c-0.5,0.3-1.1,0.3-1.7,0c-0.2,0.8,0.1,1.3,0.8,1.5C8.2,81.5,8.8,81.5,9.2,81.1z M10.9,62.4
	c-0.3-0.8-0.8-1-1.5-0.7c-0.7,0.3-0.7,0.8,0.1,1.4C10.4,63.1,10.9,62.9,10.9,62.4z M10.4,82.1c0.3-0.2,0.3-0.3,0-0.5
	c-0.3-0.2-0.5-0.1-0.5,0.2c0.2,0,0.2,0,0.2,0.1C10.2,82,10.2,82.1,10.4,82.1z M10.4,90.6c-0.2,0.3-0.1,0.5,0.2,0.6
	c0.3,0.1,0.5,0,0.5-0.3c-0.2,0-0.2,0-0.2-0.1C10.9,90.7,10.7,90.6,10.4,90.6z M11.1,86.7c0.2,0.8,0.7,1.2,1.6,1.2
	c0-0.6-0.3-1.1-0.9-1.5C11.2,86,10.9,86.1,11.1,86.7z M11.3,95c0.2,0,0.4-0.2,0.7-0.5C11.5,94.5,11.3,94.7,11.3,95z M15.2,54.8
	c0.8,0.2,1.2-0.1,1.3-0.7c0.1-0.6-0.3-0.9-1-0.9c-0.2,0.3-0.3,0.6-0.5,0.9C14.9,54.4,14.9,54.7,15.2,54.8z M16.6,81.6
	c0.2-0.5-0.1-0.7-0.7-0.7c0,0.3,0.1,0.5,0.2,0.7C16.3,81.8,16.5,81.8,16.6,81.6z M17.5,62.2c0.5,0,0.7-0.2,0.7-0.5
	C17.8,61.8,17.5,61.9,17.5,62.2z M24.9,79.8c0.2-1.5-0.3-2.6-1.5-3.1c-1.2-0.5-2.3-0.4-3.6,0.3c-0.3,0.3-0.5,0.7-0.6,1.3
	c-0.1,0.5-0.4,0.8-1,0.8c0.3,1.2,0.7,2,1.2,2.4c0.5,0.4,1.3,0.7,2.5,0.8C23.6,82.6,24.6,81.8,24.9,79.8z M20.8,68.9
	c0.6,0,0.8-0.2,0.5-0.5C20.9,68.1,20.8,68.3,20.8,68.9z M227.2,17.2c0.2,0.8,0.3,1.5,0.5,2.1c0.2,0.6,0.2,1.3,0,2.1
	c0,0.5-0.2,0.9-0.7,1.4c0.5,0.8,0.7,1.5,0.7,2.3c0,0.8,0,1.5-0.1,2.2c-0.1,0.7-0.3,1.3-0.8,2c-0.8,0-1.5,0-2.2,0.1
	c-0.7,0.1-1.4,0.1-2.2,0.1c-0.6,0-1.1-0.1-1.4-0.2c-0.6-0.3-1-0.4-1-0.3c-0.1,0.1-0.4,0.2-1,0.3c-0.8,0-1-0.3-0.6-1
	c0.4-0.7,0.6-1.2,0.6-1.5c-0.5,0-0.8,0.4-1.2,1.2c-0.3,0.6-0.7,1-1,1c-0.4,0.1-1,0.2-1.7,0.3c-1.2,0.3-2.5,0.4-3.8,0.3
	c-1.3-0.1-2.6-0.2-3.8-0.3c-1.2-0.2-2.5-0.2-3.8-0.1c-1.3,0.1-2.6,0.2-3.8,0.3c-1.2,0-2.4-0.1-3.5-0.2c-1.1-0.2-2.2-0.2-3.5-0.2
	c-2.8,0-5.5,0.1-8.3,0.2c-2.8,0.2-5.5,0.2-8.3,0.2c-1.2,0-2.4-0.1-3.6-0.3c-1.2-0.2-2.3-0.3-3.3-0.1c-0.8,0.2-1.9,0.2-3.5,0.1
	c-1.5-0.1-1.9-0.8-1.2-2.2c-0.8,0.2-1.1,0.5-0.9,0.9c0.2,0.5,0.2,1,0,1.6c-0.8-0.2-1-0.4-0.8-0.8c0.2-0.4,0.2-0.7-0.1-1
	c-0.8,0-1.2,0.3-1.2,0.8c0,0.5-0.6,0.8-1.8,0.8c-1.2-0.2-2.4-0.2-3.6-0.1c-1.2,0.1-2.3,0.1-3.6,0.1c-1.7,0-3.5-0.1-5.3-0.2
	c-1.8-0.2-3.6-0.1-5.3,0.2c-1.5,0.2-3,0.2-4.4,0c-0.5-0.3-1.4-0.4-2.8-0.2c-1.4,0.2-2.2,0.4-2.5,0.7c-1.7-0.5-3.6-0.5-5.8-0.2
	c-2.2,0.3-4.1,0.1-5.8-0.7c-0.8-0.3-1.4-0.3-2-0.1c-0.5,0.2-1.1,0.5-1.7,0.8c-0.6,0.3-0.9,0.6-0.8,0.8c0.1,0.2,0.1,0.7,0.1,1.3
	c0.5,0.2,1.2,0.2,2.3,0.2c0.8,0.2,1.2,0.3,1.4,0.5c0.2,0.2,0.5,0.5,1.2,0.9c0.3,0.2,0.7-0.1,1-0.8c0.4-0.7,1-1,1.7-0.8
	c0.8,0.2,1.5,0.3,2.2,0.5c0.7,0.2,1.4,0.2,2.2,0c0.6-0.2,1.5-0.1,2.7,0.1c1.2,0.2,1.9,0.2,2.2-0.1c0.3-0.3,0.9-0.4,1.7-0.2
	c0.8,0.2,1.5,0.2,2,0.2c1.1-0.2,2.1-0.2,3,0c0.9,0.2,1.9,0.2,3,0.2c1.7-0.2,3.4-0.3,5.2-0.5c1.8-0.2,3.5-0.1,5.2,0.2
	c2,0.3,3.9,0.3,5.8,0.1c1.8-0.2,3.8-0.3,5.8-0.3c0.9-0.2,1.8-0.2,2.8-0.1c0.9,0.1,1.8,0.2,2.8,0.3c1.1,0.2,2.2,0.1,3.2-0.2
	c1.1-0.3,2.1-0.3,3,0c1.7,0.6,3.6,0.6,5.7,0c2.1-0.6,3.9-0.5,5.4,0.2c0.8-0.3,1.6-0.4,2.5-0.3c0.9,0.1,1.8,0.2,2.8,0.3
	c0.9,0.2,1.8,0.1,2.7-0.1c0.8-0.2,1.8-0.3,2.9-0.1c0.8,0.2,1.6,0.2,2.5,0c0.9-0.2,1.8-0.2,2.5,0c0.5,0,1.5,0,3.1-0.1
	c1.6-0.1,2.5,0,2.7,0.1c0.6,0.6,1,1.7,1.3,3.1c0.2,1.5,0.3,2.9,0.1,4.3c-0.2,1.4-0.5,2.5-1.2,3.5c-0.6,0.9-1.5,1.1-2.5,0.5
	c-0.3,0.8-1,1.1-2.1,0.9c-1.1-0.2-1.8-0.4-2.3-0.7c-1.4,0.5-2.8,0.7-4.2,0.7c-1.4,0-2.8-0.1-4.2-0.2c-1.5,0-2.7-0.1-3.5-0.2
	c-1.2,0.5-2.7,0.5-4.4,0.2c-0.3,0-0.7-0.1-1.3-0.3c-0.5-0.2-1-0.2-1.3,0.1c-0.6,0.5-1.4,0.3-2.3-0.5c-0.6,0.8-1.6,1.1-2.9,1
	c-1.3-0.1-2.4-0.1-3.3-0.1c-1.2,0-2.5,0-3.8,0c-1.3,0-2.6-0.2-3.8-0.5c-1.1-0.2-2.2-0.1-3.2,0.1c-1.1,0.2-2.2,0.3-3.5,0.1
	c-1.2-0.2-2.4-0.1-3.6,0.1c-1.2,0.2-2.3,0.2-3.6-0.1c-0.6,0-1.2,0-1.6-0.1c-0.5-0.1-1,0-1.6,0.1c-0.8,0.3-1.3,0.4-1.7,0.2
	c-0.4-0.2-0.9-0.2-1.5-0.2c-0.8,0-1.6,0.1-2.4,0.2c-0.8,0.2-1.7,0.2-2.4,0.2c-0.6,0.2-1.2,0.1-1.6-0.1c-0.5-0.2-1.1-0.3-1.8-0.1
	c-0.3,0-0.7,0-1.2,0.1c-0.5,0.1-0.9,0-1.4-0.1c-0.6-0.2-1-0.4-1-0.7c-0.1-0.3-0.3-0.2-0.8,0.5c-0.3,0.5-0.7,0.7-1.3,0.7
	c-0.5,0-1-0.1-1.4-0.3c-0.4-0.2-0.6-0.5-0.7-0.9c-0.1-0.4,0.3-0.7,1-1c-1.1-0.2-1.6,0.5-1.6,1.8c-0.8-0.3-1.6-0.4-2.5-0.2
	c-0.9,0.2-1.8,0.2-2.5,0.2c-0.9,0.2-1.9,0.2-2.9,0.2c-1,0-2,0-3.1,0c-0.9,0-1.6,0.3-2,0.8c-0.4,0.5-0.6,1.2-0.7,1.8
	c-0.1,0.7-0.1,1.4-0.1,2.2c0,0.8-0.1,1.5-0.2,2.1c-0.2,0.8-0.2,1.6-0.1,2.5c0.1,0.9,0,1.8-0.1,2.8c-0.5,1.7-1.2,3.4-2.1,5.1
	c-0.3,0.8-0.7,1.6-1.2,2.4c-0.5,0.8-0.8,1.7-1.2,2.4c-0.8,0.5-1.4,1-1.8,1.6c-0.5,0.6-1.1,1.2-1.8,1.8c-0.5,0.5-1,0.8-1.6,1.2
	c-0.6,0.3-1.2,0.7-1.6,1.2c-0.8,0.6-1.5,1.2-2.2,1.7c-0.7,0.5-1.4,1-2.2,1.3C100,75.5,99,75.7,98,76c-1,0.2-2,0.5-2.9,0.8
	c-1.1,0.3-2.1,0.3-3,0.1c-0.9-0.2-2-0.3-3.2-0.1c-1.1,0-2.1,0-3.1-0.1c-1-0.1-2-0.3-3.1-0.8c-0.8-0.5-1.5-0.9-2.3-1.3
	c-0.8-0.4-1.6-0.7-2.5-1c-1.8-0.8-3.5-1.8-4.8-3.2c-1.4-1.4-2.7-2.8-3.9-4.2c-0.6-0.5-1.1-1.2-1.5-2.2c-0.4-1-0.8-2-1.3-3
	c-0.5-1-1-1.9-1.5-2.7c-0.5-0.8-1.3-1.2-2.2-1.2c-0.9,0.2-1.7,0.5-2.4,0.9c-0.7,0.5-1.4,0.9-2.2,1.4c-0.9,0.2-1.7,0.1-2.3-0.2
	c-0.6-0.3-1.3-0.7-2.1-1.2c-1.2-0.8-1.8-2.3-1.8-4.5c0-2.2,0.5-3.8,1.4-4.7c1.2-1.2,1.9-2.8,2.1-4.6c0.2-1.8-0.2-3.6-0.9-5.3
	c-0.3-1.1-1.1-2-2.3-2.8c-1.2-0.8-2.4-1.3-3.5-1.6c-1.5-0.3-3.1,0-4.6,0.9c-1.5,0.9-3,1.8-4.4,2.5c-1.7,0.8-3.2,1-4.4,0.7
	c-1.2-0.3-2.5-1-3.7-2.1c-1.4-0.9-2.1-2.1-2.1-3.5c-0.2-0.6-0.2-1.6-0.2-2.9c0-1.3,0.5-1.9,1.4-1.7c-0.5-0.6-0.6-1.2-0.3-1.8
	c0.2-0.6,0.5-1.2,0.8-1.8c0.3-0.8,0.4-1.4,0.2-2c-0.2-0.5-0.1-1.1,0.2-1.7c0.6-1.5,1.7-2.2,3.2-1.8c0.3,0,0.7,0,1-0.1
	c0.4-0.1,0.7,0,1,0.1c0.3,0.3,0.3,0.6,0,0.8c-0.3,0.2-0.4,0.5-0.2,0.8c0.5,0.2,0.9-0.2,1.4-0.9c0.5-0.8,1-1.2,1.6-1.2
	c2.5-0.3,4.1-1.2,4.8-2.8c-1.4,0.5-2.1-0.1-2.1-1.6c-0.2-0.3-0.4-0.4-0.7-0.2c-0.3,0.2-0.5,0.1-0.7-0.2c-0.6-0.6-1.2-1.4-1.6-2.3
	c-0.5-0.6-1-1.4-1.5-2.4c-0.5-1-1-2-1.3-3c-0.3-1-0.4-2-0.3-2.9c0.1-0.9,0.6-1.7,1.5-2.3c1.1-0.8,2-1.1,2.7-0.9
	C41,0.3,41.6,0.7,42,1.4c0.5,0.7,0.9,1.5,1.3,2.4c0.4,0.9,0.8,1.6,1.3,2.1c1.1,1.1,2.2,2,3.5,2.9c1.2,0.8,2.6,1.3,4.2,1.5
	c1.4,0.2,2.2-0.5,2.5-2c0.3-1.5,0.5-2.7,0.7-3.6c0.2-0.6,0.3-1.3,0.5-2C56,2.1,56.4,1.5,57,1c0.6-0.6,1.4-0.8,2.3-0.6
	c0.9,0.2,1.8,0.3,2.5,0.1c1.2-0.2,2.4-0.2,3.5-0.1c1.1,0.1,2.2,0.1,3.5,0.1c1.2-0.2,2.4-0.3,3.6-0.5C73.5,0,74.7,0,76,0.1
	c0.9,0,1.5,0.3,1.6,0.9C78,1,78.5,1,79,0.8c0.5-0.2,0.9-0.3,1.4-0.5c0.8-0.2,1.6-0.2,2.5-0.2c0.9,0,1.7,0.4,2.3,1.2
	c0.3-0.2,0.4-0.3,0.3-0.3c-0.1-0.1-0.2-0.2-0.3-0.3c-0.2-0.2-0.2-0.2,0-0.2c0.2,0,0.7,0,1.6,0c1.8,0.3,3.8,0.3,6,0
	c3.8-0.2,7.7-0.2,11.5,0c0.8,0,1.5,0,2.3,0.1c0.8,0.1,1.5,0.1,2.3,0.1c0.6,0,1.3-0.1,2-0.2c0.7-0.2,1.3-0.2,2,0
	c0.8,0.3,1.3,0.4,1.7,0.3c0.4-0.1,0.9,0.3,1.5,1.3c1.1,1.2,1.5,2.6,1.2,4.2c-0.3,1.2,0.1,2.1,1.2,2.7c1.1,0.5,2.4,0.9,3.9,1
	c1.5,0.2,3.1,0.2,4.7,0c1.6-0.2,2.8-0.2,3.6-0.2c0.8-0.2,1.5-0.2,2.2-0.2c0.7,0,1.4-0.1,2.2-0.2c0.8,0,1.5,0.2,2.2,0.5
	c0.7,0.3,1.4,0.3,2.2,0c1.7-0.6,3.5-0.8,5.5-0.5c2,0.3,3.8,0.5,5.5,0.5c0,0.3,0,0.8-0.1,1.6c-0.1,0.8,0.2,0.8,0.8,0
	c0.3-0.3,0.5-0.6,0.5-0.9c0.3-0.6,0.6-0.8,0.8-0.7c0.2,0.2,0.5,0.2,0.8,0c0.8-0.3,1.1-0.3,0.9,0.1c-0.2,0.4-0.1,0.8,0.2,1.3
	c0.9-0.3,1.3-0.7,1.3-1.2c-0.1-0.5,0.3-0.5,1.3-0.2c1.7,0.3,3.2,0.3,4.6,0c1.4-0.3,2.9-0.5,4.6-0.5c0.8,0.2,1.6,0.2,2.4,0.2
	c0.8,0,1.7,0,2.4,0c1.2,0,2.2-0.1,2.8-0.2c0.3,0.3,0.5,0.6,0.7,0.9c0.2,0.3,0.4,0.6,0.7,0.9c0.8-0.9,1.4-1.3,1.8-1.3
	c0.5,0.1,1.3,0,2.5-0.1c0.5,0,0.9,0,1.4-0.1c0.5-0.1,1-0.2,1.6-0.3c0.5,1.1,0.2,1.8-0.7,2.3c0.3,0.3,0.8,0.3,1.4-0.1
	c0.6-0.4,0.8-0.7,0.5-1c-0.3-0.9,0-1.3,0.8-1.2c0.8,0.2,1.4,0.4,1.7,0.7c0.3,0.3,0.8,0.5,1.6,0.5c0.8,0,1.4-0.2,1.8-0.5
	c0.8-0.5,1.5-0.6,2.1-0.5c0.6,0.2,1.3,0.2,2.1,0c1.2-0.3,2.7-0.3,4.4,0c1.7,0.3,3.2,0.2,4.4-0.5c1.1-0.3,2-1.2,2.8-2.5
	c0.8-1.2,1.2-1.6,1.2-1c0,0.5,0.3,0.7,0.9,0.6c0.3-0.5,0.2-0.7-0.3-0.7c-0.5,0-0.6-0.3-0.1-0.9c0.3-0.3,0.8-0.7,1.4-1.2
	c0.6-0.5,1.1-0.5,1.4-0.2c0.6,0.5,1.1,0.6,1.4,0.3c0.3-0.2,0.7-0.6,1.2-1c0.8-0.8,2-0.9,3.7-0.5c1.2,0.3,1.9,1.3,2.1,2.9
	c0.2,1.6,0.4,2.9,0.7,3.8c0.2,0.6,0.6,1,1.3,1c0.7,0.1,1.4,0.1,2.2,0.1c0.8,0,1.5,0,2.3,0c0.8,0,1.4,0.2,1.8,0.7
	c0.8,0.8,1.1,1.8,0.9,3.2C227.2,14.9,227.2,16.1,227.2,17.2z M29.3,65c0.2,0,0.2,0,0.2-0.1c0-0.1,0.1-0.1,0.2-0.1
	c-0.2-0.2-0.4-0.2-0.7-0.2C29.1,64.8,29.2,65,29.3,65z M30,45.1c-0.3,0.3-0.4,0.7-0.2,1.3c0.2,0.5,0.5,0.7,1.2,0.6
	c0.3-0.3,0.3-0.7,0.1-1.2C30.8,45.4,30.5,45.1,30,45.1z M30.2,48.1c0,0.6,0.2,0.8,0.7,0.7c0.2-0.2,0.2-0.3,0-0.5
	C30.8,48.2,30.5,48.1,30.2,48.1z M36.5,57.4c0.2-0.8,0.1-1.6-0.2-2.5c-0.3-0.9-0.8-1.5-1.6-1.8c-0.9-0.2-1.7,0.1-2.4,0.7
	c-0.7,0.6-1.2,1.3-1.5,2.2c-0.3,0.8-0.3,1.7,0,2.4c0.3,0.8,1.1,1.2,2.3,1.2c0.8,0.2,1.5,0.1,2.2-0.2C35.9,58.9,36.3,58.3,36.5,57.4z
	 M32.1,26.2c0.2-0.3,0.1-0.5-0.1-0.5c-0.2,0-0.4-0.1-0.6-0.2C31.4,26.3,31.6,26.5,32.1,26.2z M35.6,86c-0.3,0.3-0.3,0.6-0.1,0.9
	c0.2,0.3,0.5,0.3,0.8,0C36.2,86.6,36,86.3,35.6,86z M36.2,38c0.2-0.6-0.1-0.8-0.7-0.7C35.6,37.7,35.8,38,36.2,38z M37.2,59.4
	c0.6,0,0.9-0.2,0.9-0.7c-0.3,0-0.6,0-0.8,0S37,59,37.2,59.4z M38.6,23.9c0.8-0.2,1.2-0.5,1.4-1.2c0.2-0.6-0.2-1.1-0.9-1.4
	c0,0.5-0.3,0.6-1,0.5c-0.7-0.2-1,0.2-0.8,0.9c0.2,0.3,0.4,0.5,0.8,0.5C38.4,23.2,38.6,23.4,38.6,23.9z M37.2,74
	c0.5,0,0.6-0.1,0.3-0.3C37.3,73.4,37.2,73.5,37.2,74z M38.6,86c0.5,0.2,0.7,0,0.7-0.5c0-0.5-0.2-0.6-0.7-0.5
	c-0.3,0.3-0.4,0.5-0.2,0.5C38.5,85.5,38.6,85.7,38.6,86z M38.6,36.1c0.5,0,0.6-0.1,0.3-0.3C38.7,35.6,38.6,35.7,38.6,36.1z
	 M40.6,94.5c0.2-0.5-0.1-0.8-0.7-1.2c-0.3,0.3-0.3,0.6-0.1,0.8C40.1,94.4,40.3,94.5,40.6,94.5z M40.6,26.2c0.2-0.3,0.4-0.6,0.7-0.8
	c0.3-0.2,0.5-0.6,0.5-1c-0.3-0.3-0.6-0.3-0.9-0.1c-0.3,0.2-0.6,0.4-0.9,0.6c0.2,0.3,0.2,0.6,0.2,0.9C40.2,26.1,40.3,26.2,40.6,26.2z
	 M40.4,21.4c0,0.3,0,0.6,0.1,0.9c0.1,0.3,0.1,0.7,0.1,1.2c1.1-0.2,1.4-0.5,1-0.9C41.3,22,40.9,21.7,40.4,21.4z M42.2,77
	c0.2-0.5,0.1-0.7-0.1-0.7c-0.2,0-0.5,0-0.8,0c-0.2,0.3-0.1,0.5,0.2,0.5C41.9,76.8,42.1,76.8,42.2,77z M41.8,60.8
	c0.5,0,0.7-0.1,0.8-0.2c0.1-0.2,0-0.3-0.1-0.5C42.3,60,42.2,59.9,42,60C41.9,60.1,41.8,60.4,41.8,60.8z M44.1,26.7
	c0.3-0.3,0.6-0.6,0.8-0.9c0.2-0.3,0.3-0.7,0.3-1.2c-1.2,0.2-2,0.9-2.3,2.3c0.5,0.2,0.7,0.3,0.7,0.5C43.6,27.5,43.8,27.3,44.1,26.7z
	 M44.1,77c0.2-0.3,0.1-0.5-0.2-0.6c-0.3-0.1-0.5,0-0.5,0.3c0.2,0,0.2,0,0.2,0.1C43.6,77,43.8,77,44.1,77z M50.8,28.5
	c-0.2,0.3,0,0.4,0.5,0.3c0.5-0.1,0.5-0.3,0.2-0.6H51C50.9,28.3,50.8,28.4,50.8,28.5z M54.5,47.9c0,0.5,0.2,0.7,0.7,0.7
	c0.2-0.3,0.2-0.5,0.2-0.6C55.4,47.9,55.1,47.9,54.5,47.9z M55.4,51.4c0.2-0.3,0-0.5-0.3-0.6c-0.4-0.1-0.6,0-0.6,0.3
	c0.2,0,0.3,0,0.3,0.1C54.9,51.3,55.1,51.4,55.4,51.4z M55.9,29.7c1.2,0.5,2.2,0.5,3,0.1c0.8-0.4,1.3-1,1.5-1.8
	c0.2-0.8,0.2-1.7,0-2.5c-0.2-0.8-0.7-1.5-1.5-2c-2-0.2-3.3,0.5-3.9,2.1C54.3,27,54.6,28.4,55.9,29.7z M58.9,42.1
	c0.3-0.8,0.2-1.2-0.5-1.4c-0.8,0-1.2,0.2-1.4,0.5C57.2,41.8,57.8,42.1,58.9,42.1z M58.6,14.7c0.6,0,0.8-0.2,0.5-0.7
	C58.8,13.5,58.6,13.7,58.6,14.7z M60.5,30.4c0.2-0.5,0-0.7-0.5-0.7v0.7H60.5z M60.7,11c0,0.6,0.5,0.8,1.6,0.6
	c1.1-0.2,1.8-0.5,2.1-0.8c-0.8,0.2-1.5,0.1-2.1-0.1C61.7,10.4,61.2,10.5,60.7,11z M62.3,23.7c-0.3-0.3-0.5-0.4-0.7-0.2v0.2H62.3z
	 M62.3,13.3c0.5-0.5,0.4-0.7-0.2-0.7c-0.3,0.2-0.4,0.3-0.3,0.5C61.8,13.2,62,13.3,62.3,13.3z M62.1,7.5c0.3,0.2,0.5,0,0.5-0.3
	c0-0.4-0.2-0.5-0.5-0.3V7.5z M65.3,35.4c-0.3-0.2-0.5,0-0.5,0.3c0,0.4,0.2,0.5,0.5,0.3c0-0.3,0.1-0.4,0.2-0.3
	C65.7,35.9,65.6,35.7,65.3,35.4z M65.1,39.4c0.3,0.3,0.6,0.2,0.9-0.2c-0.2-0.2-0.3-0.2-0.6-0.2C65.2,38.9,65.1,39.1,65.1,39.4z
	 M66,24.4c0.5,0,0.7-0.2,0.7-0.7c-0.2,0-0.4,0-0.8,0C65.5,23.7,65.6,23.9,66,24.4z M66.5,54.6c0.2-0.5,0-0.8-0.5-1.2
	c-0.2,0.2-0.2,0.5-0.2,0.9c0.2,0,0.3,0,0.3,0.1C66.2,54.6,66.3,54.6,66.5,54.6z M67.2,15.1c0-0.3-0.2-0.5-0.5-0.5
	c-0.3,0-0.5,0.2-0.5,0.5c0.2,0,0.3,0,0.3,0.1C66.7,15.3,66.9,15.3,67.2,15.1z M67.4,23c0.6-0.3,0.7-0.5,0.2-0.5
	C67.2,22.5,67.1,22.7,67.4,23z M67.4,24.8c0.5,0,0.6-0.1,0.3-0.3C67.5,24.2,67.4,24.4,67.4,24.8z M68.8,51.1c0.2-0.8,0-1-0.6-0.7
	c-0.5,0.3-0.7,0.6-0.3,0.9C67.9,51.5,68.2,51.4,68.8,51.1z M68.8,11.9c0.5-0.3,0.4-0.3-0.1,0C68.1,12.2,68.2,12.2,68.8,11.9z
	 M70.6,21.4c-0.3,1.2-0.3,2.5-0.1,3.7c0.2,1.2,0.3,2.5,0.3,3.7c0,1.2,0,2.3,0.1,3.2c0.1,0.9,0.6,1.8,1.5,2.8
	c0.6,0.8,1.2,1.3,1.8,1.7c0.6,0.4,1.3,0.8,2.1,1.3c0.9,0.8,1.9,1.1,2.9,0.9c1-0.2,2.1-0.2,3.3-0.2c0.5,0.2,0.9,0.3,1.3,0.5
	c0.4,0.2,0.8,0.2,1.3,0.2c0.5,0,1-0.1,1.5-0.2c0.5-0.2,1-0.2,1.5-0.2c1.4-0.2,2.7-0.2,4-0.1c1.3,0.1,2.7,0.2,4,0.3
	c1.4,0,2.7,0,4,0.1c1.3,0.1,2.7,0,4-0.3c0.3-1.2,0.5-2.2,0.5-2.8c0.2-1.1,0-1.7-0.6-1.7c-0.5-0.1-1.2,0-2,0.1
	c-1.2,0.2-2.4,0.3-3.6,0.3c-1.2,0.1-2.3-0.1-3.3-0.6c-0.8,0.3-1.7,0.5-2.7,0.6c-1,0.1-1.9-0.3-2.7-1c-0.3,0.9-1.3,1.3-2.9,1
	c-1.6-0.2-2.8-0.3-3.6-0.3c-0.9,0-2.2,0.1-3.9,0.3c-1.7,0.2-2.9,0-3.7-0.8c-0.9-1.2-1-2.7-0.2-4.4c0.5-0.6,1.1-1.1,1.8-1.4
	c0.5,0,0.8,0.1,0.9,0.2c0.3,0.3,0.6,0.3,0.9,0.1c0.3-0.2,0.7-0.3,1.2-0.1c0.9,0.2,1.9,0.2,3,0c0.8-0.3,1.5-0.3,2.1-0.1
	c0.6,0.2,1.3,0.3,2.1,0.1c0.8,0,1.4-0.1,1.8-0.2c0.5-0.2,1.1-0.2,1.8,0c0.3,0,0.7,0,1,0.1c0.4,0.1,0.8,0.1,1.3,0.1
	c0.5,0.2,0.8,0.1,1.2-0.1c0.3-0.2,0.7-0.3,1.2-0.3c1.2,0.2,2.5,0.3,3.8,0.3c1.3,0.1,2.6,0,3.8-0.1c0.8,0,1.1-0.2,1-0.6
	c-0.1-0.4,0-1,0.1-1.7c0-0.6,0-1.3,0-2c0-0.7-0.4-1-1.2-1c-2.9,0-5.8,0-8.7-0.1c-2.8-0.1-5.7,0-8.4,0.1c-0.8,0-1.9,0.1-3.3,0.2
	c-1.5,0.2-2.9,0.2-4.3,0c-1.4-0.2-2.5-0.6-3.2-1.3c-0.8-0.7-0.8-1.8-0.2-3.3c0.3-1.2,1-1.9,2.2-2c1.2-0.1,2.3,0,3.3,0.1
	c0.6,0.2,1.2,0.3,1.8,0.3c0.6,0.1,1.2,0,1.8-0.3c0.3-0.2,0.8-0.3,1.5-0.3c0.7-0.1,1.2,0,1.5,0.3c0.2,0.3,0.8,0.4,2,0.2
	c1.2-0.2,2-0.2,2.4-0.2c1.2-0.2,2.5-0.3,3.9-0.3c1.4-0.1,2.6,0.3,3.7,1c0.2-0.8,0.8-1,1.8-0.8c1.1,0.2,1.8,0.2,2.3-0.1
	c0.3-0.3,0.5-1.2,0.7-2.7c0.2-1.5-0.1-2.2-0.7-2.2c-0.8,0.6-1.7,0.8-2.7,0.7c-1-0.2-2-0.2-2.9-0.2c-1.2,0-2.4,0.1-3.6,0.2
	c-1.2,0.2-2.3,0.2-3.6,0.2c-1.2,0-2.4-0.1-3.6-0.3c-1.2-0.2-2.3-0.3-3.6-0.3c-2.3,0-4.6,0.4-6.9,1.2C73.3,14.4,71.1,17.2,70.6,21.4z
	 M71.1,52.8c0-0.2,0.1-0.4,0.3-0.7c0.2-0.3,0-0.4-0.8-0.2C70.6,52.3,70.8,52.6,71.1,52.8z M110.1,54.8c0.3-0.2,0.2-0.4-0.2-0.7
	c-0.5-0.3-1-0.5-1.7-0.7c-0.7-0.2-1.7-0.4-3.1-0.7c-2.6,0-5.3,0-8,0.1c-2.7,0.1-5.3,0-8-0.1c-1.1,0-2,0.4-2.9,1.2
	c-0.8,0.8-0.7,1.5,0.6,2.3c0.3,0.3,0.7,0.5,1,0.6c0.4,0.1,0.7,0.3,1,0.6c0.8,0.5,1,0.7,0.7,0.8c-0.3,0.1-0.4,0.3-0.2,0.8
	c0.3,0.2,0.5,0.2,0.7,0c0.2-0.2,0.4-0.2,0.7,0c0.5,0.6,0.5,1.5,0.2,2.5c-0.3,0.9-0.6,1.7-0.9,2.4c-0.3,0.7-1.1,1-2.3,0.8
	c-1.1,0-2-0.2-2.7-0.7c-0.7-0.5-1.4-1-2.2-1.6c-0.8-0.6-1.6-1.1-2.4-1.4c-0.8-0.3-1.6-0.9-2.2-1.8c-0.6-0.8-1.1-1.6-1.4-2.4
	c-0.3-0.8-0.8-1.7-1.6-2.4c-0.6,0.2-1.2,0.1-1.8-0.2c-0.6-0.3-1,0.2-1.2,1.4c-0.2,1.8,0.3,3.5,1.5,5.1c1.2,1.5,2.3,2.9,3.6,4.2
	c0.6,0.6,0.9,1.1,0.9,1.4c0.5,0,0.8,0,0.9,0c0.2,0,0.5,0.2,0.9,0.5c0.8,0.6,1.6,1.1,2.5,1.5c0.9,0.4,1.8,0.7,2.8,1
	c4.6,1.2,8.9,0.9,12.9-0.9c4-1.7,7.2-4.5,9.5-8.5c0.3-0.8,0.6-1.7,0.8-2.7C108.9,56,109.4,55.3,110.1,54.8z M74.6,11
	c0.3,0.2,0.5,0,0.5-0.3c0-0.4-0.2-0.5-0.5-0.3V11z M81,4.7c-0.3,0.9-0.1,1.6,0.7,2.1c0.3-0.5,0.3-0.9,0.1-1.4S81.3,4.7,81,4.7z
	 M83.1,2.2C83,2.5,83,2.7,83.3,2.9C83.6,3,83.9,3,84,2.7c-0.3,0-0.5-0.1-0.5-0.3C83.6,2.1,83.4,2,83.1,2.2z M85.2,61.5
	c-0.2-0.3-0.4-0.5-0.7-0.5v0.5H85.2z M85.9,44.2c0.5-1.2,0.2-1.5-0.7-0.9C85.2,43.7,85.4,44.1,85.9,44.2z M85.7,6.8
	c0.6,0,0.8-0.2,0.6-0.5C86,6,85.7,5.9,85.4,5.9C85.6,6,85.7,6.3,85.7,6.8z M88.2,43.3c-0.5-0.3-0.7-0.3-0.6,0
	C87.7,43.6,87.9,43.6,88.2,43.3z M89.3,4c-0.2,0.2-0.2,0.4-0.2,0.8c0,0.4,0.2,0.5,0.5,0.3C89.9,5,90,4.8,90,4.4
	C90,4,89.8,3.9,89.3,4z M90.5,17.2c-0.2,0-0.3,0-0.3-0.1c-0.1-0.1-0.3,0-0.6,0.1c0,0.3,0.2,0.5,0.5,0.5
	C90.3,17.7,90.5,17.5,90.5,17.2z M90.3,32.4c0-0.6-0.1-1-0.2-1c-0.2-0.1-0.3,0-0.3,0.1c-0.1,0.2-0.1,0.3,0,0.6
	C89.8,32.3,90,32.4,90.3,32.4z M100,73.3c0.8-0.5,0.8-1.1,0-2c-0.8-0.8-1.4-1.1-1.8-0.8c0.2,0.8,0.4,1.3,0.8,1.6
	C99.3,72.5,99.7,72.8,100,73.3z M99,4c-0.2,0.3-0.1,0.6,0.2,0.8c0.3,0.2,0.5,0.2,0.7-0.1c-0.2-0.2-0.3-0.3-0.3-0.6
	C99.5,3.9,99.3,3.9,99,4z M103.2,45.8c-0.3-0.5-0.7-0.5-1.2-0.2c-0.5,0.3-0.8,0.3-1.2,0c-0.2,0.5-0.2,0.8,0,1.2
	c0.3-0.3,0.7-0.5,1.2-0.5C102.5,46.3,102.9,46.1,103.2,45.8z M101.1,21.8c0.3-0.2,0.7-0.7,1.2-1.5c0.5-0.8,0.3-1.2-0.5-1
	c0,0.5-0.2,0.9-0.6,1.3C100.8,20.9,100.8,21.4,101.1,21.8z M103.9,32.2c0.3-0.3,0.4-0.5,0.2-0.7c-0.3-0.2-0.5-0.1-0.6,0.2
	C103.5,32.1,103.6,32.2,103.9,32.2z M104.6,20.2c0.8,0,1-0.2,0.6-0.6C104.8,19.2,104.6,19.4,104.6,20.2z M106.9,42.6
	c0.3,0.3,0.5,0.2,0.5-0.2s-0.2-0.5-0.5-0.2V42.6z M108,17.4c0.6,0,0.8-0.1,0.5-0.3C108.2,16.9,108,17,108,17.4z M109.4,6.6
	c-0.6,0.5-0.9,1.2-0.9,2.1h1.2c-0.2-0.3-0.2-0.7,0-1.2C109.8,7,109.7,6.7,109.4,6.6z M110.1,43.7c0.3-0.5,0.4-0.8,0.2-1.2
	c-0.8,0-1.1,0.2-0.9,0.6C109.6,43.6,109.8,43.7,110.1,43.7z M110.1,25.5c-0.2-0.2-0.2-0.3-0.1-0.5c0.1-0.2,0-0.2-0.3,0
	c-0.3,0.3-0.3,0.5,0,0.7C110,25.9,110.1,25.8,110.1,25.5z M110.4,9.3c-0.5,0-0.7,0.2-0.7,0.5c0.2,0.2,0.3,0.2,0.6,0.1
	C110.5,9.9,110.5,9.7,110.4,9.3z M112.7,19.7c0,0.5,0.2,0.8,0.6,1c0.4,0.2,0.8,0.4,1.2,0.5c0.4,0.1,0.7,0,0.9-0.1
	c0.2-0.2,0.1-0.5-0.3-0.9c0-0.6-0.3-0.8-0.9-0.5c-0.8,0.3-1,0.3-0.8,0.1c0.2-0.2,0.1-0.4-0.3-0.6c-0.3,0-0.5-0.1-0.7-0.2
	c-0.2,0-0.4-0.1-0.7-0.2c-0.3,0.6-0.2,1.2,0.5,1.6L112.7,19.7z M111.7,22c0.3-0.2,0.5-0.2,0.6,0c0.1,0.2,0.2,0.3,0.3,0.5
	c0.3-0.3,0.2-0.5-0.2-0.7C112,21.7,111.7,21.7,111.7,22z M112,43.3c0.5,0.5,0.8,0.2,1.2-0.7c-0.3-0.2-0.6-0.2-0.9,0
	C111.9,42.7,111.8,43,112,43.3z M112.2,5.9c0,0.9,0.5,1.2,1.6,0.9C113.8,6.2,113.3,5.9,112.2,5.9z M113.6,23.9
	c0.3,0,0.5-0.2,0.5-0.7c-0.3-0.8-0.7-0.9-1.2-0.5c0.3,0,0.4,0.2,0.2,0.7C113,23.9,113.1,24,113.6,23.9z M114.3,4.7
	c-0.2-0.3-0.3-0.6-0.3-0.8c-0.1-0.2-0.3-0.3-0.8-0.3C113.1,4.3,113.5,4.7,114.3,4.7z M115.9,17c-0.3-0.6-0.7-1-1.2-1.3
	c-0.5-0.2-0.8,0-1.2,0.8C114.2,16.8,115,17,115.9,17z M114,19.5c-0.3-0.3-0.2-0.5,0.2-0.5c0,0.5,0.2,0.6,0.7,0.5
	c0.3-0.3,0.5-0.5,0.5-0.7c-0.8,0-1.3-0.1-1.6-0.2C113.7,19,113.7,19.4,114,19.5z M113.8,1.7c0.2,0,0.4-0.2,0.7-0.5
	c-0.2-0.2-0.4-0.2-0.7-0.2V1.7z M114.7,10c-0.3-0.2-0.5-0.3-0.5-0.6c0-0.2-0.2-0.3-0.5-0.1v0.9C114.4,10.3,114.7,10.2,114.7,10z
	 M116.4,37.1c-0.8,0-1.4,0.5-1.8,1.6c0.3,0.2,0.7,0,1.3-0.5C116.3,37.7,116.5,37.4,116.4,37.1z M115.7,22.3c-0.3,0.5-0.1,1,0.6,1.7
	c0.7,0.7,1.1,0.7,1.3-0.1c-0.2-0.3-0.3-0.4-0.6-0.3c-0.2,0.1-0.4,0-0.6-0.3c0.3-0.2,0.3-0.5,0.1-0.9C116.2,21.8,116,21.8,115.7,22.3
	z M117.7,20.9c0,0.2,0.1,0.3,0.2,0.5c0-0.9-0.2-1.3-0.7-1.2c-0.5,0.2-0.6,0.5-0.5,1.2c0.3,0.2,0.5,0.1,0.5-0.2
	C117.3,20.8,117.4,20.7,117.7,20.9z M120.3,20.9c0-0.3,0.3-0.5,1-0.5c0.7,0,0.8-0.5,0.3-1.4c-0.8-0.2-1.2-0.1-1.3,0.1
	c-0.1,0.2-0.4,0-1-0.8c0-0.2-0.3-0.3-0.9-0.3c-0.6-0.1-1.1,0-1.4,0.3c0,0.6,0.2,1,0.5,1.2c0.3,0.2,0.7,0.2,1,0.2
	c0.4,0,0.8,0.1,1.2,0.2C120.1,20.1,120.3,20.4,120.3,20.9z M117.7,41.4c-0.3,0.3-0.3,0.6-0.1,0.8c0.2,0.2,0.5,0.3,0.8,0.1
	C118.7,41.7,118.5,41.4,117.7,41.4z M118.4,20.9c-0.3,0.3-0.4,0.7-0.2,1.2c0.8,0.2,1.1,0.1,0.9-0.2C119,21.5,118.7,21.2,118.4,20.9z
	 M120.1,24.8c0-0.5-0.2-0.8-0.7-0.9c-0.5-0.2-0.8-0.1-0.9,0.2c0.3,0.3,0.5,0.4,0.7,0.3C119.3,24.4,119.6,24.5,120.1,24.8z
	 M120.5,41.4c-0.2,0.2-0.3,0.3-0.6,0.6c-0.2,0.2-0.2,0.5,0.1,0.8c0.3,0,0.6-0.2,0.8-0.6C121.1,41.9,121,41.6,120.5,41.4z
	 M120.5,35.2c-0.2-0.3-0.3-0.3-0.5,0.1c-0.2,0.4,0,0.5,0.5,0.3V35.2z M121,23.9c-0.2,0-0.3,0.1-0.6,0.2c-0.2,0.2-0.2,0.2,0.1,0.2
	C120.8,24.4,121,24.2,121,23.9z M121.4,27.1c0.3,0,0.5-0.1,0.5-0.2c0-0.2-0.2-0.3-0.5-0.5c0,0.3-0.2,0.5-0.6,0.5
	c-0.4,0-0.5,0.2-0.3,0.7c0.6-0.2,0.8-0.2,0.6-0.2C120.9,27.4,121,27.3,121.4,27.1z M121.2,36.6c0,0.3,0,0.5-0.1,0.5
	c-0.1,0,0,0.2,0.1,0.5c0.5,0,0.7-0.2,0.7-0.6C121.9,36.6,121.7,36.4,121.2,36.6z M121.2,12.3c0,0.5,0.3,0.8,1,0.9
	c0.7,0.2,1.2,0.1,1.5-0.2c-0.3-0.5-0.7-0.8-1.3-0.9C121.9,12,121.5,12,121.2,12.3z M122.4,42.4c0.3,0,0.5-0.1,0.5-0.2
	c-0.2-0.2-0.3-0.2-0.5-0.2V42.4z M122.8,26.7c-0.6,1.2-0.1,1.7,1.6,1.4C124.4,27.4,123.9,27,122.8,26.7z M124.9,18.6
	c-0.2-0.5-0.1-0.9,0.1-1.4c0.2-0.5,0.2-0.9-0.1-1.4c-0.2,0.3-0.5,0.6-1.2,0.9C123.4,17.7,123.8,18.3,124.9,18.6z M124.4,12.3
	c-0.2,0.3-0.1,0.5,0.2,0.7c0.3,0.2,0.5-0.2,0.5-0.9c-0.2,0-0.3,0-0.3,0.1C124.7,12.3,124.6,12.3,124.4,12.3z M125.8,10.5
	c-0.2,0.3-0.3,0.5-0.6,0.5c-0.2,0-0.3,0.2-0.1,0.5c0.3,0.2,0.6,0,0.8-0.3C126.2,10.7,126.1,10.5,125.8,10.5z M127.2,19.3
	c0.3-0.5,0.6-0.5,0.8-0.1c0.2,0.4,0.5,0.6,0.8,0.6c0-0.5,0.1-1.1,0.2-1.8c0.2-0.8,0-1.3-0.5-1.6c-0.2,0.6-0.8,0.9-1.8,0.9
	c0.2,0.3,0.2,0.7,0.1,1c-0.1,0.4-0.3,0.3-0.6-0.3c0,0.8-0.4,1.4-1.2,1.8c0.3,0.8,0.7,1,1,0.6C126.6,19.9,126.9,19.6,127.2,19.3z
	 M125.4,25.3c0,0.8,0.3,1,0.9,0.7c0.6-0.3,0.8-0.6,0.5-0.9C126.4,25.2,126,25.3,125.4,25.3z M127.2,23.4c0-0.6-0.2-0.9-0.5-0.9
	c0.2,0.3,0.2,0.6,0.1,0.8C126.8,23.5,126.9,23.6,127.2,23.4z M130,13.3c0.2,0-0.2,0.1-1.2,0.3c-0.9,0.2-1.5,0.4-1.6,0.6
	c0.5,0,0.7,0.2,0.8,0.6c0.1,0.4,0.3,0.5,0.8,0.3c0-0.5,0.1-0.8,0.2-0.9c0.3,0.3,0.5,0.6,0.7,0.8c0.2,0.2,0.5,0.3,0.9,0.1
	c-0.2-0.5-0.1-0.8,0.1-1C131,13.9,130.7,13.6,130,13.3z M128.4,16.3c-0.3,0-0.4,0-0.2-0.1c0.2-0.1,0.2-0.3,0.2-0.6
	c-0.5-0.2-0.7,0-0.6,0.6C127.9,16.7,128.1,16.7,128.4,16.3z M130,21.6c0.2-0.8-0.2-1.1-0.9-1c-0.8,0.1-1.1,0.5-0.9,1.3
	C128.9,21.8,129.5,21.7,130,21.6z M130.9,23.4c0-0.5-0.1-0.8-0.2-0.9c-0.2,0.3-0.4,0.4-0.7,0.3c-0.3-0.1-0.4,0.1-0.2,0.6H130.9z
	 M130.9,11.7c-0.5-0.2-0.7,0-0.7,0.5c0,0.5,0.2,0.7,0.5,0.7c0-0.2,0-0.3,0.1-0.5C130.9,12.2,130.9,12,130.9,11.7z M137.4,19.3
	c0.3,0.6,0.5,1.3,0.5,2c0,0.7,0.2,1.3,0.5,2c0-0.8,0.4-1.3,1.3-1.6c0.8-0.3,0.8-0.6-0.1-0.9c-0.5-0.2-0.6-0.3-0.5-0.6
	c0.2-0.2,0.4-0.5,0.7-0.8c0.3-0.3,0.5-0.6,0.7-0.9c0.2-0.3,0-0.6-0.5-0.9c-0.3,0.9-1.2,1.4-2.5,1.4c-0.3-0.5-0.5-0.8-0.7-1.2
	c-0.2-0.3-0.5-0.2-0.9,0.2c-0.5,0.3-1.2,0.6-2.3,0.9c-1.1,0.3-1.9,0.4-2.5,0.2c0,0.3,0.2,0.7,0.5,1c0.3,0.4,0.5,0.7,0.5,1
	c0,0.6,0.2,0.9,0.6,0.9c0.4,0,0.6,0.4,0.6,1.2c1.4,0,2.2-1,2.5-3c0.3-1.2,0.5-1.6,0.7-1.2C136.4,19.5,136.7,19.6,137.4,19.3z
	 M131.6,17.2h0.7c0-0.5-0.2-0.7-0.7-0.7V17.2z M132.7,22.3c-0.2-0.9-0.1-1.3,0.2-1.2c0.3,0.2,0.7,0.3,1.2,0.5
	c-0.2,0.3-0.4,0.5-0.7,0.5C133.1,22,132.9,22.1,132.7,22.3z M133.2,15.1c0,0.3,0.2,0.5,0.5,0.6c0.3,0.1,0.5,0,0.7-0.3
	c-0.2-0.2-0.3-0.3-0.5-0.5C133.7,14.7,133.5,14.8,133.2,15.1z M133.9,28.7c0.2,0,0.2-0.2,0.1-0.5c-0.1-0.3-0.2-0.3-0.3,0
	C133.7,28.6,133.7,28.7,133.9,28.7z M136.4,23.7c0-0.2,0.1-0.6,0.3-1.4c0.2-0.8,0-1.1-0.8-0.9c-0.3,0.3-0.5,0.8-0.5,1.4
	C135.5,23.4,135.8,23.7,136.4,23.7z M137.1,35.7c0.3-0.5,0.3-0.9-0.1-1.3c-0.4-0.4-0.7-0.6-1-0.6c0.2,0.3,0.3,0.6,0.3,0.9
	C136.4,35.1,136.7,35.4,137.1,35.7z M137.4,17c-0.3-0.3-0.5-0.3-0.5,0C136.9,17.3,137.1,17.3,137.4,17z M137.8,15.8
	c0-0.5-0.2-0.7-0.7-0.7c0,0.3,0.1,0.5,0.2,0.5C137.5,15.6,137.7,15.7,137.8,15.8z M138.3,17.2c0.9,0.2,1.2,0,0.7-0.6
	c-0.5-0.5-0.8-0.7-0.9-0.3l0.5,0.5C138.4,16.7,138.3,16.9,138.3,17.2z M138.3,25c0.8-0.3,1.2-0.5,1.4-0.7c0.2-0.2,0.2-0.6,0.2-1.4
	C139,23,138.4,23.7,138.3,25z M140.4,26c0-0.3-0.2-0.5-0.7-0.5V26H140.4z M141.8,15.8c-0.3-0.3-0.5-0.4-0.7-0.3
	c-0.2,0.1-0.5,0-0.9-0.1c0.2,0.3,0.4,0.6,0.8,0.8C141.3,16.4,141.6,16.3,141.8,15.8z M140.1,20.4c0.2,0,0.3,0.1,0.5,0.2
	c0-0.2,0.1-0.3,0.2-0.5c-0.3,0-0.5-0.1-0.5-0.2c0,0.2,0,0.2-0.1,0.2C140.2,20.2,140.1,20.3,140.1,20.4z M140.6,37.1
	c0,0.5,0.1,0.7,0.2,0.6c0.2-0.1,0.3-0.2,0.3-0.3c0.1-0.2,0.1-0.3,0-0.5C141.1,36.7,140.9,36.7,140.6,37.1z M140.8,22.3
	c0.6,1.2,1.5,1.8,2.5,1.6c0-0.5-0.3-0.7-1-0.7c-0.7,0-0.7-0.5,0.1-1.4C142,21.8,141.4,22,140.8,22.3z M141.3,41.7
	c0.2,0,0.4-0.2,0.7-0.7c-0.2-0.2-0.4-0.2-0.7-0.2V41.7z M142.7,19.3c-0.2-0.5,0-0.8,0.3-1.2c0.4-0.3,0.6-0.7,0.6-1.2
	c-0.8,0-1.5,0.8-2.1,2.3c0.3-0.2,0.5-0.2,0.6,0C142.2,19.4,142.4,19.4,142.7,19.3z M142,33.1c-0.5,0.5-0.3,0.7,0.5,0.7
	C142.4,33.4,142.3,33.1,142,33.1z M142.4,13.5c0.5,0,0.6-0.1,0.3-0.3C142.6,12.9,142.4,13,142.4,13.5z M143.1,26.4
	c0-0.3,0.2-0.5,0.5-0.5c0.3,0,0.4-0.2,0.2-0.5c-0.3-0.2-0.6-0.1-0.9,0.2C142.6,26.1,142.7,26.3,143.1,26.4z M144.1,13
	c-0.6,0-0.9,0.2-0.9,0.5C143.6,13.5,143.9,13.4,144.1,13z M143.4,15.4c0.5,0.8,1,1.2,1.6,1.4c-0.2-0.2-0.1-0.5,0.2-1.2
	c-0.3,0.2-0.6,0.1-0.9-0.2C144,15,143.7,15,143.4,15.4z M144.5,11c0-0.5-0.1-0.6-0.2-0.5c-0.2,0.2-0.4,0.2-0.7,0.2
	c0,0.5,0.1,0.6,0.2,0.5C144,11,144.2,11,144.5,11z M144.8,14.7c1.1,0,1.3-0.2,0.7-0.7C144.8,13.5,144.6,13.7,144.8,14.7z M145,17.9
	h0.5c0-0.5-0.2-0.7-0.5-0.7V17.9z M145,24.4c0.5-0.2,0.8-0.5,1-0.9c0.2-0.5,0.3-0.9,0.3-1.4C145.4,22,145,22.8,145,24.4z
	 M146.4,26.4c-0.5,0-0.8,0.1-0.9,0.2c0.3,0,0.5,0.1,0.5,0.2c0,0.2,0.2,0.2,0.5,0.2V26.4z M146.8,21.4c0.8-0.2,1-0.4,0.8-0.7
	c-0.2-0.3-0.3-0.7-0.1-1.2c-0.3,0.3-0.6,0.3-0.9,0.1c-0.3-0.2-0.6-0.2-0.9,0.1c0.6,0,0.8,0.1,0.7,0.3c-0.2,0.2-0.4,0.4-0.7,0.6
	c0.5,0,0.6,0.2,0.3,0.5C145.8,21.4,146.1,21.5,146.8,21.4z M145.9,11.9c1.1,0.2,1.7,0.2,1.8,0c0.2-0.2,0.1-0.3-0.2-0.5
	c-0.3-0.2-0.7-0.2-1-0.2C146.1,11.2,145.9,11.4,145.9,11.9z M146.6,14.7c-0.3,0.3-0.3,0.5,0,0.5C146.9,15.1,146.9,15,146.6,14.7z
	 M148,18.6c0-0.3,0.1-0.5,0.2-0.5c0.2,0,0.2-0.2,0.2-0.5c-0.3,0-0.7-0.1-1-0.2c-0.4-0.2-0.7,0-0.8,0.5c0.5-0.3,0.7-0.3,0.8,0
	C147.5,18.2,147.7,18.4,148,18.6z M148.4,14c-0.2,0.5,0.2,0.7,0.9,0.7c0-0.3-0.1-0.5-0.3-0.5C148.8,14.2,148.6,14.1,148.4,14z
	 M149.6,17.2c-0.8-0.3-1-0.2-0.8,0.5c0.2,0.6,0.6,0.7,1,0.2c0.2-0.3,0.2-0.5,0-0.5C149.7,17.4,149.6,17.4,149.6,17.2z M149.6,38.7
	c0.8,0.2,1.2-0.2,1.2-0.9c-0.3-0.2-0.7-0.1-1.2,0.2V38.7z M150.5,23.2c0.2-0.8-0.1-1.1-0.7-0.9C149.8,22.7,150.1,23,150.5,23.2z
	 M150.8,15.1c-0.5,0.5-0.5,0.5,0,0.1c0.5-0.4,0.5-0.5,0-0.3V15.1z M151.9,20.2c0.3-0.5,0.3-1,0.1-1.5c-0.2-0.5-0.7-0.7-1.3-0.6
	c0.2,0.5,0.3,0.8,0.6,1C151.6,19.4,151.8,19.7,151.9,20.2z M151.2,24.8c0.6-0.2,1-0.4,1.3-0.8c0.2-0.4,0.1-0.7-0.3-1
	c0.2,0.5,0,0.8-0.6,0.9C151,24,150.9,24.4,151.2,24.8z M151.2,35.9c-0.3,0.8,0,1.2,0.9,1.2C152.3,36.3,152,35.9,151.2,35.9z
	 M152.1,20c0,0.6,0.3,0.9,0.9,0.9C153.1,20.3,152.8,20,152.1,20z M152.4,15.6c0,0.8,0.2,1.1,0.5,0.9
	C152.8,16.2,152.7,15.9,152.4,15.6z M152.8,11c-0.3,0.3-0.4,0.7-0.2,1c0.2,0.4,0.2,0.7,0,1C153.8,12.3,153.9,11.6,152.8,11z
	 M154.9,20.2c0.2-0.3,0.1-0.5-0.2-0.6c-0.3-0.1-0.5-0.3-0.5-0.6c0.2-0.3,0.2-0.8,0.2-1.5c0-0.7-0.2-1.1-0.7-1.3
	c-0.2,0.3-0.2,0.7-0.2,1c0,0.4-0.3,0.5-0.9,0.3c0.3,0.6,0.6,1.2,0.8,1.6C153.6,19.7,154.1,20,154.9,20.2z M154.4,13.7
	c0-0.3-0.2-0.5-0.6-0.7c-0.4-0.2-0.7-0.1-1,0.2c0.3,0,0.6,0.2,0.8,0.6C153.9,14.2,154.1,14.2,154.4,13.7z M153.1,22.7
	c1.1,0.3,1.8,0.1,2.3-0.7c-0.6-0.2-1.2-0.3-1.6-0.3C153.3,21.6,153.1,22,153.1,22.7z M153.3,24.1c0.3,0.5,0.5,0.6,0.7,0.3
	c0.2-0.2,0.2-0.5,0.1-0.8c-0.1-0.3-0.2-0.5-0.3-0.5C153.6,23.2,153.4,23.5,153.3,24.1z M154.7,35c0.3-0.2,0.4-0.4,0.3-0.8
	c-0.1-0.4-0.2-0.7-0.5-0.9c-0.2-0.2-0.5-0.3-0.7-0.3c-0.2,0-0.3,0.2-0.3,0.7C154,34.4,154.4,34.8,154.7,35z M153.8,41
	c0.3,0.2,0.5,0.2,0.5,0c0-0.2-0.2-0.3-0.5-0.5V41z M159.1,18.4c0.8-0.3,1.3-0.3,1.6,0.1c0.3,0.4,0.8,0,1.4-1.3
	c-0.6,0.2-1.2,0.2-1.6,0.2s-0.9,0.1-1.4,0.2c-0.2-0.3-0.5-0.7-0.9-1c-0.5-0.4-0.9-0.4-1.4-0.1c-0.3-0.3-0.5-0.7-0.5-1
	c0-0.4-0.2-0.7-0.7-0.8c-0.2,0.5-0.5,0.7-0.9,0.6c-0.5-0.1-0.7,0.1-0.7,0.6c0.5,0.2,0.9,0.3,1.3,0.6c0.4,0.2,0.4,0.6,0.1,1
	c0.8-0.3,1.4-0.2,2,0.5C157.9,18.5,158.5,18.7,159.1,18.4z M157,22.5c0.2-0.8,0-1.2-0.6-1.2c-0.5,0-0.8,0.2-0.8,0.7
	C156.1,22.5,156.5,22.7,157,22.5z M155.8,20.9c0.8,0.2,1.2-0.1,1.2-0.7c0-0.6-0.2-1.1-0.7-1.4c0,0.3-0.1,0.6-0.2,0.9
	C155.9,20,155.8,20.4,155.8,20.9z M157.5,14c0.3-0.6,0.3-1.1,0-1.5c-0.3-0.4-0.8-0.3-1.4,0.1c0.2,0.2,0.2,0.7,0.2,1.5
	C156.3,14.9,156.7,14.9,157.5,14z M157.7,33.1c-0.5,0-0.8,0.1-0.9,0.2c0,0.2,0.1,0.3,0.2,0.5C157.5,33.8,157.7,33.6,157.7,33.1z
	 M159.5,11.2c-0.3,0.3-0.5,0.8-0.6,1.4c-0.1,0.6,0,1.2,0.1,1.6c-0.9,0-1.5,0.2-1.8,0.7c0.6,0.8,1.3,0.9,2,0.3
	c0.7-0.5,1.2-0.5,1.5,0.1c0.3-0.6,0.4-1.3,0.2-2c-0.2-0.7-0.1-1.2,0.2-1.5c0.3-0.3,0.3-0.7-0.1-1C160.6,10.5,160.1,10.6,159.5,11.2z
	 M157.9,19.5c-0.2,0.6,0,1.1,0.5,1.4c0.3-0.3,0.4-0.7,0.2-1.2C158.5,19.3,158.2,19.2,157.9,19.5z M161.1,21.8c-0.5,0-0.5,0-0.1-0.1
	c0.4-0.1,0.6-0.2,0.6-0.3c-0.3,0-0.7-0.3-1.2-0.9c-0.5-0.6-0.6-0.3-0.5,0.9c-1.2,0.3-1.8,0.9-1.8,1.8c0.5-0.3,0.9-0.5,1.4-0.7
	C160.5,22.2,161,22,161.1,21.8z M160,25.3c0.3,0.3,0.7,0.3,1,0.1c0.4-0.2,0.5-0.5,0.3-0.8c-0.2-0.5-0.4-0.5-0.8-0.2
	C160.2,24.7,160,25,160,25.3z M162.1,15.6c0.6,0,0.8-0.1,0.5-0.3C162.2,15,162.1,15.1,162.1,15.6z M162.3,13.5c0,0.6,0.5,1,1.4,1.3
	c0.9,0.2,1.5,0.2,1.8-0.1c-0.3,0-0.8-0.1-1.5-0.3C163.3,14.1,162.8,13.8,162.3,13.5z M164.4,11.2c0.2-0.6,0.1-0.9-0.1-0.8
	c-0.2,0.1-0.5,0.1-0.8,0.1C163.5,11.3,163.8,11.5,164.4,11.2z M164.6,22c0.2-0.3,0.1-0.5-0.1-0.7c-0.2-0.2-0.4-0.2-0.6,0
	C163.8,21.8,164,22,164.6,22z M167.6,17c0,0.9,0.4,1.5,1.2,1.6c0-0.5,0.1-0.8,0.2-1.2c0.2-0.3,0.4-0.6,0.7-0.9
	c-0.3,0-0.8-0.1-1.5-0.2c-0.7-0.2-1-0.6-1-1.4c0-1.1-0.3-1.2-1-0.2c-0.7,0.9-1,1.7-1,2.3c0.5-0.3,0.9-0.3,1.3,0
	C166.7,17.3,167.1,17.3,167.6,17z M165.3,21.8c0.3,0.9,0.6,1.3,0.8,1.3c0.2-0.1,0.3-0.3,0.3-0.7c0-0.4-0.1-0.7-0.2-0.9
	C166.1,21.2,165.8,21.4,165.3,21.8z M166.5,20.2c0.3,0,0.4-0.2,0.3-0.6c-0.1-0.4-0.3-0.5-0.6-0.3c-0.2,0.2-0.2,0.3-0.2,0.5
	C166,20.2,166.1,20.4,166.5,20.2z M168.1,22.7c0-0.2,0-0.4,0.1-0.8c0.1-0.4,0-0.6-0.3-0.6C167.2,22,167.3,22.4,168.1,22.7z
	 M169,23.9c0,0.5,0.1,0.7,0.3,0.7c0.2,0,0.4-0.2,0.6-0.5c-0.3,0-0.5,0-0.5-0.1C169.5,23.9,169.3,23.9,169,23.9z M176.6,18.6
	c0.8,0,1-0.3,0.6-0.8c-0.4-0.5-0.7-1-0.8-1.5c0.2,0,0.2-0.1,0.2-0.2c-0.2,0-0.2,0.1-0.2,0.2c0,0.3-0.2,0.5-0.5,0.5
	c-0.5-0.5-1-0.6-1.6-0.5c-0.6,0.2-1.1-0.2-1.4-0.9c-0.2,0.8-0.5,0.9-0.9,0.3c-0.5-0.5-0.5-1,0-1.3c-0.5,0.2-0.7,0.4-0.6,0.8
	c0.1,0.4,0.2,0.8,0.2,1.3c0.1,0.5,0.1,0.8,0,1c-0.1,0.2-0.4,0.3-1,0.1c0,0.9,0.2,1.2,0.7,0.7c0.5-0.5,0.8-0.5,1.2-0.2
	c0.2-0.2,0.2-0.3,0.2-0.3c0-0.1,0.1-0.2,0.2-0.3c0.2-0.3,0.4-0.5,0.7-0.5c0.3,0,0.6-0.1,0.9-0.2c0,0.8,0.5,1.2,1.6,1.2
	c0.3,0,0.4,0.2,0.2,0.6c-0.2,0.4-0.3,0.7-0.5,0.8c0.3,0,0.5,0,0.6,0.1c0.1,0.1,0.3,0,0.6-0.1c-0.3,0-0.4-0.1-0.2-0.3
	C177,18.7,176.9,18.6,176.6,18.6z M171.3,20.4c0-0.3,0.2-0.5,0.5-0.5c0.3,0,0.4-0.2,0.2-0.5c-0.3,0-0.6,0.1-0.8,0.3
	C171,20.1,171,20.3,171.3,20.4z M172,24.1c0.5,0,0.7-0.1,0.7-0.2c0-0.2-0.1-0.3-0.2-0.3c-0.2-0.1-0.3-0.1-0.5-0.1
	C171.8,23.4,171.8,23.7,172,24.1z M172,25.5c0.6,0.2,0.8,0.1,0.7-0.2c-0.2-0.3-0.4-0.5-0.7-0.5V25.5z M172.5,20
	c0,0.5,0.2,0.7,0.6,0.7c0.4,0,0.5-0.2,0.3-0.7c-0.3-0.2-0.5-0.2-0.5-0.1C172.9,19.9,172.8,20,172.5,20z M173.2,14.4
	c0,0.6,0.2,0.9,0.7,0.9c-0.2-0.3-0.2-0.5,0-0.7C174,14.5,173.8,14.4,173.2,14.4z M174.1,33.1h0.5c0-0.3-0.2-0.5-0.5-0.5V33.1z
	 M174.3,25.7c0,0.3,0.2,0.5,0.6,0.6c0.4,0.1,0.7,0,1-0.1c-0.2-0.8-0.4-1-0.7-0.6C174.9,26,174.6,26.1,174.3,25.7z M175.9,23.4
	c-0.8,0.3-1,0.8-0.6,1.5c0.4,0.7,1,0.8,1.7,0.3c0-0.3-0.1-0.7-0.2-1.3C176.7,23.5,176.4,23.3,175.9,23.4z M176.4,15.1
	c0,0.2-0.1,0.2-0.3,0.1c-0.2-0.1-0.3,0-0.1,0.3c0.2,0.2,0.4,0.1,0.7-0.2L176.4,15.1z M176.6,37.5c0.8,0,1-0.2,0.6-0.6
	C176.8,36.6,176.6,36.7,176.6,37.5z M178,14.2c-0.3,0.6-0.2,0.9,0.5,0.9c0.3-0.9,0.8-1.3,1.6-1.2c0.2-0.5-0.2-0.8-0.9-1.2
	c-0.2,0.3-0.3,0.6-0.5,0.9C178.5,14,178.3,14.2,178,14.2z M178.2,19c0.3-0.2,0.4,0,0.2,0.3c-0.2,0.4-0.1,0.4,0.2,0.1v-0.7
	C178.4,18.5,178.2,18.6,178.2,19z M178.9,21.4c0.2,0.5,0.1,0.8-0.2,1.2c0.8,0,1.1-0.2,0.9-0.6C179.5,21.5,179.2,21.4,178.9,21.4z
	 M180.8,27.4c0.2-0.8,0-1.2-0.6-1.4c-0.5-0.2-1-0.1-1.3,0.2C179.2,27.4,179.8,27.8,180.8,27.4z M179.8,20.7c-0.8-0.2-1,0.1-0.7,0.7
	c0.3,0,0.5-0.1,0.5-0.2C179.6,21,179.7,20.8,179.8,20.7z M184.9,23.4c-0.2,1.2,0,1.7,0.3,1.5c0.4-0.2,0.8-0.5,1.3-0.8
	c-0.2-0.2-0.4-0.6-0.7-1.4c-0.3-0.8-0.2-1.2,0.5-1.2c0.3,0,0.7,0,1,0c0.4,0,0.5-0.2,0.3-0.7c-0.3-0.2-0.6-0.1-0.8,0.1
	c-0.2,0.2-0.5,0.3-0.8,0.1c-0.2-0.3-0.1-0.7,0.2-1.2c0.3-0.5,0.3-0.8,0-1.2c-0.3-0.5-0.6-0.5-0.8-0.2c-0.2,0.3-0.4,0.6-0.6,0.9
	c-0.3,0.6-0.6,0.6-0.8-0.1c-0.2-0.7,0.1-1,1-1c-0.3-0.5-0.5-0.9-0.7-1.3c-0.2-0.4-0.1-0.9,0.2-1.5c-0.6-0.3-1.1-0.3-1.5,0.1
	c-0.4,0.4-0.8,0.5-1.3,0.3c0.2,0.3,0.2,0.8,0.2,1.4c0,0.6-0.2,1.1-0.5,1.4c-0.3-0.5-0.6-0.9-0.9-1.3c-0.3-0.4-0.8-0.3-1.4,0.1
	c0.9,0.5,1.2,1.2,0.7,2.3c1.5,0,2.7-0.3,3.5-0.9c0,0.3,0.2,0.5,0.5,0.5c-0.6,0.2-0.8,0.7-0.5,1.6c0.5,0,0.7-0.2,0.7-0.5
	c0-0.3,0.2-0.5,0.5-0.5c0.3,0.6,0.5,1.2,0.7,1.6c0.3,0.5,0.3,0.7,0.1,0.7C185.3,22.5,185.1,22.8,184.9,23.4z M180.1,35.2
	c-0.3,0.5-0.2,0.7,0.2,0.6c0.5-0.1,0.6-0.3,0.5-0.6H180.1z M183.5,22.7c0.3-0.2,0.6-0.3,0.9-0.3c0.3-0.1,0.3-0.3,0-0.6
	c-0.3-0.6-0.8-0.7-1.6-0.2c-0.3-0.3-0.6-0.6-0.9-0.9c-0.3-0.3-0.8-0.3-1.4,0c0,0.6,0.5,1.2,1.4,1.8c0.5,0.3,0.8,0.6,1,0.9
	c0.2,0.3,0.6,0.5,1,0.7c0-0.3-0.1-0.5-0.2-0.7C183.6,23.3,183.5,23,183.5,22.7z M181.7,32.9c-0.6,0-0.9,0.3-0.9,0.9
	C181.4,33.8,181.7,33.5,181.7,32.9z M181.2,37.1c-0.2,0.6-0.1,0.8,0.2,0.5C181.8,37.2,181.7,37.1,181.2,37.1z M181.5,13.3
	c-0.2,0.8,0.1,1,0.7,0.8c0.6-0.2,1.1-0.5,1.4-0.8c-0.3,0-0.7,0-1-0.1C182.1,13.1,181.8,13.1,181.5,13.3z M183.3,25.5
	c-0.2,0.6-0.1,0.8,0.2,0.5C183.8,25.7,183.8,25.5,183.3,25.5z M183.3,35.9c0,0.3,0.2,0.5,0.5,0.5c0.3,0,0.4-0.2,0.2-0.5h-0.2H183.3z
	 M184,40.1c0.8,0,1-0.2,0.6-0.6C184.2,39.1,184,39.3,184,40.1z M184.5,12.8c-0.3,0.5-0.3,0.8,0,1.2c0.3,0.3,0.6,0.3,0.9,0
	c0.5-0.3,0.8-0.2,1.2,0.2c0.3,0.5,0.7,0.4,1.2-0.2c0.3-0.3,0.5-0.7,0.5-1c0-0.4,0.2-0.8,0.5-1.3c-0.8,0-1.4-0.3-2-1
	c-0.5-0.7-1.2-0.4-2,0.8c-0.2,0.6-0.1,0.9,0.2,0.8C185.2,12.2,185.1,12.3,184.5,12.8z M186.8,13c-0.9-0.3-1.5-0.6-1.6-0.9
	C186.2,12.1,186.8,12.4,186.8,13z M185.2,33.8c0,0.5,0.2,0.8,0.5,0.9c0.2-0.2,0.2-0.3,0.2-0.3c0-0.1,0.1-0.2,0.2-0.3
	c-0.2,0-0.3,0-0.3-0.1C185.7,33.9,185.5,33.8,185.2,33.8z M186.3,17.2c0.3-0.6,0.1-0.8-0.7-0.5C185.6,17.4,185.8,17.5,186.3,17.2z
	 M186.5,25.5c0,0.8,0.4,1,1.2,0.6c0.8-0.4,0.8-1,0-1.7c-0.2,0.3-0.4,0.5-0.7,0.5C186.7,24.8,186.5,25,186.5,25.5z M192.8,19.3
	c1.4,0.3,1.8,0.2,1.3-0.3c-0.5-0.5-0.7-1-0.3-1.5c0.6-0.9,1-0.9,1.3,0c0.2,0.9,0.7,1.2,1.5,0.9c-0.3-0.5-0.5-1-0.7-1.6
	c-0.2-0.6-0.5-1.1-1.2-1.4c-0.3,0.2-0.4,0.4-0.2,0.7c0.2,0.3,0.1,0.5-0.2,0.5c-0.9,0-1.5-0.5-1.6-1.4c-0.8,0-1.2,0.4-1.2,1.2
	c0,0.8-0.3,1-0.9,0.7c0.6,0,0.8-0.4,0.5-1.2c-0.3-0.5-0.6-0.4-0.8,0.2c-0.2,0.6-0.3,1-0.3,1.2c0-0.2-0.2-0.2-0.6-0.1
	c-0.4,0.1-0.7,0.2-1,0.3c-0.3,0.2-0.5,0.3-0.7,0.6c-0.2,0.2,0.1,0.5,0.7,0.8c-0.3,0.2-0.5,0.3-0.6,0.3c-0.1,0.1-0.3,0.2-0.6,0.3
	c0.3,0.6,0.8,0.9,1.5,0.8c0.7-0.1,1.3,0,2,0.3c0.3-0.5,0.4-0.8,0.3-1c-0.1-0.2,0-0.3,0.3-0.3c0-0.2-0.2-0.5-0.6-0.9
	c-0.4-0.5-0.2-0.7,0.6-0.7c0,0.3,0.1,0.4,0.3,0.3c0.2-0.1,0.3,0,0.1,0.3c-0.6,0.2-0.7,0.3-0.1,0.6C192,19.2,192.5,19.3,192.8,19.3z
	 M188.8,21.8c0.5,0,0.7-0.1,0.7-0.2c0-0.2-0.1-0.3-0.2-0.3c-0.2-0.1-0.3-0.1-0.5-0.1C188.7,21.1,188.7,21.4,188.8,21.8z M189.5,15.4
	c-0.5-0.3-0.7-0.3-0.6,0C189,15.7,189.2,15.7,189.5,15.4z M190.9,36.1c0.3-0.3,0.2-0.6-0.5-0.9c-0.6-0.3-1.1-0.2-1.4,0.2
	c0.3,0.3,0.6,0.6,0.8,0.9C190.1,36.7,190.5,36.6,190.9,36.1z M189.8,25.7c0.3-0.3,0.7-0.3,1.3-0.1c0.5,0.2,1,0.2,1.3-0.1
	c-0.5-0.3-0.9-0.5-1.4-0.7c-0.5-0.2-0.9-0.4-1.4-0.7C189.2,24.7,189.3,25.3,189.8,25.7z M191.2,43.1c0.6-0.8,0.7-1.3,0.3-1.5
	c-0.4-0.2-1-0.3-2-0.3c0.2,0.5,0.4,0.8,0.7,1C190.5,42.5,190.8,42.7,191.2,43.1z M191.6,20.7c0,0.3-0.2,0.5-0.5,0.7
	c-0.3,0.2-0.3,0.4,0,0.7c0,0.3-0.1,0.4-0.2,0.2c-0.2-0.2-0.3-0.2-0.5-0.2c-0.2,0.2,0,0.5,0.5,0.9c0.5,0.5,0.8,0.7,0.9,0.7
	c0.3-0.3,0.4-0.8,0.3-1.6C192.1,21.3,191.9,20.8,191.6,20.7z M192.3,11c0,0.6,0.2,0.9,0.5,0.9c0.2-0.2,0.2-0.3,0.1-0.6
	C192.8,11.1,192.6,11,192.3,11z M194.2,38.7c0.3,0.6,0.2,1-0.3,1.3c-0.5,0.2-0.7,0.6-0.3,1c0.3,0.2,0.8-0.1,1.5-0.8
	C195.7,39.5,195.4,39,194.2,38.7z M194.6,11.2c-0.2,0.2-0.3,0.4-0.3,0.8c-0.1,0.4,0.1,0.5,0.6,0.3c0.2,0,0.2-0.2,0.2-0.7
	C195.1,11.2,194.9,11,194.6,11.2z M196,24.8c0.3-0.2,0.6-0.4,0.8-0.8c0.2-0.4,0.2-0.7-0.1-1c-0.3-0.2-0.6-0.4-0.9-0.7
	c-0.6-0.6-0.7-0.8-0.3-0.7c0.4,0.2,0.5,0.1,0.3-0.2c-0.3,0-0.6,0.2-0.9,0.7c-0.3,0.5-0.3,0.9,0,1.4c0.3-0.8,0.6-0.8,0.8-0.1
	C195.9,24,196,24.5,196,24.8z M196.9,11.4c0.2,0.8,0,1.3-0.6,1.5c-0.5,0.2-0.8,0.7-0.8,1.5c0.2-0.2,0.4-0.4,0.8-0.7
	c0.4-0.3,0.7-0.7,1-1c0.3-0.4,0.5-0.7,0.5-0.9C197.9,11.5,197.5,11.4,196.9,11.4z M196.7,27.8c0.2,0.2,0.4,0.3,0.8,0.5
	c0.4,0.2,0.7,0,0.8-0.5c-0.3,0-0.6-0.1-0.9-0.2C197.1,27.4,196.8,27.5,196.7,27.8z M199.7,22.3c0.5-0.3,0.6-0.8,0.5-1.5
	c-0.2-0.7-0.1-1.2,0.2-1.5c-0.8-0.5-1.2-0.3-1.4,0.6c-0.2,0.8-0.1,1.4,0.2,1.7c-0.6,0.3-1,0.7-1.3,1.3c-0.2,0.5-0.5,1-0.8,1.3
	c0.8,0.2,1.2,0,1.4-0.6C198.7,23,199.1,22.6,199.7,22.3z M197.4,41.9c0.2,0,0.3-0.1,0.3-0.2c0.1-0.2,0-0.2-0.3-0.2V41.9z
	 M198.1,15.1c0.5,0,0.6-0.3,0.3-0.8C198.2,13.8,198.1,14,198.1,15.1z M199,10c-0.2,0.6-0.1,0.8,0.2,0.5C199.5,10.2,199.5,10,199,10z
	 M200.9,23.4c0.2-0.3,0.3-0.5,0.5-0.5c0.2,0,0.2-0.2,0.2-0.5h-0.9c-0.2,0.2-0.2,0.3-0.2,0.6C200.4,23.3,200.5,23.4,200.9,23.4z
	 M200.4,41.7c0.2,0,0.3,0.1,0.5,0.2c0-0.5-0.2-0.7-0.5-0.7V41.7z M200.9,9.8c0,0.8,0.2,1.1,0.5,0.9C201.3,10.1,201.2,9.8,200.9,9.8z
	 M201.3,14.2c0.3,0,0.5-0.2,0.5-0.7c0-0.5-0.2-0.6-0.5-0.5c0,0.3-0.1,0.5-0.2,0.6C200.9,13.7,201,13.9,201.3,14.2z M201.5,19.7
	c0,0.9,0.2,1.3,0.7,1.2C202.4,20.4,202.2,20,201.5,19.7z M201.8,22.5c0.6,0,0.9-0.5,0.9-1.4c-0.3,0-0.5,0.2-0.5,0.6
	C202.2,22.1,202.1,22.4,201.8,22.5z M202.7,16.5c0.5,0,0.8-0.2,0.9-0.5C203,16,202.7,16.2,202.7,16.5z M205.7,19.3
	c0.8,0.2,1.5,0.1,2.1-0.1c0.6-0.2,1.3-0.4,2.1-0.6c-0.2-0.8,0.1-1.2,0.7-1.3c0.6-0.1,1.1-0.3,1.4-0.8c-0.2,0-0.5-0.1-1.2-0.3
	c-0.6-0.2-1.2-0.4-1.7-0.5c-0.5-0.1-1,0-1.4,0.1c-0.4,0.2-0.5,0.6-0.3,1.4c0-0.3,0.2-0.5,0.7-0.5c-0.2,0.2-0.2,0.4-0.1,0.8
	c0.1,0.4,0,0.6-0.3,0.6c-0.6,0-1.1-0.1-1.5-0.3c-0.4-0.2-0.9-0.4-1.5-0.6c0,0.8,0.1,1,0.2,0.8c0.2-0.2,0.5,0,0.9,0.8
	c-0.2,0.3-0.8,0.5-1.8,0.5c-0.8,0.3-0.8,0.7-0.2,1.2c0.6,0.5,1.2,0.5,1.8,0c0,0.3-0.1,0.6-0.3,0.8c-0.2,0.2-0.2,0.5,0.1,0.8
	c0.6-0.2,0.9-0.5,0.8-1.2C206,20.3,205.9,19.7,205.7,19.3z M205.7,8.9c-0.9,0.3-1.6,0.8-2.1,1.6c0.3,0.2,0.7,0.1,1.3-0.2
	C205.4,10,205.7,9.5,205.7,8.9z M203.6,14.4c0.6,0,0.8-0.1,0.5-0.3C203.8,13.9,203.6,14,203.6,14.4z M204.3,32.9
	c0,0.5,0.2,0.7,0.5,0.7c0.3,0,0.6,0,0.9,0c0.2-0.5,0-0.8-0.3-0.9C205,32.5,204.6,32.6,204.3,32.9z M204.5,16.7
	c0.3,0.3,0.6,0.2,0.9-0.3c0.3-0.5,0.2-1-0.2-1.3c0,0.3-0.1,0.6-0.3,0.8C204.7,16.2,204.5,16.4,204.5,16.7z M206.2,40.5h0.7
	c0-0.3-0.2-0.5-0.7-0.5V40.5z M207.3,23.2c0-0.5-0.2-0.6-0.7-0.5v0.5H207.3z M207.5,21.8c0.3,0.3,1,0.5,2,0.5c1,0,1.4-0.4,1.3-1.2
	c-0.6,0.3-1.3,0.2-2-0.2C208.1,20.4,207.7,20.7,207.5,21.8z M210.8,12.1c0.5,0,0.8-0.1,0.9-0.2c-0.2,0-0.3-0.1-0.5-0.2
	c-0.2,0-0.3-0.1-0.5-0.2V12.1z M213.1,17.4c-1.5,0-2,0.5-1.4,1.6c0.5,0,0.7-0.2,0.8-0.6C212.6,18.1,212.8,17.7,213.1,17.4z
	 M211.7,19.3c0,0.5,0.1,0.7,0.2,0.7c0-0.2,0-0.3,0.1-0.6C212.1,19.2,212,19.1,211.7,19.3z M215.6,21.8c0.6-0.3,0.5-0.8-0.5-1.5
	c-0.9-0.7-1.6-0.9-2.1-0.6c-0.2,0.3,0,0.5,0.3,0.7c0.4,0.2,0.6,0.4,0.6,0.7c-0.2,0.5-0.5,0.7-1,0.6c-0.5-0.1-0.9,0.2-1,0.8
	c0.5,0.3,1,0.2,1.6-0.5c0.5-0.3,0.8-0.3,1-0.1C214.8,22.2,215.2,22.1,215.6,21.8z M213.3,23.4c0.5,0.9,0.8,1.1,0.9,0.5
	C214.4,23.3,214.1,23.1,213.3,23.4z M216.8,18.6c-0.5-0.6-0.8-1.2-1.2-1.7c-0.3-0.5-0.9-0.7-1.8-0.3c0,0.3,0.2,0.5,0.5,0.6
	c0.3,0.1,0.6,0.1,0.9,0.1c0.2,0.3,0.3,0.7,0.6,1.2C216,18.8,216.3,18.9,216.8,18.6z M214.7,13c0.3,0.3,0.5,0.2,0.5-0.2
	c0-0.5-0.2-0.5-0.5-0.2V13z M217.2,20.7c-0.2,0-0.3-0.1-0.5-0.2c-0.2,0-0.2-0.1-0.2-0.2c0.3,0,0.5-0.1,0.5-0.2
	c-0.5,0-0.8,0.2-0.9,0.7H217.2z M217.2,19.3c0.3-0.2,0.5-0.1,0.7,0.2c0.2,0.3,0.4,0.4,0.7,0.2c0-0.3-0.2-0.6-0.5-0.8
	c-0.3-0.2-0.5-0.5-0.5-0.8c0.5,0,0.8-0.1,0.9-0.2c-0.3-0.8-0.7-0.8-1.2-0.2C217,18.3,216.9,18.8,217.2,19.3z M217.2,14.9
	c0.5,0,0.6-0.2,0.3-0.5C217.4,14.1,217.2,14.3,217.2,14.9z M218.2,23.9c0.3,0,0.5-0.4,0.5-1.3c0-0.8-0.2-1.2-0.7-1
	c-0.3,0.3-0.3,0.7-0.1,1.2C218.1,23.2,218.2,23.6,218.2,23.9z M221.9,16.3c-0.3,0.3-0.3,0.5,0.1,0.6c0.4,0.1,0.5,0,0.3-0.3
	c-0.2,0-0.2,0-0.2-0.1C222.1,16.3,222,16.3,221.9,16.3z M224.6,15.6c0-0.3,0.2-0.4,0.6-0.3c0.4,0.1,0.7,0,0.8-0.1
	c-0.2-0.8-0.6-1-1.3-0.7C224.1,14.7,224,15.1,224.6,15.6z"/>
</svg>
