<?xml version="1.0" encoding="utf-8"?>
<!-- Generator: Adobe Illustrator 18.0.0, SVG Export Plug-In . SVG Version: 6.00 Build 0)  -->
<!DOCTYPE svg PUBLIC "-//W3C//DTD SVG 1.1//EN" "http://www.w3.org/Graphics/SVG/1.1/DTD/svg11.dtd">
<svg version="1.1" id="Layer_1" xmlns="http://www.w3.org/2000/svg" xmlns:xlink="http://www.w3.org/1999/xlink" x="0px" y="0px"
	 viewBox="0 0 158 170.6" enable-background="new 0 0 158 170.6" xml:space="preserve">
<path d="M157.4,138.7c0.3,1.2,0.5,2.3,0.6,3.2c0.1,0.9,0,2-0.1,3.2c-0.2,1.8-0.7,3.4-1.7,4.7c-1,1.3-1.9,2.8-2.7,4.5
	c-0.3,0.8-0.5,1.7-0.7,2.7c-0.2,1-0.4,2-0.7,2.9c0,0.9-0.3,1.5-0.9,1.6c-0.3,0.2-0.5,0.6-0.6,1.3c-0.1,0.7-0.3,1.2-0.6,1.5
	c-1.2,1.5-2.5,2.8-3.8,3.9c-1.3,1.1-3,1.8-5,2.1c-2.2,0.3-4.2,0.2-6.1-0.2c-1.9-0.5-3.7-1.4-5.2-2.8c-1.4-1.2-2.4-2.5-3.1-3.7
	c-0.7-1.2-1.3-2.7-1.7-4.4c-0.5-1.8-0.7-3.7-0.8-5.4c-0.1-1.8-1.1-3.1-3.1-4c-1.7-0.8-3.4-1.3-5.1-1.7c-1.7-0.4-3.3-1.1-4.8-2.2
	c-0.8-0.5-1.5-0.7-2.1-0.8c-0.6-0.1-1.3-0.3-2.1-0.6c-1.1-0.6-2.2-1.2-3.2-1.6c-1.1-0.5-2.2-0.9-3.2-1.4c-0.8-0.3-1.6-0.6-2.5-0.8
	c-0.9-0.2-1.8-0.5-2.8-0.8c-0.8-0.5-1.5-0.9-2.3-1.4c-0.8-0.5-1.6-0.8-2.5-0.9c-1.8-0.3-3.7-0.9-5.4-1.8c-1.8-0.9-3.6-1.5-5.4-1.8
	c-1.8-0.2-3.5,0.2-5,1.2c-1.5,0.9-3,1.5-4.7,1.6c-0.8,0.2-1.5,0.4-2.2,0.8c-0.7,0.4-1.4,0.7-2.2,1c-0.8,0.3-1.5,0.5-2.3,0.7
	c-0.8,0.2-1.5,0.4-2.3,0.7c-1.2,0.5-2.5,1.2-3.9,2.3c-1.4,1.1-2.8,1.5-4.2,1.2c-0.6,0-1.3,0.3-2.2,0.8c-0.8,0.5-1.5,1-2,1.3
	c-2.3,0.8-4.2,1.5-5.8,2.3c-1.5,0.6-3,1.1-4.3,1.5c-1.3,0.4-2.5,1.2-3.6,2.4c-0.6,0.6-1,1.1-1.3,1.5c-0.2,0.4-0.4,1-0.6,1.7
	c-0.2,0.8-0.2,1.5-0.1,2.2c0.1,0.7,0,1.3-0.3,2c-0.3,0.8-0.4,1.4-0.2,1.8c0.2,0.5,0.1,1-0.2,1.6c-0.3,0.6-0.8,1.2-1.4,1.8
	c-0.6,0.6-1.2,1.2-1.6,1.6c-0.3,0.3-0.8,0.8-1.4,1.4c-0.6,0.6-1.3,1.2-2.1,1.7c-0.8,0.5-1.5,0.9-2.2,1.2c-0.7,0.2-1.3,0.2-1.7-0.1
	c-0.3-0.3-0.8-0.3-1.6,0.1c-0.8,0.4-1.4,0.5-1.8,0.3c-0.8,0-1.5-0.1-2.1-0.3c-0.6-0.2-1.2-0.5-1.8-0.8c-0.8-0.3-1.4-0.6-2-0.9
	c-0.5-0.3-1.1-0.7-1.7-1.2c-0.6-0.3-1.1-0.8-1.4-1.4c-0.3-0.6-0.8-1.1-1.4-1.4c-1.2-0.9-1.8-2.2-1.7-3.9c0.1-1.7-0.2-3.2-0.8-4.6
	c-0.8-1.5-1.7-2.9-2.8-4.2c-0.8-0.8-1.2-1.7-1.3-2.7c-0.1-1-0.3-2-0.8-2.9C0.1,145-0.1,143.6,0,142c0.1-1.6,0.4-3,1-4.3
	c1.1-1.5,1.7-2.9,1.8-4.2c0.8-0.3,1.4-0.7,2-1.3c0.5-0.5,1.1-1,1.7-1.3c2.6-1.5,5.2-2.2,7.8-2.1c0.8,0.2,1.5,0.3,2.2,0.5
	c0.7,0.2,1.4,0.4,2.2,0.7c0.8,0.5,0.8,0.8,0.1,1.2c-0.7,0.3-1,0.8-1,1.4c0.5,0.2,0.8,0,1-0.3c0.2-0.4,0.5-0.7,0.8-1
	c0.5-0.5,1-0.5,1.5,0c0.5,0.5,1,0.8,1.3,1.2c0.9,1.2,2.2,2.2,3.8,3c1.6,0.8,3.1,0.9,4.5,0.5c1.8-0.8,3.7-1.5,5.4-2.2
	c1.8-0.7,3.6-1.3,5.4-2c3.8-1.2,7.5-2.8,10.9-4.6c0.5-0.3,1-0.7,1.7-1.2c0.7-0.5,0.9-1,0.6-1.6c-0.3-0.6-0.8-1-1.5-1.3
	c-0.7-0.2-1.3-0.7-1.7-1.3c-0.8-0.3-1.6-0.6-2.5-0.9c-0.9-0.3-1.8-0.6-2.5-0.9c-0.8-0.3-1.5-0.6-2.2-0.9c-0.7-0.3-1.4-0.6-2.2-0.9
	c-1.2-0.3-2.6-0.8-4-1.6c-1.5-0.8-2.9-1.4-4.4-2c-1.5-0.5-2.9-0.9-4.4-1c-1.5-0.2-2.9,0.3-4.3,1.4c-0.5,0.3-0.8,0.7-0.9,1.3
	c-0.2,0.5-0.6,1-1.4,1.3c-0.8,0.5-1.5,1-2.3,1.5c-0.8,0.5-1.6,1-2.5,1.3c-1.4,0.6-3.1,0.8-5.1,0.6c-2-0.2-3.7-0.7-5.1-1.3
	c-0.6-0.3-1-0.7-1.3-1c-0.2-0.4-0.6-0.8-1-1.3c-0.8-0.5-1.5-0.9-2.2-1.3c-0.7-0.4-1.2-1-1.5-1.7c-1.1-1.7-1.7-3.6-1.7-5.7
	c-0.1-2.1,0.2-4,0.8-5.7c0.3-0.9,0.5-1.7,0.7-2.2c0.2-0.5,0.5-1.2,1.2-2c0.6-0.8,1.2-1.6,1.6-2.5c0.5-0.9,0.8-1.8,0.9-2.8
	c0.3-3.8,1.7-7,4.2-9.5c0.5-0.5,0.9-0.8,1.3-1.2c0.4-0.3,0.7-0.7,1-1.2c0.3-0.6,0.7-0.9,1-0.8c0.4,0.1,0.9,0,1.5-0.3
	c0.8-0.3,1.5-0.6,2.1-0.8c0.6-0.2,1.4-0.3,2.3-0.1c1.4,0,2.5-0.1,3.2-0.2c0.3,0.3,0.7,0.5,1.2,0.6c0.5,0.1,0.9,0.3,1.4,0.6
	c0.3,0.2,1,0.4,2.1,0.8c1.1,0.4,1.3,0.9,0.7,1.5c0.5,0,1,0.2,1.6,0.6c0.6,0.4,1.2,0.9,1.6,1.5c0.5,0.6,0.8,1.2,0.9,1.8
	c0.2,0.6,0,1-0.5,1.2c0,0.2,0.1,0.2,0.3,0.1c0.2-0.1,0.4,0,0.6,0.1c0.3,0.2,0.5,0.5,0.6,0.9c0.1,0.5,0.2,0.8,0.3,0.9
	c0.3,0.9,0.5,1.8,0.5,2.8s0,1.9,0,3c0.2,2.2,1.2,3.5,3.2,4c2,0.5,3.8,1.2,5.5,2c0.8,0.6,1.6,1,2.4,1.2c0.8,0.2,1.7,0.4,2.4,0.7
	c0.8,0.3,1.5,0.7,2.3,1c0.8,0.4,1.6,0.7,2.5,0.8c0.8,0.3,1.5,0.7,2.3,1c0.8,0.4,1.5,0.7,2.3,1c0.9,0.3,1.8,0.7,2.5,1.2
	c0.8,0.5,1.6,0.8,2.5,1.2c1.5,0.6,3.2,1.2,4.8,1.6c1.7,0.5,3.4,1.1,5.1,1.8c2,1.1,3.9,1.8,5.7,2.2c1.8,0.4,3.7,0.3,5.9-0.3
	c0.5-0.2,0.8-0.2,0.9-0.1c0.2,0.1,0.5,0,0.9-0.3c0.3-0.3,0.7-0.5,1-0.6c0.4-0.1,0.7-0.3,1-0.6c0.9-0.5,1.8-0.8,2.7-1.2
	c0.8-0.3,1.8-0.6,2.9-0.9c2.2-0.8,4.4-1.6,6.7-2.5c2.3-0.9,4.5-1.9,6.7-3c0.9-0.5,2-0.8,3.1-0.9c1.2-0.2,2.1-0.6,2.9-1.4
	c0.8-0.6,1.7-1.1,2.9-1.5c1.2-0.4,2.2-0.7,3.1-1c0.8-0.3,1.5-0.6,2.3-0.8c0.8-0.2,1.5-0.6,2.3-1c1.2-0.8,1.9-1.6,2-2.4
	c0.1-0.8,0.1-1.9,0.1-3.1c0-3.8,1.3-7.2,4-9.9c2.7-2.8,5.9-4.3,9.6-4.6c2.2-0.3,4.1,0,5.9,0.8c1.8,0.8,3.3,2,4.7,3.6
	c1.5,1.8,2.6,3.5,3.2,4.8c0.3,1.2,0.6,2.5,0.9,3.7c0.3,1.2,0.6,2.5,0.9,3.7c0.8,1.7,1.6,3.2,2.4,4.5c0.8,1.3,1.4,2.8,1.7,4.5
	c0.2,0.9,0.2,1.8,0,2.5c-0.2,0.8-0.3,1.5-0.5,2.3c0,1.2-0.2,2.2-0.5,2.8c-0.3,0.6-0.8,1.3-1.4,2.1c-0.9,1.2-1.8,2.3-2.7,3.2
	c-0.8,0.9-2,1.7-3.6,2.3c-1.2,0.5-2.5,0.8-3.8,1c-1.3,0.2-2.6,0.1-3.8-0.3c-1.5-0.6-2.8-1.2-3.9-1.6c-1.1-0.5-2.2-1.3-3.5-2.5
	c-1.2-1.2-2.4-2.2-3.5-2.8c-1.1-0.6-2.5-0.5-4.2,0.2c-1.2,0.6-2.5,1.1-3.9,1.5c-1.4,0.4-2.7,1-3.9,1.7c-0.6,0.3-1.2,0.6-1.8,0.8
	c-0.6,0.2-1.2,0.5-1.8,0.8c-0.9,0.3-1.8,0.7-2.5,1.2c-0.8,0.5-1.6,0.8-2.5,1.2c-0.9,0.3-1.9,0.6-2.9,0.8c-1,0.2-1.9,0.7-2.7,1.3
	c-1.4,0.8-1.8,1.5-1.2,2.3c0.6,0.8,1.5,1.2,2.5,1.4c2.2,1.1,4.2,2,6.1,2.8c1.9,0.8,4,1.5,6.1,2.3c1.7,0.6,3.3,1.4,5,2.4
	c1.6,1,3.3,1.7,5.2,2c2,0.3,3.5-0.3,4.4-1.7c0.9-1.5,2.1-2.7,3.5-3.6c1.8-1.1,3.9-1.7,6.1-2c2.2-0.2,4.3-0.1,6.3,0.3
	c1.2,0.3,2.7,1.2,4.4,2.7c1.7,1.5,2.5,2.7,2.5,3.6c0,0.6,0.3,1.1,0.8,1.5C156.9,137.5,157.2,138,157.4,138.7z M5,148.6
	c0.3,0.2,0.5,0,0.7-0.3c0.2-0.4,0.1-0.6-0.2-0.6c-0.2,0.2-0.3,0.3-0.5,0.3C4.8,148.1,4.8,148.3,5,148.6z M5.9,106.3
	c0.3,0.2,0.5,0.1,0.5-0.1c0-0.2-0.2-0.3-0.5-0.3V106.3z M7.5,143.5c0-0.5-0.2-0.7-0.7-0.7v0.7H7.5z M7.8,142.6
	c0-0.3,0.2-0.4,0.5-0.2c0.3,0.2,0.3-0.2,0-0.9c-0.3-0.5-0.6-0.5-0.9,0C7,141.9,7.1,142.3,7.8,142.6z M7.3,100.6
	c0.5,0,0.6-0.1,0.3-0.3C7.4,100,7.3,100.1,7.3,100.6z M7.5,110.3c0.2,0.2,0.3,0.2,0.3,0c0.1-0.2,0-0.3-0.3-0.5V110.3z M8.4,135.9
	c0-0.3-0.2-0.5-0.5-0.5v0.5H8.4z M8.2,104.9c0.5,0,0.6-0.1,0.3-0.3C8.3,104.4,8.2,104.5,8.2,104.9z M10.3,101.5
	c-0.2-0.5-0.1-0.8,0.1-0.9c0.2-0.2,0.4-0.4,0.6-0.7c-1.1-0.6-1.8-0.4-2.1,0.7c0.5,0,0.7,0.2,0.8,0.5C9.8,101.3,10,101.5,10.3,101.5z
	 M10.1,150.4c0,0.8,0.2,1.2,0.5,1.2c-0.2-0.3-0.2-0.6-0.1-0.8C10.5,150.5,10.4,150.4,10.1,150.4z M10.3,150.2c0.6,0,0.9-0.3,0.9-0.9
	C10.6,149.3,10.3,149.6,10.3,150.2z M11.4,147.2c0.3-0.8,0.3-1.3,0.1-1.5c-0.2-0.2-0.5-0.3-0.7-0.2c-0.2,0.1-0.4,0.3-0.5,0.6
	C10.3,146.3,10.7,146.7,11.4,147.2z M11.2,98.7c0.3,0.3,0.5,0.2,0.5-0.2c0-0.5-0.2-0.5-0.5-0.2V98.7z M13.1,139.8
	c-0.3-0.3-0.6-0.7-0.9-1.2c-0.3-0.5-0.6-0.3-0.9,0.5c0.3,0,0.6,0.2,0.9,0.6C12.4,140.1,12.8,140.1,13.1,139.8z M12.1,144.2
	c0.2-0.5,0.1-0.7-0.2-0.7c-0.3,0.2-0.4,0.3-0.3,0.5C11.6,144.1,11.8,144.2,12.1,144.2z M11.7,149.5c-0.2,0.6,0.2,0.9,0.9,0.9
	c0-0.3-0.1-0.5-0.3-0.6C12,149.8,11.8,149.7,11.7,149.5z M11.7,83.7c0.2,0.2,0.3,0.2,0.6,0.1c0.2-0.1,0.3-0.3,0.1-0.6
	C11.9,83.2,11.7,83.4,11.7,83.7z M12.1,92.5c-0.3,0.6-0.2,0.9,0.2,0.9C13,93.1,12.9,92.8,12.1,92.5z M12.4,147.2
	c0.3,0.2,0.6,0.2,0.9,0.2c0.5,0,0.5-0.2,0.2-0.5C12.9,146.5,12.5,146.6,12.4,147.2z M13.8,157.6c0-0.8-0.1-1.3-0.3-1.7
	c-0.2-0.4-0.5-0.8-0.8-1.3c-0.3,0.3-0.3,0.8,0.1,1.5C13.1,156.8,13.4,157.3,13.8,157.6z M14.4,100.3c-0.5-0.3-1-0.2-1.5,0.3
	c-0.5,0.5-0.7,1-0.3,1.5C13.5,101.7,14.1,101.1,14.4,100.3z M13.5,141.4c-0.8,0-1.1,0.2-1,0.7c0.1,0.5,0.3,0.6,0.8,0.5
	C13.3,142.1,13.4,141.7,13.5,141.4z M14.9,103.3c-0.2,0-0.5,0-0.9,0c-0.5,0-0.7,0.2-0.7,0.5c0.3,0,0.6,0.1,0.9,0.2
	C14.5,104.2,14.8,103.9,14.9,103.3z M14.4,145.3c0.2-0.3,0.1-0.5-0.2-0.6c-0.3-0.1-0.5,0-0.7,0.1c-0.2,0.3-0.1,0.5,0.2,0.6
	C14.1,145.5,14.3,145.5,14.4,145.3z M14.2,149.5c0.6,0,0.9-0.4,0.9-1.2h-1.4c-0.2,0.3-0.1,0.5,0.2,0.6
	C14.3,149,14.4,149.2,14.2,149.5z M14.2,111.2c0.2,0,0.2-0.1,0.2-0.2c-0.2,0-0.2,0-0.2-0.1c0-0.1-0.1-0.1-0.2-0.1v0.5H14.2z
	 M14.2,142.6c0.8,0,0.9-0.2,0.5-0.5C14.2,141.8,14.1,142,14.2,142.6z M14.2,152.5c0.5,0.2,0.7,0.2,0.8,0c0.1-0.2,0-0.3-0.1-0.5
	c-0.2-0.2-0.3-0.2-0.5-0.2C14.3,151.8,14.2,152,14.2,152.5z M15.6,105.9c0.6-0.8,0.7-1.3,0.2-1.6c-0.5-0.3-0.9-0.1-1.4,0.7
	C14.9,105.4,15.3,105.7,15.6,105.9z M15.4,144.2c0.2-0.6-0.2-0.8-0.9-0.5C14.4,144.3,14.8,144.5,15.4,144.2z M14.9,146.3
	c0,0.5,0.2,0.7,0.7,0.7C15.8,146.5,15.5,146.3,14.9,146.3z M15.4,92.7c-0.3,1.1,0,1.8,0.9,2.2c0.9,0.4,1.8,0.4,2.5,0.1
	c-0.5-0.3-0.5-0.6-0.1-0.9c0.4-0.3,0.5-0.6,0.3-0.9c-0.6,0-1.2,0-1.8,0C16.6,93.2,16,93,15.4,92.7z M15.8,103.8
	c0.5-0.3,0.8-0.7,1-1.2c0.2-0.5,0.7-0.7,1.5-0.7c-0.2-0.8-0.5-1.2-0.9-1.2c-0.5,0-0.8,0.2-1.2,0.6c-0.3,0.4-0.5,0.8-0.7,1.3
	C15.4,103.1,15.5,103.5,15.8,103.8z M16.3,156c0.3-0.3,0.4-0.7,0.2-1c-0.2-0.4-0.5-0.4-0.9-0.1C15.6,155.6,15.8,156,16.3,156z
	 M16.8,142.8c0.2-0.6,0.1-0.9-0.2-0.8c-0.3,0.1-0.5,0.3-0.7,0.6C16,142.7,16.3,142.8,16.8,142.8z M16.3,98.5l0.2-0.7l-0.5-0.5
	C15.8,97.9,15.8,98.3,16.3,98.5z M16.5,153.7c0.6,0,1.1-0.4,1.4-1.2c-0.5,0.2-0.7,0.2-0.8,0.2C17,152.7,16.8,153,16.5,153.7z
	 M16.8,158.7c0.9,0,1.1-0.2,0.6-0.6C16.8,157.8,16.6,158,16.8,158.7z M17.2,108.4c0.3,0,0.5-0.2,0.7-0.6c0.2-0.4,0.1-0.7-0.2-0.8
	c-0.2,0.3-0.3,0.5-0.6,0.7C16.9,107.9,16.9,108.1,17.2,108.4z M17.4,147.2c0.3,0.3,0.7,0.5,1.3,0.7c0.5,0.2,0.7-0.2,0.6-0.9
	c-0.3-0.2-0.7-0.3-1.2-0.3C17.7,146.5,17.4,146.7,17.4,147.2z M18.1,106.1c0.5,0.2,0.7,0,0.8-0.3c0.1-0.4,0.3-0.7,0.8-0.8
	c0.5,0.3,1,0.5,1.5,0.7c0.5,0.2,1-0.2,1.3-0.9c-0.5,0.2-1,0.2-1.5,0c-0.5-0.2-1-0.2-1.5-0.2s-0.8,0.1-1.2,0.2
	C18.1,104.9,18,105.3,18.1,106.1z M18.4,160.8c0.3,0.5,0.5,0.5,0.5,0C18.8,160.4,18.7,160.4,18.4,160.8z M20,90.4
	c-0.3-0.3-0.6-0.3-0.9-0.1c-0.3,0.2-0.5,0.5-0.5,0.8c0.3,0.3,0.6,0.3,0.8,0.1C19.6,91,19.8,90.7,20,90.4z M18.6,149.5
	c0.6,0,0.8-0.1,0.5-0.3C18.8,148.9,18.6,149,18.6,149.5z M18.8,103.3c0.8,0,1-0.2,0.6-0.6C19,102.4,18.8,102.6,18.8,103.3z
	 M19.5,113c0.9,0,1.3-0.1,1.3-0.2c-0.1-0.2-0.3-0.3-0.7-0.5c-0.4-0.2-0.7-0.2-0.9-0.1C18.9,112.3,19.1,112.6,19.5,113z M19.5,100.6
	c0.6-0.3,0.9-0.8,0.8-1.4c-0.1-0.6-0.5-0.8-1.3-0.7c0,0.3,0.1,0.6,0.3,0.9C19.6,99.7,19.7,100.1,19.5,100.6z M19.5,152.3
	c0.3,0,0.7,0,1.2-0.1c0.5-0.1,0.8-0.3,0.9-0.6c-0.3-0.3-0.8-0.5-1.4-0.5C19.6,151.1,19.4,151.5,19.5,152.3z M19.5,154.6
	c0.2,0.3,0.3,0.5,0.6,0.5c0.2,0,0.3-0.2,0.3-0.5c-0.2-0.3-0.3-0.5-0.6-0.5C19.6,154.1,19.5,154.3,19.5,154.6z M21.1,95
	c-0.3,0-0.5,0.1-0.7,0.2v0.5C21.1,95.7,21.3,95.5,21.1,95z M23,110.3c0.2-0.2,0.2-0.2,0-0.2h-0.7c-0.5,0-0.6-0.2-0.5-0.6
	c0.2-0.4,0.2-0.7,0.2-0.8c-0.5,0-0.8,0.2-0.9,0.5c-0.2,0.3-0.4,0.6-0.7,0.9c0.2,0.3,0.4,0.5,0.7,0.5c0.3,0,0.5,0.2,0.7,0.5
	c-0.3-0.5-0.2-0.6,0.2-0.5C22.5,110.6,22.8,110.6,23,110.3z M20.4,148.3c0.5,0,0.6-0.1,0.3-0.3C20.6,147.8,20.4,147.9,20.4,148.3z
	 M21.1,145.6c0.6,0.3,1,0.4,1.2,0.3c0.2-0.1,0.2-0.2,0.1-0.3c-0.1-0.2-0.2-0.3-0.5-0.3C21.7,145.2,21.4,145.3,21.1,145.6z
	 M22.3,156.4c0-0.3,0.2-0.5,0.6-0.6c0.4-0.1,0.5-0.3,0.3-0.8c-0.5-0.5-0.9-0.5-1.3,0C21.6,155.5,21.7,156,22.3,156.4z M24.4,153.4
	c0.3,0.5,0.7,0.7,1.3,0.7c0.5,0,0.9-0.4,1-1.2c-0.3,0.3-0.6,0.3-0.8-0.1c-0.2-0.4-0.6-0.6-1-0.6c-0.5-0.2-1.1,0-2,0.5
	c-0.8,0.5-1.1,1.1-0.8,1.8c0.3-0.3,0.7-0.7,1.2-1.3C23.7,152.8,24.1,152.8,24.4,153.4z M22.3,107.5c0.3,0,0.5-0.1,0.6-0.2
	c0.1-0.2,0-0.3-0.3-0.5C22.4,106.9,22.3,107.2,22.3,107.5z M22.5,101.9c0.3,0,0.5,0.2,0.6,0.5c0.1,0.3,0.3,0,0.6-0.9
	c-0.3-0.2-0.6-0.3-0.9-0.5C22.4,100.9,22.4,101.2,22.5,101.9z M23.7,96.4c0.2-0.3,0.2-0.5,0-0.5c-0.2,0-0.3,0.2-0.5,0.5H23.7z
	 M25.5,151.4c0.3-0.9,0.3-1.5,0-1.7c-0.3-0.2-0.7-0.2-1,0c-0.4,0.2-0.7,0.5-0.9,0.9c-0.2,0.4-0.2,0.7,0.1,1
	C24.3,151.3,24.9,151.2,25.5,151.4z M23.9,144c0.5,0,0.7-0.1,0.8-0.2c0.1-0.2,0-0.3-0.1-0.3c-0.2-0.1-0.3-0.1-0.6-0.1
	C23.8,143.3,23.8,143.5,23.9,144z M23.9,99.9c-0.2,0.3,0,0.5,0.3,0.5c0.4,0,0.5-0.2,0.3-0.5H23.9z M25.5,92.9
	c-0.8-0.2-1.1-0.2-1-0.1c0.1,0.1-0.1,0.5-0.6,1.3C24.7,94.4,25.2,94,25.5,92.9z M23.9,107.9c0.3-0.2,0.5,0,0.7,0.3
	c0.2,0.4,0.4,0.4,0.7,0.1C24.7,107.8,24.2,107.6,23.9,107.9z M25.5,102.6c0-0.3,0-0.5,0.1-0.5c0.1,0,0.1-0.2,0.1-0.5
	c-0.3-0.2-0.5-0.1-0.6,0.2C25.1,102.3,25.2,102.5,25.5,102.6z M26.9,102.9c0.6,0,0.8-0.2,0.7-0.7C26.8,102,26.6,102.3,26.9,102.9z
	 M27.1,85.6c-0.3,0.3-0.3,0.6-0.1,0.8c0.2,0.2,0.5,0.2,0.8-0.1C27.8,86.1,27.6,85.9,27.1,85.6z M28.1,102.4c0-0.3,0.2-0.5,0.5-0.6
	c0.3-0.1,0.2-0.3-0.2-0.6c-0.3-0.3-0.5-0.2-0.6,0.2C27.6,101.9,27.8,102.3,28.1,102.4z M28.5,148.3c0.2-0.5,0.1-0.8-0.2-1.2
	c0,0.2,0,0.4-0.1,0.7C28.1,148.2,28.2,148.3,28.5,148.3z M29,85.6c0.5,0,0.7-0.2,0.7-0.7C29.2,84.7,29,84.9,29,85.6z M32.7,111.2
	c0-0.3-0.2-0.4-0.7-0.2v0.2H32.7z M33.4,43.8c0-0.8,0.2-1.4,0.5-2c0.3-0.5,0.5-1.2,0.5-2c0-0.8-0.1-1.4-0.2-2
	c-0.2-0.5-0.1-1.2,0.2-2c0.3-0.6,0.6-1.2,0.8-1.8c0.2-0.6,0.5-1.3,0.8-2.1c0.2-0.5,0.3-1,0.5-1.5c0.2-0.5,0.5-1,0.9-1.3
	c0.2-0.8,0.1-1.2-0.1-1.2c-0.2,0-0.1-0.3,0.3-0.9c0.8-1.1,1.3-2.2,1.6-3.3c0.3-1.2,0.8-2.3,1.6-3.3c0.8-1.2,1.7-2.3,2.7-3.2
	c1-0.9,2-1.9,2.9-3c1.5-1.8,3.2-3.5,5.1-5.1c0.5-0.3,1-0.6,1.5-0.8c0.5-0.2,1-0.5,1.5-0.8c0.5-0.3,0.9-0.7,1.3-1
	c0.4-0.4,0.8-0.7,1.3-1c1.2-0.6,2.5-1.2,3.7-1.7c1.2-0.5,2.5-0.9,3.9-1c1.2-0.3,2.3-0.7,3.3-1.2c1-0.5,2.1-0.8,3.3-0.9
	c2.5-0.3,4.9-0.5,7.3-0.6c2.4-0.1,4.9,0.1,7.5,0.6c2.6,0.5,5.5,1.2,8.8,2.1c3.2,0.9,5.9,2.4,8.1,4.4c1.7,0.3,3.2,1.1,4.5,2.4
	c1.3,1.3,2.4,2.6,3.3,3.8c1.5,1.7,3,3.3,4.4,4.8c1.4,1.5,2.6,3.2,3.7,5.1c0.9,1.8,1.7,3.7,2.3,5.7c0.6,1.9,1.3,3.8,2.1,5.7
	c0.5,0.8,0.7,1.7,0.6,2.7c-0.1,1,0,1.9,0.1,2.7c0.3,1.2,0.4,2.3,0.2,3.3c-0.2,1-0.1,2.1,0.2,3.3c0.5,2,0.4,4-0.1,5.9
	c-0.5,1.9-1.1,3.8-1.7,5.7c-0.8,2.3-1.5,4.5-2.2,6.7c-0.7,2.2-1.9,4.2-3.6,6c-0.6,0.8-1.2,1.5-1.7,2.3c-0.5,0.8-1,1.6-1.3,2.5
	c-0.8,0.3-1.5,0.8-2.2,1.5c-0.7,0.7-1.3,1.3-2,2c-1.4,1.7-2.4,3.6-3,5.8c-0.6,2.2-1.6,4.1-3,5.8l-3.5,4.2c-0.6,0.8-1,1.5-1.2,2.2
	c-0.2,0.7-0.5,1.3-1.2,2c-1.1,1.5-2.5,2.3-4.2,2.3c-1.1,0-1.8-0.4-2.3-1.2c-0.5-0.8-1.2-1.1-2.3-0.9c-0.8,0.2-1.5,0.5-2.2,1
	c-0.7,0.5-1.4,0.8-2.2,0.8c-1.1,0.2-2,0-2.8-0.3c-0.8-0.4-1.5-0.7-2.3-1c-0.8-0.3-1.5-0.3-2.1,0.1c-0.6,0.4-1.3,0.7-2.1,1
	c-1.2,0.5-2.3,0.4-3.2-0.2c-0.9-0.6-2-0.9-3.2-0.9c-0.9,0-1.8,0.2-2.7,0.7c-0.8,0.5-1.7,0.6-2.7,0.5c-0.8,0-1.5-0.2-2.1-0.7
	c-0.6-0.5-1.2-1-1.8-1.6c-0.6-0.6-0.9-1.3-0.9-2.1c0-0.8-0.4-1.5-1.2-2.3l-4.2-4.8c-1.2-1.4-2.1-3-2.5-4.8c-0.5-1.8-1.3-3.5-2.5-4.8
	c-0.8-0.8-1.5-1.5-2.2-2.3c-0.7-0.8-1.3-1.7-2-2.8c-0.6-0.9-1.3-1.8-2-2.8c-0.7-0.9-1.4-1.8-2.2-2.8c-1.5-2.2-2.7-4.4-3.6-6.8
	c-0.8-2.4-1.6-4.8-2.2-7.3c-0.2-0.8-0.2-1.4-0.1-2c0.1-0.5,0-1.1-0.3-1.7c-0.3-0.8-0.4-1.5-0.2-2.1c0.2-0.6,0.2-1.3,0.2-2.1
	c0-0.6-0.1-1.2-0.2-1.6C33.5,44.9,33.4,44.4,33.4,43.8z M40.1,52.3c0.2,0.3,0.1,0.4-0.2,0.3c-0.3-0.1-0.4,0-0.2,0.3h0.7
	C40.3,52.7,40.2,52.5,40.1,52.3z M41.2,29.7c0,0.3,0.1,0.5,0.3,0.7c0.2,0.2,0.5,0.1,0.8-0.2C42.4,29.5,42,29.4,41.2,29.7z
	 M45.4,42.4c-0.2,0-0.2,0-0.2,0.1c0,0.1-0.1,0.1-0.2,0.1c0.2,0.2,0.3,0.2,0.5,0.2C45.5,42.7,45.5,42.5,45.4,42.4z M46.3,47.2
	c-0.3,0.6-0.5,1.1-0.5,1.4c0.3,0.2,0.5,0.3,0.6,0.5c0.1,0.2,0.3,0.2,0.6,0c0.3-0.3,0.3-0.7,0.1-1C46.9,47.7,46.6,47.4,46.3,47.2z
	 M47.5,35.9c-0.3-0.2-0.5-0.1-0.7,0.2c-0.2,0.3-0.1,0.5,0.2,0.5c0-0.3,0.1-0.4,0.2-0.3C47.4,36.3,47.5,36.2,47.5,35.9z M47.5,49.5
	c0,0.3,0.2,0.6,0.5,0.9c0-0.3,0-0.6,0.1-0.8C48.1,49.4,47.9,49.4,47.5,49.5z M48.8,138c-0.3,0.3-0.3,0.5,0,0.7
	c0.3,0.2,0.5,0.1,0.7-0.2c-0.3,0-0.4-0.1-0.3-0.2C49.3,138,49.2,138,48.8,138z M50.5,31.1c0,0.6,0.2,0.9,0.7,0.9
	C51.3,31.2,51.1,30.9,50.5,31.1z M53.2,26.2c-0.3,0.3-0.3,0.5,0,0.7c0.3,0.2,0.5,0.1,0.5-0.2c-0.2,0-0.2-0.1-0.1-0.2
	C53.7,26.3,53.5,26.2,53.2,26.2z M53,31.5c0,0.8,0.3,1.1,0.9,0.9c0-0.3,0-0.6,0-0.8C53.9,31.4,53.6,31.4,53,31.5z M54.8,19.3
	c-0.5-0.2-0.7,0.1-0.7,0.7C54.6,20.1,54.8,19.9,54.8,19.3z M56,11.9c-0.3,0-0.7,0.2-1.2,0.6c-0.5,0.4-0.5,0.7,0,1
	c0.2-0.3,0.4-0.5,0.7-0.7C55.8,12.7,56,12.4,56,11.9z M69.9,65.2c0.8-2,0.8-4.2,0.2-6.6c-0.6-2.4-2-4-4.2-5
	c-1.7-0.8-3.6-0.8-5.7-0.2c-2.1,0.6-3.5,1.8-4.3,3.5c-1.1,2.2-1.4,4.2-0.9,6.1c0.5,1.9,1.5,3.5,3.2,4.7c0.6,0.6,1.5,1,2.7,1
	c1.2,0.1,2.3,0,3.5-0.2c1.2-0.2,2.2-0.7,3.2-1.3C68.7,66.7,69.4,66,69.9,65.2z M55.8,85.1c0-0.3,0.1-0.5,0.2-0.6
	c0.2-0.1,0.2-0.3,0-0.6c-0.2,0.2-0.4,0.2-0.7,0.2C55.2,84.5,55.3,84.8,55.8,85.1z M56.2,24.4c0-0.3-0.2-0.5-0.5-0.5
	c-0.3,0-0.4,0.2-0.2,0.5H56.2z M57.6,27.1c-0.5-0.3-0.8-0.3-1,0c-0.2,0.3-0.2,0.6,0.1,0.9c0.3,0.2,0.6,0.1,0.9-0.1
	C57.9,27.7,57.9,27.5,57.6,27.1z M58.1,36.4c0.5-0.2,0.7-0.4,0.7-0.8c0-0.4-0.1-0.8-0.2-1.3c-0.2-0.5-0.2-0.8,0-1.2
	c0.2-0.3,0.7-0.4,1.6-0.2c-0.2-0.5-0.5-1-1-1.7c-0.5-0.7-1-0.7-1.5,0.1c0.2,0.3,0.5,0.6,0.9,0.8c0.5,0.2,0.2,0.7-0.7,1.3
	c-1.1,0.8-1.3,1.3-0.7,1.5C57.8,35.1,58.1,35.6,58.1,36.4z M59,25.5c-0.3,0-0.6-0.1-0.8-0.3c-0.2-0.2-0.5-0.3-0.8-0.3
	c0,0.3,0.1,0.6,0.2,0.8c0.2,0.2,0.2,0.5,0.2,0.8c0.5,0,0.7-0.1,0.8-0.2C58.7,26.1,58.8,25.8,59,25.5z M58.1,28.1
	c-0.3-0.3-0.5-0.3-0.5,0.1C57.6,28.6,57.8,28.5,58.1,28.1z M58.1,139.1c0.8,0,1.2-0.4,1.2-1.2C58.5,138,58.1,138.3,58.1,139.1z
	 M60.2,30.4c0.3-0.8,0.2-1.3-0.3-1.5c-0.5-0.2-1-0.5-1.5-0.8c-0.3,0.8-0.2,1.3,0.5,1.5C59.4,29.8,59.8,30.1,60.2,30.4z M59.5,39.8
	c-0.3,0-0.5,0.1-0.7,0.2c-0.2,0.2-0.1,0.2,0.2,0.2L59.5,39.8z M60.4,35c-0.2,0.3,0.1,0.5,0.7,0.5c0.6,0,0.8-0.2,0.5-0.7
	c-0.3-0.2-0.5-0.2-0.6,0C60.9,34.9,60.7,35,60.4,35z M60.4,24.1c0,0.6,0.2,0.9,0.5,0.9C60.9,24.5,60.7,24.1,60.4,24.1z M61.8,21.6
	c-0.3,0.2-0.5,0.4-0.7,0.8c-0.2,0.4-0.1,0.7,0.2,1c0.3-0.3,0.7-0.3,1,0c0.4,0.3,0.7,0.3,1,0c-0.3-0.5-0.6-0.8-0.8-1
	C62.4,22.2,62.1,21.9,61.8,21.6z M61.1,25.1c0.5,0.8,0.8,1.2,0.9,1.4C62,25.7,61.7,25.2,61.1,25.1z M63.2,36.1
	c-0.2,0.3-0.4,0.4-0.7,0.3c-0.3-0.1-0.6-0.1-0.9-0.1c-0.2,0.6,0,0.8,0.6,0.6c0.5-0.2,1-0.3,1.3-0.1c0.3,0.3,0.7,0.5,1.2,0.5
	c0.5,0,0.5-0.4,0.2-1.2c0-0.5,0-0.9-0.1-1.3c-0.1-0.4,0-0.7,0.3-1c0.6-0.5,0.7-0.8,0.1-0.9c-0.5-0.2-0.8-0.5-0.8-0.9
	c0.3,0.5,0.5,0.6,0.6,0.3c0.1-0.2,0.2-0.5,0.3-0.8c0.3,0.5,0.4,0.7,0.3,0.8c-0.1,0.1,0.1,0,0.6-0.3c-0.5,0-0.7-0.2-0.7-0.7
	c-0.8,0-1.4,0.3-1.8,0.9v0.5c0,0.2,0.1,0.3,0.2,0.5c-0.3,0.3-0.5,0.3-0.7,0c-0.2-0.3-0.2,0.1-0.2,1.2c0,0.5,0.1,0.8,0.3,0.9
	C63.5,35.4,63.5,35.7,63.2,36.1z M62.7,7.8c-0.2,0.5,0,0.7,0.3,0.8c0.4,0.1,0.7,0,0.8-0.3c-0.3,0-0.5-0.1-0.6-0.2
	C63.2,7.8,63,7.8,62.7,7.8z M62.9,26.9c-0.2,0.3-0.1,0.7,0.2,1c0.3,0.4,0.4,0.8,0.2,1.3c0.3-0.2,0.7-0.2,1.2-0.2
	c0.5,0,0.6-0.2,0.5-0.7c-0.5,0-0.8-0.2-1-0.6C63.7,27.3,63.4,27.1,62.9,26.9z M65.2,11.9c0.2-0.5,0.1-0.8-0.2-0.9
	c-0.3-0.2-0.6-0.1-0.9,0.2C64.1,11.8,64.5,12.1,65.2,11.9z M64.1,27.1c0.8-0.2,1.2-0.5,1.2-1.2c0-0.6,0.2-1.2,0.5-1.6
	c-0.5-0.5-0.8-0.6-1-0.5c-0.2,0.2-0.4,0.5-0.5,0.9c-0.1,0.5-0.1,0.9-0.1,1.4C64.1,26.7,64.1,27,64.1,27.1z M64.3,21.8
	c0.8-0.3,1-0.5,0.8-0.5C64.9,21.4,64.6,21.5,64.3,21.8z M65.7,21.1c0.3,0.2,0.5,0,0.5-0.3c0-0.4-0.2-0.5-0.5-0.3V21.1z M65.9,28.5
	c0.5,0.2,0.8,0,1-0.3c0.2-0.4,0.2-0.7-0.1-1c-0.5,0-0.7,0.2-0.7,0.5C66.2,27.9,66.1,28.2,65.9,28.5z M66.2,12.6h0.5
	c0-0.3-0.2-0.5-0.5-0.5V12.6z M67.1,23.7c-0.3-0.3-0.5-0.3-0.7-0.1c-0.2,0.2-0.2,0.5-0.2,0.8l0.5,0.5C66.9,24.5,67.1,24.1,67.1,23.7
	z M69.4,26.7c-0.3,0.3-0.4,0.5-0.2,0.7c0.2,0.2,0.2,0.4,0.2,0.7c-0.3,0-0.7,0.1-1.3,0.3c-0.5,0.2-1,0.5-1.3,0.9
	c-0.3,0.4-0.4,0.8-0.3,1.2c0.1,0.4,0.5,0.6,1.3,0.6c0.3-0.5,0.3-0.7,0-0.8c-0.3-0.1-0.5-0.3-0.7-0.6c0.2-0.2,0.5-0.3,1-0.6
	c0.5-0.2,1-0.5,1.4-0.8c0.4-0.3,0.6-0.6,0.7-0.9C70.3,27.1,70,26.8,69.4,26.7z M66.6,35.9c0.6,0,0.8-0.2,0.5-0.5
	C66.8,35.1,66.6,35.3,66.6,35.9z M68.2,22.1c-0.3-0.2-0.8-0.2-1.4-0.2c0.3,1.2,0.9,1.6,1.7,1.2c0.8-0.5,0.7-1.2-0.6-2.3
	c-0.2,0.2-0.1,0.4,0.2,0.7C68.5,21.7,68.5,21.9,68.2,22.1z M67.5,38.2c0,1.4,0.3,1.8,0.9,1.4c0.6-0.5,1.3-0.8,2.1-0.9
	c0-0.5-0.2-0.8-0.6-1c-0.4-0.2-0.3-0.7,0.1-1.5c-0.8,0.3-1.2,0.8-1.2,1.4C68.9,38.1,68.5,38.4,67.5,38.2z M68.7,26.2
	c0.2-0.3,0.3-0.8,0.3-1.4c0.1-0.6-0.3-0.8-1-0.7C68,25.1,68.2,25.8,68.7,26.2z M68.7,31.8c-0.2,0.2-0.2,0.3-0.2,0.5
	c0,0.2-0.1,0.3-0.2,0.5c0,0.6,0.3,0.9,0.9,0.9c0.2-0.5,0.3-0.9,0.3-1.3c0.1-0.4,0.1-0.8,0.1-1.3c-0.3,0-0.7,0.2-1.2,0.7H68.7z
	 M68.2,41.2c0.3,0.2,0.6,0.2,0.8,0.2c0.2,0,0.5-0.4,0.8-1.2C68.8,40,68.2,40.3,68.2,41.2z M68.5,84.9c0.5,0.2,0.7,0,0.8-0.3
	c0.1-0.4,0-0.6-0.3-0.6c0,0.2-0.1,0.3-0.2,0.3C68.5,84.4,68.5,84.6,68.5,84.9z M68.7,31.8c0-0.2,0-0.2,0.1-0.2
	c0.1,0,0.1,0.1,0.1,0.2H68.7z M70.1,42.8c0.3-0.5,0.2-0.7-0.2-0.6C69.4,42.3,69.5,42.5,70.1,42.8z M71.7,15.8c0-0.8-0.3-1.1-0.8-1
	c-0.5,0.1-0.8,0.4-0.8,1C70.9,16.1,71.4,16.1,71.7,15.8z M72.2,21.1c0-0.8-0.3-1.4-1-2c-0.7-0.5-1-0.2-1,1c0.3,0.3,0.6,0.5,0.9,0.5
	C71.3,20.7,71.7,20.8,72.2,21.1z M70.5,32.9c0.2,0,0.3-0.1,0.5-0.2c0.2-0.2,0-0.3-0.5-0.5V32.9z M71.9,36.1
	c-0.3,0.2-0.6,0.2-0.9,0.1c-0.3-0.1-0.5,0.2-0.5,0.8c0.3,0.3,0.6,0.3,0.9,0C71.8,36.8,71.9,36.5,71.9,36.1z M73.5,25.8
	c-0.3-0.2-0.5-0.4-0.5-0.7c0-0.3,0-0.6,0-0.8c0-0.2,0-0.4-0.1-0.6c-0.1-0.2-0.3-0.2-0.8,0c-0.8,0.2-1.2,0.2-1.4,0.1
	c-0.2-0.1-0.1,0.5,0.2,1.7c0.9-0.2,1.5,0.5,1.8,1.8c0.6-0.5,1.1-0.4,1.4,0.1c0.3,0.5,0.7,0.7,1.2,0.3c0.8-0.6,0.7-1-0.1-1.3
	C74.4,26.3,73.9,26.1,73.5,25.8z M70.8,85.6c-0.2,0.3,0,0.4,0.5,0.2c0.5-0.2,0.5-0.3,0.2-0.5C71,84.9,70.8,84.9,70.8,85.6z M71,43.1
	c0.3,0.6,0.6,0.9,0.8,0.9c0.2,0,0.4-0.1,0.5-0.3c0.1-0.2,0-0.4-0.1-0.6C72,42.9,71.6,42.9,71,43.1z M71.2,21.6
	c0,0.5,0.2,0.7,0.7,0.7C71.9,21.7,71.7,21.5,71.2,21.6z M71.5,39.1c-0.5,0.8-0.2,1.2,0.9,1.2C72.1,39.5,71.8,39.1,71.5,39.1z
	 M71.7,47c-0.2,0.5-0.1,0.8,0.1,1.2c0.2,0.3,0.5,0.3,0.8,0c-0.2-0.2-0.2-0.4-0.2-0.8C72.4,47,72.2,46.8,71.7,47z M71.7,35.5
	c0.2,0.2,0.3,0.2,0.3,0c0.1-0.2,0-0.3-0.3-0.5V35.5z M72.6,30.1c-0.2,0.8-0.1,1,0.2,0.7C73.2,30.5,73.1,30.3,72.6,30.1z M72.6,53
	c0.3,0.2,0.5,0.1,0.5-0.2c0-0.3,0.1-0.5,0.2-0.5C72.9,52.2,72.6,52.4,72.6,53z M74.2,44.2c0.3,0.5,0.5,0.5,0.6,0.2
	c0.1-0.3,0.3-0.4,0.6-0.2c0,0.5,0.4,0.7,1.2,0.7c0.2-0.5,0.1-1.2-0.2-2.3c-0.2,0.3-0.5,0.7-0.9,1.2c-0.5,0.5-0.7,0.3-0.7-0.5
	c0-0.3,0.2-0.5,0.6-0.7c0.4-0.2,0.4-0.4,0.1-0.7c-0.3-0.2-0.5-0.1-0.5,0.2c0,0.3-0.2,0.5-0.5,0.5c-0.5,0.2-0.8,0.2-1.2,0.2
	c-0.5,0.3-0.6,0.5-0.5,0.5c0.5-0.3,0.8-0.3,0.9,0C73.9,43.6,74.1,43.9,74.2,44.2z M74.5,39.4c0.5-0.3,0.6-0.7,0.3-1
	c-0.2-0.4-0.6-0.6-1-0.6c-0.3,0.3-0.4,0.7-0.2,1C73.7,39.2,74,39.4,74.5,39.4z M74,15.8c-0.2,0.3-0.1,0.5,0.2,0.5
	c0.3,0,0.4-0.2,0.2-0.5h-0.2H74z M75.2,19.5c0-0.5-0.2-0.7-0.6-0.8c-0.4-0.1-0.6,0.2-0.6,0.8c0.2,0,0.3,0,0.5,0.1
	C74.6,19.7,74.9,19.7,75.2,19.5z M74.5,6.8C74.2,7,74,7.1,74.1,7.3c0.1,0.2,0.3,0.2,0.6,0C74.7,7,74.6,6.8,74.5,6.8z M75.6,23.4
	c-0.5-0.2-0.8-0.1-1.2,0.2c-0.3,0.3-0.3,0.6,0,0.9c0.3,0,0.7-0.1,1-0.3C75.9,24,75.9,23.8,75.6,23.4z M74.5,32.9
	c0,1.2,0.5,1.7,1.6,1.4C75.8,33.4,75.2,32.9,74.5,32.9z M75.4,41.5v-0.9l-0.9-0.2C74.8,41.1,75.1,41.5,75.4,41.5z M77.5,47
	c0.2-1.1-0.2-1.2-0.9-0.5c-0.8,0.8-1.2,1.4-1.4,1.8c0.6,0.3,1,0.2,1.3-0.5C76.7,47.3,77,47,77.5,47z M75.4,73.1
	c0.3,0.2,0.5,0,0.6-0.5c0.1-0.5,0-0.7-0.3-0.7C75.3,72.4,75.2,72.8,75.4,73.1z M76.1,129.6c0.8-0.3,1.2-0.8,1.2-1.6
	C76.5,128.3,76.1,128.9,76.1,129.6z M76.3,19.8c-0.3,0.3-0.2,0.6,0.2,0.9c0.5,0.3,0.8,0.6,0.9,0.9c-0.3,0.2-0.4,0.3-0.3,0.5
	c0.1,0.2,0.1,0.4,0.1,0.7c0.8-0.3,1-0.9,0.6-1.7C77.4,20.2,76.9,19.8,76.3,19.8z M77.7,26.9c0.6-0.8,1-1,1.2-0.6
	c0.2,0.4,0.5,0.9,0.9,1.5c1.1,0,1.3-0.6,0.7-1.8c-0.6-1.2-1.5-1.8-2.8-1.6c-0.2,0.5-0.3,0.7-0.6,0.7c-0.2,0-0.5,0-0.8,0
	c0,0.2,0.2,0.6,0.5,1.4C77.1,27.2,77.4,27.4,77.7,26.9z M76.6,32.9c0.8,0,0.9-0.2,0.5-0.6C76.6,32,76.4,32.1,76.6,32.9z M77.2,36.1
	c0.2-0.3,0.2-0.5,0-0.5c-0.2,0-0.3,0.2-0.5,0.5H77.2z M77.2,32c0.5,0,0.7-0.2,0.8-0.6c0.1-0.4-0.1-0.7-0.6-0.8
	C77.5,31.2,77.4,31.7,77.2,32z M77.9,18.6c-0.5,0.3-0.5,0.7,0,1c0.5,0.4,0.8,0.6,1.2,0.6c0.2-0.3,0.3-0.5,0.3-0.6
	c0.1-0.1,0.2-0.3,0.3-0.6c-0.3,0-0.6,0-0.9,0C78.5,19.1,78.2,18.9,77.9,18.6z M77.7,36.1c0,0.5,0.2,0.8,0.5,1.2
	c0.3,0.3,0.5,0.2,0.5-0.5c-0.3,0-0.5-0.1-0.5-0.3C78.2,36.3,78,36.1,77.7,36.1z M77.9,11.2c-0.2,0.5,0,0.7,0.6,0.6
	c0.5-0.1,0.7-0.3,0.3-0.6c-0.3-0.2-0.5-0.2-0.6-0.1C78.2,11.2,78.1,11.2,77.9,11.2z M79.6,39.1c0.3-0.3,0.6-0.5,0.9-0.7
	c0.3-0.2,0.3-0.5,0-0.9c-0.8-1.1-1.3-1.1-1.6-0.1c-0.3,1-0.5,1.7-0.7,2.2c0.6-0.2,0.9-0.2,0.9,0C79.1,39.8,79.2,39.6,79.6,39.1z
	 M78.4,28.3c-0.3,0.5-0.3,0.9,0.1,1.3c0.4,0.4,0.8,0.6,1.3,0.6C79.5,29.1,79,28.5,78.4,28.3z M79.6,34.8c0.3-0.3,0.3-0.6,0.1-0.8
	c-0.2-0.2-0.5-0.3-0.8-0.3c-0.3,0.3-0.3,0.6-0.1,0.8C79,34.6,79.2,34.8,79.6,34.8z M78.6,44.2c0.3-0.2,0.5-0.1,0.5,0.2
	c0,0.3,0.2,0.4,0.5,0.2c0.3-0.2,0.3-0.3-0.1-0.6C79,43.9,78.8,43.9,78.6,44.2z M79.1,45.4c0.3,0.6,0.5,0.7,0.5,0.2
	S79.4,45.1,79.1,45.4z M81.2,17.7c0-0.6-0.3-0.8-0.9-0.7c-0.6,0.2-0.9,0.5-0.9,1.2c0.3-0.3,0.6-0.4,0.8-0.2
	C80.4,18.1,80.7,18,81.2,17.7z M79.3,49.5c0.8,0,1-0.2,0.6-0.6C79.5,48.6,79.3,48.8,79.3,49.5z M80.2,35.7c0.3,0.2,0.5,0.3,0.5,0.5
	c0,0.2,0.2,0.3,0.5,0.5c0-0.3-0.1-0.6-0.3-0.9C80.6,35.4,80.4,35.4,80.2,35.7z M80.5,19.5c0,0.5,0.2,0.8,0.7,0.9
	c0.5,0.2,0.8-0.1,0.9-0.7C81.5,19.4,80.9,19.4,80.5,19.5z M83,16.8c-0.2-0.3-0.5-0.5-1-0.7c-0.5-0.2-0.9-0.2-1-0.2
	c0,0.3,0.3,0.6,0.8,0.9C82.3,17.1,82.7,17.1,83,16.8z M81.4,46.5c-0.5,0.5-0.2,0.7,0.7,0.7C82.1,46.6,81.9,46.4,81.4,46.5z
	 M81.4,9.1c-0.2,0.5-0.1,0.8,0.1,0.9c0.2,0.2,0.5,0.2,0.7,0c0.2-0.2,0.5-0.3,0.8-0.6c0.3-0.2,0.5-0.3,0.7-0.3
	c-0.3-1.2-0.6-1.5-0.9-0.8C82.5,9,82,9.3,81.4,9.1z M84.9,32c-0.3,0-0.6,0-0.8,0.1c-0.2,0.1-0.5,0.1-0.8,0.1c0-0.5-0.1-0.8-0.2-1.2
	c-0.5,0-0.7,0.3-0.7,0.9c0.2,0.3,0.3,0.5,0.5,0.7c0.2,0.2,0.2,0.4,0.2,0.7c0.3-0.3,0.6-0.5,0.9-0.7C84.2,32.5,84.6,32.3,84.9,32z
	 M83.9,13.5c0.3-0.9-0.2-1.3-1.4-1.2C82.6,13.1,83,13.5,83.9,13.5z M84.4,23.9c0-0.3,0.2-0.5,0.5-0.7c0.3-0.2,0.6-0.3,0.9-0.5
	c0.3-0.2,0.5-0.3,0.6-0.5c0.1-0.2-0.1-0.5-0.6-0.9c-0.5,0.5-1,0.6-1.6,0.5c-0.6-0.2-1.2,0-1.6,0.5c0.5,0.2,0.7,0.4,0.7,0.8
	c0,0.4,0,0.8-0.1,1.3c-0.1,0.5-0.1,0.9,0,1.3c0.1,0.4,0.3,0.7,0.8,0.8c0.3-0.3,0.3-0.5,0.1-0.6c-0.2-0.1-0.3-0.3-0.3-0.6
	c-0.2-0.6,0-0.8,0.5-0.7C84.6,24.8,84.7,24.5,84.4,23.9z M82.6,42.8c0.9,0.5,1.2,0.4,0.8-0.2C83,42,82.7,42.1,82.6,42.8z M83.7,15.4
	c0-0.3-0.3-0.5-0.9-0.5C82.6,15.2,82.9,15.4,83.7,15.4z M83.5,33.6c-0.5,0-0.7,0.2-0.7,0.5C83.4,34.1,83.6,33.9,83.5,33.6z
	 M87.9,35.2c-0.3,0.2-0.8,0.2-1.4,0.2c-0.6,0-1,0.2-1.2,0.7c0.6,0,0.9,0.3,0.8,1c-0.1,0.7-0.2,1.1-0.3,1.3c-0.3,0.3-0.5,0.4-0.6,0.2
	c-0.1-0.2-0.1-0.4-0.1-0.8c0-0.4-0.1-1-0.2-1.7c0,0.3-0.1,0.3-0.2,0.1c-0.2-0.2-0.4-0.3-0.7-0.1c-0.2,0.3-0.4,0.5-0.7,0.7
	c-0.3,0.2-0.5,0.5-0.5,0.9c0.8-0.3,1.3-0.1,1.7,0.6c0.4,0.7,0.7,1.3,1,2c0.5-0.5,1-0.8,1.5-1.2c0.5-0.3,0.6-0.8,0.1-1.6
	c-0.3-0.3-0.2-0.7,0.3-1.2C88.1,35.9,88.2,35.5,87.9,35.2z M83.7,132.9c0-0.5-0.2-0.7-0.7-0.7v0.7H83.7z M83.9,48.6
	c0.8,0,1.1-0.3,0.9-0.9C84.1,47.7,83.8,48,83.9,48.6z M84.6,95c-0.2,0.5,0,0.7,0.6,0.7c0.5,0,0.7-0.2,0.6-0.7H84.6z M86,30.6
	c0.2-0.5,0.2-0.8,0.1-1c-0.1-0.2-0.2-0.7-0.3-1.3c0-0.3-0.1-0.6-0.2-0.9c-0.3-0.5-0.6-0.5-0.9-0.2c0.3,0.5,0.4,1.2,0.3,2.2
	C84.9,30.3,85.2,30.8,86,30.6z M85.8,89.7c-0.6-0.5-1-0.4-1.2,0.2c0.2,0.2,0.4,0.2,0.7,0.2C85.6,90.2,85.8,90,85.8,89.7z M86.2,17.2
	c0,0.2-0.1,0.2-0.2,0.1c-0.2-0.1-0.2,0-0.2,0.1c0.3,0.3,0.6,0.3,0.8,0.1C86.8,17.3,86.7,17.2,86.2,17.2z M89.7,29
	c-0.9,0.3-1.2,0-0.7-0.9c-0.5-0.2-0.9-0.2-1.4,0c-0.2-0.3-0.4-0.7-0.7-1c-0.3-0.4-0.7-0.4-1.2-0.1c0.5,0.6,1,1,1.6,1.3
	c0.6,0.2,1.1,0.7,1.4,1.5c-0.6,0.3-0.5,0.7,0.5,1.3c0.9,0.5,1.6,1,2.1,1.3c0.3-0.3,0.2-0.9-0.3-1.7C90.4,29.6,90,29.1,89.7,29z
	 M86.5,12.4c-0.3,0.3-0.3,0.6-0.1,0.8c0.2,0.2,0.4,0.2,0.6-0.1c-0.3,0.2-0.4,0.1-0.2-0.2C86.9,12.5,86.8,12.4,86.5,12.4z
	 M86.2,130.8c0.3,0,0.7,0.1,1,0.2c0.4,0.2,0.7,0.1,1-0.2c0-1.1-0.5-1.8-1.4-2.1c-0.2,0.3-0.3,0.6-0.5,0.9
	C86.3,130,86.2,130.3,86.2,130.8z M86.7,20c0.3,0,0.6-0.1,0.9-0.2c0.3-0.2,0.5-0.4,0.5-0.7c-0.6,0.2-1.1,0.1-1.5-0.2
	C86.2,18.5,86.2,18.9,86.7,20z M86.5,32c-0.2,0.6,0.3,0.9,1.4,0.9C87.7,32.3,87.2,32,86.5,32z M87.9,16.8c-0.8,0-1.2,0.2-1.2,0.5
	c0.2,0.2,0.4,0.2,0.7,0.1C87.7,17.3,87.9,17.1,87.9,16.8z M87.9,97.1c0-0.5-0.3-0.7-0.9-0.7C86.9,97.5,87.2,97.7,87.9,97.1z
	 M102.6,54.6c-0.5-0.2-0.7-0.1-0.8,0.2c-0.1,0.3-0.3,0.5-0.6,0.5c-0.3-0.2-0.4-0.3-0.2-0.5c0.2-0.2,0.2-0.3,0.2-0.5
	c-0.8,0.3-1.4,0.3-2-0.1c-0.5-0.4-1.2-0.7-2-0.8c-2.3-0.5-4.5-0.2-6.5,0.9c-0.3,0.5-0.9,1.2-1.8,2.1c-0.5,0.5-0.7,1-0.8,1.6
	c-0.1,0.6-0.3,1.3-0.6,2.1c-0.6,1.7-0.3,3.3,0.8,5c1.2,1.6,2.6,2.8,4.3,3.6c1.2,0.3,2.5,0.3,3.7,0.1c1.2-0.2,2.4-0.6,3.5-1
	c0.9-0.5,1.6-1.3,2.1-2.4c0.5-1.2,0.8-2.2,1.2-3.1c0-1.4-0.1-2.4-0.2-3c-0.3-0.5-0.6-1-0.9-1.6c-0.3-0.6-0.3-1.2,0-1.6
	c0.2-0.3,0.4-0.5,0.7-0.7C102.9,55.2,102.9,54.9,102.6,54.6z M87.6,41.7c0.3,0,0.5-0.1,0.6-0.2c0.1-0.2,0-0.3-0.3-0.5
	c0,0.2,0,0.3-0.1,0.3C87.7,41.4,87.6,41.5,87.6,41.7z M87.6,134c0,0.6,0.4,0.9,1.2,0.9c0-0.2-0.1-0.5-0.2-0.9
	C88.4,133.6,88.1,133.6,87.6,134z M88.6,21.4c0,0.2,0,0.2-0.1,0.2c-0.1,0-0.1,0.2-0.1,0.5c0.3,0.2,0.5,0.1,0.6-0.2
	C89,21.5,88.9,21.4,88.6,21.4z M88.6,87.2c-0.2,0.3,0,0.5,0.5,0.6c0.5,0.1,0.7,0,0.7-0.3C89.6,87.2,89.2,87.2,88.6,87.2z M89.2,49.8
	c0.3-0.8,0.2-1-0.5-0.7C88.8,49.5,88.9,49.8,89.2,49.8z M89.5,35.2c0.2,0.3,0.1,0.5-0.2,0.5c-0.3,0-0.4,0.2-0.2,0.5h0.7
	C89.9,35.8,89.8,35.5,89.5,35.2z M89.5,42.8c0-0.3-0.2-0.5-0.5-0.5v0.5H89.5z M89.2,23c-0.2,0.2-0.2,0.4,0,0.7
	c0.2,0.3,0.4,0.4,0.7,0.2C89.9,23.3,89.7,23,89.2,23z M90.9,15.8c-0.3,0.5-0.6,0.9-0.8,1.3c-0.2,0.4-0.5,0.7-0.8,1
	c0.6,0,0.9,0,0.9,0.1c0,0.1,0.2-0.2,0.5-0.8c0.2-0.5,0.4-0.7,0.7-0.8C91.6,16.6,91.5,16.3,90.9,15.8z M90.2,24.4
	c-0.2,0.3-0.2,0.6,0,0.8c0.2,0.2,0.2,0.5,0.2,0.8c-0.8,0.5-1.2,0.8-1.2,1.2C91.6,26.7,91.9,25.8,90.2,24.4z M89.5,32.7
	c0.3-0.3,0.4-0.5,0.2-0.5c-0.2,0-0.2-0.1,0-0.2c-0.3-0.3-0.5-0.3-0.5,0.1C89.2,32.5,89.3,32.7,89.5,32.7z M90.2,43.3
	c-0.3-0.3-0.5-0.3-0.6,0.1c-0.1,0.4,0.1,0.5,0.6,0.3V43.3z M90.4,20c0.3,0.6,0.5,0.9,0.7,0.9c0.2,0,0.4,0.2,0.7,0.5
	c0.5,0.3,0.6,0.9,0.3,1.7c-0.2,0.8,0.2,1.1,1.3,0.8c0.3-0.2,0.5-0.4,0.7-0.7c0.2-0.5,0.2-0.7,0-0.7c-0.9,0.5-1.6,0.2-2-0.8
	c-0.4-1-0.7-1.9-1-2.7c-0.2,0.5-0.4,0.5-0.7,0.2C90.1,19,90.1,19.2,90.4,20z M91.3,134.3c0.2-0.5,0.1-0.8-0.2-1
	c-0.3-0.2-0.6-0.2-0.9,0.1C90.5,134,90.9,134.3,91.3,134.3z M91.8,40.3c-0.2,0-0.3-0.1-0.3-0.2c-0.1-0.2-0.3-0.1-0.6,0.2
	c-0.2,0.3,0,0.5,0.3,0.5C91.6,40.8,91.8,40.6,91.8,40.3z M91.6,9.6c-0.3,0.3-0.3,0.6-0.1,0.9c0.2,0.3,0.5,0.5,0.8,0.7
	c0.8,0,1-0.3,0.7-1C92.6,9.5,92.2,9.3,91.6,9.6z M91.3,38.2c0.2,0,0.3-0.1,0.3-0.2c0.1-0.2,0-0.2-0.3-0.2V38.2z M91.8,12.4
	c-0.5,0.5-0.3,0.7,0.5,0.7C92.2,12.6,92.1,12.4,91.8,12.4z M92.7,35.2c-0.2-0.3-0.2-0.6-0.1-0.8c0.1-0.2,0-0.3-0.3-0.3
	C92.2,34.8,92.4,35.2,92.7,35.2z M93.4,40.8c-0.3-0.3-0.6-0.2-0.8,0.5c-0.2,0.6,0,1,0.6,1.2c0.5-0.2,0.7-0.4,0.7-0.8
	C93.9,41.2,93.7,40.9,93.4,40.8z M94.6,29c0.2-0.6,0.1-0.9-0.1-0.8c-0.2,0.1-0.5-0.1-0.8-0.6v0.2c-0.2,0.2-0.3,0.3-0.3,0.5
	c-0.1,0.2-0.2,0.3-0.3,0.5c0.6,0.2,0.8,0.5,0.7,0.9c-0.2,0.5-0.2,0.8-0.2,1.2C93.9,30.7,94.2,30.1,94.6,29z M93.2,122
	c0.6,0,0.9-0.5,0.9-1.6C93.5,120.4,93.2,121,93.2,122z M93.4,19.1c-0.2,0.8,0.2,1.3,0.9,1.5c0.8,0.2,0.9,0.7,0.5,1.5
	c0.9-0.3,1.6,0,2.1,0.9c0.3,0.5,0.6,0.6,0.8,0.3c0.2-0.2,0.3-0.5,0.1-0.8c-0.3-1.1-0.8-1.4-1.6-0.9c-0.5-0.5-0.8-1-1.2-1.5
	C94.7,19.6,94.2,19.2,93.4,19.1z M94.3,17.4c-0.2,0.2-0.5,0.2-0.9,0.2c0,0.5,0.2,0.8,0.7,0.9C94.2,18.5,94.3,18.1,94.3,17.4z
	 M96.4,33.4c-0.5-1.1-1.4-1.8-2.8-2.1c0.2,0.3,0.2,0.8,0.2,1.6c0.5,0.2,0.9,0.3,1.3,0.3C95.5,33.3,95.9,33.4,96.4,33.4z M93.6,76.3
	c0.6,0,0.8-0.1,0.5-0.3C93.8,75.7,93.6,75.9,93.6,76.3z M93.9,39.1c-0.2,0.2-0.2,0.3-0.1,0.6c0.1,0.2,0.3,0.3,0.6,0.1
	C94.3,39.4,94.2,39.1,93.9,39.1z M94.8,44.5c-0.8-0.2-1.1,0-1,0.5c0.1,0.5,0.3,0.8,0.6,1.2c0-0.3,0.1-0.6,0.2-0.8
	C94.7,45,94.8,44.8,94.8,44.5z M94.1,15.4c0,0.3,0,0.6-0.1,0.8c-0.1,0.2,0.1,0.3,0.6,0.3c-0.2-0.3-0.2-0.6-0.1-0.8
	C94.5,15.5,94.4,15.4,94.1,15.4z M98,33.6c0.5-0.5,0.6-0.7,0.3-0.8c-0.2-0.1-0.5-0.1-0.8,0c-0.3,0.1-0.5,0.3-0.7,0.6
	c-0.2,0.3-0.1,0.5,0.2,0.7c-0.5,0-0.9,0.1-1.3,0.2c-0.4,0.2-0.8,0.2-1.3,0c0.2,1.1,0.7,1.3,1.6,0.7C97.1,34.4,97.7,33.9,98,33.6z
	 M94.8,23.4c0,0.6,0.2,0.9,0.7,0.8c0.5-0.1,0.8-0.3,0.9-0.8C95.6,23.1,95.1,23.1,94.8,23.4z M95.7,86c0.6,0,0.8-0.1,0.5-0.3
	C95.9,85.4,95.7,85.6,95.7,86z M95.7,123c0.3,0.2,0.5,0.1,0.5-0.1c0-0.2-0.2-0.3-0.5-0.3V123z M96.9,10.5c-0.3,0-0.5,0.1-0.7,0.2
	c-0.2,0.2-0.1,0.3,0.2,0.5c0.2-0.2,0.2-0.3,0.2-0.3C96.6,10.8,96.7,10.7,96.9,10.5z M97.3,15.8c0.3-0.3,0.4-0.7,0.3-1
	c-0.1-0.4,0-0.7,0.1-1c-0.2,0-0.5,0.2-0.9,0.6c-0.5,0.4-0.7,0.7-0.7,1c0.3,0.2,0.5,0.2,0.6,0.2C96.8,15.6,97,15.7,97.3,15.8z
	 M96.9,19.5h-0.5c-0.2,0.3-0.1,0.5,0.1,0.5c0.2,0,0.5-0.1,0.7-0.2c0.2-0.2,0.3-0.3,0.3-0.5c0-0.2-0.2-0.2-0.7-0.2V19.5z M96.6,36.6
	c0.5,0.2,0.8,0.1,0.9-0.2c-0.2,0-0.2,0-0.2-0.1c0-0.1-0.1-0.1-0.2-0.1L96.6,36.6z M97.6,39.4c-0.2-0.2-0.3-0.2-0.6-0.1
	c-0.2,0.1-0.3,0.3-0.1,0.6C97.3,39.8,97.6,39.7,97.6,39.4z M97.8,12.8c0.5,0.5,0.8,0.6,0.9,0.3c0.2-0.2,0.2-0.5,0.2-0.7
	c0-0.2-0.1-0.4-0.3-0.5C98.4,11.9,98.1,12.2,97.8,12.8z M99.4,35.2c0-0.9-0.3-1.4-0.9-1.4c-0.2,0.3-0.2,0.7-0.1,1
	C98.4,35.3,98.8,35.4,99.4,35.2z M100.3,26.7c0.2-0.3,0.1-0.6-0.2-0.9c-0.3-0.3-0.6-0.3-0.9,0c0,0.3,0.1,0.6,0.3,0.9
	C99.8,27,100,27,100.3,26.7z M99.4,38.2c0.5,0,0.6-0.2,0.3-0.5C99.5,37.5,99.4,37.6,99.4,38.2z M99.9,53.9c0-0.3,0.1-0.6,0.3-0.9
	c0.2-0.3,0-0.4-0.8-0.2C99.4,53.4,99.6,53.8,99.9,53.9z M99.6,32.5c0.5,0,0.9,0,1.4,0.1c0.5,0.1,0.7-0.2,0.7-0.8
	C100.8,31.8,100.1,32,99.6,32.5z M102.2,28.8c0-0.3-0.1-0.5-0.3-0.6c-0.2-0.1-0.3,0-0.3,0.3c0.2,0,0.2,0,0.2,0.1
	C101.7,28.7,101.9,28.8,102.2,28.8z M102.4,80c0-0.5-0.2-0.6-0.7-0.5C101.4,80.3,101.6,80.5,102.4,80z M103.6,40.3
	c-0.5,0.8-0.3,1.2,0.5,1.2c0.3-0.2,0.4-0.3,0.2-0.6C104.1,40.6,103.9,40.5,103.6,40.3z M105.2,110.5c-0.5,0.5-0.3,0.6,0.5,0.5
	C105.6,110.6,105.5,110.5,105.2,110.5z M105.9,36.4c-0.5,0-0.7,0.2-0.7,0.5c0.2,0.3,0.3,0.4,0.6,0.2C106,36.9,106,36.7,105.9,36.4z
	 M105.6,20.9c0,0.2,0,0.3-0.1,0.3c-0.1,0.1-0.1,0.2-0.1,0.3h0.7C106.6,21.1,106.4,20.9,105.6,20.9z M106.3,33.4c0-0.5,0-0.8,0-1
	c0-0.2-0.2-0.3-0.7-0.3C105.3,32.9,105.6,33.4,106.3,33.4z M106.6,34.1c0.5,0,0.6-0.2,0.3-0.5C106.7,33.3,106.6,33.5,106.6,34.1z
	 M106.6,132.6c0,0.5,0.1,0.6,0.2,0.5c0.2-0.2,0.4-0.2,0.7,0c0-0.5-0.1-0.7-0.2-0.6C107.1,132.6,106.9,132.6,106.6,132.6z
	 M108.4,36.1c-0.2-0.3-0.3-0.4-0.5-0.2c-0.2,0.2-0.2,0.4-0.2,0.7C108.2,36.6,108.4,36.5,108.4,36.1z M108.4,32c0,0.8,0.3,1,0.8,0.8
	C109.8,32.6,109.5,32.3,108.4,32z M108.9,40.3c0.5-0.3,0.8-0.5,0.9-0.7c-0.5-0.2-0.8-0.2-1.2,0c0,0.2,0,0.3,0.1,0.3
	C108.8,40,108.9,40.2,108.9,40.3z M108.6,67.1c0.5,0,0.6-0.2,0.3-0.5C108.8,66.3,108.6,66.5,108.6,67.1z M109.8,31.8
	c-0.2,0-0.2,0.1-0.2,0.2c0,0.2,0.1,0.2,0.2,0.2c0.2,0,0.2-0.1,0.2-0.2C110,31.8,109.9,31.8,109.8,31.8z M112.1,39.6h0.5
	c0-0.3-0.2-0.5-0.5-0.5V39.6z M115.3,38.2c-0.2-0.3-0.1-0.7,0.1-1.2c0.2-0.5,0-0.6-0.8-0.5c0.3,0.3,0.4,0.7,0.2,1.2
	C114.7,38.2,114.9,38.4,115.3,38.2z M115.6,56c0-0.6-0.2-0.9-0.7-0.9V56H115.6z M115.8,110.5c-0.3,0.3-0.3,0.5,0.1,0.5
	c0.4,0,0.5-0.1,0.3-0.2c-0.2,0-0.2-0.1-0.2-0.2C116,110.3,115.9,110.3,115.8,110.5z M119,107c-1.2,0-1.5,0.5-0.9,1.4
	C118.7,108.4,119,107.9,119,107z M118.6,144c0.2-0.2,0.5-0.2,0.9-0.2c0-0.5-0.3-0.7-0.9-0.7V144z M119,138.9c0.5,0,0.8-0.2,0.9-0.5
	C119.3,138.1,119,138.3,119,138.9z M121.1,107.5c-0.3,0.3-0.3,0.7-0.1,1c0.2,0.4,0.5,0.5,0.8,0.3c-0.2-0.3-0.1-0.6,0.1-0.9
	C122.1,107.6,121.9,107.5,121.1,107.5z M129.4,100.1c-0.5,0-0.8,0.4-0.9,1.2c-0.2,0.8,0.1,1.2,0.7,1.2
	C129,101.8,129.1,101,129.4,100.1z M130.6,112.1c0,0.5,0.2,0.7,0.7,0.7C131.4,112.2,131.2,112,130.6,112.1z M132.7,137.5
	c-0.6-0.2-1-0.2-1,0c-0.1,0.2-0.1,0.3,0,0.5c0.1,0.2,0.2,0.2,0.5,0.2C132.3,138.2,132.5,138,132.7,137.5z M142.1,85.6
	c0.9,0,1.1-0.2,0.6-0.6C142.2,84.6,142,84.8,142.1,85.6z M143.3,108.2c0.3-0.8,0.2-1-0.5-0.7C142.8,107.9,143,108.2,143.3,108.2z
	 M144.2,132.4c-0.2,0.2-0.2,0.3-0.1,0.6c0.1,0.2,0.3,0.3,0.6,0.1C144.7,133,144.5,132.7,144.2,132.4z M146.5,131
	c0.5,0,0.6-0.1,0.3-0.3C146.6,130.5,146.5,130.6,146.5,131z M148.8,162.9c0-0.2,0.1-0.4,0.2-0.8c0.2-0.4-0.2-0.4-0.9-0.1
	C148.1,162.4,148.4,162.7,148.8,162.9z M149.5,101.9c-0.2,0.2-0.3,0.4-0.3,0.7c-0.1,0.3,0,0.5,0.3,0.5c0.3-0.6,0.7-0.7,1.3-0.2
	c0.5,0.5,0.9,0.4,1-0.2C151,102.2,150.3,101.9,149.5,101.9z M150.2,160.4c0.6-0.3,0.7-0.5,0.2-0.7c-0.5-0.2-0.8-0.1-1.2,0.2
	c0,0.3,0.1,0.5,0.3,0.6C149.9,160.5,150,160.5,150.2,160.4z M149.5,105.9c0.2,0.3,0.4,0.5,0.7,0.7c0.3,0.2,0.5,0.1,0.7-0.2
	c-0.3-0.2-0.5-0.3-0.6-0.5C150.2,105.7,150,105.7,149.5,105.9z M151.4,151.1c0.2-0.5-0.1-0.7-0.7-0.7
	C150.7,151.2,150.9,151.4,151.4,151.1z M150.9,158.3c0.3,0,0.5-0.1,0.6-0.2c0.1-0.2,0-0.3-0.3-0.5C151,157.7,150.9,158,150.9,158.3z
	 M152.7,103.6c-0.3,0.3-0.3,0.5,0.1,0.6c0.4,0.1,0.6,0,0.6-0.3c-0.3,0-0.5,0-0.5-0.1C153,103.6,152.9,103.6,152.7,103.6z
	 M153.2,151.4c0.3,0.2,0.5,0,0.5-0.3c0-0.4-0.2-0.5-0.5-0.3V151.4z"/>
</svg>
