<?xml version="1.0" encoding="utf-8"?>
<!-- Generator: Adobe Illustrator 18.0.0, SVG Export Plug-In . SVG Version: 6.00 Build 0)  -->
<!DOCTYPE svg PUBLIC "-//W3C//DTD SVG 1.1//EN" "http://www.w3.org/Graphics/SVG/1.1/DTD/svg11.dtd">
<svg version="1.1" id="Layer_1" xmlns="http://www.w3.org/2000/svg" xmlns:xlink="http://www.w3.org/1999/xlink" x="0px" y="0px"
	 viewBox="0 0 146.1 163.9" enable-background="new 0 0 146.1 163.9" xml:space="preserve">
<path d="M146.1,74.3c0,0.8-0.1,1.4-0.3,2c-0.2,0.5-0.3,1.2-0.3,2c-0.3,4.5-0.9,8.9-1.8,13.3c-0.9,4.4-2.5,8.6-4.6,12.6
	c-0.5,0.8-0.9,1.6-1.3,2.5c-0.4,0.9-0.9,1.8-1.5,2.5c-0.5,0.8-0.9,1.6-1.3,2.4c-0.4,0.8-0.8,1.7-1.3,2.4c-0.6,0.8-1.2,1.5-1.8,2.1
	c-0.6,0.6-1.1,1.3-1.4,2.1c-0.5,1.1-1.2,1.8-2.1,2.3c-0.9,0.5-1.6,1.2-2.1,2.3c-0.3,0.8-0.8,1.5-1.4,2.1c-0.6,0.6-1.2,1.2-1.8,1.8
	c-0.8,0.6-1.6,1.2-2.4,1.7c-0.8,0.5-1.3,1.3-1.5,2.4c-0.2,0.6-0.3,1-0.6,1.3c-0.2,0.2-0.4,0.6-0.6,1c-0.2,0.5-0.2,1-0.2,1.5
	c0,0.5-0.1,1-0.2,1.5c-0.3,1.1-0.7,2.2-1.2,3.2c-0.5,1.1-0.9,2.1-1.4,3c-0.3,0.8-0.8,1.5-1.4,2.1c-0.6,0.6-1.2,1.3-1.6,2.1
	c-0.9,1.2-1.9,2.2-3,2.8c-1.5,0.8-2.7,1.6-3.5,2.5c-0.8,0.9-1.2,2.2-1.4,3.9c-0.2,1.2-0.2,2.5-0.2,3.9c0,1.4-0.6,2.5-1.8,3.2
	c-1.1,0.6-2.5,0.9-4.2,0.8c-1.7-0.1-3.2-0.4-4.4-1c-0.9-0.5-1.4-1.5-1.5-3c-0.1-1.5-0.3-2.8-0.6-3.7c-0.3-1.2-1-1.8-2-1.8
	c-1,0-1.7,0.6-2,1.8c-0.3,1.1-0.4,2.2-0.3,3.5c0.1,1.2-0.2,2.3-0.8,3.2c-0.5,0.8-1.6,1.1-3.3,1c-1.8-0.1-3-0.1-3.8-0.1
	c-2.3-0.2-3.6-1.7-3.9-4.6c0-0.3-0.1-0.8-0.3-1.6c-0.2-0.8-0.5-1.5-0.8-2.1c-0.3-0.6-0.7-1-1-1.3c-0.4-0.2-0.9,0.1-1.5,1
	c-0.8,1.2-1,2.5-0.8,3.9c0.2,1.4-0.2,2.6-1.3,3.7c-0.8,0.8-1.6,1-2.5,0.7c-0.9-0.3-1.8-0.3-2.8,0c-0.8,0.2-1.6,0.2-2.4,0
	c-0.8-0.2-1.6-0.5-2.2-1.2c-0.8-0.6-1.1-1.6-1-2.9c0.1-1.3,0-2.3-0.1-3.1c-0.2-1.2-0.8-2-1.8-2.3c-1.1-0.3-1.8,0.2-2.3,1.4
	c-0.2,0.5-0.2,1.1-0.2,1.8c0,0.8,0,1.6,0,2.4c0,0.8-0.1,1.6-0.3,2.2c-0.2,0.6-0.6,1-1,1.2c-1.2,0.6-2.7,0.9-4.5,0.9
	c-1.8,0-3.3-0.4-4.5-1.2c-0.9-0.5-1.5-1.2-1.6-2.1c-0.2-0.9-0.2-1.9-0.1-3c0.1-1.1,0.1-2.1,0-3.1c-0.1-1-0.5-1.9-1.3-2.7
	c-0.6-0.6-1.3-1.1-2-1.4c-0.7-0.3-1.3-0.8-2-1.4c-0.9-0.9-1.6-1.5-2.1-1.8c-0.6-0.5-1-0.9-1.3-1.3c-0.2-0.4-0.5-0.8-0.8-1.3
	c-1.2-1.8-2.2-3.7-2.8-5.5c-0.6-1.8-1.2-3.8-1.8-6c-0.6-2.3-1.8-4-3.5-5.2c-1.7-1.2-3.1-2.7-4.2-4.5c-0.6-0.9-1.3-1.7-2-2.2
	c-0.7-0.5-1.3-1.3-1.7-2.2c-0.6-0.8-1.3-1.5-2.1-2.1c-0.8-0.6-1.3-1.5-1.6-2.5c-0.5-1.2-1.1-2.2-1.8-2.9c-0.8-0.7-1.5-1.7-2.1-2.9
	c-0.6-1.2-1.2-2.4-1.6-3.5c-0.5-1.1-0.9-2.2-1.4-3.5c-0.3-0.3-0.8-1.3-1.4-2.9c-0.6-1.6-0.8-2.5-0.5-2.7c0.5,0,0.7-0.2,0.7-0.5
	c-0.3-0.3-0.5-0.3-0.7,0C4,96.1,3.8,96.2,3.5,96c-0.5-2.6-1-5.2-1.6-7.7c-0.6-2.5-1.1-5.1-1.4-7.7C0.2,79.2,0,77.8,0,76.4
	s0-2.8,0-4.2c0-0.8,0.1-1.5,0.2-2.2c0.2-0.7,0.3-1.4,0.5-2.2c0.2-0.8,0.2-1.5,0-2.3c-0.2-0.8-0.2-1.5,0-2.3c0.2-1.1,0.4-2.1,0.7-3
	c0.3-0.9,0.5-1.9,0.7-3c0-1.1,0.2-1.8,0.7-2.1c0.3-0.6,0.4-1.1,0.2-1.4c-0.2-0.3-0.2-0.8,0-1.6c0.2-0.5,0.5-1.2,1.2-2.1
	c0.3-0.6,0.5-1.2,0.7-1.8c0.2-0.6,0.4-1.3,0.7-2.1c0.6-2.6,1.6-5.2,3-7.6c0.3-0.3,0.5-0.7,0.7-1.2c0.2-0.5,0.4-0.8,0.7-1.2
	c0.3-0.8,0.7-1.4,1.2-1.8c0.5-0.5,0.9-1,1.4-1.6l4.2-6.2c0.6-0.9,1.3-1.5,2.1-1.8c0.5-0.5,0.8-1,1.2-1.5c0.3-0.5,0.7-1,1.2-1.5
	c1.1-1.1,2.2-2.1,3.3-3c1.2-0.9,2.3-1.8,3.6-2.8c0.9-0.8,1.9-1.5,2.9-2.1c1-0.6,1.9-1.4,2.7-2.3c0.5-0.5,1-0.7,1.6-0.8
	c0.6-0.1,1.2-0.3,1.6-0.6c0.6-0.3,1.2-0.6,1.7-0.9c0.5-0.3,1.1-0.6,1.7-0.9c0.3-0.3,0.7-0.6,1-0.8c0.4-0.2,0.7-0.5,1-0.8
	C42.9,6.2,43.5,6,44.1,6c0.6,0,1.2-0.2,1.8-0.5c1.2-0.5,2.5-0.8,3.7-1.2C50.9,4.1,52,3.6,53.1,3c0.3,0.3,0.4,0.6,0.2,0.8
	c-0.2,0.2-0.1,0.4,0.2,0.6c0.5,0,0.7-0.4,0.7-1.2c0.2-0.8,0.8-1.2,2.1-1.2c1.2,0,2.2-0.1,2.8-0.2c1.8-0.3,3.7-0.7,5.7-1
	c1.9-0.4,3.9-0.7,5.9-0.8c2,0,4,0.1,6,0.3c2,0.2,4.1,0.4,6.2,0.6c1.2,0,2.4,0.2,3.5,0.5c1.1,0.3,2.2,0.6,3.5,0.9
	C90.9,2.6,92,2.8,93.2,3c1.2,0.2,2.2,0.5,3.1,1.2C97,4.6,98,4.9,99,5.1c1.1,0.2,2,0.5,2.8,0.9c0.9,0.5,1.8,1,2.8,1.5
	c0.9,0.5,1.8,1,2.8,1.5c0.9,0.5,1.9,0.9,2.9,1.3c1,0.4,2,0.9,2.9,1.5c0.6,0.5,1.3,1,2.2,1.6c0.8,0.6,1.6,1.2,2.2,1.8
	c1.2,1.2,2.7,2.4,4.5,3.6c1.8,1.2,3,2.6,3.8,4.3c0.3,0.8,0.9,1.5,1.7,2.1c0.8,0.6,1.6,1.3,2.2,2.1c1.5,1.5,2.7,3.3,3.5,5.3
	c0.8,0.6,1.4,1.4,1.8,2.3c0.5,0.9,0.8,1.8,1.2,2.5c0.5,0.8,1,1.5,1.7,2.3c0.7,0.8,1.2,1.5,1.5,2.3c0.3,0.9,0.5,1.9,0.6,2.9
	c0.1,1,0.4,1.9,1,2.7c0.8,1.1,1.2,2.2,1.4,3.2c0.2,1.1,0.5,2.2,0.9,3.5c0.6,1.2,1,2.2,1.2,3c0.2,0.5,0.2,0.9,0,1.4
	c-0.2,0.5-0.2,1,0,1.6c0.2,0.8,0.4,1.5,0.7,2.2c0.3,0.7,0.4,1.5,0.2,2.4c-0.3,2.5-0.2,4.5,0.2,6.2C146,72.3,146.1,73.4,146.1,74.3z
	 M9,76.9c0.3,0,0.5-0.2,0.6-0.5c0.1-0.3,0-0.5-0.3-0.5C8.9,76.3,8.8,76.6,9,76.9z M9.5,58.6c0.8,0,1-0.2,0.6-0.6
	C9.7,57.7,9.5,57.9,9.5,58.6z M11.1,69.5c-0.2,0.2-0.2,0.4-0.2,0.7c0.3,0,0.5-0.1,0.6-0.2C11.5,69.8,11.4,69.6,11.1,69.5z
	 M11.3,100.4c0.8-0.5,0.8-0.8,0-0.9c-0.2,0.2-0.3,0.3-0.3,0.6C10.9,100.3,11,100.4,11.3,100.4z M12,64.6c0.3-0.3,0.3-0.5-0.1-0.6
	c-0.4-0.1-0.6,0-0.6,0.3h0.5C11.9,64.4,12,64.5,12,64.6z M12,64.9c-0.2,0.2-0.2,0.3,0,0.6c0.2,0.2,0.4,0.3,0.7,0.1
	C12.7,65,12.5,64.7,12,64.9z M12.5,100.4c-0.2,0.3,0,0.6,0.3,0.8c0.4,0.2,0.7,0.2,0.8-0.1C13.2,100.7,12.8,100.4,12.5,100.4z
	 M12.9,61.9c-0.3,0.6-0.2,1,0.2,1.2h0.5C13.9,62.3,13.7,61.9,12.9,61.9z M13.2,58.9l-0.2,0.2c0,0.5,0.2,0.4,0.5-0.1
	C13.7,58.4,13.6,58.4,13.2,58.9z M13.2,99.5c0.5,0,0.6-0.2,0.5-0.7C13,98.5,12.8,98.7,13.2,99.5z M14.5,67c-0.2,0.2-0.2,0.3,0,0.5
	c0.2,0.2,0.3,0.1,0.5-0.2c-0.2,0-0.2,0-0.2-0.1C14.8,67,14.7,67,14.5,67z M15.5,73.6c0-0.3-0.2-0.5-0.5-0.5v0.5H15.5z M15.7,69.5
	c0.6,0,0.8-0.1,0.5-0.3C15.9,68.9,15.7,69,15.7,69.5z M17.5,69c-0.3,0.3-0.5,0.6-0.5,0.9c0,0.3,0.2,0.5,0.5,0.5
	c0.2-0.2,0.3-0.4,0.6-0.8C18.4,69.2,18.2,69,17.5,69z M17.3,93.7c0.2,0,0.3-0.1,0.3-0.2c0.1-0.2,0-0.2-0.3-0.2V93.7z M17.8,102.7
	c0.2-0.2,0.2-0.4,0.2-0.7c-0.5-0.2-0.7-0.1-0.7,0.2L17.8,102.7z M20.5,50.8c-0.3-0.6-0.6-0.8-0.9-0.5c-0.3,0.3-0.5,0.7-0.7,1.2
	c0.3-0.2,0.7-0.1,1.3,0.2C20.7,52,20.9,51.7,20.5,50.8z M19.4,60c0.2-0.2,0.2-0.3,0.2-0.6c0-0.2-0.2-0.3-0.5-0.3
	c-0.2,0.2-0.2,0.3-0.2,0.6C18.9,59.9,19.1,60,19.4,60z M19.2,57.9c0.6,0.5,1,0.6,1.2,0.3c0.2-0.2,0.2-0.5,0.1-0.8
	c-0.1-0.3-0.3-0.5-0.6-0.6C19.5,56.8,19.3,57.2,19.2,57.9z M19.4,55.6c-0.2,0.3-0.1,0.5,0.2,0.6c0.3,0.1,0.5-0.2,0.5-0.8
	c-0.2,0-0.3,0-0.3,0.1C19.7,55.6,19.5,55.6,19.4,55.6z M21.7,44.1c-0.2-0.8-0.5-1-1-0.6c-0.5,0.4-0.9,0.7-1,1c0.5,0.3,0.8,0.3,0.9,0
	C20.7,44.3,21.1,44.1,21.7,44.1z M19.6,103.9c0.3,0.8,0.7,0.9,1.3,0.5c0.5-0.5,0.8-1,0.8-1.6c-0.5-0.6-0.8-0.7-1.2-0.1
	C20.2,103.2,19.9,103.6,19.6,103.9z M20.1,30h0.7c0-0.3-0.2-0.5-0.7-0.5V30z M20.5,99c0.5,0,0.6-0.1,0.3-0.3
	C20.7,98.5,20.5,98.6,20.5,99z M21.5,55.9c-0.2,0.5,0,1.1,0.5,2c0.5,0.8,1,0.9,1.6,0.1c-0.2-0.3-0.5-0.4-1-0.3
	c-0.5,0.1-0.4-0.3,0.3-1c0.2-0.2,0.4-0.4,0.7-0.7c0.3-0.3,0.6-0.3,0.9,0c0.3,0.8,0.5,1,0.7,0.6c0.2-0.4,0.5-0.5,0.9-0.3
	c-0.3,0.3-0.3,0.5-0.1,0.7c0.2,0.2,0.5,0.2,0.8,0.2c0.3,0,0.5-0.1,0.7-0.2c0.2-0.2,0-0.5-0.5-0.9c-0.6-0.5-1.1-1.2-1.4-2.3
	c0-0.8,0.3-1.3,0.8-1.6c0.5-0.3,0.9-0.8,1-1.6c-0.5-0.3-1-0.2-1.7,0.2c-0.7,0.5-1.3,0.6-2,0.5c0,0.6,0,1,0,1c0,0.1,0.4,0.1,1.2,0.1
	v2.3c-0.8,0-1.3,0.3-1.7,0.9C22.8,56,22.2,56.2,21.5,55.9z M21.7,68.1c0.5,0.2,0.7,0,0.7-0.3c0-0.4-0.2-0.6-0.7-0.6V68.1z
	 M23.5,47.3c-0.2,0.5-0.5,1-1.2,1.6c-0.6,0.6-0.5,1.1,0.5,1.4c0.2-0.5,0.3-0.8,0.6-1.2c0.2-0.3,0.5-0.6,0.8-0.9
	c0.3-0.8,0.3-1.1,0.1-0.9C24.1,47.5,23.9,47.5,23.5,47.3z M23.8,78.5c0.8,0,1.1-0.3,1-1c-0.1-0.7-0.5-1-1.3-0.8
	c-0.2,0.3-0.1,0.6,0.1,0.9C23.9,77.9,23.9,78.2,23.8,78.5z M23.5,59.3c0.3,0.9,0.6,1.2,0.9,0.9C24.8,59.9,24.5,59.6,23.5,59.3z
	 M23.8,69c0,0.8,0.5,1.2,1.6,1.2C25.2,69.6,24.7,69.2,23.8,69z M25.6,46.2c-0.5-0.2-0.8-0.5-1.2-1c-0.3-0.5-0.5-0.2-0.5,1
	C24.8,46.5,25.3,46.5,25.6,46.2z M24.5,61.9c0.6,0,0.9-0.1,0.9-0.3c0-0.2-0.1-0.4-0.3-0.6c-0.2-0.2-0.5-0.2-0.7-0.1
	C24.1,60.9,24.2,61.3,24.5,61.9z M24.9,25.9c-0.5,0.8-0.3,1.2,0.5,1.2C25.9,26.5,25.7,26.2,24.9,25.9z M24.7,40.9
	c0.5,0,0.6-0.1,0.3-0.3C24.8,40.3,24.7,40.4,24.7,40.9z M25.9,64.9c0-0.3,0.1-0.6,0.2-0.9c0.2-0.3,0.2-0.5,0.2-0.7
	c-0.2-0.3-0.4-0.4-0.8-0.3c-0.4,0.1-0.6,0.3-0.6,0.6c0.3,0.3,0.5,0.6,0.5,0.9C25.4,64.7,25.5,64.9,25.9,64.9z M25.4,49.4
	c0.2-0.3,0.3-0.6,0.5-0.8c0.2-0.2,0-0.4-0.5-0.6C25.1,48.6,25.1,49.1,25.4,49.4z M25.4,71.1c-0.2,0.8,0.2,1,1,0.8
	c0.8-0.2,1.3-0.5,1.3-0.8c-0.5,0-0.9,0-1.3-0.1C26,70.9,25.7,71,25.4,71.1z M26.8,30.5c-0.2,0-0.4,0-0.8,0c-0.4,0-0.6,0.2-0.6,0.5
	c0.2,0.3,0.4,0.5,0.7,0.5c0.3,0,0.6,0.2,0.9,0.5c0-0.2-0.1-0.3-0.3-0.6C26.4,31.1,26.5,30.8,26.8,30.5z M26.3,82.6
	c-0.6-0.2-0.8-0.1-0.7,0.1C25.8,83,26,83,26.3,82.6z M26.1,73.2c0,0.5,0.3,0.6,0.8,0.5c0.5-0.2,0.8-0.4,0.8-0.7
	c-0.3,0.2-0.6,0.2-0.8,0C26.7,72.8,26.4,72.9,26.1,73.2z M28.2,57.5c-0.3-0.3-0.7-0.2-1,0.5c-0.4,0.6-0.6,1.1-0.6,1.4
	c0.5,0.3,1,0.2,1.5-0.5C28.6,58.3,28.6,57.8,28.2,57.5z M27.2,67c0.6-0.3,1.1-0.3,1.5,0.1c0.4,0.4,0.8,0.7,1.3,0.8
	c0-0.5,0.1-0.8,0.2-0.9c0.2-0.2-0.2-0.3-0.9-0.5c-0.5-0.2-0.9-0.2-1.3-0.2c-0.4,0-0.7-0.2-1-0.5c0,0.3,0.1,0.5,0.2,0.6
	C27.4,66.5,27.4,66.6,27.2,67z M28.4,35.8c-0.6,0-0.8,0.3-0.5,0.9c0.3,0,0.5-0.1,0.7-0.2C28.8,36.3,28.7,36.1,28.4,35.8z M27.9,37.6
	c0,0.6,0.2,0.8,0.5,0.5C28.7,37.8,28.5,37.6,27.9,37.6z M29.1,83.1c0.2-0.6,0.1-0.9-0.1-0.9c-0.2,0-0.6,0-1,0
	C28.2,82.8,28.6,83.1,29.1,83.1z M28.6,45.9c0.2-0.2,0.2-0.5,0.2-0.9c-0.3,0-0.5,0.1-0.6,0.3C28.2,45.6,28.3,45.8,28.6,45.9z
	 M30.9,69.7c-0.5-0.3-1-0.2-1.7,0.2s-0.9,1-0.6,1.6c0.5-0.2,0.8-0.4,1-0.7c0.2-0.3,0.7-0.3,1.3,0V69.7z M29.6,51.9
	c-0.6-0.2-0.9,0-0.9,0.5c0.2-0.2,0.4-0.2,0.7-0.1C29.6,52.4,29.7,52.3,29.6,51.9z M29.1,64.4c0.5-0.2,0.9-0.3,1.3-0.5
	c0.4-0.2,0.7,0.2,1,0.9c0.2,0.5,0.5,0.6,0.9,0.5c0.5-0.2,0.8-0.5,0.9-0.9c0.2-0.3,0-0.6-0.3-0.8c-0.4-0.2-0.8-0.3-1.4-0.3
	c-0.5,0-1,0.1-1.5,0.2C29.6,63.6,29.2,63.9,29.1,64.4z M29.8,76.4c0-0.3,0.2-0.5,0.5-0.7c0.3-0.2,0.1-0.2-0.7-0.2
	C29.4,75.8,29.5,76.1,29.8,76.4z M30.2,52.6c-0.3,0.3-0.5,0.5-0.5,0.7h0.5V52.6z M30.5,60.3c-0.2,0.2-0.2,0.3-0.1,0.6
	c0.1,0.2,0.3,0.3,0.6,0.1C31.2,60.8,31.1,60.6,30.5,60.3z M34.2,48.7c-1.5,0-2.7,0.5-3.5,1.4c0.5,0,1-0.2,1.7-0.6
	c0.7-0.4,1.2-0.2,1.5,0.6c-0.2,0.3-0.4,0.7-0.7,1.3c-0.3,0.5,0,0.8,0.9,0.8c0.2-0.6,0.3-1.2,0.6-1.8C35,49.7,34.8,49.2,34.2,48.7z
	 M30.9,55.6c0.3,0.3,0.6,0.3,0.9,0.1c0.3-0.2,0.6-0.2,0.9,0.1c0.2-0.8,0-1.1-0.6-1C31.7,54.9,31.2,55.2,30.9,55.6z M60.5,103.4
	c0.3-1.1,0.6-2.1,0.9-3.1c0.3-1,0.3-2.1,0-3.3c-0.2-0.8-0.4-1.5-0.8-2.2c-0.4-0.7-0.7-1.5-0.8-2.4c-0.2-1.1-0.6-2-1.4-2.7
	c-0.8-0.7-1.5-1.4-2.3-2.2c-1.7-1.7-3.3-2.7-5-3c-1.6-0.3-3.6-0.5-5.9-0.5c-0.9,0-1.7,0-2.3,0c-0.6,0-1.3,0.3-2.1,0.9
	c-0.8,0.5-1.7,0.9-2.8,1.3c-1.1,0.4-1.8,1-2.3,1.7c-0.6,1.1-1.3,2-2,2.7c-0.7,0.7-1.3,1.7-1.7,2.9c-0.8,2.2-1,4.4-0.7,6.7
	c0.3,2.2,0.9,4.1,1.8,5.8c0.9,1.7,2,3.4,3.2,5.1c2.2,0.9,4.3,1.7,6.5,2.3c2.2,0.6,4.3,0.8,6.5,0.5c2.2-0.3,4-1.1,5.5-2.3
	c1.5-1.2,2.9-2.7,4.2-4.4c0.3-0.3,0.5-0.4,0.6-0.2c0.1,0.2,0.3,0.1,0.6-0.2v-1.4c0-0.3,0-0.7,0.1-1
	C60.4,103.9,60.5,103.6,60.5,103.4z M31.4,125.6c0.5,0,0.6-0.1,0.3-0.3C31.5,125,31.4,125.1,31.4,125.6z M31.9,50.8
	c-0.3,0.3-0.4,0.5-0.3,0.7c0.1,0.2,0.3,0.2,0.6,0C32.2,51.3,32.2,51.1,31.9,50.8z M31.6,61.4c0,0.9,0.1,1.3,0.2,1.2
	c0.2-0.2,0.3-0.4,0.5-0.7c0.2-0.3,0.2-0.6,0.1-0.9C32.4,60.6,32.1,60.8,31.6,61.4z M32.1,137.4c0.3-0.8,0.2-1-0.5-0.7
	C31.6,137.1,31.8,137.4,32.1,137.4z M33.5,38.6c-1.1,0.3-1.6,0.8-1.6,1.4c0.6,0.2,1,0,1-0.3C33,39.2,33.2,38.9,33.5,38.6z
	 M32.1,59.8c-0.3,0.3-0.2,0.4,0.2,0.3c0.5-0.1,0.5-0.3,0.2-0.6h-0.2C32.2,59.6,32.1,59.6,32.1,59.8z M36.2,34.2
	c-0.8-0.2-1.5-0.1-2.1,0.1c-0.6,0.2-1.3,0.4-2.1,0.6c0.2,0.6,0.4,0.9,0.8,0.8c0.4-0.1,0.8-0.2,1.2-0.3c0.4-0.2,0.7-0.2,1-0.2
	c0.3,0,0.6,0.3,0.9,0.9c0.2-0.3,0.3-0.6,0.5-0.9c0.2-0.3,0.4-0.7,0.7-1.2c0.3-0.6,0.3-1-0.1-1c-0.4-0.1-0.8-0.3-1.3-0.6
	c-0.8-0.5-1.3-0.4-1.7,0.1c-0.4,0.5-0.4,0.9-0.1,1c0.3-0.3,0.8-0.5,1.5-0.5C36.1,33,36.4,33.4,36.2,34.2z M33.5,69
	c-0.2,0.3-0.3,0.6-0.6,0.9c-0.2,0.3-0.4,0.6-0.6,0.9l0.9,0.5c0.2-0.3,0.3-0.7,0.5-1.2C33.9,69.7,33.8,69.3,33.5,69z M33.2,37.4
	c0.5,0,0.7-0.1,0.6-0.2c-0.1-0.2-0.3-0.3-0.6-0.5V37.4z M33.2,68.1c0.8,0.3,1,0.2,0.8-0.3c-0.2-0.5-0.5-0.7-0.8-0.6V68.1z
	 M36.2,73.2c-0.3-0.9-0.3-1.5,0-1.8c-1.2-0.2-1.7,0.1-1.4,0.7c0,0.3-0.2,0.5-0.5,0.5c-0.3,0-0.5-0.1-0.7-0.2
	c-0.3,0.2-0.3,0.3-0.1,0.5c0.2,0.2,0.2,0.3-0.1,0.5H36.2z M35.1,26.1c-0.6,0-0.9,0.1-0.9,0.2C34.6,26.5,34.9,26.4,35.1,26.1z
	 M36.2,27.5c-0.8,0-1.4,0.5-1.8,1.6C35.2,28.8,35.8,28.2,36.2,27.5z M36,58.2c-0.5-0.8-1-0.9-1.6-0.5c0,0.3,0.2,0.5,0.7,0.7
	C35.6,58.6,35.9,58.5,36,58.2z M35.8,31.4c0.2-0.3,0.2-0.7,0.2-1.2c-0.8,0-1.1,0.2-0.9,0.6C35.2,31.2,35.5,31.4,35.8,31.4z
	 M35.8,63.3c-0.5,0-0.7,0.1-0.7,0.3c0,0.2,0.2,0.4,0.5,0.6C35.7,64,35.8,63.7,35.8,63.3z M36.7,62.6c0.9,0,1.5-0.4,1.6-1.2
	c-0.5-0.3-0.9-0.9-1.3-1.7c-0.4-0.8-1-1-1.7-0.3c-0.2,0.3-0.2,0.5,0,0.5c0.2,0,0.4,0.1,0.7,0.2c0.3,0.2,0.3,0.4,0.1,0.7
	c-0.2,0.3-0.3,0.6-0.3,0.9C36.4,61.2,36.7,61.5,36.7,62.6z M35.6,49.2c0.3,0.6,0.5,0.7,0.7,0.1C36.4,48.8,36.2,48.7,35.6,49.2z
	 M37.4,46.2c-0.3,0-0.6,0-0.8,0.1c-0.2,0.1-0.5,0.1-0.8,0.1c0,0.8,0.4,1.2,1.2,1.2c-0.2-0.3,0-0.5,0.3-0.7
	C37.7,46.7,37.7,46.5,37.4,46.2z M36.2,38.8c0,1.2,0.5,1.7,1.4,1.4C37.3,39.2,36.9,38.8,36.2,38.8z M36.5,57.7c0.5-0.2,1-0.2,1.6,0
	c0.6,0.2,1.1,0.2,1.4,0c0.3-0.3,0.3-0.6,0.1-0.8c-0.2-0.2-0.5-0.4-0.9-0.5c-0.4-0.1-0.8-0.2-1.3-0.2c-0.5-0.1-0.8-0.1-0.9-0.1
	c-0.2,0.5-0.2,0.7-0.2,0.8C36.2,57,36.3,57.3,36.5,57.7z M37.4,69c-0.3,0-0.5-0.1-0.5-0.3c0-0.2-0.2-0.3-0.7-0.1
	c0.2,0.3,0.3,0.6,0.6,0.8C37.1,69.6,37.2,69.5,37.4,69z M38.1,55.6c0-0.8-0.3-1.2-0.8-1.4c-0.5-0.2-0.7,0.2-0.6,0.9
	c0.3,0.2,0.5,0.2,0.7,0.2C37.6,55.4,37.8,55.5,38.1,55.6z M36.7,52.6c0.5,0.3,0.7,0.2,0.7-0.2C37.1,52.4,36.9,52.5,36.7,52.6z
	 M36.9,67c0.3,0,0.5-0.1,0.7-0.2c-0.2-0.2-0.4-0.2-0.7-0.2V67z M39.9,34.2c-0.2-0.3-0.3-0.7-0.6-1.3c-0.2-0.5-0.6-0.7-1-0.3
	c0,0.5,0.1,0.9,0.3,1.3c0.2,0.4,0.3,0.9,0.3,1.5c-0.2,0.5-0.4,0.7-0.8,0.6c-0.4-0.1-0.7,0-1,0.1c0.3,0.6,0.7,1,1.2,1
	c0.5,0.1,0.9,0.2,1.4,0.3c-0.3-0.6-0.4-1.1-0.2-1.4c0.2-0.3,0.4-0.5,0.7-0.6c0.3-0.1,0.5,0,0.7,0.1c0.2,0.2,0.2,0.4,0,0.7
	c0.8-0.2,1.5-0.3,2.2-0.5c0.7-0.2,1.3-0.1,2,0.2c0.2-0.8-0.2-1.3-1.2-1.6c-0.9-0.3-1.7-0.5-2.3-0.7c-0.3,0.3-0.3,0.5-0.1,0.6
	c0.2,0.1,0.2,0.2-0.1,0.3c-0.3,0-0.5-0.1-0.7-0.2C40.5,34.2,40.2,34.2,39.9,34.2z M37.9,65.8c0.2,0,0.3,0,0.3-0.1
	c0.1-0.1,0.2-0.1,0.3-0.1c0-0.5-0.2-0.7-0.7-0.7V65.8z M38.3,43.9c0,0.5,0.3,0.7,0.9,0.7c0.3-0.3,0.3-0.6,0-0.8
	C38.9,43.5,38.6,43.6,38.3,43.9z M38.3,50.3c0.3,0.2,0.5,0,0.5-0.3c0-0.4-0.2-0.5-0.5-0.3V50.3z M40.6,54.5c0.6,0.3,1.1,0.2,1.5-0.2
	c0.4-0.5,0.4-1,0.1-1.6c-0.3,0-0.8,0.2-1.4,0.7c-0.6,0.5-0.8,0.2-0.7-0.7c0.2-0.5,0.5-0.8,0.9-1c0.5-0.2,0.8-0.6,0.9-1
	c-0.5-0.2-0.9-0.1-1.3,0.2c-0.4,0.3-0.8,0.3-1.3,0c0,0.5-0.2,0.8-0.6,1c-0.4,0.2-0.6,0.5-0.6,0.8c0.5,0,0.8,0.2,1.2,0.7
	C39.8,53.8,40.2,54.2,40.6,54.5z M38.3,60.9c0.2,0,0.4,0,0.7,0.1c0.3,0.1,0.4,0,0.2-0.3C38.6,60.7,38.3,60.8,38.3,60.9z M38.6,29.6
	c-0.2,0.3-0.2,0.6-0.1,0.9c0.1,0.3,0.3,0.4,0.8,0.2C39.4,30.2,39.2,29.9,38.6,29.6z M38.8,122.1c0.8,0,1.1-0.2,0.9-0.5
	C39.1,121.5,38.8,121.7,38.8,122.1z M40.6,72.5c-0.3-0.2-0.6-0.2-0.8,0c-0.2,0.2-0.2,0.4,0.1,0.7c0-0.3,0.1-0.4,0.3-0.3
	C40.5,72.9,40.6,72.8,40.6,72.5z M40.6,48.3c-0.9,0-1.1,0.5-0.5,1.4c0.3,0,0.5-0.2,0.7-0.5C41,48.9,40.9,48.6,40.6,48.3z M39.9,69
	c0.6,0.3,0.9,0.3,0.9,0C40.7,68.6,40.4,68.6,39.9,69z M40.2,28.4c-0.3,0.3-0.2,0.6,0.2,0.8c0.5,0.2,0.8,0.2,0.9-0.1
	C41.3,28.9,40.9,28.7,40.2,28.4z M40.9,46.9c0-1.2,0.3-1.5,0.9-0.9c0.6,0.6,1.1,0.8,1.4,0.7c0.3-0.6,0.2-1.1-0.3-1.5
	c-0.5-0.4-0.8-0.9-0.8-1.5c-0.3,0-0.7,0.3-1,0.9c-0.4,0.6-0.7,1.2-0.8,1.6C40.2,46.6,40.4,46.9,40.9,46.9z M40.9,38.6
	c-0.3,0.3-0.3,0.8,0.1,1.5c0.4,0.7,0.8,0.9,1.3,0.6c0-0.5-0.1-0.9-0.3-1.4C41.7,38.8,41.3,38.6,40.9,38.6z M41.8,49.6
	c0.9-0.3,1.2-0.8,0.9-1.5c-0.3-0.7-0.7-0.8-1.2-0.3C41.7,47.9,41.8,48.6,41.8,49.6z M42.5,69.7c-0.3,0.3-0.3,0.5,0,0.5
	C42.8,70.2,42.8,70,42.5,69.7z M42.9,28.6c-0.3,0.3-0.3,0.5-0.1,0.7c0.2,0.2,0,0.2-0.6,0.2c0.2,0.5,0.4,1,0.8,1.5
	c0.4,0.5,0.3,1.2-0.1,2c0.8,0.6,1.2,0.4,1.2-0.7c0-1.1-0.2-1.8-0.5-2.3c0.9,0.3,1.2-0.1,0.9-1.2c-0.3,0-0.6,0-0.8-0.1
	C43.5,28.7,43.2,28.6,42.9,28.6z M44.1,39.5c-0.3,0-0.7,0-1,0.1c-0.4,0.1-0.3,0.3,0.1,0.8C43.8,40.4,44.1,40.1,44.1,39.5z
	 M42.9,37.6c0.6,0,0.8-0.2,0.5-0.5C43.1,36.9,42.9,37,42.9,37.6z M43.4,63.3c-0.3,0.2-0.4,0.5-0.3,0.9c0.1,0.5,0.3,0.8,0.6,0.9
	c0.2-0.3,0.3-0.7,0.3-1C44.1,63.7,43.9,63.4,43.4,63.3z M43.9,62.8c0.5-0.8,0.5-1.3,0.2-1.6c-0.5,0-0.7,0.2-0.8,0.6
	C43.2,62.1,43.4,62.5,43.9,62.8z M43.6,55.9c0.5,0,0.8-0.1,0.9-0.2c-0.3,0-0.5-0.1-0.5-0.2c0-0.2-0.2-0.2-0.5-0.2V55.9z M43.9,51.3
	c-0.2,0.5-0.1,0.7,0.2,0.8c0.3,0.1,0.6,0.2,0.9,0.3c0.2-0.5,0.1-0.8-0.2-1C44.5,51.1,44.2,51.1,43.9,51.3z M43.9,20.3
	c-0.2,0.6,0.2,0.9,0.9,0.9C45.4,20,45.1,19.7,43.9,20.3z M44.3,43.6c-0.3,0.6-0.5,1.2-0.5,1.8c0.6,0.2,1-0.1,1-0.8
	C45,44,44.8,43.6,44.3,43.6z M44.8,55.4c0.3,0.6,0.5,1,0.7,1.2c-0.5,0.3-0.7,0.6-0.7,0.9c0.3,0.3,0.5,0.6,0.7,0.8
	c0.2,0.2,0.5,0.3,0.9,0.3c-0.3-0.5-0.5-1.2-0.5-2.1S45.6,55.3,44.8,55.4z M45.7,42.9c0.2-0.2,0.1-0.4-0.1-0.7
	c-0.2-0.3-0.2-0.5,0.1-0.5c0.2,0.8,0.5,0.9,1.2,0.3c0.6-0.5,0.2-1-1.2-1.3c-0.2,0.3-0.4,0.7-0.7,1.3C44.7,42.7,44.9,42.9,45.7,42.9z
	 M47.8,40.4c0.3-0.8,0.5-1,0.5-0.7c0,0.3,0.2,0.5,0.7,0.7c1.1,0.3,1.3,0.1,0.7-0.7c-0.6-0.8-1-1.2-1.2-1.4C48.2,38,48,37.7,48,37.5
	c0-0.2-0.2-0.3-0.5-0.1c-0.2,0-0.3,0.1-0.5,0.3c-0.2,0.2-0.3,0.3-0.5,0.1c-0.3-0.2-0.2-0.6,0.3-1.3c0.5-0.7,0.5-1-0.1-1
	c-0.3,0.3-0.5,0.7-0.7,1C46,37,45.6,37.2,45,37.4c0,0.3,0.5,0.8,1.4,1.6C47.3,39.8,47.8,40.3,47.8,40.4z M46.9,24.2
	c-0.6,0-1.1,0.4-1.4,1.2c0.8,0.3,1.1,0.4,1,0.2C46.4,25.5,46.6,25,46.9,24.2z M46.6,27.5c-0.8,0-1.2,0.5-1.2,1.4
	c0.5,0,0.7-0.2,0.8-0.5C46.4,28.1,46.5,27.8,46.6,27.5z M48,31.9c0.8-0.8,0.7-1.2-0.1-1.3c-0.8-0.1-1.5-0.3-2-0.6
	c-0.3,0.3-0.3,0.6-0.1,0.8c0.2,0.2,0.4,0.5,0.6,0.8C47.2,30.9,47.7,30.9,48,31.9z M46.9,16.9c-0.3-0.2-0.5-0.2-0.6,0
	c-0.1,0.2-0.3,0.2-0.6,0.2c0.2,0.3,0.3,0.5,0.3,0.7c0.1,0.2,0.2,0,0.3-0.5l0.2,0.5c0-0.3,0.1-0.5,0.2-0.5C47,17.3,47,17.2,46.9,16.9
	z M45.7,44.8c0.2,0.6,0.8,1.1,1.8,1.4c0.3-0.8,0.2-1.5-0.2-2.1c-0.2,0.3-0.4,0.4-0.7,0.3C46.3,44.4,46,44.5,45.7,44.8z M46.9,33
	c0.2-0.5,0-0.7-0.5-0.7C46.4,32.8,46.6,33,46.9,33z M47.8,22.2c-0.5,0-0.8-0.1-1.2-0.2c0.2,0.2,0.2,0.3,0.2,0.3
	c0,0.1,0.1,0.2,0.2,0.3c0,0.3,0.1,0.5,0.2,0.7c-0.2-0.3-0.1-0.5,0.1-0.6C47.7,22.7,47.8,22.5,47.8,22.2z M46.6,24
	c0.6,0,0.9-0.1,0.9-0.2C47.1,23.8,46.8,23.9,46.6,24z M46.6,48.5c0.2,0.2,0.3,0.7,0.5,1.7c0.2,1,0.5,1,0.9,0.1
	c0.3-0.5,0.3-0.9,0-1.4c-0.3-0.5-0.3-0.8,0-1.2c-0.5-0.2-0.7-0.1-0.8,0.2C47.1,48.3,46.9,48.5,46.6,48.5z M46.6,59.8
	c0,0.5,0.3,0.7,0.9,0.7C47.7,60,47.4,59.8,46.6,59.8z M46.6,68.3c0.5,0.3,0.7,0.3,0.6,0C47.1,68,46.9,68,46.6,68.3z M47.3,63
	c-0.3,0.5-0.4,0.9-0.3,1.4c0.1,0.5,0.4,0.7,1,0.7c-0.3-0.3-0.3-0.7-0.1-1.2C48.1,63.5,47.9,63.2,47.3,63z M49.6,26.1
	c0-0.8-0.3-1.1-0.9-1c-0.6,0.1-1,0.4-1.2,1c0.5,0.2,0.8,0.3,1.2,0.3C49,26.5,49.3,26.4,49.6,26.1z M50.3,34.6c0.5,0.8,0.8,0.9,1,0.3
	c0.2-0.5,0.4-1.1,0.6-1.7c-0.8-0.2-1.6-0.1-2.4,0.1c-0.8,0.2-1.3,0.9-1.3,2c0.3,0.3,0.7,0.2,1-0.3C49.7,34.4,50,34.3,50.3,34.6z
	 M48.5,44.1c0-0.2,0-0.3,0.1-0.6c0.1-0.2,0-0.3-0.3-0.1C48.3,43.7,48.3,43.9,48.5,44.1z M48.7,17.8c0,0.2,0.2,0.3,0.5,0.3
	c0.3,0.1,0.5,0,0.5-0.3c-0.3-0.2-0.6-0.4-0.9-0.7V17.8z M48.7,49.2c0.6,0,0.8-0.1,0.5-0.3C48.9,48.6,48.7,48.7,48.7,49.2z
	 M49.2,62.1c-0.3,0.5-0.3,0.8,0,0.9c0.3,0.2,0.5-0.1,0.7-0.7c-0.2,0-0.3,0-0.3-0.1C49.4,62.1,49.3,62.1,49.2,62.1z M49.9,60.9
	c0.5,0.3,1,0.3,1.7,0c0.7-0.3,0.9-0.8,0.6-1.4c-0.3-0.6-0.4-1-0.2-1.2c0.2-0.2-0.1-0.4-0.7-0.7c-0.3-0.2-0.7-0.3-1-0.6
	c-0.4-0.2-0.8-0.3-1.3-0.3c0.3,0.5,0.7,0.9,1,1.3c0.4,0.4,0.7,0.8,1,1.3c-0.2,0.3-0.4,0.5-0.7,0.7C50,60.2,49.9,60.5,49.9,60.9z
	 M49.9,38.6c0-0.8,0.4-1.1,1.2-1c0.8,0.1,1.2-0.3,1.4-1c-0.6-0.3-1.4-0.3-2.3,0.1C49.2,37,49.1,37.6,49.9,38.6z M49.6,44.1
	c0.6-0.2,1.1-0.7,1.4-1.6c-0.3,0-0.7,0.2-1.2,0.5C49.4,43.3,49.3,43.6,49.6,44.1z M51,66c0.2-0.5,0-0.8-0.3-1
	c-0.4-0.2-0.7-0.2-1,0.1c0,0.3,0.2,0.6,0.5,0.9C50.4,66.3,50.7,66.3,51,66z M50.6,40.2c0.3,0.3,0.5,0.6,0.7,0.9
	c0.2,0.3,0.5,0.5,0.9,0.7c-0.2-0.5-0.2-0.8,0-0.9c0.2-0.2,0.1-0.4-0.2-0.7C51.2,39.7,50.7,39.7,50.6,40.2z M50.6,46.6
	c0.5,0.2,0.7,0,0.7-0.5s-0.2-0.6-0.7-0.5V46.6z M53.8,24.9c-0.3,0.6-0.7,0.9-1.3,0.9c-0.5,0-1-0.2-1.5-0.5c0.2,0.6,0.4,1,0.8,1
	c0.4,0.1,0.8,0,1.2-0.2c0.4-0.2,0.7-0.5,0.8-0.7C53.9,25.3,53.9,25.1,53.8,24.9z M51.5,47.8c0.3,0,0.5,0.1,0.6,0.3
	c0.1,0.2,0.3,0.3,0.8,0.1c0.3-0.3,0.2-0.6-0.3-0.9C52,47,51.6,47.2,51.5,47.8z M51.7,57c0.5,0,0.6-0.1,0.3-0.3
	C51.8,56.4,51.7,56.6,51.7,57z M52.6,62.8c0.3-0.3,0.3-0.7,0-1c-0.3-0.4-0.6-0.4-0.9-0.1c0,0.3,0.1,0.5,0.2,0.6
	C52.1,62.3,52.3,62.5,52.6,62.8z M52.6,4.6c-0.8-0.3-1-0.2-0.7,0.5C52.4,5.1,52.6,4.9,52.6,4.6z M51.9,16.2
	c-0.2,0.6-0.1,0.8,0.2,0.6C52.5,16.5,52.4,16.3,51.9,16.2z M52.9,24.5c0-0.5-0.2-0.7-0.6-0.7c-0.4,0-0.5,0.2-0.3,0.7H52.9z
	 M51.9,66.3c0.6-0.2,1.2-0.4,1.6-0.7c0.5-0.3,0.6-0.6,0.5-0.9c-0.5,0.2-0.9,0.3-1.4,0.5C52.2,65.3,51.9,65.6,51.9,66.3z M53.1,44.8
	c0,0.3-0.2,0.5-0.5,0.7c-0.3,0.2-0.4,0.4-0.2,0.7c0.6,0.6,1.2,0.7,1.6,0.1C54.5,45.8,54.2,45.2,53.1,44.8z M52.4,27.7
	c0.3,0.3,0.5,0.2,0.5-0.2c0-0.5-0.2-0.5-0.5-0.2V27.7z M52.9,71.3c0-0.3,0.1-0.6,0.2-0.8c0.2-0.2,0-0.4-0.5-0.6
	C52.3,70.7,52.4,71.2,52.9,71.3z M57.9,54.3c0.3-0.3,0.7-0.3,1-0.1c0.4,0.2,0.7,0.2,1-0.1c0.5-0.5,0.4-0.7-0.1-0.8
	c-0.5-0.1-0.9-0.1-1-0.1c-0.3-0.2-0.4-0.4-0.3-0.7c0.1-0.3-0.1-0.3-0.6,0c0,0.3,0.1,0.5,0.2,0.6c0.2,0.1,0.2,0.3,0,0.6
	c-0.8,0.3-1.2,0.3-1.4,0.1c-0.2-0.2-0.4-0.6-0.7-1c-0.9-0.3-1.3-0.2-1,0.3c0.2,0.5,0.3,1,0.1,1.3c-0.2,0.3-0.4,0.4-0.7,0.3
	c-0.3-0.1-0.5,0.1-0.5,0.6s0.3,0.6,0.8,0.5c0.5-0.2,0.7,0.1,0.6,0.7c-0.5-0.2-0.8-0.1-1,0.2c-0.2,0.3-0.5,0.5-0.8,0.7
	c-0.8,0.3-1,0.5-0.8,0.5c0.2,0,0.3,0.3,0.1,0.9c0.8-0.5,1.5-0.3,2.2,0.3c0.7,0.7,1.2,0.6,1.5-0.3c-0.3-0.3-0.7-0.5-1.2-0.7
	c-0.5-0.2-0.2-0.4,0.7-0.7c0.5-0.3,0.6-0.6,0.3-0.8c-0.2-0.2-0.2-0.5,0.1-0.8C56.7,55,57.2,54.6,57.9,54.3z M54.5,35.8
	c-0.3-0.3-0.7-0.4-1.2-0.3c-0.5,0.1-0.6,0.3-0.5,0.8C53.9,36.2,54.5,36.1,54.5,35.8z M52.9,40.2c0.6,0,0.8-0.1,0.5-0.3
	C53,39.6,52.9,39.7,52.9,40.2z M55.9,49.6c-0.3-0.2-0.5-0.3-0.6-0.3c-0.1-0.1-0.3,0-0.6,0.3c-0.3,0.3-0.7,0.5-1.2,0.5
	c-0.5,0-0.7,0.3-0.7,0.9c0.5,0,0.9-0.1,1.3-0.3c0.4-0.2,0.7-0.3,1-0.3c0,0.5,0,0.8,0,1.2c0,0.3,0.3,0.5,0.9,0.5c0-0.5,0-0.9-0.1-1.3
	C55.9,50.3,55.9,49.9,55.9,49.6z M53.8,53.1c0.3-0.8,0-1-0.9-0.7C53,52.9,53.3,53.1,53.8,53.1z M55.4,42.2c-0.3-0.3-0.2-0.6,0.2-0.9
	c0.5-0.3,0.6-0.8,0.5-1.4c-0.9-0.5-1.5-0.3-1.6,0.6c-0.2,0.8-0.5,1.4-0.9,1.7c0.3,0.2,0.8,0.4,1.6,0.7C55.9,43.3,56,43,55.4,42.2z
	 M53.8,30.7c-0.2,0.6,0,1,0.3,1.3c0.4,0.2,0.7,0.2,1-0.1C54.9,31.1,54.4,30.7,53.8,30.7z M54.7,19.4c-0.6,0-0.9,0.2-0.9,0.5
	C54.6,19.9,54.9,19.7,54.7,19.4z M54.7,17.1c0-0.2-0.1-0.3-0.2-0.3c-0.2-0.1-0.2,0-0.2,0.3H54.7z M54.7,12.5
	c-0.3,0.5-0.2,0.7,0.2,0.6c0.5-0.1,0.6-0.3,0.5-0.6H54.7z M55.2,48.3c0.6,0.3,0.9,0.2,0.9-0.2C55.8,47.4,55.5,47.5,55.2,48.3z
	 M57,61.9c-0.3-0.3-0.4-0.6-0.2-0.8c0.2-0.2,0.2-0.5,0-0.8c-0.6,0-1,0.1-1,0.3c-0.1,0.2-0.3,0.6-0.6,1C55.8,62,56.4,62,57,61.9z
	 M58.4,42.9c-0.3,0-0.6,0-0.9,0c-0.3,0-0.6-0.2-0.9-0.5c-0.3,0.6-0.5,1.2-0.5,1.8c0,0.6-0.1,1.2-0.2,1.8c0.8-0.2,1.3-0.6,1.5-1.3
	C57.6,44.2,57.9,43.6,58.4,42.9z M57,67c0.3-0.3,0.4-0.6,0.3-0.9c-0.1-0.3-0.1-0.6-0.1-0.9c-0.5,0-0.8,0.3-0.9,0.8
	C56.2,66.5,56.4,66.8,57,67z M56.8,27.5c-0.3,0.3-0.3,0.6,0,0.8c0.3,0.2,0.5,0.5,0.5,0.8c-0.3,0.3-0.3,0.7-0.1,1.2
	c0.2,0.5,0.5,0.4,0.8-0.2c0.2-0.3,0.1-0.8-0.1-1.4C57.6,28,57.3,27.6,56.8,27.5z M57,70.6c0-0.3,0.1-0.6,0.2-0.8
	c0.2-0.2,0.1-0.5-0.2-0.8c0,0.3-0.1,0.6-0.2,0.8C56.6,70.1,56.7,70.3,57,70.6z M57.3,13.9c-0.3-0.2-0.5,0-0.5,0.3
	c0,0.4,0.2,0.6,0.5,0.6V13.9z M57,21c0.5,0,0.6-0.2,0.3-0.5C57.1,20.2,57,20.4,57,21z M58.2,22.4c-0.5,0-0.8,0.1-1.2,0.2
	c0,0.8,0.2,1.1,0.7,0.9C58.2,23.4,58.3,23,58.2,22.4z M57.3,34.2c0.9,0,1.1-0.2,0.6-0.5C57.3,33.4,57.1,33.6,57.3,34.2z M58.9,11.8
	c-0.3,0.2-0.6,0.2-0.9,0c-0.3-0.2-0.5-0.1-0.7,0.2c0.3,0.2,0.6,0.5,0.8,0.9c0.2,0.5,0.6,0.5,1,0.2c-0.3,0-0.5-0.2-0.6-0.6
	C58.4,12.2,58.6,11.9,58.9,11.8z M61.2,28.6c-1.2-0.2-1.9-0.2-2.1,0c-0.2,0.2-0.1,0.3,0.1,0.5c0.2,0.2,0.6,0.3,1,0.3
	c0.5,0.1,0.8-0.1,1.2-0.6c0,0.3,0.3,0.3,0.8,0.1c0.5-0.2,0.3-0.7-0.8-1.3c0,0.2,0,0.3-0.1,0.5C61.2,28.3,61.2,28.5,61.2,28.6z
	 M59.6,17.3c0,0.3-0.1,0.4-0.2,0.3c-0.2-0.1-0.2,0-0.2,0.3h0.7C59.8,17.7,59.7,17.5,59.6,17.3z M59.1,126.7c0.6,0,0.8-0.1,0.5-0.3
	C59.3,126.2,59.1,126.3,59.1,126.7z M59.8,55.9c0-0.3-0.2-0.5-0.5-0.7c-0.2,0.2-0.2,0.3-0.1,0.6C59.3,56,59.5,56,59.8,55.9z
	 M59.6,46.9c-0.2,0.6,0,0.9,0.5,0.9s0.9,0,1.4,0C61.3,47.2,60.6,46.9,59.6,46.9z M60,44.1c0.5,0,0.6-0.1,0.3-0.3
	C60.1,43.5,60,43.6,60,44.1z M61.2,51.9c-0.3,0.3-0.2,0.4,0.2,0.2c0.5-0.2,0.5-0.3,0.2-0.5c0-0.2-0.1-0.2-0.2-0.1
	C61.3,51.7,61.2,51.8,61.2,51.9z M61.6,30.5c0.2-0.3,0.1-0.6-0.2-0.9c-0.2,0.3-0.2,0.6-0.2,0.9H61.6z M62.3,73.2
	c-0.5,0-0.7,0.2-0.7,0.7C62.1,73.9,62.3,73.6,62.3,73.2z M62.1,77.1c0,0.5,0.1,0.6,0.2,0.5c0.2-0.2,0.4-0.2,0.7-0.2
	c0-0.5-0.1-0.6-0.2-0.5C62.6,77,62.4,77.1,62.1,77.1z M63.7,46.4c-0.6,0-1.1,0.3-1.4,0.9c0.2,0.2,0.5,0.2,0.9,0
	C63.7,47.2,63.9,46.9,63.7,46.4z M63.3,53.3c0.3,0.6,0.2,1.2-0.5,1.8c-0.6,0.6-0.5,1.2,0.5,1.8c0.3,0.3,0.5,0.3,0.7-0.1
	c0.2-0.4,0.3-0.9,0.5-1.5c0.2-0.6,0.2-1.2,0.1-1.7c-0.1-0.5-0.2-0.9-0.3-1c-0.2,0.3-0.3,0.5-0.5,0.5C63.6,53.1,63.4,53.2,63.3,53.3z
	 M63.9,26.5c-0.6-0.2-0.9,0-0.9,0.6c0,0.5-0.2,1-0.5,1.3c0.6,0,1-0.2,1-0.6C63.7,27.4,63.8,27,63.9,26.5z M63.3,49.6
	c-0.5,0-0.7,0.2-0.7,0.7C63.2,50.5,63.4,50.3,63.3,49.6z M62.6,61.9c0.8,0.5,1.2,0.6,1.4,0.5c0.2-0.3,0-0.5-0.6-0.7
	C62.8,61.5,62.6,61.6,62.6,61.9z M63.7,32.3c-0.2-0.3-0.2-0.8,0-1.5c0.2-0.7-0.1-1-0.7-0.8c0.2,0.5,0.2,0.9,0,1.4
	C62.9,31.9,63.1,32.2,63.7,32.3z M63.5,41.8c0-0.2-0.2-0.2-0.5-0.2V42C63.3,42,63.5,41.9,63.5,41.8z M64.6,59.6
	c-1.2-0.2-1.7,0.1-1.5,0.8c0.2,0.7,0.7,0.6,1.5-0.3c0.6-0.9,0.8-1.5,0.5-1.6c-0.5-0.3-0.7-0.2-0.6,0.2
	C64.6,59.1,64.6,59.4,64.6,59.6z M63.3,45.5c0.6,0,0.8-0.1,0.5-0.3C63.4,44.9,63.3,45,63.3,45.5z M63.3,71.1c0.3,0.3,0.6,0.3,0.8,0
	c0.2-0.3,0.7-0.5,1.3-0.5c-0.2-0.6-0.5-0.8-1-0.5C63.8,70.5,63.4,70.8,63.3,71.1z M63.7,29.1c0.9,0,1.1-0.2,0.6-0.6
	C63.8,28.1,63.6,28.3,63.7,29.1z M64.6,63.9c0.2-0.5,0-0.7-0.3-0.7c-0.4,0-0.6,0.2-0.6,0.7H64.6z M65.3,30c-0.2,0.3-0.3,0.7-0.3,1.2
	c-0.1,0.5-0.4,0.7-1,0.7c0.2,0.5,0.4,0.8,0.8,0.9c0.4,0.2,0.7,0,0.8-0.5c0.3-0.5,0.4-0.9,0.2-1.3c-0.2-0.4-0.1-0.8,0.2-1.3
	c0.3-0.3,0.3-0.5,0-0.5C65.7,29.3,65.5,29.6,65.3,30z M64.6,109.2c0-0.5-0.2-0.7-0.5-0.7c-0.2,0.2-0.2,0.3-0.1,0.6
	C64.1,109.3,64.3,109.4,64.6,109.2z M64.6,47.6c-0.5,0.5-0.4,0.7,0.2,0.7C65.3,47.8,65.3,47.6,64.6,47.6z M66.5,49.6
	c0.5-0.2,0.7-0.3,0.6-0.6c-0.1-0.2-0.3-0.3-0.6-0.3c-0.6-0.2-1.1,0-1.4,0.5c-0.3,0.5-0.5,0.9-0.7,1.4c0.3,0.2,0.7,0,1-0.3
	C65.8,49.8,66.2,49.6,66.5,49.6z M65.3,95.8c0.3-0.8,0.2-1-0.5-0.7c-0.2,0.3-0.1,0.5,0.1,0.5C65.2,95.6,65.3,95.7,65.3,95.8z
	 M66,21.9c0-0.3-0.2-0.4-0.7-0.3c-0.5,0.1-0.6,0.3-0.5,0.6c0,0.2,0.2,0.2,0.7,0.2C66,22.4,66.2,22.2,66,21.9z M65.6,51
	c-0.2,0.3-0.2,0.5-0.1,0.5c0.1,0,0.1,0.2,0.1,0.5c0.5,0,0.7-0.2,0.7-0.6C66.3,51,66,50.9,65.6,51z M65.6,55.4
	c-0.2,0.2-0.2,0.3-0.1,0.6c0.1,0.2,0.3,0.3,0.6,0.1C66,55.6,65.9,55.4,65.6,55.4z M65.6,67.2c-0.2,0.3-0.1,0.6,0.1,0.9
	c0.2,0.3,0.5,0.5,0.8,0.5C67,68,66.6,67.5,65.6,67.2z M67,54.5c0.3-0.5,0.3-0.9-0.1-1.3c-0.4-0.4-0.8-0.4-1.3-0.1
	C65.6,53.9,66,54.3,67,54.5z M67.9,63.7c0-0.6-0.4-0.8-1.2-0.6c-0.8,0.2-1.1,0.6-0.9,1c0.5,0,0.8-0.1,1-0.3
	C67.1,63.6,67.4,63.6,67.9,63.7z M66.5,100.4c0.2-1.1,0-1.4-0.5-0.9C65.6,100,65.7,100.3,66.5,100.4z M78.3,129.3
	c1.1,0.5,1.6,0.3,1.6-0.3c0-0.7-0.2-1.5-0.6-2.4c-0.4-0.9-0.8-1.9-1.4-2.9c-0.5-1-0.8-1.7-0.8-2c-0.3-0.2-0.7-0.7-1.2-1.5
	c-0.5-0.8-1-1.6-1.5-2.3c-0.5-0.7-1.1-1.1-1.6-1.2c-0.5-0.1-1,0.4-1.5,1.5c-0.8,2-1.7,3.8-2.9,5.3c-1.2,1.5-2,3.4-2.7,5.5
	c1.1,0.5,2.2,0.5,3.2,0c1.1-0.5,2.1-0.8,3-0.9c1.2-0.2,2.3-0.1,3.1,0.2C76,128.7,77,129,78.3,129.3z M66.3,98.1
	c0.5,0.2,0.8,0,0.9-0.3c0.2-0.4,0.1-0.7-0.2-1c-0.3-0.5-0.6-0.4-0.8,0.1C65.9,97.4,65.9,97.8,66.3,98.1z M66.7,110.4
	c0-0.5-0.2-0.6-0.7-0.5v0.5H66.7z M67,57.5c0.6,0.2,1,0.1,1.2-0.2c0.2-0.3-0.1-0.6-0.7-0.9C67.1,56.6,67,57,67,57.5z M68.1,71.8
	c0.5-0.3,1-0.4,1.5-0.3c0.5,0.1,1,0,1.5-0.3c-0.5-0.8-1.1-1.1-1.8-1c-0.8,0.1-1.5-0.1-2.1-0.6c-0.2,0.5-0.2,0.8,0,1.2
	c0.3,0,0.6,0.1,0.9,0.2C68.4,71,68.4,71.3,68.1,71.8z M68.6,75.7c0.3-1.1-0.1-1.4-1.2-0.9C67.7,75.6,68.1,75.9,68.6,75.7z
	 M70.6,31.9c-0.3,0.8-0.8,1.3-1.5,1.6c-0.7,0.3-1.2,0.8-1.5,1.4c0.3,0.5,0.6,1.1,0.8,2c0.2,0.8,0.7,0.5,1.3-1c0.3-0.6,0.3-1,0-1.2
	c-0.3-0.2-0.2-0.4,0.2-0.7c0.6-0.5,1-0.5,1,0c0.1,0.5,0.3,0.6,0.8,0.5c0.2-0.3,0-0.8-0.3-1.5C71.1,32.2,70.8,31.9,70.6,31.9z
	 M68.3,52.4c0-0.3-0.2-0.5-0.5-0.5c-0.2,0.2-0.2,0.3-0.1,0.5C67.8,52.6,68,52.6,68.3,52.4z M68.1,58.6c0.5,0,0.6-0.1,0.3-0.3
	C68.2,58.1,68.1,58.2,68.1,58.6z M68.3,44.3c0.6,0.2,0.9,0.1,0.9-0.1c0-0.2-0.1-0.5-0.2-0.7c-0.2-0.2-0.3-0.3-0.5-0.2
	C68.4,43.4,68.3,43.7,68.3,44.3z M70.4,40.6c-0.8-0.3-1.1-0.8-1-1.4c0.1-0.6-0.1-1.1-0.6-1.4c-0.3,0.5-0.4,1-0.3,1.6
	c0.1,0.6,0.1,1.2,0.1,1.6h1.6C71,41.1,71,40.9,70.4,40.6z M68.6,50.6c0.2,0.3,0.3,0.8,0.3,1.4c0.1,0.6,0.2,1.2,0.2,1.6
	c0.1,0.5,0.2,0.7,0.5,0.8c0.2,0.1,0.6-0.3,1-1c0.2-0.2,0.1-0.8-0.1-1.8c-0.2-1.1-0.5-1.6-0.8-1.6C69.7,50.3,69.3,50.6,68.6,50.6z
	 M69.3,74.3c-0.2-0.5-0.1-0.8,0.1-1c0.2-0.2,0.4-0.5,0.6-0.8c-0.3-0.3-0.7-0.3-1.2,0C68.5,73.4,68.6,74,69.3,74.3z M69.7,25.4
	c-0.3,0.2-0.5,0.1-0.7-0.1c-0.2-0.2-0.2,0-0.2,0.8C69.4,26.4,69.7,26.2,69.7,25.4z M70.4,67.4c0-0.3-0.2-0.6-0.5-0.9
	c-0.9-0.3-1.2-0.1-0.9,0.7C69.6,67.5,70.1,67.6,70.4,67.4z M69,18c0.5,0,0.6-0.1,0.3-0.3C69.1,17.4,69,17.5,69,18z M69,59.8
	c0.2,0.8,0.6,1.2,1.4,1.4c0.5-0.3,0.5-0.6,0-0.9C70,59.9,69.5,59.8,69,59.8z M70.2,28.4c-0.2-0.3-0.3-0.3-0.5,0.1
	c-0.2,0.4,0,0.5,0.5,0.3V28.4z M70.6,44.1c-0.8-0.3-1-0.3-0.8,0C70.1,44.4,70.3,44.4,70.6,44.1z M70.9,29.6
	c-0.3-0.3-0.6-0.2-0.9,0.2c-0.3,0.5-0.2,0.8,0.2,0.9C70.6,30.2,70.9,29.9,70.9,29.6z M70.9,14.3c-0.3-0.3-0.5-0.3-0.7,0
	c-0.2,0.3,0,0.5,0.5,0.7C70.6,14.7,70.7,14.5,70.9,14.3z M70.4,37.4c-0.3,0.3-0.3,0.7-0.1,1c0.2,0.4,0.6,0.5,1,0.3
	C71,37.9,70.7,37.4,70.4,37.4z M72.7,23.5c-0.8,0.3-1.1,0.3-1,0c0.1-0.3-0.2-0.5-0.8-0.7c0,0.3-0.1,0.6-0.3,0.8
	c-0.2,0.2-0.2,0.5,0.1,0.8c0.3,0.2,0.7,0.2,1.3,0C72.5,24.3,72.7,24,72.7,23.5z M71.1,72c0.3-0.2,0.3-0.3,0-0.5
	c-0.3-0.2-0.5-0.1-0.5,0.2c0.2,0,0.2,0,0.2,0.1C70.9,72,71,72,71.1,72z M71.8,50.3c0-0.6-0.2-0.9-0.7-0.9c-0.3,0.2-0.4,0.3-0.2,0.6
	C71,50.2,71.3,50.3,71.8,50.3z M70.9,96c0,0.3,0.3,0.5,0.9,0.5c0-0.3-0.1-0.5-0.3-0.7C71.2,95.7,71,95.7,70.9,96z M71.3,83.1
	c0.3,0.3,0.5,0.3,0.5-0.1C71.8,82.6,71.6,82.6,71.3,83.1z M71.6,9.5c-0.3,0.6-0.2,0.9,0.5,0.9C72.2,9.8,72,9.5,71.6,9.5z M71.6,46.2
	c0,0.2,0,0.4-0.1,0.7c-0.1,0.3,0,0.5,0.3,0.7c-0.2-0.3,0-0.7,0.3-1.2C72.5,45.9,72.3,45.9,71.6,46.2z M72,42.9
	c0.3-0.2,0.4-0.4,0.3-0.8c-0.1-0.4-0.3-0.5-0.6-0.3c-0.3,0.2-0.4,0.4-0.3,0.8C71.5,43,71.7,43.1,72,42.9z M71.8,69
	c-0.3,0.2-0.4,0.3-0.2,0.6c0.2,0.2,0.4,0.4,0.7,0.6C73,69.4,72.9,69,71.8,69z M71.8,55.6c0.5-0.5,0.9-0.7,1.4-0.8
	c0.5-0.1,1-0.2,1.6-0.3c0-0.3-0.1-0.5-0.3-0.5c-0.2,0-0.4-0.2-0.6-0.5c0.3-0.3,0.6-0.7,0.8-1c0.2-0.4,0.5-0.7,0.8-1
	c0.5-0.2,0.9,0,1.3,0.5c0.4,0.5,0.7,0.5,1,0.2c-0.5-0.6-1.3-1.2-2.5-1.8c-0.3,0.5-0.6,0.9-0.9,1.4c-0.3,0.5-0.7,0.8-1.2,1.2
	c-0.6,0.8-1,1.2-1.2,1.3C71.9,54.2,71.8,54.7,71.8,55.6z M71.8,78.5c0.2,0.3,0.4,0.4,0.7,0.2c0.3-0.2,0.5-0.3,0.7-0.5
	c-0.3-0.2-0.8-0.2-1.4-0.2V78.5z M73.6,19.2c-0.3-0.3-0.8-0.3-1.6,0c0,0.6,0.2,0.9,0.7,0.9C73.2,20.1,73.5,19.8,73.6,19.2z M72,28.9
	c0.6,0.6,1.1,0.6,1.4,0c-0.2-0.2-0.4-0.3-0.7-0.3C72.4,28.4,72.2,28.6,72,28.9z M73.9,35.8c0.3-0.8,0.2-1.1-0.3-1
	c-0.5,0.1-1,0.2-1.5,0.3c0,0.8,0.2,1,0.6,0.7C73,35.5,73.4,35.5,73.9,35.8z M74.1,41.3c0-0.3-0.2-0.8-0.6-1.4
	c-0.4-0.6-0.9-1.1-1.5-1.4c0,0.5,0.2,1.1,0.5,2C72.8,41.4,73.3,41.6,74.1,41.3z M73,72.5c0-0.3-0.2-0.5-0.7-0.5v0.5H73z M73.2,107.4
	c-0.8-0.2-1,0.1-0.7,0.7C73,108,73.2,107.8,73.2,107.4z M74.1,49.2c-0.3-0.5-0.5-0.7-0.7-0.6c-0.2,0.1-0.5,0.2-0.9,0.3
	c0.5,1.1,1.1,1.6,1.8,1.6C74.6,50.1,74.6,49.6,74.1,49.2z M72.7,61.9c0.3,0.6,0.6,0.6,0.9,0c0.3-0.6,0.5-1,0.5-1.2
	c-0.2,0-0.4,0.1-0.8,0.3C72.9,61.3,72.7,61.6,72.7,61.9z M74.1,42.7c-0.3,0.2-0.6,0.4-0.8,0.7c-0.2,0.3-0.2,0.6,0.1,0.9
	C74.2,44.3,74.4,43.8,74.1,42.7z M74.3,25.4c0,0.2-0.2,0.3-0.7,0.5c-0.5,0.2-0.4,0.4,0.2,0.7c0.5,0,1,0,1.5-0.1c0.5-0.1,1,0,1.3,0.3
	c0.5-1.5-0.3-2.5-2.3-2.8V25.4z M74.3,33.5c-0.3-0.3-0.5-0.3-0.7,0.1c-0.2,0.4-0.2,0.7,0,0.8c0.5,0.2,0.8,0.1,0.9-0.1
	C74.7,34.1,74.6,33.8,74.3,33.5z M73.6,9h0.2c0.2,0,0.2-0.1,0.2-0.2l-0.5-0.2V9z M73.9,108c0,0.2,0,0.2-0.1,0.2
	c-0.1,0-0.1,0.2-0.1,0.5c0.5,0.2,0.7,0.1,0.7-0.2C74.3,108.2,74.2,108,73.9,108z M73.9,31.2c0,0.6,0.3,0.9,0.8,0.8
	c0.5-0.1,0.8-0.4,0.8-1C75.2,30.8,74.6,30.9,73.9,31.2z M74.6,75.3c0.6,0.2,0.9-0.1,0.9-0.7c-0.3-0.3-0.6-0.3-0.9-0.1
	C74.3,74.7,74.3,75,74.6,75.3z M74.3,37.9c0.6,0.6,1.1,0.4,1.4-0.7C74.8,36.6,74.3,36.8,74.3,37.9z M74.3,77.3
	c0.5,0,0.6-0.1,0.3-0.3C74.5,76.8,74.3,76.9,74.3,77.3z M74.3,114c0.5,0,0.6-0.1,0.3-0.3C74.5,113.5,74.3,113.6,74.3,114z
	 M75.5,62.3c-0.3-0.3-0.5-0.3-0.7,0c-0.2,0.3,0.1,0.5,0.7,0.5V62.3z M75,86.3c0.3,0.3,0.5,0.3,0.5,0C75.5,86,75.3,86,75,86.3z
	 M75.3,59.1c-0.2,0.3,0,0.6,0.5,0.9C76.3,59.1,76.2,58.8,75.3,59.1z M75.3,52.9c-0.2,0.8,0,1.2,0.6,1.4c0.5,0.2,1,0.1,1.3-0.2
	C77.1,53.3,76.5,52.9,75.3,52.9z M75.3,83.1c0.3,0,0.6-0.2,0.8-0.6c0.2-0.4,0.6-0.6,1-0.6c0.2-0.5-0.2-0.5-0.9-0.2
	C75.4,82,75.1,82.5,75.3,83.1z M75.3,69c0.2,0,0.3-0.1,0.3-0.2c0.1-0.2,0-0.2-0.3-0.2V69z M78.5,62.8c0.2,0.3,0.1,0.5-0.1,0.6
	c-0.2,0.1-0.3,0.3-0.3,0.6c0.3-0.2,0.6-0.3,0.9-0.3c0.3-0.1,0.5-0.3,0.7-0.8c-0.6-0.5-0.9-0.9-0.8-1.4c0.1-0.5-0.3-0.7-1-0.7
	c-0.2,0.2-0.1,0.3,0.1,0.6c0.2,0.2,0.2,0.4-0.1,0.6c-0.3-0.2-0.6-0.3-0.8-0.6c-0.2-0.2-0.7-0.3-1.3-0.3c0,0.3,0.3,0.6,0.9,0.9
	c0.3,0.3,0.3,0.5,0.1,0.7c-0.2,0.2-0.3,0.4-0.3,0.7c-0.3,0.6-0.1,0.7,0.7,0.1C77.9,62.8,78.3,62.6,78.5,62.8z M76.6,41.1
	c0.3-0.2,0.3-0.3,0.1-0.6c-0.2-0.2-0.5-0.4-0.8-0.6C76,40.6,76.2,40.9,76.6,41.1z M76,41.8c0,0.6,0.2,0.8,0.5,0.5
	C76.7,41.9,76.6,41.8,76,41.8z M76.4,37.2c0.8,0,1.2-0.3,1.2-0.9C76.8,36.2,76.4,36.6,76.4,37.2z M77.6,47.6
	c-0.5-0.3-0.8-0.2-1.2,0.5c0.5,0,0.8,0.1,0.9,0.3C77.5,48.6,77.6,48.3,77.6,47.6z M77.6,18.5c-0.3,0-0.6,0.1-0.8,0.2
	c-0.2,0.2-0.2,0.3,0.1,0.5C77.3,19.5,77.6,19.2,77.6,18.5z M77.8,27.9c-0.2,0.5-0.1,0.7,0.1,0.8c0.2,0.1,0.3,0.3,0.3,0.6
	c-0.3,0.3-0.6,0.6-0.9,0.8c-0.3,0.2-0.5,0.7-0.7,1.3c0.3,0,0.7,0,1-0.1c0.4-0.1,0.6,0,0.6,0.3c0.2,0.6,0,0.9-0.5,0.9
	c-0.5,0-0.8,0.2-0.9,0.7c0.6,0.3,1.1,0.3,1.5-0.1c0.4-0.4,0.7-0.8,1-1.3c0.3-0.9,0.5-1.7,0.5-2.3c0-0.9-0.1-1.2-0.3-0.9
	c-0.2,0.3-0.5,0.2-0.8-0.5c0.2-0.2,0.5-0.5,0.9-0.9c0.5-0.5,0.3-0.8-0.5-0.9c-0.2,0-0.3,0.3-0.5,0.9C78.6,27.9,78.3,28.1,77.8,27.9z
	 M76.6,64.9c0,0.3,0.2,0.5,0.5,0.6c0.3,0.1,0.5-0.2,0.5-0.8C77.1,64.6,76.8,64.7,76.6,64.9z M77.3,45.2c0.5,0,0.8-0.2,1-0.7
	c0.2-0.5,0.7-0.6,1.5-0.5c-0.2-0.5-0.5-0.8-1-1.2c-0.5-0.3-1-0.2-1.5,0.2c0.3,0.3,0.4,0.6,0.2,0.9C77.4,44.4,77.3,44.8,77.3,45.2z
	 M77.8,68.8c0.3,0.3,0.7,0.5,1,0.6c0.4,0.1,0.7,0,1-0.3c0-0.9-0.3-1.3-0.8-1.2C78.5,68,78.1,68.3,77.8,68.8z M77.8,73.2
	c0.3-0.2,0.7-0.1,1,0.1c0.4,0.2,0.7,0.2,0.8-0.1c-0.5-0.2-0.8-0.4-0.9-0.7c-0.2-0.3-0.5-0.4-0.9-0.2V73.2z M78,22.9
	c0.6,0.6,0.6,1.5,0,2.8c0.8,0,1.6,0,2.4,0c0.8,0,1.7-0.1,2.4-0.2c0,0.5-0.2,0.8-0.7,1c-0.5,0.2-0.7,0.6-0.7,1
	c0.3,0.3,0.6,0.4,0.8,0.2c0.2-0.2,0.4-0.4,0.6-0.7c0.2,0.2,0.3,0.3,0.6,0.6c0.2,0.2,0.5,0.2,0.8-0.1c-0.8-0.3-0.9-1-0.5-2.1
	c-0.5-0.3-1-0.6-1.6-0.8c-0.6-0.2-1.2-0.5-1.6-0.8c0,0.3-0.1,0.6-0.2,0.8c-0.2,0.2-0.4,0.1-0.7-0.3c0.5-0.6,0.6-1.2,0.5-1.8
	c0.3,0,0.6-0.1,0.9-0.2c0.3-0.2,0.6-0.2,0.9-0.2c0.3,0.9,0.7,1.4,1.2,1.4c0.2-0.2,0.3-0.5,0.5-1c0.2-0.5-0.1-0.7-0.7-0.6
	c-0.6,0.3-0.8,0.3-0.7,0c0.2-0.3,0-0.6-0.5-0.9c-0.2,0-0.7,0.3-1.7,0.8C79,22.1,78.3,22.5,78,22.9z M79,40.4c0.3-0.3,0.7-0.7,1-1
	c0.4-0.4,0.7-0.9,1-1.5c0.5-0.8,0.5-1.2,0-1.3c-0.5-0.1-0.5-0.4,0-1c0.3-0.5,0.2-0.7-0.2-0.7c-0.5,0-0.8,0.1-0.9,0.2
	c-0.3,0.3-0.5,0.7-0.7,1c-0.2,0.4-0.5,0.7-0.9,0.8c0.5,0.5,0.7,1,0.7,1.6C79,39.2,79,39.8,79,40.4z M79,52.6
	c0.3-0.2,0.2-0.4-0.5-0.7c-0.2,0.2-0.2,0.3-0.1,0.6C78.5,52.8,78.6,52.8,79,52.6z M78.7,20.8c0.5,0,0.7-0.1,0.7-0.3
	c0-0.2-0.1-0.5-0.2-0.7c-0.2-0.2-0.3-0.3-0.3-0.1C78.8,19.8,78.7,20.2,78.7,20.8z M79.2,45.2c-0.3,0.9-0.1,1.4,0.7,1.4
	C80.5,45.7,80.3,45.2,79.2,45.2z M80.1,12.9c0,0.2-0.2,0.2-0.7,0.2c0-0.2,0.1-0.2,0.2-0.1C79.8,13.1,80,13.1,80.1,12.9z M80.3,16.2
	C80,16.3,79.9,16.3,80,16c0.1-0.2,0-0.3-0.3-0.3v0.9C80.1,16.6,80.3,16.5,80.3,16.2z M79.9,55.2c0.6,0,0.8-0.2,0.7-0.7
	C79.8,54.3,79.6,54.6,79.9,55.2z M80.3,61.4c0-0.3,0-0.6,0.1-0.8c0.1-0.2-0.1-0.3-0.6-0.1c0.2,0.2,0.2,0.3,0.2,0.5
	C80.1,61.1,80.2,61.3,80.3,61.4z M80.6,39.9c-0.3,0.3-0.4,0.6-0.2,0.8c0.2,0.2,0.2,0.6,0.2,1c0.8,0,1.1-0.3,1-0.9
	C81.5,40.3,81.2,39.9,80.6,39.9z M80.3,46.2c0.8,0,1.1-0.2,0.9-0.6C81.1,45.2,80.8,45.4,80.3,46.2z M82.2,53.1
	c-0.8-0.5-1.2-0.3-1.4,0.5c-0.2,0.8,0.2,1.2,0.9,1.2c0.2-0.2,0.2-0.4,0.2-0.7C82,53.7,82,53.4,82.2,53.1z M82.4,50.3
	c-0.3-0.3-0.7-0.4-1.3-0.2c-0.5,0.2-0.5,0.5,0.1,1.2C82,51.3,82.4,50.9,82.4,50.3z M80.8,75h0.7c0-0.5-0.2-0.6-0.7-0.5V75z M82,80.3
	c0-0.6-0.2-0.9-0.6-0.8c-0.4,0.1-0.5,0.3-0.3,0.8H82z M82.6,12.5c-0.2-0.2-0.3-0.3-0.6-0.5c-0.2-0.2-0.4-0.1-0.6,0.2
	c0.2,0,0.3,0.1,0.6,0.3C82.3,12.8,82.5,12.8,82.6,12.5z M83.3,31.6c-0.3,0.3-0.7,0.6-1,0.8c-0.4,0.2-0.7,0.7-0.8,1.3
	c0.8,0.6,1.4,0.5,2-0.3c0.5-0.8,1-1.4,1.5-1.7C84.2,30.9,83.6,30.9,83.3,31.6z M82.2,63.5c0.9-0.6,1.4-1.6,1.4-3
	c-0.2-0.9-0.4-1.5-0.8-1.8c-0.4-0.3-0.7,0.2-0.8,1.4c0,0.3,0.1,0.5,0.3,0.6c0.2,0.1,0.2,0.3-0.1,0.8c-0.3,0.3-0.5,0.7-0.6,1.2
	C81.5,63,81.7,63.3,82.2,63.5z M83.8,17.8c0-0.6-0.2-1-0.7-1c-0.5-0.1-0.8,0-1.2,0.3c0.3,0,0.4,0.2,0.2,0.7H83.8z M82.2,31.4
	c0.6,0,0.9-0.1,0.9-0.3c0-0.2-0.1-0.5-0.2-0.7c-0.2-0.2-0.3-0.3-0.6-0.1C82.1,30.4,82,30.8,82.2,31.4z M82.2,40.4
	c0.6,0.2,0.9,0,0.8-0.5c-0.1-0.5-0.3-0.7-0.6-0.7C82.3,39.4,82.2,39.8,82.2,40.4z M82.2,67.4c0.8,0,1-0.2,0.6-0.6
	C82.4,66.5,82.2,66.6,82.2,67.4z M82.9,83.8c0.6-0.3,0.7-0.8,0.1-1.4c-0.5-0.6-0.8-0.8-0.8-0.5c0.5,0,0.6,0.3,0.5,0.8
	C82.5,83.3,82.6,83.7,82.9,83.8z M82.4,56.6c0.6,0,0.8-0.1,0.5-0.3C82.6,56,82.4,56.1,82.4,56.6z M82.9,38.1c0.5,0.2,0.8,0,1-0.5
	c0.2-0.5,0.2-0.8-0.1-1.2c-0.3,0.3-0.5,0.6-0.5,0.9C83.3,37.7,83.2,37.9,82.9,38.1z M83.6,35.8c0-0.6-0.1-1-0.2-1
	c-0.2-0.1-0.3,0-0.3,0.1c-0.1,0.2-0.1,0.3,0,0.6C83.1,35.7,83.3,35.8,83.6,35.8z M83.1,20.5c0.6,0.2,0.9,0,0.8-0.3
	c-0.1-0.4-0.3-0.6-0.8-0.6V20.5z M84,77.6c0.2-0.3,0.1-0.5-0.1-0.7c-0.2-0.2-0.5-0.1-0.8,0.2C83.1,77.4,83.4,77.6,84,77.6z
	 M83.8,66.7c-0.2,0.3-0.3,0.5-0.5,0.5c-0.2,0-0.2,0.2,0,0.5c0.6,0,0.9-0.2,0.9-0.7c-0.2,0-0.2,0-0.2-0.1C84,66.8,84,66.7,83.8,66.7z
	 M85.4,43.4c-0.5-0.2-1-0.1-1.6,0.2c0.2,0.9,0.4,1.2,0.7,0.9C84.8,44.3,85.1,43.9,85.4,43.4z M84,42c-0.2,0.8-0.1,1,0.1,0.7
	C84.4,42.4,84.3,42.2,84,42z M84.5,11.1c-0.5,0-0.6,0.2-0.5,0.5C84.3,11.5,84.5,11.4,84.5,11.1z M85.4,34.6
	c-0.2-0.3-0.2-0.7-0.1-1.2c0.1-0.5-0.1-0.8-0.6-1.2c0,0.5-0.1,0.8-0.2,1c-0.2,0.2-0.3,0.5-0.5,0.8C84.3,34.5,84.8,34.6,85.4,34.6z
	 M84,54.9c0.2,0.3,0.3,0.4,0.6,0.2c0.2-0.2,0.3-0.4,0.3-0.7C84.3,54.3,84,54.5,84,54.9z M84.3,70.6c-0.2,0.5,0,0.8,0.3,1
	c0.4,0.2,0.7,0.2,1-0.1C85.7,70.8,85.2,70.5,84.3,70.6z M84.3,46.4c0.9,0,1.1-0.2,0.6-0.5C84.3,45.6,84.1,45.8,84.3,46.4z
	 M85.2,13.2c-0.6-0.5-0.9-0.2-0.9,0.9c0.2,0.3,0.3,0.5,0.6,0.5c0.2,0,0.5,0.1,0.8,0.2c-0.2-0.3-0.2-0.6-0.1-0.9
	C85.6,13.5,85.5,13.3,85.2,13.2z M104.4,113.1c1.8-0.5,3.5-1.3,5-2.7c1.5-1.3,2.7-2.8,3.6-4.5c0.9-1.7,1.5-3.5,1.8-5.4
	c0.3-1.9,0.2-3.8-0.2-5.7c-0.5-1.7-1.4-3.4-2.8-5.1c-1.4-1.7-3-3.1-4.8-4.2c-1.8-1.1-3.8-1.8-5.9-2.1c-2.1-0.3-4,0.1-5.7,1.2
	c-0.8,0.5-1.5,0.7-2.3,0.8c-0.8,0.1-1.5,0.5-2.3,1.3c-0.8,0.8-1.5,1.5-2.2,2.2c-0.7,0.7-1.3,1.5-2,2.4c-0.9,1.5-1.5,3.3-1.8,5.3
	c-0.3,2-0.3,3.9,0,5.8c0.3,0.9,0.7,1.7,1.2,2.3c0.5,0.6,0.9,1.3,1.4,2.1c0.8,1.2,1.4,2.2,1.8,2.9c0.5,0.7,1.3,1.3,2.5,2
	C95.7,113.7,99.9,114.2,104.4,113.1z M87,38.6c-0.8,0-1.4-0.5-1.8-1.6c-0.6,0.9-0.6,1.8,0.1,2.7c0.7,0.8,1.4,1.4,2.2,1.7
	c0-0.6-0.2-1.1-0.5-1.4C86.7,39.6,86.7,39.2,87,38.6z M87,49.2c-0.3-0.3-0.6-0.7-0.8-1.2c-0.2-0.5-0.7-0.7-1.3-0.7
	c0.3,0.6,0.8,1.4,1.4,2.4c0.6,1,1.3,1.1,2.1,0.3c-0.2-1.1-0.4-2.2-0.7-3.3c-0.3-1.2-1.1-1.9-2.3-2.2c0,0.3-0.1,0.5-0.2,0.6
	c-0.2,0.1-0.2,0.3,0,0.6c0.8,0,1.2,0.3,1.3,0.8c0.1,0.5,0.3,1,0.8,1.5C87.6,48.6,87.5,49,87,49.2z M85,62.3c0.6,0.3,1.1,0.3,1.5,0
	c0.4-0.3,0.9-0.5,1.5-0.7c0.2,0.3,0.2,0.7,0.1,1c-0.1,0.4,0.1,0.6,0.6,0.6c-0.2-1.2-0.7-2-1.6-2.4C86.1,60.5,85.4,60.9,85,62.3z
	 M86.8,25.2c-0.3-0.3-0.6-0.2-0.8,0.2c-0.2,0.5-0.2,0.8,0.1,1.2c0.3-0.2,0.6-0.3,0.8-0.5C87.2,25.9,87.1,25.6,86.8,25.2z M85.9,31.6
	c0.5,0,0.6-0.1,0.3-0.3C86,31.1,85.9,31.2,85.9,31.6z M85.9,52.6c0.5,0,0.9,0.1,1.4,0.2c0.5,0.2,0.8,0,0.9-0.5
	c0.3-0.5,0-0.7-0.8-0.6C86.5,51.9,86,52.2,85.9,52.6z M87,56.8c0.3-0.6,0.4-1.2,0.2-1.6c-0.6,0-1.1,0.4-1.4,1.2
	C86.2,56.6,86.6,56.8,87,56.8z M87.7,34.2c-0.6-0.3-1.1-0.2-1.5,0.5c-0.4,0.6-0.4,1.1-0.1,1.4c0.5-0.2,0.8-0.4,0.9-0.8
	C87.2,34.8,87.4,34.5,87.7,34.2z M86.1,18.7c-0.3,0.3-0.3,0.5,0.1,0.5c0.4,0,0.5-0.1,0.3-0.2c-0.2,0-0.2-0.1-0.2-0.2
	C86.3,18.5,86.3,18.5,86.1,18.7z M86.1,64.2c0.5,0,0.6-0.1,0.3-0.3C86.2,63.6,86.1,63.7,86.1,64.2z M86.3,42.7
	c0.2,0.3,0.3,0.7,0.3,1c0.1,0.4,0.3,0.6,0.8,0.6c0.3-0.3,0.4-0.8,0.2-1.4C87.6,42.3,87.1,42.2,86.3,42.7z M86.3,69.7H87
	c0-0.3-0.2-0.5-0.7-0.5V69.7z M88.2,27.5c-0.2,0.3-0.4,0.6-0.7,0.8c-0.3,0.2-0.6,0.5-0.9,0.8c0.3,0.3,0.7,0.3,1,0.1
	c0.4-0.2,0.7-0.3,1-0.1c0,1.4,0.5,2.2,1.4,2.3c-0.3-0.8-0.5-1.5-0.6-2.3C89.4,28.3,89,27.8,88.2,27.5z M88.4,34.4
	c0.6,0,0.9-0.2,0.9-0.7c0-0.5-0.1-0.9-0.3-1.3c-0.2-0.4-0.5-0.6-0.9-0.7c-0.4-0.1-0.7,0.3-1,1.3c0.3,0.3,0.6,0.3,0.9,0.1
	c0.3-0.2,0.5-0.1,0.7,0.3c0.2,0.3,0.2,0.5,0,0.5C88.5,33.9,88.4,34.1,88.4,34.4z M88.4,65.1c0.5-0.6,0.6-1,0.5-1
	c-0.2-0.1-0.4,0-0.7,0.1c-0.3,0.2-0.5,0.3-0.6,0.6C87.5,65,87.8,65.1,88.4,65.1z M88,42c0.3,0,0.5,0,0.6-0.1c0.1-0.1,0-0.2-0.3-0.3
	C88,41.7,88,41.9,88,42z M89.6,53.1c-0.6-0.2-1,0-1,0.3c-0.1,0.4-0.3,0.7-0.6,1c0.3,0.2,0.6,0.2,0.8,0.1c0.2-0.1,0.5,0,0.8,0.1
	c-0.3,0.5-0.3,0.9,0.1,1.4c0.4,0.5,0.7,0.8,1,1.2c0.3-0.3,0.4-0.6,0.2-0.9c-0.2-0.3-0.3-0.6-0.5-0.9c0.8,0,1.4-0.4,2-1.3
	c0.5-0.8,0.3-1.4-0.6-1.7c-0.3,0.6-0.6,1.1-0.8,1.5c-0.2,0.4-0.7,0.6-1.5,0.6c-0.2-0.3-0.1-0.5,0.1-0.7
	C89.9,53.6,89.9,53.4,89.6,53.1z M90.3,68.3c-0.3-0.5-0.8-1-1.4-1.5c-0.6-0.5-0.8-0.4-0.7,0.3C88.5,67.6,89.2,68,90.3,68.3z
	 M88.4,22.6c-0.3,0.3-0.3,0.9-0.1,1.8c0.2,0.9,0.7,1.1,1.5,0.5c-0.3-0.3-0.6-0.5-0.8-0.6c-0.2-0.1-0.3-0.3-0.3-0.6
	c0-0.2,0-0.3,0.1-0.6C88.8,23,88.7,22.8,88.4,22.6z M88.2,38.1c0,0.8,0.3,1.4,0.9,1.8c0.2-0.6,0.2-1,0.1-1.2
	C89.2,38.6,88.8,38.4,88.2,38.1z M88.7,57c0-0.3-0.2-0.5-0.5-0.5V57H88.7z M89.6,15c-0.3-0.2-0.5-0.2-0.6-0.1
	C88.9,15,88.7,15,88.4,15c0.2,0.3,0.2,0.6,0.2,0.9c0.5,0.2,0.7,0.1,0.6-0.2C89.2,15.4,89.3,15.2,89.6,15z M89.3,46.4
	c0.2-0.5,0-0.7-0.3-0.7c-0.4,0-0.6,0.2-0.6,0.7H89.3z M90.3,21.7c0.2-0.5,0-0.7-0.3-0.8c-0.4-0.1-0.7,0-1,0.3c0,0.3,0.2,0.5,0.5,0.7
	C89.7,22.1,90,22,90.3,21.7z M90.3,58.4c-0.3-0.3-0.6-0.3-0.8,0c-0.2,0.3-0.1,0.5,0.3,0.5L90.3,58.4z M90.3,35.8
	c-0.6,0-0.8,0.3-0.7,0.9C90.2,36.7,90.4,36.4,90.3,35.8z M89.6,64.9c0.3-0.3,0.7-0.5,1-0.6c0.4-0.1,0.7-0.3,0.8-0.8
	c-0.5-0.3-0.8-0.2-1,0.2C90.2,64.2,89.9,64.6,89.6,64.9z M89.8,27.2c0,0.6,0.2,0.9,0.5,0.9c0.2-0.2,0.2-0.3,0.1-0.6
	C90.3,27.4,90.1,27.2,89.8,27.2z M91.7,37.9c-0.2,0.3-0.1,0.6,0.1,0.9c0.2,0.3,0.1,0.5-0.3,0.7c-0.3,0-0.7,0.1-1.2,0.3
	c-0.5,0.2-0.4,0.5,0.2,0.8c0.3,0.2,0.7,0,1.3-0.5c0.5-0.5,1-1,1.3-1.6c0.3-0.6,0.5-1.2,0.5-1.8c0-0.6-0.3-1-0.9-1.2
	c-0.3,0.3-0.4,0.7-0.2,1.2C92.5,37.2,92.3,37.6,91.7,37.9z M91.2,24.2c0.2,0.6,0,1.1-0.3,1.5c-0.4,0.4-0.6,1-0.6,1.7
	c0.6-0.3,1.2-0.2,1.6,0.2c0.5,0.5,0.8,0.5,1.2,0.2c-0.5-0.3-0.5-0.7-0.2-1.2c0.3-0.5,0.6-0.8,0.9-1.2c0,0.6,0.2,0.9,0.6,0.8
	c0.4-0.1,0.6-0.3,0.6-0.8c-0.6-0.3-1.2-0.3-1.8,0c-0.6,0-1-0.2-1-0.5C91.9,24.9,91.7,24.6,91.2,24.2z M90.5,29.1
	c-0.2,0.2-0.2,0.4-0.1,0.7c0.1,0.3,0.3,0.4,0.6,0.2c0.3-0.3,0.4-0.5,0.2-0.7C91,29.2,90.8,29.1,90.5,29.1z M92.3,19.6
	c-0.3,0.8-0.6,0.9-0.8,0.5c-0.2-0.5-0.5-0.5-0.8-0.2c0,0.8,0.3,1.2,1,1.2c0.7,0,1,0.4,0.8,1.2c0.2,0,0.3,0,0.6,0.1
	c0.2,0.1,0.5,0,0.8-0.1c0-0.5-0.2-0.9-0.6-1.4c-0.4-0.5-0.6-0.9-0.6-1.4c0.2-0.9,0.5-1.1,1.2-0.5c0.6,0.6,1.1,0.7,1.4,0.2
	c-0.3-0.5-0.7-0.7-1.3-0.8c-0.5-0.1-1-0.4-1.3-1c0,0.5-0.4,0.8-1.2,1.2c-0.2,0.3-0.1,0.5,0.2,0.6C92.2,19.1,92.3,19.3,92.3,19.6z
	 M92.3,51.3c0-0.8-0.2-1.2-0.5-1.2c-0.3,0-0.7,0.2-1.2,0.5C90.7,51.3,91.3,51.6,92.3,51.3z M96.7,28.6c-1.1,0.5-1.6,0.7-1.5,0.6
	c0.1-0.1-0.1-0.5-0.6-1.3c-0.3-0.3-0.7,0-1,1c-0.4,1-0.7,1.7-1,2c-0.3,0.2-0.6,0.2-0.9,0c-0.3-0.2-0.5,0.1-0.7,0.7
	c0.5-0.2,0.9-0.2,1.4,0c0.5,0.2,0.7,0.5,0.7,1.2c0,0.5,0,0.7-0.1,0.8c-0.1,0.1,0.2,0.3,0.8,0.6c0.2,0.2,0.4,0.2,0.7,0.1
	c0.3-0.1,0.5-0.3,0.5-0.6c-0.3-0.6-0.6-0.8-0.8-0.7c-0.2,0.2-0.2-0.2,0.1-0.9c0.2-0.5,0.1-0.8-0.2-1.2c-0.3-0.3-0.2-0.6,0.5-0.9
	c0.3,0.5,0.6,0.7,0.9,0.6c0.3-0.1,0.7-0.2,1.2-0.3c-0.2,0.6,0,0.8,0.5,0.5c0.5-0.3,0.9-0.7,1.3-1.2c0.4-0.5,0.5-0.8,0.5-1.2
	C98.6,28.1,98,28.2,96.7,28.6z M92.1,67.9c0-0.9-0.4-1.2-1.2-0.9C91,67.6,91.3,67.9,92.1,67.9z M91.2,12.9c0.2,0.3,0.2,0.5,0,0.7
	c0.8,0.3,1.1,0.4,1,0.2c-0.1-0.2,0-0.5,0.3-0.9H91.2z M92.6,10.9c-0.2,0-0.4-0.1-0.7-0.2c-0.3-0.2-0.5-0.1-0.5,0.2
	c0.2,0.2,0.3,0.3,0.6,0.3C92.2,11.3,92.4,11.2,92.6,10.9z M91.4,59.3c0.2,0.3,0.3,0.6,0.3,0.8c0.1,0.2,0.3,0.3,0.8,0.3
	c-0.2-0.3-0.3-0.6-0.3-0.8C92.2,59.4,91.9,59.3,91.4,59.3z M94.7,57.7c0.2-1.2,0.6-1.8,1.3-1.8c0.7,0,1-0.5,1-1.4
	c-0.6,0.5-1.3,0.6-2,0.3c-0.7-0.2-1.4-0.2-2.2,0.1c0,0.5,0.2,0.8,0.5,0.9c0.3,0.2,0.3,0.5,0,0.9c-0.2,0.5-0.3,0.5-0.6,0
	c-0.2-0.5-0.5-0.6-0.8-0.5c0.3,0.6,0.3,1,0,1.3c-0.3,0.2,0,0.4,0.9,0.6C94,58.5,94.7,58.3,94.7,57.7z M92.3,68.1
	c0.2-0.3,0.6-0.5,1.4-0.6c0.8-0.1,1.1-0.5,0.9-1.3C93.3,66.6,92.5,67.2,92.3,68.1z M93,44.6c0.2-0.3,0.4-0.5,0.7-0.5
	c0.3,0,0.4-0.2,0.2-0.7c-0.3-0.2-0.6,0-0.9,0.3C92.7,44.1,92.7,44.4,93,44.6z M94,52.6c0-0.3,0.1-0.5,0.2-0.6
	c0.2-0.1,0.2-0.3,0.2-0.6c-0.5-0.3-0.8-0.2-1.2,0.5C93,52.6,93.2,52.8,94,52.6z M93.3,15.9c-0.2,0.5,0.2,0.7,0.9,0.7
	C94.2,16.2,93.9,15.9,93.3,15.9z M93.3,5.8c0.5,0.2,0.7,0.2,0.8,0c0.1-0.2,0.1-0.3,0-0.5c-0.1-0.2-0.2-0.2-0.5-0.2
	C93.4,5.1,93.3,5.3,93.3,5.8z M94.2,24.2c-0.6,0-0.8,0.1-0.7,0.2c0.2,0.2,0.1,0.5-0.2,0.9C93.9,25.2,94.2,24.9,94.2,24.2z
	 M94.7,63.9c0.3,0.3,0.5,0.6,0.6,0.8c0.1,0.2,0.3,0.3,0.8,0.3c0-0.3-0.3-0.8-1-1.5c-0.7-0.7-1.3-1.1-1.7-1.3v1.6
	C93.7,64.3,94.2,64.3,94.7,63.9z M93.5,59.6c-0.2,0.8,0.3,1.2,1.4,1.3c1.1,0.1,1.6-0.3,1.6-1c-0.6,0.3-1.2,0.4-1.6,0.2
	C94.4,59.9,94,59.7,93.5,59.6z M93.7,72c0.6,0.2,1,0.2,1,0c0.1-0.2,0-0.3-0.2-0.5c-0.2-0.2-0.5-0.2-0.7-0.2
	C93.6,71.3,93.6,71.6,93.7,72z M93.7,49.9c0,0.8,0.3,1.1,0.9,0.9c0.5-0.3,0.5-0.6,0.1-0.9C94.4,49.6,94,49.6,93.7,49.9z M95.6,24
	c0.3-1.1,0.4-1.7,0.3-1.8c-0.1-0.2-0.3-0.2-0.6,0c-0.5,0.3-0.9,0.7-1.4,1.2c0.3-0.3,0.6-0.2,0.8,0.2C95,24,95.3,24.2,95.6,24z
	 M94,39.9c0.3,0,0.5-0.2,0.5-0.5C94.1,39.5,94,39.6,94,39.9z M94.2,46.6c0.8,1.2,1.2,1.4,1.3,0.6c0.1-0.8,0.3-1.3,0.6-1.5
	C95,45.7,94.3,46,94.2,46.6z M96.7,44.8c0.6-0.8,0.5-1.5-0.3-2.2c-0.8-0.7-1.5-1.3-2-1.7c0,0.3,0.1,0.6,0.3,0.9
	c0.2,0.3,0.3,0.6,0.1,0.9c0.2,0,0.4,0,0.7-0.1c0.3-0.1,0.5,0,0.5,0.3c-0.3,0.3-0.4,0.7-0.2,1.2C96,44.6,96.3,44.8,96.7,44.8z
	 M95.1,32.6c0,0.6,0.5,1.1,1.4,1.4c0.3-0.3,0.2-0.7-0.2-1C95.8,32.5,95.4,32.4,95.1,32.6z M95.8,75c-0.5-0.2-0.7,0-0.7,0.3
	c0,0.4,0.2,0.5,0.7,0.3V75z M95.6,52.4c0,0.2-0.1,0.3-0.2,0.6c-0.2,0.2-0.1,0.3,0.2,0.3c0.2-0.2,0.3-0.2,0.3-0.2
	c0.1,0,0.2-0.1,0.3-0.2C96.1,52.9,95.9,52.7,95.6,52.4z M95.6,39.5c0.8,0,1-0.2,0.6-0.6C95.8,38.5,95.6,38.7,95.6,39.5z M96.5,76.4
	c0.3-0.5,0.3-0.7,0-0.6C96.2,75.9,96.2,76.1,96.5,76.4z M97.7,19.2c0.2-0.5,0.1-0.8-0.2-1.2c-0.3-0.3-0.6-0.3-0.9,0
	c0.3,0.2,0.5,0.3,0.6,0.6C97.2,18.8,97.3,19,97.7,19.2z M96.5,48.3c0.8,0.8,1.2,0.6,1.2-0.5c-0.3-0.3-0.6-0.4-0.8-0.2
	C96.6,47.7,96.5,47.9,96.5,48.3z M97,25.2c0.8-1.2,0.8-2,0-2.3c0,0.3-0.1,0.7-0.2,1.3C96.6,24.7,96.7,25,97,25.2z M98.1,56.6
	c0.2-0.9-0.2-1.2-0.9-0.7C97.2,56.3,97.5,56.6,98.1,56.6z M98.8,67c-0.2,0.2-0.4,0.2-0.8,0.1c-0.4-0.1-0.7,0-0.8,0.3
	c0.3,0.2,0.7,0.3,1.3,0.5C99,68,99.1,67.7,98.8,67z M97.7,70.6c-0.2,0.6,0,0.9,0.6,0.8c0.5-0.1,0.8-0.3,0.8-0.6
	c-0.3-0.3-0.5-0.4-0.7-0.2C98.2,70.8,98,70.8,97.7,70.6z M102.3,65.3c0.5-0.5,0.7-0.5,0.7-0.1c0,0.4,0.2,0.5,0.7,0.3
	c-0.2-0.3-0.2-0.6-0.1-0.8c0.1-0.2,0.1-0.5,0.1-0.8c-0.6,0-1-0.2-1.3-0.6c-0.2-0.4-0.7-0.6-1.3-0.6c-0.3,0.8-0.9,1-1.7,0.6
	c-0.8-0.4-1.4-0.8-1.7-1.3c0.2,0.9,0.5,1.5,1.2,1.8c0.6,0.3,1.3,0.6,2.1,0.9c-0.5,0.5-0.7,0.9-0.7,1.4c0.5,0,0.8-0.1,1.2-0.2
	C101.7,65.9,102,65.6,102.3,65.3z M98.6,26.8c-0.5,0.2-0.7,0.4-0.7,0.7H99C99.2,26.9,99,26.6,98.6,26.8z M98.1,58.9
	c0.3,0.2,0.5,0,0.5-0.5s-0.2-0.6-0.5-0.5V58.9z M99,17.3c0.3-0.3,0.2-0.5-0.2-0.5c-0.5,0-0.6,0.1-0.5,0.2
	C98.7,17.4,98.9,17.5,99,17.3z M99.7,31.4c-0.5-0.3-0.7-0.5-0.6-0.5c0.1,0-0.2-0.1-0.8-0.2c0.9,1.1,1,2.1,0.2,3
	c0.3,0.2,0.6,0.2,0.8,0c0.2-0.2,0.2-0.4-0.1-0.7c0.6,0,0.9-0.2,0.9-0.6C100.2,32.1,100,31.7,99.7,31.4z M98.8,70.2
	c0.5,0,0.7-0.2,0.7-0.7C98.7,69.3,98.5,69.6,98.8,70.2z M100.2,45.7c-0.3-0.3-0.5-0.3-0.7,0c-0.2,0.3,0.1,0.5,0.7,0.5V45.7z
	 M103,56.6c0.6,0.2,0.7,0.4,0.3,0.7c-0.4,0.3-0.4,0.6-0.1,0.9c1.1-0.3,1.6-0.8,1.6-1.6c-0.8-0.3-1.5-0.8-2.3-1.6
	c-0.8-0.8-0.5-1.3,0.7-1.6c0.3,0,0.7-0.2,1-0.5c0.4-0.3,0.3-0.5-0.3-0.7c-0.9-0.3-1.3-0.5-1.2-0.5c0.2,0,0.2-0.4,0.2-1.2
	c-0.5,0.2-0.8,0-1-0.3c-0.2-0.4-0.6-0.6-1-0.6c0,0.3,0,0.6-0.1,0.8c-0.1,0.2,0,0.4,0.3,0.6c-0.6,0.5-0.8,0.8-0.5,0.9
	c0.3,0.2,0.5,0.5,0.7,0.9c0.2,0.5,0.2,1,0.1,1.5c-0.1,0.5,0,1,0.3,1.5c-0.3,0-0.8,0.1-1.5,0.2c-0.7,0.2-0.9,0.5-0.6,0.9
	c0.3-0.3,0.6-0.3,0.8,0.1c0.2,0.4,0.5,0.6,0.8,0.6c0.3-0.2,0.6-0.4,0.8-0.8C102.4,56.5,102.7,56.4,103,56.6z M100.7,48
	c0-0.8-0.2-1-0.7-0.8c-0.5,0.2-0.5,0.6,0,1c0.3,0.2,0.5,0.2,0.5,0C100.4,48.1,100.5,48,100.7,48z M100.2,59.3
	c0.2-0.2,0.1-0.3-0.1-0.3c-0.2-0.1-0.3,0-0.3,0.3H100.2z M102.3,45.2c0-0.8-0.4-1.2-1.3-1.3c-0.8-0.1-1.2,0-1,0.3
	c0.3,0.2,0.7,0.3,1,0.5C101.4,44.9,101.8,45.1,102.3,45.2z M102.7,25.4c-0.6,0.3-1.3,0.7-2.1,1.3c-0.8,0.5-0.8,1,0,1.5
	c0.3-0.6,0.7-1,1.3-1.3C102.5,26.7,102.7,26.2,102.7,25.4z M101.6,21.7c-0.3,0-0.5,0.1-0.5,0.3c0,0.2-0.2,0.5-0.5,0.8
	c0.5-0.3,0.6-0.3,0.5,0.1c-0.2,0.4-0.1,0.5,0.2,0.3c-0.2-0.3-0.1-0.5,0.1-0.5c0.2,0,0.3-0.2,0.3-0.5
	C101.2,22.4,101.1,22.2,101.6,21.7z M104.8,30.5c0.2-1.1-0.3-1.4-1.3-0.9c-1,0.5-1.7,0.9-2,1.4c0.6,0.2,1.2,0,1.7-0.3
	C103.9,30.2,104.4,30.2,104.8,30.5z M103,32.3c-0.5,0-0.7,0.2-0.8,0.5c-0.1,0.3-0.3,0.5-0.6,0.5c0,0.3,0.1,0.8,0.3,1.4
	c0.2,0.6,0.6,0.6,1,0c-0.6-0.3-0.8-0.7-0.6-1.2C102.6,33,102.8,32.6,103,32.3z M104.6,49.9c-0.6-1.5-1.3-2.4-2.1-2.5
	c-0.3,0.3-0.4,0.7-0.2,1c0.2,0.4,0.3,0.7,0.5,1c0.3-0.3,0.6-0.3,0.8,0C103.8,49.7,104.1,49.9,104.6,49.9z M103,72.5
	c-0.5-0.2-0.7,0-0.7,0.3c0,0.4,0.2,0.5,0.7,0.3V72.5z M104.8,27.7c-0.2-0.8-0.6-1.1-1.3-0.9c-0.7,0.2-0.9,0.6-0.6,1.4
	c0.5,0.2,0.9,0.1,1.3-0.2c0.4-0.3,0.6,0,0.6,0.9c0.6,0.2,1.2-0.4,1.7-1.7c0.5-1.3,0.7-2.1,0.3-2.4c-0.2,0.3-0.4,0.6-0.7,0.9
	c-0.3,0.3-0.6,0.6-0.9,0.9c0.2,0.3,0.3,0.4,0.6,0.3c0.2-0.1,0.3,0,0.3,0.3c-0.3-0.2-0.4-0.1-0.3,0.1c0.1,0.2,0,0.3-0.3,0.3
	C105.2,27.6,105,27.6,104.8,27.7z M105.7,64.9c0.3-0.2,0.6-0.4,0.9-0.8c0.3-0.4,0.7-0.7,1.2-0.8c-0.2-0.3-0.4-0.4-0.7-0.3
	c-0.3,0.1-0.5,0-0.5-0.3c0-0.3,0.1-0.6,0.2-0.9c0.2-0.3,0.2-0.6,0-0.9c-0.8,0.3-1.4,0.3-2-0.1c-0.5-0.4-1.2-0.6-2-0.6
	c0,0.6,0.5,1.2,1.4,1.8c0.3,0,0.5-0.1,0.5-0.3c0-0.2,0.2-0.2,0.5,0.1c0.5,0.3,0.7,0.7,0.8,1.3c0.1,0.5-0.1,1-0.6,1.3
	c-0.3,0.2-0.5,0.4-0.5,0.7C105,65.2,105.3,65.2,105.7,64.9z M103.4,42.2c-0.3,1.1,0,1.5,0.9,1.4C104.4,42.7,104,42.2,103.4,42.2z
	 M103.4,54.5c0.3,0.8,0.8,0.9,1.4,0.5c0-0.3-0.2-0.5-0.6-0.7C103.9,54.1,103.6,54.2,103.4,54.5z M103.4,81.5
	c0.3,0.3,0.5,0.2,0.5-0.2c0-0.5-0.2-0.5-0.5-0.2V81.5z M104.8,35.1c0.9,0.2,1.2-0.2,0.9-1c-0.3-0.8-0.8-1-1.4-0.3
	c-0.2,0.3,0,0.5,0.3,0.7C105.1,34.6,105.1,34.8,104.8,35.1z M104.6,66.7c0.3,0,0.5-0.2,0.5-0.6c0-0.4-0.2-0.5-0.5-0.3V66.7z
	 M104.8,46.2c0.6,0,0.9-0.3,0.9-0.9C105.1,45.2,104.8,45.6,104.8,46.2z M105.5,47.6c0-0.5-0.2-0.7-0.7-0.7
	C104.8,47.3,105,47.6,105.5,47.6z M105,70.9c0.3,0.3,0.5,0.3,0.5-0.1C105.5,70.4,105.4,70.4,105,70.9z M106,21.5
	c0.2-0.3,0.1-0.5-0.1-0.6c-0.2-0.1-0.4,0-0.6,0.3c0.3,0,0.5,0,0.5,0.1C105.7,21.4,105.8,21.5,106,21.5z M106.9,60.3
	c0.2-0.3,0.4-0.6,0.8-0.9c0.4-0.3,0.2-0.7-0.6-1.2c-1.2-0.6-1.7-0.5-1.3,0.3C106.2,59.4,106.6,59.9,106.9,60.3z M111,54
	c0.2,0.5,0.4,0.6,0.7,0.5c0.3-0.2,0.4-0.4,0.2-0.7c-0.6-0.8-0.7-1.2-0.2-1.2c0.5,0,0.7-0.4,0.7-1.2c-0.9,0.6-1.8,0.8-2.7,0.6
	c-0.8-0.2-1.8-0.3-2.9-0.3c0.2,0.3,0.1,0.5-0.2,0.6c-0.3,0.1-0.4,0.3-0.2,0.6c0.2,0.2,0.4,0.1,0.7-0.2c0,0.2-0.1,0.5-0.2,0.9
	c-0.2,0.5-0.2,0.8,0,0.9c0.8,0.2,1.2,0,1.3-0.5c0.1-0.5,0.3-0.9,0.6-1.4c0,0.5,0.2,0.7,0.5,0.7c0.3,0,0.6-0.1,0.9-0.2
	c0.5-0.3,0.7-0.3,0.7,0C110.8,53.4,110.9,53.7,111,54z M107.4,29.8c-0.2,0.3-0.2,0.6-0.2,0.9c0,0.3-0.2,0.6-0.5,0.9l0.5,0.5
	c0.3,0.3,0.5,0.2,0.7-0.5c0.2-0.6,0.3-1.1,0.5-1.4c-0.3,0-0.5-0.1-0.5-0.2C107.8,29.9,107.7,29.8,107.4,29.8z M106.7,50.3
	c0,0.5,0.2,0.7,0.5,0.6c0.3-0.1,0.5-0.3,0.5-0.6C107.3,50,107,50,106.7,50.3z M107.1,67.2c-0.3,0-0.5,0.1-0.5,0.2
	c0,0.2,0,0.2,0.1,0.2c0.1,0,0.1,0.1,0.1,0.2C107,67.7,107.1,67.5,107.1,67.2z M107.4,68.3c-0.2,0.5-0.1,0.7,0.2,0.6
	c0.3-0.1,0.5,0,0.5,0.3c0,0.2,0.1,0.5,0.2,1.2c0.2,0.6,0.4,0.5,0.7-0.2c0.2-0.3,0-0.7-0.3-1.2C108.2,68.6,107.8,68.3,107.4,68.3z
	 M107.6,56.6c-0.2,0.8,0,1.2,0.5,1.3c0.5,0.1,0.8-0.1,0.9-0.6C108.4,56.6,107.9,56.4,107.6,56.6z M109.2,34.6
	c-0.8,0-1.2,0.3-1.2,0.9c0,0.6-0.2,1.3-0.5,2.1c1.2,0,1.7-0.3,1.3-1C108.5,35.9,108.6,35.2,109.2,34.6z M107.8,49.6
	c0.8,0,1-0.2,0.6-0.6C108,48.7,107.8,48.9,107.8,49.6z M110.8,45.5c-0.2-0.8-0.5-1-1.2-0.8c-0.6,0.2-1.1,0.4-1.4,0.6
	c0,0.6-0.1,1-0.2,1.2c0.3,0.2,0.6-0.1,0.9-0.7c0.3-0.3,0.6-0.3,0.9-0.1C110.2,45.8,110.5,45.8,110.8,45.5z M108.5,63.5
	c0,0.5,0.2,0.7,0.5,0.7C109.3,63.4,109.1,63.2,108.5,63.5z M108.7,60.7c0,0.3,0.2,0.5,0.5,0.5C109.5,60.6,109.4,60.4,108.7,60.7z
	 M110.4,71.3c0.5-0.5,0.3-0.7-0.5-0.7c-0.8,0-1,0.2-0.7,0.5c0.5-0.3,0.7-0.3,0.7,0C109.9,71.4,110,71.5,110.4,71.3z M111.3,32.6
	c-0.5-0.6-0.6-1-0.3-1.3c0.2-0.2-0.2-0.3-1.3-0.3c0,0.5,0.2,0.8,0.7,1c0.5,0.2,0.5,0.6,0.2,1c0.3,0.3,0.6,0.5,0.8,0.6
	c0.2,0.1,0.3,0.3,0.1,0.8c0.6,0,0.9-0.2,0.9-0.5c0.3-0.6,0.3-0.9-0.1-0.9C111.9,33,111.6,32.9,111.3,32.6z M109.9,41.1
	c0,0.3,0.2,0.7,0.5,1c0.3,0.4,0.6,0.4,0.9,0.1C111.3,41.5,110.8,41.1,109.9,41.1z M111,37.9c-0.2-1.1-0.3-1.7-0.6-1.7
	c-0.2-0.1-0.4,0-0.5,0.2c-0.1,0.2-0.1,0.5,0,0.9C110.1,37.7,110.4,37.9,111,37.9z M110.6,60.7c0.8,0,1-0.2,0.6-0.6
	C110.8,59.8,110.6,59.9,110.6,60.7z M111.5,46.9c-0.2-0.3-0.3-0.3-0.5,0.1c-0.2,0.4,0,0.5,0.5,0.3V46.9z M111.5,27.7
	c-0.2,0.2-0.2,0.4-0.2,0.7c0,0.3,0.2,0.5,0.5,0.5c0-0.3,0.1-0.4,0.3-0.3c0.2,0.1,0.3,0,0.3-0.3c-0.3,0-0.5-0.1-0.5-0.2
	C112,27.8,111.8,27.7,111.5,27.7z M112.4,61.4c-0.3-0.3-0.6-0.3-0.8,0.1c-0.2,0.4-0.2,0.7,0.1,1C112.7,62.6,112.9,62.2,112.4,61.4z
	 M112,73.2c0.8,0,1.2-0.2,1.3-0.5c0.1-0.3,0-0.5-0.2-0.7c-0.2-0.2-0.5-0.2-0.8-0.1C111.9,72,111.8,72.4,112,73.2z M114,36.7
	c0.3-0.3,0.3-0.5,0.1-0.6c-0.2-0.1-0.5-0.2-0.8-0.3c-0.3-0.3-0.4-0.6-0.2-0.8c0.2-0.2-0.1-0.3-0.7-0.3c-0.2,0.3-0.2,0.7-0.1,1.2
	c0.1,0.5,0,0.8-0.3,1.2c0.3,0.3,0.5,0.7,0.5,1c0,0.4,0.2,0.4,0.7,0.1c0.3-0.2,0.4-0.4,0.3-0.7c-0.1-0.3-0.1-0.5-0.1-0.7
	C113.5,37,113.7,37,114,36.7z M113.1,29.1c0.3-0.3,0.3-0.5-0.1-0.6c-0.4-0.1-0.6,0-0.6,0.3h0.2C112.8,28.9,113,28.9,113.1,29.1z
	 M112.4,66.5c0.5,0.3,0.8,0.1,1.2-0.6c0.3-0.7,0.2-1.2-0.2-1.5C112.7,65,112.4,65.7,112.4,66.5z M112.9,44.3c-0.3,0.3-0.3,0.5,0,0.5
	C113.2,44.8,113.2,44.6,112.9,44.3z M112.7,53.1c0.3,0.2,0.7,0.1,1.2-0.1c0.5-0.2,0.8-0.5,0.9-0.8C113.4,52.2,112.7,52.5,112.7,53.1
	z M113.1,30.9c0.5,0,0.6-0.1,0.3-0.3C113.2,30.4,113.1,30.5,113.1,30.9z M114.5,69c-0.3-0.2-0.6-0.1-0.9,0.2
	C114.2,69.9,114.5,69.8,114.5,69z M117.5,43.4c-0.5,0.2-0.7,0.1-0.8-0.2c-0.1-0.3-0.4-0.1-1,0.7c-0.8-0.2-1-0.5-0.8-1
	c0.2-0.5-0.1-0.8-1-0.8c-0.2,0.3-0.2,0.5,0,0.7c0.2,0.2,0.3,0.4,0.5,0.7c0.3,0.3,0.3,0.5-0.1,0.6c-0.4,0.1-0.5,0.3-0.3,0.6
	c0.5,0,0.8,0.1,1.2,0.2c0.3,0.2,0.6,0.4,0.9,0.7c0.8,0.3,1.1,0.1,1-0.6C116.9,44.2,117,43.7,117.5,43.4z M115.2,74.8
	c0-0.6-0.2-0.8-0.5-0.6c-0.3,0.2-0.5,0.5-0.7,0.8c0.3-0.2,0.5-0.2,0.7,0C114.9,75.2,115,75.1,115.2,74.8z M114.5,76.2
	c-0.3,0.5-0.2,0.6,0.2,0.5C115.2,76.5,115.1,76.3,114.5,76.2z M114.7,72.5c0.8,0.2,1-0.4,0.7-1.7c-0.3-1.3-0.5-1.9-0.7-1.7
	c-0.3,0.6-0.3,1.2,0,1.7C115,71.3,115,71.9,114.7,72.5z M114.7,41.1c-0.2,0.3-0.1,0.5,0.1,0.6c0.2,0.1,0.4,0,0.6-0.3
	C115.1,41.3,114.9,41.2,114.7,41.1z M117,49.2c0.6,0,1-0.2,1.2-0.7c0.2-0.5-0.2-0.8-0.9-0.9c-1.5-0.2-2.2,0.5-2.1,2.1
	c0.5,0.2,0.8,0,0.9-0.5c0.2-0.5,0.5-0.8,0.9-0.9c0.2,0.3,0.2,0.5,0.1,0.5C117.1,48.7,117,48.9,117,49.2z M115.2,56.8
	c0.2,1.1,0.8,1.4,1.8,1c1.1-0.4,1.3-1,0.7-1.7c-0.6,0-1,0.2-1.2,0.6C116.4,57.1,116,57.1,115.2,56.8z M116.1,55.4
	c0-0.3,0.1-0.4,0.3-0.3c0.2,0.1,0.3,0,0.3-0.3c-0.3-0.3-0.6-0.3-0.9,0C115.6,55,115.7,55.3,116.1,55.4z M115.9,79.4
	c-0.2,0.3-0.1,0.5,0.2,0.6c0.3,0.1,0.5,0,0.5-0.3c-0.3,0-0.4-0.1-0.3-0.2C116.3,79.3,116.2,79.3,115.9,79.4z M116.1,52.6
	c0.3,0.2,0.5,0.3,0.6,0.5c0.1,0.2,0.3,0.2,0.6,0.2c0.2-0.3,0-0.6-0.3-0.8C116.5,52.3,116.3,52.3,116.1,52.6z M116.8,67.9
	c0.2,0,0.2-0.2,0.1-0.5c-0.1-0.3-0.2-0.3-0.3,0C116.6,67.7,116.7,67.9,116.8,67.9z M117.5,69.7c0.2-0.2,0.1-0.4-0.2-0.7
	c-0.2-0.2-0.4-0.2-0.7-0.2c0,0.5,0.1,0.8,0.2,0.9H117.5z M117,67c0.3-0.3,0.8-0.4,1.6-0.2c0.8,0.2,1.2-0.1,1.4-0.7
	c-0.5-0.2-0.9-0.3-1.3-0.3c-0.4-0.1-0.4-0.5-0.1-1.3c-0.3,0-0.7,0.3-1.3,0.9C116.9,66,116.7,66.5,117,67z M117,54.5
	c0,0.6,0.1,0.8,0.3,0.5c0.2-0.3,0.5-0.3,0.8,0c0-0.2-0.1-0.4-0.3-0.8C117.6,53.8,117.4,53.9,117,54.5z M117.7,51.9
	c0.2,0.2,0.3,0.2,0.6,0.2c0.2,0,0.3-0.2,0.3-0.5C118.4,51.4,118,51.5,117.7,51.9z M119.4,78c0-0.3-0.2-0.5-0.5-0.6
	c-0.3-0.1-0.4-0.3-0.2-0.6c0.3-0.2,0.5-0.1,0.6,0.1c0.1,0.2,0.3,0.3,0.6,0.3c0.5-0.5,0.3-0.9-0.3-1.3c-0.7-0.4-1.2,0-1.5,1.3
	c0.2,0.2,0.3,0.4,0.6,0.7C118.8,78.3,119,78.3,119.4,78z M118.9,42c-0.5,0.3-0.7,0.6-0.7,0.9c0.3,0,0.6-0.2,0.8-0.5
	C119.2,42.2,119.2,42,118.9,42z M120.5,60c-0.9-0.3-1.7-0.5-2.3-0.5c0,0.6,0.2,1,0.7,1c0.5,0.1,0.8,0.4,0.9,1c0.5,0,0.7-0.2,0.7-0.6
	C120.5,60.7,120.5,60.3,120.5,60z M118.4,39.9c0,0.5,0.1,0.8,0.2,0.9c0.2,0.2,0.4,0.4,0.7,0.7c0.3-0.6,0.5-1,0.5-1.2
	C119.5,40.4,119,40.3,118.4,39.9z M119.8,56.6c-0.3,0-0.8,0.3-1.4,0.9c0.3,0.3,0.5,0.6,0.5,0.9C119.5,58.4,119.8,57.8,119.8,56.6z
	 M119.4,37.9c0.6,0,0.8-0.1,0.5-0.3C119.5,37.3,119.4,37.4,119.4,37.9z M119.4,50.8c0.5,0,0.6-0.1,0.3-0.3
	C119.5,50.2,119.4,50.3,119.4,50.8z M119.6,85.2c-0.2,0.2-0.2,0.3-0.1,0.5c0.1,0.2,0.3,0.2,0.6,0C120.1,85.3,119.9,85.2,119.6,85.2z
	 M120.5,46.2c0,0.3-0.2,0.4-0.5,0.3c-0.3-0.1-0.5,0.2-0.5,0.8c0.3,0.2,0.6,0,0.9-0.6C120.8,46.2,120.8,46,120.5,46.2z M120.5,49.6
	c-0.2-0.5-0.2-0.7,0-0.8c0.2-0.1-0.2-0.1-0.9-0.1C119.7,49.3,120.1,49.6,120.5,49.6z M121.4,68.1c0-0.5-0.3-0.8-0.9-0.9
	c-0.6-0.2-0.8,0.2-0.7,0.9H121.4z M121,63.9c-0.3,0-0.5,0-0.7-0.1c-0.2-0.1-0.3,0-0.5,0.3C120.3,64.6,120.7,64.6,121,63.9z
	 M121.2,57.5c-0.3-0.3-0.6-0.1-0.9,0.6c-0.3,0.7-0.1,1.1,0.7,1.3c0.2-0.3,0.3-0.6,0.6-0.9C121.8,58.1,121.7,57.8,121.2,57.5z
	 M120.3,71.1c0.5,0,0.6-0.1,0.3-0.3C120.4,70.5,120.3,70.6,120.3,71.1z M122.1,74.1c0.2,0.5,0.5,0.7,1.2,0.6
	c0.6-0.1,0.9-0.3,0.9-0.6c-0.5-0.3-0.9-0.5-1.3-0.7c-0.4-0.2-0.9-0.2-1.5-0.2c0.2,0.3,0.1,0.6-0.2,0.8c-0.3,0.2-0.3,0.4,0,0.6
	c0-0.3,0.2-0.4,0.5-0.2C122,74.5,122.1,74.4,122.1,74.1z M121.2,75.7c0.5,0,0.7-0.1,0.7-0.3c0-0.2-0.1-0.4-0.2-0.5
	c-0.2-0.1-0.3-0.1-0.3,0C121.2,75,121.2,75.3,121.2,75.7z M121.4,49.2c0.5,0.2,0.7,0,0.6-0.5c-0.1-0.5-0.3-0.7-0.6-0.7V49.2z
	 M121.9,66c0-0.3,0.1-0.5,0.3-0.5c0.2,0,0.3-0.2,0.1-0.5c-0.3-0.3-0.5-0.4-0.7-0.2c-0.2,0.2-0.2,0.4-0.2,0.7L121.9,66z M121.9,53.8
	c0.3-0.2,0.5-0.3,0.7-0.5c0.3-0.3,0-0.5-0.9-0.5C121.7,53.3,121.7,53.6,121.9,53.8z M122.1,45.7c0.3,0.2,0.5,0,0.5-0.3
	c0-0.4-0.2-0.5-0.5-0.3V45.7z M122.6,66.7c0,0.9,0.3,1.4,0.9,1.4c0.2-0.3,0.2-0.7,0.1-1.2C123.5,66.5,123.2,66.4,122.6,66.7z
	 M124.2,52.4c0-0.9-0.5-1.2-1.4-0.9c0.3,0.3,0.5,0.7,0.6,1.2c0.1,0.5,0.3,0.8,0.8,0.9C124.5,53.1,124.5,52.7,124.2,52.4z
	 M124.9,59.6c0-0.8-0.3-1.2-0.9-1.3c-0.6-0.1-1,0.2-1.2,0.8c0.3,0.2,0.7,0.2,1,0.1C124.2,59.1,124.6,59.3,124.9,59.6z M123.1,68.6
	c-0.2,0.6,0.1,0.9,0.7,0.9C123.7,68.7,123.5,68.4,123.1,68.6z M123.7,46.2c-0.5,0-0.6,0.1-0.5,0.2C123.6,46.4,123.7,46.3,123.7,46.2
	z M123.7,49.2l-0.2-0.2c-0.2,0.2-0.2,0.3-0.2,0.5l0.5,0.2V49.2z M124.2,78c0.5,0,0.6-0.1,0.3-0.3C124.3,77.5,124.2,77.6,124.2,78z
	 M125.6,46.9c-0.5-0.2-0.8-0.2-1.2,0c0,0.5,0.2,0.7,0.6,0.6C125.4,47.4,125.6,47.2,125.6,46.9z M124.4,74.1c0.3-0.2,0.8-0.1,1.4,0.2
	c0-0.8-0.1-1-0.3-0.8c-0.2,0.2-0.5,0.2-0.8-0.1c0,0.2,0,0.3-0.1,0.3C124.5,73.8,124.4,74,124.4,74.1z M124.7,67.2
	c0.3,0.2,0.7,0,1-0.3c0.4-0.4,0.3-0.7-0.1-0.8c-0.2,0.2-0.3,0.3-0.6,0.5C124.8,66.6,124.7,66.9,124.7,67.2z M126.1,75.7
	c-0.2,0.3-0.1,0.5,0.2,0.6c0.3,0.1,0.5,0,0.5-0.3c-0.2,0-0.2,0-0.2-0.1C126.5,75.8,126.4,75.7,126.1,75.7z M126.1,46.2
	c0.3,0.2,0.5,0.1,0.7-0.2c0.2-0.3,0.1-0.5-0.2-0.5C126.5,45.6,126.4,45.9,126.1,46.2z M126.5,36.2c0-0.2,0.1-0.2,0.2-0.1
	c0.2,0.1,0.2,0,0.2-0.3c-0.3-0.2-0.5-0.1-0.7,0.2C126.1,36.3,126.2,36.4,126.5,36.2z M126.3,76.6c0.3,0.5,0.5,0.5,0.5,0.1
	C126.7,76.4,126.6,76.3,126.3,76.6z M127,52.9c0.3,0.2,0.5,0,0.7-0.5c0.2-0.5,0.1-0.8-0.2-0.9c-0.2,0.3-0.2,0.5-0.2,0.7
	C127.2,52.3,127.1,52.6,127,52.9z M127.2,45c0,0.3,0.1,0.5,0.2,0.7c0-0.3,0.1-0.5,0.2-0.5c-0.2,0.3-0.2,0.4,0,0.3
	c0.2-0.1,0.3,0,0.5,0.3C128.1,45.3,127.8,45,127.2,45z M127.7,75.3c0.8,0.3,1.2,0.1,1.2-0.7c-0.3-0.3-0.7-0.4-1-0.2
	C127.4,74.5,127.4,74.8,127.7,75.3z M128.8,64.9c0-0.2,0-0.3-0.1-0.5c-0.1-0.2-0.1-0.1-0.1,0.2c0,0.2,0,0.3,0.1,0.5
	C128.8,65.3,128.8,65.2,128.8,64.9z M129.1,70.6c-0.2,0.3,0,0.4,0.3,0.2c0.4-0.2,0.5-0.3,0.3-0.5C129.3,70,129.1,70,129.1,70.6z
	 M130.4,63.5c-0.3,0.2-0.6,0.2-0.9,0.2c-0.3,0-0.5,0.2-0.5,0.7c0.3-0.2,0.7-0.2,1-0.2C130.5,64.2,130.6,63.9,130.4,63.5z
	 M129.7,91.2c0.3,0,0.6-0.2,0.8-0.6c0.2-0.4,0-0.6-0.8-0.6c0.2,0.3,0.2,0.5,0,0.6C129.6,90.7,129.6,90.9,129.7,91.2z M130.9,57.3
	c-0.6-0.2-1,0-1,0.6c-0.1,0.5-0.1,1-0.1,1.5c0.6,0,0.9-0.2,0.9-0.7S130.7,57.7,130.9,57.3z M130.7,71.8c0-0.3,0-0.5,0.1-0.5
	c0.1,0,0.1-0.1,0.1-0.2c-0.3-0.2-0.5-0.1-0.6,0.1C130.2,71.5,130.4,71.6,130.7,71.8z M130.7,68.8c0.6,0,0.9-0.1,0.9-0.3
	c0-0.2-0.1-0.4-0.3-0.5c-0.2-0.1-0.4-0.1-0.6,0C130.5,68.1,130.5,68.3,130.7,68.8z M130.9,34.6c-0.2,0.5,0,0.6,0.3,0.5
	c0.4-0.2,0.5-0.4,0.3-0.7h-0.5C131,34.4,130.9,34.5,130.9,34.6z M133,32.8c-0.2,0-0.3,0-0.3,0.1c-0.1,0.1-0.3,0.1-0.6,0.1
	c0.2,0.2,0.2,0.4,0.2,0.7C133.1,33.7,133.3,33.4,133,32.8z M133,63.7c0-0.6-0.3-0.9-0.9-0.9c0.2,0.2,0.2,0.4,0.2,0.7
	C132.3,63.8,132.5,63.9,133,63.7z M132.3,109.7c-0.2,0.5,0,0.7,0.3,0.8c0.4,0.1,0.7,0,0.8-0.3c-0.3-0.2-0.5-0.3-0.6-0.5
	C132.8,109.5,132.6,109.5,132.3,109.7z M133.2,73.4c0.3-0.6,0.1-0.8-0.7-0.5C132.5,73.3,132.7,73.4,133.2,73.4z M132.5,79.2
	c0.6-0.3,1-0.3,1,0.1c0.1,0.4,0.3,0.6,0.6,0.6c-0.2-0.3-0.2-0.6-0.2-0.9c0-0.3-0.2-0.6-0.5-0.9C133.3,78.3,133,78.7,132.5,79.2z
	 M134.1,62.8c-0.5,0-0.7,0.2-0.7,0.5C133.7,63.3,134,63.1,134.1,62.8z M133.9,96.3c-0.5,0.6-0.4,0.8,0.1,0.7
	C134.6,96.8,134.5,96.6,133.9,96.3z M133.9,68.6c0.8,0,1.2-0.5,1.2-1.6c-0.3-0.2-0.7,0-1,0.3C133.6,67.7,133.6,68.1,133.9,68.6z
	 M135.1,69.7c-0.2,0.5,0.1,0.8,0.7,1c0.6,0.2,0.9,0.1,0.9-0.3C136.4,70,135.8,69.7,135.1,69.7z M136.2,59.6c-0.3-0.3-0.5-0.3-0.7,0
	c-0.2,0.3-0.2,0.6-0.2,0.9C135.6,60.5,135.9,60.2,136.2,59.6z M137.1,49.6c-0.2,0.9,0,1.2,0.5,0.8C138.1,50.1,137.9,49.8,137.1,49.6
	z M137.8,58.6c0.6,0.5,1,0.5,1.2,0.2c0.2-0.3,0.2-0.6,0-0.9c-0.2-0.3-0.3-0.5-0.6-0.5C138.2,57.5,138,57.9,137.8,58.6z M138.3,69.3
	c0.3,0.3,0.5,0.2,0.5-0.2c0-0.5-0.2-0.5-0.5-0.2V69.3z M138.5,72.7c0.6,0,0.8-0.1,0.5-0.3C138.7,72.1,138.5,72.3,138.5,72.7z
	 M140.1,67.4c0.3,0.2,0.5,0,0.5-0.3c0-0.4-0.2-0.5-0.5-0.3V67.4z"/>
</svg>
