<?xml version="1.0" encoding="utf-8"?>
<!-- Generator: Adobe Illustrator 18.0.0, SVG Export Plug-In . SVG Version: 6.00 Build 0)  -->
<!DOCTYPE svg PUBLIC "-//W3C//DTD SVG 1.1//EN" "http://www.w3.org/Graphics/SVG/1.1/DTD/svg11.dtd">
<svg version="1.1" id="Layer_1" xmlns="http://www.w3.org/2000/svg" xmlns:xlink="http://www.w3.org/1999/xlink" x="0px" y="0px"
	 viewBox="0 0 158.6 170.6" enable-background="new 0 0 158.6 170.6" xml:space="preserve">
<path d="M158,142.3c0.8,0.9,0.8,2.2,0.2,3.9c-0.6,1.7-1.2,3.1-1.8,4.2c-0.6,1.1-1.2,2-1.8,2.9c-0.6,0.8-1,1.9-1.2,3.1
	c-0.2,0.5-0.3,1-0.3,1.5c-0.1,0.5-0.3,1-0.6,1.3c-0.6,0.9-0.8,0.9-0.7,0c0.2-0.9,0.2-1.5,0.2-1.6c-0.6,0-1,0.2-1.3,0.7
	c-0.2,0.5-0.5,0.8-0.8,1.2c-0.5,0.3-0.5,0.6-0.1,0.9c0.4,0.3,0.5,0.6,0.3,0.9c0.2-0.2,0.5-0.3,1-0.5c0.5-0.2,0.9-0.1,1,0.2
	c0,0.3-0.3,0.6-0.9,0.9c-0.3,0.2-0.5,0.5-0.5,1.2c0,0.6-0.2,1.1-0.5,1.4c-1.2,1.4-2.5,2.6-3.7,3.6c-1.2,1-2.7,1.7-4.4,2.2
	c-1.7,0.5-3.5,0.5-5.5,0.1c-2-0.4-3.8-1-5.3-2c-1.2-0.8-2.4-2-3.5-3.6c-1.1-1.6-1.6-3.2-1.6-4.7c0,0.2,0.5,0.4,1.4,0.8
	c0.9,0.4,1.5,0.6,1.6,0.6c-0.2-0.5-0.6-0.9-1.3-1.3c-0.7-0.4-1.2-0.7-1.5-0.8c-0.8-0.3-1.2-1-1.3-2.2c-0.1-1.2-0.1-2.1-0.1-2.9
	c-0.2-1.5-1-2.8-2.5-3.9c-0.8-0.5-1.5-0.7-2.1-0.8c-0.6-0.1-1.3-0.3-2.1-0.6c-0.9-0.3-1.9-0.7-2.9-1.3c-1-0.5-2-1-2.9-1.5
	c-0.8-0.6-1.5-1-2.3-1c-0.8-0.1-1.5-0.3-2.3-0.6c-1.2-0.6-2.1-1.2-2.5-1.6c-0.5,0-0.9,0-1.3-0.1c-0.4-0.1-0.8-0.2-1.3-0.3
	c-0.8-0.3-1.5-0.7-2.2-1.2s-1.4-0.8-2.2-0.9c-1.1-0.2-1.9-0.4-2.4-0.7c-0.5-0.3-1.2-0.8-2-1.4c-0.9-0.5-1.9-0.7-3-0.8
	c-1.1-0.1-2.1-0.3-3-0.6c-0.8-0.3-1.5-0.7-2.1-1c-0.6-0.4-1.3-0.7-2.1-1c-1.4-0.6-2.9-0.9-4.6-0.9c-2.2-0.3-4.2,0-6.1,1
	c-1.9,1-3.8,1.9-5.7,2.7c-1.1,0.5-2.2,0.9-3.2,1.3c-1.1,0.4-2.2,0.8-3.2,1.3c-0.8,0.3-1.2,0.4-1.2,0.2c0-0.2-0.3-0.4-0.9-0.7
	c-0.2-0.5,0-0.8,0.3-0.9c0.4-0.2,0.5-0.4,0.3-0.7c-0.8,0-1.4,0.5-1.8,1.6c0.2,0.3,0.5,0.5,0.9,0.5s0.6,0.2,0.5,0.7
	c-1.1,0.5-2.2,1.1-3.2,1.8c-0.8,0.3-1.5,0.5-2.2,0.7c-0.7,0.2-1.4,0.4-2.2,0.7c-1.5,0.6-3,1.3-4.4,2c-1.4,0.7-2.8,1.3-4.4,1.7
	c-1.2,0.5-2.5,0.9-3.9,1.4c-1.4,0.5-2.6,1.2-3.7,2.1c-0.9,0.8-1.4,1.6-1.5,2.5c-0.1,0.9-0.1,1.9-0.1,3c0,1.2-0.2,2.2-0.7,2.8
	c-0.3,0.6-0.3,1-0.1,1.3c0.2,0.2,0.2,0.7-0.1,1.3c-0.3,0.5-0.9,1.3-1.8,2.4c-0.9,1.2-2,2.2-3.1,3.2c-1.2,1-2.3,1.7-3.3,2.2
	c-1.1,0.5-1.8,0.3-2.3-0.5c-0.8,0-1.1,0.2-0.9,0.5c0.2,0.3-0.2,0.5-0.9,0.5c-1.4,0-2.4-0.1-3-0.2c-2-0.5-3.7-1.3-5.1-2.5
	c-1.4-0.8-2.8-2-4.2-3.7c-0.3-0.3-0.6-0.6-0.9-0.9c-0.3-0.3-0.4-0.7-0.2-1.2c0.3-0.8,0.3-1.1,0-0.9c-0.3,0.2-0.5-0.1-0.7-0.7
	c0.5-1.5,0.2-3.1-0.9-4.6c-0.2-0.3-0.3-1-0.6-2c-0.2-1-0.5-1.5-0.8-1.5c-0.8-0.2-1.4-0.7-1.8-1.7c-0.5-1-0.8-2.1-1-3.2
	c-0.2-1.2-0.4-2.3-0.5-3.5c-0.1-1.2,0-2,0.1-2.7c0.2-0.9,0.4-1.8,0.7-2.7c0.3-0.8,0.6-1.7,0.9-2.4c0.5-1.1,0.9-1.8,1.3-2.3
	c0.4-0.5,1-1,2-1.6c0.8-0.6,1.6-1.2,2.4-1.6c0.8-0.5,1.8-0.8,2.9-1.2c1.2-0.3,2.3-0.4,3.3-0.2c1,0.2,2.1,0.3,3.3,0.5
	c1.1,0.2,1.6,0.5,1.5,0.9c-0.1,0.5-0.3,1-0.6,1.6c-0.3,0.5-0.3,0.7,0.1,0.7c0.4,0,0.7-0.1,0.8-0.2c0.3-0.3,0.5-0.6,0.7-0.8
	c0.2-0.2,0.4-0.5,0.7-0.8c1.5,0.2,2.9,1,4,2.7c1.2,1.6,2.6,2.5,4.3,2.7c1.7,0.2,3.5-0.2,5.4-1.2c1.9-0.9,3.6-1.8,5-2.5
	c0.5-0.3,0.8-0.4,0.9-0.3c0.2,0.1,0.5,0.2,1.2,0.3c0.3-0.6,0.8-1.1,1.6-1.4c0.5-0.3,1.3-0.6,2.5-0.9c0.8-0.2,1.3-0.3,1.7-0.6
	c0.4-0.2,1-0.5,1.7-0.8c0.8-0.3,2-0.8,3.6-1.4c1.6-0.6,2.6-1.4,2.9-2.3c0.2-0.5-0.1-1-0.7-1.5c-0.6-0.5-1.4-1-2.3-1.5
	c-0.9-0.5-1.8-0.9-2.7-1.3c-0.8-0.4-1.4-0.6-1.7-0.6c-0.8,0-1.5-0.2-2.1-0.7c-0.6-0.5-1.3-0.8-2.1-1.2c-0.3-0.2-0.7-0.2-1.2-0.1
	c-0.5,0.1-0.9,0-1.4-0.3c-0.5-0.2-0.9-0.3-1.4-0.6c-0.5-0.2-0.9-0.5-1.4-0.8c-1.7-0.6-3.5-1.4-5.5-2.3c-2-0.9-3.9-1.1-5.8-0.5
	c-0.8,0.3-1.4,0.8-1.8,1.6c-0.5,0.8-1.1,1.5-1.8,2.1c-0.6,0.5-1.3,0.9-2.2,1.3c-0.8,0.4-1.7,0.7-2.4,1c-2,0.8-4.2,1-6.6,0.8
	c-2.4-0.2-4.4-1-6.1-2.4c-2-1.7-3.8-3.9-5.3-6.6c-1.5-2.7-1.6-5.4-0.2-8.2c0.3-0.6,0.5-1.2,0.5-1.6s0.2-0.9,0.5-1.4
	c0.3-0.5,0.6-0.8,0.9-1.2c0.3-0.3,0.6-0.7,0.9-1.2C4.5,97,5,95.8,5.1,94.7c0.2-1.1,0.4-2.4,0.7-3.9c0.2-1.2,0.6-2.4,1.4-3.6
	c0.8-1.2,1.6-2.2,2.5-3.1c1.1-1.2,2-2.1,2.8-2.5c0.8-0.5,1.9-1,3.5-1.6c1.1-0.5,2.2-0.6,3.2-0.5c0.8,0.3,1.5,0.3,2.1,0
	c0.6-0.3,1.2-0.3,1.8,0c0.6,0.3,0.8,0.7,0.5,1.2c0.8-0.3,1.5-0.3,2.3,0c0.5,0.2,0.9,0.4,1.4,0.7c0.5,0.3,0.6,0.8,0.5,1.4
	c1.2,0,2.1,0.4,2.5,1.2c0,0.5-0.2,0.7-0.6,0.8c-0.4,0.1-0.6,0.3-0.6,0.6c0.5,0.3,0.8,0.3,1,0c0.2-0.3,0.6-0.5,1-0.5
	c0.5,0.5,0.6,1,0.3,1.6c-0.2,0.6-0.4,1.1-0.6,1.4c0.2,0.5,0.5,0.7,0.9,0.7c0.6-0.5,0.9-0.3,0.9,0.5c0.6,1.1,0.9,2.2,0.9,3.5
	c0,1.5,0.1,2.9,0.2,4c0.2,1.2,0.9,2.1,2.3,2.9c1.1,0.8,2.2,1.2,3.3,1.4c1.2,0.2,2.3,0.5,3.3,1.2c1.2,0.8,2.4,1.2,3.5,1.4
	c1.1,0.2,2.2,0.6,3.5,1.4c0.5,0.3,0.9,0.5,1.3,0.5c0.4,0,0.8,0.2,1.3,0.5c0.8,0.2,1.3,0.4,1.7,0.8c0.4,0.4,0.9,0.8,1.5,1.3
	c1.2,0,2.2,0.3,2.8,0.9c0.9,0,1.7,0.2,2.3,0.6c0.6,0.4,1.3,0.7,2.1,1c0.8,0,1.6,0.5,2.5,1.4c0.5,0.3,1,0.5,1.5,0.5
	c0.5,0,1.1,0.1,1.7,0.2c1.2,0.3,2.3,0.7,3.3,1.3c1,0.5,2,1,3.1,1.5c2.6,1.1,4.8,1.3,6.7,0.7c0.9-0.3,1.5-0.5,1.8-0.7
	c0.3,0.2,0.5,0.2,0.7,0.2c0.2,0,0.4,0.1,0.7,0.2c0.5-0.9,1.1-1.5,2-1.8c0.8-0.3,1.7-0.6,2.4-0.9c0.3-0.2,0.8-0.4,1.6-0.8
	c0.8-0.4,1.6-0.8,2.5-1.2c0.9-0.4,1.8-0.7,2.5-0.9c0.8-0.2,1.2-0.3,1.4-0.1c0.5,0.5,0.7,0.5,0.7,0.2c0-0.3,0.1-0.6,0.2-0.9l4.2-1.4
	c0.6-0.3,1.2-0.6,1.7-0.9c0.5-0.3,1.2-0.6,2-0.9c0.8-0.3,1.2-0.3,1.3,0c0.1,0.3,0.5,0.5,1.3,0.5c0.6-0.2,0.7-0.4,0.2-0.7
	c-0.5-0.3-0.3-0.6,0.5-0.9c0.3,0,0.5-0.1,0.7-0.2c0.2-0.2,0.4-0.3,0.7-0.5c0.5,0.2,0.8,0.4,0.9,0.7c0.2,0.3,0.4,0.5,0.7,0.7
	c0.3-0.3,0.3-0.6,0-0.9c-0.3-0.3-0.4-0.6-0.2-0.9c0.8-0.3,1.5-0.6,2.2-0.8c0.7-0.2,1.4-0.5,2.2-0.8c0.8-0.3,1.5-0.6,2.3-0.9
	c0.8-0.3,1.5-0.6,2.3-0.9c1.2-0.5,1.7-0.5,1.4-0.2c-0.3,0.3-0.2,0.7,0.2,1.2c0.9,0,1.3-0.4,1.3-1.3c-0.1-0.8,0.2-1.4,0.8-1.7
	c0.8-0.3,1-1.3,0.7-3c-0.3-1.7-0.3-2.9,0-3.7c0.3-2.5,1.1-4.5,2.3-6.2c0.5-0.6,0.8-1,1-1.3c0.2-0.2,0.7-0.3,1.5-0.3
	c0.9-0.2,1.5-0.3,1.6-0.3c0.2-0.1,0.2-0.5,0-1.3c0.5,0,0.8-0.2,0.9-0.7c0.2-0.5,0.5-0.6,1.2-0.5c0.3,0,0.7-0.2,1-0.5
	c0.4-0.3,0.8-0.5,1.3-0.7c1.1-0.3,2.3-0.4,3.6-0.3c1.3,0.1,2.2,0.7,2.7,2c0.3,0,0.5-0.2,0.5-0.7c0-0.3,0.2-0.4,0.7-0.3
	c0.5,0.1,0.8,0.1,1.2,0.1c1.1,0.5,1.9,1.2,2.5,2.1c0.6,0.5,1,0.8,1.3,1c0.2,0.2,0.2,0.7-0.1,1.5c0.3,0.2,0.5,0.3,0.6,0.3
	c0.1,0.1,0.3,0.2,0.6,0.3c0.8,0.3,1.1,0.5,1,0.5c-0.1,0,0,0.4,0.3,1.2c0.3,0.6,0.6,1.2,0.9,1.7c0.3,0.5,0.5,1.1,0.5,1.7
	c0.2,0.5,0,1-0.3,1.6c-0.4,0.6-0.2,0.9,0.6,0.9c0.8,0,1.1,0.3,0.9,0.9c-0.2,0.6-0.1,1.2,0.2,1.6c0.3,0.8,0.7,1.5,1.2,2.3
	c0.5,0.8,0,1.2-1.4,1.2c0,0.3,0.2,0.5,0.5,0.6c0.3,0.1,0.6,0.1,0.9,0.1c-0.3,0.6-0.7,1-1,1c-0.4,0.1-0.8,0.2-1.3,0.3
	c-0.8,0.3-1.2,0.3-1.3,0c-0.1-0.3-0.4-0.4-1-0.2c-0.5,0.2-0.7,0.5-0.7,1.2c0,0.6-0.1,1.1-0.2,1.4c0,0.3,0.2,0.4,0.7,0.2
	c0.5-0.2,0.8-0.1,0.9,0.2c0.2-0.5,0.5-0.7,1-0.6c0.5,0.1,0.7,0.3,0.3,0.6c-0.5,0.5-0.8,0.6-0.9,0.3c-0.2-0.2-0.2,0,0,0.8
	c0,0.6-0.2,0.9-0.6,0.9c-0.4,0-0.8-0.1-1.4-0.2c-0.5-0.2-1.1-0.3-1.6-0.6c-0.5-0.2-0.9-0.3-1-0.3c0,0.5,0.3,0.8,0.9,1.2
	c0.6,0.6,0.9,0.8,0.8,0.5c-0.1-0.3,0.3-0.3,1,0c0.5,0.2,0.8,0.3,1,0.3c0.2,0.1,0.6,0,1-0.3c0.3-0.3,0.7-0.6,1.2-0.8
	c0.5-0.2,0.8-0.3,1.2-0.1c0.2,0.3-0.2,0.6-0.9,0.9c-0.3,0.3-0.4,0.6-0.2,0.9c0.2,0.3,0.2,0.6,0.2,0.9c0.5-0.3,1-0.4,1.5-0.3
	c0.5,0.1,1.1,0,1.7-0.3c-0.5-0.6-0.6-1.2-0.3-1.6c0.2-0.5,0.2-0.9-0.1-1.4c-0.3-0.3-0.1-0.5,0.7-0.7c0.8-0.2,0.9-0.5,0.5-0.9
	c0.3-0.3,0.5-0.2,0.7,0.2c0.2,0.5,0.2,0.8,0.2,0.9c0,0.3-0.2,0.6-0.5,0.9c0.3,0.6,0.5,1.2,0.5,1.6c0,0.8,0,1.2-0.1,1.4
	c-0.1,0.2-0.3,0.5-0.6,0.9c-0.2,0.3-0.3,0.7-0.3,1c-0.1,0.4,0,0.7,0.3,0.8c-0.6,0.5-1.1,0.7-1.4,0.7c-0.3,0-0.2,0.2,0.2,0.7
	c0,0.3-0.2,0.7-0.7,1.2c-0.2,0.3-0.2,0.5,0,0.5c0.2,0,0.2,0.2,0.2,0.5c-0.3,0.6-0.7,1.2-1,1.7c-0.4,0.5-0.9,1-1.5,1.5
	c-1.2,1.1-2.6,1.8-4,2.3c-1.5,0.5-3,0.8-4.5,0.9c0-0.5,0.2-0.8,0.5-1.2c-0.8-0.5-1.3-0.6-1.7-0.5c-0.4,0.2-1,0.4-1.7,0.7
	c-2-0.3-3.6-0.8-4.8-1.6c-1.2-0.8-2.3-1.8-3.3-3.2c-1-1.4-2.3-2-3.8-1.8c-0.8,0-1.4-0.1-1.8-0.2c-0.5-0.2-0.8,0.2-1.2,0.9
	c-0.6,0-1,0.2-1.2,0.7c-0.3,0.3-0.7,0.5-1.3,0.7c-0.5,0.2-1,0.3-1.3,0.5c-0.8,0.3-1.7,0.7-2.8,1.2c-1.1,0.5-1.9,0.4-2.5-0.2
	c-1.1-0.9-1.4-1-1-0.2c0.4,0.8,0.6,1.3,0.6,1.6c-1.2,0.3-2.5,0.7-3.7,1.3c-1.2,0.5-2.5,1.1-3.7,1.7c-0.3,0.2-0.8,0.4-1.6,0.8
	c-0.8,0.4-1.3,0.4-1.6,0.1l-0.9-0.5c-0.6-0.3-0.7-0.2-0.2,0.2c0.5,0.5,0.6,0.8,0.3,1c-0.2,0.2-0.6,0.5-1,0.7
	c-0.5,0.2-0.9,0.5-1.3,0.7c-0.4,0.2-0.4,0.7-0.1,1.3c0.2,0.6,0.8,1.1,2.1,1.4c0.6,0.2,1.2,0.4,1.6,0.7c0.5,0.3,1,0.6,1.6,0.9
	c0.6,0.2,1.2,0.3,1.8,0.5c0.6,0.2,1.2,0.4,1.6,0.7c0.6,0.3,1,0.6,1.2,0.8c0.2,0.2,0.6,0.4,1.4,0.6c0.6,0,1.2,0.1,1.6,0.3
	c0.5,0.2,0.9,0.5,1.4,0.8c0.8,0.3,1.5,0.5,2.2,0.7c0.7,0.2,1.4,0.5,2.2,0.9c0.9,0.6,1.9,1.1,2.9,1.4c1,0.3,2,0.7,2.9,1.2
	c1.2,0.5,2.3,0.5,3.2,0c0.9-0.5,1.8-1.1,2.5-1.8c0.8-0.9,1.5-1.8,2.3-2.7c0.8-0.8,1.8-1.4,3-1.7c1.2-0.3,2.7-0.6,4.5-0.9
	c1.8-0.3,3.3-0.2,4.5,0.5c0.6,0.3,1.1,0.5,1.5,0.5c0.4,0,0.9,0.2,1.5,0.7c1.1,0.5,2,1.2,2.8,2.3c0.3,0.3,0.8,0.7,1.4,1
	c0.6,0.4,0.8,0.9,0.7,1.5c0,0.8,0.2,1.2,0.5,1.2c0.3,0,0.6,0.3,0.9,0.9c0.3,0.6,0.3,1-0.1,1c-0.4,0.1-0.7,0.3-1,0.6
	c-0.3,0.3-0.2,0.8,0.5,1.5C157.2,141.5,157.7,142,158,142.3z M5.8,149.2c0.5,0,0.7-0.3,0.6-0.9c-0.1-0.6-0.4-0.8-1-0.7
	c-0.3,0.3-0.4,0.7-0.2,1C5.3,149,5.5,149.2,5.8,149.2z M6.1,140c0.5,0,0.7-0.2,0.8-0.6c0.1-0.4-0.1-0.6-0.6-0.6
	c0,0.2-0.1,0.3-0.2,0.5C5.9,139.5,5.9,139.7,6.1,140z M9.1,103.8c0.2-0.3,0-0.5-0.3-0.6c-0.4-0.1-0.7,0-0.8,0.3
	c0,0.3,0.2,0.5,0.5,0.6C8.7,104.2,8.9,104.1,9.1,103.8z M9.5,137.2c0.3-0.3,0.3-0.7,0.1-1.2c-0.2-0.5-0.7-0.7-1.3-0.7
	C8.4,135.8,8.8,136.5,9.5,137.2z M10.9,101.7c0.3-0.3,0.3-0.6,0-0.9c-0.3-0.3-0.3-0.6,0-0.9c-0.5,0-0.8,0.1-0.9,0.2
	C10,101.1,10.3,101.7,10.9,101.7z M12.3,83.7c0.2,0.2,0.3,0.2,0.6,0.1c0.2-0.1,0.3-0.3,0.1-0.6C12.5,83.2,12.3,83.4,12.3,83.7z
	 M13.9,157.3c0.3,0,0.5-0.1,0.7-0.3c0.2-0.2,0.1-0.4-0.2-0.6c-0.2,0.3-0.3,0.5-0.5,0.5C13.8,156.9,13.8,157,13.9,157.3z M14.1,145.5
	h0.5c0-0.3-0.2-0.5-0.5-0.5V145.5z M14.6,148.5c0.6,0.3,1.2,0.3,1.8,0c0-0.6-0.3-0.8-0.9-0.7C14.9,148,14.6,148.2,14.6,148.5z
	 M16.5,157.8c0.2-0.3,0.4-0.5,0.7-0.6c0.3-0.1,0.2-0.3-0.2-0.6c-0.3-0.2-0.5,0-0.7,0.5C16.1,157.5,16.1,157.8,16.5,157.8z
	 M17.1,158.5c0.2,0.2,0.4,0.2,0.7,0.2c0.3,0,0.5-0.2,0.5-0.5c-0.2-0.2-0.4-0.2-0.7-0.2C17.3,158,17.1,158.2,17.1,158.5z M17.6,146.7
	c0.3,0,0.5-0.2,0.7-0.5c-0.2-0.2-0.4-0.2-0.7-0.2V146.7z M18.5,111.4c0.3-0.8,0.1-1.2-0.7-1.2C17.8,110.8,18.1,111.2,18.5,111.4z
	 M18.8,149.7c0.8,0,0.9-0.2,0.5-0.5C18.8,148.9,18.6,149.1,18.8,149.7z M19.5,147.8c0-0.3-0.2-0.5-0.7-0.5v0.5H19.5z M19.7,112.5
	c0.5,0,0.7-0.1,0.8-0.2c0.1-0.2,0-0.3-0.1-0.3c-0.2-0.1-0.3-0.1-0.6-0.1C19.6,111.8,19.5,112.1,19.7,112.5z M20.4,85.1
	c0.2,0.2,0.3,0.2,0.5,0.2c0.3-0.3,0.2-0.5-0.2-0.5C20.5,84.8,20.4,84.9,20.4,85.1z M22.9,155.5c0.6,0.2,0.9-0.1,0.9-0.7
	C23.2,154.6,22.9,154.9,22.9,155.5z M25,149.2c0,0.6,0.4,1.1,1.2,1.4C26.5,149.7,26.1,149.2,25,149.2z M25,152.9
	c0.6,0.3,1.1,0.5,1.5,0.6c0.4,0.1,0.8-0.3,1.3-1c-0.3-0.3-0.8-0.4-1.4-0.3C25.8,152.2,25.3,152.5,25,152.9z M26.8,88.1
	c0,0.8,0.3,1.1,0.9,0.9C27.8,88.4,27.5,88.1,26.8,88.1z M28.5,86.9c0-0.6-0.1-1-0.2-1.2c-0.2-0.2-0.3-0.1-0.3,0.1
	c-0.1,0.2-0.1,0.5,0,0.7C28,86.8,28.1,86.9,28.5,86.9z M31.5,152.9c0.3-0.8,0.2-1-0.5-0.7C31,152.7,31.1,152.9,31.5,152.9z
	 M31.2,90.4c-0.2,0.5,0,0.7,0.6,0.8c0.5,0.1,0.8,0,0.8-0.3C32.5,90.5,32,90.4,31.2,90.4z M33.3,154.3c0.2-0.6-0.1-0.9-0.7-0.9
	c0,0.3,0.1,0.5,0.2,0.6C33,154,33.2,154.2,33.3,154.3z M32.8,111.4c0.5,0,0.6-0.2,0.3-0.5C33,110.6,32.8,110.8,32.8,111.4z M34.2,50
	c0.2-0.9,0.2-1.9,0.1-2.9c-0.1-1-0.1-2-0.1-2.9c-0.2-0.8-0.1-1.6,0.2-2.5c0-0.6,0.2-1.2,0.7-1.6c-0.3-0.5-0.5-1.1-0.5-1.8
	c0-1.1,0.2-2,0.5-2.9c0.3-0.8,0.6-1.7,0.9-2.4c0.3-0.5,0.8-0.7,1.6-0.8c0.8-0.1,0.6-0.3-0.5-0.8c-0.8-0.3-0.8-0.7,0-1.3
	c0.8-0.5,1-1,0.7-1.3c-0.3-0.6-0.2-1.4,0.3-2.4c0.5-1,1-1.9,1.3-2.7c0.3-0.8,0.7-1.4,1.3-1.8c0.5-0.5,1-1.1,1.3-1.8
	c0.3-0.3,0.5-0.5,0.5-0.7c0-0.2,0.2-0.3,0.5-0.5c0.3,0,0.5-0.1,0.5-0.3c0-0.2,0.2-0.6,0.5-1c0.8-1.2,1.8-2.5,3.2-3.7
	c1.4-1.2,2.6-2.3,3.7-3.2c0.8-0.6,1.5-1.2,2.1-1.6c0.6-0.5,1.3-0.8,2.1-0.9c0.8-0.6,1.5-1.2,2.2-1.8c0.7-0.6,1.4-1.2,2.2-1.6
	c1.8-1.1,3.7-1.7,5.5-1.8c1.1-0.2,2.1-0.4,3-0.8c0.9-0.4,2-0.7,3.2-1c0.5-0.2,0.8-0.2,1-0.1c0.2,0.1,0.5,0.1,0.8,0.1
	c0.6-0.2,1.2-0.3,1.7-0.6C75.3,0,75.9,0,76.5,0.3c0.5,0.3,0.9,0.3,1.4,0.1c0.5-0.2,1-0.3,1.6-0.3c0.3-0.2,0.7-0.1,1,0.1
	c0.4,0.2,0.7,0.3,0.8,0.3c1.1-0.5,2-0.6,2.9-0.3c0.8,0.2,1.7,0.5,2.7,0.8c0.5,0,1,0,1.5,0.1c0.5,0.1,1,0.3,1.3,0.6
	c0.6,0.2,1,0.1,1-0.1c0.1-0.2,0.4-0.2,1,0.1c0.8,0.3,1.9,0.5,3.3,0.7c1.5,0.2,2.3,0.6,2.7,1.4c0.2,0.3,0.4,0.5,0.8,0.5
	c0.4,0,0.7,0.1,1,0.2c0.6,0.3,1.2,0.7,1.6,1.2s0.9,0.8,1.4,1.2c1.7,1.1,3.6,2.2,5.7,3.2c2.1,1.1,3.3,2.7,3.6,4.8
	c0.6,0.3,0.9,0.3,0.8,0c-0.1-0.3,0.2-0.2,0.8,0.5c0.6,0.6,1.2,1.2,1.6,1.8c0.5,0.6,1,1.3,1.6,2.1c0.3,0.8,0.7,1.4,1.3,2
	c0.5,0.5,1,1.2,1.3,2c0.2,0.3,0.5,0.8,0.9,1.6c0.5,0.8,0.6,1.4,0.5,1.8c0,0.5,0.2,1,0.6,1.6c0.4,0.6,0.7,1.2,1,1.6
	c0.3,0.6,0.5,1.3,0.7,2.1c0.2,0.8,0.3,1.5,0.5,2.1c0.2,0.6,0,1-0.3,1c-0.4,0.1-0.6,0.2-0.6,0.3c0,0.5,0.2,0.7,0.7,0.8
	c0.5,0.1,0.6-0.2,0.5-0.8c0.3,0.3,0.5,0.8,0.5,1.4c0,0.6,0,1.1,0,1.4c0.2,0.8,0.3,1.4,0.5,2c0.2,0.5,0.3,1.2,0.5,2
	c0,0.3-0.1,0.7-0.3,1.3c-0.2,0.5-0.2,1,0.1,1.3c0.3,0.5,0.2,0.8-0.2,1c-0.5,0.2-0.8,0.5-1.2,0.8c0.3,0.3,0.5,0.5,0.7,0.5
	c0.2,0,0.4,0.1,0.7,0.2c0.3,0.3,0.4,0.9,0.2,1.8c-0.2,0.9-0.2,1.5-0.2,1.8c-0.2,0.8-0.3,1.8-0.3,3.1c-0.1,1.3-0.7,1.9-1.7,1.7
	c-0.2,0.6-0.1,1,0.2,1.2c0.3,0.2,0.3,0.6,0,1.4c-0.5,1.5-1.1,3.2-1.8,5.1c-0.2,0.6-0.4,1.5-0.7,2.5c-0.3,1.1-0.8,1.7-1.4,1.8
	c-0.6,0.3-1,0.8-1.2,1.4c-0.2,0.6-0.5,1.2-0.9,1.6c-0.3,0.2-0.5,0.3-0.6,0.5c-0.1,0.2-0.3,0.3-0.6,0.5c0.3,0.6,0.2,1.2-0.2,1.6
	c-0.3,0.3-0.6,0.7-0.8,1.3c-0.2,0.5-0.5,1-0.8,1.3c-0.6,0.3-1.2,0.7-1.8,1c-0.6,0.4-1.1,1-1.4,1.7c-0.8-0.3-1.2,0-1.2,0.9
	c-0.3,0.8-0.6,1.1-0.8,0.9c-0.2-0.2-0.5-0.1-0.8,0.2c0.2,1.1,0.1,1.7-0.2,1.8c-0.3,0.2-0.8,0.6-1.4,1.4c-0.8,0.6-0.9,1-0.5,1.3
	c0.5,0.2,0.6,0.7,0.5,1.3c-0.2,0.8-0.4,1.4-0.8,2c-0.4,0.5-0.8,1.2-1.3,2c-0.3,0.3-0.6,0.4-0.9,0.2c-0.3,0.8-0.7,1.5-1.2,2.3
	c-0.8,1.1-1.5,2.2-2.2,3.5c-0.7,1.2-1.4,2.3-2.2,3.2c-0.8,0.8-1.9,1.2-3.5,1.3c-1.5,0.1-2.2-0.6-2.1-2c-0.5-0.2-1.1-0.2-2,0
	c-0.8,0.2-1.4,0.4-1.7,0.7c-1.2,0.9-2.7,1.4-4.4,1.4c-1.8-0.3-3.3-0.8-4.4-1.6c-1.1,0-2,0.3-2.8,0.9c-0.8,0.6-1.7,0.8-2.8,0.7
	c-0.8-0.2-1.5-0.4-2.3-0.7c-0.8-0.3-1.5-0.5-2.3-0.7c-0.8,0-1.5,0.2-2.2,0.6c-0.7,0.4-1.5,0.6-2.4,0.6c-0.6,0-1.4-0.1-2.4-0.3
	c-1-0.2-1.4-0.7-1.3-1.5c-0.3-0.2-0.6-0.3-0.9-0.3c-0.3-0.1-0.5-0.3-0.7-0.6c0-1.1-0.2-2.1-0.7-3c-0.8-0.8-1.4-1.6-1.8-2.4
	c-0.5-0.8-1.1-1.6-1.8-2.2c-0.8-0.6-1.4-1.2-1.8-1.6c-0.5-0.5-0.8-1.2-1.2-2.1c-0.3-0.8-0.5-1.5-0.6-2.3c-0.1-0.8-0.5-1.4-1.3-1.8
	c0.2-1.1-0.1-1.8-0.8-2.2c-0.7-0.4-1.3-1-1.7-1.7c-0.6-0.6-1.1-1.2-1.5-1.6c-0.4-0.5-0.7-1.1-1-1.8c-1.1-2-2.3-3.5-3.7-4.4
	c-0.3-0.9-0.7-1.8-1.3-2.7c-0.5-0.8-1-1.7-1.5-2.7s-1-1.9-1.7-2.9c-0.7-1-1-2-1-3.1c-0.2-1.1-0.4-2-0.7-2.8
	c-0.3-0.8-0.5-1.7-0.7-2.8c0-0.3,0.1-0.7,0.2-1.3c0.2-0.5,0.1-1-0.2-1.3l-0.5-0.5V50z M41.6,52c-0.3-0.3-0.7-0.3-1.2,0.1
	c-0.5,0.4-0.5,0.7-0.2,1c0.5,0,0.7-0.1,0.8-0.3C41.1,52.6,41.3,52.3,41.6,52z M41.8,29.6c0,0.3,0.1,0.6,0.3,0.8
	c0.2,0.2,0.5,0.2,0.8-0.1C43,29.9,42.6,29.6,41.8,29.6z M42.3,27.3c0.5,0.2,0.7,0,0.6-0.3c-0.1-0.4-0.3-0.5-0.6-0.3V27.3z
	 M43.9,34.5c-0.2-0.3-0.3-0.4-0.6-0.2c-0.2,0.2-0.3,0.4-0.1,0.7c0.3,0.2,0.5,0.1,0.5-0.1C43.7,34.6,43.8,34.5,43.9,34.5z M44.4,50.4
	c0.5,0,0.6-0.1,0.3-0.3C44.5,49.8,44.4,50,44.4,50.4z M46,42.6c0-0.5-0.3-0.6-0.8-0.5c-0.5,0.2-0.7,0.5-0.3,1.2
	c0.3-0.2,0.6-0.2,0.8-0.2C45.9,43,46,42.9,46,42.6z M47.4,50.9c0-0.2-0.2-0.2-0.5-0.2c-0.3,0-0.5,0.1-0.7,0.2
	C46.1,51,46,51.2,46,51.3c0,0.2,0.3,0.3,0.9,0.5c0.5,0.2,0.8-0.1,1.2-0.8c0.3-0.7,0.6-1.2,0.9-1.5c-0.6,0.3-1,0-1-0.8
	c-0.1-0.8-0.5-1.3-1.3-1.3c-0.2,0.3-0.2,0.7-0.1,1.3c0.1,0.5,0.5,0.8,1.3,0.8c-0.3,0.2-0.4,0.4-0.2,0.7
	C47.8,50.5,47.7,50.7,47.4,50.9z M46.9,53.2c0.3,0,0.6-0.2,0.9-0.5C47.2,52.1,46.9,52.3,46.9,53.2z M47.9,35.4
	c-0.2,0.2-0.3,0.3-0.5,0.6c-0.2,0.2-0.1,0.5,0.2,0.8c0.3-0.2,0.5-0.4,0.6-0.7C48.3,35.8,48.2,35.6,47.9,35.4z M47.9,29.6
	c0.5,0,0.7-0.1,0.8-0.3c0.1-0.2,0-0.4-0.1-0.5c-0.2-0.1-0.3-0.1-0.6,0C47.7,28.9,47.7,29.2,47.9,29.6z M48.1,46.5
	c0.3,0.2,0.5,0,0.5-0.3c0-0.4-0.2-0.5-0.5-0.3V46.5z M49,34.7c0-0.8-0.2-1.2-0.5-1.2c-0.2,0.2-0.2,0.4-0.1,0.7
	C48.5,34.6,48.7,34.7,49,34.7z M48.8,53.2c0.5,0.2,0.7,0,0.7-0.6c0-0.5-0.2-0.8-0.5-0.8C48.8,52,48.8,52.4,48.8,53.2z M49.5,138.8
	c0.3,0,0.5-0.1,0.5-0.2C49.5,138.6,49.3,138.7,49.5,138.8z M50.9,56.2c-0.3,0-0.5,0-0.5,0.1c0,0.1-0.2,0.1-0.5,0.1
	c0,0.8,0.2,1,0.6,0.8C50.9,57,51,56.7,50.9,56.2z M51.8,29.2c-0.3,0-0.7,0.2-1,0.5c-0.4,0.3-0.3,0.5,0.1,0.7c0-0.3,0.2-0.5,0.5-0.6
	C51.6,29.7,51.8,29.5,51.8,29.2z M51.8,26.6c0.2-0.5,0-0.7-0.6-0.6c-0.5,0.1-0.7,0.3-0.6,0.6c0.3,0.2,0.5,0.2,0.7,0.1
	C51.5,26.7,51.6,26.6,51.8,26.6z M50.9,139.1c0.3,0.3,0.6,0.2,0.9-0.2C51.2,138.5,50.9,138.6,50.9,139.1z M51.1,30.8
	c-0.2,0.8,0.1,1.2,0.7,1.4C51.8,31.3,51.5,30.8,51.1,30.8z M52,37c0-0.3-0.2-0.5-0.5-0.5L51.3,37H52z M52.7,41.6
	c-0.5,0-0.8,0.1-0.9,0.2c0,0.6,0.2,0.9,0.6,0.8C52.7,42.6,52.8,42.3,52.7,41.6z M52,130.3c0.6,0,0.8-0.2,0.5-0.5
	C52.2,129.5,52,129.7,52,130.3z M53.9,29.4c-0.5,0-0.7,0.1-0.7,0.3c0,0.2,0.2,0.5,0.5,0.8c0.3-0.3,0.3-0.5,0.1-0.6
	C53.5,29.9,53.5,29.7,53.9,29.4z M53.4,47.4c-0.2,0.5,0.1,0.7,0.7,0.7C54.2,47.7,54,47.4,53.4,47.4z M54.3,51.1
	c0.2-0.3,0.3-0.6,0.5-0.9c0.2-0.3,0.2-0.6,0-0.9c-0.3,0.2-0.6,0.2-0.9,0.2c-0.3,0-0.5,0.2-0.5,0.5c0.2,0.3,0.3,0.5,0.5,0.6
	C54,50.6,54.2,50.8,54.3,51.1z M62.6,20.4c-0.3,0-0.6-0.1-0.9-0.2c-0.3-0.2-0.5,0-0.5,0.5c0.8,0,1.4,0,2,0.1
	c0.5,0.1,1.1,0.2,1.7,0.3c0,0.3-0.6,0.8-1.8,1.4c0-0.5,0-0.8,0-0.9c0-0.2-0.2-0.3-0.7-0.5c-0.3,0.3-0.6,0.7-0.8,1
	c-0.2,0.4-0.6,0.7-1,0.8c0.3,0.5,0.4,0.9,0.2,1.4c-0.2,0.5-0.3,0.8-0.5,1.2c0.2,0,0.5-0.2,1.2-0.5c0,0.3,0.1,0.5,0.3,0.6
	c0.2,0.1,0.3,0.3,0.3,0.6c-0.2,0.3-0.3,0.5-0.6,0.5c-0.2,0-0.3,0.2-0.1,0.5c0.6,0.2,1,0,1.3-0.5c0.2-0.5,0.6-0.8,1-0.9
	c0.8-0.3,1.1-0.2,0.9,0.5c-0.2,0.6-0.6,0.8-1.4,0.7c0,0.3,0.1,0.6,0.2,0.8c0.2,0.2,0.3,0.5,0.5,0.8c0.2,0.5,0,0.8-0.3,1.2
	c-0.4,0.3-0.7,0.7-1,1.2c0.5,0,0.8,0.2,1,0.7c0.2,0.5,0.3,0.8,0.3,1.2c0,0.8-0.2,1.2-0.7,1.3c-0.5,0.1-0.9,0.3-1.4,0.6
	c-0.9,0.8-1.6,1.1-2,0.9c-0.4-0.2-0.6-0.4-0.6-0.7c0-0.3,0.2-0.6,0.5-0.9c0.3-0.3,0.7-0.3,1.2,0c0.2-0.3-0.1-0.9-0.7-1.8
	c-0.6-0.9-0.5-1.4,0.2-1.4c0,0.6,0.3,0.9,0.9,0.9c0.3-0.3,0.3-0.6,0.1-0.9c-0.2-0.3-0.4-0.6-0.6-0.9c0-0.3,0-0.8,0.1-1.4
	c0.1-0.6-0.2-0.8-0.8-0.5c0.5,0.2,0.5,0.3,0.2,0.6c-0.3,0.2-0.6,0.3-0.9,0.1c-0.6-0.2-0.7-0.6-0.3-1.4c0.4-0.8,0.7-1.3,0.8-1.6
	c-0.8-0.2-1.2-0.5-1.2-1c0-0.5-0.2-1-0.7-1.3c-0.2,0.9-0.2,1.7-0.2,2.4s-0.5,1.2-1.4,1.5c-0.2-0.3-0.2-0.5-0.2-0.7
	c0-0.2-0.1-0.4-0.2-0.7c-0.8,0-0.9,0.3-0.5,0.8c0.5,0.5,0.6,0.8,0.5,0.8c-0.3,0.2-0.5,0.3-0.5,0.5c0,0.2-0.2,0.3-0.5,0.5
	c-0.3,0-0.5,0-0.6,0.1c-0.1,0.1-0.3,0-0.8-0.1c-0.2,0.6,0.2,0.9,1.2,0.9c0.6,0,0.9,0.2,0.8,0.6c-0.1,0.4-0.4,0.6-1,0.6
	c0,0.8,0.3,1,0.9,0.8c0.6-0.2,1-0.6,1.2-1c0.2-0.6,0-0.9-0.5-0.9s-0.5-0.4-0.2-1.2c0.3-0.5,0.8-0.3,1.6,0.5c0.8,0.8,1.2,1.3,1.4,1.6
	c-0.3,0.6-0.6,0.9-0.8,0.8c-0.2-0.1-0.1,0.3,0.3,1c0.3,0.5,0.3,0.8,0,1.2c-0.3,0.3-0.7,0.3-1.2,0c0.3-0.3,0.3-0.7,0.1-1
	c-0.2-0.4-0.6-0.6-1-0.6c-0.3,0.5-0.3,0.8,0.1,1.2c0.4,0.3,0.7,0.6,0.8,0.9c-0.3,0-0.4,0.1-0.2,0.2c0.2,0.2-0.2,0.2-0.9,0
	c-0.8-0.2-1-0.3-0.8-0.6c0.2-0.2,0.3-0.5,0.3-0.8c-0.9,0.6-1.5,1.1-1.8,1.4c-0.3,0.3-0.5,0.7-0.6,1.3c-0.1,0.5,0.3,0.6,1,0.1
	c0.3-0.3,0.5-0.6,0.7-0.8c0.2-0.2,0.5-0.2,0.9,0.1c0.3,0.2,0.7,0.2,1.2,0l0.7,1.4c0.3,0.5,0.8,0.7,1.6,0.8c0.8,0.1,1.6,0.2,2.4,0.3
	c0.8,0.2,1.5,0.4,2.1,0.8c0.5,0.4,0.7,1.1,0.3,2.2c1.1,0.3,1.6,0,1.6-0.9c-1.2-0.6-1.2-1.3,0-2.1c0,0.2,0.2,0.5,0.5,1.2
	c0.2,0,0.3-0.1,0.6-0.2c0.2-0.2,0.4-0.2,0.6,0c0.2,0.6,0,0.9-0.5,0.9c-0.5,0-0.7,0.2-0.7,0.7c0.3,0.3,0.6,0.3,0.9,0
	c0.3-0.3,0.6-0.3,0.9,0c-0.3,0.3-0.3,0.6,0,0.9c0.3,0.3,0.4,0.6,0.2,0.9c0,0.3,0,0.5-0.1,0.7c-0.1,0.2-0.1,0.4-0.1,0.7
	c0,0.2,0.1,0.3,0.2,0.6c0.2,0.2,0.3,0.2,0.5-0.1c0.3-0.6,0.6-0.8,0.9-0.7c0.3,0.2,0.5,0.5,0.7,1.2c0.2,1.2-0.1,1.7-0.7,1.3
	c-0.6-0.4-1.1-0.7-1.4-0.8c-0.3,0.9-0.2,1.4,0.5,1.4c0.6,0,1.1,0.3,1.4,0.9c0.2-0.3,0.3-0.6,0.6-0.8c0.2-0.2,0.5-0.5,0.8-0.8
	c0.3-0.6,0.7-0.8,1.2-0.5c0.5,0.3,0.9,0.1,1.4-0.7c-0.2,0.5,0,0.7,0.5,0.8c0.5,0.1,0.8,0.1,1.2,0.1c0,0.8,0.2,1.2,0.5,1.4
	c0-0.3,0.3-0.8,0.9-1.4c0.3-0.5,0.3-0.8,0.1-1.2c-0.2-0.3-0.3-0.7-0.3-1.2c-0.2-0.2-0.3-0.2-0.6-0.2c-0.2,0-0.3-0.2-0.3-0.5
	c0.3-0.2,0.6-0.3,0.9-0.6c0.3-0.2,0.6-0.2,0.9,0.1c0-0.6,0.2-1,0.5-1.2c0.3,0.2,0.7,0.5,1,1.2c0.4,0.6,0.7,0.2,0.8-1.2
	c0-1.1,0.3-1.5,0.8-1.2c0.5,0.3,1,0.8,1.3,1.6c0.5-0.2,0.7-0.5,0.7-1.2c-0.5,0.2-0.7,0.1-0.8-0.2c-0.1-0.3,0-0.6,0.1-0.9
	c-1.4-0.3-1.5-0.7-0.2-1.2c0.9-0.3,1.2-0.6,0.9-0.9c-0.3-0.3-0.4-0.6-0.2-0.9c-0.8-0.2-1.2,0-1.2,0.3c0,0.4-0.3,0.1-0.9-0.8
	c-0.3-0.3-0.5-0.8-0.5-1.6c0-0.8-0.1-1.1-0.2-0.9c-0.2,0.2-0.4-0.2-0.7-0.9c0.6-0.3,0.9-0.8,0.9-1.5s-0.2-1.2-0.7-1.5
	c-0.8-0.5-1.2-0.4-1.2,0.1c0,0.5-0.1,1-0.2,1.5c-0.3,0.5-0.5,1-0.7,1.5c-0.2,0.5-0.4,1-0.7,1.5c0.3,0,0.5,0.1,0.5,0.3
	s0.2,0.3,0.5,0.1c0.3-0.2,0.5-0.3,0.7-0.6c0.2-0.2,0.4-0.3,0.7-0.1v1.2c0,0.8-0.1,1.3-0.2,1.6c0.2,0.3,0.3,0.5,0.5,0.6
	c0.2,0.1,0.4,0.3,0.7,0.6c-0.2,0.2-0.4,0.2-0.8,0.1c-0.4-0.1-0.7-0.1-0.9-0.1c-0.2,0-0.3,0-0.3,0.1c0,0.1,0.3,0.3,0.9,0.8
	c-0.2,0.3-0.2,0.7-0.1,1.3c0.1,0.5-0.2,0.7-0.8,0.3c-0.6-0.3-0.9-0.5-0.8-0.6c0.1-0.1-0.1,0.2-0.6,0.8c0.2,0.3,0.4,0.4,0.8,0.3
	c0.4-0.1,0.4,0.1,0.1,0.6c-0.9-0.2-1.8-0.1-2.5,0.2c-0.3-0.9-0.1-1.6,0.6-2.1c0.7-0.5,1.3-0.9,2-1.4c-0.3,0-0.7,0.1-1.2,0.2
	c-0.5,0.2-0.8,0.1-1.2-0.2c0.2-0.3,0.4-0.4,0.7-0.3c0.3,0.1,0.5-0.1,0.5-0.6c-0.5-0.3-0.9-0.3-1.4,0.1c-0.5,0.4-0.8,0.2-1.2-0.6
	c-0.2-0.3-0.3-0.8-0.3-1.5c-0.1-0.7,0.3-1.1,1-1.3c0,0.9,0.4,1.4,1.2,1.4c-0.5,0.2-0.5,0.5-0.2,1.2c0.6-0.5,1-0.5,1.3,0
	c0.2,0.5,0.5,0.8,0.8,1.2c0.2-0.6,0.3-0.8,0.6-0.7c0.2,0.2,0-0.1-0.6-0.7c-0.3-0.3-0.6-0.7-0.8-1c-0.2-0.4-0.5-0.7-0.8-1
	c-0.5-0.5-1-0.9-1.5-1.4c-0.5-0.5-0.8-1.1-0.8-1.8c-0.5,0-0.7,0.2-0.8,0.5c-0.1,0.3-0.1,0.6-0.1,0.9c0,0.3-0.1,0.6-0.2,0.8
	c-0.2,0.2-0.5,0.3-1.2,0.1c-0.3,0-0.7-0.3-1.2-1c-0.5-0.7-0.6-1.3-0.5-2c0.6,0,1.1,0.1,1.4,0.2c-0.3-0.9-0.2-1.6,0.2-2.1
	c-0.2-0.3-0.3-0.6-0.6-0.8c-0.2-0.2-0.4-0.5-0.6-0.8c-0.3-0.3-0.5-1-0.7-2.1c-0.2-1.1,0.2-1.4,1.2-0.9c-0.3,0.6-0.3,1.1,0,1.5
	c0.3,0.4,0.3,0.9,0,1.5c1.1-0.3,1.8,0.1,2.1,1.2c0.3,0.8,0.5,1,0.7,0.7c0.2-0.3,0.5-0.5,1.2-0.5c0,0.2,0.1,0.5,0.3,1
	c0.2,0.5,0.5,1.1,0.7,1.6c0.2,0.5,0.5,0.9,0.8,1.2c0.3,0.2,0.5,0,0.7-0.8c-0.8,0-1.2-0.5-1.4-1.4c0.8,0.3,1,0,0.8-0.8
	c-0.2-0.8,0-1.3,0.6-1.3c0.3,0.2,0.5,0.3,0.6,0.6c0.1,0.2,0.3,0.3,0.6,0.1c0.2-0.2,0.3-0.5,0.6-0.9c0.2-0.5,0.5-0.4,0.8,0.2
	c0.3,0.5,0.3,0.7,0.1,0.8c-0.2,0.1,0,0.3,0.6,0.6c0.6,0.3,0.8,0.7,0.7,1c-0.2,0.4,0.2,0.7,0.9,1c1.1,0.5,1.2,1.1,0.5,1.8
	c-0.8,0.5-1,0.8-0.7,0.9c0.3,0.2,0.2,0.6-0.2,1.4c0.5,0,0.9,0.2,1.4,0.5c0.5,0.3,0.8,0.2,1.2-0.5c0.2-0.3,0.3-0.7,0.5-1.2
	c0.2-0.5,0.5-0.7,0.9-0.7c0-0.3-0.1-0.6-0.2-0.8c-0.2-0.2-0.1-0.5,0.2-0.8c0.6,0.3,1.1,0.3,1.4-0.1c0.3-0.4,0.7-0.6,1.2-0.6
	c-0.3-0.2-0.7-0.5-1.3-0.9c-0.5-0.5-0.4-0.8,0.3-1.2c1.5,0,2,0.6,1.4,1.8c-0.2,0.3-0.1,0.7,0.1,1c0.2,0.4,0.2,0.7-0.1,1
	c-0.3-0.2-0.7-0.2-1.3-0.2c-0.5,0-0.9,0.2-1,0.7c0.6,0.2,0.9,0.3,0.9,0.6c0,0.2,0.4,0.3,1.2,0.1c0.8,0,1.2,0.1,1.4,0.2
	c0.2,0.2,0.5,0.4,0.9,0.7c0.3,0.3,0.7,0.2,1-0.3c0.4-0.5,0.7-1,0.8-1.3c0.2-0.6,0.2-1.2,0-1.7c-0.2-0.5,0.2-0.9,1.2-1
	c0,0.5,0,0.9,0.1,1.3c0.1,0.4,0.2,0.8,0.3,1.3c0.3,0.6,0.6,1,0.9,1c0.3,0.1,0.4,0.4,0.2,1c-0.2,0.6-0.1,1.3,0.2,2.1
	c0.3,0.8,0.8,1.2,1.4,1.2c1.2,0,1.7-0.4,1.4-1.3c-0.3-0.8-0.3-1.4,0-1.7c0.5-0.6,0.7-0.5,0.7,0.5c0.2,0.8,0.5,1.1,1.2,1
	c0.6-0.1,1.2,0,1.8,0.3c-0.6,1.1-0.7,1.4-0.2,0.9c0.5-0.5,0.9-0.4,1.4,0.2c-0.5-0.8-0.3-1.2,0.5-1.2c0.9,0,1.1-0.3,0.5-0.9
	c-0.3-0.3-0.7-0.3-1.3-0.1c-0.5,0.2-0.7-0.1-0.6-1c-0.3,0-0.8,0.2-1.4,0.5c-0.5,0.3-0.7,0.3-0.7,0c0-0.3-0.2-0.6-0.7-0.9
	c-0.3-0.2-0.5-0.5-0.5-1.2c0-0.6,0.2-1,0.7-1.2c0.3,0.3,0.5,0.6,0.5,0.8c0,0.2,0.2,0.4,0.5,0.6c0.5,0.3,0.8,0.3,1.2-0.1
	c0.3-0.4,0.6-0.7,0.9-1c-0.5-0.2-0.9-0.2-1.4,0c-0.3-0.6-0.4-1.2-0.2-1.7c0.2-0.5,0-1-0.5-1.3c0.3,0.2,0.6,0,0.8-0.6
	c0.2-0.5,0.5-0.4,0.8,0.3c0.2,0.3,0.2,0.7,0.2,1.3c0,0.5,0.2,0.9,0.7,1c0-0.5,0.2-1,0.5-1.5c0.3-0.5,0.3-1,0-1.3
	c0.5-0.3,0.8-0.7,0.9-1.2c0.2-0.5,0.2-0.9,0.2-1.4c-0.6-0.2-1.3,0-2,0.6c-0.7,0.5-1.1,1-1.3,1.3c-0.3,0.6-0.7,1.1-1.2,1.4
	c-0.5,0.3-0.4,1,0.2,2.1c-0.6,0-1.1-0.2-1.4-0.7c-0.3-0.5-0.3-0.9-0.1-1.4c0.2-0.5,0.1-0.8-0.3-1.2c-0.3,0.3-0.7,0.6-1,0.8
	c-0.4,0.2-0.4,0.7-0.1,1.3c-0.6-0.3-0.8-0.3-0.7,0.1c0.2,0.4,0.1,0.7-0.2,0.8c-0.9-0.2-1.2-0.7-0.9-1.6c0.2-0.3,0.1-0.5-0.2-0.6
	c-0.3-0.1-0.4-0.3-0.2-0.8c0-0.3,0.2-0.8,0.5-1.4c-0.3-0.5-0.5-0.9-0.7-1.3c-0.2-0.4-0.3-0.8-0.5-1.3c0.5-0.2,0.8-0.1,0.9,0.1
	c0.2,0.2,0.4,0.5,0.7,0.8c0.3-0.6,0.8-0.9,1.6-0.9c0.8,0,1.1-0.4,0.9-1.2c0-0.3-0.1-0.6-0.3-0.8c-0.2-0.2-0.5-0.5-0.8-0.8
	c-0.3-0.5-0.1-0.7,0.6-0.6c0.7,0.1,1.2-0.2,1.5-0.8c-0.9-0.3-1.6-0.5-2.1-0.5c0.2,0.5,0,0.7-0.3,0.7c-0.4,0-0.5,0.2-0.3,0.7
	c-1.5-0.3-2.2-1.5-1.8-3.5c0.6,0.3,1.2,0.7,1.6,1.2c0.3-0.8,0-1.4-0.8-1.8c-0.8-0.5-0.8-1.1,0.1-1.8c-0.3-0.3-0.7-0.5-1-0.7
	c-0.4-0.2-0.7,0.2-0.8,0.9c0.3,0.6,0.2,1-0.2,1.2c-0.5,0-0.7,0.2-0.7,0.5c1.4-0.2,1.8,0,1.2,0.5c-0.6,0.5-0.9,0.8-0.9,1.2
	c0.5,0.2,0.5,0.6,0.2,1.4c0.3,0.3,0.6,0.5,0.8,0.7c0.2,0.2,0.5,0.4,0.8,0.7c0.5,0.6,0.3,1.1-0.5,1.5c-0.8,0.4-1.4,0.3-1.8-0.3
	c-0.3-0.5-0.5-1.1-0.5-1.8c0-0.8,0.2-1.3,0.7-1.6c-0.5-0.2-0.8,0-1.2,0.3c-0.3,0.4-0.6,0.6-0.9,0.6c-0.8-0.3-0.8-0.8-0.1-1.5
	c0.7-0.7,1.1-1.2,1.3-1.5c-0.6-0.2-1.1-0.4-1.5-0.7c-0.4-0.3-0.8-0.6-1.3-0.9c-0.2,0.8-0.1,1.8,0.2,3.2c0.2,0.3,0.2,0.8,0.2,1.4
	c0.2,0.8,0.3,1.2,0.5,1.2c0.2,0,0.5,0.2,0.9,0.5c1.2,1.1,1.5,2.4,0.7,3.9c0.3,0.6,0.8,0.7,1.5,0.3c0.7-0.4,1,0,0.8,1
	c-0.6-0.3-1-0.2-1.3,0.3c-0.2,0.5-0.6,1-1,1.3c0.3,0.2,0.5,0.4,0.6,0.7c0.1,0.3,0,0.5-0.3,0.7c-0.2,0-0.5-0.2-1-0.5
	c-0.5-0.3-1-0.5-1.3-0.5c0.3-0.5,0.9-1,1.8-1.6c0.6-0.3,0.7-0.7,0.3-1c-0.4-0.4-0.6-0.8-0.6-1.3c-0.2-0.9-0.6-1.4-1.3-1.4
	s-0.7,0.5,0.1,1.4c0.3,0.3,0.2,0.8-0.2,1.6c-0.5,0.6-0.8,0.7-1,0.3c-0.2-0.4-0.6-0.6-1-0.6c-0.6,0-1.3,0.3-2.1,0.8
	c-0.8,0.5-1.2,0-1.4-1.5c0.5,0.2,0.8,0,1.2-0.5c0.3,0.3,0.7,0.4,1,0.2c0.4-0.2,0.7-0.2,1-0.2c-0.3-0.8-0.3-1.9-0.1-3.3
	c0.2-1.5,0.8-2.2,1.7-2.2c-1.2,0-1.7-0.3-1.5-0.8c0.2-0.5,0.5-1.2,0.8-2c-0.5,0-1-0.2-1.6-0.6c-0.6-0.4-1.2-0.3-1.6,0.1
	c0.3,0.3,0.5,0.6,0.7,0.9c0.2,0.3,0.2,0.7,0,1.2c0.3,0,0.6-0.1,0.9-0.2c0.3-0.2,0.5,0,0.5,0.5c-0.2,0.2-0.3,0.2-0.3,0
	c-0.1-0.2-0.3-0.2-0.6,0c0.2,0.3,0.3,0.8,0.5,1.5c0.2,0.7,0,1.2-0.5,1.5c-0.5,0.3-1,0.4-1.6,0.2c-0.6-0.2-1.2-0.1-1.8,0.2
	c-0.6,0.3-0.8,0.6-0.5,0.9c0.3,0.3,0.5,0.6,0.5,0.9c-0.8,0.3-1.1,0.7-1,1.3c0.1,0.5,0,1.1-0.1,1.7c-0.5-0.3-0.7-0.6-0.7-0.9
	c0-0.3,0-0.6,0-0.9c-0.5,0-1.1-0.1-1.8-0.2c-0.8-0.2-1.3-0.3-1.6-0.5c-0.2-0.2-0.2-0.3-0.2-0.5l0.5-0.5c0.2-0.2,0.3-0.2,0.5-0.2
	c0.8,0,1.5,0.2,2.3,0.7c0.2-0.5,0.2-1,0.2-1.6c0-0.6-0.3-1.1-0.9-1.4c0.3-0.3,0.7-0.2,1.2,0.2c0.3,0.2,0.5,0.1,0.7-0.1
	c0.2-0.2,0.4-0.3,0.7-0.3c0.5-0.2,1-0.2,1.6,0c0.6,0.2,1-0.2,1.2-0.9c-0.3-0.3-0.7-0.3-1.2,0c-0.3,0.3-0.5,0.4-0.7,0.3
	c-0.2-0.1-0.4-0.1-0.7-0.1c-0.6-0.2-1.1-0.2-1.5-0.2c-0.4,0-0.7-0.3-0.8-0.9c0.3,0,0.7,0,1.3-0.1c0.5-0.1,0.8-0.3,0.8-0.8
	c0.3,0.3,1,0.6,2.1,0.9c0.3-0.3,0.3-0.7,0.1-1c-0.2-0.4-0.5-0.7-0.8-1c0.6,0,0.9-0.4,0.9-1.2c0.3-0.5,0.7-0.5,1.2-0.2
	c0.5,0.3,0.8,0.2,0.9-0.5c-0.5-0.2-1.2-0.6-2.3-1.3c-1.1-0.7-1.6-1.2-1.6-1.5c0-0.6,0-1-0.1-1c-0.1-0.1,0.1-0.3,0.6-0.8
	c0.8-0.8,1-1.1,0.7-1c-0.3,0.1-0.4-0.2-0.2-0.8c-0.6,0-1,0.2-1.3,0.5c-0.2,0.3-0.6,0.5-1,0.7c0.5,0.9,0.6,1.8,0.5,2.8
	c0.8,0.2,0.9,0.5,0.3,0.9c-0.5,0.5-1,0.8-1.5,1.2c1.1,0.3,1.7,0.9,1.8,1.8c-0.6,0.3-1,0.3-1.2,0c-0.2-0.3-0.4-0.2-0.7,0.5
	c-0.3,0.5-0.7,0.7-1.2,0.8c-0.5,0.1-0.8,0.1-1.2,0.1c-0.2-1.5-0.5-2.1-1-1.7c-0.5,0.4-1.2,0.7-2,0.8c-0.3-0.6-0.6-0.8-0.8-0.7
	c-0.2,0.2-0.4,0.4-0.5,0.8c-0.1,0.4,0,0.7,0.1,0.9c0.2,0.2,0.5,0.1,0.9-0.3c0.8-0.8,1.4-0.7,1.8,0.2c0.5,0.9,0.7,1.8,0.7,2.5
	c-0.6-0.2-1.1-0.1-1.4,0.1c-0.3,0.2-0.5,0-0.7-0.8c-0.2-0.8-0.5-0.9-1.2-0.5c-0.6,0.5-0.9,0.8-0.9,1.2c1.7,0.5,2.9,1.7,3.7,3.7
	c-0.5,0.2-0.8,0.2-1.2,0.1c-0.3-0.1-0.7-0.2-1.2-0.3c-0.2,0.3-0.5,0.7-0.9,1.2c-0.2-0.5-0.5-0.7-1-0.6c-0.5,0.1-1,0-1.3-0.3
	c-0.3-0.3-0.3-0.5-0.1-0.7c0.2-0.2,0.5-0.2,0.8-0.2v-1.8c0-0.9-0.6-1.5-1.8-1.8c-0.3,0.9-0.7,1.4-1.3,1.4c-0.5,0-1.3,0.1-2.2,0.2
	c0-1.1-0.3-1.3-0.8-0.6c-0.5,0.7-0.9,1.1-1,1.3c-0.8-0.2-1.1-0.5-1-1c0.1-0.5,0-1-0.3-1.5c-0.3,0.3-0.5,0.7-0.7,1
	C63.4,20,63.1,20.3,62.6,20.4z M54.5,32.6c0-0.3,0-0.6,0-0.9c0-0.3-0.3-0.4-0.9-0.2C53.5,32.3,53.8,32.6,54.5,32.6z M55.2,26.9
	c-0.9-0.2-1.3-0.3-1.3-0.3c0.1-0.1,0,0.3-0.3,1.3C54.1,27.8,54.6,27.5,55.2,26.9z M54.1,68.9c0.5,0,0.6-0.1,0.3-0.3
	C54.2,68.3,54.1,68.4,54.1,68.9z M55.2,113c0-0.6-0.2-0.9-0.5-0.8c-0.3,0.1-0.5,0.3-0.5,0.8H55.2z M56.2,11.4
	c-0.3,0.9-0.8,1.4-1.6,1.4c0.8,1.1,1.4,1.2,1.8,0.3C56.9,12.3,56.8,11.7,56.2,11.4z M54.5,12.1c0.6,0,0.8-0.2,0.5-0.5
	C54.7,11.3,54.5,11.5,54.5,12.1z M56.2,19c-0.3-0.3-0.7-0.2-1,0.2c-0.4,0.5-0.6,0.8-0.6,1.2c0.8,0.3,1,0.1,0.7-0.7
	c0.2-0.2,0.4-0.2,0.7-0.2C56.2,19.5,56.3,19.3,56.2,19z M54.5,40.7c0,0.6,0.2,0.8,0.7,0.5C55.5,40.6,55.3,40.4,54.5,40.7z M55,46
	c0.2,0,0.2-0.1,0.2-0.2c0-0.3-0.2-0.5-0.5-0.5C54.8,45.7,54.9,45.9,55,46z M56.2,25c0-0.3,0.2-0.6,0.6-0.9c0.4-0.3,0.2-0.6-0.6-0.9
	c-0.2,0.3-0.5,0.5-1.2,0.5C55.3,24.7,55.7,25.2,56.2,25z M55,42.3c0,0.3,0.2,0.6,0.6,0.9c0.4,0.3,0.7,0.3,1,0
	c-0.3-0.3-0.5-0.6-0.6-0.8C56,42.2,55.6,42.2,55,42.3z M55.7,63.3c0.2,1.2,0.5,2.2,1.2,2.8c0.6,0.6,1.4,1.3,2.3,2.1
	c0.8,0.6,1.8,0.9,3,0.9c1.2,0,2.5-0.2,3.7-0.6c1.2-0.4,2.3-1,3.2-1.7c0.9-0.8,1.5-1.6,1.8-2.5c0.3-2.2,0.1-4.3-0.7-6.5
	c-0.8-2.2-2.4-3.5-4.8-4.2c-1.8-0.6-3.6-0.5-5.3,0.2c-1.7,0.8-2.9,2-3.7,3.7C55.5,59.4,55.2,61.4,55.7,63.3z M56.2,85.1
	c0.2-0.2,0.3-0.3,0.6-0.3c0.2-0.1,0.3-0.3,0.1-0.6c-0.3-0.3-0.6-0.3-0.9,0.1C55.6,84.6,55.7,84.9,56.2,85.1z M56.2,40.3
	c0.2,0,0.2,0.1,0.2,0.2c0.3-0.3,0.3-0.5-0.1-0.6c-0.4-0.1-0.5,0-0.3,0.3H56.2z M56.9,43.5c0.2,0.5,0.1,0.7-0.1,0.7
	c-0.2,0-0.3,0.2-0.3,0.5c0.8,0.2,1.2,0,1.2-0.5S57.3,43.5,56.9,43.5z M57.5,18.3c-0.2,0-0.2,0.2-0.2,0.5c0.3,0,0.5-0.1,0.6-0.2
	C58,18.4,57.9,18.3,57.5,18.3z M58.7,41.9c-0.5-0.3-0.9-0.2-1.4,0.2c0,0.6,0.3,0.9,0.8,0.9C58.7,43,58.9,42.7,58.7,41.9z M57.5,16.3
	c-0.3,0.3-0.2,0.5,0.3,0.5c0.5,0,0.7-0.2,0.3-0.5c-0.3-0.2-0.4-0.2-0.3,0C58,16.4,57.9,16.4,57.5,16.3z M58.2,89.9
	c0.2-0.3,0.1-0.5-0.2-0.6c-0.3-0.1-0.5,0-0.5,0.3c0.2,0,0.3,0,0.3,0.1C58,89.9,58.1,89.9,58.2,89.9z M60.3,39.8
	c-0.3-0.2-0.6-0.2-0.9,0c-0.3,0.2-0.8,0.2-1.4,0c-0.2,0.8,0.2,1.1,1.2,1C60.1,40.8,60.5,40.4,60.3,39.8z M58.2,135.6
	c0.2,0.2,0.4,0.2,0.8,0.2c0.4,0,0.5-0.2,0.3-0.7c-0.3-0.3-0.6-0.4-0.8-0.2C58.4,135.1,58.2,135.3,58.2,135.6z M58.7,21.6
	c0,0.6,0.3,0.9,0.9,0.9c-0.2-0.6-0.2-0.9,0-0.9C59.8,21.6,59.5,21.6,58.7,21.6z M59.9,72.4c-0.6-0.2-0.8-0.1-0.7,0.1
	C59.3,72.7,59.5,72.7,59.9,72.4z M59.6,10.7h0.7c0-0.5-0.2-0.7-0.7-0.7V10.7z M59.6,75.1c0.5,0,0.6-0.1,0.3-0.3
	C59.7,74.5,59.6,74.7,59.6,75.1z M59.9,5.9c0.5,0,0.6-0.2,0.3-0.5C60,5.1,59.9,5.3,59.9,5.9z M60.3,16.3v-0.7
	C60,15.9,60,16.1,60.3,16.3z M60.1,20.6c0,0.8,0.1,1.2,0.2,1.2c0.2-0.2,0.2-0.4,0.2-0.7C60.5,20.8,60.4,20.6,60.1,20.6z M61.2,39.1
	c0-0.2,0-0.4-0.1-0.7C61,38.1,61,37.9,61,37.7c-0.8,0-1,0.3-0.7,0.8C60.6,39.1,60.9,39.3,61.2,39.1z M60.3,86
	c0.5,0.2,0.7,0.1,0.6-0.2c-0.1-0.3,0-0.5,0.1-0.7C60.2,84.7,60,85.1,60.3,86z M61,9.3c-0.2-0.2-0.3-0.2-0.5-0.2
	c-0.3,0-0.4,0.2-0.2,0.5C60.6,9.6,60.9,9.5,61,9.3z M60.3,41.4c0.2,0.3,0.3,0.6,0.5,0.8c0.2,0.2,0.4,0.1,0.7-0.3
	c-0.2-0.2-0.3-0.3-0.6-0.6C60.7,41.1,60.5,41.1,60.3,41.4z M61,83.4c0.8-0.2,1.2-0.6,1.2-1.3c0-0.7,0-1.2,0-1.5
	c0.8-0.3,1.2-0.5,1.2-0.7c-0.3-0.2-0.6-0.5-0.9-1.2c0.3,0,0.6,0,0.8-0.1c0.2-0.1,0.4,0.3,0.6,1c0,1.2,0.4,2,1.2,2.3
	c0.3-0.5,0.4-0.9,0.3-1.3c-0.1-0.4,0.3-0.4,1-0.1c0.9,0.3,1.5,0.8,1.8,1.6v0.5v-0.5c0-0.2,0.2-0.2,0.5,0c0.3,0.2,0.4,0.1,0.2-0.2
	c-0.3-0.3-0.5-0.5-0.6-0.7c-0.1-0.2,0.2-0.2,0.8-0.2c0.8,0.2,1.3,0.4,1.6,0.8c0.3,0.4,0.8,0.7,1.6,1c0.8,0.3,1.2,0,1.3-0.8
	c0.1-0.8-0.1-1.5-0.6-2c-0.9-0.8-1-1.2-0.1-1.4c0.8-0.2,1.3-0.5,1.3-1.2c-0.9,0-1.8,0.2-2.8,0.7c0.3-0.8,0.5-1.3,0.6-1.5
	c0.1-0.2-0.3-0.5-1-0.8c-0.5-0.3-0.5-0.8-0.2-1.5c0.3-0.7,0.2-1-0.5-0.8c-0.2,0.5-0.3,0.8-0.3,1.2c-0.1,0.3-0.4,0.5-1,0.7
	c0.9,0,1.2,0.4,0.9,1.3c-0.3,0.8-0.6,1.4-0.9,1.7c-0.3,0.2-0.5,0.3-0.6,0.5c-0.1,0.2-0.3,0.3-0.6,0.5c-0.3,0.5-0.5,0.6-0.6,0.5
	c-0.1-0.2-0.3-0.2-0.8-0.2c-0.5-0.2-1-0.3-1.5-0.6c-0.5-0.2-0.5-0.6,0.1-1c0.5-0.3,0.8-0.6,1.2-0.8c0.3-0.2,0.1-0.6-0.7-1
	c-0.2,0.6-0.7,0.8-1.6,0.7c0,0.8-0.2,1-0.7,0.8c-0.5-0.2-0.8-0.4-1.2-0.6c-0.2,0.6-0.2,1.2-0.2,1.7c0,0.5,0.2,1.1,0.5,1.7
	c-0.3,0.3-0.6,0.3-0.8,0.1c-0.2-0.2-0.4-0.2-0.6,0.1c0.6,0.3,0.7,0.7,0.3,1.3C60.7,82.7,60.7,83.1,61,83.4z M62.2,45.3
	c0-0.5-0.2-0.7-0.5-0.7c-0.3,0-0.5,0.2-0.5,0.5c0.3,0,0.5,0.1,0.5,0.2C61.7,45.5,61.9,45.5,62.2,45.3z M62.2,75.8
	c0.2-0.5,0.3-0.7,0.5-0.7c0.2,0-0.1-0.2-0.7-0.7c-0.2,0.3-0.2,0.6-0.2,0.9C61.7,75.7,61.9,75.8,62.2,75.8z M61.9,132.1
	c-0.2,0.3-0.1,0.5,0.2,0.5c0.3,0,0.4-0.2,0.2-0.5c0-0.2-0.1-0.2-0.2-0.2C62,131.9,61.9,132,61.9,132.1z M61.9,28.3
	c0,0.5,0.3,0.8,0.9,1.2C63.2,28.6,62.9,28.3,61.9,28.3z M61.9,35.9c0.8-0.8,1.5-0.9,2.1-0.5c-0.3,0.8-0.6,1-0.9,0.8
	C62.8,36,62.4,35.9,61.9,35.9z M62.9,33.6c0.3-0.3,0.5-0.7,0.5-1.3c0-0.5-0.3-0.7-0.9-0.6c-0.3,0.3-0.4,0.7-0.2,1.2
	C62.3,33.3,62.5,33.6,62.9,33.6z M63.3,7.7C63,7.4,62.8,7.2,62.7,7c-0.1-0.2-0.3-0.2-0.6-0.2c0.5,0.6,1,1.2,1.5,1.8
	c0.5,0.6,1.3,0.8,2.2,0.5C66,8.5,66.1,8,66.1,7.6c0-0.4-0.4-0.5-1.2-0.3C64.5,7.2,63.9,7.4,63.3,7.7z M62.4,23.4
	c0.6,0.3,1.1,0.3,1.5-0.1c0.4-0.4,0.7-0.8,1-1.3c0.5,0.2,0.9,0.3,1.4,0.5c0.5,0.2,0.8,0.5,0.9,0.9c-0.5,0.2-0.8,0.3-1.2,0.5
	c-0.3,0.2-0.8,0.2-1.4,0c-0.2,0.3-0.5,0.7-0.9,1c-0.5,0.4-0.9,0.5-1.4,0.3c0.2-0.3,0.2-0.6,0.1-0.9C62.4,24,62.4,23.7,62.4,23.4z
	 M67.5,89c0-0.3,0-0.5,0.1-0.6c0.1-0.1,0.1-0.2,0.1-0.3c-0.8-0.3-1.2-0.7-1.4-1.2c0.3-0.2,0.6-0.3,0.9-0.5c0.3-0.2,0.6-0.4,0.9-0.7
	c-0.2,1.1,0.1,1.3,0.8,0.7c0.7-0.6,1.1-1.2,1.3-1.6l0.5-0.9c-0.2-0.3-0.4-0.6-0.7-0.8c-0.3-0.2-0.3-0.5,0-0.8
	c-0.2-0.2-0.5-0.2-0.9-0.2c0,0.3,0.1,0.6,0.2,0.8c0.2,0.2,0.3,0.5,0.5,0.8c-0.5,0-0.8,0.1-0.9,0.2c-0.6,0.2-0.8,0.3-0.7,0.5
	c0.2,0.2,0,0.3-0.5,0.5c-0.6,0.2-0.9,0.1-0.9-0.1c0-0.2-0.2,0-0.5,0.8c-0.3,0.5-0.5,1.2-0.5,2.3c-0.3-0.2-0.5-0.3-0.7-0.6
	C65,87,64.7,87,64.2,87.1c-0.2,0.5-0.4,0.8-0.8,1c-0.4,0.2-0.7,0.5-1,0.8c0.9-0.2,1.8-0.4,2.7-0.7C65.9,88,66.7,88.2,67.5,89z
	 M64.7,41.6c-0.3-0.3-0.6-0.5-0.9-0.6c-0.3-0.1-0.5-0.3-0.5-0.6c-0.5-0.2-0.7-0.1-0.6,0.2c0.1,0.3,0.2,0.6,0.5,0.9
	c0.2,0.3,0.5,0.5,0.8,0.6C64.3,42.3,64.5,42.1,64.7,41.6z M63.1,45.1c0-0.3,0.2-0.5,0.5-0.5c0.3,0,0.5-0.2,0.5-0.5
	c-0.2,0-0.4,0.1-0.8,0.2C62.8,44.6,62.8,44.8,63.1,45.1z M63.1,13.9c0.5,0,0.6-0.2,0.3-0.5C63.2,13.2,63.1,13.3,63.1,13.9z
	 M63.3,40.3c0.3,0.3,0.5,0.3,0.5,0C63.8,40,63.6,40,63.3,40.3z M67.2,11.9c-0.6-0.3-1-0.7-1-1c-0.1-0.4-0.5-0.4-1.3-0.1
	c-0.8,0.2-1,0.8-0.7,1.8c0.5,0,0.9,0.1,1.4,0.3c0.5,0.2,0.8,0.3,1.2,0.1c0.5-0.3,0.8-0.5,1-0.6C68.1,12.4,67.9,12.2,67.2,11.9z
	 M67.2,41.4c0.2-0.3,0-0.5-0.3-0.6c-0.4-0.1-0.5-0.3-0.3-0.6c-0.6,0.2-1.3,0.5-2.1,1.2c0.3,0.3,0.8,0.5,1.4,0.5
	C66.5,41.9,66.9,41.7,67.2,41.4z M65.2,82.7c0-0.3-0.2-0.4-0.7-0.2v0.2H65.2z M64.7,16.9c0.6-0.2,1,0,1,0.3c0.1,0.4,0.3,0.7,0.6,1
	c0.3-0.3,0.6-0.5,0.9-0.7c0.3-0.2,0.5-0.5,0.7-0.9c-0.3-0.3-0.5-0.3-0.7-0.1c-0.2,0.2-0.4,0.3-0.7,0.3C66.2,16.6,66,16.3,66,16
	c-0.1-0.3-0.3-0.4-0.8-0.2c-0.2,0.3-0.1,0.5,0.1,0.7C65.5,16.6,65.3,16.8,64.7,16.9z M66.6,28.9c0,0.8-0.2,1.2-0.7,1.3
	c-0.5,0.1-0.8-0.3-1.2-1c0.3-0.3,0.6-0.4,0.9-0.3C65.9,28.9,66.2,28.9,66.6,28.9z M66.3,74.2c-0.3-0.3-0.6-0.4-0.9-0.2
	c-0.3,0.2-0.5,0.5-0.5,0.9C65.9,75.2,66.3,75,66.3,74.2z M67.5,32.6c0.6,0,1,0.2,1.2,0.6c0.2,0.4,0.5,0.5,1.2,0.3
	c0.8,0,1.2,0.2,1.4,0.7c0.2,0.5,0,1-0.5,1.6c-0.3,0.5-0.8,0.7-1.4,0.7c0,0.3,0,0.5,0.1,0.6c0.1,0.1,0,0.3-0.1,0.6
	c-1.2,0.3-2-0.2-2.3-1.6c0.5,0,0.8,0.1,1,0.3c0.2,0.2,0.5,0.3,0.8,0.1c-0.2-0.8-0.7-1.3-1.6-1.6c-0.9-0.3-1.3-0.3-1,0.1
	c0.2,0.4,0.2,0.7-0.1,1c-1.1-0.3-1.3-0.8-0.6-1.5c0.7-0.7,1.3-1.1,2-1.3V32.6z M65.2,44.2c0.3,0.3,0.5,0.3,0.6,0.1
	c0.1-0.2,0-0.4-0.3-0.6c0,0.2,0,0.2-0.1,0.2C65.2,44,65.2,44,65.2,44.2z M65.4,26.6c0.6,0,1,0.1,1,0.3c0.1,0.2,0,0.4-0.2,0.6
	c-0.2,0.2-0.5,0.2-0.7,0.1C65.3,27.6,65.2,27.3,65.4,26.6z M65.4,45.3c-0.2,0.3,0,0.5,0.3,0.5c0.4,0,0.7,0.1,0.8,0.2
	c0.2-0.2,0-0.3-0.3-0.6C65.8,45.2,65.5,45.2,65.4,45.3z M66.6,93.4c0-0.2-0.2-0.4-0.5-0.7l-0.7,0.7H66.6z M65.9,18.6
	c-0.2,0.8-0.1,1,0.2,0.7C66.4,18.9,66.3,18.7,65.9,18.6z M66.3,84.1c0.2-0.2,0.2-0.3,0.1-0.6c-0.1-0.2-0.3-0.3-0.6-0.3
	C65.9,83.8,66,84.1,66.3,84.1z M65.9,124.1c0.3-0.2,0.7-0.3,1-0.3c0.4-0.1,0.5-0.4,0.3-1C66.3,122.5,65.9,123,65.9,124.1z
	 M66.6,132.1c0.2-0.3,0.4-0.7,0.7-1c0.3-0.4,0.1-0.5-0.7-0.3c0,0.3-0.1,0.6-0.2,0.8C66.2,131.8,66.2,132,66.6,132.1z M66.6,21.3
	c0.6,0,1,0.1,1,0.2c0.1,0.2,0,0.3-0.1,0.3C67.3,22,67.1,22,66.9,22C66.7,22,66.6,21.8,66.6,21.3z M66.8,48.6c0.6,0,0.8-0.1,0.5-0.3
	C66.9,48,66.8,48.1,66.8,48.6z M67.9,31c-0.2,0.8-0.3,1.2-0.6,1.2c-0.2,0-0.4-0.1-0.5-0.3c-0.1-0.2-0.1-0.5,0-0.7
	C67,30.9,67.3,30.9,67.9,31z M68.4,75.6c-0.2-0.5-0.1-0.8,0.1-1c0.2-0.2,0.3-0.5,0.3-0.8c-0.3-0.3-0.5-0.4-0.7-0.2
	c-0.2,0.2-0.4,0.3-0.7,0.5c0.2,0.3,0.2,0.5,0,0.6c-0.2,0.1-0.2,0.3-0.2,0.6c0.3,0.2,0.5,0.2,0.7,0.1C68.1,75.2,68.2,75.3,68.4,75.6z
	 M67.5,129.1c0.3,0,0.5-0.1,0.6-0.3c0.1-0.2,0-0.3-0.3-0.3c0,0.2,0,0.2-0.1,0.2C67.5,128.7,67.5,128.8,67.5,129.1z M67.7,71.2
	c0.8,0,1-0.2,0.6-0.6C67.9,70.2,67.7,70.4,67.7,71.2z M67.9,89.4c-0.3,0.3-0.3,0.5,0.1,0.6c0.4,0.1,0.6,0,0.6-0.3
	c-0.3,0-0.5,0-0.5-0.1C68.2,89.5,68.1,89.4,67.9,89.4z M68.9,28.5c-0.8,0.6-1.1,0.3-0.9-0.9c0.2-1.2,0.2-2,0-2.3h0.7
	c-0.3,0.8-0.1,1.3,0.6,1.6C69.9,27.2,69.8,27.7,68.9,28.5z M70,14.6c-0.3,0.3-0.6,0.3-0.8,0c-0.2-0.3-0.4-0.2-0.6,0.2
	c1.2,0.9,2.5,1.4,3.7,1.4c0-0.9,0-1.5-0.1-1.8c-0.1-0.3-0.4-0.8-1-1.4c-0.3,0.3-0.5,0.6-0.6,0.9C70.5,14.3,70.3,14.5,70,14.6z
	 M74.4,89.4c0.6,0.3,1,0.3,1.2-0.1c0.2-0.4,0.2-1,0.2-1.7c-0.3,0-0.5,0.2-0.7,0.5c-0.2,0.3-0.4,0.5-0.7,0.5
	c-0.3-0.2-0.5-0.4-0.7-0.7c-0.2-0.3-0.1-0.6,0.2-0.9c-0.3,0-0.5-0.1-0.5-0.2c0-0.2-0.2-0.2-0.5,0c-0.2,0.3-0.3,0.6-0.3,0.8
	c-0.1,0.2-0.3,0.3-0.6,0.3c-0.8-0.9-1.5-1.1-2.1-0.6c-0.6,0.5-0.9,1.3-0.9,2.2c0,0.8,0.2,0.9,0.7,0.3c0.5-0.5,0.8-0.8,0.9-0.8
	c0.6,0.8,0.7,1.1,0.2,1c-0.5-0.1-0.7,0.3-0.7,1c-0.3-0.5-0.8-0.7-1.4-0.7c-0.2,0.5,0,0.8,0.5,1.2c0.5,0.3,0.3,0.6-0.5,0.9
	c0.5-0.2,1,0.1,1.6,0.7c0.3-1.1,0.7-1.3,1.2-0.8c0.5,0.5,0.8,0.8,1.2,0.8c0.2-0.5,0.3-1.3,0.5-2.4C73.4,89.6,73.8,89.1,74.4,89.4z
	 M69.1,11.4c-0.2,0.2-0.2,0.5-0.2,1c0,0.5,0.2,0.8,0.5,0.8c0-0.3,0-0.7,0.1-1C69.5,11.8,69.4,11.6,69.1,11.4z M68.9,29.2
	c0.8-0.3,1,0,0.7,0.9C69.1,30,68.9,29.6,68.9,29.2z M69.6,35.2c0.5,0.2,0.7,0.1,0.7-0.2c0-0.3-0.2-0.5-0.5-0.5c0,0.2,0,0.2-0.1,0.2
	C69.6,34.7,69.6,34.9,69.6,35.2z M69.6,119.5c0,0.5,0.2,0.7,0.5,0.7c0.2-0.2,0.2-0.3,0.1-0.6C70.1,119.3,69.9,119.3,69.6,119.5z
	 M70.2,123.4c-0.3,0.3-0.4,0.7-0.3,1.2c0.1,0.5,0.3,0.7,0.8,0.7c-0.2-0.3-0.2-0.7,0-1.3C70.9,123.4,70.7,123.2,70.2,123.4z
	 M71.2,80.2c-0.8-0.2-1.2-0.3-1.2-0.6c0-0.2,0-0.6,0-1c0.6,0,0.9-0.2,0.9-0.5c0.2,0.3,0.4,0.7,0.7,1.3
	C71.9,79.9,71.8,80.2,71.2,80.2z M70.2,114.8c0.3,0,0.5-0.2,0.5-0.5l-0.5-0.2V114.8z M70.7,95.7c0.5,0.2,0.7,0,0.8-0.5
	c0.1-0.5-0.2-0.6-0.8-0.5C70.4,95.1,70.4,95.4,70.7,95.7z M70.5,37c0.3-0.3,0.5-0.2,0.7,0.2c0.3,0.5,0.5,0.6,0.7,0.5
	c0.2-0.2,0.5-0.2,0.9,0c1.4,0.5,1.8,1.5,1.2,3c0.3,0.2,0.7,0.3,1,0.5c0.4,0.2,0.6,0.4,0.6,0.7c-0.2,0.8-0.5,1-1.2,0.6
	c-0.6-0.4-1-0.2-1.2,0.6c-0.2-0.2-0.5-0.3-0.9-0.6c-0.5-0.2-0.9-0.4-1.3-0.6c-0.4-0.2-0.6-0.3-0.6-0.6c0-0.2,0.5-0.4,1.4-0.6
	c0.8-0.2,1.1-0.3,1-0.6c-0.1-0.2-0.3-0.5-0.6-0.9c-0.3-0.4-0.7-0.8-1.2-1.2C70.7,37.7,70.5,37.3,70.5,37z M70.5,49.5
	c0.5-0.3,1-0.5,1.7-0.7c0.7-0.2,1-0.5,0.8-0.9c-0.2-0.6-0.3-0.8-0.5-0.5l-0.5,0.9C71,48,70.5,48.4,70.5,49.5z M70.7,128
	c-0.2,0.6-0.1,0.8,0.2,0.5C71.2,128.1,71.2,128,70.7,128z M71.9,10c-0.6-0.5-0.9-0.4-0.9,0.2C71.6,10.2,71.9,10.2,71.9,10z
	 M71.4,86.2c0.8,0.3,1.2,0.1,1.2-0.7c0-0.8-0.5-1.1-1.4-0.9C71.2,85.2,71.2,85.7,71.4,86.2z M71.6,17.6c0.3,0.2,0.5,0,0.7-0.3
	c0.2-0.4,0.1-0.7-0.2-0.8C71.6,16.9,71.5,17.3,71.6,17.6z M71.6,89.4c0.3-0.6,0.8-0.8,1.4-0.5c0,0.5-0.2,0.7-0.5,0.8
	C72.2,89.9,71.9,89.7,71.6,89.4z M72.3,34.5c-0.5-0.3-0.6-0.5-0.5-0.5c0.2,0,0.2-0.2,0.2-0.7h1.2c0,0.3,0,0.7,0,1
	C73.2,34.8,72.9,34.8,72.3,34.5z M71.9,50.4c0.6,0,0.9-0.2,0.9-0.5C72.5,50,72.2,50.1,71.9,50.4z M74.9,126.6
	c0.3-0.6,0.3-0.9-0.1-0.9c-0.4,0-0.1-0.1,0.8-0.2c0.6-0.2,1.1-0.5,1.4-0.9c0.3-0.5,0.6-0.8,0.9-1.2c-0.6,0-0.9-0.2-0.8-0.5
	c0.1-0.3,0-0.6-0.3-0.9c0,0.5-0.1,0.9-0.3,1.4c-0.2,0.5-0.7,0.6-1.5,0.5c-0.3,0.2-0.3,0.4-0.1,0.8c0.2,0.4,0,0.4-0.8,0.1
	c-0.3-0.2-0.7-0.4-1-0.7c-0.4-0.3-0.7-0.1-1,0.7c0.9-0.3,1.5-0.1,1.6,0.7C73.6,126.2,74.1,126.6,74.9,126.6z M72.3,35.6
	c0.3,0,0.5,0.2,0.5,0.5C72.2,36.4,72,36.3,72.3,35.6z M72.8,12.6c-0.3,0-0.3,0.1,0,0.2l0.2-0.2c0,0.3,0.1,0.5,0.2,0.7
	c0.2-0.2,0.2-0.3,0.2-0.3c0-0.1,0.1-0.2,0.2-0.3H72.8z M72.8,11.4c-0.3,0.5-0.1,0.7,0.7,0.7C73.5,11.6,73.2,11.4,72.8,11.4z
	 M74.2,94.5c-0.8,0-0.9-0.2-0.5-0.5c0.5-0.3,0.7-0.6,0.7-0.9c-0.8,0-1.3,0.1-1.6,0.2c-0.2,0.3-0.2,0.6,0,0.9c0.2,0.3,0.2,0.6,0,0.9
	C73.4,95.2,73.9,95,74.2,94.5z M76,52.5c-0.5-0.2-1-0.3-1.7-0.5c-0.7-0.2-1.1,0.2-1.3,0.9c0,0.3,0.2,0.7,0.5,1.2
	c0.3,0.5,0.7,0.5,1.2,0c0.2-0.2,0.2-0.5,0.2-0.9C75,53,75.2,53,75.6,53C75.9,53,76,52.8,76,52.5z M74.9,120.1
	c-0.3,0.2-0.7,0.3-1.3,0.6c-0.5,0.2-0.7,0.7-0.3,1.3c0.6-0.2,1.1-0.5,1.4-0.9C74.9,120.6,75,120.3,74.9,120.1z M73.5,74
	c-0.3,0.3-0.3,0.5,0,0.6C73.8,74.6,73.8,74.4,73.5,74z M74.9,12.8c-0.5,0-0.8-0.1-0.9-0.2c0.3,0.3,0.3,0.6,0,0.9
	c-0.3,0.3-0.5,0.6-0.5,0.9c1.1-0.3,1.6,0,1.6,0.9c0.5-0.2,0.7-0.3,0.6-0.6c-0.1-0.2-0.2-0.5-0.5-0.7c-0.2-0.2-0.4-0.5-0.6-0.7
	C74.5,13.1,74.6,12.9,74.9,12.8z M74.2,45.3c0,0.3-0.1,0.5-0.3,0.5c-0.2,0-0.3,0.2-0.1,0.5h0.9C74.6,46,74.5,45.7,74.2,45.3z
	 M74.6,85.1c0-0.3,0-0.5,0.1-0.7c0.1-0.2,0.1-0.4,0.1-0.7c-0.6,0-0.9,0.2-0.9,0.6C73.9,84.6,74.2,84.9,74.6,85.1z M74.4,79
	c-0.3,0.8-0.2,1.4,0.5,1.8c0.6,0.5,1.3,0.4,2.1-0.2c0-0.8,0-1.6-0.1-2.4c-0.1-0.8-0.5-1.6-1.3-2.2c-0.2,0.6,0,1.2,0.3,1.6
	c0.4,0.5,0.3,1-0.3,1.6c-0.3-0.2-0.5-0.2-0.6,0C74.9,79.4,74.7,79.4,74.4,79z M74.9,66.8c0.2,0.3,0.3,0.5,0.5,0.7
	c0.2,0.2,0.2,0.4,0.2,0.7c-0.9,1.2-1.3,2.4-1.2,3.5c0.3-0.3,0.5-0.3,0.7,0c0.2,0.3,0.3,0.5,0.5,0.7c0.5,0.8,0.8,1,0.9,0.7
	c0.2-0.3,0.4-0.6,0.7-0.9c-0.8,0.2-1.2,0-1.3-0.3c-0.1-0.4,0-0.8,0.1-1.4c0.2-0.5,0.3-1.1,0.5-1.6c0.2-0.5,0.2-0.9,0.2-1
	c-0.3,0.2-0.6,0-0.8-0.5C75.7,66.8,75.3,66.7,74.9,66.8z M75.6,6.8c-0.8-0.5-1.2-0.2-1.2,0.9c0.3,0,0.5,0.1,0.5,0.2
	c0.2-0.3,0.3-0.5,0.6-0.6C75.7,7.3,75.7,7.1,75.6,6.8z M74.6,83.2c0.8,0.3,1.4,0.1,1.8-0.7c-0.3-0.3-0.7-0.4-1-0.3
	c-0.4,0.1-0.7,0.3-0.8,0.6V83.2z M74.9,22c0.5,0.5,0.9,0.6,1.4,0.5c0.2-0.8,0-1.2-0.6-1.3C75.1,21.1,74.9,21.4,74.9,22z M75.8,26.2
	c-0.6-0.2-0.9-0.7-0.9-1.6c0.3,0,0.6,0.2,0.9,0.5C76.1,25.3,76.1,25.7,75.8,26.2z M78.6,46.5c-0.5,0-0.7-0.2-0.8-0.6
	c-0.1-0.4-0.4-0.3-1,0.3c-0.3,0.3-0.5,0.7-0.7,1.2c-0.2,0.5-0.5,0.8-1.2,0.9c0.2,0.3,0.3,0.6,0.5,0.9c0.2,0.3,0.4,0.5,0.7,0.5
	c0.2-0.8,0.5-1.3,1.2-1.6C77.8,47.8,78.2,47.3,78.6,46.5z M74.9,74.4c0.5,0,0.6-0.2,0.3-0.5C75,73.7,74.9,73.8,74.9,74.4z
	 M79.5,91.1c0.8-0.5,1.1-0.5,1-0.2c-0.1,0.3,0.1,0.4,0.6,0.2c0-0.3,0.1-0.5,0.3-0.5c0.2,0,0.4-0.2,0.6-0.5c0.3-0.5,0.2-0.7-0.5-0.8
	c-0.6-0.1-1.1-0.2-1.4-0.3c-0.2-1.2-0.3-1.7-0.6-1.3c-0.2,0.4-0.8,0.6-1.7,0.6c-0.3-0.2-0.5-0.3-0.6-0.6c-0.1-0.2-0.3-0.3-0.6-0.1
	c-0.2,0.3-0.2,0.5-0.1,0.6c0.1,0.1,0.1,0.3,0.1,0.6c0.3,0.6,0.3,0.8-0.1,0.7c-0.4-0.2-0.7,0-1,0.5c0.3,0,0.5,0.2,0.5,0.6
	c0,0.4-0.2,0.6-0.5,0.6c0.8,0.5,1.2,0.3,1.4-0.3c0.2-0.7,0.6-1,1.4-1c0,0.3,0.1,0.7,0.2,1.3C78.7,91.5,79,91.5,79.5,91.1z
	 M76.5,83.4c-0.8,0.3-0.9,0.8-0.5,1.4c0.5-0.2,0.8-0.4,0.9-0.7C77.1,83.8,76.9,83.6,76.5,83.4z M76,74.4c-0.2,0.3-0.1,0.6,0.1,0.9
	c0.2,0.3,0.5,0.2,0.8-0.2c0.3-0.3,0.5-0.6,0.6-0.9c0.1-0.3,0.3-0.5,0.8-0.5c0.3,0.3,0.5,0.6,0.7,0.8c0.2,0.2,0.5,0.2,1.2-0.1
	c-0.3,1.1,0,1.5,0.9,1.2c0-0.8-0.4-1.4-1.2-1.8c-0.8-0.5-1.5-0.7-2.3-0.7c-0.3,0.3-0.5,0.6-0.7,0.9C76.8,74.3,76.5,74.4,76,74.4z
	 M77.6,130.5c-0.2-0.3-0.2-0.7,0-1.2c0.2-0.5,0.3-0.8,0.5-1.2c-0.3-0.3-0.7-0.3-1-0.1c-0.4,0.2-0.7,0.3-1,0.3c0.3,0.6,0.5,1,0.6,1.3
	C76.7,130,77,130.2,77.6,130.5z M76.9,122.2c-0.2,0.3,0,0.4,0.5,0.2c0.5-0.2,0.6-0.3,0.5-0.5C77.6,121.8,77.2,121.9,76.9,122.2z
	 M77.4,81.4c0.2,0.3,0.1,0.5-0.1,0.5c-0.2,0-0.3,0.2-0.3,0.5c0.5,0.2,0.8,0,1.2-0.5c-0.2-0.2-0.3-0.2-0.3-0.2
	C77.7,81.6,77.6,81.5,77.4,81.4z M77.6,10c-0.6,0-0.8,0.4-0.5,1.2c0.2,0,0.4,0.1,0.8,0.2c0.4,0.2,0.7,0.2,1,0.2
	c0.3,0,0.5-0.1,0.7-0.2c0.2-0.2,0.1-0.5-0.2-1.2c0.2,0-0.2,0.1-1,0.2C77.6,10.6,77.3,10.5,77.6,10z M79,83.7c-0.5,0.3-1,0.7-1.5,1.3
	c-0.5,0.5-0.6,1.2-0.1,2c1.1-0.2,1.6-0.8,1.6-1.8c0.2-0.6,0.4-1.1,0.7-1.5c0.3-0.4,0.4-0.9,0.2-1.5c-0.6-0.2-1,0-1.2,0.3
	C78.6,82.8,78.7,83.2,79,83.7z M79.5,66.6c0.3-0.8,0.1-1-0.7-0.8c-0.8,0.2-1.3,0.6-1.6,1c0.6,0.2,1.1,0.4,1.4,0.7
	C78.9,67.8,79.2,67.5,79.5,66.6z M78.1,24.3c-0.3,0.3-0.5,0.6-0.5,0.8c0,0.2-0.1,0-0.2-0.8H78.1z M78.6,43c0.2-0.5,0-0.7-0.3-0.8
	c-0.4-0.1-0.7,0-0.8,0.3c0.3,0,0.5,0.1,0.6,0.2C78.1,43,78.2,43,78.6,43z M77.6,7.7c0,0.5,0.2,0.7,0.5,0.7
	C78.1,7.8,77.9,7.6,77.6,7.7z M81.1,83c0.3-0.3,0.7-0.5,1.3-0.6c0.5-0.1,1-0.1,1.5-0.1c-0.2-0.5-0.4-0.8-0.7-1.2
	c-0.3-0.3-0.6-0.7-0.9-1.2c0-0.5-0.2-0.8-0.7-1.2c0-0.3,0.1-0.5,0.3-0.5c0.2,0,0.3-0.2,0.1-0.5c-1.1,0-1.8,0.1-2.3,0.2
	c-0.8,0.2-1.1,0-1-0.3c0.1-0.4-0.3-0.6-1-0.6c0,0.8,0.2,1.4,0.5,1.8c0.3,0.5,0.3,1,0,1.6c0.3,0,0.6-0.2,0.9-0.5
	c0.3-0.3,0.6-0.5,0.9-0.5c0-0.8,0.3-1.2,0.9-1.2c-0.3,0.6-0.3,1,0,1.2c0.3,0.2,0.6,0.4,0.9,0.7c0.5,0.2,0.5,0.5,0.2,1.2
	c-0.3,0.8-0.5,0.9-0.7,0.5C81.2,81.6,81.1,81.9,81.1,83z M77.9,53c-0.2,0.6-0.1,0.8,0.2,0.5C78.4,53.1,78.3,53,77.9,53z M78.1,121.8
	c0.3,0.2,0.6,0,0.9-0.3c0.3-0.4,0.3-0.7,0-0.8c-0.2,0.3-0.3,0.5-0.6,0.6C78.2,121.3,78.1,121.5,78.1,121.8z M82.9,46
	c-0.3-0.6-0.6-0.8-0.8-0.5c-0.2,0.3-0.6,0.5-1,0.5c-0.5-0.3-0.9-0.5-1.4-0.7C79.2,45.2,79,45.7,79,47c0.3,0,0.7-0.2,1.2-0.7
	c0.3-0.2,0.7,0,1.2,0.6c0.5,0.5,0.3,1-0.5,1.3c-0.2,0.2-0.5,0.2-0.9,0.1c-0.5-0.1-0.8-0.2-1.2-0.2c-0.3-0.1-0.5,0-0.6,0.1
	c-0.1,0.2,0.3,0.5,1,1.2c0.8,0.5,1.5,0.5,2.1,0.1c0.6-0.4,1.2-0.7,1.8-1c1.1-0.5,1.6-0.3,1.5,0.5c-0.1,0.8,0,1.2,0.3,1.4
	c0.9-0.9,1.2-1.9,0.7-3c-0.3-0.8-0.6-0.9-0.8-0.5c-0.2,0.5-0.7,0.6-1.3,0.5c-0.2-0.3-0.3-0.5-0.5-0.6C83,46.5,82.9,46.3,82.9,46z
	 M78.6,63.1c0.3,0,0.5-0.1,0.5-0.3c0-0.2-0.2-0.3-0.7-0.3c-0.2,0.3-0.1,0.7,0.2,1c0.3,0.4,0.4,0.7,0.2,0.8
	C79.2,63.8,79.2,63.4,78.6,63.1z M81.1,43.7c-1.1,0.3-1.9,0.2-2.5-0.5c-0.3,0.3-0.4,0.6-0.2,0.8c0.2,0.2,0.4,0.5,0.7,0.8
	c0.5-0.3,0.9-0.4,1.3-0.3C80.7,44.6,80.9,44.3,81.1,43.7z M79.2,18.3c-0.8,0.2-1,0.1-0.8-0.1c0.2-0.2,0.3-0.5,0.3-0.8
	C79.2,17.7,79.4,18,79.2,18.3z M78.6,89h0.7c0.2,0.5,0,0.7-0.5,0.6C78.3,89.5,78.2,89.3,78.6,89z M79,61.7c-0.5,0-0.6,0.2-0.5,0.5
	C79,62.2,79.2,62,79,61.7z M80.2,72.4c-0.2-0.6-0.4-0.9-0.7-0.8c-0.3,0.1-0.6,0.3-0.9,0.6c0.2,0,0.3,0,0.3,0.1
	c0.1,0.1,0.2,0.1,0.3,0.1c0.2-0.3,0.3-0.3,0.3,0C79.7,72.7,79.9,72.7,80.2,72.4z M78.8,75.8c0-0.2,0-0.3,0.1-0.6
	c0.1-0.2,0-0.3-0.3-0.1C78.6,75.4,78.6,75.7,78.8,75.8z M82,70.5c-0.3-0.8-0.9-1.2-1.8-1.3c-0.9-0.1-1.4,0.3-1.4,1
	c0.8-0.6,1.6-0.5,2.5,0.5c0.3,0.8,0.6,1.1,0.8,0.9C82.4,71.5,82.3,71.1,82,70.5z M79,8.6c0,0.5,0.2,0.7,0.6,0.6
	c0.4-0.1,0.6-0.3,0.6-0.6H79z M79,50.4c0.2,0.3,0.2,0.7,0.1,1.2c-0.1,0.5,0.1,0.6,0.6,0.5c0-0.2,0-0.5,0.1-1.2
	C79.9,50.3,79.6,50.1,79,50.4z M80.6,42.6c-0.8-0.2-1.1,0.1-0.9,0.7C80.2,43,80.5,42.7,80.6,42.6z M79.9,124.5
	c0,0.3,0.3,0.3,0.9,0.1c0.6-0.2,1.1-0.3,1.4-0.3c-0.2-0.6-0.3-1.3-0.6-2.1c-0.2-0.8-0.7-0.9-1.5-0.5c0,0.6,0.2,1,0.7,1
	c0.5,0.1,0.1,0.4-1.2,1C79.9,124,79.9,124.2,79.9,124.5z M80.6,35c0.2,0.3,0,0.5-0.5,0.6c-0.5,0.1-0.5,0-0.2-0.3h0.2
	c0.2,0,0.2,0,0.2-0.1C80.4,35,80.5,35,80.6,35z M80.2,63.6c0.5,0.5,0.7,0.9,0.6,1.4c-0.1,0.5-0.3,0.9-0.6,1.4
	c0.2,0.2,0.5,0.2,0.9,0.2c0-0.3,0.1-0.7,0.2-1c0.2-0.4,0.3-0.8,0.3-1.2c0.1-0.4,0-0.7-0.1-0.8C81.4,63.4,80.9,63.4,80.2,63.6z
	 M80.4,36.3c0.3-0.3,0.5-0.2,0.5,0.2s-0.2,0.6-0.5,0.5V36.3z M80.6,91.3c-0.2,0.2-0.2,0.4-0.1,0.7c0.1,0.3,0.2,0.3,0.3,0l-0.2-0.5
	V91.3z M80.6,92.2c-0.2,0.9,0.1,1.1,0.7,0.6c0.6-0.5,0.9-0.9,0.9-1c-0.3-0.2-0.6-0.1-0.8,0.1C81.2,92.1,80.9,92.2,80.6,92.2z
	 M91.9,88.7c0.5,0,0.7-0.2,0.8-0.6c0.1-0.4,0.3-0.5,0.8-0.3c-0.3-0.6-0.8-1-1.6-1.2c-0.8-0.2-1.4,0-1.8,0.5c0-1.1-0.4-1.8-1.2-2.3
	c-0.3,0.8-0.8,0.9-1.5,0.5c-0.7-0.5-1.3-0.4-1.7,0.2c-0.6-0.9-1.3-1.1-2-0.5c-0.7,0.6-1.3,1.2-1.7,1.8c-0.2-0.5-0.5-0.7-0.9-0.7
	c-0.3,0.8-0.3,1.3-0.1,1.5c0.2,0.2,0.6,0.3,1,0.3s0.9-0.1,1.3-0.2c0.4-0.2,0.6-0.4,0.6-0.7c-0.2-0.8,0.1-1,0.7-0.8
	c0.6,0.2,1.2,0.3,1.6,0.3c0.3,0,0.9-0.2,1.8-0.5c0.9-0.3,1.4-0.1,1.4,0.7c-0.9-0.3-1.6-0.2-2,0.5c-0.4,0.6-0.8,1.2-1.3,1.8
	c-0.6-0.2-1.2-0.2-1.8-0.2c-0.6,0-0.9,0.5-0.9,1.4c0.3,0.2,0.5,0.1,0.5-0.1c0-0.2,0.2-0.4,0.5-0.6c0.3,0.8,0.8,1.3,1.5,1.5
	c0.7,0.2,1.2,0.7,1.5,1.5c0.3-0.3,0.7-0.5,1.3-0.7c0.5-0.2,1-0.4,1.3-0.7c-0.3-0.2-0.5-0.3-0.7-0.6c-0.2-0.2-0.4-0.4-0.7-0.6
	c-0.3,0-0.6,0.2-0.9,0.5c-0.3,0.3-0.6,0.3-0.9,0c0-0.3,0.2-0.6,0.7-0.9c0.6-0.3,0.8-0.5,0.5-0.6c-0.3-0.1-0.5-0.3-0.5-0.8
	c0.3-0.2,1-0.2,2.1,0c1.1,0.2,1.5,0.1,1.4-0.2c-0.3-0.5-0.1-0.6,0.6-0.5C92.1,87.7,92.3,88.1,91.9,88.7z M81.8,1.2
	c-0.5-0.5-0.7-0.4-0.7,0.2C81.6,1.9,81.8,1.9,81.8,1.2z M81.8,12.3c0-0.2,0-0.4,0.1-0.7c0.1-0.3-0.1-0.4-0.6-0.2
	c0,0.3-0.1,0.5-0.2,0.7C81.2,12.3,81.5,12.3,81.8,12.3z M81.1,84.8c0.8,0,1-0.2,0.6-0.6C81.3,83.9,81.1,84.1,81.1,84.8z M81.3,6.8
	c0.6,0,0.9-0.2,0.9-0.5c0-0.3-0.2-0.5-0.7-0.5C81.6,6.3,81.5,6.6,81.3,6.8z M81.8,43.3c0,0.5-0.2,0.7-0.5,0.7c0.8,0,1.1-0.1,1-0.3
	C82.3,43.4,82.1,43.3,81.8,43.3z M82,28c-0.6,0-0.8-0.2-0.6-0.7c0.2-0.5,0.6-0.6,1-0.5c0.3,0.2,0.4,0.4,0.2,0.7
	C82.6,27.9,82.3,28,82,28z M82.2,41.2c-0.5-0.2-0.7,0.1-0.7,0.7C82,41.9,82.2,41.6,82.2,41.2z M81.8,58.7c0.3,0,0.5-0.1,0.6-0.2
	c0.1-0.2,0-0.3-0.3-0.5c0,0.2,0,0.3-0.1,0.3C81.8,58.5,81.8,58.6,81.8,58.7z M82,72.4c0.8,0.9,1.3,1.1,1.5,0.6
	c0.2-0.5,0.3-1.2,0.2-2.1c-0.1-0.8-0.3-1.5-0.7-2.1c-0.4-0.5-0.8-0.3-1.3,0.6c0.6,0.2,1.1,0.8,1.4,1.8c0.2,0.8,0.1,1.1-0.2,0.9
	C82.6,72,82.3,72,82,72.4z M83.6,66.8c-0.2,0-0.4,0-0.8-0.1c-0.4-0.1-0.7,0-0.8,0.3c0.6,0,0.7,0.2,0.2,0.7c0.6,0,1,0,1.2,0.1
	C83.6,67.9,83.6,67.6,83.6,66.8z M84.6,41.4c-0.2,0.3-0.7,0.6-1.6,0.9c-0.9,0.3-0.8,0.6,0.2,0.9c0.3,0.2,0.8,0.3,1.4,0.6
	c0.6,0.2,0.5,0.5-0.2,0.8c-0.8,0.3-1,0.6-0.8,0.9c0.2,0.3,0.7,0.3,1.5,0c0.6-0.3,0.8-0.8,0.6-1.4c-0.2-0.6-0.1-1.2,0.3-1.6
	c0.6,0.3,0.9,0.7,0.8,1.3c-0.1,0.5,0.1,1,0.6,1.3c0.2-0.5,0.1-1-0.2-1.7c-0.3-0.7-0.3-1.1,0-1.3c0.3-0.2,0.7-0.2,1.2-0.2
	c0.5,0,0.8-0.2,0.9-0.7c-0.3,0-0.6-0.2-0.9-0.5c-0.2,0.2-0.3,0.3-0.5,0.3c-0.2,0.1-0.3,0.2-0.5,0.3C86.3,41.9,85.3,41.9,84.6,41.4z
	 M84.3,81.1c1.4-0.3,2.2-1,2.3-2.1c-0.3,0-0.8,0.3-1.4,0.9c-0.6,0.6-1,0.5-1.2-0.2c-0.2-0.8-0.2-1.3-0.1-1.5
	c0.1-0.2-0.3-0.1-1.3,0.3C82.9,79.4,83.4,80.2,84.3,81.1z M82.7,96.4c0.3,0.2,0.5,0,0.5-0.3c0-0.4-0.2-0.5-0.5-0.3V96.4z
	 M83.2,124.1c-0.3,0.3-0.3,0.5-0.1,0.6c0.2,0.1,0.3,0.3,0.3,0.6c0.3,0,0.5,0,0.6-0.1c0.1-0.1,0.3-0.1,0.6-0.1
	C84.2,124.4,83.8,124.1,83.2,124.1z M86.4,35.2c-0.3-0.3-0.4-0.7-0.2-1.3c0.2-0.5,0-0.9-0.5-1c0,0.8-0.5,1.6-1.5,2.5
	c-1,0.9-1.4,1.8-1.3,2.5c0.3,1.1,0.6,1.3,0.8,0.7c0.2-0.6,0.4-0.9,0.6-0.9c0.6,0,0.8,0.4,0.7,1.3c-0.2,0.8-0.3,1.4-0.5,1.7h1.8
	c0.2-0.8,0.7-1.3,1.6-1.6c-0.2,0.2-0.1,0.4,0.2,0.7c0.3,0,0.5-0.2,0.7-0.5c0.2-0.3,0.3-0.5,0.5-0.7c-0.3-0.3-0.6-0.6-0.9-0.8
	c-0.3-0.2-0.6-0.5-0.9-0.8c0.2-0.3,0.3-0.5,0.6-0.6c0.2-0.1,0.4-0.3,0.6-0.6c0.3-0.9,0.1-1.3-0.7-1C87.2,35.1,86.7,35.2,86.4,35.2z
	 M83.2,62.9c0.3,0.3,0.2,0.5-0.2,0.5c0,0.2,0.1,0.5,0.2,1.2c0.2,0.6,0.4,0.6,0.7,0c-0.3-0.2-0.4-0.4-0.3-0.7
	C83.6,63.5,83.5,63.2,83.2,62.9z M85,28.9c0,0.8-0.3,1.2-0.9,1.2c-0.6,0-0.9-0.4-0.9-1.2C83.6,28.5,84.2,28.5,85,28.9z M83.9,126.6
	c-0.5,0.3-0.7,0.7-0.7,1.2C83.9,127.8,84.2,127.4,83.9,126.6z M83.2,133.1c0.3,0.3,0.7,0.3,1.3,0.1c0.5-0.2,0.8-0.5,0.8-0.8
	C84.2,131.8,83.5,132,83.2,133.1z M84.1,100.1c0.3-0.2,0.4-0.5,0.3-1c-0.1-0.5-0.3-0.8-0.6-0.8c-0.2,0.3-0.3,0.7-0.3,1.2
	C83.4,99.8,83.6,100.1,84.1,100.1z M83.6,54.6c0.3,0.3,0.5,0.3,0.5,0C84.1,54.3,83.9,54.3,83.6,54.6z M83.6,65
	c0,0.3,0.2,0.6,0.5,0.8c0.3,0.2,0.5,0.2,0.7-0.1c-0.3-0.3-0.5-0.5-0.6-0.5C84.1,65.2,83.9,65.1,83.6,65z M83.6,122.7
	c0,0.5,0.2,0.7,0.7,0.7C84.3,122.9,84.1,122.7,83.6,122.7z M84.3,50.9c0.2,0,0.2-0.2,0.1-0.5c-0.1-0.3-0.2-0.3-0.3,0
	C84.1,50.7,84.2,50.9,84.3,50.9z M85.3,84.1c-0.3,0-0.6,0-0.8,0.1c-0.2,0.1-0.1,0.2,0.3,0.3C84.8,84.3,84.9,84.1,85.3,84.1z
	 M84.3,27.1c0.5,0,0.6,0.1,0.3,0.3C84.4,27.7,84.3,27.6,84.3,27.1z M86.9,77.4c0-0.3,0.1-0.6,0.2-0.9c0.2-0.3-0.2-0.4-0.9-0.2
	c-0.2,0.5-0.4,0.6-0.8,0.3c-0.4-0.2-0.7-0.2-0.8,0.1c0.3,0.2,0.7,0.3,1,0.5C86,77.4,86.4,77.4,86.9,77.4z M84.6,95.7
	c0.8,0.6,1.4,0.5,2-0.3c0.5-0.8,0.8-1.6,0.8-2.2c-0.9,0-1.4,0.5-1.4,1.4C85,94.5,84.6,94.9,84.6,95.7z M85.3,68.9
	c-0.2-0.3-0.1-0.4,0.2-0.3c0.3,0.1,0.5,0,0.5-0.1c0.2-0.2,0-0.3-0.3-0.3C85.2,68,85,68,85,68.2C84.6,68.7,84.6,68.9,85.3,68.9z
	 M86.6,74.4c0-1.2-0.3-1.7-1-1.4c-0.7,0.3-1,0.8-0.8,1.4H86.6z M86.4,69.8c-0.6-0.3-1-0.5-1.2-0.7c-0.2,0.3-0.2,0.6,0,0.8
	c0.2,0.2,0.1,0.4-0.2,0.6c0.2,0,0.2,0.1,0.1,0.3c-0.1,0.2,0,0.3,0.3,0.3C85.8,70.9,86.1,70.4,86.4,69.8z M85.7,127.1
	c0.2-0.3,0.2-0.6,0.1-0.8c-0.1-0.2-0.3-0.3-0.6-0.1C85.1,126.8,85.3,127.1,85.7,127.1z M85.5,125c0.3,0.2,0.5,0.1,0.5-0.2
	c0-0.3,0.2-0.3,0.5,0c-0.2-0.6,0.1-1.2,0.7-1.6c0.6-0.5,0.5-0.8-0.2-1.2c-0.2,0.3-0.3,0.7-0.3,1c-0.1,0.4-0.4,0.7-1,1
	c0,0.2,0.1,0.3,0.2,0.5C85.9,124.7,85.8,124.8,85.5,125z M88.3,82.7c0-0.3,0-0.7,0.1-1.3c0.1-0.5-0.1-0.8-0.6-0.8
	c-0.3,0.2-0.4,0.4-0.3,0.8c0.1,0.4,0,0.7-0.3,1c-0.5-0.8-0.8-0.8-1.2-0.2c-0.3,0.6-0.3,1.2,0,1.6c0.3,0.3,0.6,0.1,0.9-0.6
	C87.2,82.6,87.6,82.4,88.3,82.7z M87.1,24.6c-0.8-0.5-1.2-0.9-1.4-1.4c0.3-0.3,0.6-0.3,0.8-0.1c0.2,0.2,0.5,0.3,0.8,0.3
	C87.3,23.9,87.2,24.3,87.1,24.6z M85.9,97.3c0.6,0,1.2,0,1.8,0.1c0.6,0.1,0.9-0.3,0.9-1c-0.5-0.3-1.1-0.4-1.8-0.3
	C86.1,96.1,85.8,96.5,85.9,97.3z M85.9,128.5c0,0.5,0.1,0.6,0.2,0.5c0.2-0.2,0.4-0.2,0.7-0.2c0-0.5-0.1-0.6-0.2-0.5
	C86.5,128.4,86.3,128.5,85.9,128.5z M86.2,68.2c0,0.3,0.1,0.5,0.3,0.5c0.2,0,0.5-0.2,0.8-0.5c-0.3,0-0.5-0.1-0.6-0.2
	C86.7,67.8,86.5,67.9,86.2,68.2z M86.4,7c0,0.3,0.1,0.5,0.2,0.7c0-0.3,0.2-0.5,0.5-0.5C86.9,7.1,86.7,7,86.4,7z M87.3,13.5
	c0.5-0.5,0.4-0.8-0.1-1.2c-0.5-0.3-0.8-0.2-0.8,0.5C86.6,13.3,86.9,13.5,87.3,13.5z M89.4,9.3c-0.5,0.5-0.9,0.5-1.4,0.1
	c-0.5-0.4-0.9-0.3-1.4,0.3c0.8,0.2,1.3,0.5,1.5,0.9c0.2,0.5,0.3,0.9,0.3,1.4c0,0.5,0,0.9,0,1.3c0,0.4,0.2,0.7,0.7,0.8
	c-0.2-0.3-0.2-0.4,0-0.3c0.2,0.1,0.2,0,0.2-0.3c-0.3,0.2-0.5,0-0.5-0.6c0-0.5,0.2-0.8,0.5-0.8c0,0.3,0.1,0.7,0.2,1.2
	c0.2,0.5,0.4,0.7,0.7,0.7c0.2,0.2,0.4,0.2,0.7,0.1c0.3-0.1,0.5,0,0.5,0.1c-0.5,0.2-0.5,0.3-0.2,0.6c0.3,0.2,0.6,0.3,0.9,0.3
	c0.3-0.6,0.5-1.2,0.5-1.8c0-0.6,0.2-1.2,0.7-1.6c0.3,0.8,0.6,1.3,0.9,1.5c0.3,0.2,0.8,0,1.6-0.8c0.3-0.5,0.5-0.6,0.7-0.3
	c0.2,0.2,0.5,0.2,0.9-0.1c0.6-0.3,0.8-0.7,0.6-1.3c-0.2-0.5-0.4-1-0.6-1.3c0.8,0.2,0.9-0.1,0.3-0.7c-0.5-0.6-1-0.9-1.5-0.9
	c-0.8,0.5-1.1,1.2-0.9,2.2c0.2,1-0.3,1.7-1.4,2c0-1.7-0.4-2.4-1.3-2.2C91.9,9.9,91,10,90.1,10c0.3-0.3,0.3-0.6,0.1-0.8
	C90,9,89.7,9,89.4,9.3z M88,127.5c-0.2,0.8-0.4,1.4-0.7,1.8c-0.3,0.5-0.5,1-0.7,1.6c0.6,0.3,1.2,0.3,1.7,0.1c0.5-0.2,1-0.6,1.3-1
	c-0.8-0.3-1.1-0.7-1-1.3C88.7,128.3,88.5,127.8,88,127.5z M87.1,46c0,0.5,0.1,0.7,0.2,0.6c0.2-0.1,0.3-0.1,0.5-0.1
	c0-0.5-0.1-0.7-0.2-0.6C87.4,46,87.2,46,87.1,46z M88.7,79c-0.3-0.3-0.7-0.4-1-0.2c-0.4,0.2-0.6,0.4-0.6,0.7c0.3,0.3,0.7,0.4,1,0.2
	C88.5,79.6,88.7,79.4,88.7,79z M87.6,26.2c0.9,0.6,1,0.9,0.3,0.8C87.2,26.9,87.1,26.6,87.6,26.2z M103.5,64.5
	c0.6-1.5,0.8-2.8,0.5-3.9c-0.2-0.3-0.2-0.6-0.2-0.9c0-0.3-0.2-0.7-0.5-1.2c-0.3-0.6-0.3-1,0-1.2c0.3-0.2,0.4-0.4,0.2-0.7
	c-0.6,0.2-0.9,0.1-0.9-0.2c0-0.3,0.2-0.6,0.5-0.9c0.6-0.8,0.7-1.2,0.2-1.2c-0.5,0-0.8-0.1-1.2-0.2c-0.3-0.2-0.5-0.3-0.7-0.6
	c-0.2-0.2-0.4-0.4-0.7-0.6c-0.8-0.3-1-0.2-0.8,0.5c0.2,0.6,0,0.8-0.6,0.7c-0.5-0.3-0.7-0.6-0.8-0.8c-0.1-0.2-0.5-0.2-1.3,0.1
	c-0.3,0.3-0.7,0.3-1,0c-0.4-0.3-0.8-0.4-1.3-0.2c-0.5,0-0.9,0.1-1.4,0.2c-0.5,0.2-0.9,0.3-1.4,0.5c-0.8,0.3-1.1,0.6-1,0.8
	c0.1,0.2-0.2,0.5-0.8,0.8c-1.2,0.8-2,2.2-2.3,4.2c-0.2,0.8-0.2,1.5-0.1,2.2c0.1,0.7,0.2,1.4,0.3,2.2c0.3,1.1,0.8,1.9,1.6,2.4
	c0.8,0.5,1.5,1.2,2.1,2c0.5,0.2,1,0.3,1.6,0.5c0.6,0.2,0.7,0.6,0.2,1.4c-0.8,0.8-1.3,0.8-1.6,0.2c-0.3-0.6-0.7-1-1.2-1.2
	c-0.3,0.5-0.3,0.8,0,1.2c0.2,0.6,0,1-0.5,1.2c-0.3,0.3-0.4,0.7-0.2,1.2c0.2,0.5,0.2,0.9,0,1.4c-0.5-0.3-0.7-0.3-0.6,0.1
	c0.1,0.4,0,0.6-0.3,0.6c-0.5,0-0.8-0.2-0.9-0.7c-0.2-0.5-0.5-0.5-1.2-0.2c0.3,0.3,0.5,0.7,0.7,1.2c0.2,0.5,0.4,0.8,0.7,1.2
	c0.3,0.5,0.6,1,0.9,1.6c0.8,0.5,0.7,0.8-0.2,1.2c0.8,0.8,1.5,1.1,2.3,0.9c0.8-0.2,1-0.8,0.7-2.1c-0.2-0.5-0.2-0.9-0.2-1.4
	s-0.2-0.7-0.7-0.7c-0.3-0.2-0.7-0.2-1.3-0.1c-0.5,0.1-0.8,0-0.8-0.3c0.6-0.2,1-0.5,1.2-1.2c0.2-0.6,0.3-1.2,0.5-1.6
	c0.5-0.9,1-1.2,1.6-0.7c0.6,0.5,1.3,0.4,2.1-0.2c0.2,0.8,0.7,1.2,1.5,1.2c0.8,0,1.3-0.4,1.5-1.2c-1.4-0.6-2.4-1.4-3-2.3
	c0.9-0.5,1.9-0.5,3-0.2c0.8,0,1.2-0.1,1.3-0.3c0.1-0.2,0.5-0.4,1.3-0.6c0.8-0.3,1.4-0.8,1.8-1.6c0.2-0.3,0.2-0.7,0.2-1.2
	C102.6,65.3,103,65,103.5,64.5z M87.3,120.6c0.5,0,0.6-0.1,0.3-0.3C87.4,120,87.3,120.1,87.3,120.6z M88.5,134.9
	c0.5,0,0.9,0,1.4-0.1c0.5-0.1,0.6-0.4,0.5-1c-0.6,0-1.1-0.1-1.5-0.2c-0.4-0.2-0.9-0.3-1.5-0.5c0.2,0.5,0.4,0.8,0.7,1
	C88.3,134.3,88.5,134.6,88.5,134.9z M88.3,68.4c0,0.3,0.2,0.8,0.5,1.4c-0.8-0.2-1.1,0.1-0.9,0.7c0.2,0.6,0.3,1.2,0.5,1.6
	c0.3-0.3,0.4-0.7,0.3-1c-0.1-0.4-0.1-0.7-0.1-1c0.9,0,1.3-0.4,1.2-1.2C89.5,68.1,89,68,88.3,68.4z M87.8,48.3c0.6,0,0.8-0.1,0.5-0.3
	C87.9,47.8,87.8,47.9,87.8,48.3z M88,93.6c0.9,0.3,1.4,0.1,1.4-0.7c-0.5,0-0.7,0-0.8,0c-0.1,0-0.3-0.1-0.6-0.2V93.6z M88.3,78.1
	c0.2,0,0.4-0.2,0.7-0.5C88.5,77.7,88.3,77.8,88.3,78.1z M90.8,41.2c-0.3,0.3-0.7,0.7-1.2,1.2c-0.5,0.5-0.5,0.8,0,1.2
	c0,0.3-0.3,0.5-0.9,0.5c-0.6,0-0.4,0.2,0.7,0.7c0.3,0.3,0.4,0.9,0.2,1.7c-0.2,0.8,0.3,1.2,1.4,1c0.2-0.5,0.1-0.9-0.1-1.4
	c-0.2-0.5-0.3-0.8-0.3-1.2c-0.2-0.9,0.1-1.3,0.7-1.3c0.6,0.1,1,0,1.2-0.3c0-0.3-0.3-0.4-0.9-0.2c-0.6,0.2-1.1,0.2-1.4,0
	c0.3-0.9,0.8-1.3,1.4-1.2c0.6-0.6,0.9-1.2,0.9-1.8c-0.3-0.3-0.7-0.7-1.2-1c-0.5-0.4-0.8-0.2-0.9,0.6c0.6,0.2,0.9,0.4,0.9,0.8
	C91.3,40.8,91.1,41,90.8,41.2z M88.9,22.7c0.5,0,0.7-0.3,0.8-0.8c0.1-0.5-0.2-0.8-0.8-0.8c-0.2,0.3-0.3,0.6-0.3,0.9
	C88.5,22.3,88.6,22.6,88.9,22.7z M89.4,81.1c0-0.2,0-0.5,0-0.9c0-0.5-0.2-0.4-0.7,0.2C88.7,80.9,88.9,81.1,89.4,81.1z M88.9,83.2
	c0.8,0,0.9-0.2,0.5-0.5C88.9,82.4,88.8,82.6,88.9,83.2z M90.3,49.5c0.2-0.3,0.4-0.4,0.7-0.3c0.3,0.1,0.5,0.2,0.7,0.3
	c0.2-0.8-0.1-1.1-0.7-1c-0.6,0.1-1.1,0-1.4-0.3c0,0.6-0.2,1.1-0.5,1.4c0.5,0.2,0.7,0.3,0.7,0.3C89.9,49.9,90,49.8,90.3,49.5z
	 M89.4,95.9c0.8,0,0.9-0.2,0.5-0.6C89.4,94.9,89.3,95.1,89.4,95.9z M90.6,35.2c-0.5,0-0.8,0.3-1,0.8c-0.2,0.5-0.1,0.9,0.3,1
	c0-0.3,0.1-0.6,0.3-0.9C90.4,35.8,90.6,35.5,90.6,35.2z M89.9,123.6c0,0.3,0.1,0.5,0.2,0.7c0-0.2,0-0.3,0.1-0.6
	C90.3,123.5,90.2,123.5,89.9,123.6z M90.3,93.4c-0.2,0.5,0,0.7,0.3,0.7c0.4,0,0.6-0.2,0.6-0.7c-0.3-0.2-0.5-0.2-0.5-0.1
	C90.8,93.3,90.6,93.4,90.3,93.4z M90.3,11.9c0.3-0.3,0.4-0.5,0.2-0.5c-0.2,0-0.1-0.2,0.2-0.5c0.3,0.2,0.4,0.3,0.2,0.6
	C90.9,11.8,90.6,11.9,90.3,11.9z M91.9,134.5c0-0.3,0-0.6,0.1-0.8c0.1-0.2,0.1-0.5,0.1-0.8c-0.3,0-0.6-0.1-0.8-0.2
	c-0.2-0.2-0.5-0.1-0.8,0.2c-0.3,0.5-0.2,0.8,0.2,1.2C91.3,134.3,91.6,134.5,91.9,134.5z M90.6,78.4c-0.2-0.3-0.2-0.5,0-0.6
	c0.2-0.1,0.2-0.3,0.2-0.6c0.5,0.5,0.7,0.8,0.7,0.9c0.2,0.3,0.1,0.4-0.2,0.2C90.9,78.2,90.7,78.2,90.6,78.4z M90.6,115.3
	c0.3,0.3,0.5,0.3,0.5-0.1C91,114.8,90.9,114.8,90.6,115.3z M91.5,136.8c0.2-0.9,0-1.5-0.5-1.8C90.4,135.8,90.6,136.5,91.5,136.8z
	 M93.1,33.3c-0.6,0-0.9,0.3-0.8,1c0.1,0.7,0.3,1.2,0.6,1.5c-0.3,0-0.5,0.1-0.5,0.2c0,0.2-0.2,0.2-0.5,0.2c-0.3,0-0.5-0.1-0.6-0.3
	c-0.1-0.2-0.3-0.3-0.6-0.1c-0.3,1.1-0.1,2,0.7,2.8c0.3-0.5,0.6-0.6,0.9-0.5c0.2-0.3,0.2-0.5,0-0.6c-0.2-0.1-0.2-0.3-0.2-0.6
	c0.8,0,1.2-0.7,1.4-2C93.7,33.8,93.6,33.2,93.1,33.3z M90.8,12.6c0-0.3,0.1-0.3,0.2-0.1c0.2,0.2,0.3,0.3,0.5,0.1
	c-0.3,0.6-0.2,0.9,0.2,0.9c0,0.5-0.2,0.4-0.6-0.1C90.8,12.8,90.6,12.6,90.8,12.6z M91.5,90.4c0-0.6-0.2-0.8-0.7-0.7
	C90.8,90.1,91,90.4,91.5,90.4z M92.2,130.1c0.3-0.6,0.1-1.3-0.7-2.1c0,0.3-0.1,0.4-0.3,0.3c-0.2-0.1-0.3,0-0.3,0.3
	c0.3,0.3,0.5,0.5,0.7,0.7C91.6,129.5,91.9,129.8,92.2,130.1z M92.9,120.8c-0.3,0-0.6-0.1-0.9-0.2c-0.3-0.2-0.5,0-0.7,0.5
	C91.9,121.7,92.4,121.6,92.9,120.8z M92.2,47.4c0.5-0.3,0.7-0.9,0.7-1.8c-0.8,0-1.2,0.5-1.4,1.4C91.9,47,92.2,47.1,92.2,47.4z
	 M92.4,51.6c-0.2-0.3-0.3-0.5-0.6-0.5c-0.2,0-0.3,0.2-0.3,0.5c0.2,0.3,0.3,0.5,0.6,0.5C92.3,52,92.4,51.9,92.4,51.6z M97.7,84.1
	c0.6-0.2,1.1-0.7,1.5-1.6c0.4-0.9,0.9-1.3,1.5-1.2c0-0.2-0.3-0.4-0.9-0.7c0,0.3-0.3,0.7-0.8,1c-0.5,0.4-1,0.3-1.3-0.3
	c0.3-0.3,0.8-0.6,1.4-0.8c0.6-0.2,1-0.4,1.2-0.6c0.3-0.3,0.3-0.5-0.1-0.6c-0.4-0.1-0.7-0.1-1-0.1c-0.8,0.2-1.1,0.1-0.9-0.1
	c0.2-0.2,0-0.5-0.5-0.8c0.5,0,0.8-0.1,1-0.3c0.2-0.2,0.1-0.5-0.3-0.8c-0.2,0-0.4,0.2-0.7,0.5c-0.3,0.3-0.5,0.5-0.7,0.7
	c0-0.3-0.2-0.6-0.7-0.9c-0.2,0.5-0.6,0.7-1.4,0.7c-0.6,0-0.9,0.2-0.9,0.5c0,0.3,0,0.8,0,1.4c-0.2,0.5-0.4,0.8-0.7,1
	c-0.3,0.2-0.5,0.5-0.5,0.8c0.3,0.6,0.2,0.8-0.2,0.6c-0.5-0.2-0.8-0.3-1.2-0.3c0,0.6,0,1.2,0,1.8c0,0.6,0.1,1.2,0.2,1.8
	c1.2-0.2,1.5-0.5,0.9-1.2c-0.6-0.6-0.7-1.1-0.2-1.4c0.6-0.3,1.1,0,1.5,1c0.4,1,0.6,1.7,0.6,2c0.6,0.5,1.3,0.5,2.1,0
	c0.8-0.3,1.1-0.5,0.9-0.7C97.3,85.4,97.4,84.9,97.7,84.1z M92.2,127.1c0.2-0.3,0.2-0.5,0.2-0.6c0-0.1-0.2-0.1-0.7-0.1
	C91.7,126.8,91.9,127.1,92.2,127.1z M91.9,49.3c0,0.3,0.2,0.5,0.5,0.5C92.4,49.4,92.3,49.3,91.9,49.3z M92.6,132.6
	c-0.2,0.8-0.1,1,0.2,0.7C93.2,133,93.1,132.8,92.6,132.6z M92.6,43.7c0.3,0.3,0.5,0.2,0.5-0.2s-0.2-0.5-0.5-0.2V43.7z M94.3,75.4
	c-0.2,0.5-0.5,0.8-1,1c-0.5,0.2-0.7,0.7-0.3,1.3c0.8-0.5,1.3-0.8,1.7-1c0.4-0.2,0.6-0.5,0.6-0.7C95.2,75.7,94.9,75.5,94.3,75.4z
	 M95.2,39.1c-0.8,0.2-1.3,0.5-1.5,1.2c-0.2,0.6-0.5,1.2-0.8,1.6c0.3,0.3,0.5,0.6,0.7,0.8c0.2,0.2,0.4,0.5,0.7,0.8
	c0.3,0.3,0.6,0.3,0.9,0.1c0.3-0.2,0.3-0.5,0-0.8c-0.3-0.5-0.5-0.7-0.5-0.6c0,0.1-0.1-0.2-0.2-0.8c0-0.2-0.2-0.5-0.5-1.2
	C94.5,40.3,94.9,39.9,95.2,39.1z M94.7,120.1c-0.2-0.2-0.4,0-0.8,0.6c-0.4,0.5-0.7,1-1,1.3c0.6,0.3,1.2,0.5,1.8,0.5
	c0-0.3,0.1-0.7,0.2-1.3C95.1,120.6,95,120.3,94.7,120.1z M93.6,7.9c0,0.2-0.1,0.2-0.2,0.2c-0.2,0-0.2,0.2,0,0.5
	c0.3,0.2,0.6,0,0.9-0.5c-0.2,0-0.3,0-0.3-0.1C93.8,8,93.7,7.9,93.6,7.9z M93.8,91.1c0-0.5-0.2-0.5-0.5-0.2v0.2H93.8z M93.6,73.5
	c-0.3,0.3-0.2,0.7,0.5,1.3c0.6,0.5,1.1,0.7,1.4,0.3c0-0.3-0.2-0.8-0.6-1.5C94.4,72.9,94,72.9,93.6,73.5z M93.6,118.3
	c0,0.8,0.2,1,0.5,0.7C94.3,118.7,94.2,118.5,93.6,118.3z M93.6,129.1c0.6-0.2,1-0.4,1-0.7c0.1-0.3,0-0.5-0.1-0.7
	c-0.2-0.2-0.3-0.2-0.6,0C93.7,127.9,93.6,128.4,93.6,129.1z M95.9,45.3c-0.5,0-0.5-0.2-0.2-0.5c0.3-0.3,0.4-0.6,0.2-0.9
	c-0.3,0-0.7,0.1-1.2,0.3c-0.5,0.2-0.8,0.6-0.9,1c0,0.2,0.2,0.3,0.7,0.5c0.5,0.2,0.5,0.4,0,0.7c0.5,0.2,0.7,0.1,0.8-0.2
	C95.4,46,95.6,45.7,95.9,45.3z M94.7,126.4c0-0.5-0.3-0.6-0.9-0.5c0,0.3,0.1,0.5,0.2,0.7C94.2,126.8,94.4,126.7,94.7,126.4z
	 M93.8,130.8c0,1.1,0.4,1.7,1.2,1.8c0-0.2,0-0.3-0.1-0.3c-0.1-0.1-0.1-0.2-0.1-0.3c0.2-0.5,0.1-0.7-0.1-0.7
	C94.4,131.2,94.1,131.1,93.8,130.8z M94.3,37.3c0,0.5,0.4,0.8,1.2,1.2c-0.2-0.3-0.3-0.6-0.3-0.8C95,37.4,94.7,37.3,94.3,37.3z
	 M95.4,81.4c-0.6,0-1-0.1-1.2-0.2c0-0.3,0.2-0.4,0.7-0.3C95.4,80.9,95.6,81.1,95.4,81.4z M95.6,84.6c0.8,0,0.9,0.4,0.5,1.2
	c-0.8-0.2-1.2-0.5-1.3-1.2c-0.1-0.6-0.3-1.2-0.6-1.6c0.3-0.3,0.5-0.3,0.7,0c0.2,0.3,0.4,0.5,0.7,0.5C95.5,83.9,95.5,84.3,95.6,84.6z
	 M95.9,38.6c-0.2-0.2-0.4-0.1-0.7,0.2c0.3,0,0.4,0.1,0.3,0.2c-0.1,0.2,0,0.2,0.3,0V38.6z M95.9,11.9c0-0.3-0.2-0.5-0.5-0.5
	c0.3-0.3,0.5-0.6,0.7-0.8c0.2-0.2,0.1-0.6-0.2-1c0.6-0.3,1-0.5,1.2-0.5c0.3,0.6,0.2,1.1-0.2,1.4C96.3,10.8,96,11.3,95.9,11.9z
	 M95.6,115.8c-0.3,0.6-0.2,0.8,0.5,0.5c0.2-0.3,0.1-0.4-0.1-0.3C95.8,116,95.6,115.9,95.6,115.8z M97,128c0.2-0.5,0-0.7-0.3-0.8
	c-0.4-0.1-0.7,0-1,0.3C95.9,128,96.4,128.1,97,128z M96.6,80.7c-0.6-0.3-0.9-0.7-0.8-1c0.1-0.4,0.3-0.7,0.6-1c0.3,0,0.5,0.3,0.5,0.8
	C96.8,79.9,96.7,80.4,96.6,80.7z M98.9,39.3c0,0.6-0.2,1-0.5,1.2c-0.3,0.2-0.6,0.4-0.9,0.7c0-0.5,0.3-1,0.8-1.6
	c0.5-0.6,0.4-1.1-0.3-1.4c0,0.6-0.3,1-0.8,1.2c-0.5,0.2-1,0.5-1.3,0.9c0.3,0.3,0.4,0.7,0.2,1.3c-0.2,0.5-0.1,0.8,0.2,0.8
	c0.2-0.2,0.2-0.3,0.2-0.3c0-0.1,0.1-0.2,0.2-0.3c0.3-0.3,0.5-0.4,0.7-0.2c0.2,0.2,0.4,0.2,0.7,0.2c0.5-0.2,0.8-0.5,1.2-1.2
	C99.6,39.9,99.5,39.5,98.9,39.3z M96.1,44.4c-0.2,0.6-0.1,0.8,0.2,0.5C96.6,44.6,96.6,44.4,96.1,44.4z M96.8,28.9
	c0.3-0.6,0.1-0.8-0.7-0.5C96.1,28.8,96.3,28.9,96.8,28.9z M96.6,123.4c-0.2-0.3-0.1-0.5,0.2-0.5c0.3,0,0.4-0.2,0.2-0.7
	c-0.2,0.2-0.5,0.2-0.9,0.2C96.1,122.9,96.3,123.2,96.6,123.4z M99.1,11.2c0,0.8-0.3,1.3-0.9,1.5c-0.6,0.2-0.8,0.7-0.5,1.5
	c-0.6,0-1.1,0.1-1.4,0.2c0.2,0.3,0.3,0.7,0.3,1c0.1,0.4,0.1,0.8,0.1,1.2c0,0.4,0.1,0.7,0.3,1c0.2,0.3,0.6,0.4,1,0.2
	c0-0.3-0.1-0.5-0.3-0.7c-0.2-0.2-0.3-0.4-0.1-0.7c1.4,0,2.2-0.7,2.4-2C100.4,13.2,100,12.1,99.1,11.2z M96.3,81.4
	c0.3-0.3,0.6-0.3,0.8,0.1c0.2,0.4,0.4,0.6,0.6,0.6c-0.3,0.8-0.5,0.9-0.7,0.3C96.9,81.9,96.6,81.5,96.3,81.4z M97.7,32.9
	c-0.8,0-1-0.2-0.8-0.6c0.2-0.4,0.3-0.8,0.1-1.3c0.3,0,0.6,0.2,0.8,0.7C98.1,32.2,98,32.6,97.7,32.9z M97,25.3
	c0.3,0.3,0.9,0.7,1.8,1.3c0.9,0.5,1.5,0.7,1.8,0.3c0.3-0.6,0.3-1,0-1.2c-0.3-0.2-0.6-0.2-0.9-0.2c-0.6,0-1.1-0.2-1.5-0.5
	c-0.4-0.3-0.8-0.5-1.3-0.5V25.3z M97.9,27.6c0.2-0.6-0.2-0.9-0.9-0.9c0,0.6,0.1,0.8,0.3,0.7C97.6,27.2,97.8,27.3,97.9,27.6z
	 M97,87.4c0.3,0.2,0.5,0.3,0.6,0.5c0.1,0.2,0.3,0.3,0.6,0.5c-0.3-0.9-0.6-1.5-0.9-1.6c0,0.2,0,0.3-0.1,0.3
	C97.1,87.1,97,87.2,97,87.4z M97.7,137.9c0-0.2,0-0.3,0.1-0.5c0.1-0.2,0-0.2-0.3-0.2C97.3,137.4,97.4,137.6,97.7,137.9z M97.7,74.4
	c-0.3,0.3-0.2,0.5,0.2,0.6c0.5,0.1,0.7,0,0.7-0.3c-0.3,0-0.5-0.1-0.6-0.2C98,74.3,97.9,74.3,97.7,74.4z M97.9,43.3
	c0.3,0.3,0.5,0.5,0.7,0.5v-0.5H97.9z M100,44c-0.2,0.2-0.4,0.2-0.8,0.2c-0.4,0-0.6-0.1-0.6-0.2c-0.2,0-0.2,0.1,0,0.2v0.2
	c-0.3,0-0.3,0.1-0.1,0.2c0.2,0.2,0.3,0.3,0.3,0.5c0,0.3,0.1,0.5,0.2,0.5c0.2,0,0.3-0.2,0.5-0.5C99.7,44.8,99.9,44.4,100,44z
	 M99.1,132.6c0.3,0.3,0.6,0.3,0.8,0.1c0.2-0.2,0.3-0.6,0.1-1C99.4,131.7,99.1,132,99.1,132.6z M99.6,49.3c0-0.3,0.1-0.5,0.3-0.6
	c0.2-0.1,0.3-0.3,0.1-0.6c-0.2,0-0.4,0.2-0.7,0.5C99,48.9,99.1,49.1,99.6,49.3z M99.8,69.4c-0.3-0.3-0.5-0.2-0.6,0.5
	c-0.1,0.6,0,1,0.3,1.2c0.5,0,0.7-0.2,0.7-0.6C100.3,70,100.1,69.7,99.8,69.4z M100.3,42.6c-0.3,0-0.5,0.1-0.6,0.3
	c-0.1,0.2,0,0.3,0.3,0.3C100.2,43.1,100.3,42.9,100.3,42.6z M99.8,22.5c0.3,0.3,0.7,0.4,1.3,0.2c0.5-0.2,0.7-0.6,0.6-1.4
	C100.4,21.3,99.8,21.7,99.8,22.5z M99.8,38.2c0.6,0,0.8-0.1,0.5-0.3C99.9,37.6,99.8,37.7,99.8,38.2z M100.3,24.3
	c0.6,0,0.9-0.3,0.9-0.9c-0.3-0.3-0.6-0.3-0.9,0C99.9,23.7,99.9,24,100.3,24.3z M100.7,18.3c-0.5,0.6-0.5,0.7,0,0.3
	C101.2,18.3,101.2,18.2,100.7,18.3z M100.7,38.6c0.2,0.3,0.1,0.7-0.1,1c-0.2,0.4-0.2,0.7,0.1,1c0.3-0.2,0.8-0.3,1.4-0.6
	c0.6-0.2,0.8-0.6,0.5-1c-0.3-0.2-0.5-0.1-0.6,0.2c-0.1,0.3-0.3,0.4-0.6,0.2c-0.3-0.2-0.3-0.3-0.1-0.6
	C101.5,38.8,101.3,38.6,100.7,38.6z M100.7,80c0-0.2,0-0.3,0.1-0.6c0.1-0.2,0-0.3-0.3-0.1C100.5,79.6,100.6,79.8,100.7,80z
	 M101,73.3c0-0.2,0-0.3,0.1-0.3c0.1-0.1,0.1-0.3,0.1-0.6c-0.3,0-0.5,0.2-0.6,0.5C100.5,73.1,100.6,73.3,101,73.3z M101.2,47
	c0.2-0.2,0.2-0.2,0.1-0.1c-0.1,0.1-0.2,0.1-0.3,0.1c-0.2,0-0.2,0-0.2,0.1C100.7,47.2,100.9,47.1,101.2,47z M102.3,16.7
	c-0.8,0.5-1.2,0.9-1.4,1.4c0.5,0.2,0.8,0,0.9-0.5c0.2-0.3,0.5-0.4,0.9-0.2c-0.2-0.5-0.2-0.9-0.1-1.4c0.1-0.5-0.2-0.8-0.8-0.9v0.7
	l-0.2,0.5C101.8,16.3,102,16.4,102.3,16.7z M103.3,81.4c-0.3-0.3-0.3-0.7-0.1-1.2c0.2-0.5,0.3-0.8,0.1-1.2c-0.2-1.1-0.4-1.3-0.8-0.6
	c-0.4,0.7-0.7,1.1-1,1.3c0.5,0.3,0.7,0.7,0.7,1.2C102.1,81.4,102.5,81.5,103.3,81.4z M101.6,83.4c0.3,0,0.5-0.1,0.7-0.3
	c0.2-0.2,0.3-0.4,0.5-0.6c-0.3-0.3-0.6-0.3-0.9-0.1C101.6,82.6,101.5,83,101.6,83.4z M103.7,43.3c0.6-0.8,0.5-1.2-0.5-1.2
	s-1.5-0.2-1.6-0.5c0,0.6,0.3,0.9,0.8,0.9C103,42.6,103.4,42.8,103.7,43.3z M102.6,13c-0.8-0.2-1-0.1-0.8,0.1
	C102,13.4,102.3,13.3,102.6,13z M102.6,116.7c0.3-0.3,0.3-0.6,0.1-0.8c-0.2-0.2-0.5-0.3-0.8-0.1
	C101.7,116.4,101.9,116.7,102.6,116.7z M103.3,28.3c-0.3-0.2-0.6-0.3-0.9-0.3c-0.3-0.1-0.5-0.4-0.5-1
	C102.8,26.9,103.3,27.3,103.3,28.3z M102.3,44.2c0,0.6,0.1,0.8,0.3,0.6C102.9,44.5,102.8,44.3,102.3,44.2z M103.5,53.9
	c0.3,0,0.5-0.2,0.7-0.5c0.2-0.3,0.1-0.6-0.2-0.9c-0.3,0-0.5,0.2-0.7,0.5C103.1,53.3,103.2,53.6,103.5,53.9z M103.3,24.6
	c0.8,0,1.2-0.2,1.3-0.5c0.1-0.3,0-0.5-0.2-0.7c-0.2-0.2-0.5-0.2-0.8-0.1C103.2,23.4,103.1,23.8,103.3,24.6z M104.9,41.9
	c0.3-0.8,0.2-1.2-0.3-1.4c-0.5-0.2-1-0.2-1.3-0.2c0,0.5,0.2,0.8,0.6,0.9C104.2,41.3,104.6,41.6,104.9,41.9z M104.4,38
	c-0.5-0.2-0.8,0-0.9,0.3c-0.2,0.4-0.1,0.7,0.2,1C104.3,39.3,104.6,38.9,104.4,38z M104.6,42.1c0,0.3,0.1,0.7,0.2,1
	c0.2,0.4,0.2,0.7,0,1c-0.8,0.2-1.2,0.7-1.4,1.6c-0.2,0.9,0.2,1.5,0.9,1.6c0.3-0.3,0.3-0.7,0.1-1c-0.2-0.4,0-0.7,0.6-0.8
	c0.8,0.3,1,0.1,0.7-0.7c0.3-0.3,0.2-0.6-0.2-0.9c-0.3,0-0.4-0.1-0.3-0.3c0.1-0.2,0.2-0.5,0.3-0.7c0.2-0.2,0.2-0.4,0.1-0.6
	C105.6,42.2,105.3,42.1,104.6,42.1z M104.2,32c0-0.6-0.2-0.9-0.5-0.9C103.6,31.6,103.7,32,104.2,32z M107.9,46.3
	c-0.5,0.3-0.7,0.7-0.6,1.2c0.1,0.5-0.1,0.8-0.6,1.2c-0.6,0.3-1.2,0.5-1.6,0.5c-0.6,0.2-0.9,0.4-0.9,0.8c0,0.4-0.2,0.8-0.5,1.3
	c0.8,0.2,1.2,0,1.3-0.5c0.1-0.5,0.3-0.8,0.8-1.2c0.8-0.3,1.1-0.1,1,0.6c-0.1,0.7,0.2,1,0.8,1c0-1.5,0.4-2.7,1.2-3.5
	c0.6-0.6,1.2-0.9,1.7-0.9c0.5,0,1.1-0.2,1.7-0.5c0.2-0.8-0.1-1.1-0.7-0.9c-0.6,0.2-1.1,0.4-1.4,0.7c-0.8,0.5-1.1,0.3-0.9-0.6
	c0.2-0.8,0.2-1.4,0-1.7c0.6-0.2,1.2-0.3,1.6-0.3c0.5-0.1,0.8,0.1,1.2,0.6c0.3,0.6,0.6,1.2,0.9,1.6c0.3,0.5,0.8,0.8,1.4,1.2
	c0.2-0.3,0.3-0.5,0.5-0.7c0.2-0.2,0.2-0.4,0-0.7c-0.6,0-0.9-0.4-0.9-1.2c0.3-0.8,0.2-1-0.2-0.8c-0.5,0.2-0.9,0.3-1.4,0.1
	c0-1.1,0.2-1.4,0.6-1c0.4,0.4,0.6,0.3,0.6-0.3c-0.3,0-0.5-0.2-0.7-0.7c-0.2-0.5-0.4-0.5-0.7-0.2c0.3,0.2,0.4,0.4,0.3,0.7
	c-0.1,0.3-0.3,0.5-0.6,0.7c-1.7-0.5-2.6-0.1-2.8,1.2C108.9,45,108.5,45.8,107.9,46.3z M104.2,67c0.2-0.2,0.2-0.3,0.2-0.5l-0.5-0.2
	v0.5L104.2,67z M104.2,72.6c0.8,0.5,1,0.3,0.7-0.5c-0.3-0.2-0.4-0.2-0.3,0C104.6,72.3,104.5,72.4,104.2,72.6z M105.3,109.3
	c-0.3-0.3-0.6-0.2-0.9,0.2c0.2,0.2,0.3,0.2,0.6,0.2C105.2,109.8,105.3,109.6,105.3,109.3z M105.1,113c-0.5,0-0.7,0.2-0.7,0.5
	C104.9,113.4,105.1,113.3,105.1,113z M105.6,31.7c-0.5,0.5-0.5,1.2-0.2,2.3c0.3,0,0.5,0,0.7-0.1c0.2-0.1,0.4-0.1,0.7-0.1
	c-0.2,0.6,0.2,1.3,0.9,2.1c0.3,0.6,0.7,0.9,1,0.8c0.4-0.1,0.4-0.4,0.1-1c-0.8-1.1-0.9-2.1-0.5-3c0.5-0.9,0.4-1.8-0.2-2.8
	c-0.2,0.5-0.5,0.8-0.9,0.9c0.6,0.6,0.8,1.3,0.5,2.1c0-0.3,0-0.4-0.1-0.2c-0.1,0.2-0.2,0.2-0.3,0.2c0.3-0.8,0.2-1.1-0.3-0.9
	C106.3,32.1,105.9,32,105.6,31.7z M105.8,16.3l-0.5,0.5c0.2,0.2,0.4,0.2,0.7,0.2C106,16.6,105.9,16.4,105.8,16.3z M105.3,51.8
	c0.3,0.2,0.5,0.3,0.6,0.6c0.1,0.2,0.3,0.2,0.6-0.1c0.2,0,0-0.2-0.5-0.5C105.6,51.5,105.3,51.5,105.3,51.8z M107,80.7
	c-0.2-0.3,0-0.6,0.3-0.9c0.4-0.3,0.3-0.5-0.3-0.7c0,0.5-0.2,0.8-0.5,0.9c-0.2-0.2-0.3-0.3-0.6-0.6c-0.2-0.2-0.4-0.1-0.6,0.3
	c0.3,0.2,0.6,0.3,0.8,0.3C106.4,80.2,106.6,80.4,107,80.7z M105.3,118.3c0.6,0.3,0.9,0.1,0.9-0.7c-0.6,0-0.8,0-0.7,0
	C105.7,117.6,105.6,117.8,105.3,118.3z M106,38.4c0.2-0.2,0.2-0.4,0.2-0.7c0-0.3-0.2-0.5-0.5-0.5c-0.3,0.2-0.4,0.4-0.3,0.7
	C105.5,38.3,105.7,38.4,106,38.4z M105.8,110.4c-0.3,0.3-0.4,0.7-0.2,1.2c0.2-0.2,0.4-0.2,0.7-0.2
	C106.3,111.1,106.1,110.8,105.8,110.4z M106,24.1c0.3-0.6,0.3-0.8,0-0.7C105.7,23.6,105.7,23.8,106,24.1z M105.8,37
	c0.2,0.2,0.3,0.2,0.6,0.1c0.2-0.1,0.3-0.3,0.1-0.6C106,36.6,105.8,36.7,105.8,37z M106,74.2c-0.3,0.6-0.1,1,0.7,1.2
	c0.8,0.2,1.2-0.1,1.4-0.7C107.8,74.2,107.1,74,106,74.2z M107.4,19.9c-0.3-0.3-0.4-0.7-0.2-1c0.2-0.4-0.2-0.6-0.9-0.6
	c-0.3,1.5-0.4,2.8-0.2,3.9c0.5,0,0.7-0.2,0.8-0.5c0.1-0.3,0.2-0.6,0.3-0.9c0.3-0.3,0.6-0.4,0.8-0.2C108.2,20.8,108,20.6,107.4,19.9z
	 M106,25c0.2,0.6,0.5,1,1,1.2c0.5,0.2,1,0.1,1.3-0.2c0.5-0.8,0.3-1.1-0.6-0.9C106.9,25.2,106.3,25.2,106,25z M106.5,60.3
	c-0.5,0.5-0.3,0.8,0.5,1.2C107.7,60.7,107.6,60.3,106.5,60.3z M107.9,133.3c0.3-0.5,0.2-0.8-0.2-1c-0.5-0.2-0.8-0.5-1.2-0.8
	c-0.2,0.3,0,0.7,0.3,1C107.2,132.9,107.6,133.1,107.9,133.3z M106.5,76.3c0,0.2,0,0.5,0.1,1c0.1,0.5,0.4,0.8,1,0.8
	C107.3,77.1,107,76.4,106.5,76.3z M107.6,65.9c-0.6,0.3-0.9,0.7-0.9,1.2c0.5,0.3,0.8,0.3,1.2-0.1C108.2,66.5,108.1,66.2,107.6,65.9z
	 M109,53c0.3,0,0.3,0.4,0.1,1.3c-0.2,0.8-0.4,1.3-0.6,1.5c0.3,0.6,0.5,0.8,0.7,0.6c0.2-0.2,0.2-0.5,0.2-0.8c0-0.5,0.2-0.7,0.7-0.8
	c0.5-0.1,0.8-0.3,1.2-0.6c-0.8-0.2-1.3-0.8-1.6-1.8c0-0.3-0.2-0.6-0.5-0.9c0.5-0.5,0.7-0.9,0.7-1.4c-0.9,0.2-1.5,0.8-1.8,1.8
	c-0.8,0.5-1.2,1.2-1.3,2.1c-0.1,0.9,0.5,1,1.7,0.2c0.2-0.3,0.1-0.6-0.1-0.8C108.2,53.1,108.4,53,109,53z M110.4,39.1
	c-0.5-0.2-0.8-0.1-1,0.1c-0.2,0.2-0.5,0.5-0.8,0.8c-1.1,0-1.6,0.5-1.6,1.4c0.8,0.2,1.2,0.1,1.3-0.2c0.1-0.3,0.3-0.6,0.8-0.9
	c0.8,0.5,0.9,0.8,0.3,0.9c-0.5,0.2-0.8,0.5-0.8,0.9c1.2-0.2,2.1-0.8,2.5-2.1c-0.3-0.3-0.5-0.4-0.6-0.3
	C110.5,39.8,110.4,39.6,110.4,39.1z M108.8,27.8c-0.3-0.2-0.8-0.3-1.4-0.3c-0.6-0.1-0.5,0.3,0.2,1C108.1,28.6,108.5,28.4,108.8,27.8
	z M107.2,72.4c0.3,0.5,0.6,0.5,0.9,0.2c0.3-0.6,0.1-0.9-0.7-0.9C107.3,71.8,107.2,72,107.2,72.4z M108.1,41.9c-0.2,0-0.2,0-0.2-0.1
	c0-0.1-0.2-0.1-0.5-0.1c-0.3,0.3-0.2,0.5,0.2,0.6C108.1,42.3,108.3,42.2,108.1,41.9z M111.1,58.3c0.8-0.2,1-0.3,0.7-0.3
	c-0.3-0.1-0.2-0.3,0.5-0.6c0.5-0.3,0.7-0.3,0.8,0.1c0.1,0.4,0.4,0.4,1,0.1c0.9-0.3,1.5-0.7,1.6-1.2c0.3-0.6,0.2-1.3-0.2-2.1
	c0.2-0.3,0.4-0.5,0.8-0.6c0.4-0.1,0.4-0.4,0.1-1c-0.2,0.2-0.5,0.2-1.2,0.2c-0.2-0.3-0.2-0.6,0-0.8c0.2-0.2-0.1-0.4-0.7-0.6
	c0,0.3,0,0.6,0,0.9c0,0.3-0.1,0.6-0.2,0.9c-0.3-0.3-0.6-0.7-0.8-1.2c-0.2-0.5-0.7-0.4-1.3,0.2c-0.3,0.3-0.2,0.6,0.3,0.8
	c0.5,0.2,1,0.5,1.3,0.8c0.3,0.9,0.3,1.6,0,2.1c-0.3,0.3-0.6,0.5-0.9,0.5c-0.8,0.3-1.1,0.3-0.9,0.1c0.2-0.2,0.2-0.6,0-1
	c-0.2-0.2-0.7,0.2-1.6,1c-0.9,0.8-1.5,1.3-1.8,1.3c-0.8,0-1,0.1-0.7,0.3c0.3,0.2,0.5,0.4,0.7,0.6c0.2,0,0,0.4-0.3,1.2
	c-0.4,0.8-0.6,1.3-0.6,1.6c0.8,0,1.2-0.3,1.3-1C109,60,109,59.4,109,59c0.3-0.3,0.7-0.5,1-0.5C110.5,58.5,110.8,58.4,111.1,58.3z
	 M107.9,55.3c0,0.6,0.1,0.8,0.2,0.7C108.1,55.5,108,55.3,107.9,55.3z M108.3,16.5c0,0.3-0.1,0.4-0.2,0.3c-0.2-0.1-0.2,0,0,0.3
	c0.3,0,0.5-0.1,0.7-0.2L108.3,16.5z M108.1,15.3h0.9c0-0.6-0.3-1-0.9-1.2V15.3z M109.3,20.4c0.3-0.3,0.3-0.8,0-1.5
	c-0.3-0.7-0.7-1.1-1.2-1.3c0,0.5,0.1,0.9,0.3,1.4C108.7,19.5,109,19.9,109.3,20.4z M109.5,37.5c-0.3-0.2-0.5-0.1-0.7,0.2
	c-0.2,0.3-0.1,0.5,0.2,0.5c0-0.3,0.1-0.4,0.2-0.3C109.4,37.9,109.5,37.8,109.5,37.5z M110.6,31.7c-0.3,0.2-0.7,0.3-1,0.3
	c-0.4,0.1-0.7,0.3-0.8,0.6c0.3,0.5,0.7,0.5,1.2,0.2C110.4,32.6,110.6,32.2,110.6,31.7z M108.8,34.5c0,0.3,0.2,0.5,0.5,0.5
	c0.3,0,0.4-0.2,0.2-0.5c0-0.2-0.1-0.2-0.3-0.2C108.9,34.3,108.8,34.3,108.8,34.5z M109,67c0.3,0.3,0.7,0.3,1,0.1
	c0.4-0.2,0.5-0.5,0.3-0.8c-0.3-0.3-0.6-0.4-0.9-0.2C109.2,66.3,109,66.6,109,67z M110.6,16.9c0.2-0.3,0.1-0.5-0.2-0.6
	c-0.3-0.1-0.5,0-0.7,0.1c0,0.3,0.1,0.5,0.3,0.6C110.3,17.1,110.5,17.1,110.6,16.9z M110.2,70.5c0.5,0.3,0.8,0.2,0.9-0.2
	c0.2-0.5,0.2-0.8,0.2-1.2c-0.6,0-0.9,0.1-0.9,0.3C110.4,69.7,110.3,70,110.2,70.5z M111.3,30.6c-0.3,0-0.4-0.1-0.3-0.3
	c0.1-0.2,0-0.3-0.3-0.3c0,0.3-0.1,0.5-0.2,0.7c0.2,0,0.3,0.1,0.6,0.2C111.2,31,111.3,30.9,111.3,30.6z M111.3,36.8
	c-0.3-0.3-0.5-0.3-0.5,0C110.9,37.1,111,37.1,111.3,36.8z M111.8,50.7c0-0.3-0.2-0.5-0.7-0.5v0.5H111.8z M111.8,20.9
	c-0.3-0.3-0.5-0.3-0.5,0.1C111.3,21.4,111.5,21.3,111.8,20.9z M112,119c-0.5,0-0.7,0.2-0.7,0.5C111.8,119.5,112,119.3,112,119z
	 M112.3,60.6c-0.6,0-0.8,0.2-0.7,0.6c0.2,0.4,0.4,0.7,0.7,1c0-0.6,0.2-0.7,0.7-0.2c0.2-0.3,0.1-0.6-0.2-0.9
	c-0.2,0.3-0.3,0.4-0.5,0.2C112.1,61.1,112.1,60.9,112.3,60.6z M111.6,35c0.2,0.3,0.2,0.6,0.2,0.9c0,0.3,0.2,0.4,0.5,0.2V35H111.6z
	 M111.6,54.6h0.7c-0.2-0.3-0.4-0.5-0.7-0.5V54.6z M113.9,62c0.8,0,1.2-0.2,1.2-0.7s0.2-0.8,0.5-1.2c0.3-0.5,0.3-0.8-0.1-1.2
	c-0.4-0.3-0.7-0.2-1,0.2c0.5,0.2,0.4,0.5-0.1,1c-0.5,0.5-0.7,1-0.6,1.3c-0.2,0-0.3,0.4-0.6,1.2c-0.2,0.8-0.4,1.2-0.6,1.4
	c-0.2,0.2-0.3,0.2-0.5,0.1c-0.2-0.1-0.2,0,0,0.3c0.5-0.2,1-0.4,1.7-0.8C114.5,63.3,114.5,62.7,113.9,62z M113,59.2
	c0-0.3-0.3-0.6-0.9-0.9c-0.2,0.3-0.1,0.8,0.2,1.4C112.4,59.3,112.6,59.2,113,59.2z M112,68.2c0.3,0.3,0.7,0.4,1,0.2
	c0.4-0.2,0.4-0.5,0.1-1.2c-0.3,0.2-0.6,0.2-0.9,0.2C112,67.5,111.9,67.7,112,68.2z M112.7,72.8c0-0.5-0.2-0.7-0.5-0.7
	c-0.3,0.2-0.4,0.2-0.2,0.2c0.2,0,0.2,0.2,0.2,0.5H112.7z M112.3,24.6c0.6,0,0.8-0.2,0.6-0.7c-0.2-0.5-0.5-0.5-0.8,0
	c0.3,0,0.3,0,0.1,0.1C111.9,24.1,112,24.3,112.3,24.6z M116.2,36.3c-1.1-0.2-1.9,0.2-2.4,1c-0.5,0.8-1,1.7-1.5,2.4
	c1.1,0,1.8,0.5,2.1,1.4c0,0.8-0.1,1.3-0.2,1.6c0.5,0,0.5,0.2,0.2,0.5c1.1,0,1.7-0.3,1.8-0.9c-0.8-0.3-1.1-0.4-0.9-0.3
	c0.2,0.1,0.4-0.3,0.7-1c-0.3-0.2-0.7-0.6-1.3-1.4c-0.5-0.8-0.7-1.3-0.3-1.6c0.3,0.5,0.8,0.7,1.6,0.6c0.8-0.1,1.3,0,1.6,0.1
	c0-0.8-0.3-1.2-0.9-1.2C116,37.5,115.9,37.1,116.2,36.3z M112.3,115.3l0.2,0.2c0.2-0.5,0.1-0.7-0.2-0.7V115.3z M113.6,35
	c0.3-0.3,0.3-0.6-0.1-0.9c-0.4-0.3-0.7-0.5-1-0.7V35c0.3-0.2,0.5-0.2,0.6,0C113.1,35.1,113.3,35.1,113.6,35z M113,50.2
	c0.3-0.3,0.8-0.7,1.4-1c0.6-0.4,0.6-0.7,0-1c-0.6-0.5-1-0.3-1,0.5C113.2,49.3,113.1,49.9,113,50.2z M113.6,66.1
	c0.6,0.2,0.9-0.2,0.9-0.9C114,65.5,113.6,65.8,113.6,66.1z M114.8,62.4c0.8,0,1.2-0.2,1.2-0.5c-0.3,0-0.5,0-0.7-0.1
	C115.1,61.8,115,62,114.8,62.4z M115.7,26.9c-0.9,0.8-1,1-0.1,0.7c0.8-0.3,1.3-0.5,1.5-0.5c0,0.3,0.1,0.5,0.3,0.6
	c0.2,0.1,0.3,0.3,0.3,0.6c0.6-0.3,1-0.3,1.3,0.1c0.2,0.4,0.7,0.5,1.3,0.3c0.2-0.8,0-1.2-0.6-1.4c-0.5-0.2-1.1-0.2-1.7-0.2
	c-0.6,0-1-0.2-1.3-0.6C116.5,26.1,116.2,26.3,115.7,26.9z M117.6,47.9c-0.6-0.5-1-0.6-1.3-0.3c-0.2,0.2-0.7,0.1-1.3-0.3
	c0.3,0.3,0.5,0.8,0.5,1.4c0,0.6,0.3,0.9,0.9,0.9c0.3-0.3,0.7-0.6,1.3-0.8C118.2,48.5,118.2,48.2,117.6,47.9z M115.7,30.8
	c0.9,0.3,1.4-0.1,1.4-1.2c-0.3-0.3-0.7-0.3-1.2,0.1C115.5,30.1,115.4,30.5,115.7,30.8z M116,34c-0.2,0.8,0,1.1,0.3,1
	c0.4-0.1,0.7-0.2,0.9-0.5c0.2-0.2,0.3-0.5,0.2-0.7C117.4,33.7,116.9,33.7,116,34z M116,57.1c-0.2,0.2,0.3,0.5,1.4,0.9
	c1.1,0.5,1.7,0.8,1.8,0.9c0-0.3,0.1-0.5,0.3-0.6c0.2-0.1,0.3-0.3,0.3-0.6c-0.3-0.2-0.6-0.4-0.9-0.7c-0.3-0.3-0.7-0.5-1.2-0.7
	c0,0.6-0.2,0.8-0.7,0.6C116.6,56.8,116.3,56.8,116,57.1z M116.4,110.2c-0.5,0.8-0.2,1.2,0.7,1.2c0.2-0.5,0.1-0.7-0.1-0.8
	C116.8,110.5,116.6,110.4,116.4,110.2z M116.4,45.6c0.2,0.3,0.3,0.5,0.3,0.6c0.1,0.1,0.2,0.3,0.3,0.6
	C117.1,46,116.9,45.6,116.4,45.6z M119.9,49.5c-0.5-0.3-0.8-0.4-0.9-0.3c-0.2,0.1-0.3,0.3-0.3,0.6c-0.1,0.3-0.1,0.6-0.1,0.9
	c0,0.3-0.1,0.5-0.2,0.7c-0.3,0-0.5-0.1-0.6-0.2c-0.1-0.2-0.3-0.2-0.6,0c0,0.3,0.1,0.6,0.3,0.9c0.2,0.3,0.5,0.6,0.8,0.9
	c0.8-0.5,1.1-1,0.9-1.7C119,50.5,119.3,50,119.9,49.5z M117.8,32.4c0,0.6,0.2,0.9,0.7,0.9c0.3-0.3,0.4-0.7,0.2-1
	C118.6,31.9,118.3,32,117.8,32.4z M120.1,105.4c-0.3,0.5-0.7,1-1.2,1.5c-0.5,0.5-0.6,1.1-0.5,1.7c0.8,0,1.2-0.3,1.3-0.9
	c0.1-0.6,0.4-0.8,1-0.5c-0.3-0.3-0.4-0.7-0.3-1.2C120.5,105.6,120.4,105.4,120.1,105.4z M120.1,37c0.8-1.2,0.9-1.7,0.5-1.5
	c-0.5,0.2-1.1,0-1.8-0.8c-0.3,0.8-0.2,1.2,0.3,1.2C119.6,35.9,120,36.3,120.1,37z M119,41.2c0.3,0,0.5-0.1,0.5-0.2
	c0-0.2,0.1-0.3,0.2-0.5c-0.3-0.2-0.5-0.1-0.5,0.1C119.2,40.8,119.1,41,119,41.2z M119,143.7c0.6,0.5,1,0.6,1,0.3
	c0.1-0.2,0-0.5-0.1-0.8c-0.2-0.3-0.3-0.5-0.6-0.5C119.1,142.8,119,143.1,119,143.7z M120.1,63.6c0-0.5-0.3-0.7-0.9-0.7
	c-0.2,0.3-0.1,0.5,0.1,0.7C119.5,63.7,119.8,63.7,120.1,63.6z M119.4,139.1c0.5,0.2,0.8-0.1,1.2-0.7c-0.5,0-0.8,0-1-0.1
	C119.3,138.2,119.3,138.5,119.4,139.1z M120.8,50c0-0.3-0.2-0.5-0.5-0.5V50H120.8z M121.3,53.7c-0.5-0.2-0.7,0-0.7,0.5
	C121.2,54.1,121.4,54,121.3,53.7z M122.9,40c-0.3-0.3-0.7-0.5-1-0.5c-0.4,0-0.6,0.3-0.6,0.9l0.7,0.7c0.2-0.3,0.3-0.5,0.6-0.6
	C122.8,40.5,122.9,40.3,122.9,40z M123.6,107.9c-0.6-1.1-1.4-1.2-2.3-0.2c0,0.5,0.2,0.8,0.6,1.2c0.4,0.3,0.6,0.7,0.6,1.2
	c0.9,0,1.1-0.3,0.5-0.9c-0.5-0.6-0.5-0.9,0-0.8C123.3,108.3,123.6,108.2,123.6,107.9z M122.7,38.2c-0.6,0-1,0.1-1.2,0.2
	c0,0.6,0.3,0.8,0.8,0.7C122.8,39,123,38.6,122.7,38.2z M123.3,48.6c0.3-0.8,0.2-1.2-0.5-1.4c-0.6-0.2-1.1-0.1-1.4,0.2
	c0.2,0.3,0.4,0.5,0.8,0.6C122.7,48.1,123,48.3,123.3,48.6z M121.7,100.5c-0.2,0.3-0.2,0.7-0.2,1.2c0.3,0.2,0.8,0.2,1.4,0.2
	C122.9,101.3,122.5,100.8,121.7,100.5z M122.2,57.6c0.5-0.5,0.3-0.8-0.5-1.2c-0.2,0.2-0.2,0.4-0.1,0.7
	C121.7,57.4,121.9,57.6,122.2,57.6z M122.2,33.8h0.5c0-0.3-0.2-0.5-0.5-0.5V33.8z M125.9,102.6c0.2-0.8-0.2-0.9-1-0.3
	c-0.8,0.5-1.3,1-1.5,1.3c0.5,0,0.7,0.1,0.7,0.2c0,0.2,0.2,0,0.5-0.5C125,102.5,125.4,102.3,125.9,102.6z M125.9,109.1
	c-0.2-0.3-0.1-0.7,0.2-1.3c0.3-0.5,0.2-0.9-0.2-1c-0.5,0.3-1,0.6-1.5,0.8c-0.5,0.2-0.7,0.7-0.6,1.5c0.3-0.3,0.7-0.4,1-0.2
	C125.2,109,125.6,109.1,125.9,109.1z M124.7,111.8c0.3-0.2,0.5-0.3,0.5-0.5c0-0.2-0.2-0.2-0.5-0.2c-0.3,0.2-0.5,0.3-0.5,0.5
	C124.3,111.8,124.4,111.8,124.7,111.8z M126.8,111.8c-0.2-0.8-0.2-1.2-0.1-1.3c0.1-0.1-0.2-0.2-0.8-0.3
	C125.9,111.1,126.2,111.7,126.8,111.8z M126.8,101.4c0.2,0.5,0.1,0.7-0.1,0.8c-0.2,0.1-0.3,0.3-0.3,0.8c0.5,0,0.8-0.3,0.9-0.8
	C127.4,101.7,127.3,101.4,126.8,101.4z M126.3,106.3c0.5,0,0.6-0.1,0.3-0.3C126.5,105.7,126.3,105.8,126.3,106.3z M127.7,109.3
	c-0.3-0.2-0.4-0.1-0.3,0.2c0.1,0.3,0,0.5-0.3,0.5C127.5,110.1,127.7,109.9,127.7,109.3z M128.4,98.2c0.5,0,0.6-0.1,0.5-0.2
	c-0.2-0.2-0.3-0.3-0.5-0.5V98.2z M130.5,100.1c-1.2-0.2-1.7,0.3-1.5,1.3c0.2,1,0.1,1.7-0.3,2.2c0.3-0.2,0.7-0.2,1-0.1
	c0.4,0.1,0.7,0.1,1,0.1c-0.5-0.5-0.7-1-0.8-1.7C129.8,101.1,130,100.5,130.5,100.1z M128.9,112.1c0.3,0,0.5-0.1,0.7-0.2
	c-0.3-0.2-0.4-0.3-0.3-0.5c0.1-0.2,0-0.2-0.3,0V112.1z M129.1,104.4c-0.3,0.8-0.2,1.1,0.2,0.9c0.5-0.2,0.8-0.5,1.2-0.9
	c-0.3-0.2-0.5-0.2-0.7-0.1C129.7,104.4,129.4,104.4,129.1,104.4z M130,107.4c0-0.5-0.2-0.7-0.7-0.7
	C129.3,107.2,129.6,107.4,130,107.4z M130.5,148.3c-0.5-0.5-0.7-0.4-0.8,0.2c-0.1,0.6,0,1,0.3,1.2c0-0.3,0.3-0.5,0.8-0.5
	C131.4,149.2,131.3,148.9,130.5,148.3z M129.8,143c0.9,0,1.1-0.2,0.6-0.6C129.8,142,129.7,142.2,129.8,143z M129.8,154.1
	c0.9,0,1.1-0.2,0.6-0.6C129.8,153.1,129.7,153.3,129.8,154.1z M130.5,91.7c0.3-0.3,0.3-0.5-0.1-0.6c-0.4-0.1-0.6,0-0.6,0.3
	L130.5,91.7l-0.2,0.2C130.4,92,130.5,91.9,130.5,91.7z M130,97.5c0.6,0,1.1-0.2,1.4-0.7c-0.2,0-0.4,0-0.8,0.1
	C130.2,97,130,97.2,130,97.5z M130.7,163.8c0.2-0.5,0.2-0.7,0-0.8c-0.2-0.1-0.3-0.1-0.5,0c-0.2,0.1-0.2,0.2-0.2,0.5
	C130,163.7,130.3,163.8,130.7,163.8z M130.7,155.9c0.9,0.2,2,0,3.1-0.5c1.2-0.5,1.8-1.2,2-2.3c-0.8,0-1.3,0.2-1.7,0.7
	c-0.4,0.5-0.8,0.8-1.3,1.2c-0.5-0.2-0.6-0.4-0.3-0.7c0.2-0.3,0.1-0.5-0.3-0.7c0,0.6-0.2,1-0.7,1.3
	C131,155.1,130.7,155.5,130.7,155.9z M131,84.8c0.5,0,0.6-0.1,0.3-0.3C131.1,84.2,131,84.4,131,84.8z M134.7,100.1
	c-0.3-0.5-0.7-0.7-1.2-0.8c-0.5-0.1-0.8-0.3-1.2-0.8c-0.6,0.6-1.1,0.9-1.4,0.9c0,0.5,0.2,0.7,0.6,0.7c0.4,0,0.8,0,1.2-0.1
	c0.4-0.1,0.8,0,1.2,0.1c0.4,0.2,0.7,0.6,0.8,1.4c0.3,0.8,0.2,1.5-0.5,2.3c0.5,0.3,0.7,0.8,0.8,1.5c0.1,0.7,0.1,1.2,0.1,1.5
	c0,0.8,0.4,1.3,1.2,1.7c0.8,0.4,1.2,0.4,1.4,0.1c0.2-0.2,0.4-0.2,0.8-0.2c0.4,0,0.5-0.2,0.3-0.5c-0.5-0.3-1-0.7-1.6-1
	c-0.6-0.4-0.7-0.9-0.2-1.5c-0.5,0.2-0.9,0.1-1.3-0.2c-0.4-0.3-0.3-0.6,0.3-0.9c0.8,0.3,1.1,0.5,1,0.7c-0.1,0.2,0.3-0.1,1-0.7
	c0.3-0.5,0.7-0.4,1.2,0.1c0.5,0.5,0.8,0.3,1.2-0.6c0.2-0.6,0.2-1.2,0.1-1.7c-0.1-0.5-0.5-0.8-1.3-0.8c0,0.3-0.1,0.5-0.2,0.7
	c-0.8-1.1-1.4-1.2-2-0.5c-0.5,0.8-1.1,1.2-1.7,1.4c0-0.6,0.2-1.1,0.6-1.5c0.4-0.4,0.5-0.9,0.3-1.5c0.8,0.6,1.2,0.8,1.4,0.5
	c0.2-0.3,0.5-0.6,1.2-0.9c0.6-0.3,1.1-0.2,1.5,0.2c0.4,0.5,0.7,1,1,1.6c0.3,0.8,0.3,1.4,0.1,1.8c-0.2,0.5,0,0.9,0.8,1.4
	c0.3,0.3,0.8,0.5,1.4,0.5c0.6,0,0.8,0.3,0.7,0.9c-0.8,0-1.9-0.3-3.5-0.9c-0.3,0.3-0.4,0.7-0.2,1.2c0.2,0.5,0.2,0.9,0.2,1.4
	c0.3,0,0.5-0.2,0.5-0.7c0.3-0.3,0.6-0.2,0.8,0.3c0.2,0.5,0.4,0.9,0.6,1c0.8,1.2,1.8,1.2,3-0.2c-0.2,0-0.4,0-0.7-0.1
	c-0.3-0.1-0.6-0.2-0.8-0.2c-0.2-0.1-0.4-0.2-0.5-0.3c-0.1-0.2,0-0.4,0.3-0.7c0.3-0.3,0.7-0.8,1-1.6c0.4-0.8,0.7-1.4,0.8-1.8
	c-0.6,0.3-1,0.2-1.3-0.5c-0.2-0.6-0.7-0.8-1.3-0.7c-0.3,0.2-0.5-0.2-0.5-0.9c0-0.6-0.1-0.8-0.3-0.6c-0.2,0.2-0.4,0.2-0.6-0.1
	c0.2-0.5,0.3-0.7,0.6-0.7c0.2,0,0-0.2-0.8-0.5c-0.5-0.2-0.8-0.5-1-0.9c-0.2-0.5-0.6-0.5-1-0.2c-0.3,0.2-0.6,0.4-0.8,0.7
	c-0.2,0.3-0.5,0.3-0.8,0c-0.3-0.2-0.4-0.4-0.3-0.7c0.1-0.3,0.3-0.5,0.6-0.7c0.6,0.3,1,0.3,1.2,0.1c0.2-0.2,0.5-0.4,0.9-0.6
	c0.9,0.3,1.4,0,1.4-0.9c-0.8-0.2-1.7,0-2.7,0.6c-1,0.5-1.9,0.4-2.7-0.3c0-0.3,0.1-0.5,0.3-0.5c0.2,0,0.3-0.2,0.3-0.5
	c-0.6,0.2-1.2,0.2-1.8,0c-0.2,0.3-0.2,0.5,0,0.6c0.2,0.1,0.2,0.3,0.2,0.6c-0.5,0.3-1,0.6-1.5,0.8c-0.5,0.2-0.3,0.4,0.8,0.6
	c0.3,0.2,0.4,0.5,0.3,1.2C135.2,99.5,135,99.9,134.7,100.1z M131,103.1c0,0.8,0.2,1,0.7,0.6c0.5-0.4,0.8-0.7,0.9-0.8
	c-0.3-0.3-0.6-0.3-0.8,0.1C131.5,103.3,131.3,103.4,131,103.1z M131,112.8c0.3,0.3,0.7,0.3,1,0.1c0.4-0.2,0.7-0.5,1-0.8
	c-0.6,0.2-1.1,0.1-1.5-0.1C131.2,111.7,131,112,131,112.8z M133.5,146.7c-0.3-0.3-0.7-0.6-1.2-0.8c-0.5-0.2-0.8-0.1-1.2,0.3
	c0.3,0.2,0.7,0.4,1.2,0.7C132.8,147.2,133.2,147.2,133.5,146.7z M133.5,151.8c-0.3-0.3-0.8-0.7-1.4-1c-0.6-0.4-0.9-0.2-0.9,0.6
	c0.2,0,0.7,0.2,1.5,0.7C133.5,152.5,133.8,152.4,133.5,151.8z M133,140.5c0,0.8-0.5,1-1.6,0.7c0.2,0.3,0.3,0.6,0.5,0.8
	c0.2,0.2,0.2,0.6,0,1c0.3,0,0.7,0,1.2,0s0.7,0.2,0.7,0.7c-0.5,0.2-0.8,0.3-1.2,0.5c-0.2,0.2-0.4,0.2-0.7,0.2h-0.5
	c0.6,0.5,1.2,0.6,1.8,0.5c0.6-0.2,1.2-0.4,1.8-0.7c0.5-0.8,0.8-0.7,1.2,0.2c0.3,0.5,0.6,0.5,0.9,0.2c0.3-0.3,0.7-0.5,1.2-0.5
	c-0.2,0.5-0.4,0.8-0.8,1c-0.4,0.2-0.7,0.5-1,0.8c-0.8-0.6-1.2-1-1.4-1c-0.2-0.1-0.6,0.2-1.4,0.8c0.8,0.3,1.2,0.8,1.3,1.5
	c0.1,0.7,0.1,1.4,0.1,2.2c0.3-0.2,0.6-0.2,0.8-0.2c0.2,0,0.4-0.2,0.6-0.5c0.3-0.8,0.3-1.1-0.1-0.9c-0.4,0.2-0.6,0.1-0.6-0.2
	c0.3-0.3,0.6-0.6,0.8-0.8c0.2-0.2,0.7-0.3,1.3-0.1c-0.2-0.6-0.1-1,0.1-1.2c0.2-0.2,0.5-0.1,0.8,0.1c0.3,0.2,0.6,0.5,0.9,0.8
	c0.3,0.3,0.5,0.5,0.7,0.5c0.3-0.8,0.1-1.3-0.7-1.7c-0.8-0.4-1.3-0.9-1.6-1.5c-0.2-0.3-0.3-0.9-0.3-1.7c-0.1-0.8-0.4-1.1-1-0.8
	c0.6,0.8,0.8,1.3,0.6,1.5c-0.2,0.2-0.7,0.6-1.3,1c0-0.5-0.3-0.7-0.8-0.8c-0.5-0.1-1,0-1.3,0.1c0.2-0.3,0-0.5-0.5-0.7
	c-0.5-0.2-0.5-0.5-0.2-0.9c0.3-0.5,0.4-0.7,0.3-0.6C133.5,140.9,133.3,140.8,133,140.5z M131.9,93.8c0,0.5,0.2,0.7,0.7,0.7
	c0-0.3-0.1-0.5-0.2-0.5C132.2,94.1,132,94,131.9,93.8z M132.8,135.8c-0.3,0.3-0.5,0.7-0.5,1c0,0.4-0.2,0.7-0.5,1
	c0.8,0.8,1.4,0.7,1.8-0.3C134.2,136.6,133.9,136,132.8,135.8z M132.1,106.1c-0.3,0.8-0.2,1,0.2,0.7c0.5-0.3,0.8-0.5,0.9-0.7
	C133,105.8,132.6,105.8,132.1,106.1z M133.3,167.2c0.2-0.5,0.1-0.8-0.2-1.2c0,0.3-0.1,0.5-0.3,0.5c-0.2,0-0.3,0.2-0.1,0.5
	C132.7,167.2,133,167.2,133.3,167.2z M133.7,83.2c0.3-0.5,0.2-0.7-0.2-0.8c-0.5-0.1-0.7,0-0.7,0.3C133.1,82.7,133.4,82.9,133.7,83.2
	z M133,149c0.6,0,0.9-0.4,0.9-1.2C133,147.7,132.7,148.1,133,149z M135.8,91.5c0.5-0.3,0.3-0.7-0.3-1c-0.7-0.4-1.2-0.2-1.5,0.6
	c0.2-0.3,0.1-0.5-0.2-0.6c-0.3-0.1-0.5,0-0.5,0.3c0.3,0,0.4,0.2,0.3,0.6c-0.1,0.4-0.1,0.7-0.1,0.8l1.4-0.7c0.2,0.8,0.5,1.5,1.2,2.2
	c0.6,0.7,0.8,0.3,0.7-1C135.3,92.7,135,92.3,135.8,91.5z M134.9,157.5c0.2-0.8,0-1.2-0.5-1.2c-0.5,0-0.8,0.2-1.2,0.7
	c0.3,0,0.5,0.1,0.7,0.2C134.1,157.5,134.4,157.5,134.9,157.5z M134.4,110.7c0.8,0,1.2-0.3,1.4-0.9
	C135,110.1,134.6,110.4,134.4,110.7z M134.4,113.7c0.5,0,0.6-0.2,0.3-0.5C134.5,112.9,134.4,113.1,134.4,113.7z M143.2,150.2
	c0-0.6,0.2-1,0.5-1c0.3-0.1,0.7-0.1,1,0c0.4,0.1,0.8,0.2,1.2,0.2c0.4,0.1,0.7,0,1-0.3c-0.5-0.3-0.7-0.5-0.6-0.6c0.1-0.1-0.3,0-1,0.1
	c-0.3,0.2-0.3-0.1,0-0.7c0.2-0.3,0.4-0.6,0.7-0.9c-0.3-0.2-0.7-0.1-1,0.2c-0.4,0.3-0.7,0.7-1,1c-0.3,0.4-0.6,0.7-0.9,0.9
	c-0.3,0.2-0.5,0.2-0.5-0.1c0-0.8,0.2-1.1,0.7-1c0.5,0.1,0.4-0.2-0.2-0.8c-0.3-0.5-0.3-0.9,0-1.4c0.3-0.5,0.1-0.8-0.7-1.2
	c-0.2,1.1-0.5,2.2-1.2,3.2c0.2,0.3,0.4,0.7,0.7,1c0.3,0.4,0.1,0.7-0.7,1c-0.5-0.8-0.8-1.2-1-1.2c-0.2,0-0.7-0.2-1.5-0.5
	c-0.2,0.3-0.1,0.6,0.2,0.8c0.3,0.2,0.6,0.4,0.9,0.6c0.3,0.2,0.5,0.3,0.7,0.5c0.2,0.2,0.1,0.3-0.2,0.5c-0.8,0.5-1.2,0.5-1.4,0.1
	c-0.2-0.4-0.5-0.9-0.9-1.5c-0.8,0.3-1.3,0.7-1.6,1.3c-0.3,0.5-0.8,0.9-1.6,1c0.2,0.8,0.7,1.2,1.6,1.4c0.9,0.2,1.5-0.2,1.6-1.2
	c0.3,0,1,0.1,2.2,0.3c1.2,0.2,1.7,0.1,1.5-0.3c0-0.3-0.1-0.6-0.2-0.8c-0.2-0.2-0.2-0.5,0-0.8c0.3-0.2,0.6-0.3,0.9-0.3
	C142.6,149.7,142.9,149.8,143.2,150.2z M135.1,137.7c0.5,0,0.6-0.1,0.3-0.3C135.2,137.1,135.1,137.2,135.1,137.7z M135.6,86.4
	c0.2,0.3,0.2,0.5,0,0.5c-0.2,0-0.2,0.2-0.2,0.5c1.1,0.8,1.9,1.2,2.5,1.2c0-0.8-0.1-1.2-0.3-1.4c-0.2-0.2,0.2-0.2,1.3-0.2
	c-0.3-0.6-0.8-0.7-1.5-0.3C136.6,86.9,136,86.9,135.6,86.4z M135.3,140.7c0.3,0.2,0.5,0,0.6-0.3c0.1-0.4,0-0.6-0.3-0.6
	c0,0.2,0,0.3-0.1,0.3C135.4,140.2,135.3,140.4,135.3,140.7z M136.3,112.8c0,0.2-0.1,0.3-0.2,0.5c-0.2,0.2-0.1,0.3,0.2,0.5
	c0-0.2,0.1-0.3,0.3-0.5C136.8,113.1,136.7,112.9,136.3,112.8z M137,109.8H136C136.3,110.4,136.7,110.4,137,109.8z M137.4,98.7
	c-0.8,0.5-1.2,0.6-1.3,0.3c-0.1-0.2,0-0.5,0.2-0.7c0.2-0.2,0.5-0.4,0.7-0.5C137.3,97.8,137.4,98.1,137.4,98.7z M136.3,116.2
	c0.3,0.3,0.7,0.4,1,0.3c0.4-0.1,0.4-0.3,0.1-0.8c-0.3-0.3-0.6-0.4-0.9-0.2C136.2,115.7,136.1,115.9,136.3,116.2z M137.7,156.4
	c0.6-0.5,0.9-1.1,0.9-1.8c-0.8-0.2-1.2,0.2-1.2,0.9c0,0.8-0.4,1.1-1.2,0.9c0,1.2,0.4,1.8,1.2,1.6c0.2-0.6,0.1-0.9-0.1-0.9
	C137.1,157.1,137.2,156.9,137.7,156.4z M137.2,88.1c-0.2,0-0.2-0.4-0.2-1.2c0.3-0.2,0.4-0.1,0.3,0.2
	C137.2,87.4,137.2,87.7,137.2,88.1z M137.2,92c0.5,0.2,0.8,0.1,1-0.1c0.2-0.2,0.5-0.3,0.8-0.3c-0.2-0.6-0.5-0.9-1.2-0.8
	C137.3,90.8,137,91.2,137.2,92z M137.7,111.6c0.2-0.3,0.4-0.6,0.8-0.8c0.4-0.2,0-0.3-1.3-0.3C137.2,110.9,137.3,111.3,137.7,111.6z
	 M138.8,153.4c0-0.8-0.2-1-0.7-0.6C137.7,153.2,137.9,153.4,138.8,153.4z M139.7,95.4c0.2-0.6-0.1-1-0.7-1.2
	c-0.6-0.2-0.9,0.2-0.9,0.9c0.2,0.3,0.4,0.4,0.7,0.3C139.1,95.5,139.4,95.4,139.7,95.4z M139.3,139.5c0.2,0.3,0,0.4-0.3,0.2
	c-0.4-0.2-0.6-0.1-0.6,0.2c0.8,0.2,1,0.6,0.6,1.3c-0.4,0.7-0.3,1.2,0.1,1.5c0.3,0.3,0.5,0.4,0.7,0.3c0.2-0.1,0.5-0.2,0.9-0.3
	c0.3,0.2,0.5,0.3,0.5,0.6c0,0.2,0.2,0.4,0.5,0.6c0.6-0.6,0.6-1-0.1-1.2c-0.7-0.2-1.1-0.4-1.3-0.7c-0.3-0.3-0.5-0.7-0.5-1.3
	C139.7,140.3,139.6,139.8,139.3,139.5z M139.3,147.8c0-0.5-0.2-0.7-0.7-0.7c-0.2,0.3-0.2,0.5,0,0.7C138.7,148,139,148,139.3,147.8z
	 M139.5,88.5c-0.2-0.5-0.2-0.8-0.2-1c0-0.2-0.2-0.3-0.7-0.3c0,0.3,0.1,0.5,0.3,0.6c0.2,0.1,0.2,0.3-0.1,0.6
	C139.1,88.3,139.3,88.4,139.5,88.5z M139.3,135.6c-0.3,0.3-0.3,0.7,0,1.2c0.3,0.2,0.5,0,0.5-0.3C139.7,136,139.6,135.8,139.3,135.6z
	 M139.3,105.6c-0.3,0.8-0.1,1.2,0.7,1.2c0-0.3,0-0.6,0-0.8C140,105.7,139.7,105.6,139.3,105.6z M139.3,133.8c0.6,0,0.8-0.1,0.5-0.3
	C139.4,133.2,139.3,133.3,139.3,133.8z M139.7,111.1c0.6,0,1-0.2,1-0.7c0.1-0.5,0-0.8-0.3-1.2c-0.5-0.8-0.7-0.7-0.8,0.1
	C139.5,110.3,139.6,110.8,139.7,111.1z M139.7,85.1c0,0.8,0.2,1.1,0.5,0.9C140.2,85.7,140,85.4,139.7,85.1z M141.1,154.5
	c-0.2-0.3-0.2-0.6,0-0.8c0.2-0.2,0.2-0.5,0-0.8c-0.3-0.3-0.6-0.3-0.9,0.1c-0.3,0.4-0.5,0.7-0.5,0.8
	C139.9,154.3,140.3,154.5,141.1,154.5z M141.1,158.7c0.8,0.2,1.2,0,1.4-0.3c0.2-0.4,0.2-0.8,0.1-1.3c-0.1-0.5-0.1-0.9-0.1-1.4
	s0.2-0.8,0.7-0.9c0.5-0.2,0.6-0.4,0.5-0.7c-0.2-0.3-0.5-0.5-0.9-0.5c0,1.2-0.5,1.8-1.4,1.8c-0.8-0.3-1.3-0.2-1.5,0.3
	c-0.2,0.5,0,1,0.8,1.3c0-0.2,0.2-0.2,0.6-0.1c0.4,0.1,0.5,0.3,0.3,0.6c0,0.3-0.1,0.5-0.3,0.6C141,158.2,141,158.4,141.1,158.7z
	 M141.8,88.5c-0.3,0.3-0.7,0.7-1,1.3c-0.4,0.5-0.2,1,0.6,1.3c-0.2-0.6,0-1.2,0.3-1.6C142.1,89,142.1,88.7,141.8,88.5z M141.4,111.4
	c0.3-0.6,0.2-0.9-0.2-0.9c-0.2,0.2-0.2,0.3-0.2,0.6C140.9,111.3,141,111.4,141.4,111.4z M142.5,134.9c-0.6-0.3-1-0.1-1,0.7
	c-0.1,0.8,0,1.3,0.3,1.6c0.2-0.5,0.4-0.9,0.8-1.3C143,135.6,143,135.2,142.5,134.9z M142.3,109.1c0.2-0.6-0.1-0.8-0.7-0.7
	C141.6,108.8,141.8,109.1,142.3,109.1z M143.2,85.7c0.3-0.5,0.3-0.8-0.1-1.2c-0.4-0.3-0.8-0.5-1.3-0.7c0.3,0.5,0.4,0.8,0.3,1.2
	C142.1,85.4,142.4,85.6,143.2,85.7z M141.8,92.9c0,0.3,0.2,0.5,0.5,0.6c0.3,0.1,0.5,0.2,0.7,0.3c-0.3,0.3-0.5,0.5-0.7,0.6
	c-0.2,0.1-0.2,0.3,0,0.8c0.8-0.2,1.1-0.5,0.9-0.9c-0.2-0.5-0.1-0.9,0.2-1.4c-0.2,0-0.5-0.2-0.9-0.5C142,92.1,141.8,92.3,141.8,92.9z
	 M142,151.1c0,0.5,0.2,0.8,0.6,0.9c0.4,0.2,0.7,0.4,1,0.7c-0.2-0.3-0.3-0.8-0.5-1.5C143,150.5,142.7,150.5,142,151.1z M146.2,88.3
	c-0.3-0.9-0.6-1.1-0.8-0.6c-0.2,0.5-0.4,1-0.6,1.3c-0.2,0.2-0.5,0.2-0.9,0.1c-0.5-0.1-0.8-0.1-1.2-0.1c-0.3,0-0.5,0.1-0.5,0.2
	c0,0.2,0.4,0.5,1.2,1.2c0.2,0.2,0.5,0.6,1.2,1.4c0.6,0.8,0.9,0.8,0.9,0c-0.8-0.3-1-0.7-0.6-1.2c0.4-0.5,0.4-0.9,0.1-1.4
	c0.3,0,0.7,0,1-0.1C146.5,89,146.5,88.7,146.2,88.3z M143.4,97.5c-0.5,0-0.7,0.2-0.7,0.5c0.2,0.2,0.3,0.2,0.3,0.2
	c0.1,0,0.2,0.1,0.3,0.2c0-0.2,0-0.3,0.1-0.3C143.6,98,143.6,97.8,143.4,97.5z M144.4,86.9c-0.3,0.2-0.8,0.1-1.4-0.2
	c-0.2,0.3-0.1,0.5,0.2,0.7c0.3,0.2,0.4,0.4,0.2,0.7C144,88.1,144.4,87.7,144.4,86.9z M143.4,119.7c0.3,0.3,0.5,0.6,0.5,0.9
	c-0.8,0.2-1.1,0.1-0.9-0.1C143.1,120.3,143.3,120,143.4,119.7z M143.2,132.6c0.8,0,1-0.1,0.7-0.3C143.6,132,143.3,132.1,143.2,132.6
	z M144.1,134.9c0.2-0.6-0.1-0.8-0.7-0.7C143.1,134.7,143.3,134.9,144.1,134.9z M143.4,156.2c-0.2,0.3-0.1,0.7,0.2,1.2
	c0.3,0.5,0.5,0.5,0.7,0.2c-0.3-0.3-0.3-0.7-0.1-1C144.5,156.1,144.2,156,143.4,156.2z M143.4,95.4c0,0.8,0.2,1.2,0.7,1.2
	C144.4,95.7,144.2,95.3,143.4,95.4z M146.9,99.4c0.2-0.5,0.3-0.7,0.3-0.7c0.1,0-0.1-0.2-0.6-0.5c-0.3-0.3-0.5-0.7-0.6-1.2
	c-0.1-0.5-0.3-0.7-0.8-0.7c0,1.2-0.5,2.2-1.6,3c0.6,0.5,1,0.6,1,0.5c0.1-0.2,0.4-0.4,1-0.7c0.6-0.5,0.8-0.5,0.7-0.1
	C146.3,99.4,146.4,99.5,146.9,99.4z M143.9,118.1c0.3-0.2,0.9-0.2,1.8-0.1c0.9,0.1,1-0.3,0.2-1c-0.5-0.6-0.9-0.8-1.4-0.5
	C144.1,116.8,143.9,117.3,143.9,118.1z M143.9,145.8c0.6,0.2,1,0.2,1,0c0.1-0.2,0-0.3-0.1-0.5c-0.2-0.2-0.3-0.2-0.6-0.2
	C144,145.1,143.9,145.3,143.9,145.8z M144.6,110.4c0,0.3,0,0.6-0.1,0.8c-0.1,0.2,0,0.4,0.3,0.6c0.6-0.6,1-1.2,1.2-1.6
	c-0.3,0-0.5,0.1-0.7,0.2C145.1,110.6,144.9,110.6,144.6,110.4z M145.5,132.6c-0.8-0.3-1.1-0.2-0.9,0.5c0.3,0.2,0.5,0.2,0.6,0
	C145.2,132.9,145.4,132.8,145.5,132.6z M145.7,101.9c0.3-0.9,0-1.5-0.9-1.6c-0.3,0.3-0.3,0.6-0.1,0.8c0.2,0.2,0.5,0.5,0.8,0.8
	c0-0.2,0-0.2,0.1-0.2C145.7,101.7,145.7,101.8,145.7,101.9z M144.6,82.5c0.5,0,0.6-0.2,0.3-0.5C144.7,81.7,144.6,81.9,144.6,82.5z
	 M144.6,93.1c0,0.5,0.2,0.7,0.7,0.6c0.5-0.1,0.7-0.3,0.7-0.6c-0.2-0.2-0.3-0.2-0.6-0.1C145.2,93.1,144.9,93.1,144.6,93.1z
	 M147.1,138.8c-0.9-0.5-1.5-0.2-1.8,0.7c-0.3,0.9-0.5,1.8-0.5,2.8c0.8-0.3,1.2-0.8,1.4-1.6C146.4,139.9,146.7,139.3,147.1,138.8z
	 M144.8,153.2c0.3,0,0.5-0.2,0.6-0.5c0.1-0.3,0.3-0.5,0.6-0.7c-0.3,0.2-0.5,0.2-0.5,0c0-0.2-0.2-0.2-0.5-0.2
	c-0.2,0.3-0.2,0.5-0.1,0.7C145,152.6,145,152.9,144.8,153.2z M147.1,135.8c-0.3-0.3-0.7-0.4-1-0.3c-0.4,0.1-0.7,0.3-0.8,0.6
	c-0.3,0.3-0.2,0.6,0.2,0.9c0.5,0.3,0.8,0.6,1.2,0.9c0.3-0.3,0.9-0.8,1.8-1.6c0.9-0.8,0.9-1.3,0-1.6
	C148.4,135.1,147.9,135.5,147.1,135.8z M146.9,143.2c0.3-0.3,0.7-0.3,1-0.1c0.4,0.2,0.7,0.4,1,0.6c0.2-0.3,0.3-0.6,0.3-0.8
	c0.1-0.2,0.2-0.5,0.3-0.8c-0.3-0.2-0.5-0.2-0.5,0c0,0.2-0.2,0.3-0.5,0.5c0-0.9-0.3-1.4-0.9-1.4c0,1.1-0.7,1.6-2.1,1.6
	c-0.3,0.3-0.3,0.7,0,1.2C146.2,143.9,146.6,143.7,146.9,143.2z M146.2,115.1c0-0.3,0.1-0.6,0.2-0.9c-0.3,0-0.5,0.2-0.7,0.5
	C145.6,114.9,145.7,115.1,146.2,115.1z M146.9,116.2c0.6-0.6,0.5-0.9-0.2-0.9c-0.3-0.2-0.6,0-0.9,0.5c0.3-0.2,0.5-0.1,0.6,0.2
	C146.4,116.3,146.6,116.4,146.9,116.2z M146.4,91.1c0.2-0.5,0.1-0.8-0.2-0.9C145.9,90.4,146,90.7,146.4,91.1z M146.2,152.5
	c0.5,0,0.6-0.1,0.3-0.3C146.3,151.9,146.2,152,146.2,152.5z M147.8,95.7c-0.3-0.3-0.7-0.3-1,0.1c-0.4,0.4-0.4,0.7-0.1,1
	C147.6,96.8,148,96.4,147.8,95.7z M147.6,109.8c-0.3,0.2-0.5,0.2-0.6,0.1c-0.1-0.1-0.2-0.1-0.3-0.1c0.3,0.2,0.3,0.7,0,1.6
	c-0.3,0.9,0.1,1.3,1.2,1.2c0-0.5-0.1-0.9-0.3-1.3C147.2,110.9,147.3,110.4,147.6,109.8z M146.9,130.5c-0.2,0.3,0,0.5,0.3,0.5
	c0.4,0,0.5-0.2,0.3-0.5H146.9z M147.8,151.3c0.3-0.3,0.2-0.5-0.2-0.6c-0.5-0.1-0.6,0-0.5,0.3c0.2-0.2,0.3-0.2,0.3,0
	C147.5,151.2,147.7,151.3,147.8,151.3z M147.6,113.9c1.1,0,1.4-0.3,0.9-0.8c-0.5-0.5-0.8-0.4-1.2,0.3c0,0.3,0,0.7,0,1.3
	c0,0.5,0.3,0.7,0.9,0.3C147.8,114.9,147.6,114.5,147.6,113.9z M147.8,86.9c-0.2,0.3-0.3,0.7-0.3,1.2c-0.1,0.5,0,0.8,0.3,1.2
	c0.3,0,0.8-0.2,1.6-0.6c0.8-0.4,1.1-0.7,0.9-1c-0.6,0.3-1,0.3-1.3-0.1C148.9,87.1,148.4,86.9,147.8,86.9z M148.5,99.4
	c0-0.3,0.1-0.5,0.3-0.6c0.2-0.1,0.3-0.3,0.1-0.6c-0.3-0.3-0.7-0.4-1-0.2c-0.4,0.2-0.5,0.4-0.3,0.7c0.2,0.2,0.3,0.3,0.5,0.3
	C148.2,99.1,148.4,99.2,148.5,99.4z M148.5,109.8c0,0.3-0.1,0.6-0.2,0.9c-0.2,0.3-0.1,0.6,0.2,0.9c0.8-0.3,1.1-0.2,0.9,0.3
	c-0.2,0.5-0.1,1,0.2,1.3c0.5,0.3,0.7,0.2,0.7-0.2c0-0.5,0-0.8,0-0.9C150.4,110.8,149.7,110.1,148.5,109.8z M149.7,97.3
	c0.3-0.3,0.3-0.7,0-1c-0.3-0.4-0.6-0.7-0.9-0.8C148.3,96.1,148.6,96.7,149.7,97.3z M149.4,163.1c0-0.3,0.1-0.6,0.2-0.8
	c0.2-0.2-0.2-0.3-0.9-0.3C148.7,162.5,149,162.9,149.4,163.1z M152.7,99.4c0.3-0.5,0-0.8-0.8-0.9c-0.8-0.2-1.4-0.4-1.7-0.7
	c0,0.5-0.2,0.8-0.5,1.2c0.6,0.3,1.2,0.7,1.6,1C151.7,100.3,152.2,100.1,152.7,99.4z M150.8,130.8c0,0.3-0.2,0.5-0.6,0.5
	c-0.4,0-0.5,0.2-0.3,0.7c0.3,0.2,0.6,0,0.9-0.3C151.1,131.2,151.1,130.9,150.8,130.8z M150.1,145.1c-0.3,0.5-0.2,0.7,0.3,0.7
	c0.5,0,0.7-0.2,0.6-0.5C151,145.2,150.7,145.1,150.1,145.1z M150.4,140.9c0.2,0,0.5,0.1,1,0.2c0.5,0.2,0.8-0.1,0.8-0.7
	c-0.2-0.5-0.5-0.6-1-0.5C150.6,140.2,150.4,140.5,150.4,140.9z M151.7,151.8c0.5-0.5,0.6-0.8,0.5-0.9c-0.2-0.2-0.4-0.5-0.7-0.9
	c-0.2,0.3-0.3,0.7-0.3,1C151.1,151.3,151.3,151.6,151.7,151.8z M153.8,113.7c-0.2,0.2-0.4,0.2-0.7,0.1c-0.3-0.1-0.5-0.2-0.7-0.2
	c-0.2-0.1-0.3,0-0.3,0.1c-0.1,0.2,0,0.6,0.3,1.4c0.3,0,0.7-0.2,1.2-0.5C154,114.3,154.1,114,153.8,113.7z M152.2,134.9
	c0.6,0.6,1.2,0.5,1.6-0.2c0.2-0.6-0.1-0.9-0.8-0.8C152.3,134,152,134.3,152.2,134.9z M152.9,112.3c-0.3,0.6-0.2,0.8,0.5,0.7
	C153.4,112.8,153.2,112.6,152.9,112.3z M154.7,102.6c0,0.3,0,0.6,0.1,0.8c0.1,0.2,0,0.5-0.1,0.8c-0.3-0.3-0.7-0.6-1-0.8
	c-0.4-0.2-0.6-0.6-0.6-1c0.3-0.3,0.6-0.3,0.8,0C154.2,102.7,154.4,102.8,154.7,102.6z M154.7,110.7c0.3-0.8,0.1-1.1-0.6-0.9
	c-0.7,0.2-1,0.6-0.8,1.4c0.5-0.2,0.7,0,0.8,0.3C154.2,111.9,154.4,111.6,154.7,110.7z M153.4,116c0.2,0.3,0.3,0.4,0.6,0.3
	c0.2-0.1,0.3-0.3,0.1-0.6C153.6,115.6,153.4,115.7,153.4,116z M154,152c0.3-0.6,0.5-1,0.5-1.2c-0.3-0.2-0.5-0.2-0.6-0.1
	c-0.1,0.1-0.3,0.1-0.6,0.1C153.4,151.5,153.6,151.9,154,152z M155.2,106.8c0,0.5-0.3,0.7-0.9,0.7c0-0.2,0-0.4,0.1-0.8
	C154.5,106.3,154.7,106.3,155.2,106.8z M154.7,102.1c0-0.8,0.5-1,1.4-0.7C156.1,101.9,155.7,102.1,154.7,102.1z M157.7,139.5
	c0.5,0,0.6,0.1,0.3,0.3C157.9,140.1,157.7,140,157.7,139.5z"/>
</svg>
